%
M48
M72
T01C0.0120
T02C0.0360
T03C0.0400
T04C0.1102
%
T01
X24805Y5070
X31045Y8130
X31105Y8610
X34225Y8250
X28645Y11070
X30025Y12750
X28345Y16530
X27565Y16350
X28765Y18150
X29245Y18930
X42565Y16410
X42385Y15510
X42805Y14130
T02
X21163Y16370
X20163Y16370
T03
X22580Y20319
X23580Y20319
X24580Y20319
X25580Y20319
X26580Y20319
X27580Y20319
X28580Y20319
X29580Y20319
X30580Y20319
X31580Y20319
X32580Y20319
X33580Y20319
X34580Y20319
X35580Y20319
X36580Y20319
X37580Y20319
X38580Y20319
X39580Y20319
X40580Y20319
X41580Y20319
X41580Y21319
X40580Y21319
X39580Y21319
X38580Y21319
X37580Y21319
X36580Y21319
X35580Y21319
X34580Y21319
X33580Y21319
X32580Y21319
X31580Y21319
X30580Y21319
X29580Y21319
X28580Y21319
X27580Y21319
X26580Y21319
X25580Y21319
X24580Y21319
X23580Y21319
X22580Y21319
X23797Y2119
X24797Y2119
X25797Y2119
T04
X20663Y1528
X43498Y1528
X43498Y20819
X20663Y20819
M30
