G75*
%MOIN*%
%OFA0B0*%
%FSLAX25Y25*%
%IPPOS*%
%LPD*%
%AMOC8*
5,1,8,0,0,1.08239X$1,22.5*
%
%ADD10C,0.11424*%
%ADD11OC8,0.06400*%
%ADD12R,0.08000X0.08000*%
%ADD13C,0.08000*%
%ADD14C,0.06000*%
D10*
X0206631Y0015280D03*
X0434977Y0015280D03*
X0434977Y0208193D03*
X0206631Y0208193D03*
D11*
X0225804Y0213193D03*
X0235804Y0213193D03*
X0245804Y0213193D03*
X0255804Y0213193D03*
X0265804Y0213193D03*
X0275804Y0213193D03*
X0285804Y0213193D03*
X0295804Y0213193D03*
X0305804Y0213193D03*
X0315804Y0213193D03*
X0325804Y0213193D03*
X0335804Y0213193D03*
X0345804Y0213193D03*
X0355804Y0213193D03*
X0365804Y0213193D03*
X0375804Y0213193D03*
X0385804Y0213193D03*
X0395804Y0213193D03*
X0405804Y0213193D03*
X0415804Y0213193D03*
X0415804Y0203193D03*
X0405804Y0203193D03*
X0395804Y0203193D03*
X0385804Y0203193D03*
X0375804Y0203193D03*
X0365804Y0203193D03*
X0355804Y0203193D03*
X0345804Y0203193D03*
X0335804Y0203193D03*
X0325804Y0203193D03*
X0315804Y0203193D03*
X0305804Y0203193D03*
X0295804Y0203193D03*
X0285804Y0203193D03*
X0275804Y0203193D03*
X0265804Y0203193D03*
X0255804Y0203193D03*
X0245804Y0203193D03*
X0235804Y0203193D03*
X0225804Y0203193D03*
D12*
X0237969Y0021185D03*
D13*
X0247969Y0021185D03*
X0257969Y0021185D03*
D14*
X0211631Y0160905D02*
X0211631Y0166505D01*
X0201631Y0166505D02*
X0201631Y0160905D01*
M02*
