G75*
%MOIN*%
%OFA0B0*%
%FSLAX25Y25*%
%IPPOS*%
%LPD*%
%AMOC8*
5,1,8,0,0,1.08239X$1,22.5*
%
%ADD10OC8,0.06000*%
%ADD11R,0.03937X0.05512*%
%ADD12R,0.06299X0.06299*%
%ADD13R,0.05512X0.04331*%
%ADD14R,0.04724X0.04724*%
%ADD15R,0.07600X0.07600*%
%ADD16C,0.07600*%
%ADD17R,0.04331X0.05512*%
%ADD18R,0.05118X0.05906*%
%ADD19R,0.03937X0.03937*%
%ADD20C,0.05600*%
%ADD21C,0.01000*%
%ADD22C,0.00600*%
%ADD23C,0.02400*%
D10*
X0225804Y0203193D03*
X0235804Y0203193D03*
X0245804Y0203193D03*
X0255804Y0203193D03*
X0265804Y0203193D03*
X0275804Y0203193D03*
X0285804Y0203193D03*
X0295804Y0203193D03*
X0305804Y0203193D03*
X0315804Y0203193D03*
X0325804Y0203193D03*
X0335804Y0203193D03*
X0345804Y0203193D03*
X0355804Y0203193D03*
X0365804Y0203193D03*
X0375804Y0203193D03*
X0385804Y0203193D03*
X0395804Y0203193D03*
X0405804Y0203193D03*
X0415804Y0203193D03*
X0415804Y0213193D03*
X0405804Y0213193D03*
X0395804Y0213193D03*
X0385804Y0213193D03*
X0375804Y0213193D03*
X0365804Y0213193D03*
X0355804Y0213193D03*
X0345804Y0213193D03*
X0335804Y0213193D03*
X0325804Y0213193D03*
X0315804Y0213193D03*
X0305804Y0213193D03*
X0295804Y0213193D03*
X0285804Y0213193D03*
X0275804Y0213193D03*
X0265804Y0213193D03*
X0255804Y0213193D03*
X0245804Y0213193D03*
X0235804Y0213193D03*
X0225804Y0213193D03*
D11*
X0248166Y0121972D03*
X0255646Y0121972D03*
X0269820Y0121972D03*
X0277300Y0121972D03*
X0273560Y0113311D03*
X0251906Y0113311D03*
X0251906Y0076697D03*
X0248166Y0068035D03*
X0255646Y0068035D03*
X0269820Y0068035D03*
X0277300Y0068035D03*
X0273560Y0076697D03*
D12*
X0200725Y0048547D03*
X0200725Y0033193D03*
X0200725Y0174925D03*
X0200725Y0190280D03*
D13*
X0240095Y0153075D03*
X0240095Y0145201D03*
X0261749Y0145201D03*
X0261749Y0153075D03*
X0283402Y0153075D03*
X0283402Y0145201D03*
X0409387Y0066461D03*
X0409387Y0058587D03*
X0283402Y0048744D03*
X0283402Y0040870D03*
X0261749Y0040870D03*
X0261749Y0048744D03*
X0240095Y0048744D03*
X0240095Y0040870D03*
D14*
X0279269Y0021185D03*
X0287536Y0021185D03*
X0220410Y0107602D03*
X0220410Y0115870D03*
X0421001Y0132406D03*
X0429269Y0132406D03*
X0429269Y0146185D03*
X0421001Y0146185D03*
X0421001Y0159965D03*
X0429269Y0159965D03*
X0429269Y0173744D03*
X0421001Y0173744D03*
X0421001Y0187524D03*
X0429269Y0187524D03*
D15*
X0237969Y0021185D03*
D16*
X0247969Y0021185D03*
X0257969Y0021185D03*
D17*
X0314898Y0080240D03*
X0322772Y0080240D03*
X0346394Y0080240D03*
X0354269Y0080240D03*
X0385765Y0080240D03*
X0393639Y0080240D03*
X0397182Y0132406D03*
X0405056Y0132406D03*
X0405056Y0146185D03*
X0397182Y0146185D03*
X0397182Y0159965D03*
X0405056Y0159965D03*
X0405056Y0173744D03*
X0397182Y0173744D03*
X0396001Y0187524D03*
X0403875Y0187524D03*
D18*
X0393048Y0048744D03*
X0386355Y0048744D03*
X0353678Y0048744D03*
X0346985Y0048744D03*
X0322182Y0048744D03*
X0315489Y0048744D03*
D19*
X0315686Y0025122D03*
X0321985Y0025122D03*
X0347182Y0025122D03*
X0353481Y0025122D03*
X0353481Y0009374D03*
X0347182Y0009374D03*
X0321985Y0009374D03*
X0315686Y0009374D03*
X0392457Y0009374D03*
X0398757Y0009374D03*
X0398757Y0025122D03*
X0392457Y0025122D03*
D20*
X0211631Y0160905D02*
X0211631Y0166505D01*
X0201631Y0166505D02*
X0201631Y0160905D01*
D21*
X0194351Y0043020D02*
X0194351Y0017691D01*
X0194692Y0019625D01*
X0196898Y0023446D01*
X0200278Y0026282D01*
X0204425Y0027791D01*
X0208837Y0027791D01*
X0212983Y0026282D01*
X0216363Y0023446D01*
X0218569Y0019625D01*
X0219335Y0015280D01*
X0218569Y0010934D01*
X0216363Y0007113D01*
X0212983Y0004277D01*
X0209475Y0003000D01*
X0432133Y0003000D01*
X0428625Y0004277D01*
X0425245Y0007113D01*
X0423039Y0010934D01*
X0422272Y0015280D01*
X0423039Y0019625D01*
X0425245Y0023446D01*
X0428625Y0026282D01*
X0432771Y0027791D01*
X0437183Y0027791D01*
X0441330Y0026282D01*
X0444710Y0023446D01*
X0446916Y0019625D01*
X0447257Y0017691D01*
X0447257Y0205782D01*
X0446916Y0203848D01*
X0444710Y0200026D01*
X0441330Y0197190D01*
X0437183Y0195681D01*
X0432771Y0195681D01*
X0428625Y0197190D01*
X0425245Y0200026D01*
X0423039Y0203848D01*
X0422272Y0208193D01*
X0423039Y0212538D01*
X0425245Y0216359D01*
X0428625Y0219196D01*
X0432133Y0220472D01*
X0209475Y0220472D01*
X0212983Y0219196D01*
X0216363Y0216359D01*
X0218569Y0212538D01*
X0219335Y0208193D01*
X0218569Y0203848D01*
X0216363Y0200026D01*
X0212983Y0197190D01*
X0208837Y0195681D01*
X0204425Y0195681D01*
X0200278Y0197190D01*
X0196898Y0200026D01*
X0194692Y0203848D01*
X0194351Y0205782D01*
X0194351Y0180780D01*
X0197451Y0183880D01*
X0197451Y0186030D01*
X0197120Y0186030D01*
X0196476Y0186674D01*
X0196476Y0193885D01*
X0197120Y0194529D01*
X0204330Y0194529D01*
X0204975Y0193885D01*
X0204975Y0186674D01*
X0204330Y0186030D01*
X0200251Y0186030D01*
X0200251Y0182720D01*
X0199431Y0181900D01*
X0196051Y0178520D01*
X0196051Y0171280D01*
X0197251Y0170080D01*
X0197251Y0159280D01*
X0200031Y0156500D01*
X0205431Y0156500D01*
X0206251Y0155680D01*
X0217051Y0144880D01*
X0217051Y0119120D01*
X0216231Y0118300D01*
X0215251Y0117320D01*
X0215251Y0083680D01*
X0217051Y0081880D01*
X0217051Y0075080D01*
X0217851Y0075880D01*
X0217851Y0104140D01*
X0217592Y0104140D01*
X0216948Y0104785D01*
X0216948Y0110420D01*
X0217592Y0111065D01*
X0223228Y0111065D01*
X0223872Y0110420D01*
X0223872Y0109100D01*
X0243871Y0109100D01*
X0248451Y0113680D01*
X0248451Y0113680D01*
X0248838Y0114066D01*
X0248838Y0114307D01*
X0248031Y0113500D01*
X0246271Y0113500D01*
X0242671Y0117100D01*
X0241851Y0117920D01*
X0241851Y0126280D01*
X0256251Y0140680D01*
X0257071Y0141500D01*
X0274471Y0141500D01*
X0279051Y0146080D01*
X0279546Y0146575D01*
X0279546Y0147822D01*
X0280191Y0148466D01*
X0286614Y0148466D01*
X0287258Y0147822D01*
X0287258Y0142580D01*
X0286614Y0141935D01*
X0280191Y0141935D01*
X0279546Y0142580D01*
X0279546Y0142615D01*
X0275631Y0138700D01*
X0258231Y0138700D01*
X0244651Y0125120D01*
X0244651Y0119080D01*
X0247151Y0116580D01*
X0248688Y0118117D01*
X0245742Y0118117D01*
X0245098Y0118761D01*
X0245098Y0125184D01*
X0245742Y0125828D01*
X0247251Y0125828D01*
X0247251Y0126880D01*
X0249051Y0128680D01*
X0249871Y0129500D01*
X0275631Y0129500D01*
X0277431Y0127700D01*
X0278251Y0126880D01*
X0278251Y0125828D01*
X0279724Y0125828D01*
X0280368Y0125184D01*
X0280368Y0118761D01*
X0279724Y0118117D01*
X0274876Y0118117D01*
X0274231Y0118761D01*
X0274231Y0125184D01*
X0274876Y0125828D01*
X0275343Y0125828D01*
X0274471Y0126700D01*
X0251031Y0126700D01*
X0250159Y0125828D01*
X0250590Y0125828D01*
X0251235Y0125184D01*
X0251235Y0120663D01*
X0252578Y0122007D01*
X0252578Y0125184D01*
X0253222Y0125828D01*
X0258071Y0125828D01*
X0258715Y0125184D01*
X0258715Y0118761D01*
X0258071Y0118117D01*
X0253222Y0118117D01*
X0252935Y0118404D01*
X0251698Y0117167D01*
X0254330Y0117167D01*
X0254975Y0116523D01*
X0254975Y0114500D01*
X0270491Y0114500D01*
X0270491Y0116523D01*
X0271136Y0117167D01*
X0275984Y0117167D01*
X0276628Y0116523D01*
X0276628Y0110099D01*
X0275984Y0109455D01*
X0271136Y0109455D01*
X0270491Y0110099D01*
X0270491Y0111700D01*
X0254975Y0111700D01*
X0254975Y0110099D01*
X0254330Y0109455D01*
X0249482Y0109455D01*
X0248838Y0110099D01*
X0248838Y0110107D01*
X0245851Y0107120D01*
X0245851Y0107120D01*
X0245031Y0106300D01*
X0223872Y0106300D01*
X0223872Y0104785D01*
X0223228Y0104140D01*
X0220651Y0104140D01*
X0220651Y0074720D01*
X0219831Y0073900D01*
X0202051Y0056120D01*
X0202051Y0052797D01*
X0204330Y0052797D01*
X0204975Y0052152D01*
X0204975Y0044942D01*
X0204330Y0044298D01*
X0197120Y0044298D01*
X0196476Y0044942D01*
X0196476Y0052152D01*
X0197120Y0052797D01*
X0199251Y0052797D01*
X0199251Y0055120D01*
X0196051Y0051920D01*
X0196051Y0045280D01*
X0202051Y0039280D01*
X0202051Y0037443D01*
X0204330Y0037443D01*
X0204975Y0036798D01*
X0204975Y0029588D01*
X0204330Y0028943D01*
X0197120Y0028943D01*
X0196476Y0029588D01*
X0196476Y0036798D01*
X0197120Y0037443D01*
X0199251Y0037443D01*
X0199251Y0038120D01*
X0194351Y0043020D01*
X0194351Y0042439D02*
X0194932Y0042439D01*
X0194351Y0041440D02*
X0195931Y0041440D01*
X0196929Y0040442D02*
X0194351Y0040442D01*
X0194351Y0039443D02*
X0197928Y0039443D01*
X0198926Y0038445D02*
X0194351Y0038445D01*
X0194351Y0037446D02*
X0199251Y0037446D01*
X0202051Y0037446D02*
X0244925Y0037446D01*
X0243951Y0038249D02*
X0243307Y0037605D01*
X0236884Y0037605D01*
X0236239Y0038249D01*
X0236239Y0039700D01*
X0235471Y0039700D01*
X0233671Y0041500D01*
X0232851Y0042320D01*
X0232851Y0068080D01*
X0273871Y0109100D01*
X0275671Y0109100D01*
X0287451Y0120880D01*
X0287451Y0162320D01*
X0285588Y0164184D01*
X0284851Y0163447D01*
X0284851Y0156340D01*
X0286614Y0156340D01*
X0287258Y0155696D01*
X0287258Y0150454D01*
X0286614Y0149809D01*
X0280191Y0149809D01*
X0279546Y0150454D01*
X0279546Y0155696D01*
X0280191Y0156340D01*
X0282051Y0156340D01*
X0282051Y0163447D01*
X0281315Y0164184D01*
X0270451Y0153320D01*
X0269631Y0152500D01*
X0265605Y0152500D01*
X0265605Y0150454D01*
X0264960Y0149809D01*
X0258537Y0149809D01*
X0257893Y0150454D01*
X0257893Y0151900D01*
X0243951Y0151900D01*
X0243951Y0150454D01*
X0243307Y0149809D01*
X0236884Y0149809D01*
X0236239Y0150454D01*
X0236239Y0155696D01*
X0236884Y0156340D01*
X0239451Y0156340D01*
X0239451Y0199520D01*
X0238851Y0200120D01*
X0238851Y0200442D01*
X0237502Y0199093D01*
X0234106Y0199093D01*
X0231704Y0201495D01*
X0231704Y0204891D01*
X0234106Y0207293D01*
X0237502Y0207293D01*
X0238851Y0205944D01*
X0238851Y0206080D01*
X0239451Y0206680D01*
X0239451Y0207320D01*
X0237590Y0209181D01*
X0237502Y0209093D01*
X0234106Y0209093D01*
X0231704Y0211495D01*
X0231704Y0211900D01*
X0229904Y0211900D01*
X0229904Y0211495D01*
X0227502Y0209093D01*
X0224106Y0209093D01*
X0221704Y0211495D01*
X0221704Y0214891D01*
X0224106Y0217293D01*
X0227502Y0217293D01*
X0229904Y0214891D01*
X0229904Y0214700D01*
X0231704Y0214700D01*
X0231704Y0214891D01*
X0234106Y0217293D01*
X0237502Y0217293D01*
X0239904Y0214891D01*
X0239904Y0211495D01*
X0239570Y0211161D01*
X0241431Y0209300D01*
X0242251Y0208480D01*
X0242251Y0205520D01*
X0241651Y0204920D01*
X0241651Y0201280D01*
X0242251Y0200680D01*
X0242251Y0156340D01*
X0243307Y0156340D01*
X0243951Y0155696D01*
X0243951Y0154700D01*
X0257893Y0154700D01*
X0257893Y0155696D01*
X0258537Y0156340D01*
X0264960Y0156340D01*
X0265605Y0155696D01*
X0265605Y0155300D01*
X0268471Y0155300D01*
X0274535Y0161364D01*
X0273351Y0162547D01*
X0273351Y0164453D01*
X0274251Y0165353D01*
X0274251Y0199093D01*
X0274106Y0199093D01*
X0271704Y0201495D01*
X0271704Y0204891D01*
X0274106Y0207293D01*
X0277502Y0207293D01*
X0279904Y0204891D01*
X0279904Y0201495D01*
X0277502Y0199093D01*
X0277051Y0199093D01*
X0277051Y0165353D01*
X0277788Y0164616D01*
X0282051Y0168880D01*
X0294271Y0181100D01*
X0423871Y0181100D01*
X0426833Y0184061D01*
X0426451Y0184061D01*
X0425806Y0184706D01*
X0425806Y0190341D01*
X0426451Y0190986D01*
X0432086Y0190986D01*
X0432731Y0190341D01*
X0432731Y0184706D01*
X0432086Y0184061D01*
X0430651Y0184061D01*
X0430651Y0183920D01*
X0425851Y0179120D01*
X0425031Y0178300D01*
X0295431Y0178300D01*
X0285431Y0168300D01*
X0290251Y0163480D01*
X0290251Y0119720D01*
X0289431Y0118900D01*
X0289431Y0118900D01*
X0276831Y0106300D01*
X0275031Y0106300D01*
X0235651Y0066920D01*
X0235651Y0043480D01*
X0236239Y0042892D01*
X0236239Y0043491D01*
X0236884Y0044135D01*
X0243307Y0044135D01*
X0243951Y0043491D01*
X0243951Y0041900D01*
X0244431Y0041900D01*
X0254631Y0031700D01*
X0255451Y0030880D01*
X0255451Y0027280D01*
X0256748Y0025983D01*
X0256995Y0026085D01*
X0258944Y0026085D01*
X0260745Y0025339D01*
X0262123Y0023961D01*
X0262869Y0022160D01*
X0262869Y0020210D01*
X0262123Y0018409D01*
X0260745Y0017031D01*
X0258944Y0016285D01*
X0256995Y0016285D01*
X0255194Y0017031D01*
X0253815Y0018409D01*
X0253150Y0020015D01*
X0253139Y0019944D01*
X0252881Y0019151D01*
X0252502Y0018407D01*
X0252012Y0017732D01*
X0251422Y0017142D01*
X0250747Y0016652D01*
X0250004Y0016273D01*
X0249210Y0016016D01*
X0248469Y0015898D01*
X0248469Y0020685D01*
X0247469Y0020685D01*
X0247469Y0015898D01*
X0246728Y0016016D01*
X0245935Y0016273D01*
X0245191Y0016652D01*
X0244517Y0017142D01*
X0243927Y0017732D01*
X0243436Y0018407D01*
X0243058Y0019151D01*
X0242869Y0019730D01*
X0242869Y0016929D01*
X0242225Y0016285D01*
X0233714Y0016285D01*
X0233069Y0016929D01*
X0233069Y0025441D01*
X0233714Y0026085D01*
X0242225Y0026085D01*
X0242869Y0025441D01*
X0242869Y0022640D01*
X0243058Y0023220D01*
X0243436Y0023963D01*
X0243927Y0024638D01*
X0244517Y0025228D01*
X0245191Y0025718D01*
X0245935Y0026097D01*
X0246728Y0026355D01*
X0247469Y0026472D01*
X0247469Y0021685D01*
X0248469Y0021685D01*
X0248469Y0026472D01*
X0249210Y0026355D01*
X0250004Y0026097D01*
X0250747Y0025718D01*
X0251422Y0025228D01*
X0252012Y0024638D01*
X0252502Y0023963D01*
X0252881Y0023220D01*
X0253139Y0022426D01*
X0253150Y0022355D01*
X0253815Y0023961D01*
X0254313Y0024458D01*
X0252651Y0026120D01*
X0252651Y0029720D01*
X0243951Y0038420D01*
X0243951Y0038249D01*
X0245923Y0036448D02*
X0204975Y0036448D01*
X0204975Y0035449D02*
X0246922Y0035449D01*
X0247920Y0034451D02*
X0204975Y0034451D01*
X0204975Y0033452D02*
X0248919Y0033452D01*
X0249917Y0032454D02*
X0204975Y0032454D01*
X0204975Y0031455D02*
X0250916Y0031455D01*
X0251914Y0030457D02*
X0204975Y0030457D01*
X0204845Y0029458D02*
X0252651Y0029458D01*
X0252651Y0028460D02*
X0194351Y0028460D01*
X0194351Y0029458D02*
X0196605Y0029458D01*
X0196476Y0030457D02*
X0194351Y0030457D01*
X0194351Y0031455D02*
X0196476Y0031455D01*
X0196476Y0032454D02*
X0194351Y0032454D01*
X0194351Y0033452D02*
X0196476Y0033452D01*
X0196476Y0034451D02*
X0194351Y0034451D01*
X0194351Y0035449D02*
X0196476Y0035449D01*
X0196476Y0036448D02*
X0194351Y0036448D01*
X0202051Y0038445D02*
X0236239Y0038445D01*
X0236239Y0039443D02*
X0201888Y0039443D01*
X0200889Y0040442D02*
X0234729Y0040442D01*
X0233731Y0041440D02*
X0199891Y0041440D01*
X0198892Y0042439D02*
X0232851Y0042439D01*
X0232851Y0043437D02*
X0197894Y0043437D01*
X0196982Y0044436D02*
X0196895Y0044436D01*
X0196476Y0045434D02*
X0196051Y0045434D01*
X0196051Y0046433D02*
X0196476Y0046433D01*
X0196476Y0047432D02*
X0196051Y0047432D01*
X0196051Y0048430D02*
X0196476Y0048430D01*
X0196476Y0049429D02*
X0196051Y0049429D01*
X0196051Y0050427D02*
X0196476Y0050427D01*
X0196476Y0051426D02*
X0196051Y0051426D01*
X0196555Y0052424D02*
X0196747Y0052424D01*
X0197554Y0053423D02*
X0199251Y0053423D01*
X0199251Y0054421D02*
X0198552Y0054421D01*
X0202051Y0054421D02*
X0232851Y0054421D01*
X0232851Y0053423D02*
X0202051Y0053423D01*
X0202051Y0055420D02*
X0232851Y0055420D01*
X0232851Y0056418D02*
X0202349Y0056418D01*
X0203348Y0057417D02*
X0232851Y0057417D01*
X0232851Y0058415D02*
X0204346Y0058415D01*
X0205345Y0059414D02*
X0232851Y0059414D01*
X0232851Y0060412D02*
X0206343Y0060412D01*
X0207342Y0061411D02*
X0232851Y0061411D01*
X0232851Y0062409D02*
X0208340Y0062409D01*
X0209339Y0063408D02*
X0232851Y0063408D01*
X0232851Y0064406D02*
X0210337Y0064406D01*
X0211336Y0065405D02*
X0232851Y0065405D01*
X0232851Y0066403D02*
X0212334Y0066403D01*
X0213333Y0067402D02*
X0232851Y0067402D01*
X0233172Y0068400D02*
X0214331Y0068400D01*
X0215330Y0069399D02*
X0234170Y0069399D01*
X0235169Y0070397D02*
X0216328Y0070397D01*
X0217327Y0071396D02*
X0236167Y0071396D01*
X0237166Y0072394D02*
X0218325Y0072394D01*
X0219324Y0073393D02*
X0238164Y0073393D01*
X0239163Y0074391D02*
X0220322Y0074391D01*
X0220651Y0075390D02*
X0240161Y0075390D01*
X0241160Y0076388D02*
X0220651Y0076388D01*
X0220651Y0077387D02*
X0242158Y0077387D01*
X0243157Y0078385D02*
X0220651Y0078385D01*
X0220651Y0079384D02*
X0244155Y0079384D01*
X0245154Y0080382D02*
X0220651Y0080382D01*
X0220651Y0081381D02*
X0246152Y0081381D01*
X0247151Y0082379D02*
X0220651Y0082379D01*
X0220651Y0083378D02*
X0248149Y0083378D01*
X0249148Y0084376D02*
X0220651Y0084376D01*
X0220651Y0085375D02*
X0250146Y0085375D01*
X0251145Y0086373D02*
X0220651Y0086373D01*
X0220651Y0087372D02*
X0252143Y0087372D01*
X0253142Y0088370D02*
X0220651Y0088370D01*
X0220651Y0089369D02*
X0254140Y0089369D01*
X0255139Y0090368D02*
X0220651Y0090368D01*
X0220651Y0091366D02*
X0256137Y0091366D01*
X0257136Y0092365D02*
X0220651Y0092365D01*
X0220651Y0093363D02*
X0258134Y0093363D01*
X0259133Y0094362D02*
X0220651Y0094362D01*
X0220651Y0095360D02*
X0260131Y0095360D01*
X0261130Y0096359D02*
X0220651Y0096359D01*
X0220651Y0097357D02*
X0262128Y0097357D01*
X0263127Y0098356D02*
X0220651Y0098356D01*
X0220651Y0099354D02*
X0264125Y0099354D01*
X0265124Y0100353D02*
X0220651Y0100353D01*
X0220651Y0101351D02*
X0266122Y0101351D01*
X0267121Y0102350D02*
X0220651Y0102350D01*
X0220651Y0103348D02*
X0268119Y0103348D01*
X0269118Y0104347D02*
X0223435Y0104347D01*
X0223872Y0105345D02*
X0270116Y0105345D01*
X0271115Y0106344D02*
X0245075Y0106344D01*
X0246073Y0107342D02*
X0272113Y0107342D01*
X0273112Y0108341D02*
X0247072Y0108341D01*
X0248070Y0109339D02*
X0275911Y0109339D01*
X0276628Y0110338D02*
X0276909Y0110338D01*
X0276628Y0111336D02*
X0277908Y0111336D01*
X0278906Y0112335D02*
X0276628Y0112335D01*
X0276628Y0113333D02*
X0279905Y0113333D01*
X0280903Y0114332D02*
X0276628Y0114332D01*
X0276628Y0115330D02*
X0281902Y0115330D01*
X0282900Y0116329D02*
X0276628Y0116329D01*
X0274667Y0118326D02*
X0273006Y0118326D01*
X0272988Y0118296D02*
X0273186Y0118638D01*
X0273288Y0119019D01*
X0273288Y0121488D01*
X0270304Y0121488D01*
X0270304Y0117717D01*
X0271986Y0117717D01*
X0272367Y0117819D01*
X0272709Y0118016D01*
X0272988Y0118296D01*
X0273288Y0119324D02*
X0274231Y0119324D01*
X0274231Y0120323D02*
X0273288Y0120323D01*
X0273288Y0121321D02*
X0274231Y0121321D01*
X0274231Y0122320D02*
X0270304Y0122320D01*
X0270304Y0122457D02*
X0273288Y0122457D01*
X0273288Y0124926D01*
X0273186Y0125307D01*
X0272988Y0125649D01*
X0272709Y0125929D01*
X0272367Y0126126D01*
X0271986Y0126228D01*
X0270304Y0126228D01*
X0270304Y0122457D01*
X0269335Y0122457D01*
X0269335Y0121488D01*
X0266351Y0121488D01*
X0266351Y0119019D01*
X0266453Y0118638D01*
X0266651Y0118296D01*
X0266930Y0118016D01*
X0267272Y0117819D01*
X0267654Y0117717D01*
X0269335Y0117717D01*
X0269335Y0121488D01*
X0270304Y0121488D01*
X0270304Y0122457D01*
X0270304Y0123318D02*
X0269335Y0123318D01*
X0269335Y0122457D02*
X0269335Y0126228D01*
X0267654Y0126228D01*
X0267272Y0126126D01*
X0266930Y0125929D01*
X0266651Y0125649D01*
X0266453Y0125307D01*
X0266351Y0124926D01*
X0266351Y0122457D01*
X0269335Y0122457D01*
X0269335Y0122320D02*
X0258715Y0122320D01*
X0258715Y0123318D02*
X0266351Y0123318D01*
X0266351Y0124317D02*
X0258715Y0124317D01*
X0258584Y0125315D02*
X0266458Y0125315D01*
X0269335Y0125315D02*
X0270304Y0125315D01*
X0270304Y0124317D02*
X0269335Y0124317D01*
X0269335Y0121321D02*
X0270304Y0121321D01*
X0270304Y0120323D02*
X0269335Y0120323D01*
X0269335Y0119324D02*
X0270304Y0119324D01*
X0270304Y0118326D02*
X0269335Y0118326D01*
X0270491Y0116329D02*
X0254975Y0116329D01*
X0254975Y0115330D02*
X0270491Y0115330D01*
X0266633Y0118326D02*
X0258280Y0118326D01*
X0258715Y0119324D02*
X0266351Y0119324D01*
X0266351Y0120323D02*
X0258715Y0120323D01*
X0258715Y0121321D02*
X0266351Y0121321D01*
X0273288Y0123318D02*
X0274231Y0123318D01*
X0274231Y0124317D02*
X0273288Y0124317D01*
X0273181Y0125315D02*
X0274363Y0125315D01*
X0274857Y0126314D02*
X0250645Y0126314D01*
X0251103Y0125315D02*
X0252709Y0125315D01*
X0252578Y0124317D02*
X0251235Y0124317D01*
X0251235Y0123318D02*
X0252578Y0123318D01*
X0252578Y0122320D02*
X0251235Y0122320D01*
X0251235Y0121321D02*
X0251893Y0121321D01*
X0245098Y0121321D02*
X0244651Y0121321D01*
X0244651Y0120323D02*
X0245098Y0120323D01*
X0245098Y0119324D02*
X0244651Y0119324D01*
X0245405Y0118326D02*
X0245533Y0118326D01*
X0246404Y0117327D02*
X0247899Y0117327D01*
X0245439Y0114332D02*
X0223872Y0114332D01*
X0223872Y0114700D02*
X0229431Y0114700D01*
X0257893Y0143162D01*
X0257893Y0142580D01*
X0258537Y0141935D01*
X0264960Y0141935D01*
X0265605Y0142580D01*
X0265605Y0147822D01*
X0264960Y0148466D01*
X0258537Y0148466D01*
X0257893Y0147822D01*
X0257893Y0146300D01*
X0257071Y0146300D01*
X0256251Y0145480D01*
X0228271Y0117500D01*
X0223872Y0117500D01*
X0223872Y0118688D01*
X0223228Y0119332D01*
X0217592Y0119332D01*
X0216948Y0118688D01*
X0216948Y0113052D01*
X0217592Y0112408D01*
X0223228Y0112408D01*
X0223872Y0113052D01*
X0223872Y0114700D01*
X0223872Y0113333D02*
X0248105Y0113333D01*
X0247106Y0112335D02*
X0215251Y0112335D01*
X0215251Y0113333D02*
X0216948Y0113333D01*
X0216948Y0114332D02*
X0215251Y0114332D01*
X0215251Y0115330D02*
X0216948Y0115330D01*
X0216948Y0116329D02*
X0215251Y0116329D01*
X0215258Y0117327D02*
X0216948Y0117327D01*
X0216948Y0118326D02*
X0216257Y0118326D01*
X0217051Y0119324D02*
X0217584Y0119324D01*
X0217051Y0120323D02*
X0231094Y0120323D01*
X0232093Y0121321D02*
X0217051Y0121321D01*
X0217051Y0122320D02*
X0233091Y0122320D01*
X0234090Y0123318D02*
X0217051Y0123318D01*
X0217051Y0124317D02*
X0235088Y0124317D01*
X0236087Y0125315D02*
X0217051Y0125315D01*
X0217051Y0126314D02*
X0237085Y0126314D01*
X0238084Y0127312D02*
X0217051Y0127312D01*
X0217051Y0128311D02*
X0239082Y0128311D01*
X0240081Y0129309D02*
X0217051Y0129309D01*
X0217051Y0130308D02*
X0241079Y0130308D01*
X0242078Y0131306D02*
X0217051Y0131306D01*
X0217051Y0132305D02*
X0243076Y0132305D01*
X0244075Y0133303D02*
X0217051Y0133303D01*
X0217051Y0134302D02*
X0245073Y0134302D01*
X0246072Y0135301D02*
X0217051Y0135301D01*
X0217051Y0136299D02*
X0247070Y0136299D01*
X0248069Y0137298D02*
X0217051Y0137298D01*
X0217051Y0138296D02*
X0249067Y0138296D01*
X0250066Y0139295D02*
X0217051Y0139295D01*
X0217051Y0140293D02*
X0251064Y0140293D01*
X0252063Y0141292D02*
X0217051Y0141292D01*
X0217051Y0142290D02*
X0236529Y0142290D01*
X0236239Y0142580D02*
X0236884Y0141935D01*
X0243307Y0141935D01*
X0243951Y0142580D01*
X0243951Y0147822D01*
X0243307Y0148466D01*
X0236884Y0148466D01*
X0236239Y0147822D01*
X0236239Y0147292D01*
X0218851Y0164680D01*
X0218851Y0168880D01*
X0214051Y0173680D01*
X0213231Y0174500D01*
X0204975Y0174500D01*
X0204975Y0178530D01*
X0204330Y0179175D01*
X0197120Y0179175D01*
X0196476Y0178530D01*
X0196476Y0171320D01*
X0197120Y0170676D01*
X0204330Y0170676D01*
X0204975Y0171320D01*
X0204975Y0171700D01*
X0212071Y0171700D01*
X0216051Y0167720D01*
X0216051Y0163520D01*
X0216871Y0162700D01*
X0235471Y0144100D01*
X0236239Y0144100D01*
X0236239Y0142580D01*
X0236239Y0143289D02*
X0217051Y0143289D01*
X0217051Y0144287D02*
X0235284Y0144287D01*
X0234286Y0145286D02*
X0216645Y0145286D01*
X0215647Y0146284D02*
X0233287Y0146284D01*
X0232289Y0147283D02*
X0214648Y0147283D01*
X0213650Y0148281D02*
X0231290Y0148281D01*
X0230292Y0149280D02*
X0212651Y0149280D01*
X0211653Y0150278D02*
X0229293Y0150278D01*
X0228295Y0151277D02*
X0210654Y0151277D01*
X0209656Y0152275D02*
X0227296Y0152275D01*
X0226298Y0153274D02*
X0208657Y0153274D01*
X0207659Y0154272D02*
X0225299Y0154272D01*
X0224301Y0155271D02*
X0206660Y0155271D01*
X0205662Y0156269D02*
X0223302Y0156269D01*
X0222304Y0157268D02*
X0213041Y0157268D01*
X0212406Y0157005D02*
X0213840Y0157598D01*
X0214937Y0158696D01*
X0215531Y0160129D01*
X0215531Y0167280D01*
X0214937Y0168714D01*
X0213840Y0169811D01*
X0212406Y0170405D01*
X0210855Y0170405D01*
X0209422Y0169811D01*
X0208324Y0168714D01*
X0207731Y0167280D01*
X0207731Y0160129D01*
X0208324Y0158696D01*
X0209422Y0157598D01*
X0210855Y0157005D01*
X0212406Y0157005D01*
X0210220Y0157268D02*
X0203041Y0157268D01*
X0202406Y0157005D02*
X0203840Y0157598D01*
X0204937Y0158696D01*
X0205531Y0160129D01*
X0205531Y0167280D01*
X0204937Y0168714D01*
X0203840Y0169811D01*
X0202406Y0170405D01*
X0200855Y0170405D01*
X0199422Y0169811D01*
X0198324Y0168714D01*
X0197731Y0167280D01*
X0197731Y0160129D01*
X0198324Y0158696D01*
X0199422Y0157598D01*
X0200855Y0157005D01*
X0202406Y0157005D01*
X0200220Y0157268D02*
X0199263Y0157268D01*
X0198754Y0158266D02*
X0198265Y0158266D01*
X0198089Y0159265D02*
X0197266Y0159265D01*
X0197251Y0160263D02*
X0197731Y0160263D01*
X0197731Y0161262D02*
X0197251Y0161262D01*
X0197251Y0162260D02*
X0197731Y0162260D01*
X0197731Y0163259D02*
X0197251Y0163259D01*
X0197251Y0164257D02*
X0197731Y0164257D01*
X0197731Y0165256D02*
X0197251Y0165256D01*
X0197251Y0166254D02*
X0197731Y0166254D01*
X0197731Y0167253D02*
X0197251Y0167253D01*
X0197251Y0168251D02*
X0198133Y0168251D01*
X0198860Y0169250D02*
X0197251Y0169250D01*
X0197083Y0170248D02*
X0200478Y0170248D01*
X0202784Y0170248D02*
X0210478Y0170248D01*
X0208860Y0169250D02*
X0204401Y0169250D01*
X0205129Y0168251D02*
X0208133Y0168251D01*
X0207731Y0167253D02*
X0205531Y0167253D01*
X0205531Y0166254D02*
X0207731Y0166254D01*
X0207731Y0165256D02*
X0205531Y0165256D01*
X0205531Y0164257D02*
X0207731Y0164257D01*
X0207731Y0163259D02*
X0205531Y0163259D01*
X0205531Y0162260D02*
X0207731Y0162260D01*
X0207731Y0161262D02*
X0205531Y0161262D01*
X0205531Y0160263D02*
X0207731Y0160263D01*
X0208089Y0159265D02*
X0205173Y0159265D01*
X0204508Y0158266D02*
X0208754Y0158266D01*
X0214508Y0158266D02*
X0221305Y0158266D01*
X0220306Y0159265D02*
X0215173Y0159265D01*
X0215531Y0160263D02*
X0219308Y0160263D01*
X0218309Y0161262D02*
X0215531Y0161262D01*
X0215531Y0162260D02*
X0217311Y0162260D01*
X0216312Y0163259D02*
X0215531Y0163259D01*
X0215531Y0164257D02*
X0216051Y0164257D01*
X0216051Y0165256D02*
X0215531Y0165256D01*
X0215531Y0166254D02*
X0216051Y0166254D01*
X0216051Y0167253D02*
X0215531Y0167253D01*
X0215520Y0168251D02*
X0215129Y0168251D01*
X0214521Y0169250D02*
X0214401Y0169250D01*
X0213523Y0170248D02*
X0212784Y0170248D01*
X0212524Y0171247D02*
X0204902Y0171247D01*
X0204975Y0175241D02*
X0239451Y0175241D01*
X0239451Y0176239D02*
X0204975Y0176239D01*
X0204975Y0177238D02*
X0239451Y0177238D01*
X0239451Y0178237D02*
X0204975Y0178237D01*
X0199762Y0182231D02*
X0239451Y0182231D01*
X0239451Y0183229D02*
X0200251Y0183229D01*
X0200251Y0184228D02*
X0239451Y0184228D01*
X0239451Y0185226D02*
X0200251Y0185226D01*
X0197451Y0185226D02*
X0194351Y0185226D01*
X0194351Y0184228D02*
X0197451Y0184228D01*
X0196800Y0183229D02*
X0194351Y0183229D01*
X0194351Y0182231D02*
X0195802Y0182231D01*
X0194803Y0181232D02*
X0194351Y0181232D01*
X0196766Y0179235D02*
X0239451Y0179235D01*
X0239451Y0180234D02*
X0197765Y0180234D01*
X0198763Y0181232D02*
X0239451Y0181232D01*
X0242251Y0181232D02*
X0274251Y0181232D01*
X0274251Y0180234D02*
X0242251Y0180234D01*
X0242251Y0179235D02*
X0274251Y0179235D01*
X0274251Y0178237D02*
X0242251Y0178237D01*
X0242251Y0177238D02*
X0274251Y0177238D01*
X0274251Y0176239D02*
X0242251Y0176239D01*
X0242251Y0175241D02*
X0274251Y0175241D01*
X0274251Y0174242D02*
X0242251Y0174242D01*
X0242251Y0173244D02*
X0274251Y0173244D01*
X0274251Y0172245D02*
X0242251Y0172245D01*
X0242251Y0171247D02*
X0274251Y0171247D01*
X0274251Y0170248D02*
X0242251Y0170248D01*
X0242251Y0169250D02*
X0274251Y0169250D01*
X0274251Y0168251D02*
X0242251Y0168251D01*
X0242251Y0167253D02*
X0274251Y0167253D01*
X0274251Y0166254D02*
X0242251Y0166254D01*
X0242251Y0165256D02*
X0274154Y0165256D01*
X0273351Y0164257D02*
X0242251Y0164257D01*
X0242251Y0163259D02*
X0273351Y0163259D01*
X0273638Y0162260D02*
X0242251Y0162260D01*
X0242251Y0161262D02*
X0274433Y0161262D01*
X0273435Y0160263D02*
X0242251Y0160263D01*
X0242251Y0159265D02*
X0272436Y0159265D01*
X0271438Y0158266D02*
X0242251Y0158266D01*
X0242251Y0157268D02*
X0270439Y0157268D01*
X0269441Y0156269D02*
X0265031Y0156269D01*
X0265605Y0152275D02*
X0279546Y0152275D01*
X0279546Y0151277D02*
X0265605Y0151277D01*
X0265429Y0150278D02*
X0279722Y0150278D01*
X0280006Y0148281D02*
X0265145Y0148281D01*
X0265605Y0147283D02*
X0279546Y0147283D01*
X0279255Y0146284D02*
X0265605Y0146284D01*
X0265605Y0145286D02*
X0278257Y0145286D01*
X0277258Y0144287D02*
X0265605Y0144287D01*
X0265605Y0143289D02*
X0276260Y0143289D01*
X0275261Y0142290D02*
X0265315Y0142290D01*
X0258183Y0142290D02*
X0257021Y0142290D01*
X0256863Y0141292D02*
X0256023Y0141292D01*
X0255864Y0140293D02*
X0255024Y0140293D01*
X0254866Y0139295D02*
X0254026Y0139295D01*
X0253867Y0138296D02*
X0253027Y0138296D01*
X0252869Y0137298D02*
X0252029Y0137298D01*
X0251870Y0136299D02*
X0251030Y0136299D01*
X0250872Y0135301D02*
X0250032Y0135301D01*
X0249873Y0134302D02*
X0249033Y0134302D01*
X0248875Y0133303D02*
X0248035Y0133303D01*
X0247876Y0132305D02*
X0247036Y0132305D01*
X0246878Y0131306D02*
X0246038Y0131306D01*
X0245879Y0130308D02*
X0245039Y0130308D01*
X0244881Y0129309D02*
X0244041Y0129309D01*
X0243882Y0128311D02*
X0243042Y0128311D01*
X0242884Y0127312D02*
X0242043Y0127312D01*
X0241885Y0126314D02*
X0241045Y0126314D01*
X0241851Y0125315D02*
X0240046Y0125315D01*
X0239048Y0124317D02*
X0241851Y0124317D01*
X0241851Y0123318D02*
X0238049Y0123318D01*
X0237051Y0122320D02*
X0241851Y0122320D01*
X0241851Y0121321D02*
X0236052Y0121321D01*
X0235054Y0120323D02*
X0241851Y0120323D01*
X0241851Y0119324D02*
X0234055Y0119324D01*
X0233057Y0118326D02*
X0241851Y0118326D01*
X0242444Y0117327D02*
X0232058Y0117327D01*
X0231060Y0116329D02*
X0243442Y0116329D01*
X0244441Y0115330D02*
X0230061Y0115330D01*
X0229097Y0118326D02*
X0223872Y0118326D01*
X0223236Y0119324D02*
X0230096Y0119324D01*
X0244651Y0122320D02*
X0245098Y0122320D01*
X0245098Y0123318D02*
X0244651Y0123318D01*
X0244651Y0124317D02*
X0245098Y0124317D01*
X0245229Y0125315D02*
X0244846Y0125315D01*
X0245845Y0126314D02*
X0247251Y0126314D01*
X0246844Y0127312D02*
X0247684Y0127312D01*
X0247842Y0128311D02*
X0248682Y0128311D01*
X0248841Y0129309D02*
X0249681Y0129309D01*
X0249839Y0130308D02*
X0287451Y0130308D01*
X0287451Y0131306D02*
X0250838Y0131306D01*
X0251836Y0132305D02*
X0287451Y0132305D01*
X0287451Y0133303D02*
X0252835Y0133303D01*
X0253833Y0134302D02*
X0287451Y0134302D01*
X0287451Y0135301D02*
X0254832Y0135301D01*
X0255830Y0136299D02*
X0287451Y0136299D01*
X0287451Y0137298D02*
X0256829Y0137298D01*
X0257827Y0138296D02*
X0287451Y0138296D01*
X0287451Y0139295D02*
X0276226Y0139295D01*
X0277224Y0140293D02*
X0287451Y0140293D01*
X0287451Y0141292D02*
X0278223Y0141292D01*
X0279221Y0142290D02*
X0279836Y0142290D01*
X0286969Y0142290D02*
X0287451Y0142290D01*
X0287451Y0143289D02*
X0287258Y0143289D01*
X0287258Y0144287D02*
X0287451Y0144287D01*
X0287451Y0145286D02*
X0287258Y0145286D01*
X0287258Y0146284D02*
X0287451Y0146284D01*
X0287451Y0147283D02*
X0287258Y0147283D01*
X0287451Y0148281D02*
X0286799Y0148281D01*
X0287451Y0149280D02*
X0234251Y0149280D01*
X0233253Y0150278D02*
X0236415Y0150278D01*
X0236239Y0151277D02*
X0232254Y0151277D01*
X0231256Y0152275D02*
X0236239Y0152275D01*
X0236239Y0153274D02*
X0230257Y0153274D01*
X0229259Y0154272D02*
X0236239Y0154272D01*
X0236239Y0155271D02*
X0228260Y0155271D01*
X0227262Y0156269D02*
X0236813Y0156269D01*
X0239451Y0157268D02*
X0226263Y0157268D01*
X0225265Y0158266D02*
X0239451Y0158266D01*
X0239451Y0159265D02*
X0224266Y0159265D01*
X0223268Y0160263D02*
X0239451Y0160263D01*
X0239451Y0161262D02*
X0222269Y0161262D01*
X0221271Y0162260D02*
X0239451Y0162260D01*
X0239451Y0163259D02*
X0220272Y0163259D01*
X0219274Y0164257D02*
X0239451Y0164257D01*
X0239451Y0165256D02*
X0218851Y0165256D01*
X0218851Y0166254D02*
X0239451Y0166254D01*
X0239451Y0167253D02*
X0218851Y0167253D01*
X0218851Y0168251D02*
X0239451Y0168251D01*
X0239451Y0169250D02*
X0218481Y0169250D01*
X0217483Y0170248D02*
X0239451Y0170248D01*
X0239451Y0171247D02*
X0216484Y0171247D01*
X0215486Y0172245D02*
X0239451Y0172245D01*
X0239451Y0173244D02*
X0214487Y0173244D01*
X0213489Y0174242D02*
X0239451Y0174242D01*
X0242251Y0182231D02*
X0274251Y0182231D01*
X0274251Y0183229D02*
X0242251Y0183229D01*
X0242251Y0184228D02*
X0274251Y0184228D01*
X0274251Y0185226D02*
X0242251Y0185226D01*
X0242251Y0186225D02*
X0274251Y0186225D01*
X0274251Y0187223D02*
X0242251Y0187223D01*
X0242251Y0188222D02*
X0274251Y0188222D01*
X0274251Y0189220D02*
X0242251Y0189220D01*
X0242251Y0190219D02*
X0274251Y0190219D01*
X0274251Y0191217D02*
X0242251Y0191217D01*
X0242251Y0192216D02*
X0274251Y0192216D01*
X0274251Y0193214D02*
X0242251Y0193214D01*
X0242251Y0194213D02*
X0274251Y0194213D01*
X0274251Y0195211D02*
X0242251Y0195211D01*
X0242251Y0196210D02*
X0274251Y0196210D01*
X0274251Y0197208D02*
X0242251Y0197208D01*
X0242251Y0198207D02*
X0274251Y0198207D01*
X0273993Y0199205D02*
X0268180Y0199205D01*
X0267668Y0198693D02*
X0270304Y0201329D01*
X0270304Y0202693D01*
X0266304Y0202693D01*
X0266304Y0203693D01*
X0265304Y0203693D01*
X0265304Y0207693D01*
X0263940Y0207693D01*
X0261304Y0205057D01*
X0261304Y0203693D01*
X0265304Y0203693D01*
X0265304Y0202693D01*
X0261304Y0202693D01*
X0261304Y0201329D01*
X0263940Y0198693D01*
X0265304Y0198693D01*
X0265304Y0202693D01*
X0266304Y0202693D01*
X0266304Y0198693D01*
X0267668Y0198693D01*
X0266304Y0199205D02*
X0265304Y0199205D01*
X0265304Y0200204D02*
X0266304Y0200204D01*
X0266304Y0201202D02*
X0265304Y0201202D01*
X0265304Y0202201D02*
X0266304Y0202201D01*
X0266304Y0203199D02*
X0271704Y0203199D01*
X0271704Y0202201D02*
X0270304Y0202201D01*
X0270177Y0201202D02*
X0271996Y0201202D01*
X0272995Y0200204D02*
X0269179Y0200204D01*
X0265304Y0203199D02*
X0259904Y0203199D01*
X0259904Y0202201D02*
X0261304Y0202201D01*
X0261431Y0201202D02*
X0259612Y0201202D01*
X0259904Y0201495D02*
X0257502Y0199093D01*
X0254106Y0199093D01*
X0251704Y0201495D01*
X0251704Y0204891D01*
X0254106Y0207293D01*
X0257502Y0207293D01*
X0259904Y0204891D01*
X0259904Y0201495D01*
X0258613Y0200204D02*
X0262429Y0200204D01*
X0263428Y0199205D02*
X0257615Y0199205D01*
X0253993Y0199205D02*
X0247615Y0199205D01*
X0247502Y0199093D02*
X0249904Y0201495D01*
X0249904Y0204891D01*
X0247502Y0207293D01*
X0244106Y0207293D01*
X0241704Y0204891D01*
X0241704Y0201495D01*
X0244106Y0199093D01*
X0247502Y0199093D01*
X0248613Y0200204D02*
X0252995Y0200204D01*
X0251996Y0201202D02*
X0249612Y0201202D01*
X0249904Y0202201D02*
X0251704Y0202201D01*
X0251704Y0203199D02*
X0249904Y0203199D01*
X0249904Y0204198D02*
X0251704Y0204198D01*
X0252009Y0205196D02*
X0249599Y0205196D01*
X0248600Y0206195D02*
X0253008Y0206195D01*
X0254006Y0207193D02*
X0247602Y0207193D01*
X0247668Y0208693D02*
X0246304Y0208693D01*
X0246304Y0212693D01*
X0246304Y0213693D01*
X0245304Y0213693D01*
X0245304Y0217693D01*
X0243940Y0217693D01*
X0241304Y0215057D01*
X0241304Y0213693D01*
X0245304Y0213693D01*
X0245304Y0212693D01*
X0241304Y0212693D01*
X0241304Y0211329D01*
X0243940Y0208693D01*
X0245304Y0208693D01*
X0245304Y0212693D01*
X0246304Y0212693D01*
X0250304Y0212693D01*
X0250304Y0211329D01*
X0247668Y0208693D01*
X0248165Y0209190D02*
X0254008Y0209190D01*
X0254106Y0209093D02*
X0257502Y0209093D01*
X0259904Y0211495D01*
X0259904Y0214891D01*
X0257502Y0217293D01*
X0254106Y0217293D01*
X0251704Y0214891D01*
X0251704Y0211495D01*
X0254106Y0209093D01*
X0253010Y0210189D02*
X0249164Y0210189D01*
X0250162Y0211187D02*
X0252011Y0211187D01*
X0251704Y0212186D02*
X0250304Y0212186D01*
X0250304Y0213693D02*
X0246304Y0213693D01*
X0246304Y0217693D01*
X0247668Y0217693D01*
X0250304Y0215057D01*
X0250304Y0213693D01*
X0250304Y0214183D02*
X0251704Y0214183D01*
X0251704Y0213184D02*
X0246304Y0213184D01*
X0246304Y0212186D02*
X0245304Y0212186D01*
X0245304Y0213184D02*
X0239904Y0213184D01*
X0239904Y0212186D02*
X0241304Y0212186D01*
X0241446Y0211187D02*
X0239597Y0211187D01*
X0240542Y0210189D02*
X0242444Y0210189D01*
X0241541Y0209190D02*
X0243443Y0209190D01*
X0242251Y0208192D02*
X0422273Y0208192D01*
X0422448Y0209190D02*
X0417600Y0209190D01*
X0417502Y0209093D02*
X0419904Y0211495D01*
X0419904Y0214891D01*
X0417502Y0217293D01*
X0414106Y0217293D01*
X0411704Y0214891D01*
X0411704Y0211495D01*
X0414106Y0209093D01*
X0417502Y0209093D01*
X0417668Y0207693D02*
X0416304Y0207693D01*
X0416304Y0203693D01*
X0415304Y0203693D01*
X0415304Y0207693D01*
X0413940Y0207693D01*
X0411304Y0205057D01*
X0411304Y0203693D01*
X0415304Y0203693D01*
X0415304Y0202693D01*
X0411304Y0202693D01*
X0411304Y0201329D01*
X0413940Y0198693D01*
X0415304Y0198693D01*
X0415304Y0202693D01*
X0416304Y0202693D01*
X0416304Y0203693D01*
X0420304Y0203693D01*
X0420304Y0205057D01*
X0417668Y0207693D01*
X0418167Y0207193D02*
X0422449Y0207193D01*
X0422625Y0206195D02*
X0419166Y0206195D01*
X0420164Y0205196D02*
X0422801Y0205196D01*
X0422977Y0204198D02*
X0420304Y0204198D01*
X0420304Y0202693D02*
X0416304Y0202693D01*
X0416304Y0198693D01*
X0417668Y0198693D01*
X0420304Y0201329D01*
X0420304Y0202693D01*
X0420304Y0202201D02*
X0423989Y0202201D01*
X0423413Y0203199D02*
X0416304Y0203199D01*
X0416304Y0202201D02*
X0415304Y0202201D01*
X0415304Y0203199D02*
X0409904Y0203199D01*
X0409904Y0202201D02*
X0411304Y0202201D01*
X0411431Y0201202D02*
X0409612Y0201202D01*
X0409904Y0201495D02*
X0407502Y0199093D01*
X0404106Y0199093D01*
X0401704Y0201495D01*
X0401704Y0204891D01*
X0404106Y0207293D01*
X0407502Y0207293D01*
X0409904Y0204891D01*
X0409904Y0201495D01*
X0408613Y0200204D02*
X0412429Y0200204D01*
X0413428Y0199205D02*
X0407615Y0199205D01*
X0403993Y0199205D02*
X0402126Y0199205D01*
X0402995Y0200204D02*
X0401127Y0200204D01*
X0401996Y0201202D02*
X0400129Y0201202D01*
X0399870Y0201461D02*
X0399904Y0201495D01*
X0399904Y0204891D01*
X0397502Y0207293D01*
X0394106Y0207293D01*
X0391704Y0204891D01*
X0391704Y0201495D01*
X0394106Y0199093D01*
X0397502Y0199093D01*
X0397890Y0199481D01*
X0404071Y0193300D01*
X0429871Y0193300D01*
X0433251Y0189920D01*
X0433251Y0185080D01*
X0427851Y0179680D01*
X0427851Y0177206D01*
X0426451Y0177206D01*
X0425806Y0176562D01*
X0425806Y0170926D01*
X0426451Y0170282D01*
X0432086Y0170282D01*
X0432731Y0170926D01*
X0432731Y0176562D01*
X0432086Y0177206D01*
X0430651Y0177206D01*
X0430651Y0178520D01*
X0435231Y0183100D01*
X0436051Y0183920D01*
X0436051Y0191080D01*
X0431851Y0195280D01*
X0431031Y0196100D01*
X0405231Y0196100D01*
X0399870Y0201461D01*
X0399904Y0202201D02*
X0401704Y0202201D01*
X0401704Y0203199D02*
X0399904Y0203199D01*
X0399904Y0204198D02*
X0401704Y0204198D01*
X0402009Y0205196D02*
X0399599Y0205196D01*
X0398600Y0206195D02*
X0403008Y0206195D01*
X0404006Y0207193D02*
X0397602Y0207193D01*
X0397502Y0209093D02*
X0394106Y0209093D01*
X0391704Y0211495D01*
X0391704Y0214891D01*
X0394106Y0217293D01*
X0397502Y0217293D01*
X0399904Y0214891D01*
X0399904Y0211495D01*
X0397502Y0209093D01*
X0397600Y0209190D02*
X0404008Y0209190D01*
X0404106Y0209093D02*
X0407502Y0209093D01*
X0409904Y0211495D01*
X0409904Y0214891D01*
X0407502Y0217293D01*
X0404106Y0217293D01*
X0401704Y0214891D01*
X0401704Y0211495D01*
X0404106Y0209093D01*
X0403010Y0210189D02*
X0398598Y0210189D01*
X0399597Y0211187D02*
X0402011Y0211187D01*
X0401704Y0212186D02*
X0399904Y0212186D01*
X0399904Y0213184D02*
X0401704Y0213184D01*
X0401704Y0214183D02*
X0399904Y0214183D01*
X0399614Y0215181D02*
X0401994Y0215181D01*
X0402993Y0216180D02*
X0398615Y0216180D01*
X0397617Y0217178D02*
X0403991Y0217178D01*
X0407617Y0217178D02*
X0413991Y0217178D01*
X0412993Y0216180D02*
X0408615Y0216180D01*
X0409614Y0215181D02*
X0411994Y0215181D01*
X0411704Y0214183D02*
X0409904Y0214183D01*
X0409904Y0213184D02*
X0411704Y0213184D01*
X0411704Y0212186D02*
X0409904Y0212186D01*
X0409597Y0211187D02*
X0412011Y0211187D01*
X0413010Y0210189D02*
X0408598Y0210189D01*
X0407600Y0209190D02*
X0414008Y0209190D01*
X0413440Y0207193D02*
X0407602Y0207193D01*
X0408600Y0206195D02*
X0412442Y0206195D01*
X0411443Y0205196D02*
X0409599Y0205196D01*
X0409904Y0204198D02*
X0411304Y0204198D01*
X0415304Y0204198D02*
X0416304Y0204198D01*
X0416304Y0205196D02*
X0415304Y0205196D01*
X0415304Y0206195D02*
X0416304Y0206195D01*
X0416304Y0207193D02*
X0415304Y0207193D01*
X0418598Y0210189D02*
X0422624Y0210189D01*
X0422800Y0211187D02*
X0419597Y0211187D01*
X0419904Y0212186D02*
X0422977Y0212186D01*
X0423412Y0213184D02*
X0419904Y0213184D01*
X0419904Y0214183D02*
X0423988Y0214183D01*
X0424565Y0215181D02*
X0419614Y0215181D01*
X0418615Y0216180D02*
X0425141Y0216180D01*
X0426221Y0217178D02*
X0417617Y0217178D01*
X0427411Y0218177D02*
X0214197Y0218177D01*
X0215387Y0217178D02*
X0223991Y0217178D01*
X0222993Y0216180D02*
X0216467Y0216180D01*
X0217043Y0215181D02*
X0221994Y0215181D01*
X0221704Y0214183D02*
X0217620Y0214183D01*
X0218196Y0213184D02*
X0221704Y0213184D01*
X0221704Y0212186D02*
X0218631Y0212186D01*
X0218807Y0211187D02*
X0222011Y0211187D01*
X0223010Y0210189D02*
X0218983Y0210189D01*
X0219160Y0209190D02*
X0224008Y0209190D01*
X0224106Y0207293D02*
X0221704Y0204891D01*
X0221704Y0201495D01*
X0224106Y0199093D01*
X0227502Y0199093D01*
X0229904Y0201495D01*
X0229904Y0204891D01*
X0227502Y0207293D01*
X0224106Y0207293D01*
X0224006Y0207193D02*
X0219159Y0207193D01*
X0218983Y0206195D02*
X0223008Y0206195D01*
X0222009Y0205196D02*
X0218807Y0205196D01*
X0218631Y0204198D02*
X0221704Y0204198D01*
X0221704Y0203199D02*
X0218195Y0203199D01*
X0217618Y0202201D02*
X0221704Y0202201D01*
X0221996Y0201202D02*
X0217042Y0201202D01*
X0216465Y0200204D02*
X0222995Y0200204D01*
X0223993Y0199205D02*
X0215384Y0199205D01*
X0214194Y0198207D02*
X0239451Y0198207D01*
X0239451Y0199205D02*
X0237615Y0199205D01*
X0238613Y0200204D02*
X0238851Y0200204D01*
X0241729Y0201202D02*
X0241996Y0201202D01*
X0242251Y0200204D02*
X0242995Y0200204D01*
X0242251Y0199205D02*
X0243993Y0199205D01*
X0241704Y0202201D02*
X0241651Y0202201D01*
X0241651Y0203199D02*
X0241704Y0203199D01*
X0241704Y0204198D02*
X0241651Y0204198D01*
X0241927Y0205196D02*
X0242009Y0205196D01*
X0242251Y0206195D02*
X0243008Y0206195D01*
X0242251Y0207193D02*
X0244006Y0207193D01*
X0245304Y0209190D02*
X0246304Y0209190D01*
X0246304Y0210189D02*
X0245304Y0210189D01*
X0245304Y0211187D02*
X0246304Y0211187D01*
X0246304Y0214183D02*
X0245304Y0214183D01*
X0245304Y0215181D02*
X0246304Y0215181D01*
X0246304Y0216180D02*
X0245304Y0216180D01*
X0245304Y0217178D02*
X0246304Y0217178D01*
X0248182Y0217178D02*
X0253991Y0217178D01*
X0252993Y0216180D02*
X0249181Y0216180D01*
X0250179Y0215181D02*
X0251994Y0215181D01*
X0243426Y0217178D02*
X0237617Y0217178D01*
X0238615Y0216180D02*
X0242427Y0216180D01*
X0241428Y0215181D02*
X0239614Y0215181D01*
X0239904Y0214183D02*
X0241304Y0214183D01*
X0238579Y0208192D02*
X0219335Y0208192D01*
X0227600Y0209190D02*
X0234008Y0209190D01*
X0233010Y0210189D02*
X0228598Y0210189D01*
X0229597Y0211187D02*
X0232011Y0211187D01*
X0231994Y0215181D02*
X0229614Y0215181D01*
X0228615Y0216180D02*
X0232993Y0216180D01*
X0233991Y0217178D02*
X0227617Y0217178D01*
X0213007Y0219175D02*
X0428601Y0219175D01*
X0431313Y0220174D02*
X0210295Y0220174D01*
X0227602Y0207193D02*
X0234006Y0207193D01*
X0233008Y0206195D02*
X0228600Y0206195D01*
X0229599Y0205196D02*
X0232009Y0205196D01*
X0231704Y0204198D02*
X0229904Y0204198D01*
X0229904Y0203199D02*
X0231704Y0203199D01*
X0231704Y0202201D02*
X0229904Y0202201D01*
X0229612Y0201202D02*
X0231996Y0201202D01*
X0232995Y0200204D02*
X0228613Y0200204D01*
X0227615Y0199205D02*
X0233993Y0199205D01*
X0239451Y0197208D02*
X0213004Y0197208D01*
X0210289Y0196210D02*
X0239451Y0196210D01*
X0239451Y0195211D02*
X0194351Y0195211D01*
X0194351Y0194213D02*
X0196804Y0194213D01*
X0196476Y0193214D02*
X0194351Y0193214D01*
X0194351Y0192216D02*
X0196476Y0192216D01*
X0196476Y0191217D02*
X0194351Y0191217D01*
X0194351Y0190219D02*
X0196476Y0190219D01*
X0196476Y0189220D02*
X0194351Y0189220D01*
X0194351Y0188222D02*
X0196476Y0188222D01*
X0196476Y0187223D02*
X0194351Y0187223D01*
X0194351Y0186225D02*
X0196925Y0186225D01*
X0204525Y0186225D02*
X0239451Y0186225D01*
X0239451Y0187223D02*
X0204975Y0187223D01*
X0204975Y0188222D02*
X0239451Y0188222D01*
X0239451Y0189220D02*
X0204975Y0189220D01*
X0204975Y0190219D02*
X0239451Y0190219D01*
X0239451Y0191217D02*
X0204975Y0191217D01*
X0204975Y0192216D02*
X0239451Y0192216D01*
X0239451Y0193214D02*
X0204975Y0193214D01*
X0204647Y0194213D02*
X0239451Y0194213D01*
X0259904Y0204198D02*
X0261304Y0204198D01*
X0261443Y0205196D02*
X0259599Y0205196D01*
X0258600Y0206195D02*
X0262442Y0206195D01*
X0263440Y0207193D02*
X0257602Y0207193D01*
X0257600Y0209190D02*
X0264008Y0209190D01*
X0264106Y0209093D02*
X0267502Y0209093D01*
X0269904Y0211495D01*
X0269904Y0214891D01*
X0267502Y0217293D01*
X0264106Y0217293D01*
X0261704Y0214891D01*
X0261704Y0211495D01*
X0264106Y0209093D01*
X0263010Y0210189D02*
X0258598Y0210189D01*
X0259597Y0211187D02*
X0262011Y0211187D01*
X0261704Y0212186D02*
X0259904Y0212186D01*
X0259904Y0213184D02*
X0261704Y0213184D01*
X0261704Y0214183D02*
X0259904Y0214183D01*
X0259614Y0215181D02*
X0261994Y0215181D01*
X0262993Y0216180D02*
X0258615Y0216180D01*
X0257617Y0217178D02*
X0263991Y0217178D01*
X0267617Y0217178D02*
X0273991Y0217178D01*
X0274106Y0217293D02*
X0271704Y0214891D01*
X0271704Y0211495D01*
X0274106Y0209093D01*
X0277502Y0209093D01*
X0279904Y0211495D01*
X0279904Y0214891D01*
X0277502Y0217293D01*
X0274106Y0217293D01*
X0272993Y0216180D02*
X0268615Y0216180D01*
X0269614Y0215181D02*
X0271994Y0215181D01*
X0271704Y0214183D02*
X0269904Y0214183D01*
X0269904Y0213184D02*
X0271704Y0213184D01*
X0271704Y0212186D02*
X0269904Y0212186D01*
X0269597Y0211187D02*
X0272011Y0211187D01*
X0273010Y0210189D02*
X0268598Y0210189D01*
X0267600Y0209190D02*
X0274008Y0209190D01*
X0274006Y0207193D02*
X0268167Y0207193D01*
X0267668Y0207693D02*
X0266304Y0207693D01*
X0266304Y0203693D01*
X0270304Y0203693D01*
X0270304Y0205057D01*
X0267668Y0207693D01*
X0266304Y0207193D02*
X0265304Y0207193D01*
X0265304Y0206195D02*
X0266304Y0206195D01*
X0266304Y0205196D02*
X0265304Y0205196D01*
X0265304Y0204198D02*
X0266304Y0204198D01*
X0269166Y0206195D02*
X0273008Y0206195D01*
X0272009Y0205196D02*
X0270164Y0205196D01*
X0270304Y0204198D02*
X0271704Y0204198D01*
X0277602Y0207193D02*
X0284006Y0207193D01*
X0284106Y0207293D02*
X0281704Y0204891D01*
X0281704Y0201495D01*
X0284106Y0199093D01*
X0287502Y0199093D01*
X0287690Y0199281D01*
X0291051Y0195920D01*
X0291051Y0191153D01*
X0290151Y0190253D01*
X0290151Y0188347D01*
X0291335Y0187164D01*
X0287971Y0183800D01*
X0286698Y0183800D01*
X0285351Y0182453D01*
X0285351Y0180547D01*
X0286698Y0179200D01*
X0288604Y0179200D01*
X0289951Y0180547D01*
X0289951Y0181820D01*
X0296631Y0188500D01*
X0297451Y0189320D01*
X0297451Y0199093D01*
X0297502Y0199093D01*
X0299904Y0201495D01*
X0299904Y0204891D01*
X0297502Y0207293D01*
X0294106Y0207293D01*
X0291704Y0204891D01*
X0291704Y0201495D01*
X0294106Y0199093D01*
X0294651Y0199093D01*
X0294651Y0190480D01*
X0294588Y0190416D01*
X0293851Y0191153D01*
X0293851Y0197080D01*
X0293031Y0197900D01*
X0289670Y0201261D01*
X0289904Y0201495D01*
X0289904Y0204891D01*
X0287502Y0207293D01*
X0284106Y0207293D01*
X0283940Y0208693D02*
X0285304Y0208693D01*
X0285304Y0212693D01*
X0281304Y0212693D01*
X0281304Y0211329D01*
X0283940Y0208693D01*
X0283443Y0209190D02*
X0277600Y0209190D01*
X0278598Y0210189D02*
X0282444Y0210189D01*
X0281446Y0211187D02*
X0279597Y0211187D01*
X0279904Y0212186D02*
X0281304Y0212186D01*
X0281304Y0213693D02*
X0285304Y0213693D01*
X0285304Y0217693D01*
X0283940Y0217693D01*
X0281304Y0215057D01*
X0281304Y0213693D01*
X0281304Y0214183D02*
X0279904Y0214183D01*
X0279904Y0213184D02*
X0285304Y0213184D01*
X0285304Y0212693D02*
X0285304Y0213693D01*
X0286304Y0213693D01*
X0286304Y0217693D01*
X0287668Y0217693D01*
X0290304Y0215057D01*
X0290304Y0213693D01*
X0286304Y0213693D01*
X0286304Y0212693D01*
X0290304Y0212693D01*
X0290304Y0211329D01*
X0287668Y0208693D01*
X0286304Y0208693D01*
X0286304Y0212693D01*
X0285304Y0212693D01*
X0285304Y0212186D02*
X0286304Y0212186D01*
X0286304Y0213184D02*
X0291704Y0213184D01*
X0291704Y0212186D02*
X0290304Y0212186D01*
X0290162Y0211187D02*
X0292011Y0211187D01*
X0291704Y0211495D02*
X0294106Y0209093D01*
X0297502Y0209093D01*
X0299904Y0211495D01*
X0299904Y0214891D01*
X0297502Y0217293D01*
X0294106Y0217293D01*
X0291704Y0214891D01*
X0291704Y0211495D01*
X0293010Y0210189D02*
X0289164Y0210189D01*
X0288165Y0209190D02*
X0294008Y0209190D01*
X0294006Y0207193D02*
X0287602Y0207193D01*
X0288600Y0206195D02*
X0293008Y0206195D01*
X0292009Y0205196D02*
X0289599Y0205196D01*
X0289904Y0204198D02*
X0291704Y0204198D01*
X0291704Y0203199D02*
X0289904Y0203199D01*
X0289904Y0202201D02*
X0291704Y0202201D01*
X0291996Y0201202D02*
X0289729Y0201202D01*
X0290727Y0200204D02*
X0292995Y0200204D01*
X0293993Y0199205D02*
X0291726Y0199205D01*
X0292724Y0198207D02*
X0294651Y0198207D01*
X0294651Y0197208D02*
X0293723Y0197208D01*
X0293851Y0196210D02*
X0294651Y0196210D01*
X0294651Y0195211D02*
X0293851Y0195211D01*
X0293851Y0194213D02*
X0294651Y0194213D01*
X0294651Y0193214D02*
X0293851Y0193214D01*
X0293851Y0192216D02*
X0294651Y0192216D01*
X0294651Y0191217D02*
X0293851Y0191217D01*
X0291051Y0191217D02*
X0277051Y0191217D01*
X0277051Y0190219D02*
X0290151Y0190219D01*
X0290151Y0189220D02*
X0277051Y0189220D01*
X0277051Y0188222D02*
X0290277Y0188222D01*
X0291275Y0187223D02*
X0277051Y0187223D01*
X0277051Y0186225D02*
X0290396Y0186225D01*
X0289397Y0185226D02*
X0277051Y0185226D01*
X0277051Y0184228D02*
X0288399Y0184228D01*
X0286128Y0183229D02*
X0277051Y0183229D01*
X0277051Y0182231D02*
X0285351Y0182231D01*
X0285351Y0181232D02*
X0277051Y0181232D01*
X0277051Y0180234D02*
X0285665Y0180234D01*
X0286663Y0179235D02*
X0277051Y0179235D01*
X0277051Y0178237D02*
X0291408Y0178237D01*
X0292406Y0179235D02*
X0288639Y0179235D01*
X0289637Y0180234D02*
X0293405Y0180234D01*
X0295368Y0178237D02*
X0427851Y0178237D01*
X0427851Y0179235D02*
X0425966Y0179235D01*
X0426965Y0180234D02*
X0428405Y0180234D01*
X0427963Y0181232D02*
X0429403Y0181232D01*
X0428962Y0182231D02*
X0430402Y0182231D01*
X0429960Y0183229D02*
X0431400Y0183229D01*
X0432252Y0184228D02*
X0432399Y0184228D01*
X0432731Y0185226D02*
X0433251Y0185226D01*
X0433251Y0186225D02*
X0432731Y0186225D01*
X0432731Y0187223D02*
X0433251Y0187223D01*
X0433251Y0188222D02*
X0432731Y0188222D01*
X0432731Y0189220D02*
X0433251Y0189220D01*
X0432953Y0190219D02*
X0432731Y0190219D01*
X0431954Y0191217D02*
X0406658Y0191217D01*
X0406496Y0191380D02*
X0401254Y0191380D01*
X0400609Y0190735D01*
X0400609Y0184312D01*
X0401254Y0183668D01*
X0406496Y0183668D01*
X0407140Y0184312D01*
X0407140Y0186100D01*
X0417539Y0186100D01*
X0417539Y0184706D01*
X0418183Y0184061D01*
X0423819Y0184061D01*
X0424463Y0184706D01*
X0424463Y0190341D01*
X0423819Y0190986D01*
X0418183Y0190986D01*
X0417539Y0190341D01*
X0417539Y0188900D01*
X0407140Y0188900D01*
X0407140Y0190735D01*
X0406496Y0191380D01*
X0407140Y0190219D02*
X0417539Y0190219D01*
X0417539Y0189220D02*
X0407140Y0189220D01*
X0401091Y0191217D02*
X0399350Y0191217D01*
X0399366Y0191201D02*
X0399087Y0191480D01*
X0398745Y0191677D01*
X0398364Y0191780D01*
X0396501Y0191780D01*
X0396501Y0188024D01*
X0395501Y0188024D01*
X0395501Y0191780D01*
X0393638Y0191780D01*
X0393256Y0191677D01*
X0392914Y0191480D01*
X0392635Y0191201D01*
X0392438Y0190859D01*
X0392335Y0190477D01*
X0392335Y0188024D01*
X0395501Y0188024D01*
X0395501Y0187024D01*
X0392335Y0187024D01*
X0392335Y0184570D01*
X0392438Y0184189D01*
X0392635Y0183847D01*
X0392914Y0183567D01*
X0393256Y0183370D01*
X0393638Y0183268D01*
X0395501Y0183268D01*
X0395501Y0187024D01*
X0396501Y0187024D01*
X0396501Y0188024D01*
X0399666Y0188024D01*
X0399666Y0190477D01*
X0399564Y0190859D01*
X0399366Y0191201D01*
X0399666Y0190219D02*
X0400609Y0190219D01*
X0400609Y0189220D02*
X0399666Y0189220D01*
X0399666Y0188222D02*
X0400609Y0188222D01*
X0400609Y0187223D02*
X0396501Y0187223D01*
X0396501Y0187024D02*
X0399666Y0187024D01*
X0399666Y0184570D01*
X0399564Y0184189D01*
X0399366Y0183847D01*
X0399087Y0183567D01*
X0398745Y0183370D01*
X0398364Y0183268D01*
X0396501Y0183268D01*
X0396501Y0187024D01*
X0396501Y0186225D02*
X0395501Y0186225D01*
X0395501Y0187223D02*
X0295354Y0187223D01*
X0294356Y0186225D02*
X0392335Y0186225D01*
X0392335Y0185226D02*
X0293357Y0185226D01*
X0292359Y0184228D02*
X0392427Y0184228D01*
X0395501Y0184228D02*
X0396501Y0184228D01*
X0396501Y0185226D02*
X0395501Y0185226D01*
X0399666Y0185226D02*
X0400609Y0185226D01*
X0400609Y0186225D02*
X0399666Y0186225D01*
X0399574Y0184228D02*
X0400694Y0184228D01*
X0396501Y0188222D02*
X0395501Y0188222D01*
X0395501Y0189220D02*
X0396501Y0189220D01*
X0396501Y0190219D02*
X0395501Y0190219D01*
X0395501Y0191217D02*
X0396501Y0191217D01*
X0392652Y0191217D02*
X0297451Y0191217D01*
X0297451Y0190219D02*
X0392335Y0190219D01*
X0392335Y0189220D02*
X0297351Y0189220D01*
X0296353Y0188222D02*
X0392335Y0188222D01*
X0403159Y0194213D02*
X0297451Y0194213D01*
X0297451Y0195211D02*
X0402160Y0195211D01*
X0401162Y0196210D02*
X0297451Y0196210D01*
X0297451Y0197208D02*
X0400163Y0197208D01*
X0399165Y0198207D02*
X0297451Y0198207D01*
X0297615Y0199205D02*
X0303993Y0199205D01*
X0304106Y0199093D02*
X0307502Y0199093D01*
X0309904Y0201495D01*
X0309904Y0204891D01*
X0307502Y0207293D01*
X0304106Y0207293D01*
X0301704Y0204891D01*
X0301704Y0201495D01*
X0304106Y0199093D01*
X0302995Y0200204D02*
X0298613Y0200204D01*
X0299612Y0201202D02*
X0301996Y0201202D01*
X0301704Y0202201D02*
X0299904Y0202201D01*
X0299904Y0203199D02*
X0301704Y0203199D01*
X0301704Y0204198D02*
X0299904Y0204198D01*
X0299599Y0205196D02*
X0302009Y0205196D01*
X0303008Y0206195D02*
X0298600Y0206195D01*
X0297602Y0207193D02*
X0304006Y0207193D01*
X0304106Y0209093D02*
X0307502Y0209093D01*
X0309904Y0211495D01*
X0309904Y0214891D01*
X0307502Y0217293D01*
X0304106Y0217293D01*
X0301704Y0214891D01*
X0301704Y0211495D01*
X0304106Y0209093D01*
X0304008Y0209190D02*
X0297600Y0209190D01*
X0298598Y0210189D02*
X0303010Y0210189D01*
X0302011Y0211187D02*
X0299597Y0211187D01*
X0299904Y0212186D02*
X0301704Y0212186D01*
X0301704Y0213184D02*
X0299904Y0213184D01*
X0299904Y0214183D02*
X0301704Y0214183D01*
X0301994Y0215181D02*
X0299614Y0215181D01*
X0298615Y0216180D02*
X0302993Y0216180D01*
X0303991Y0217178D02*
X0297617Y0217178D01*
X0293991Y0217178D02*
X0288182Y0217178D01*
X0289181Y0216180D02*
X0292993Y0216180D01*
X0291994Y0215181D02*
X0290179Y0215181D01*
X0290304Y0214183D02*
X0291704Y0214183D01*
X0286304Y0214183D02*
X0285304Y0214183D01*
X0285304Y0215181D02*
X0286304Y0215181D01*
X0286304Y0216180D02*
X0285304Y0216180D01*
X0285304Y0217178D02*
X0286304Y0217178D01*
X0283426Y0217178D02*
X0277617Y0217178D01*
X0278615Y0216180D02*
X0282427Y0216180D01*
X0281428Y0215181D02*
X0279614Y0215181D01*
X0285304Y0211187D02*
X0286304Y0211187D01*
X0286304Y0210189D02*
X0285304Y0210189D01*
X0285304Y0209190D02*
X0286304Y0209190D01*
X0283008Y0206195D02*
X0278600Y0206195D01*
X0279599Y0205196D02*
X0282009Y0205196D01*
X0281704Y0204198D02*
X0279904Y0204198D01*
X0279904Y0203199D02*
X0281704Y0203199D01*
X0281704Y0202201D02*
X0279904Y0202201D01*
X0279612Y0201202D02*
X0281996Y0201202D01*
X0282995Y0200204D02*
X0278613Y0200204D01*
X0277615Y0199205D02*
X0283993Y0199205D01*
X0287615Y0199205D02*
X0287766Y0199205D01*
X0288765Y0198207D02*
X0277051Y0198207D01*
X0277051Y0197208D02*
X0289763Y0197208D01*
X0290762Y0196210D02*
X0277051Y0196210D01*
X0277051Y0195211D02*
X0291051Y0195211D01*
X0291051Y0194213D02*
X0277051Y0194213D01*
X0277051Y0193214D02*
X0291051Y0193214D01*
X0291051Y0192216D02*
X0277051Y0192216D01*
X0290362Y0182231D02*
X0425002Y0182231D01*
X0426000Y0183229D02*
X0291360Y0183229D01*
X0289951Y0181232D02*
X0424003Y0181232D01*
X0423985Y0184228D02*
X0426284Y0184228D01*
X0425806Y0185226D02*
X0424463Y0185226D01*
X0424463Y0186225D02*
X0425806Y0186225D01*
X0425806Y0187223D02*
X0424463Y0187223D01*
X0424463Y0188222D02*
X0425806Y0188222D01*
X0425806Y0189220D02*
X0424463Y0189220D01*
X0424463Y0190219D02*
X0425806Y0190219D01*
X0429957Y0193214D02*
X0297451Y0193214D01*
X0297451Y0192216D02*
X0430956Y0192216D01*
X0432918Y0194213D02*
X0447257Y0194213D01*
X0447257Y0195211D02*
X0431920Y0195211D01*
X0431319Y0196210D02*
X0405121Y0196210D01*
X0404123Y0197208D02*
X0428603Y0197208D01*
X0427413Y0198207D02*
X0403124Y0198207D01*
X0398166Y0199205D02*
X0397615Y0199205D01*
X0393993Y0199205D02*
X0387615Y0199205D01*
X0387502Y0199093D02*
X0389904Y0201495D01*
X0389904Y0204891D01*
X0387502Y0207293D01*
X0384106Y0207293D01*
X0381704Y0204891D01*
X0381704Y0201495D01*
X0384106Y0199093D01*
X0387502Y0199093D01*
X0388613Y0200204D02*
X0392995Y0200204D01*
X0391996Y0201202D02*
X0389612Y0201202D01*
X0389904Y0202201D02*
X0391704Y0202201D01*
X0391704Y0203199D02*
X0389904Y0203199D01*
X0389904Y0204198D02*
X0391704Y0204198D01*
X0392009Y0205196D02*
X0389599Y0205196D01*
X0388600Y0206195D02*
X0393008Y0206195D01*
X0394006Y0207193D02*
X0387602Y0207193D01*
X0387668Y0208693D02*
X0386304Y0208693D01*
X0386304Y0212693D01*
X0386304Y0213693D01*
X0385304Y0213693D01*
X0385304Y0217693D01*
X0383940Y0217693D01*
X0381304Y0215057D01*
X0381304Y0213693D01*
X0385304Y0213693D01*
X0385304Y0212693D01*
X0381304Y0212693D01*
X0381304Y0211329D01*
X0383940Y0208693D01*
X0385304Y0208693D01*
X0385304Y0212693D01*
X0386304Y0212693D01*
X0390304Y0212693D01*
X0390304Y0211329D01*
X0387668Y0208693D01*
X0388165Y0209190D02*
X0394008Y0209190D01*
X0393010Y0210189D02*
X0389164Y0210189D01*
X0390162Y0211187D02*
X0392011Y0211187D01*
X0391704Y0212186D02*
X0390304Y0212186D01*
X0390304Y0213693D02*
X0386304Y0213693D01*
X0386304Y0217693D01*
X0387668Y0217693D01*
X0390304Y0215057D01*
X0390304Y0213693D01*
X0390304Y0214183D02*
X0391704Y0214183D01*
X0391704Y0213184D02*
X0386304Y0213184D01*
X0386304Y0212186D02*
X0385304Y0212186D01*
X0385304Y0213184D02*
X0379904Y0213184D01*
X0379904Y0212186D02*
X0381304Y0212186D01*
X0381446Y0211187D02*
X0379597Y0211187D01*
X0379904Y0211495D02*
X0377502Y0209093D01*
X0374106Y0209093D01*
X0371704Y0211495D01*
X0371704Y0214891D01*
X0374106Y0217293D01*
X0377502Y0217293D01*
X0379904Y0214891D01*
X0379904Y0211495D01*
X0378598Y0210189D02*
X0382444Y0210189D01*
X0383443Y0209190D02*
X0377600Y0209190D01*
X0377502Y0207293D02*
X0374106Y0207293D01*
X0371704Y0204891D01*
X0371704Y0201495D01*
X0374106Y0199093D01*
X0377502Y0199093D01*
X0379904Y0201495D01*
X0379904Y0204891D01*
X0377502Y0207293D01*
X0377602Y0207193D02*
X0384006Y0207193D01*
X0383008Y0206195D02*
X0378600Y0206195D01*
X0379599Y0205196D02*
X0382009Y0205196D01*
X0381704Y0204198D02*
X0379904Y0204198D01*
X0379904Y0203199D02*
X0381704Y0203199D01*
X0381704Y0202201D02*
X0379904Y0202201D01*
X0379612Y0201202D02*
X0381996Y0201202D01*
X0382995Y0200204D02*
X0378613Y0200204D01*
X0377615Y0199205D02*
X0383993Y0199205D01*
X0373993Y0199205D02*
X0367615Y0199205D01*
X0367502Y0199093D02*
X0369904Y0201495D01*
X0369904Y0204891D01*
X0367502Y0207293D01*
X0364106Y0207293D01*
X0361704Y0204891D01*
X0361704Y0201495D01*
X0364106Y0199093D01*
X0367502Y0199093D01*
X0368613Y0200204D02*
X0372995Y0200204D01*
X0371996Y0201202D02*
X0369612Y0201202D01*
X0369904Y0202201D02*
X0371704Y0202201D01*
X0371704Y0203199D02*
X0369904Y0203199D01*
X0369904Y0204198D02*
X0371704Y0204198D01*
X0372009Y0205196D02*
X0369599Y0205196D01*
X0368600Y0206195D02*
X0373008Y0206195D01*
X0374006Y0207193D02*
X0367602Y0207193D01*
X0367668Y0208693D02*
X0370304Y0211329D01*
X0370304Y0212693D01*
X0366304Y0212693D01*
X0366304Y0213693D01*
X0365304Y0213693D01*
X0365304Y0217693D01*
X0363940Y0217693D01*
X0361304Y0215057D01*
X0361304Y0213693D01*
X0365304Y0213693D01*
X0365304Y0212693D01*
X0361304Y0212693D01*
X0361304Y0211329D01*
X0363940Y0208693D01*
X0365304Y0208693D01*
X0365304Y0212693D01*
X0366304Y0212693D01*
X0366304Y0208693D01*
X0367668Y0208693D01*
X0368165Y0209190D02*
X0374008Y0209190D01*
X0373010Y0210189D02*
X0369164Y0210189D01*
X0370162Y0211187D02*
X0372011Y0211187D01*
X0371704Y0212186D02*
X0370304Y0212186D01*
X0370304Y0213693D02*
X0366304Y0213693D01*
X0366304Y0217693D01*
X0367668Y0217693D01*
X0370304Y0215057D01*
X0370304Y0213693D01*
X0370304Y0214183D02*
X0371704Y0214183D01*
X0371704Y0213184D02*
X0366304Y0213184D01*
X0366304Y0212186D02*
X0365304Y0212186D01*
X0365304Y0213184D02*
X0359904Y0213184D01*
X0359904Y0212186D02*
X0361304Y0212186D01*
X0361446Y0211187D02*
X0359597Y0211187D01*
X0359904Y0211495D02*
X0357502Y0209093D01*
X0354106Y0209093D01*
X0351704Y0211495D01*
X0351704Y0214891D01*
X0354106Y0217293D01*
X0357502Y0217293D01*
X0359904Y0214891D01*
X0359904Y0211495D01*
X0358598Y0210189D02*
X0362444Y0210189D01*
X0363443Y0209190D02*
X0357600Y0209190D01*
X0357502Y0207293D02*
X0354106Y0207293D01*
X0351704Y0204891D01*
X0351704Y0201495D01*
X0354106Y0199093D01*
X0357502Y0199093D01*
X0359904Y0201495D01*
X0359904Y0204891D01*
X0357502Y0207293D01*
X0357602Y0207193D02*
X0364006Y0207193D01*
X0363008Y0206195D02*
X0358600Y0206195D01*
X0359599Y0205196D02*
X0362009Y0205196D01*
X0361704Y0204198D02*
X0359904Y0204198D01*
X0359904Y0203199D02*
X0361704Y0203199D01*
X0361704Y0202201D02*
X0359904Y0202201D01*
X0359612Y0201202D02*
X0361996Y0201202D01*
X0362995Y0200204D02*
X0358613Y0200204D01*
X0357615Y0199205D02*
X0363993Y0199205D01*
X0353993Y0199205D02*
X0348180Y0199205D01*
X0347668Y0198693D02*
X0346304Y0198693D01*
X0346304Y0202693D01*
X0346304Y0203693D01*
X0345304Y0203693D01*
X0345304Y0207693D01*
X0343940Y0207693D01*
X0341304Y0205057D01*
X0341304Y0203693D01*
X0345304Y0203693D01*
X0345304Y0202693D01*
X0341304Y0202693D01*
X0341304Y0201329D01*
X0343940Y0198693D01*
X0345304Y0198693D01*
X0345304Y0202693D01*
X0346304Y0202693D01*
X0350304Y0202693D01*
X0350304Y0201329D01*
X0347668Y0198693D01*
X0346304Y0199205D02*
X0345304Y0199205D01*
X0345304Y0200204D02*
X0346304Y0200204D01*
X0346304Y0201202D02*
X0345304Y0201202D01*
X0345304Y0202201D02*
X0346304Y0202201D01*
X0346304Y0203199D02*
X0351704Y0203199D01*
X0351704Y0202201D02*
X0350304Y0202201D01*
X0350177Y0201202D02*
X0351996Y0201202D01*
X0352995Y0200204D02*
X0349179Y0200204D01*
X0345304Y0203199D02*
X0339904Y0203199D01*
X0339904Y0202201D02*
X0341304Y0202201D01*
X0341431Y0201202D02*
X0339612Y0201202D01*
X0339904Y0201495D02*
X0337502Y0199093D01*
X0334106Y0199093D01*
X0331704Y0201495D01*
X0331704Y0204891D01*
X0334106Y0207293D01*
X0337502Y0207293D01*
X0339904Y0204891D01*
X0339904Y0201495D01*
X0338613Y0200204D02*
X0342429Y0200204D01*
X0343428Y0199205D02*
X0337615Y0199205D01*
X0333993Y0199205D02*
X0327615Y0199205D01*
X0327502Y0199093D02*
X0329904Y0201495D01*
X0329904Y0204891D01*
X0327502Y0207293D01*
X0324106Y0207293D01*
X0321704Y0204891D01*
X0321704Y0201495D01*
X0324106Y0199093D01*
X0327502Y0199093D01*
X0328613Y0200204D02*
X0332995Y0200204D01*
X0331996Y0201202D02*
X0329612Y0201202D01*
X0329904Y0202201D02*
X0331704Y0202201D01*
X0331704Y0203199D02*
X0329904Y0203199D01*
X0329904Y0204198D02*
X0331704Y0204198D01*
X0332009Y0205196D02*
X0329599Y0205196D01*
X0328600Y0206195D02*
X0333008Y0206195D01*
X0334006Y0207193D02*
X0327602Y0207193D01*
X0327502Y0209093D02*
X0324106Y0209093D01*
X0321704Y0211495D01*
X0321704Y0214891D01*
X0324106Y0217293D01*
X0327502Y0217293D01*
X0329904Y0214891D01*
X0329904Y0211495D01*
X0327502Y0209093D01*
X0327600Y0209190D02*
X0334008Y0209190D01*
X0334106Y0209093D02*
X0337502Y0209093D01*
X0339904Y0211495D01*
X0339904Y0214891D01*
X0337502Y0217293D01*
X0334106Y0217293D01*
X0331704Y0214891D01*
X0331704Y0211495D01*
X0334106Y0209093D01*
X0333010Y0210189D02*
X0328598Y0210189D01*
X0329597Y0211187D02*
X0332011Y0211187D01*
X0331704Y0212186D02*
X0329904Y0212186D01*
X0329904Y0213184D02*
X0331704Y0213184D01*
X0331704Y0214183D02*
X0329904Y0214183D01*
X0329614Y0215181D02*
X0331994Y0215181D01*
X0332993Y0216180D02*
X0328615Y0216180D01*
X0327617Y0217178D02*
X0333991Y0217178D01*
X0337617Y0217178D02*
X0343991Y0217178D01*
X0344106Y0217293D02*
X0341704Y0214891D01*
X0341704Y0211495D01*
X0344106Y0209093D01*
X0347502Y0209093D01*
X0349904Y0211495D01*
X0349904Y0214891D01*
X0347502Y0217293D01*
X0344106Y0217293D01*
X0342993Y0216180D02*
X0338615Y0216180D01*
X0339614Y0215181D02*
X0341994Y0215181D01*
X0341704Y0214183D02*
X0339904Y0214183D01*
X0339904Y0213184D02*
X0341704Y0213184D01*
X0341704Y0212186D02*
X0339904Y0212186D01*
X0339597Y0211187D02*
X0342011Y0211187D01*
X0343010Y0210189D02*
X0338598Y0210189D01*
X0337600Y0209190D02*
X0344008Y0209190D01*
X0343440Y0207193D02*
X0337602Y0207193D01*
X0338600Y0206195D02*
X0342442Y0206195D01*
X0341443Y0205196D02*
X0339599Y0205196D01*
X0339904Y0204198D02*
X0341304Y0204198D01*
X0345304Y0204198D02*
X0346304Y0204198D01*
X0346304Y0203693D02*
X0346304Y0207693D01*
X0347668Y0207693D01*
X0350304Y0205057D01*
X0350304Y0203693D01*
X0346304Y0203693D01*
X0346304Y0205196D02*
X0345304Y0205196D01*
X0345304Y0206195D02*
X0346304Y0206195D01*
X0346304Y0207193D02*
X0345304Y0207193D01*
X0348167Y0207193D02*
X0354006Y0207193D01*
X0353008Y0206195D02*
X0349166Y0206195D01*
X0350164Y0205196D02*
X0352009Y0205196D01*
X0351704Y0204198D02*
X0350304Y0204198D01*
X0347600Y0209190D02*
X0354008Y0209190D01*
X0353010Y0210189D02*
X0348598Y0210189D01*
X0349597Y0211187D02*
X0352011Y0211187D01*
X0351704Y0212186D02*
X0349904Y0212186D01*
X0349904Y0213184D02*
X0351704Y0213184D01*
X0351704Y0214183D02*
X0349904Y0214183D01*
X0349614Y0215181D02*
X0351994Y0215181D01*
X0352993Y0216180D02*
X0348615Y0216180D01*
X0347617Y0217178D02*
X0353991Y0217178D01*
X0357617Y0217178D02*
X0363426Y0217178D01*
X0362427Y0216180D02*
X0358615Y0216180D01*
X0359614Y0215181D02*
X0361428Y0215181D01*
X0361304Y0214183D02*
X0359904Y0214183D01*
X0365304Y0214183D02*
X0366304Y0214183D01*
X0366304Y0215181D02*
X0365304Y0215181D01*
X0365304Y0216180D02*
X0366304Y0216180D01*
X0366304Y0217178D02*
X0365304Y0217178D01*
X0368182Y0217178D02*
X0373991Y0217178D01*
X0372993Y0216180D02*
X0369181Y0216180D01*
X0370179Y0215181D02*
X0371994Y0215181D01*
X0377617Y0217178D02*
X0383426Y0217178D01*
X0382427Y0216180D02*
X0378615Y0216180D01*
X0379614Y0215181D02*
X0381428Y0215181D01*
X0381304Y0214183D02*
X0379904Y0214183D01*
X0385304Y0214183D02*
X0386304Y0214183D01*
X0386304Y0215181D02*
X0385304Y0215181D01*
X0385304Y0216180D02*
X0386304Y0216180D01*
X0386304Y0217178D02*
X0385304Y0217178D01*
X0388182Y0217178D02*
X0393991Y0217178D01*
X0392993Y0216180D02*
X0389181Y0216180D01*
X0390179Y0215181D02*
X0391994Y0215181D01*
X0386304Y0211187D02*
X0385304Y0211187D01*
X0385304Y0210189D02*
X0386304Y0210189D01*
X0386304Y0209190D02*
X0385304Y0209190D01*
X0366304Y0209190D02*
X0365304Y0209190D01*
X0365304Y0210189D02*
X0366304Y0210189D01*
X0366304Y0211187D02*
X0365304Y0211187D01*
X0324008Y0209190D02*
X0318165Y0209190D01*
X0317668Y0208693D02*
X0320304Y0211329D01*
X0320304Y0212693D01*
X0316304Y0212693D01*
X0316304Y0213693D01*
X0315304Y0213693D01*
X0315304Y0217693D01*
X0313940Y0217693D01*
X0311304Y0215057D01*
X0311304Y0213693D01*
X0315304Y0213693D01*
X0315304Y0212693D01*
X0311304Y0212693D01*
X0311304Y0211329D01*
X0313940Y0208693D01*
X0315304Y0208693D01*
X0315304Y0212693D01*
X0316304Y0212693D01*
X0316304Y0208693D01*
X0317668Y0208693D01*
X0317502Y0207293D02*
X0314106Y0207293D01*
X0311704Y0204891D01*
X0311704Y0201495D01*
X0314106Y0199093D01*
X0317502Y0199093D01*
X0319904Y0201495D01*
X0319904Y0204891D01*
X0317502Y0207293D01*
X0317602Y0207193D02*
X0324006Y0207193D01*
X0323008Y0206195D02*
X0318600Y0206195D01*
X0319599Y0205196D02*
X0322009Y0205196D01*
X0321704Y0204198D02*
X0319904Y0204198D01*
X0319904Y0203199D02*
X0321704Y0203199D01*
X0321704Y0202201D02*
X0319904Y0202201D01*
X0319612Y0201202D02*
X0321996Y0201202D01*
X0322995Y0200204D02*
X0318613Y0200204D01*
X0317615Y0199205D02*
X0323993Y0199205D01*
X0313993Y0199205D02*
X0307615Y0199205D01*
X0308613Y0200204D02*
X0312995Y0200204D01*
X0311996Y0201202D02*
X0309612Y0201202D01*
X0309904Y0202201D02*
X0311704Y0202201D01*
X0311704Y0203199D02*
X0309904Y0203199D01*
X0309904Y0204198D02*
X0311704Y0204198D01*
X0312009Y0205196D02*
X0309599Y0205196D01*
X0308600Y0206195D02*
X0313008Y0206195D01*
X0314006Y0207193D02*
X0307602Y0207193D01*
X0307600Y0209190D02*
X0313443Y0209190D01*
X0312444Y0210189D02*
X0308598Y0210189D01*
X0309597Y0211187D02*
X0311446Y0211187D01*
X0311304Y0212186D02*
X0309904Y0212186D01*
X0309904Y0213184D02*
X0315304Y0213184D01*
X0315304Y0212186D02*
X0316304Y0212186D01*
X0316304Y0213184D02*
X0321704Y0213184D01*
X0321704Y0212186D02*
X0320304Y0212186D01*
X0320162Y0211187D02*
X0322011Y0211187D01*
X0323010Y0210189D02*
X0319164Y0210189D01*
X0316304Y0210189D02*
X0315304Y0210189D01*
X0315304Y0211187D02*
X0316304Y0211187D01*
X0316304Y0209190D02*
X0315304Y0209190D01*
X0316304Y0213693D02*
X0320304Y0213693D01*
X0320304Y0215057D01*
X0317668Y0217693D01*
X0316304Y0217693D01*
X0316304Y0213693D01*
X0316304Y0214183D02*
X0315304Y0214183D01*
X0315304Y0215181D02*
X0316304Y0215181D01*
X0316304Y0216180D02*
X0315304Y0216180D01*
X0315304Y0217178D02*
X0316304Y0217178D01*
X0318182Y0217178D02*
X0323991Y0217178D01*
X0322993Y0216180D02*
X0319181Y0216180D01*
X0320179Y0215181D02*
X0321994Y0215181D01*
X0321704Y0214183D02*
X0320304Y0214183D01*
X0313426Y0217178D02*
X0307617Y0217178D01*
X0308615Y0216180D02*
X0312427Y0216180D01*
X0311428Y0215181D02*
X0309614Y0215181D01*
X0309904Y0214183D02*
X0311304Y0214183D01*
X0294369Y0177238D02*
X0393711Y0177238D01*
X0393619Y0177079D02*
X0393517Y0176697D01*
X0393517Y0174244D01*
X0396682Y0174244D01*
X0396682Y0173244D01*
X0397682Y0173244D01*
X0397682Y0174244D01*
X0400847Y0174244D01*
X0400847Y0176697D01*
X0400745Y0177079D01*
X0400548Y0177421D01*
X0400268Y0177700D01*
X0399926Y0177898D01*
X0399545Y0178000D01*
X0397682Y0178000D01*
X0397682Y0174244D01*
X0396682Y0174244D01*
X0396682Y0178000D01*
X0394819Y0178000D01*
X0394438Y0177898D01*
X0394096Y0177700D01*
X0393816Y0177421D01*
X0393619Y0177079D01*
X0393517Y0176239D02*
X0293371Y0176239D01*
X0292372Y0175241D02*
X0393517Y0175241D01*
X0393517Y0173244D02*
X0393517Y0170791D01*
X0393619Y0170409D01*
X0393816Y0170067D01*
X0394096Y0169788D01*
X0394438Y0169590D01*
X0394819Y0169488D01*
X0396682Y0169488D01*
X0396682Y0173244D01*
X0397682Y0173244D01*
X0400847Y0173244D01*
X0401791Y0173244D01*
X0400847Y0173244D02*
X0400847Y0170791D01*
X0400745Y0170409D01*
X0400548Y0170067D01*
X0400268Y0169788D01*
X0399926Y0169590D01*
X0399545Y0169488D01*
X0397682Y0169488D01*
X0397682Y0173244D01*
X0397682Y0174242D02*
X0401791Y0174242D01*
X0401791Y0175241D02*
X0400847Y0175241D01*
X0400847Y0176239D02*
X0401791Y0176239D01*
X0401791Y0176956D02*
X0401791Y0170533D01*
X0402435Y0169888D01*
X0407677Y0169888D01*
X0408321Y0170533D01*
X0408321Y0172900D01*
X0417539Y0172900D01*
X0417539Y0170926D01*
X0418183Y0170282D01*
X0423819Y0170282D01*
X0424463Y0170926D01*
X0424463Y0176562D01*
X0423819Y0177206D01*
X0418183Y0177206D01*
X0417539Y0176562D01*
X0417539Y0175700D01*
X0408321Y0175700D01*
X0408321Y0176956D01*
X0407677Y0177600D01*
X0402435Y0177600D01*
X0401791Y0176956D01*
X0402073Y0177238D02*
X0400653Y0177238D01*
X0397682Y0177238D02*
X0396682Y0177238D01*
X0396682Y0176239D02*
X0397682Y0176239D01*
X0397682Y0175241D02*
X0396682Y0175241D01*
X0396682Y0174242D02*
X0291374Y0174242D01*
X0290375Y0173244D02*
X0393517Y0173244D01*
X0396682Y0173244D01*
X0396682Y0172245D02*
X0397682Y0172245D01*
X0397682Y0171247D02*
X0396682Y0171247D01*
X0396682Y0170248D02*
X0397682Y0170248D01*
X0400652Y0170248D02*
X0402075Y0170248D01*
X0401791Y0171247D02*
X0400847Y0171247D01*
X0400847Y0172245D02*
X0401791Y0172245D01*
X0408321Y0172245D02*
X0417539Y0172245D01*
X0417539Y0171247D02*
X0408321Y0171247D01*
X0408037Y0170248D02*
X0447257Y0170248D01*
X0447257Y0169250D02*
X0286381Y0169250D01*
X0285480Y0168251D02*
X0447257Y0168251D01*
X0447257Y0167253D02*
X0286478Y0167253D01*
X0287477Y0166254D02*
X0424553Y0166254D01*
X0424698Y0166400D02*
X0423351Y0165053D01*
X0423351Y0163427D01*
X0418183Y0163427D01*
X0417539Y0162782D01*
X0417539Y0161900D01*
X0408321Y0161900D01*
X0408321Y0163176D01*
X0407677Y0163820D01*
X0402435Y0163820D01*
X0401791Y0163176D01*
X0401791Y0156753D01*
X0402435Y0156109D01*
X0407677Y0156109D01*
X0408321Y0156753D01*
X0408321Y0159100D01*
X0417539Y0159100D01*
X0417539Y0157147D01*
X0418183Y0156502D01*
X0422001Y0156502D01*
X0421551Y0156053D01*
X0421551Y0154147D01*
X0422898Y0152800D01*
X0424171Y0152800D01*
X0427324Y0149647D01*
X0426451Y0149647D01*
X0425806Y0149003D01*
X0425806Y0143367D01*
X0426336Y0142838D01*
X0425751Y0142253D01*
X0425751Y0140347D01*
X0427098Y0139000D01*
X0427851Y0139000D01*
X0427851Y0135868D01*
X0426451Y0135868D01*
X0425806Y0135223D01*
X0425806Y0129588D01*
X0426451Y0128943D01*
X0432086Y0128943D01*
X0432731Y0129588D01*
X0432731Y0135223D01*
X0432086Y0135868D01*
X0430651Y0135868D01*
X0430651Y0140680D01*
X0430351Y0140980D01*
X0430351Y0142253D01*
X0429881Y0142723D01*
X0432086Y0142723D01*
X0432731Y0143367D01*
X0432731Y0149003D01*
X0432086Y0149647D01*
X0430651Y0149647D01*
X0430651Y0150280D01*
X0426151Y0154780D01*
X0426151Y0156053D01*
X0424804Y0157400D01*
X0424463Y0157400D01*
X0424463Y0162036D01*
X0424698Y0161800D01*
X0425806Y0161800D01*
X0425806Y0157147D01*
X0426451Y0156502D01*
X0432086Y0156502D01*
X0432731Y0157147D01*
X0432731Y0162782D01*
X0432086Y0163427D01*
X0428304Y0163427D01*
X0427951Y0163780D01*
X0427951Y0165053D01*
X0426604Y0166400D01*
X0424698Y0166400D01*
X0423554Y0165256D02*
X0288475Y0165256D01*
X0289474Y0164257D02*
X0423351Y0164257D01*
X0424463Y0161262D02*
X0425806Y0161262D01*
X0425806Y0160263D02*
X0424463Y0160263D01*
X0424463Y0159265D02*
X0425806Y0159265D01*
X0425806Y0158266D02*
X0424463Y0158266D01*
X0424936Y0157268D02*
X0425806Y0157268D01*
X0425935Y0156269D02*
X0447257Y0156269D01*
X0447257Y0155271D02*
X0426151Y0155271D01*
X0426659Y0154272D02*
X0447257Y0154272D01*
X0447257Y0153274D02*
X0427657Y0153274D01*
X0428656Y0152275D02*
X0447257Y0152275D01*
X0447257Y0151277D02*
X0429654Y0151277D01*
X0430651Y0150278D02*
X0447257Y0150278D01*
X0447257Y0149280D02*
X0432454Y0149280D01*
X0432731Y0148281D02*
X0447257Y0148281D01*
X0447257Y0147283D02*
X0432731Y0147283D01*
X0432731Y0146284D02*
X0447257Y0146284D01*
X0447257Y0145286D02*
X0432731Y0145286D01*
X0432731Y0144287D02*
X0447257Y0144287D01*
X0447257Y0143289D02*
X0432652Y0143289D01*
X0430314Y0142290D02*
X0447257Y0142290D01*
X0447257Y0141292D02*
X0430351Y0141292D01*
X0430651Y0140293D02*
X0447257Y0140293D01*
X0447257Y0139295D02*
X0430651Y0139295D01*
X0430651Y0138296D02*
X0447257Y0138296D01*
X0447257Y0137298D02*
X0430651Y0137298D01*
X0430651Y0136299D02*
X0447257Y0136299D01*
X0447257Y0135301D02*
X0432654Y0135301D01*
X0432731Y0134302D02*
X0447257Y0134302D01*
X0447257Y0133303D02*
X0432731Y0133303D01*
X0432731Y0132305D02*
X0447257Y0132305D01*
X0447257Y0131306D02*
X0432731Y0131306D01*
X0432731Y0130308D02*
X0447257Y0130308D01*
X0447257Y0129309D02*
X0432452Y0129309D01*
X0426085Y0129309D02*
X0424185Y0129309D01*
X0424463Y0129588D02*
X0424463Y0135223D01*
X0423819Y0135868D01*
X0418183Y0135868D01*
X0417539Y0135223D01*
X0417539Y0134300D01*
X0408321Y0134300D01*
X0408321Y0135617D01*
X0407677Y0136261D01*
X0402435Y0136261D01*
X0401791Y0135617D01*
X0401791Y0129194D01*
X0402435Y0128550D01*
X0407677Y0128550D01*
X0408321Y0129194D01*
X0408321Y0131500D01*
X0417539Y0131500D01*
X0417539Y0129588D01*
X0418183Y0128943D01*
X0423819Y0128943D01*
X0424463Y0129588D01*
X0424463Y0130308D02*
X0425806Y0130308D01*
X0425806Y0131306D02*
X0424463Y0131306D01*
X0424463Y0132305D02*
X0425806Y0132305D01*
X0425806Y0133303D02*
X0424463Y0133303D01*
X0424463Y0134302D02*
X0425806Y0134302D01*
X0425883Y0135301D02*
X0424386Y0135301D01*
X0427851Y0136299D02*
X0400331Y0136299D01*
X0400268Y0136362D02*
X0400548Y0136082D01*
X0400745Y0135740D01*
X0400847Y0135359D01*
X0400847Y0132905D01*
X0397682Y0132905D01*
X0397682Y0131906D01*
X0400847Y0131906D01*
X0400847Y0129452D01*
X0400745Y0129071D01*
X0400548Y0128729D01*
X0400268Y0128449D01*
X0399926Y0128252D01*
X0399545Y0128150D01*
X0397682Y0128150D01*
X0397682Y0131905D01*
X0396682Y0131905D01*
X0396682Y0128150D01*
X0394819Y0128150D01*
X0394438Y0128252D01*
X0394096Y0128449D01*
X0393816Y0128729D01*
X0393619Y0129071D01*
X0393517Y0129452D01*
X0393517Y0131906D01*
X0396682Y0131906D01*
X0396682Y0132905D01*
X0393517Y0132905D01*
X0393517Y0135359D01*
X0393619Y0135740D01*
X0393816Y0136082D01*
X0394096Y0136362D01*
X0394438Y0136559D01*
X0394819Y0136661D01*
X0396682Y0136661D01*
X0396682Y0132906D01*
X0397682Y0132906D01*
X0397682Y0136661D01*
X0399545Y0136661D01*
X0399926Y0136559D01*
X0400268Y0136362D01*
X0400847Y0135301D02*
X0401791Y0135301D01*
X0401791Y0134302D02*
X0400847Y0134302D01*
X0400847Y0133303D02*
X0401791Y0133303D01*
X0401791Y0132305D02*
X0397682Y0132305D01*
X0397682Y0133303D02*
X0396682Y0133303D01*
X0396682Y0132305D02*
X0290251Y0132305D01*
X0290251Y0133303D02*
X0393517Y0133303D01*
X0393517Y0134302D02*
X0290251Y0134302D01*
X0290251Y0135301D02*
X0393517Y0135301D01*
X0394033Y0136299D02*
X0290251Y0136299D01*
X0290251Y0137298D02*
X0427851Y0137298D01*
X0427851Y0138296D02*
X0290251Y0138296D01*
X0290251Y0139295D02*
X0426804Y0139295D01*
X0425805Y0140293D02*
X0290251Y0140293D01*
X0290251Y0141292D02*
X0425751Y0141292D01*
X0425789Y0142290D02*
X0400330Y0142290D01*
X0400268Y0142229D02*
X0400548Y0142508D01*
X0400745Y0142850D01*
X0400847Y0143232D01*
X0400847Y0145685D01*
X0397682Y0145685D01*
X0397682Y0146685D01*
X0400847Y0146685D01*
X0400847Y0149138D01*
X0400745Y0149520D01*
X0400548Y0149862D01*
X0400268Y0150141D01*
X0399926Y0150339D01*
X0399545Y0150441D01*
X0397682Y0150441D01*
X0397682Y0146685D01*
X0396682Y0146685D01*
X0396682Y0150441D01*
X0394819Y0150441D01*
X0394438Y0150339D01*
X0394096Y0150141D01*
X0393816Y0149862D01*
X0393619Y0149520D01*
X0393517Y0149138D01*
X0393517Y0146685D01*
X0396682Y0146685D01*
X0396682Y0145685D01*
X0397682Y0145685D01*
X0397682Y0141929D01*
X0399545Y0141929D01*
X0399926Y0142031D01*
X0400268Y0142229D01*
X0400847Y0143289D02*
X0401791Y0143289D01*
X0401791Y0142973D02*
X0402435Y0142329D01*
X0407677Y0142329D01*
X0408321Y0142973D01*
X0408321Y0145300D01*
X0417539Y0145300D01*
X0417539Y0143367D01*
X0418183Y0142723D01*
X0423819Y0142723D01*
X0424463Y0143367D01*
X0424463Y0149003D01*
X0423819Y0149647D01*
X0418183Y0149647D01*
X0417539Y0149003D01*
X0417539Y0148100D01*
X0408321Y0148100D01*
X0408321Y0149397D01*
X0407677Y0150041D01*
X0402435Y0150041D01*
X0401791Y0149397D01*
X0401791Y0142973D01*
X0401791Y0144287D02*
X0400847Y0144287D01*
X0400847Y0145286D02*
X0401791Y0145286D01*
X0401791Y0146284D02*
X0397682Y0146284D01*
X0397682Y0145286D02*
X0396682Y0145286D01*
X0396682Y0145685D02*
X0396682Y0141929D01*
X0394819Y0141929D01*
X0394438Y0142031D01*
X0394096Y0142229D01*
X0393816Y0142508D01*
X0393619Y0142850D01*
X0393517Y0143232D01*
X0393517Y0145685D01*
X0396682Y0145685D01*
X0396682Y0146284D02*
X0290251Y0146284D01*
X0290251Y0145286D02*
X0393517Y0145286D01*
X0393517Y0144287D02*
X0290251Y0144287D01*
X0290251Y0143289D02*
X0393517Y0143289D01*
X0394034Y0142290D02*
X0290251Y0142290D01*
X0290251Y0147283D02*
X0393517Y0147283D01*
X0393517Y0148281D02*
X0290251Y0148281D01*
X0290251Y0149280D02*
X0393554Y0149280D01*
X0394333Y0150278D02*
X0290251Y0150278D01*
X0290251Y0151277D02*
X0425695Y0151277D01*
X0426693Y0150278D02*
X0400031Y0150278D01*
X0400809Y0149280D02*
X0401791Y0149280D01*
X0401791Y0148281D02*
X0400847Y0148281D01*
X0400847Y0147283D02*
X0401791Y0147283D01*
X0397682Y0147283D02*
X0396682Y0147283D01*
X0396682Y0148281D02*
X0397682Y0148281D01*
X0397682Y0149280D02*
X0396682Y0149280D01*
X0396682Y0150278D02*
X0397682Y0150278D01*
X0397682Y0155709D02*
X0399545Y0155709D01*
X0399926Y0155811D01*
X0400268Y0156008D01*
X0400548Y0156288D01*
X0400745Y0156630D01*
X0400847Y0157011D01*
X0400847Y0159465D01*
X0397682Y0159465D01*
X0397682Y0160465D01*
X0396682Y0160465D01*
X0396682Y0164220D01*
X0394819Y0164220D01*
X0394438Y0164118D01*
X0394096Y0163921D01*
X0393816Y0163641D01*
X0393619Y0163299D01*
X0393517Y0162918D01*
X0393517Y0160465D01*
X0396682Y0160465D01*
X0396682Y0159465D01*
X0393517Y0159465D01*
X0393517Y0157011D01*
X0393619Y0156630D01*
X0393816Y0156288D01*
X0394096Y0156008D01*
X0394438Y0155811D01*
X0394819Y0155709D01*
X0396682Y0155709D01*
X0396682Y0159465D01*
X0397682Y0159465D01*
X0397682Y0155709D01*
X0397682Y0156269D02*
X0396682Y0156269D01*
X0396682Y0157268D02*
X0397682Y0157268D01*
X0397682Y0158266D02*
X0396682Y0158266D01*
X0396682Y0159265D02*
X0397682Y0159265D01*
X0397682Y0160263D02*
X0401791Y0160263D01*
X0400847Y0160465D02*
X0400847Y0162918D01*
X0400745Y0163299D01*
X0400548Y0163641D01*
X0400268Y0163921D01*
X0399926Y0164118D01*
X0399545Y0164220D01*
X0397682Y0164220D01*
X0397682Y0160465D01*
X0400847Y0160465D01*
X0400847Y0161262D02*
X0401791Y0161262D01*
X0401791Y0162260D02*
X0400847Y0162260D01*
X0400756Y0163259D02*
X0401873Y0163259D01*
X0397682Y0163259D02*
X0396682Y0163259D01*
X0396682Y0162260D02*
X0397682Y0162260D01*
X0397682Y0161262D02*
X0396682Y0161262D01*
X0396682Y0160263D02*
X0290251Y0160263D01*
X0290251Y0159265D02*
X0393517Y0159265D01*
X0393517Y0158266D02*
X0290251Y0158266D01*
X0290251Y0157268D02*
X0393517Y0157268D01*
X0393835Y0156269D02*
X0290251Y0156269D01*
X0290251Y0155271D02*
X0421551Y0155271D01*
X0421551Y0154272D02*
X0290251Y0154272D01*
X0290251Y0153274D02*
X0422425Y0153274D01*
X0424696Y0152275D02*
X0290251Y0152275D01*
X0287451Y0152275D02*
X0287258Y0152275D01*
X0287258Y0151277D02*
X0287451Y0151277D01*
X0287451Y0150278D02*
X0287083Y0150278D01*
X0287258Y0153274D02*
X0287451Y0153274D01*
X0287451Y0154272D02*
X0287258Y0154272D01*
X0287258Y0155271D02*
X0287451Y0155271D01*
X0287451Y0156269D02*
X0286685Y0156269D01*
X0287451Y0157268D02*
X0284851Y0157268D01*
X0284851Y0158266D02*
X0287451Y0158266D01*
X0287451Y0159265D02*
X0284851Y0159265D01*
X0284851Y0160263D02*
X0287451Y0160263D01*
X0287451Y0161262D02*
X0284851Y0161262D01*
X0284851Y0162260D02*
X0287451Y0162260D01*
X0286512Y0163259D02*
X0284851Y0163259D01*
X0282051Y0163259D02*
X0280390Y0163259D01*
X0279391Y0162260D02*
X0282051Y0162260D01*
X0282051Y0161262D02*
X0278393Y0161262D01*
X0277394Y0160263D02*
X0282051Y0160263D01*
X0282051Y0159265D02*
X0276396Y0159265D01*
X0275397Y0158266D02*
X0282051Y0158266D01*
X0282051Y0157268D02*
X0274399Y0157268D01*
X0273400Y0156269D02*
X0280120Y0156269D01*
X0279546Y0155271D02*
X0272402Y0155271D01*
X0271403Y0154272D02*
X0279546Y0154272D01*
X0279546Y0153274D02*
X0270405Y0153274D01*
X0258466Y0156269D02*
X0243378Y0156269D01*
X0243951Y0155271D02*
X0257893Y0155271D01*
X0257893Y0151277D02*
X0243951Y0151277D01*
X0243776Y0150278D02*
X0258069Y0150278D01*
X0258352Y0148281D02*
X0243492Y0148281D01*
X0243951Y0147283D02*
X0257893Y0147283D01*
X0257055Y0146284D02*
X0243951Y0146284D01*
X0243951Y0145286D02*
X0256057Y0145286D01*
X0255058Y0144287D02*
X0243951Y0144287D01*
X0243951Y0143289D02*
X0254060Y0143289D01*
X0253061Y0142290D02*
X0243661Y0142290D01*
X0236699Y0148281D02*
X0235250Y0148281D01*
X0275822Y0129309D02*
X0287451Y0129309D01*
X0287451Y0128311D02*
X0276820Y0128311D01*
X0277819Y0127312D02*
X0287451Y0127312D01*
X0287451Y0126314D02*
X0278251Y0126314D01*
X0280237Y0125315D02*
X0287451Y0125315D01*
X0287451Y0124317D02*
X0280368Y0124317D01*
X0280368Y0123318D02*
X0287451Y0123318D01*
X0287451Y0122320D02*
X0280368Y0122320D01*
X0280368Y0121321D02*
X0287451Y0121321D01*
X0286894Y0120323D02*
X0280368Y0120323D01*
X0280368Y0119324D02*
X0285896Y0119324D01*
X0284897Y0118326D02*
X0279933Y0118326D01*
X0283899Y0117327D02*
X0251858Y0117327D01*
X0252857Y0118326D02*
X0253013Y0118326D01*
X0254975Y0111336D02*
X0270491Y0111336D01*
X0270491Y0110338D02*
X0254975Y0110338D01*
X0246108Y0111336D02*
X0215251Y0111336D01*
X0215251Y0110338D02*
X0216948Y0110338D01*
X0216948Y0109339D02*
X0215251Y0109339D01*
X0215251Y0108341D02*
X0216948Y0108341D01*
X0216948Y0107342D02*
X0215251Y0107342D01*
X0215251Y0106344D02*
X0216948Y0106344D01*
X0216948Y0105345D02*
X0215251Y0105345D01*
X0215251Y0104347D02*
X0217386Y0104347D01*
X0217851Y0103348D02*
X0215251Y0103348D01*
X0215251Y0102350D02*
X0217851Y0102350D01*
X0217851Y0101351D02*
X0215251Y0101351D01*
X0215251Y0100353D02*
X0217851Y0100353D01*
X0217851Y0099354D02*
X0215251Y0099354D01*
X0215251Y0098356D02*
X0217851Y0098356D01*
X0217851Y0097357D02*
X0215251Y0097357D01*
X0215251Y0096359D02*
X0217851Y0096359D01*
X0217851Y0095360D02*
X0215251Y0095360D01*
X0215251Y0094362D02*
X0217851Y0094362D01*
X0217851Y0093363D02*
X0215251Y0093363D01*
X0215251Y0092365D02*
X0217851Y0092365D01*
X0217851Y0091366D02*
X0215251Y0091366D01*
X0215251Y0090368D02*
X0217851Y0090368D01*
X0217851Y0089369D02*
X0215251Y0089369D01*
X0215251Y0088370D02*
X0217851Y0088370D01*
X0217851Y0087372D02*
X0215251Y0087372D01*
X0215251Y0086373D02*
X0217851Y0086373D01*
X0217851Y0085375D02*
X0215251Y0085375D01*
X0215251Y0084376D02*
X0217851Y0084376D01*
X0217851Y0083378D02*
X0215553Y0083378D01*
X0216552Y0082379D02*
X0217851Y0082379D01*
X0217851Y0081381D02*
X0217051Y0081381D01*
X0217051Y0080382D02*
X0217851Y0080382D01*
X0217851Y0079384D02*
X0217051Y0079384D01*
X0217051Y0078385D02*
X0217851Y0078385D01*
X0217851Y0077387D02*
X0217051Y0077387D01*
X0217051Y0076388D02*
X0217851Y0076388D01*
X0217361Y0075390D02*
X0217051Y0075390D01*
X0235651Y0066403D02*
X0240051Y0066403D01*
X0240051Y0065405D02*
X0235651Y0065405D01*
X0235651Y0064406D02*
X0240051Y0064406D01*
X0240051Y0063408D02*
X0235651Y0063408D01*
X0235651Y0062409D02*
X0240051Y0062409D01*
X0240051Y0061411D02*
X0235651Y0061411D01*
X0235651Y0060412D02*
X0240051Y0060412D01*
X0240051Y0059414D02*
X0235651Y0059414D01*
X0235651Y0058415D02*
X0240051Y0058415D01*
X0240051Y0057417D02*
X0235651Y0057417D01*
X0235651Y0056418D02*
X0240051Y0056418D01*
X0240051Y0055420D02*
X0235651Y0055420D01*
X0235651Y0054421D02*
X0240051Y0054421D01*
X0240051Y0053423D02*
X0235651Y0053423D01*
X0235651Y0052424D02*
X0240051Y0052424D01*
X0240051Y0052009D02*
X0236884Y0052009D01*
X0236239Y0051365D01*
X0236239Y0046123D01*
X0236884Y0045479D01*
X0243307Y0045479D01*
X0243951Y0046123D01*
X0243951Y0047500D01*
X0246271Y0047500D01*
X0252651Y0041120D01*
X0253471Y0040300D01*
X0257893Y0040300D01*
X0257893Y0038249D01*
X0258537Y0037605D01*
X0264960Y0037605D01*
X0265605Y0038249D01*
X0265605Y0038367D01*
X0277851Y0026120D01*
X0277851Y0024647D01*
X0276451Y0024647D01*
X0275806Y0024003D01*
X0275806Y0018367D01*
X0276451Y0017723D01*
X0282086Y0017723D01*
X0282731Y0018367D01*
X0282731Y0024003D01*
X0282086Y0024647D01*
X0280651Y0024647D01*
X0280651Y0027280D01*
X0267451Y0040480D01*
X0266631Y0041300D01*
X0265605Y0041300D01*
X0265605Y0043491D01*
X0264960Y0044135D01*
X0258537Y0044135D01*
X0257893Y0043491D01*
X0257893Y0043100D01*
X0254631Y0043100D01*
X0249167Y0048564D01*
X0250351Y0049747D01*
X0250351Y0051653D01*
X0249451Y0052553D01*
X0249451Y0064180D01*
X0250590Y0064180D01*
X0251235Y0064824D01*
X0251235Y0071247D01*
X0250590Y0071891D01*
X0245742Y0071891D01*
X0245098Y0071247D01*
X0245098Y0064824D01*
X0245742Y0064180D01*
X0246651Y0064180D01*
X0246651Y0052553D01*
X0245751Y0051653D01*
X0245751Y0050300D01*
X0243951Y0050300D01*
X0243951Y0051365D01*
X0243307Y0052009D01*
X0242851Y0052009D01*
X0242851Y0069320D01*
X0248631Y0075100D01*
X0248838Y0075100D01*
X0248838Y0073485D01*
X0249482Y0072841D01*
X0254330Y0072841D01*
X0254975Y0073485D01*
X0254975Y0079908D01*
X0254330Y0080553D01*
X0249482Y0080553D01*
X0248838Y0079908D01*
X0248838Y0077900D01*
X0247471Y0077900D01*
X0240871Y0071300D01*
X0240051Y0070480D01*
X0240051Y0052009D01*
X0242851Y0052424D02*
X0246523Y0052424D01*
X0246651Y0053423D02*
X0242851Y0053423D01*
X0242851Y0054421D02*
X0246651Y0054421D01*
X0246651Y0055420D02*
X0242851Y0055420D01*
X0242851Y0056418D02*
X0246651Y0056418D01*
X0246651Y0057417D02*
X0242851Y0057417D01*
X0242851Y0058415D02*
X0246651Y0058415D01*
X0246651Y0059414D02*
X0242851Y0059414D01*
X0242851Y0060412D02*
X0246651Y0060412D01*
X0246651Y0061411D02*
X0242851Y0061411D01*
X0242851Y0062409D02*
X0246651Y0062409D01*
X0246651Y0063408D02*
X0242851Y0063408D01*
X0242851Y0064406D02*
X0245515Y0064406D01*
X0245098Y0065405D02*
X0242851Y0065405D01*
X0242851Y0066403D02*
X0245098Y0066403D01*
X0245098Y0067402D02*
X0242851Y0067402D01*
X0242851Y0068400D02*
X0245098Y0068400D01*
X0245098Y0069399D02*
X0242930Y0069399D01*
X0243928Y0070397D02*
X0245098Y0070397D01*
X0245246Y0071396D02*
X0244927Y0071396D01*
X0245925Y0072394D02*
X0280177Y0072394D01*
X0279847Y0072189D02*
X0279466Y0072291D01*
X0277784Y0072291D01*
X0277784Y0068520D01*
X0276816Y0068520D01*
X0276816Y0072291D01*
X0275134Y0072291D01*
X0274753Y0072189D01*
X0274410Y0071992D01*
X0274131Y0071712D01*
X0273934Y0071370D01*
X0273831Y0070989D01*
X0273831Y0068520D01*
X0276816Y0068520D01*
X0276816Y0067551D01*
X0277784Y0067551D01*
X0277784Y0063780D01*
X0279466Y0063780D01*
X0279847Y0063882D01*
X0280190Y0064079D01*
X0280469Y0064359D01*
X0280666Y0064701D01*
X0280768Y0065082D01*
X0280768Y0067551D01*
X0277784Y0067551D01*
X0277784Y0068520D01*
X0280768Y0068520D01*
X0280768Y0070989D01*
X0280666Y0071370D01*
X0280469Y0071712D01*
X0280190Y0071992D01*
X0279847Y0072189D01*
X0280851Y0071720D02*
X0280851Y0064480D01*
X0276651Y0060280D01*
X0276651Y0042320D01*
X0277471Y0041500D01*
X0279271Y0039700D01*
X0279546Y0039700D01*
X0279546Y0038249D01*
X0280191Y0037605D01*
X0286614Y0037605D01*
X0287258Y0038249D01*
X0287258Y0043491D01*
X0286614Y0044135D01*
X0280191Y0044135D01*
X0279546Y0043491D01*
X0279546Y0043385D01*
X0279451Y0043480D01*
X0279451Y0059120D01*
X0282831Y0062500D01*
X0283651Y0063320D01*
X0283651Y0072880D01*
X0280651Y0075880D01*
X0279831Y0076700D01*
X0276628Y0076700D01*
X0276628Y0079908D01*
X0275984Y0080553D01*
X0275851Y0080553D01*
X0275851Y0101120D01*
X0284315Y0109584D01*
X0285498Y0108400D01*
X0287404Y0108400D01*
X0288304Y0109300D01*
X0366271Y0109300D01*
X0391475Y0084096D01*
X0391018Y0084096D01*
X0390373Y0083452D01*
X0390373Y0077029D01*
X0391018Y0076384D01*
X0393051Y0076384D01*
X0393051Y0075320D01*
X0393871Y0074500D01*
X0402071Y0066300D01*
X0391851Y0056080D01*
X0391851Y0052797D01*
X0390033Y0052797D01*
X0389984Y0052748D01*
X0389835Y0052897D01*
X0389493Y0053095D01*
X0389112Y0053197D01*
X0386855Y0053197D01*
X0386855Y0049244D01*
X0385855Y0049244D01*
X0385855Y0048244D01*
X0382296Y0048244D01*
X0382296Y0045594D01*
X0382398Y0045212D01*
X0382596Y0044870D01*
X0382875Y0044591D01*
X0383217Y0044394D01*
X0383599Y0044291D01*
X0385855Y0044291D01*
X0385855Y0048244D01*
X0386855Y0048244D01*
X0386855Y0044291D01*
X0389112Y0044291D01*
X0389493Y0044394D01*
X0389835Y0044591D01*
X0389984Y0044740D01*
X0390033Y0044691D01*
X0396063Y0044691D01*
X0396707Y0045336D01*
X0396707Y0052152D01*
X0396063Y0052797D01*
X0394651Y0052797D01*
X0394651Y0054920D01*
X0404631Y0064900D01*
X0405531Y0064900D01*
X0405531Y0063840D01*
X0406175Y0063195D01*
X0412598Y0063195D01*
X0413243Y0063840D01*
X0413243Y0069082D01*
X0412598Y0069726D01*
X0406175Y0069726D01*
X0405531Y0069082D01*
X0405531Y0067700D01*
X0404631Y0067700D01*
X0395947Y0076384D01*
X0396260Y0076384D01*
X0396904Y0077029D01*
X0396904Y0083452D01*
X0396260Y0084096D01*
X0394651Y0084096D01*
X0394651Y0084880D01*
X0393831Y0085700D01*
X0367431Y0112100D01*
X0288304Y0112100D01*
X0287567Y0112836D01*
X0299931Y0125200D01*
X0301204Y0125200D01*
X0302551Y0126547D01*
X0302551Y0128453D01*
X0301204Y0129800D01*
X0299298Y0129800D01*
X0297951Y0128453D01*
X0297951Y0127180D01*
X0273871Y0103100D01*
X0273051Y0102280D01*
X0273051Y0080553D01*
X0271136Y0080553D01*
X0270491Y0079908D01*
X0270491Y0073485D01*
X0271136Y0072841D01*
X0275984Y0072841D01*
X0276628Y0073485D01*
X0276628Y0073900D01*
X0278671Y0073900D01*
X0280851Y0071720D01*
X0280851Y0071396D02*
X0280652Y0071396D01*
X0280768Y0070397D02*
X0280851Y0070397D01*
X0280851Y0069399D02*
X0280768Y0069399D01*
X0280851Y0068400D02*
X0277784Y0068400D01*
X0276816Y0068400D02*
X0272888Y0068400D01*
X0272888Y0067402D02*
X0273831Y0067402D01*
X0273831Y0067551D02*
X0273831Y0065082D01*
X0273934Y0064701D01*
X0274131Y0064359D01*
X0274410Y0064079D01*
X0274753Y0063882D01*
X0275134Y0063780D01*
X0276816Y0063780D01*
X0276816Y0067551D01*
X0273831Y0067551D01*
X0273831Y0066403D02*
X0272888Y0066403D01*
X0272888Y0065405D02*
X0273831Y0065405D01*
X0274104Y0064406D02*
X0272471Y0064406D01*
X0272244Y0064180D02*
X0272888Y0064824D01*
X0272888Y0071247D01*
X0272244Y0071891D01*
X0267396Y0071891D01*
X0266751Y0071247D01*
X0266751Y0064824D01*
X0267396Y0064180D01*
X0267951Y0064180D01*
X0260451Y0056680D01*
X0260451Y0052009D01*
X0258537Y0052009D01*
X0257893Y0051365D01*
X0257893Y0046123D01*
X0258537Y0045479D01*
X0264960Y0045479D01*
X0265605Y0046123D01*
X0265605Y0051365D01*
X0264960Y0052009D01*
X0263251Y0052009D01*
X0263251Y0055520D01*
X0270231Y0062500D01*
X0271051Y0063320D01*
X0271051Y0064180D01*
X0272244Y0064180D01*
X0271051Y0063408D02*
X0279779Y0063408D01*
X0280496Y0064406D02*
X0280777Y0064406D01*
X0280768Y0065405D02*
X0280851Y0065405D01*
X0280851Y0066403D02*
X0280768Y0066403D01*
X0280768Y0067402D02*
X0280851Y0067402D01*
X0283651Y0067402D02*
X0291573Y0067402D01*
X0292572Y0068400D02*
X0283651Y0068400D01*
X0283651Y0069399D02*
X0293570Y0069399D01*
X0294569Y0070397D02*
X0283651Y0070397D01*
X0283651Y0071396D02*
X0295567Y0071396D01*
X0296566Y0072394D02*
X0283651Y0072394D01*
X0283138Y0073393D02*
X0297564Y0073393D01*
X0298563Y0074391D02*
X0282140Y0074391D01*
X0281141Y0075390D02*
X0299561Y0075390D01*
X0300560Y0076388D02*
X0280143Y0076388D01*
X0276628Y0077387D02*
X0301558Y0077387D01*
X0302557Y0078385D02*
X0276628Y0078385D01*
X0276628Y0079384D02*
X0303555Y0079384D01*
X0304554Y0080382D02*
X0276154Y0080382D01*
X0275851Y0081381D02*
X0305552Y0081381D01*
X0306551Y0082379D02*
X0275851Y0082379D01*
X0275851Y0083378D02*
X0307549Y0083378D01*
X0308548Y0084376D02*
X0275851Y0084376D01*
X0275851Y0085375D02*
X0308751Y0085375D01*
X0308751Y0085147D02*
X0309035Y0084864D01*
X0282051Y0057880D01*
X0282051Y0052009D01*
X0280191Y0052009D01*
X0279546Y0051365D01*
X0279546Y0046123D01*
X0280191Y0045479D01*
X0286614Y0045479D01*
X0287258Y0046123D01*
X0287258Y0051365D01*
X0286614Y0052009D01*
X0284851Y0052009D01*
X0284851Y0056720D01*
X0308315Y0080184D01*
X0309498Y0079000D01*
X0311404Y0079000D01*
X0311633Y0079229D01*
X0311633Y0077029D01*
X0312277Y0076384D01*
X0313851Y0076384D01*
X0313851Y0052797D01*
X0312474Y0052797D01*
X0311830Y0052152D01*
X0311830Y0045336D01*
X0312474Y0044691D01*
X0314451Y0044691D01*
X0314451Y0028191D01*
X0313262Y0028191D01*
X0312617Y0027546D01*
X0312617Y0022698D01*
X0313262Y0022054D01*
X0314451Y0022054D01*
X0314451Y0012443D01*
X0313262Y0012443D01*
X0312617Y0011798D01*
X0312617Y0006950D01*
X0313262Y0006306D01*
X0318110Y0006306D01*
X0318623Y0006819D01*
X0318816Y0006484D01*
X0319096Y0006205D01*
X0319438Y0006008D01*
X0319819Y0005906D01*
X0321501Y0005906D01*
X0321501Y0008890D01*
X0322469Y0008890D01*
X0322469Y0005906D01*
X0324151Y0005906D01*
X0324533Y0006008D01*
X0324875Y0006205D01*
X0325154Y0006484D01*
X0325351Y0006827D01*
X0325454Y0007208D01*
X0325454Y0008890D01*
X0322469Y0008890D01*
X0322469Y0009858D01*
X0321501Y0009858D01*
X0321501Y0012843D01*
X0319819Y0012843D01*
X0319438Y0012740D01*
X0319096Y0012543D01*
X0318816Y0012264D01*
X0318623Y0011929D01*
X0318110Y0012443D01*
X0317251Y0012443D01*
X0317251Y0022054D01*
X0318110Y0022054D01*
X0318623Y0022567D01*
X0318816Y0022233D01*
X0319096Y0021953D01*
X0319438Y0021756D01*
X0319819Y0021654D01*
X0321501Y0021654D01*
X0321501Y0024638D01*
X0322469Y0024638D01*
X0322469Y0021654D01*
X0324151Y0021654D01*
X0324533Y0021756D01*
X0324875Y0021953D01*
X0325154Y0022233D01*
X0325351Y0022575D01*
X0325454Y0022956D01*
X0325454Y0024638D01*
X0322469Y0024638D01*
X0322469Y0025606D01*
X0321501Y0025606D01*
X0321501Y0028591D01*
X0319819Y0028591D01*
X0319438Y0028488D01*
X0319096Y0028291D01*
X0318816Y0028012D01*
X0318623Y0027677D01*
X0318110Y0028191D01*
X0317251Y0028191D01*
X0317251Y0044691D01*
X0318504Y0044691D01*
X0318553Y0044740D01*
X0318702Y0044591D01*
X0319044Y0044394D01*
X0319425Y0044291D01*
X0321682Y0044291D01*
X0321682Y0048244D01*
X0322682Y0048244D01*
X0322682Y0049244D01*
X0326241Y0049244D01*
X0326241Y0051894D01*
X0326139Y0052276D01*
X0325941Y0052618D01*
X0325662Y0052897D01*
X0325320Y0053095D01*
X0324938Y0053197D01*
X0322682Y0053197D01*
X0322682Y0049244D01*
X0321682Y0049244D01*
X0321682Y0053197D01*
X0319425Y0053197D01*
X0319044Y0053095D01*
X0318702Y0052897D01*
X0318553Y0052748D01*
X0318504Y0052797D01*
X0316651Y0052797D01*
X0316651Y0076384D01*
X0317519Y0076384D01*
X0318164Y0077029D01*
X0318164Y0083452D01*
X0317519Y0084096D01*
X0312300Y0084096D01*
X0312304Y0084100D01*
X0320071Y0084100D01*
X0320113Y0084058D01*
X0319507Y0083452D01*
X0319507Y0077029D01*
X0320151Y0076384D01*
X0325393Y0076384D01*
X0326038Y0077029D01*
X0326038Y0079307D01*
X0326251Y0079520D01*
X0330831Y0084100D01*
X0340599Y0084100D01*
X0339951Y0083453D01*
X0339951Y0081547D01*
X0341298Y0080200D01*
X0342571Y0080200D01*
X0342651Y0080120D01*
X0343129Y0079642D01*
X0343129Y0077029D01*
X0343773Y0076384D01*
X0345051Y0076384D01*
X0345051Y0052797D01*
X0343970Y0052797D01*
X0343326Y0052152D01*
X0343326Y0045336D01*
X0343970Y0044691D01*
X0345651Y0044691D01*
X0345651Y0028191D01*
X0344758Y0028191D01*
X0344113Y0027546D01*
X0344113Y0022698D01*
X0344758Y0022054D01*
X0345651Y0022054D01*
X0345651Y0012443D01*
X0344758Y0012443D01*
X0344113Y0011798D01*
X0344113Y0006950D01*
X0344758Y0006306D01*
X0349606Y0006306D01*
X0350119Y0006819D01*
X0350312Y0006484D01*
X0350592Y0006205D01*
X0350934Y0006008D01*
X0351315Y0005906D01*
X0352997Y0005906D01*
X0352997Y0008890D01*
X0353965Y0008890D01*
X0353965Y0005906D01*
X0355647Y0005906D01*
X0356029Y0006008D01*
X0356371Y0006205D01*
X0356650Y0006484D01*
X0356847Y0006827D01*
X0356950Y0007208D01*
X0356950Y0008890D01*
X0353965Y0008890D01*
X0353965Y0009858D01*
X0352997Y0009858D01*
X0352997Y0012843D01*
X0351315Y0012843D01*
X0350934Y0012740D01*
X0350592Y0012543D01*
X0350312Y0012264D01*
X0350119Y0011929D01*
X0349606Y0012443D01*
X0348451Y0012443D01*
X0348451Y0022054D01*
X0349606Y0022054D01*
X0350119Y0022567D01*
X0350312Y0022233D01*
X0350592Y0021953D01*
X0350934Y0021756D01*
X0351315Y0021654D01*
X0352997Y0021654D01*
X0352997Y0024638D01*
X0353965Y0024638D01*
X0353965Y0021654D01*
X0355647Y0021654D01*
X0356029Y0021756D01*
X0356371Y0021953D01*
X0356650Y0022233D01*
X0356847Y0022575D01*
X0356950Y0022956D01*
X0356950Y0024638D01*
X0353965Y0024638D01*
X0353965Y0025606D01*
X0352997Y0025606D01*
X0352997Y0028591D01*
X0351315Y0028591D01*
X0350934Y0028488D01*
X0350592Y0028291D01*
X0350312Y0028012D01*
X0350119Y0027677D01*
X0349606Y0028191D01*
X0348451Y0028191D01*
X0348451Y0044691D01*
X0350000Y0044691D01*
X0350049Y0044740D01*
X0350198Y0044591D01*
X0350540Y0044394D01*
X0350921Y0044291D01*
X0353178Y0044291D01*
X0353178Y0048244D01*
X0354178Y0048244D01*
X0354178Y0044291D01*
X0356434Y0044291D01*
X0356816Y0044394D01*
X0357158Y0044591D01*
X0357437Y0044870D01*
X0357635Y0045212D01*
X0357737Y0045594D01*
X0357737Y0048244D01*
X0354178Y0048244D01*
X0354178Y0049244D01*
X0357737Y0049244D01*
X0357737Y0051894D01*
X0357635Y0052276D01*
X0357437Y0052618D01*
X0357158Y0052897D01*
X0356816Y0053095D01*
X0356434Y0053197D01*
X0354178Y0053197D01*
X0354178Y0049244D01*
X0353178Y0049244D01*
X0353178Y0053197D01*
X0350921Y0053197D01*
X0350540Y0053095D01*
X0350198Y0052897D01*
X0350049Y0052748D01*
X0350000Y0052797D01*
X0347851Y0052797D01*
X0347851Y0076384D01*
X0349015Y0076384D01*
X0349660Y0077029D01*
X0349660Y0083452D01*
X0349015Y0084096D01*
X0343908Y0084096D01*
X0343904Y0084100D01*
X0351871Y0084100D01*
X0351875Y0084096D01*
X0351648Y0084096D01*
X0351003Y0083452D01*
X0351003Y0077029D01*
X0351648Y0076384D01*
X0356889Y0076384D01*
X0357534Y0077029D01*
X0357534Y0078700D01*
X0382499Y0078700D01*
X0382499Y0077029D01*
X0383144Y0076384D01*
X0388386Y0076384D01*
X0389030Y0077029D01*
X0389030Y0083452D01*
X0388386Y0084096D01*
X0383144Y0084096D01*
X0382499Y0083452D01*
X0382499Y0081500D01*
X0357534Y0081500D01*
X0357534Y0083452D01*
X0356889Y0084096D01*
X0355651Y0084096D01*
X0355651Y0084280D01*
X0353851Y0086080D01*
X0353031Y0086900D01*
X0329671Y0086900D01*
X0326038Y0083266D01*
X0326038Y0083452D01*
X0325393Y0084096D01*
X0324035Y0084096D01*
X0323631Y0084500D01*
X0321231Y0086900D01*
X0313351Y0086900D01*
X0313351Y0087053D01*
X0312004Y0088400D01*
X0310098Y0088400D01*
X0308751Y0087053D01*
X0308751Y0085147D01*
X0308751Y0086373D02*
X0275851Y0086373D01*
X0275851Y0087372D02*
X0309070Y0087372D01*
X0310069Y0088370D02*
X0275851Y0088370D01*
X0275851Y0089369D02*
X0386202Y0089369D01*
X0385204Y0090368D02*
X0275851Y0090368D01*
X0275851Y0091366D02*
X0384205Y0091366D01*
X0383207Y0092365D02*
X0275851Y0092365D01*
X0275851Y0093363D02*
X0382208Y0093363D01*
X0381210Y0094362D02*
X0275851Y0094362D01*
X0275851Y0095360D02*
X0380211Y0095360D01*
X0379213Y0096359D02*
X0275851Y0096359D01*
X0275851Y0097357D02*
X0378214Y0097357D01*
X0377216Y0098356D02*
X0275851Y0098356D01*
X0275851Y0099354D02*
X0376217Y0099354D01*
X0375219Y0100353D02*
X0275851Y0100353D01*
X0276082Y0101351D02*
X0374220Y0101351D01*
X0373222Y0102350D02*
X0277081Y0102350D01*
X0278079Y0103348D02*
X0372223Y0103348D01*
X0371225Y0104347D02*
X0279078Y0104347D01*
X0280076Y0105345D02*
X0370226Y0105345D01*
X0369228Y0106344D02*
X0281075Y0106344D01*
X0282073Y0107342D02*
X0368229Y0107342D01*
X0367231Y0108341D02*
X0283072Y0108341D01*
X0284070Y0109339D02*
X0284559Y0109339D01*
X0282108Y0111336D02*
X0281867Y0111336D01*
X0281109Y0110338D02*
X0280869Y0110338D01*
X0280111Y0109339D02*
X0279870Y0109339D01*
X0279112Y0108341D02*
X0278872Y0108341D01*
X0278113Y0107342D02*
X0277873Y0107342D01*
X0277115Y0106344D02*
X0276875Y0106344D01*
X0276116Y0105345D02*
X0274076Y0105345D01*
X0273078Y0104347D02*
X0275118Y0104347D01*
X0274119Y0103348D02*
X0272079Y0103348D01*
X0271081Y0102350D02*
X0273121Y0102350D01*
X0273051Y0101351D02*
X0270082Y0101351D01*
X0269084Y0100353D02*
X0273051Y0100353D01*
X0273051Y0099354D02*
X0268085Y0099354D01*
X0267087Y0098356D02*
X0273051Y0098356D01*
X0273051Y0097357D02*
X0266088Y0097357D01*
X0265090Y0096359D02*
X0273051Y0096359D01*
X0273051Y0095360D02*
X0264091Y0095360D01*
X0263093Y0094362D02*
X0273051Y0094362D01*
X0273051Y0093363D02*
X0262094Y0093363D01*
X0261096Y0092365D02*
X0273051Y0092365D01*
X0273051Y0091366D02*
X0260097Y0091366D01*
X0259099Y0090368D02*
X0273051Y0090368D01*
X0273051Y0089369D02*
X0258100Y0089369D01*
X0257102Y0088370D02*
X0273051Y0088370D01*
X0273051Y0087372D02*
X0256103Y0087372D01*
X0255105Y0086373D02*
X0273051Y0086373D01*
X0273051Y0085375D02*
X0254106Y0085375D01*
X0253108Y0084376D02*
X0273051Y0084376D01*
X0273051Y0083378D02*
X0252109Y0083378D01*
X0251110Y0082379D02*
X0273051Y0082379D01*
X0273051Y0081381D02*
X0250112Y0081381D01*
X0249312Y0080382D02*
X0249113Y0080382D01*
X0248838Y0079384D02*
X0248115Y0079384D01*
X0248838Y0078385D02*
X0247116Y0078385D01*
X0246958Y0077387D02*
X0246118Y0077387D01*
X0245960Y0076388D02*
X0245119Y0076388D01*
X0244961Y0075390D02*
X0244121Y0075390D01*
X0243963Y0074391D02*
X0243122Y0074391D01*
X0242964Y0073393D02*
X0242124Y0073393D01*
X0241966Y0072394D02*
X0241125Y0072394D01*
X0240967Y0071396D02*
X0240127Y0071396D01*
X0240871Y0071300D02*
X0240871Y0071300D01*
X0240051Y0070397D02*
X0239128Y0070397D01*
X0240051Y0069399D02*
X0238130Y0069399D01*
X0237131Y0068400D02*
X0240051Y0068400D01*
X0240051Y0067402D02*
X0236133Y0067402D01*
X0246924Y0073393D02*
X0248930Y0073393D01*
X0248838Y0074391D02*
X0247922Y0074391D01*
X0252478Y0071712D02*
X0252280Y0071370D01*
X0252178Y0070989D01*
X0252178Y0068520D01*
X0255162Y0068520D01*
X0255162Y0072291D01*
X0253480Y0072291D01*
X0253099Y0072189D01*
X0252757Y0071992D01*
X0252478Y0071712D01*
X0252295Y0071396D02*
X0251086Y0071396D01*
X0251235Y0070397D02*
X0252178Y0070397D01*
X0252178Y0069399D02*
X0251235Y0069399D01*
X0251235Y0068400D02*
X0255162Y0068400D01*
X0255162Y0068520D02*
X0255162Y0067551D01*
X0252178Y0067551D01*
X0252178Y0065082D01*
X0252280Y0064701D01*
X0252478Y0064359D01*
X0252757Y0064079D01*
X0253099Y0063882D01*
X0253480Y0063780D01*
X0255162Y0063780D01*
X0255162Y0067551D01*
X0256131Y0067551D01*
X0256131Y0068520D01*
X0259115Y0068520D01*
X0259115Y0070989D01*
X0259013Y0071370D01*
X0258815Y0071712D01*
X0258536Y0071992D01*
X0258194Y0072189D01*
X0257812Y0072291D01*
X0256131Y0072291D01*
X0256131Y0068520D01*
X0255162Y0068520D01*
X0255162Y0069399D02*
X0256131Y0069399D01*
X0256131Y0070397D02*
X0255162Y0070397D01*
X0255162Y0071396D02*
X0256131Y0071396D01*
X0254882Y0073393D02*
X0270584Y0073393D01*
X0270491Y0074391D02*
X0254975Y0074391D01*
X0254975Y0075390D02*
X0270491Y0075390D01*
X0270491Y0076388D02*
X0254975Y0076388D01*
X0254975Y0077387D02*
X0270491Y0077387D01*
X0270491Y0078385D02*
X0254975Y0078385D01*
X0254975Y0079384D02*
X0270491Y0079384D01*
X0270965Y0080382D02*
X0254501Y0080382D01*
X0258998Y0071396D02*
X0266900Y0071396D01*
X0266751Y0070397D02*
X0259115Y0070397D01*
X0259115Y0069399D02*
X0266751Y0069399D01*
X0266751Y0068400D02*
X0256131Y0068400D01*
X0256131Y0067551D02*
X0259115Y0067551D01*
X0259115Y0065082D01*
X0259013Y0064701D01*
X0258815Y0064359D01*
X0258536Y0064079D01*
X0258194Y0063882D01*
X0257812Y0063780D01*
X0256131Y0063780D01*
X0256131Y0067551D01*
X0256131Y0067402D02*
X0255162Y0067402D01*
X0255162Y0066403D02*
X0256131Y0066403D01*
X0256131Y0065405D02*
X0255162Y0065405D01*
X0255162Y0064406D02*
X0256131Y0064406D01*
X0258843Y0064406D02*
X0267169Y0064406D01*
X0267179Y0063408D02*
X0249451Y0063408D01*
X0249451Y0062409D02*
X0266180Y0062409D01*
X0265182Y0061411D02*
X0249451Y0061411D01*
X0249451Y0060412D02*
X0264183Y0060412D01*
X0263185Y0059414D02*
X0249451Y0059414D01*
X0249451Y0058415D02*
X0262186Y0058415D01*
X0261188Y0057417D02*
X0249451Y0057417D01*
X0249451Y0056418D02*
X0260451Y0056418D01*
X0260451Y0055420D02*
X0249451Y0055420D01*
X0249451Y0054421D02*
X0260451Y0054421D01*
X0260451Y0053423D02*
X0249451Y0053423D01*
X0249580Y0052424D02*
X0260451Y0052424D01*
X0257953Y0051426D02*
X0250351Y0051426D01*
X0250351Y0050427D02*
X0257893Y0050427D01*
X0257893Y0049429D02*
X0250032Y0049429D01*
X0249301Y0048430D02*
X0257893Y0048430D01*
X0257893Y0047432D02*
X0250300Y0047432D01*
X0251298Y0046433D02*
X0257893Y0046433D01*
X0257893Y0043437D02*
X0254294Y0043437D01*
X0253295Y0044436D02*
X0276651Y0044436D01*
X0276651Y0045434D02*
X0252297Y0045434D01*
X0250334Y0043437D02*
X0243951Y0043437D01*
X0243951Y0042439D02*
X0251332Y0042439D01*
X0252331Y0041440D02*
X0244891Y0041440D01*
X0245889Y0040442D02*
X0253329Y0040442D01*
X0257893Y0039443D02*
X0246888Y0039443D01*
X0247886Y0038445D02*
X0257893Y0038445D01*
X0265605Y0041440D02*
X0277531Y0041440D01*
X0276651Y0042439D02*
X0265605Y0042439D01*
X0265605Y0043437D02*
X0276651Y0043437D01*
X0279494Y0043437D02*
X0279546Y0043437D01*
X0279451Y0044436D02*
X0314451Y0044436D01*
X0314451Y0043437D02*
X0287258Y0043437D01*
X0287258Y0042439D02*
X0314451Y0042439D01*
X0314451Y0041440D02*
X0287258Y0041440D01*
X0287258Y0040442D02*
X0314451Y0040442D01*
X0314451Y0039443D02*
X0287258Y0039443D01*
X0287258Y0038445D02*
X0314451Y0038445D01*
X0314451Y0037446D02*
X0270485Y0037446D01*
X0271483Y0036448D02*
X0314451Y0036448D01*
X0314451Y0035449D02*
X0272482Y0035449D01*
X0273480Y0034451D02*
X0314451Y0034451D01*
X0314451Y0033452D02*
X0274479Y0033452D01*
X0275477Y0032454D02*
X0314451Y0032454D01*
X0314451Y0031455D02*
X0276476Y0031455D01*
X0277474Y0030457D02*
X0314451Y0030457D01*
X0314451Y0029458D02*
X0278473Y0029458D01*
X0279471Y0028460D02*
X0314451Y0028460D01*
X0312617Y0027461D02*
X0280470Y0027461D01*
X0280651Y0026463D02*
X0312617Y0026463D01*
X0312617Y0025464D02*
X0280651Y0025464D01*
X0282268Y0024466D02*
X0283972Y0024466D01*
X0283974Y0024468D02*
X0283776Y0024126D01*
X0283674Y0023745D01*
X0283674Y0021685D01*
X0287036Y0021685D01*
X0287036Y0020685D01*
X0283674Y0020685D01*
X0283674Y0018625D01*
X0283776Y0018244D01*
X0283974Y0017902D01*
X0284253Y0017623D01*
X0284595Y0017425D01*
X0284977Y0017323D01*
X0287036Y0017323D01*
X0287036Y0020685D01*
X0288036Y0020685D01*
X0288036Y0017323D01*
X0290096Y0017323D01*
X0290477Y0017425D01*
X0290819Y0017623D01*
X0291099Y0017902D01*
X0291296Y0018244D01*
X0291398Y0018625D01*
X0291398Y0020685D01*
X0288036Y0020685D01*
X0288036Y0021685D01*
X0287036Y0021685D01*
X0287036Y0025047D01*
X0284977Y0025047D01*
X0284595Y0024945D01*
X0284253Y0024748D01*
X0283974Y0024468D01*
X0283674Y0023467D02*
X0282731Y0023467D01*
X0282731Y0022469D02*
X0283674Y0022469D01*
X0282731Y0021470D02*
X0287036Y0021470D01*
X0287036Y0020472D02*
X0288036Y0020472D01*
X0288036Y0021470D02*
X0314451Y0021470D01*
X0314451Y0020472D02*
X0291398Y0020472D01*
X0291398Y0019473D02*
X0314451Y0019473D01*
X0314451Y0018475D02*
X0291358Y0018475D01*
X0290566Y0017476D02*
X0314451Y0017476D01*
X0314451Y0016478D02*
X0259409Y0016478D01*
X0261190Y0017476D02*
X0284506Y0017476D01*
X0283714Y0018475D02*
X0282731Y0018475D01*
X0282731Y0019473D02*
X0283674Y0019473D01*
X0283674Y0020472D02*
X0282731Y0020472D01*
X0287036Y0019473D02*
X0288036Y0019473D01*
X0288036Y0018475D02*
X0287036Y0018475D01*
X0287036Y0017476D02*
X0288036Y0017476D01*
X0288036Y0021685D02*
X0291398Y0021685D01*
X0291398Y0023745D01*
X0291296Y0024126D01*
X0291099Y0024468D01*
X0290819Y0024748D01*
X0290477Y0024945D01*
X0290096Y0025047D01*
X0288036Y0025047D01*
X0288036Y0021685D01*
X0288036Y0022469D02*
X0287036Y0022469D01*
X0287036Y0023467D02*
X0288036Y0023467D01*
X0288036Y0024466D02*
X0287036Y0024466D01*
X0291100Y0024466D02*
X0312617Y0024466D01*
X0312617Y0023467D02*
X0291398Y0023467D01*
X0291398Y0022469D02*
X0312846Y0022469D01*
X0317251Y0021470D02*
X0345651Y0021470D01*
X0345651Y0020472D02*
X0317251Y0020472D01*
X0317251Y0019473D02*
X0345651Y0019473D01*
X0345651Y0018475D02*
X0317251Y0018475D01*
X0317251Y0017476D02*
X0345651Y0017476D01*
X0345651Y0016478D02*
X0317251Y0016478D01*
X0317251Y0015479D02*
X0345651Y0015479D01*
X0345651Y0014481D02*
X0317251Y0014481D01*
X0317251Y0013482D02*
X0345651Y0013482D01*
X0345651Y0012484D02*
X0324934Y0012484D01*
X0324875Y0012543D02*
X0324533Y0012740D01*
X0324151Y0012843D01*
X0322469Y0012842D01*
X0322469Y0009858D01*
X0325454Y0009858D01*
X0325454Y0011540D01*
X0325351Y0011921D01*
X0325154Y0012264D01*
X0324875Y0012543D01*
X0325454Y0011485D02*
X0344113Y0011485D01*
X0344113Y0010487D02*
X0325454Y0010487D01*
X0325454Y0008490D02*
X0344113Y0008490D01*
X0344113Y0009488D02*
X0322469Y0009488D01*
X0322469Y0008490D02*
X0321501Y0008490D01*
X0321501Y0007491D02*
X0322469Y0007491D01*
X0322469Y0006493D02*
X0321501Y0006493D01*
X0318812Y0006493D02*
X0318297Y0006493D01*
X0313075Y0006493D02*
X0215624Y0006493D01*
X0216581Y0007491D02*
X0312617Y0007491D01*
X0312617Y0008490D02*
X0217158Y0008490D01*
X0217734Y0009488D02*
X0312617Y0009488D01*
X0312617Y0010487D02*
X0218311Y0010487D01*
X0218666Y0011485D02*
X0312617Y0011485D01*
X0314451Y0012484D02*
X0218842Y0012484D01*
X0219018Y0013482D02*
X0314451Y0013482D01*
X0314451Y0014481D02*
X0219195Y0014481D01*
X0219300Y0015479D02*
X0314451Y0015479D01*
X0317251Y0012484D02*
X0319036Y0012484D01*
X0321501Y0012484D02*
X0322469Y0012484D01*
X0322469Y0011485D02*
X0321501Y0011485D01*
X0321501Y0010487D02*
X0322469Y0010487D01*
X0325454Y0007491D02*
X0344113Y0007491D01*
X0344571Y0006493D02*
X0325158Y0006493D01*
X0348451Y0012484D02*
X0350532Y0012484D01*
X0348451Y0013482D02*
X0397251Y0013482D01*
X0397251Y0012484D02*
X0395406Y0012484D01*
X0395347Y0012543D02*
X0395005Y0012740D01*
X0394623Y0012843D01*
X0392942Y0012842D01*
X0392942Y0009858D01*
X0391973Y0009858D01*
X0391973Y0008890D01*
X0388989Y0008890D01*
X0388989Y0007208D01*
X0389091Y0006827D01*
X0389289Y0006484D01*
X0389568Y0006205D01*
X0389910Y0006008D01*
X0390291Y0005906D01*
X0391973Y0005906D01*
X0391973Y0008890D01*
X0392942Y0008890D01*
X0392942Y0005906D01*
X0394623Y0005906D01*
X0395005Y0006008D01*
X0395347Y0006205D01*
X0395626Y0006484D01*
X0395819Y0006819D01*
X0396333Y0006306D01*
X0401181Y0006306D01*
X0401825Y0006950D01*
X0401825Y0011798D01*
X0401181Y0012443D01*
X0400051Y0012443D01*
X0400051Y0022054D01*
X0401181Y0022054D01*
X0401825Y0022698D01*
X0401825Y0027546D01*
X0401181Y0028191D01*
X0400922Y0028191D01*
X0410851Y0038120D01*
X0410851Y0055321D01*
X0412598Y0055321D01*
X0413243Y0055966D01*
X0413243Y0061208D01*
X0412598Y0061852D01*
X0406175Y0061852D01*
X0405531Y0061208D01*
X0405531Y0055966D01*
X0406175Y0055321D01*
X0408051Y0055321D01*
X0408051Y0039280D01*
X0398671Y0029900D01*
X0397851Y0029080D01*
X0397851Y0028191D01*
X0396333Y0028191D01*
X0395819Y0027677D01*
X0395626Y0028012D01*
X0395347Y0028291D01*
X0395005Y0028488D01*
X0394623Y0028591D01*
X0392942Y0028591D01*
X0392942Y0025606D01*
X0391973Y0025606D01*
X0391973Y0024638D01*
X0388989Y0024638D01*
X0388989Y0022956D01*
X0389091Y0022575D01*
X0389289Y0022233D01*
X0389568Y0021953D01*
X0389910Y0021756D01*
X0390291Y0021654D01*
X0391973Y0021654D01*
X0391973Y0024638D01*
X0392942Y0024638D01*
X0392942Y0021654D01*
X0394623Y0021654D01*
X0395005Y0021756D01*
X0395347Y0021953D01*
X0395626Y0022233D01*
X0395819Y0022567D01*
X0396333Y0022054D01*
X0397251Y0022054D01*
X0397251Y0012443D01*
X0396333Y0012443D01*
X0395819Y0011929D01*
X0395626Y0012264D01*
X0395347Y0012543D01*
X0392942Y0012484D02*
X0391973Y0012484D01*
X0391973Y0012843D02*
X0390291Y0012843D01*
X0389910Y0012740D01*
X0389568Y0012543D01*
X0389289Y0012264D01*
X0389091Y0011921D01*
X0388989Y0011540D01*
X0388989Y0009858D01*
X0391973Y0009858D01*
X0391973Y0012843D01*
X0391973Y0011485D02*
X0392942Y0011485D01*
X0392942Y0010487D02*
X0391973Y0010487D01*
X0391973Y0009488D02*
X0353965Y0009488D01*
X0353965Y0009858D02*
X0356950Y0009858D01*
X0356950Y0011540D01*
X0356847Y0011921D01*
X0356650Y0012264D01*
X0356371Y0012543D01*
X0356029Y0012740D01*
X0355647Y0012843D01*
X0353965Y0012842D01*
X0353965Y0009858D01*
X0353965Y0010487D02*
X0352997Y0010487D01*
X0352997Y0011485D02*
X0353965Y0011485D01*
X0353965Y0012484D02*
X0352997Y0012484D01*
X0356430Y0012484D02*
X0389509Y0012484D01*
X0388989Y0011485D02*
X0356950Y0011485D01*
X0356950Y0010487D02*
X0388989Y0010487D01*
X0388989Y0008490D02*
X0356950Y0008490D01*
X0356950Y0007491D02*
X0388989Y0007491D01*
X0389284Y0006493D02*
X0356655Y0006493D01*
X0353965Y0006493D02*
X0352997Y0006493D01*
X0352997Y0007491D02*
X0353965Y0007491D01*
X0353965Y0008490D02*
X0352997Y0008490D01*
X0350308Y0006493D02*
X0349793Y0006493D01*
X0348451Y0014481D02*
X0397251Y0014481D01*
X0397251Y0015479D02*
X0348451Y0015479D01*
X0348451Y0016478D02*
X0397251Y0016478D01*
X0397251Y0017476D02*
X0348451Y0017476D01*
X0348451Y0018475D02*
X0397251Y0018475D01*
X0397251Y0019473D02*
X0348451Y0019473D01*
X0348451Y0020472D02*
X0397251Y0020472D01*
X0397251Y0021470D02*
X0348451Y0021470D01*
X0350021Y0022469D02*
X0350176Y0022469D01*
X0352997Y0022469D02*
X0353965Y0022469D01*
X0353965Y0023467D02*
X0352997Y0023467D01*
X0352997Y0024466D02*
X0353965Y0024466D01*
X0353965Y0025464D02*
X0391973Y0025464D01*
X0391973Y0025606D02*
X0388989Y0025606D01*
X0388989Y0027288D01*
X0389091Y0027670D01*
X0389289Y0028012D01*
X0389568Y0028291D01*
X0389910Y0028488D01*
X0390291Y0028591D01*
X0391973Y0028591D01*
X0391973Y0025606D01*
X0391973Y0026463D02*
X0392942Y0026463D01*
X0392942Y0027461D02*
X0391973Y0027461D01*
X0391973Y0028460D02*
X0392942Y0028460D01*
X0395054Y0028460D02*
X0397851Y0028460D01*
X0398230Y0029458D02*
X0348451Y0029458D01*
X0348451Y0028460D02*
X0350884Y0028460D01*
X0352997Y0028460D02*
X0353965Y0028460D01*
X0353965Y0028591D02*
X0353965Y0025606D01*
X0356950Y0025606D01*
X0356950Y0027288D01*
X0356847Y0027670D01*
X0356650Y0028012D01*
X0356371Y0028291D01*
X0356029Y0028488D01*
X0355647Y0028591D01*
X0353965Y0028591D01*
X0353965Y0027461D02*
X0352997Y0027461D01*
X0352997Y0026463D02*
X0353965Y0026463D01*
X0356078Y0028460D02*
X0389861Y0028460D01*
X0389035Y0027461D02*
X0356903Y0027461D01*
X0356950Y0026463D02*
X0388989Y0026463D01*
X0388989Y0024466D02*
X0356950Y0024466D01*
X0356950Y0023467D02*
X0388989Y0023467D01*
X0389152Y0022469D02*
X0356786Y0022469D01*
X0348451Y0030457D02*
X0399228Y0030457D01*
X0400227Y0031455D02*
X0348451Y0031455D01*
X0348451Y0032454D02*
X0401225Y0032454D01*
X0402224Y0033452D02*
X0348451Y0033452D01*
X0348451Y0034451D02*
X0403222Y0034451D01*
X0404221Y0035449D02*
X0348451Y0035449D01*
X0348451Y0036448D02*
X0405219Y0036448D01*
X0406218Y0037446D02*
X0348451Y0037446D01*
X0348451Y0038445D02*
X0407216Y0038445D01*
X0408051Y0039443D02*
X0348451Y0039443D01*
X0348451Y0040442D02*
X0408051Y0040442D01*
X0408051Y0041440D02*
X0348451Y0041440D01*
X0348451Y0042439D02*
X0408051Y0042439D01*
X0408051Y0043437D02*
X0348451Y0043437D01*
X0348451Y0044436D02*
X0350466Y0044436D01*
X0353178Y0044436D02*
X0354178Y0044436D01*
X0354178Y0045434D02*
X0353178Y0045434D01*
X0353178Y0046433D02*
X0354178Y0046433D01*
X0354178Y0047432D02*
X0353178Y0047432D01*
X0354178Y0048430D02*
X0385855Y0048430D01*
X0385855Y0049244D02*
X0382296Y0049244D01*
X0382296Y0051894D01*
X0382398Y0052276D01*
X0382596Y0052618D01*
X0382875Y0052897D01*
X0383217Y0053095D01*
X0383599Y0053197D01*
X0385855Y0053197D01*
X0385855Y0049244D01*
X0385855Y0049429D02*
X0386855Y0049429D01*
X0386855Y0050427D02*
X0385855Y0050427D01*
X0385855Y0051426D02*
X0386855Y0051426D01*
X0386855Y0052424D02*
X0385855Y0052424D01*
X0382484Y0052424D02*
X0357549Y0052424D01*
X0357737Y0051426D02*
X0382296Y0051426D01*
X0382296Y0050427D02*
X0357737Y0050427D01*
X0357737Y0049429D02*
X0382296Y0049429D01*
X0382296Y0047432D02*
X0357737Y0047432D01*
X0357737Y0046433D02*
X0382296Y0046433D01*
X0382339Y0045434D02*
X0357694Y0045434D01*
X0356889Y0044436D02*
X0383144Y0044436D01*
X0385855Y0044436D02*
X0386855Y0044436D01*
X0386855Y0045434D02*
X0385855Y0045434D01*
X0385855Y0046433D02*
X0386855Y0046433D01*
X0386855Y0047432D02*
X0385855Y0047432D01*
X0389567Y0044436D02*
X0408051Y0044436D01*
X0408051Y0045434D02*
X0396707Y0045434D01*
X0396707Y0046433D02*
X0408051Y0046433D01*
X0408051Y0047432D02*
X0396707Y0047432D01*
X0396707Y0048430D02*
X0408051Y0048430D01*
X0408051Y0049429D02*
X0396707Y0049429D01*
X0396707Y0050427D02*
X0408051Y0050427D01*
X0408051Y0051426D02*
X0396707Y0051426D01*
X0396435Y0052424D02*
X0408051Y0052424D01*
X0408051Y0053423D02*
X0394651Y0053423D01*
X0394651Y0054421D02*
X0408051Y0054421D01*
X0406077Y0055420D02*
X0395151Y0055420D01*
X0396149Y0056418D02*
X0405531Y0056418D01*
X0405531Y0057417D02*
X0397148Y0057417D01*
X0398146Y0058415D02*
X0405531Y0058415D01*
X0405531Y0059414D02*
X0399145Y0059414D01*
X0400143Y0060412D02*
X0405531Y0060412D01*
X0405734Y0061411D02*
X0401142Y0061411D01*
X0402140Y0062409D02*
X0447257Y0062409D01*
X0447257Y0061411D02*
X0413039Y0061411D01*
X0413243Y0060412D02*
X0447257Y0060412D01*
X0447257Y0059414D02*
X0413243Y0059414D01*
X0413243Y0058415D02*
X0447257Y0058415D01*
X0447257Y0057417D02*
X0413243Y0057417D01*
X0413243Y0056418D02*
X0447257Y0056418D01*
X0447257Y0055420D02*
X0412697Y0055420D01*
X0410851Y0054421D02*
X0447257Y0054421D01*
X0447257Y0053423D02*
X0410851Y0053423D01*
X0410851Y0052424D02*
X0447257Y0052424D01*
X0447257Y0051426D02*
X0410851Y0051426D01*
X0410851Y0050427D02*
X0447257Y0050427D01*
X0447257Y0049429D02*
X0410851Y0049429D01*
X0410851Y0048430D02*
X0447257Y0048430D01*
X0447257Y0047432D02*
X0410851Y0047432D01*
X0410851Y0046433D02*
X0447257Y0046433D01*
X0447257Y0045434D02*
X0410851Y0045434D01*
X0410851Y0044436D02*
X0447257Y0044436D01*
X0447257Y0043437D02*
X0410851Y0043437D01*
X0410851Y0042439D02*
X0447257Y0042439D01*
X0447257Y0041440D02*
X0410851Y0041440D01*
X0410851Y0040442D02*
X0447257Y0040442D01*
X0447257Y0039443D02*
X0410851Y0039443D01*
X0410851Y0038445D02*
X0447257Y0038445D01*
X0447257Y0037446D02*
X0410177Y0037446D01*
X0409179Y0036448D02*
X0447257Y0036448D01*
X0447257Y0035449D02*
X0408180Y0035449D01*
X0407182Y0034451D02*
X0447257Y0034451D01*
X0447257Y0033452D02*
X0406183Y0033452D01*
X0405185Y0032454D02*
X0447257Y0032454D01*
X0447257Y0031455D02*
X0404186Y0031455D01*
X0403188Y0030457D02*
X0447257Y0030457D01*
X0447257Y0029458D02*
X0402189Y0029458D01*
X0401191Y0028460D02*
X0447257Y0028460D01*
X0447257Y0027461D02*
X0438090Y0027461D01*
X0440833Y0026463D02*
X0447257Y0026463D01*
X0447257Y0025464D02*
X0442304Y0025464D01*
X0443494Y0024466D02*
X0447257Y0024466D01*
X0447257Y0023467D02*
X0444684Y0023467D01*
X0445274Y0022469D02*
X0447257Y0022469D01*
X0447257Y0021470D02*
X0445850Y0021470D01*
X0446427Y0020472D02*
X0447257Y0020472D01*
X0447257Y0019473D02*
X0446942Y0019473D01*
X0447118Y0018475D02*
X0447257Y0018475D01*
X0431865Y0027461D02*
X0401825Y0027461D01*
X0401825Y0026463D02*
X0429121Y0026463D01*
X0427650Y0025464D02*
X0401825Y0025464D01*
X0401825Y0024466D02*
X0426460Y0024466D01*
X0425270Y0023467D02*
X0401825Y0023467D01*
X0401596Y0022469D02*
X0424681Y0022469D01*
X0424104Y0021470D02*
X0400051Y0021470D01*
X0400051Y0020472D02*
X0423528Y0020472D01*
X0423012Y0019473D02*
X0400051Y0019473D01*
X0400051Y0018475D02*
X0422836Y0018475D01*
X0422660Y0017476D02*
X0400051Y0017476D01*
X0400051Y0016478D02*
X0422484Y0016478D01*
X0422308Y0015479D02*
X0400051Y0015479D01*
X0400051Y0014481D02*
X0422413Y0014481D01*
X0422589Y0013482D02*
X0400051Y0013482D01*
X0400051Y0012484D02*
X0422765Y0012484D01*
X0422941Y0011485D02*
X0401825Y0011485D01*
X0401825Y0010487D02*
X0423297Y0010487D01*
X0423874Y0009488D02*
X0401825Y0009488D01*
X0401825Y0008490D02*
X0424450Y0008490D01*
X0425027Y0007491D02*
X0401825Y0007491D01*
X0401368Y0006493D02*
X0425984Y0006493D01*
X0427174Y0005494D02*
X0214434Y0005494D01*
X0213244Y0004496D02*
X0428364Y0004496D01*
X0430768Y0003497D02*
X0210840Y0003497D01*
X0219124Y0016478D02*
X0233521Y0016478D01*
X0233069Y0017476D02*
X0218948Y0017476D01*
X0218772Y0018475D02*
X0233069Y0018475D01*
X0233069Y0019473D02*
X0218596Y0019473D01*
X0218080Y0020472D02*
X0233069Y0020472D01*
X0233069Y0021470D02*
X0217504Y0021470D01*
X0216927Y0022469D02*
X0233069Y0022469D01*
X0233069Y0023467D02*
X0216338Y0023467D01*
X0215148Y0024466D02*
X0233069Y0024466D01*
X0233093Y0025464D02*
X0213958Y0025464D01*
X0212487Y0026463D02*
X0247412Y0026463D01*
X0247469Y0026463D02*
X0248469Y0026463D01*
X0248527Y0026463D02*
X0252651Y0026463D01*
X0252651Y0027461D02*
X0209743Y0027461D01*
X0203518Y0027461D02*
X0194351Y0027461D01*
X0194351Y0026463D02*
X0200775Y0026463D01*
X0199304Y0025464D02*
X0194351Y0025464D01*
X0194351Y0024466D02*
X0198114Y0024466D01*
X0196924Y0023467D02*
X0194351Y0023467D01*
X0194351Y0022469D02*
X0196334Y0022469D01*
X0195758Y0021470D02*
X0194351Y0021470D01*
X0194351Y0020472D02*
X0195181Y0020472D01*
X0194665Y0019473D02*
X0194351Y0019473D01*
X0194351Y0018475D02*
X0194489Y0018475D01*
X0242418Y0016478D02*
X0245534Y0016478D01*
X0244183Y0017476D02*
X0242869Y0017476D01*
X0242869Y0018475D02*
X0243402Y0018475D01*
X0242953Y0019473D02*
X0242869Y0019473D01*
X0247469Y0019473D02*
X0248469Y0019473D01*
X0248469Y0018475D02*
X0247469Y0018475D01*
X0247469Y0017476D02*
X0248469Y0017476D01*
X0248469Y0016478D02*
X0247469Y0016478D01*
X0250405Y0016478D02*
X0256530Y0016478D01*
X0254748Y0017476D02*
X0251756Y0017476D01*
X0252537Y0018475D02*
X0253788Y0018475D01*
X0253375Y0019473D02*
X0252986Y0019473D01*
X0248469Y0020472D02*
X0247469Y0020472D01*
X0247469Y0022469D02*
X0248469Y0022469D01*
X0248469Y0023467D02*
X0247469Y0023467D01*
X0247469Y0024466D02*
X0248469Y0024466D01*
X0248469Y0025464D02*
X0247469Y0025464D01*
X0244842Y0025464D02*
X0242846Y0025464D01*
X0242869Y0024466D02*
X0243802Y0024466D01*
X0243184Y0023467D02*
X0242869Y0023467D01*
X0251096Y0025464D02*
X0253307Y0025464D01*
X0254306Y0024466D02*
X0252137Y0024466D01*
X0252755Y0023467D02*
X0253611Y0023467D01*
X0253197Y0022469D02*
X0253125Y0022469D01*
X0256268Y0026463D02*
X0277508Y0026463D01*
X0277851Y0025464D02*
X0260443Y0025464D01*
X0261618Y0024466D02*
X0276269Y0024466D01*
X0275806Y0023467D02*
X0262328Y0023467D01*
X0262741Y0022469D02*
X0275806Y0022469D01*
X0275806Y0021470D02*
X0262869Y0021470D01*
X0262869Y0020472D02*
X0275806Y0020472D01*
X0275806Y0019473D02*
X0262564Y0019473D01*
X0262150Y0018475D02*
X0275806Y0018475D01*
X0276510Y0027461D02*
X0255451Y0027461D01*
X0255451Y0028460D02*
X0275511Y0028460D01*
X0274513Y0029458D02*
X0255451Y0029458D01*
X0255451Y0030457D02*
X0273514Y0030457D01*
X0272516Y0031455D02*
X0254876Y0031455D01*
X0253877Y0032454D02*
X0271517Y0032454D01*
X0270519Y0033452D02*
X0252879Y0033452D01*
X0251880Y0034451D02*
X0269520Y0034451D01*
X0268522Y0035449D02*
X0250882Y0035449D01*
X0249883Y0036448D02*
X0267523Y0036448D01*
X0266525Y0037446D02*
X0248885Y0037446D01*
X0249335Y0044436D02*
X0235651Y0044436D01*
X0235651Y0045434D02*
X0248337Y0045434D01*
X0247338Y0046433D02*
X0243951Y0046433D01*
X0243951Y0047432D02*
X0246340Y0047432D01*
X0245751Y0050427D02*
X0243951Y0050427D01*
X0243891Y0051426D02*
X0245751Y0051426D01*
X0236300Y0051426D02*
X0235651Y0051426D01*
X0235651Y0050427D02*
X0236239Y0050427D01*
X0236239Y0049429D02*
X0235651Y0049429D01*
X0235651Y0048430D02*
X0236239Y0048430D01*
X0236239Y0047432D02*
X0235651Y0047432D01*
X0235651Y0046433D02*
X0236239Y0046433D01*
X0236239Y0043437D02*
X0235694Y0043437D01*
X0232851Y0044436D02*
X0204469Y0044436D01*
X0204975Y0045434D02*
X0232851Y0045434D01*
X0232851Y0046433D02*
X0204975Y0046433D01*
X0204975Y0047432D02*
X0232851Y0047432D01*
X0232851Y0048430D02*
X0204975Y0048430D01*
X0204975Y0049429D02*
X0232851Y0049429D01*
X0232851Y0050427D02*
X0204975Y0050427D01*
X0204975Y0051426D02*
X0232851Y0051426D01*
X0232851Y0052424D02*
X0204703Y0052424D01*
X0250817Y0064406D02*
X0252450Y0064406D01*
X0252178Y0065405D02*
X0251235Y0065405D01*
X0251235Y0066403D02*
X0252178Y0066403D01*
X0252178Y0067402D02*
X0251235Y0067402D01*
X0259115Y0067402D02*
X0266751Y0067402D01*
X0266751Y0066403D02*
X0259115Y0066403D01*
X0259115Y0065405D02*
X0266751Y0065405D01*
X0270140Y0062409D02*
X0278780Y0062409D01*
X0277782Y0061411D02*
X0269142Y0061411D01*
X0268143Y0060412D02*
X0276783Y0060412D01*
X0276651Y0059414D02*
X0267145Y0059414D01*
X0266146Y0058415D02*
X0276651Y0058415D01*
X0276651Y0057417D02*
X0265148Y0057417D01*
X0264149Y0056418D02*
X0276651Y0056418D01*
X0276651Y0055420D02*
X0263251Y0055420D01*
X0263251Y0054421D02*
X0276651Y0054421D01*
X0276651Y0053423D02*
X0263251Y0053423D01*
X0263251Y0052424D02*
X0276651Y0052424D01*
X0276651Y0051426D02*
X0265544Y0051426D01*
X0265605Y0050427D02*
X0276651Y0050427D01*
X0276651Y0049429D02*
X0265605Y0049429D01*
X0265605Y0048430D02*
X0276651Y0048430D01*
X0276651Y0047432D02*
X0265605Y0047432D01*
X0265605Y0046433D02*
X0276651Y0046433D01*
X0279451Y0046433D02*
X0279546Y0046433D01*
X0279546Y0047432D02*
X0279451Y0047432D01*
X0279451Y0048430D02*
X0279546Y0048430D01*
X0279546Y0049429D02*
X0279451Y0049429D01*
X0279451Y0050427D02*
X0279546Y0050427D01*
X0279607Y0051426D02*
X0279451Y0051426D01*
X0279451Y0052424D02*
X0282051Y0052424D01*
X0282051Y0053423D02*
X0279451Y0053423D01*
X0279451Y0054421D02*
X0282051Y0054421D01*
X0282051Y0055420D02*
X0279451Y0055420D01*
X0279451Y0056418D02*
X0282051Y0056418D01*
X0282051Y0057417D02*
X0279451Y0057417D01*
X0279451Y0058415D02*
X0282586Y0058415D01*
X0283585Y0059414D02*
X0279745Y0059414D01*
X0280743Y0060412D02*
X0284583Y0060412D01*
X0285582Y0061411D02*
X0281742Y0061411D01*
X0282740Y0062409D02*
X0286580Y0062409D01*
X0287579Y0063408D02*
X0283651Y0063408D01*
X0283651Y0064406D02*
X0288577Y0064406D01*
X0289576Y0065405D02*
X0283651Y0065405D01*
X0283651Y0066403D02*
X0290575Y0066403D01*
X0292537Y0064406D02*
X0313851Y0064406D01*
X0313851Y0063408D02*
X0291539Y0063408D01*
X0290540Y0062409D02*
X0313851Y0062409D01*
X0313851Y0061411D02*
X0289542Y0061411D01*
X0288543Y0060412D02*
X0313851Y0060412D01*
X0313851Y0059414D02*
X0287545Y0059414D01*
X0286546Y0058415D02*
X0313851Y0058415D01*
X0313851Y0057417D02*
X0285548Y0057417D01*
X0284851Y0056418D02*
X0313851Y0056418D01*
X0313851Y0055420D02*
X0284851Y0055420D01*
X0284851Y0054421D02*
X0313851Y0054421D01*
X0313851Y0053423D02*
X0284851Y0053423D01*
X0284851Y0052424D02*
X0312102Y0052424D01*
X0311830Y0051426D02*
X0287198Y0051426D01*
X0287258Y0050427D02*
X0311830Y0050427D01*
X0311830Y0049429D02*
X0287258Y0049429D01*
X0287258Y0048430D02*
X0311830Y0048430D01*
X0311830Y0047432D02*
X0287258Y0047432D01*
X0287258Y0046433D02*
X0311830Y0046433D01*
X0311830Y0045434D02*
X0279451Y0045434D01*
X0278529Y0040442D02*
X0267489Y0040442D01*
X0268488Y0039443D02*
X0279546Y0039443D01*
X0279546Y0038445D02*
X0269486Y0038445D01*
X0276816Y0064406D02*
X0277784Y0064406D01*
X0277784Y0065405D02*
X0276816Y0065405D01*
X0276816Y0066403D02*
X0277784Y0066403D01*
X0277784Y0067402D02*
X0276816Y0067402D01*
X0276816Y0069399D02*
X0277784Y0069399D01*
X0277784Y0070397D02*
X0276816Y0070397D01*
X0276816Y0071396D02*
X0277784Y0071396D01*
X0276536Y0073393D02*
X0279178Y0073393D01*
X0273948Y0071396D02*
X0272739Y0071396D01*
X0272888Y0070397D02*
X0273831Y0070397D01*
X0273831Y0069399D02*
X0272888Y0069399D01*
X0293536Y0065405D02*
X0313851Y0065405D01*
X0313851Y0066403D02*
X0294534Y0066403D01*
X0295533Y0067402D02*
X0313851Y0067402D01*
X0313851Y0068400D02*
X0296531Y0068400D01*
X0297530Y0069399D02*
X0313851Y0069399D01*
X0313851Y0070397D02*
X0298528Y0070397D01*
X0299527Y0071396D02*
X0313851Y0071396D01*
X0313851Y0072394D02*
X0300525Y0072394D01*
X0301524Y0073393D02*
X0313851Y0073393D01*
X0313851Y0074391D02*
X0302522Y0074391D01*
X0303521Y0075390D02*
X0313851Y0075390D01*
X0312273Y0076388D02*
X0304519Y0076388D01*
X0305518Y0077387D02*
X0311633Y0077387D01*
X0311633Y0078385D02*
X0306516Y0078385D01*
X0307515Y0079384D02*
X0309115Y0079384D01*
X0316651Y0075390D02*
X0345051Y0075390D01*
X0345051Y0074391D02*
X0316651Y0074391D01*
X0316651Y0073393D02*
X0345051Y0073393D01*
X0345051Y0072394D02*
X0316651Y0072394D01*
X0316651Y0071396D02*
X0345051Y0071396D01*
X0345051Y0070397D02*
X0316651Y0070397D01*
X0316651Y0069399D02*
X0345051Y0069399D01*
X0345051Y0068400D02*
X0316651Y0068400D01*
X0316651Y0067402D02*
X0345051Y0067402D01*
X0345051Y0066403D02*
X0316651Y0066403D01*
X0316651Y0065405D02*
X0345051Y0065405D01*
X0345051Y0064406D02*
X0316651Y0064406D01*
X0316651Y0063408D02*
X0345051Y0063408D01*
X0345051Y0062409D02*
X0316651Y0062409D01*
X0316651Y0061411D02*
X0345051Y0061411D01*
X0345051Y0060412D02*
X0316651Y0060412D01*
X0316651Y0059414D02*
X0345051Y0059414D01*
X0345051Y0058415D02*
X0316651Y0058415D01*
X0316651Y0057417D02*
X0345051Y0057417D01*
X0345051Y0056418D02*
X0316651Y0056418D01*
X0316651Y0055420D02*
X0345051Y0055420D01*
X0345051Y0054421D02*
X0316651Y0054421D01*
X0316651Y0053423D02*
X0345051Y0053423D01*
X0343598Y0052424D02*
X0326053Y0052424D01*
X0326241Y0051426D02*
X0343326Y0051426D01*
X0343326Y0050427D02*
X0326241Y0050427D01*
X0326241Y0049429D02*
X0343326Y0049429D01*
X0343326Y0048430D02*
X0322682Y0048430D01*
X0322682Y0048244D02*
X0326241Y0048244D01*
X0326241Y0045594D01*
X0326139Y0045212D01*
X0325941Y0044870D01*
X0325662Y0044591D01*
X0325320Y0044394D01*
X0324938Y0044291D01*
X0322682Y0044291D01*
X0322682Y0048244D01*
X0322682Y0047432D02*
X0321682Y0047432D01*
X0321682Y0046433D02*
X0322682Y0046433D01*
X0322682Y0045434D02*
X0321682Y0045434D01*
X0321682Y0044436D02*
X0322682Y0044436D01*
X0325393Y0044436D02*
X0345651Y0044436D01*
X0345651Y0043437D02*
X0317251Y0043437D01*
X0317251Y0042439D02*
X0345651Y0042439D01*
X0345651Y0041440D02*
X0317251Y0041440D01*
X0317251Y0040442D02*
X0345651Y0040442D01*
X0345651Y0039443D02*
X0317251Y0039443D01*
X0317251Y0038445D02*
X0345651Y0038445D01*
X0345651Y0037446D02*
X0317251Y0037446D01*
X0317251Y0036448D02*
X0345651Y0036448D01*
X0345651Y0035449D02*
X0317251Y0035449D01*
X0317251Y0034451D02*
X0345651Y0034451D01*
X0345651Y0033452D02*
X0317251Y0033452D01*
X0317251Y0032454D02*
X0345651Y0032454D01*
X0345651Y0031455D02*
X0317251Y0031455D01*
X0317251Y0030457D02*
X0345651Y0030457D01*
X0345651Y0029458D02*
X0317251Y0029458D01*
X0317251Y0028460D02*
X0319388Y0028460D01*
X0321501Y0028460D02*
X0322469Y0028460D01*
X0322469Y0028591D02*
X0322469Y0025606D01*
X0325454Y0025606D01*
X0325454Y0027288D01*
X0325351Y0027670D01*
X0325154Y0028012D01*
X0324875Y0028291D01*
X0324533Y0028488D01*
X0324151Y0028591D01*
X0322469Y0028591D01*
X0322469Y0027461D02*
X0321501Y0027461D01*
X0321501Y0026463D02*
X0322469Y0026463D01*
X0322469Y0025464D02*
X0344113Y0025464D01*
X0344113Y0024466D02*
X0325454Y0024466D01*
X0325454Y0023467D02*
X0344113Y0023467D01*
X0344343Y0022469D02*
X0325290Y0022469D01*
X0322469Y0022469D02*
X0321501Y0022469D01*
X0321501Y0023467D02*
X0322469Y0023467D01*
X0322469Y0024466D02*
X0321501Y0024466D01*
X0318680Y0022469D02*
X0318525Y0022469D01*
X0325454Y0026463D02*
X0344113Y0026463D01*
X0344113Y0027461D02*
X0325407Y0027461D01*
X0324582Y0028460D02*
X0345651Y0028460D01*
X0318970Y0044436D02*
X0317251Y0044436D01*
X0326198Y0045434D02*
X0343326Y0045434D01*
X0343326Y0046433D02*
X0326241Y0046433D01*
X0326241Y0047432D02*
X0343326Y0047432D01*
X0347851Y0053423D02*
X0391851Y0053423D01*
X0391851Y0054421D02*
X0347851Y0054421D01*
X0347851Y0055420D02*
X0391851Y0055420D01*
X0392189Y0056418D02*
X0347851Y0056418D01*
X0347851Y0057417D02*
X0393188Y0057417D01*
X0394186Y0058415D02*
X0347851Y0058415D01*
X0347851Y0059414D02*
X0395185Y0059414D01*
X0396183Y0060412D02*
X0347851Y0060412D01*
X0347851Y0061411D02*
X0397182Y0061411D01*
X0398180Y0062409D02*
X0347851Y0062409D01*
X0347851Y0063408D02*
X0399179Y0063408D01*
X0400177Y0064406D02*
X0347851Y0064406D01*
X0347851Y0065405D02*
X0401176Y0065405D01*
X0401968Y0066403D02*
X0347851Y0066403D01*
X0347851Y0067402D02*
X0400970Y0067402D01*
X0399971Y0068400D02*
X0347851Y0068400D01*
X0347851Y0069399D02*
X0398973Y0069399D01*
X0397974Y0070397D02*
X0347851Y0070397D01*
X0347851Y0071396D02*
X0396975Y0071396D01*
X0395977Y0072394D02*
X0347851Y0072394D01*
X0347851Y0073393D02*
X0394978Y0073393D01*
X0393980Y0074391D02*
X0347851Y0074391D01*
X0347851Y0075390D02*
X0393051Y0075390D01*
X0391013Y0076388D02*
X0388390Y0076388D01*
X0389030Y0077387D02*
X0390373Y0077387D01*
X0390373Y0078385D02*
X0389030Y0078385D01*
X0389030Y0079384D02*
X0390373Y0079384D01*
X0390373Y0080382D02*
X0389030Y0080382D01*
X0389030Y0081381D02*
X0390373Y0081381D01*
X0390373Y0082379D02*
X0389030Y0082379D01*
X0389030Y0083378D02*
X0390373Y0083378D01*
X0391195Y0084376D02*
X0355555Y0084376D01*
X0354556Y0085375D02*
X0390196Y0085375D01*
X0389198Y0086373D02*
X0353558Y0086373D01*
X0351003Y0083378D02*
X0349660Y0083378D01*
X0349660Y0082379D02*
X0351003Y0082379D01*
X0351003Y0081381D02*
X0349660Y0081381D01*
X0349660Y0080382D02*
X0351003Y0080382D01*
X0351003Y0079384D02*
X0349660Y0079384D01*
X0349660Y0078385D02*
X0351003Y0078385D01*
X0351003Y0077387D02*
X0349660Y0077387D01*
X0349020Y0076388D02*
X0351643Y0076388D01*
X0356894Y0076388D02*
X0383139Y0076388D01*
X0382499Y0077387D02*
X0357534Y0077387D01*
X0357534Y0078385D02*
X0382499Y0078385D01*
X0382499Y0082379D02*
X0357534Y0082379D01*
X0357534Y0083378D02*
X0382499Y0083378D01*
X0387201Y0088370D02*
X0312033Y0088370D01*
X0313032Y0087372D02*
X0388199Y0087372D01*
X0390162Y0089369D02*
X0447257Y0089369D01*
X0447257Y0088370D02*
X0391161Y0088370D01*
X0392159Y0087372D02*
X0447257Y0087372D01*
X0447257Y0086373D02*
X0393158Y0086373D01*
X0394156Y0085375D02*
X0447257Y0085375D01*
X0447257Y0084376D02*
X0394651Y0084376D01*
X0396904Y0083378D02*
X0447257Y0083378D01*
X0447257Y0082379D02*
X0396904Y0082379D01*
X0396904Y0081381D02*
X0447257Y0081381D01*
X0447257Y0080382D02*
X0396904Y0080382D01*
X0396904Y0079384D02*
X0447257Y0079384D01*
X0447257Y0078385D02*
X0396904Y0078385D01*
X0396904Y0077387D02*
X0447257Y0077387D01*
X0447257Y0076388D02*
X0396264Y0076388D01*
X0396941Y0075390D02*
X0447257Y0075390D01*
X0447257Y0074391D02*
X0397940Y0074391D01*
X0398938Y0073393D02*
X0447257Y0073393D01*
X0447257Y0072394D02*
X0399937Y0072394D01*
X0400935Y0071396D02*
X0447257Y0071396D01*
X0447257Y0070397D02*
X0401934Y0070397D01*
X0402932Y0069399D02*
X0405848Y0069399D01*
X0405531Y0068400D02*
X0403931Y0068400D01*
X0404137Y0064406D02*
X0405531Y0064406D01*
X0405963Y0063408D02*
X0403139Y0063408D01*
X0412811Y0063408D02*
X0447257Y0063408D01*
X0447257Y0064406D02*
X0413243Y0064406D01*
X0413243Y0065405D02*
X0447257Y0065405D01*
X0447257Y0066403D02*
X0413243Y0066403D01*
X0413243Y0067402D02*
X0447257Y0067402D01*
X0447257Y0068400D02*
X0413243Y0068400D01*
X0412925Y0069399D02*
X0447257Y0069399D01*
X0447257Y0090368D02*
X0389164Y0090368D01*
X0388165Y0091366D02*
X0447257Y0091366D01*
X0447257Y0092365D02*
X0387167Y0092365D01*
X0386168Y0093363D02*
X0447257Y0093363D01*
X0447257Y0094362D02*
X0385170Y0094362D01*
X0384171Y0095360D02*
X0447257Y0095360D01*
X0447257Y0096359D02*
X0383172Y0096359D01*
X0382174Y0097357D02*
X0447257Y0097357D01*
X0447257Y0098356D02*
X0381175Y0098356D01*
X0380177Y0099354D02*
X0447257Y0099354D01*
X0447257Y0100353D02*
X0379178Y0100353D01*
X0378180Y0101351D02*
X0447257Y0101351D01*
X0447257Y0102350D02*
X0377181Y0102350D01*
X0376183Y0103348D02*
X0447257Y0103348D01*
X0447257Y0104347D02*
X0375184Y0104347D01*
X0374186Y0105345D02*
X0447257Y0105345D01*
X0447257Y0106344D02*
X0373187Y0106344D01*
X0372189Y0107342D02*
X0447257Y0107342D01*
X0447257Y0108341D02*
X0371190Y0108341D01*
X0370192Y0109339D02*
X0447257Y0109339D01*
X0447257Y0110338D02*
X0369193Y0110338D01*
X0368195Y0111336D02*
X0447257Y0111336D01*
X0447257Y0112335D02*
X0288069Y0112335D01*
X0288064Y0113333D02*
X0447257Y0113333D01*
X0447257Y0114332D02*
X0289063Y0114332D01*
X0290061Y0115330D02*
X0447257Y0115330D01*
X0447257Y0116329D02*
X0291060Y0116329D01*
X0292058Y0117327D02*
X0447257Y0117327D01*
X0447257Y0118326D02*
X0293057Y0118326D01*
X0294055Y0119324D02*
X0447257Y0119324D01*
X0447257Y0120323D02*
X0295054Y0120323D01*
X0296052Y0121321D02*
X0447257Y0121321D01*
X0447257Y0122320D02*
X0297051Y0122320D01*
X0298049Y0123318D02*
X0447257Y0123318D01*
X0447257Y0124317D02*
X0299048Y0124317D01*
X0301319Y0125315D02*
X0447257Y0125315D01*
X0447257Y0126314D02*
X0302318Y0126314D01*
X0302551Y0127312D02*
X0447257Y0127312D01*
X0447257Y0128311D02*
X0400029Y0128311D01*
X0400809Y0129309D02*
X0401791Y0129309D01*
X0401791Y0130308D02*
X0400847Y0130308D01*
X0400847Y0131306D02*
X0401791Y0131306D01*
X0397682Y0131306D02*
X0396682Y0131306D01*
X0396682Y0130308D02*
X0397682Y0130308D01*
X0397682Y0129309D02*
X0396682Y0129309D01*
X0396682Y0128311D02*
X0397682Y0128311D01*
X0394335Y0128311D02*
X0302551Y0128311D01*
X0301694Y0129309D02*
X0393555Y0129309D01*
X0393517Y0130308D02*
X0290251Y0130308D01*
X0290251Y0131306D02*
X0393517Y0131306D01*
X0396682Y0134302D02*
X0397682Y0134302D01*
X0397682Y0135301D02*
X0396682Y0135301D01*
X0396682Y0136299D02*
X0397682Y0136299D01*
X0408321Y0135301D02*
X0417616Y0135301D01*
X0417539Y0134302D02*
X0408321Y0134302D01*
X0408321Y0131306D02*
X0417539Y0131306D01*
X0417539Y0130308D02*
X0408321Y0130308D01*
X0408321Y0129309D02*
X0417817Y0129309D01*
X0397682Y0142290D02*
X0396682Y0142290D01*
X0396682Y0143289D02*
X0397682Y0143289D01*
X0397682Y0144287D02*
X0396682Y0144287D01*
X0408321Y0144287D02*
X0417539Y0144287D01*
X0417539Y0145286D02*
X0408321Y0145286D01*
X0408321Y0143289D02*
X0417617Y0143289D01*
X0417539Y0148281D02*
X0408321Y0148281D01*
X0408321Y0149280D02*
X0417815Y0149280D01*
X0424186Y0149280D02*
X0426083Y0149280D01*
X0425806Y0148281D02*
X0424463Y0148281D01*
X0424463Y0147283D02*
X0425806Y0147283D01*
X0425806Y0146284D02*
X0424463Y0146284D01*
X0424463Y0145286D02*
X0425806Y0145286D01*
X0425806Y0144287D02*
X0424463Y0144287D01*
X0424384Y0143289D02*
X0425885Y0143289D01*
X0421768Y0156269D02*
X0407837Y0156269D01*
X0408321Y0157268D02*
X0417539Y0157268D01*
X0417539Y0158266D02*
X0408321Y0158266D01*
X0402274Y0156269D02*
X0400529Y0156269D01*
X0400847Y0157268D02*
X0401791Y0157268D01*
X0401791Y0158266D02*
X0400847Y0158266D01*
X0400847Y0159265D02*
X0401791Y0159265D01*
X0408321Y0162260D02*
X0417539Y0162260D01*
X0418015Y0163259D02*
X0408239Y0163259D01*
X0393608Y0163259D02*
X0290251Y0163259D01*
X0290251Y0162260D02*
X0393517Y0162260D01*
X0393517Y0161262D02*
X0290251Y0161262D01*
X0280424Y0167253D02*
X0277051Y0167253D01*
X0277051Y0168251D02*
X0281423Y0168251D01*
X0282421Y0169250D02*
X0277051Y0169250D01*
X0277051Y0170248D02*
X0283420Y0170248D01*
X0284418Y0171247D02*
X0277051Y0171247D01*
X0277051Y0172245D02*
X0285417Y0172245D01*
X0286415Y0173244D02*
X0277051Y0173244D01*
X0277051Y0174242D02*
X0287414Y0174242D01*
X0288412Y0175241D02*
X0277051Y0175241D01*
X0277051Y0176239D02*
X0289411Y0176239D01*
X0290409Y0177238D02*
X0277051Y0177238D01*
X0287379Y0170248D02*
X0393712Y0170248D01*
X0393517Y0171247D02*
X0288378Y0171247D01*
X0289377Y0172245D02*
X0393517Y0172245D01*
X0408321Y0176239D02*
X0417539Y0176239D01*
X0424463Y0176239D02*
X0425806Y0176239D01*
X0425806Y0175241D02*
X0424463Y0175241D01*
X0424463Y0174242D02*
X0425806Y0174242D01*
X0425806Y0173244D02*
X0424463Y0173244D01*
X0424463Y0172245D02*
X0425806Y0172245D01*
X0425806Y0171247D02*
X0424463Y0171247D01*
X0426749Y0166254D02*
X0447257Y0166254D01*
X0447257Y0165256D02*
X0427748Y0165256D01*
X0427951Y0164257D02*
X0447257Y0164257D01*
X0447257Y0163259D02*
X0432254Y0163259D01*
X0432731Y0162260D02*
X0447257Y0162260D01*
X0447257Y0161262D02*
X0432731Y0161262D01*
X0432731Y0160263D02*
X0447257Y0160263D01*
X0447257Y0159265D02*
X0432731Y0159265D01*
X0432731Y0158266D02*
X0447257Y0158266D01*
X0447257Y0157268D02*
X0432731Y0157268D01*
X0432731Y0171247D02*
X0447257Y0171247D01*
X0447257Y0172245D02*
X0432731Y0172245D01*
X0432731Y0173244D02*
X0447257Y0173244D01*
X0447257Y0174242D02*
X0432731Y0174242D01*
X0432731Y0175241D02*
X0447257Y0175241D01*
X0447257Y0176239D02*
X0432731Y0176239D01*
X0430651Y0177238D02*
X0447257Y0177238D01*
X0447257Y0178237D02*
X0430651Y0178237D01*
X0431366Y0179235D02*
X0447257Y0179235D01*
X0447257Y0180234D02*
X0432365Y0180234D01*
X0433363Y0181232D02*
X0447257Y0181232D01*
X0447257Y0182231D02*
X0434362Y0182231D01*
X0435360Y0183229D02*
X0447257Y0183229D01*
X0447257Y0184228D02*
X0436051Y0184228D01*
X0436051Y0185226D02*
X0447257Y0185226D01*
X0447257Y0186225D02*
X0436051Y0186225D01*
X0436051Y0187223D02*
X0447257Y0187223D01*
X0447257Y0188222D02*
X0436051Y0188222D01*
X0436051Y0189220D02*
X0447257Y0189220D01*
X0447257Y0190219D02*
X0436051Y0190219D01*
X0435914Y0191217D02*
X0447257Y0191217D01*
X0447257Y0192216D02*
X0434915Y0192216D01*
X0433917Y0193214D02*
X0447257Y0193214D01*
X0447257Y0196210D02*
X0438635Y0196210D01*
X0441351Y0197208D02*
X0447257Y0197208D01*
X0447257Y0198207D02*
X0442541Y0198207D01*
X0443731Y0199205D02*
X0447257Y0199205D01*
X0447257Y0200204D02*
X0444812Y0200204D01*
X0445388Y0201202D02*
X0447257Y0201202D01*
X0447257Y0202201D02*
X0445965Y0202201D01*
X0446541Y0203199D02*
X0447257Y0203199D01*
X0447257Y0204198D02*
X0446977Y0204198D01*
X0447153Y0205196D02*
X0447257Y0205196D01*
X0426223Y0199205D02*
X0418180Y0199205D01*
X0419179Y0200204D02*
X0425142Y0200204D01*
X0424566Y0201202D02*
X0420177Y0201202D01*
X0416304Y0201202D02*
X0415304Y0201202D01*
X0415304Y0200204D02*
X0416304Y0200204D01*
X0416304Y0199205D02*
X0415304Y0199205D01*
X0417539Y0185226D02*
X0407140Y0185226D01*
X0407056Y0184228D02*
X0418017Y0184228D01*
X0427851Y0177238D02*
X0408039Y0177238D01*
X0298808Y0129309D02*
X0290251Y0129309D01*
X0290251Y0128311D02*
X0297951Y0128311D01*
X0297951Y0127312D02*
X0290251Y0127312D01*
X0290251Y0126314D02*
X0297085Y0126314D01*
X0296087Y0125315D02*
X0290251Y0125315D01*
X0290251Y0124317D02*
X0295088Y0124317D01*
X0294090Y0123318D02*
X0290251Y0123318D01*
X0290251Y0122320D02*
X0293091Y0122320D01*
X0292093Y0121321D02*
X0290251Y0121321D01*
X0290251Y0120323D02*
X0291094Y0120323D01*
X0290096Y0119324D02*
X0289855Y0119324D01*
X0289097Y0118326D02*
X0288857Y0118326D01*
X0288099Y0117327D02*
X0287858Y0117327D01*
X0287100Y0116329D02*
X0286860Y0116329D01*
X0286102Y0115330D02*
X0285861Y0115330D01*
X0285103Y0114332D02*
X0284863Y0114332D01*
X0284105Y0113333D02*
X0283864Y0113333D01*
X0283106Y0112335D02*
X0282866Y0112335D01*
X0245109Y0110338D02*
X0223872Y0110338D01*
X0223872Y0109339D02*
X0244111Y0109339D01*
X0318164Y0083378D02*
X0319507Y0083378D01*
X0319507Y0082379D02*
X0318164Y0082379D01*
X0318164Y0081381D02*
X0319507Y0081381D01*
X0319507Y0080382D02*
X0318164Y0080382D01*
X0318164Y0079384D02*
X0319507Y0079384D01*
X0319507Y0078385D02*
X0318164Y0078385D01*
X0318164Y0077387D02*
X0319507Y0077387D01*
X0320147Y0076388D02*
X0317524Y0076388D01*
X0325398Y0076388D02*
X0343769Y0076388D01*
X0343129Y0077387D02*
X0326038Y0077387D01*
X0326038Y0078385D02*
X0343129Y0078385D01*
X0343129Y0079384D02*
X0326115Y0079384D01*
X0327113Y0080382D02*
X0341116Y0080382D01*
X0340118Y0081381D02*
X0328112Y0081381D01*
X0329110Y0082379D02*
X0339951Y0082379D01*
X0339951Y0083378D02*
X0330109Y0083378D01*
X0328146Y0085375D02*
X0322756Y0085375D01*
X0321758Y0086373D02*
X0329145Y0086373D01*
X0327148Y0084376D02*
X0323755Y0084376D01*
X0326038Y0083378D02*
X0326149Y0083378D01*
X0322682Y0052424D02*
X0321682Y0052424D01*
X0321682Y0051426D02*
X0322682Y0051426D01*
X0322682Y0050427D02*
X0321682Y0050427D01*
X0321682Y0049429D02*
X0322682Y0049429D01*
X0353178Y0049429D02*
X0354178Y0049429D01*
X0354178Y0050427D02*
X0353178Y0050427D01*
X0353178Y0051426D02*
X0354178Y0051426D01*
X0354178Y0052424D02*
X0353178Y0052424D01*
X0391973Y0024466D02*
X0392942Y0024466D01*
X0392942Y0023467D02*
X0391973Y0023467D01*
X0391973Y0022469D02*
X0392942Y0022469D01*
X0395763Y0022469D02*
X0395917Y0022469D01*
X0392942Y0008490D02*
X0391973Y0008490D01*
X0391973Y0007491D02*
X0392942Y0007491D01*
X0392942Y0006493D02*
X0391973Y0006493D01*
X0395631Y0006493D02*
X0396145Y0006493D01*
X0278427Y0165256D02*
X0277148Y0165256D01*
X0277051Y0166254D02*
X0279426Y0166254D01*
X0202972Y0196210D02*
X0194351Y0196210D01*
X0194351Y0197208D02*
X0200257Y0197208D01*
X0199067Y0198207D02*
X0194351Y0198207D01*
X0194351Y0199205D02*
X0197877Y0199205D01*
X0196796Y0200204D02*
X0194351Y0200204D01*
X0194351Y0201202D02*
X0196219Y0201202D01*
X0195643Y0202201D02*
X0194351Y0202201D01*
X0194351Y0203199D02*
X0195066Y0203199D01*
X0194630Y0204198D02*
X0194351Y0204198D01*
X0194351Y0205196D02*
X0194454Y0205196D01*
X0237602Y0207193D02*
X0239451Y0207193D01*
X0238966Y0206195D02*
X0238600Y0206195D01*
X0196476Y0178237D02*
X0196051Y0178237D01*
X0196051Y0177238D02*
X0196476Y0177238D01*
X0196476Y0176239D02*
X0196051Y0176239D01*
X0196051Y0175241D02*
X0196476Y0175241D01*
X0196476Y0174242D02*
X0196051Y0174242D01*
X0196051Y0173244D02*
X0196476Y0173244D01*
X0196476Y0172245D02*
X0196051Y0172245D01*
X0196084Y0171247D02*
X0196549Y0171247D01*
D22*
X0195851Y0169500D02*
X0194651Y0170700D01*
X0194651Y0179100D01*
X0198851Y0183300D01*
X0198851Y0188100D01*
X0200651Y0189900D01*
X0200725Y0190280D01*
X0200725Y0174925D02*
X0201251Y0174900D01*
X0203051Y0173100D01*
X0212651Y0173100D01*
X0217451Y0168300D01*
X0217451Y0164100D01*
X0236051Y0145500D01*
X0239651Y0145500D01*
X0240095Y0145201D01*
X0240095Y0153075D02*
X0240851Y0153300D01*
X0240851Y0200100D01*
X0240251Y0200700D01*
X0240251Y0205500D01*
X0240851Y0206100D01*
X0240851Y0207900D01*
X0236051Y0212700D01*
X0235804Y0213193D01*
X0235451Y0213300D01*
X0225851Y0213300D01*
X0225804Y0213193D01*
X0275651Y0203100D02*
X0275804Y0203193D01*
X0275651Y0203100D02*
X0275651Y0163500D01*
X0283451Y0165300D02*
X0283451Y0153300D01*
X0283402Y0153075D01*
X0282851Y0145500D02*
X0283402Y0145201D01*
X0282851Y0145500D02*
X0280451Y0145500D01*
X0275051Y0140100D01*
X0257651Y0140100D01*
X0243251Y0125700D01*
X0243251Y0118500D01*
X0246851Y0114900D01*
X0247451Y0114900D01*
X0254051Y0121500D01*
X0255251Y0121500D01*
X0255646Y0121972D01*
X0248651Y0122100D02*
X0248166Y0121972D01*
X0248651Y0122100D02*
X0248651Y0126300D01*
X0250451Y0128100D01*
X0275051Y0128100D01*
X0276851Y0126300D01*
X0276851Y0122100D01*
X0277300Y0121972D01*
X0288851Y0120300D02*
X0288851Y0162900D01*
X0283451Y0168300D01*
X0294851Y0179700D01*
X0424451Y0179700D01*
X0429251Y0184500D01*
X0429251Y0187500D01*
X0429269Y0187524D01*
X0434651Y0190500D02*
X0434651Y0184500D01*
X0429251Y0179100D01*
X0429251Y0174300D01*
X0429269Y0173744D01*
X0421001Y0173744D02*
X0420851Y0174300D01*
X0405251Y0174300D01*
X0405056Y0173744D01*
X0425651Y0164100D02*
X0429251Y0160500D01*
X0429269Y0159965D01*
X0423851Y0155100D02*
X0429251Y0149700D01*
X0429251Y0146700D01*
X0429269Y0146185D01*
X0428051Y0141300D02*
X0429251Y0140100D01*
X0429251Y0132900D01*
X0429269Y0132406D01*
X0421001Y0132406D02*
X0420851Y0132900D01*
X0405251Y0132900D01*
X0405056Y0132406D01*
X0405056Y0146185D02*
X0405251Y0146700D01*
X0420851Y0146700D01*
X0421001Y0146185D01*
X0421001Y0159965D02*
X0420851Y0160500D01*
X0405251Y0160500D01*
X0405056Y0159965D01*
X0404051Y0187500D02*
X0403875Y0187524D01*
X0404051Y0187500D02*
X0420851Y0187500D01*
X0421001Y0187524D01*
X0430451Y0194700D02*
X0434651Y0190500D01*
X0430451Y0194700D02*
X0404651Y0194700D01*
X0396251Y0203100D01*
X0395804Y0203193D01*
X0296051Y0203100D02*
X0296051Y0189900D01*
X0287651Y0181500D01*
X0292451Y0189300D02*
X0292451Y0196500D01*
X0285851Y0203100D01*
X0285804Y0203193D01*
X0295804Y0203193D02*
X0296051Y0203100D01*
X0283451Y0168300D02*
X0269051Y0153900D01*
X0262451Y0153900D01*
X0261851Y0153300D01*
X0261749Y0153075D01*
X0261251Y0153300D01*
X0240851Y0153300D01*
X0240251Y0153300D01*
X0240095Y0153075D01*
X0257651Y0144900D02*
X0261251Y0144900D01*
X0261749Y0145201D01*
X0257651Y0144900D02*
X0228851Y0116100D01*
X0220451Y0116100D01*
X0220410Y0115870D01*
X0215651Y0119700D02*
X0213851Y0117900D01*
X0213851Y0083100D01*
X0215651Y0081300D01*
X0215651Y0073500D01*
X0194651Y0052500D01*
X0194651Y0044700D01*
X0200651Y0038700D01*
X0200651Y0033300D01*
X0200725Y0033193D01*
X0200725Y0048547D02*
X0200651Y0048900D01*
X0200651Y0056700D01*
X0219251Y0075300D01*
X0219251Y0106500D01*
X0219851Y0107100D01*
X0220410Y0107602D01*
X0220451Y0107700D01*
X0244451Y0107700D01*
X0249851Y0113100D01*
X0251651Y0113100D01*
X0251906Y0113311D01*
X0252251Y0113100D01*
X0273251Y0113100D01*
X0273560Y0113311D01*
X0274451Y0107700D02*
X0276251Y0107700D01*
X0288851Y0120300D01*
X0286451Y0110700D02*
X0366851Y0110700D01*
X0393251Y0084300D01*
X0393251Y0080700D01*
X0393639Y0080240D01*
X0393851Y0080100D01*
X0394451Y0079500D01*
X0394451Y0075900D01*
X0404051Y0066300D01*
X0393251Y0055500D01*
X0393251Y0048900D01*
X0393048Y0048744D01*
X0409451Y0058500D02*
X0409451Y0038700D01*
X0399251Y0028500D01*
X0399251Y0025500D01*
X0398757Y0025122D01*
X0398651Y0024900D01*
X0398651Y0009900D01*
X0398757Y0009374D01*
X0347182Y0009374D02*
X0347051Y0009900D01*
X0347051Y0024900D01*
X0347182Y0025122D01*
X0347051Y0025500D01*
X0347051Y0048300D01*
X0346985Y0048744D01*
X0346451Y0048900D01*
X0346451Y0080100D01*
X0346394Y0080240D01*
X0345851Y0080700D01*
X0344051Y0080700D01*
X0342251Y0082500D01*
X0352451Y0085500D02*
X0330251Y0085500D01*
X0324851Y0080100D01*
X0323051Y0080100D01*
X0322772Y0080240D01*
X0323051Y0080700D01*
X0323051Y0083100D01*
X0320651Y0085500D01*
X0311651Y0085500D01*
X0311051Y0086100D01*
X0311651Y0085500D02*
X0283451Y0057300D01*
X0283451Y0048900D01*
X0283402Y0048744D01*
X0278051Y0042900D02*
X0278051Y0059700D01*
X0282251Y0063900D01*
X0282251Y0072300D01*
X0279251Y0075300D01*
X0275051Y0075300D01*
X0273851Y0076500D01*
X0273560Y0076697D01*
X0273851Y0077100D01*
X0274451Y0077700D01*
X0274451Y0101700D01*
X0300251Y0127500D01*
X0274451Y0107700D02*
X0234251Y0067500D01*
X0234251Y0042900D01*
X0236051Y0041100D01*
X0239651Y0041100D01*
X0240095Y0040870D01*
X0240251Y0040500D01*
X0243851Y0040500D01*
X0254051Y0030300D01*
X0254051Y0026700D01*
X0257651Y0023100D01*
X0257651Y0021300D01*
X0257969Y0021185D01*
X0266051Y0039900D02*
X0279251Y0026700D01*
X0279251Y0021300D01*
X0279269Y0021185D01*
X0266051Y0039900D02*
X0262451Y0039900D01*
X0261851Y0040500D01*
X0261749Y0040870D01*
X0261251Y0041100D01*
X0260651Y0041700D01*
X0254051Y0041700D01*
X0246851Y0048900D01*
X0241451Y0048900D01*
X0240095Y0048744D01*
X0240251Y0048900D01*
X0241451Y0048900D01*
X0241451Y0069900D01*
X0248051Y0076500D01*
X0251651Y0076500D01*
X0251906Y0076697D01*
X0248166Y0068035D02*
X0248051Y0067500D01*
X0248051Y0050700D01*
X0261749Y0048744D02*
X0261851Y0048900D01*
X0261851Y0056100D01*
X0269651Y0063900D01*
X0269651Y0067500D01*
X0269820Y0068035D01*
X0310451Y0081300D02*
X0314051Y0081300D01*
X0314651Y0080700D01*
X0314898Y0080240D01*
X0315251Y0080100D01*
X0315251Y0048900D01*
X0315489Y0048744D01*
X0315851Y0048300D01*
X0315851Y0025500D01*
X0315686Y0025122D01*
X0315851Y0024900D01*
X0315851Y0009900D01*
X0315686Y0009374D01*
X0283402Y0040870D02*
X0282851Y0041100D01*
X0279851Y0041100D01*
X0278051Y0042900D01*
X0354269Y0080240D02*
X0354251Y0080700D01*
X0354251Y0083700D01*
X0352451Y0085500D01*
X0354269Y0080240D02*
X0354851Y0080100D01*
X0385451Y0080100D01*
X0385765Y0080240D01*
X0404051Y0066300D02*
X0408851Y0066300D01*
X0409387Y0066461D01*
X0409387Y0058587D02*
X0409451Y0058500D01*
X0215651Y0119700D02*
X0215651Y0144300D01*
X0204851Y0155100D01*
X0199451Y0155100D01*
X0195851Y0158700D01*
X0195851Y0169500D01*
D23*
X0275651Y0163500D03*
X0283451Y0165300D03*
X0287651Y0181500D03*
X0292451Y0189300D03*
X0300251Y0127500D03*
X0286451Y0110700D03*
X0311051Y0086100D03*
X0310451Y0081300D03*
X0342251Y0082500D03*
X0248051Y0050700D03*
X0428051Y0141300D03*
X0423851Y0155100D03*
X0425651Y0164100D03*
M02*
