G75*
%MOIN*%
%OFA0B0*%
%FSLAX25Y25*%
%IPPOS*%
%LPD*%
%AMOC8*
5,1,8,0,0,1.08239X$1,22.5*
%
%ADD10C,0.00000*%
D10*
X0192851Y0013311D02*
X0192851Y0074335D01*
X0192853Y0074459D01*
X0192859Y0074582D01*
X0192868Y0074706D01*
X0192882Y0074828D01*
X0192899Y0074951D01*
X0192921Y0075073D01*
X0192946Y0075194D01*
X0192975Y0075314D01*
X0193007Y0075433D01*
X0193044Y0075552D01*
X0193084Y0075669D01*
X0193127Y0075784D01*
X0193175Y0075899D01*
X0193226Y0076011D01*
X0193280Y0076122D01*
X0193338Y0076232D01*
X0193399Y0076339D01*
X0193464Y0076445D01*
X0193532Y0076548D01*
X0193603Y0076649D01*
X0193677Y0076748D01*
X0193754Y0076845D01*
X0193835Y0076939D01*
X0193918Y0077030D01*
X0194004Y0077119D01*
X0194093Y0077205D01*
X0194184Y0077288D01*
X0194278Y0077369D01*
X0194375Y0077446D01*
X0194474Y0077520D01*
X0194575Y0077591D01*
X0194678Y0077659D01*
X0194784Y0077724D01*
X0194891Y0077785D01*
X0195001Y0077843D01*
X0195112Y0077897D01*
X0195224Y0077948D01*
X0195339Y0077996D01*
X0195454Y0078039D01*
X0195571Y0078079D01*
X0195690Y0078116D01*
X0195809Y0078148D01*
X0195929Y0078177D01*
X0196050Y0078202D01*
X0196172Y0078224D01*
X0196295Y0078241D01*
X0196417Y0078255D01*
X0196541Y0078264D01*
X0196664Y0078270D01*
X0196788Y0078272D01*
X0208599Y0078272D01*
X0208723Y0078274D01*
X0208846Y0078280D01*
X0208970Y0078289D01*
X0209092Y0078303D01*
X0209215Y0078320D01*
X0209337Y0078342D01*
X0209458Y0078367D01*
X0209578Y0078396D01*
X0209697Y0078428D01*
X0209816Y0078465D01*
X0209933Y0078505D01*
X0210048Y0078548D01*
X0210163Y0078596D01*
X0210275Y0078647D01*
X0210386Y0078701D01*
X0210496Y0078759D01*
X0210603Y0078820D01*
X0210709Y0078885D01*
X0210812Y0078953D01*
X0210913Y0079024D01*
X0211012Y0079098D01*
X0211109Y0079175D01*
X0211203Y0079256D01*
X0211294Y0079339D01*
X0211383Y0079425D01*
X0211469Y0079514D01*
X0211552Y0079605D01*
X0211633Y0079699D01*
X0211710Y0079796D01*
X0211784Y0079895D01*
X0211855Y0079996D01*
X0211923Y0080099D01*
X0211988Y0080205D01*
X0212049Y0080312D01*
X0212107Y0080422D01*
X0212161Y0080533D01*
X0212212Y0080645D01*
X0212260Y0080760D01*
X0212303Y0080875D01*
X0212343Y0080992D01*
X0212380Y0081111D01*
X0212412Y0081230D01*
X0212441Y0081350D01*
X0212466Y0081471D01*
X0212488Y0081593D01*
X0212505Y0081716D01*
X0212519Y0081838D01*
X0212528Y0081962D01*
X0212534Y0082085D01*
X0212536Y0082209D01*
X0212536Y0141264D01*
X0212534Y0141388D01*
X0212528Y0141511D01*
X0212519Y0141635D01*
X0212505Y0141757D01*
X0212488Y0141880D01*
X0212466Y0142002D01*
X0212441Y0142123D01*
X0212412Y0142243D01*
X0212380Y0142362D01*
X0212343Y0142481D01*
X0212303Y0142598D01*
X0212260Y0142713D01*
X0212212Y0142828D01*
X0212161Y0142940D01*
X0212107Y0143051D01*
X0212049Y0143161D01*
X0211988Y0143268D01*
X0211923Y0143374D01*
X0211855Y0143477D01*
X0211784Y0143578D01*
X0211710Y0143677D01*
X0211633Y0143774D01*
X0211552Y0143868D01*
X0211469Y0143959D01*
X0211383Y0144048D01*
X0211294Y0144134D01*
X0211203Y0144217D01*
X0211109Y0144298D01*
X0211012Y0144375D01*
X0210913Y0144449D01*
X0210812Y0144520D01*
X0210709Y0144588D01*
X0210603Y0144653D01*
X0210496Y0144714D01*
X0210386Y0144772D01*
X0210275Y0144826D01*
X0210163Y0144877D01*
X0210048Y0144925D01*
X0209933Y0144968D01*
X0209816Y0145008D01*
X0209697Y0145045D01*
X0209578Y0145077D01*
X0209458Y0145106D01*
X0209337Y0145131D01*
X0209215Y0145153D01*
X0209092Y0145170D01*
X0208970Y0145184D01*
X0208846Y0145193D01*
X0208723Y0145199D01*
X0208599Y0145201D01*
X0196788Y0145201D01*
X0196664Y0145203D01*
X0196541Y0145209D01*
X0196417Y0145218D01*
X0196295Y0145232D01*
X0196172Y0145249D01*
X0196050Y0145271D01*
X0195929Y0145296D01*
X0195809Y0145325D01*
X0195690Y0145357D01*
X0195571Y0145394D01*
X0195454Y0145434D01*
X0195339Y0145477D01*
X0195224Y0145525D01*
X0195112Y0145576D01*
X0195001Y0145630D01*
X0194891Y0145688D01*
X0194784Y0145749D01*
X0194678Y0145814D01*
X0194575Y0145882D01*
X0194474Y0145953D01*
X0194375Y0146027D01*
X0194278Y0146104D01*
X0194184Y0146185D01*
X0194093Y0146268D01*
X0194004Y0146354D01*
X0193918Y0146443D01*
X0193835Y0146534D01*
X0193754Y0146628D01*
X0193677Y0146725D01*
X0193603Y0146824D01*
X0193532Y0146925D01*
X0193464Y0147028D01*
X0193399Y0147134D01*
X0193338Y0147241D01*
X0193280Y0147351D01*
X0193226Y0147462D01*
X0193175Y0147574D01*
X0193127Y0147689D01*
X0193084Y0147804D01*
X0193044Y0147921D01*
X0193007Y0148040D01*
X0192975Y0148159D01*
X0192946Y0148279D01*
X0192921Y0148400D01*
X0192899Y0148522D01*
X0192882Y0148645D01*
X0192868Y0148767D01*
X0192859Y0148891D01*
X0192853Y0149014D01*
X0192851Y0149138D01*
X0192851Y0210161D01*
X0192854Y0210446D01*
X0192865Y0210732D01*
X0192882Y0211017D01*
X0192906Y0211301D01*
X0192937Y0211585D01*
X0192975Y0211868D01*
X0193020Y0212149D01*
X0193071Y0212430D01*
X0193129Y0212710D01*
X0193194Y0212988D01*
X0193266Y0213264D01*
X0193344Y0213538D01*
X0193429Y0213811D01*
X0193521Y0214081D01*
X0193619Y0214349D01*
X0193723Y0214615D01*
X0193834Y0214878D01*
X0193951Y0215138D01*
X0194074Y0215396D01*
X0194204Y0215650D01*
X0194340Y0215901D01*
X0194481Y0216149D01*
X0194629Y0216393D01*
X0194782Y0216634D01*
X0194942Y0216870D01*
X0195107Y0217103D01*
X0195277Y0217332D01*
X0195453Y0217557D01*
X0195635Y0217777D01*
X0195821Y0217993D01*
X0196013Y0218204D01*
X0196210Y0218411D01*
X0196412Y0218613D01*
X0196619Y0218810D01*
X0196830Y0219002D01*
X0197046Y0219188D01*
X0197266Y0219370D01*
X0197491Y0219546D01*
X0197720Y0219716D01*
X0197953Y0219881D01*
X0198189Y0220041D01*
X0198430Y0220194D01*
X0198674Y0220342D01*
X0198922Y0220483D01*
X0199173Y0220619D01*
X0199427Y0220749D01*
X0199685Y0220872D01*
X0199945Y0220989D01*
X0200208Y0221100D01*
X0200474Y0221204D01*
X0200742Y0221302D01*
X0201012Y0221394D01*
X0201285Y0221479D01*
X0201559Y0221557D01*
X0201835Y0221629D01*
X0202113Y0221694D01*
X0202393Y0221752D01*
X0202674Y0221803D01*
X0202955Y0221848D01*
X0203238Y0221886D01*
X0203522Y0221917D01*
X0203806Y0221941D01*
X0204091Y0221958D01*
X0204377Y0221969D01*
X0204662Y0221972D01*
X0436946Y0221972D01*
X0437231Y0221969D01*
X0437517Y0221958D01*
X0437802Y0221941D01*
X0438086Y0221917D01*
X0438370Y0221886D01*
X0438653Y0221848D01*
X0438934Y0221803D01*
X0439215Y0221752D01*
X0439495Y0221694D01*
X0439773Y0221629D01*
X0440049Y0221557D01*
X0440323Y0221479D01*
X0440596Y0221394D01*
X0440866Y0221302D01*
X0441134Y0221204D01*
X0441400Y0221100D01*
X0441663Y0220989D01*
X0441923Y0220872D01*
X0442181Y0220749D01*
X0442435Y0220619D01*
X0442686Y0220483D01*
X0442934Y0220342D01*
X0443178Y0220194D01*
X0443419Y0220041D01*
X0443655Y0219881D01*
X0443888Y0219716D01*
X0444117Y0219546D01*
X0444342Y0219370D01*
X0444562Y0219188D01*
X0444778Y0219002D01*
X0444989Y0218810D01*
X0445196Y0218613D01*
X0445398Y0218411D01*
X0445595Y0218204D01*
X0445787Y0217993D01*
X0445973Y0217777D01*
X0446155Y0217557D01*
X0446331Y0217332D01*
X0446501Y0217103D01*
X0446666Y0216870D01*
X0446826Y0216634D01*
X0446979Y0216393D01*
X0447127Y0216149D01*
X0447268Y0215901D01*
X0447404Y0215650D01*
X0447534Y0215396D01*
X0447657Y0215138D01*
X0447774Y0214878D01*
X0447885Y0214615D01*
X0447989Y0214349D01*
X0448087Y0214081D01*
X0448179Y0213811D01*
X0448264Y0213538D01*
X0448342Y0213264D01*
X0448414Y0212988D01*
X0448479Y0212710D01*
X0448537Y0212430D01*
X0448588Y0212149D01*
X0448633Y0211868D01*
X0448671Y0211585D01*
X0448702Y0211301D01*
X0448726Y0211017D01*
X0448743Y0210732D01*
X0448754Y0210446D01*
X0448757Y0210161D01*
X0448757Y0013311D01*
X0448754Y0013026D01*
X0448743Y0012740D01*
X0448726Y0012455D01*
X0448702Y0012171D01*
X0448671Y0011887D01*
X0448633Y0011604D01*
X0448588Y0011323D01*
X0448537Y0011042D01*
X0448479Y0010762D01*
X0448414Y0010484D01*
X0448342Y0010208D01*
X0448264Y0009934D01*
X0448179Y0009661D01*
X0448087Y0009391D01*
X0447989Y0009123D01*
X0447885Y0008857D01*
X0447774Y0008594D01*
X0447657Y0008334D01*
X0447534Y0008076D01*
X0447404Y0007822D01*
X0447268Y0007571D01*
X0447127Y0007323D01*
X0446979Y0007079D01*
X0446826Y0006838D01*
X0446666Y0006602D01*
X0446501Y0006369D01*
X0446331Y0006140D01*
X0446155Y0005915D01*
X0445973Y0005695D01*
X0445787Y0005479D01*
X0445595Y0005268D01*
X0445398Y0005061D01*
X0445196Y0004859D01*
X0444989Y0004662D01*
X0444778Y0004470D01*
X0444562Y0004284D01*
X0444342Y0004102D01*
X0444117Y0003926D01*
X0443888Y0003756D01*
X0443655Y0003591D01*
X0443419Y0003431D01*
X0443178Y0003278D01*
X0442934Y0003130D01*
X0442686Y0002989D01*
X0442435Y0002853D01*
X0442181Y0002723D01*
X0441923Y0002600D01*
X0441663Y0002483D01*
X0441400Y0002372D01*
X0441134Y0002268D01*
X0440866Y0002170D01*
X0440596Y0002078D01*
X0440323Y0001993D01*
X0440049Y0001915D01*
X0439773Y0001843D01*
X0439495Y0001778D01*
X0439215Y0001720D01*
X0438934Y0001669D01*
X0438653Y0001624D01*
X0438370Y0001586D01*
X0438086Y0001555D01*
X0437802Y0001531D01*
X0437517Y0001514D01*
X0437231Y0001503D01*
X0436946Y0001500D01*
X0204662Y0001500D01*
X0204377Y0001503D01*
X0204091Y0001514D01*
X0203806Y0001531D01*
X0203522Y0001555D01*
X0203238Y0001586D01*
X0202955Y0001624D01*
X0202674Y0001669D01*
X0202393Y0001720D01*
X0202113Y0001778D01*
X0201835Y0001843D01*
X0201559Y0001915D01*
X0201285Y0001993D01*
X0201012Y0002078D01*
X0200742Y0002170D01*
X0200474Y0002268D01*
X0200208Y0002372D01*
X0199945Y0002483D01*
X0199685Y0002600D01*
X0199427Y0002723D01*
X0199173Y0002853D01*
X0198922Y0002989D01*
X0198674Y0003130D01*
X0198430Y0003278D01*
X0198189Y0003431D01*
X0197953Y0003591D01*
X0197720Y0003756D01*
X0197491Y0003926D01*
X0197266Y0004102D01*
X0197046Y0004284D01*
X0196830Y0004470D01*
X0196619Y0004662D01*
X0196412Y0004859D01*
X0196210Y0005061D01*
X0196013Y0005268D01*
X0195821Y0005479D01*
X0195635Y0005695D01*
X0195453Y0005915D01*
X0195277Y0006140D01*
X0195107Y0006369D01*
X0194942Y0006602D01*
X0194782Y0006838D01*
X0194629Y0007079D01*
X0194481Y0007323D01*
X0194340Y0007571D01*
X0194204Y0007822D01*
X0194074Y0008076D01*
X0193951Y0008334D01*
X0193834Y0008594D01*
X0193723Y0008857D01*
X0193619Y0009123D01*
X0193521Y0009391D01*
X0193429Y0009661D01*
X0193344Y0009934D01*
X0193266Y0010208D01*
X0193194Y0010484D01*
X0193129Y0010762D01*
X0193071Y0011042D01*
X0193020Y0011323D01*
X0192975Y0011604D01*
X0192937Y0011887D01*
X0192906Y0012171D01*
X0192882Y0012455D01*
X0192865Y0012740D01*
X0192854Y0013026D01*
X0192851Y0013311D01*
X0201119Y0015280D02*
X0201121Y0015428D01*
X0201127Y0015576D01*
X0201137Y0015724D01*
X0201151Y0015871D01*
X0201169Y0016018D01*
X0201190Y0016164D01*
X0201216Y0016310D01*
X0201246Y0016455D01*
X0201279Y0016599D01*
X0201317Y0016742D01*
X0201358Y0016884D01*
X0201403Y0017025D01*
X0201451Y0017165D01*
X0201504Y0017304D01*
X0201560Y0017441D01*
X0201620Y0017576D01*
X0201683Y0017710D01*
X0201750Y0017842D01*
X0201821Y0017972D01*
X0201895Y0018100D01*
X0201972Y0018226D01*
X0202053Y0018350D01*
X0202137Y0018472D01*
X0202224Y0018591D01*
X0202315Y0018708D01*
X0202409Y0018823D01*
X0202505Y0018935D01*
X0202605Y0019045D01*
X0202707Y0019151D01*
X0202813Y0019255D01*
X0202921Y0019356D01*
X0203032Y0019454D01*
X0203145Y0019550D01*
X0203261Y0019642D01*
X0203379Y0019731D01*
X0203500Y0019816D01*
X0203623Y0019899D01*
X0203748Y0019978D01*
X0203875Y0020054D01*
X0204004Y0020126D01*
X0204135Y0020195D01*
X0204268Y0020260D01*
X0204403Y0020321D01*
X0204539Y0020379D01*
X0204676Y0020434D01*
X0204815Y0020484D01*
X0204956Y0020531D01*
X0205097Y0020574D01*
X0205240Y0020614D01*
X0205384Y0020649D01*
X0205528Y0020681D01*
X0205674Y0020708D01*
X0205820Y0020732D01*
X0205967Y0020752D01*
X0206114Y0020768D01*
X0206261Y0020780D01*
X0206409Y0020788D01*
X0206557Y0020792D01*
X0206705Y0020792D01*
X0206853Y0020788D01*
X0207001Y0020780D01*
X0207148Y0020768D01*
X0207295Y0020752D01*
X0207442Y0020732D01*
X0207588Y0020708D01*
X0207734Y0020681D01*
X0207878Y0020649D01*
X0208022Y0020614D01*
X0208165Y0020574D01*
X0208306Y0020531D01*
X0208447Y0020484D01*
X0208586Y0020434D01*
X0208723Y0020379D01*
X0208859Y0020321D01*
X0208994Y0020260D01*
X0209127Y0020195D01*
X0209258Y0020126D01*
X0209387Y0020054D01*
X0209514Y0019978D01*
X0209639Y0019899D01*
X0209762Y0019816D01*
X0209883Y0019731D01*
X0210001Y0019642D01*
X0210117Y0019550D01*
X0210230Y0019454D01*
X0210341Y0019356D01*
X0210449Y0019255D01*
X0210555Y0019151D01*
X0210657Y0019045D01*
X0210757Y0018935D01*
X0210853Y0018823D01*
X0210947Y0018708D01*
X0211038Y0018591D01*
X0211125Y0018472D01*
X0211209Y0018350D01*
X0211290Y0018226D01*
X0211367Y0018100D01*
X0211441Y0017972D01*
X0211512Y0017842D01*
X0211579Y0017710D01*
X0211642Y0017576D01*
X0211702Y0017441D01*
X0211758Y0017304D01*
X0211811Y0017165D01*
X0211859Y0017025D01*
X0211904Y0016884D01*
X0211945Y0016742D01*
X0211983Y0016599D01*
X0212016Y0016455D01*
X0212046Y0016310D01*
X0212072Y0016164D01*
X0212093Y0016018D01*
X0212111Y0015871D01*
X0212125Y0015724D01*
X0212135Y0015576D01*
X0212141Y0015428D01*
X0212143Y0015280D01*
X0212141Y0015132D01*
X0212135Y0014984D01*
X0212125Y0014836D01*
X0212111Y0014689D01*
X0212093Y0014542D01*
X0212072Y0014396D01*
X0212046Y0014250D01*
X0212016Y0014105D01*
X0211983Y0013961D01*
X0211945Y0013818D01*
X0211904Y0013676D01*
X0211859Y0013535D01*
X0211811Y0013395D01*
X0211758Y0013256D01*
X0211702Y0013119D01*
X0211642Y0012984D01*
X0211579Y0012850D01*
X0211512Y0012718D01*
X0211441Y0012588D01*
X0211367Y0012460D01*
X0211290Y0012334D01*
X0211209Y0012210D01*
X0211125Y0012088D01*
X0211038Y0011969D01*
X0210947Y0011852D01*
X0210853Y0011737D01*
X0210757Y0011625D01*
X0210657Y0011515D01*
X0210555Y0011409D01*
X0210449Y0011305D01*
X0210341Y0011204D01*
X0210230Y0011106D01*
X0210117Y0011010D01*
X0210001Y0010918D01*
X0209883Y0010829D01*
X0209762Y0010744D01*
X0209639Y0010661D01*
X0209514Y0010582D01*
X0209387Y0010506D01*
X0209258Y0010434D01*
X0209127Y0010365D01*
X0208994Y0010300D01*
X0208859Y0010239D01*
X0208723Y0010181D01*
X0208586Y0010126D01*
X0208447Y0010076D01*
X0208306Y0010029D01*
X0208165Y0009986D01*
X0208022Y0009946D01*
X0207878Y0009911D01*
X0207734Y0009879D01*
X0207588Y0009852D01*
X0207442Y0009828D01*
X0207295Y0009808D01*
X0207148Y0009792D01*
X0207001Y0009780D01*
X0206853Y0009772D01*
X0206705Y0009768D01*
X0206557Y0009768D01*
X0206409Y0009772D01*
X0206261Y0009780D01*
X0206114Y0009792D01*
X0205967Y0009808D01*
X0205820Y0009828D01*
X0205674Y0009852D01*
X0205528Y0009879D01*
X0205384Y0009911D01*
X0205240Y0009946D01*
X0205097Y0009986D01*
X0204956Y0010029D01*
X0204815Y0010076D01*
X0204676Y0010126D01*
X0204539Y0010181D01*
X0204403Y0010239D01*
X0204268Y0010300D01*
X0204135Y0010365D01*
X0204004Y0010434D01*
X0203875Y0010506D01*
X0203748Y0010582D01*
X0203623Y0010661D01*
X0203500Y0010744D01*
X0203379Y0010829D01*
X0203261Y0010918D01*
X0203145Y0011010D01*
X0203032Y0011106D01*
X0202921Y0011204D01*
X0202813Y0011305D01*
X0202707Y0011409D01*
X0202605Y0011515D01*
X0202505Y0011625D01*
X0202409Y0011737D01*
X0202315Y0011852D01*
X0202224Y0011969D01*
X0202137Y0012088D01*
X0202053Y0012210D01*
X0201972Y0012334D01*
X0201895Y0012460D01*
X0201821Y0012588D01*
X0201750Y0012718D01*
X0201683Y0012850D01*
X0201620Y0012984D01*
X0201560Y0013119D01*
X0201504Y0013256D01*
X0201451Y0013395D01*
X0201403Y0013535D01*
X0201358Y0013676D01*
X0201317Y0013818D01*
X0201279Y0013961D01*
X0201246Y0014105D01*
X0201216Y0014250D01*
X0201190Y0014396D01*
X0201169Y0014542D01*
X0201151Y0014689D01*
X0201137Y0014836D01*
X0201127Y0014984D01*
X0201121Y0015132D01*
X0201119Y0015280D01*
X0429465Y0015280D02*
X0429467Y0015428D01*
X0429473Y0015576D01*
X0429483Y0015724D01*
X0429497Y0015871D01*
X0429515Y0016018D01*
X0429536Y0016164D01*
X0429562Y0016310D01*
X0429592Y0016455D01*
X0429625Y0016599D01*
X0429663Y0016742D01*
X0429704Y0016884D01*
X0429749Y0017025D01*
X0429797Y0017165D01*
X0429850Y0017304D01*
X0429906Y0017441D01*
X0429966Y0017576D01*
X0430029Y0017710D01*
X0430096Y0017842D01*
X0430167Y0017972D01*
X0430241Y0018100D01*
X0430318Y0018226D01*
X0430399Y0018350D01*
X0430483Y0018472D01*
X0430570Y0018591D01*
X0430661Y0018708D01*
X0430755Y0018823D01*
X0430851Y0018935D01*
X0430951Y0019045D01*
X0431053Y0019151D01*
X0431159Y0019255D01*
X0431267Y0019356D01*
X0431378Y0019454D01*
X0431491Y0019550D01*
X0431607Y0019642D01*
X0431725Y0019731D01*
X0431846Y0019816D01*
X0431969Y0019899D01*
X0432094Y0019978D01*
X0432221Y0020054D01*
X0432350Y0020126D01*
X0432481Y0020195D01*
X0432614Y0020260D01*
X0432749Y0020321D01*
X0432885Y0020379D01*
X0433022Y0020434D01*
X0433161Y0020484D01*
X0433302Y0020531D01*
X0433443Y0020574D01*
X0433586Y0020614D01*
X0433730Y0020649D01*
X0433874Y0020681D01*
X0434020Y0020708D01*
X0434166Y0020732D01*
X0434313Y0020752D01*
X0434460Y0020768D01*
X0434607Y0020780D01*
X0434755Y0020788D01*
X0434903Y0020792D01*
X0435051Y0020792D01*
X0435199Y0020788D01*
X0435347Y0020780D01*
X0435494Y0020768D01*
X0435641Y0020752D01*
X0435788Y0020732D01*
X0435934Y0020708D01*
X0436080Y0020681D01*
X0436224Y0020649D01*
X0436368Y0020614D01*
X0436511Y0020574D01*
X0436652Y0020531D01*
X0436793Y0020484D01*
X0436932Y0020434D01*
X0437069Y0020379D01*
X0437205Y0020321D01*
X0437340Y0020260D01*
X0437473Y0020195D01*
X0437604Y0020126D01*
X0437733Y0020054D01*
X0437860Y0019978D01*
X0437985Y0019899D01*
X0438108Y0019816D01*
X0438229Y0019731D01*
X0438347Y0019642D01*
X0438463Y0019550D01*
X0438576Y0019454D01*
X0438687Y0019356D01*
X0438795Y0019255D01*
X0438901Y0019151D01*
X0439003Y0019045D01*
X0439103Y0018935D01*
X0439199Y0018823D01*
X0439293Y0018708D01*
X0439384Y0018591D01*
X0439471Y0018472D01*
X0439555Y0018350D01*
X0439636Y0018226D01*
X0439713Y0018100D01*
X0439787Y0017972D01*
X0439858Y0017842D01*
X0439925Y0017710D01*
X0439988Y0017576D01*
X0440048Y0017441D01*
X0440104Y0017304D01*
X0440157Y0017165D01*
X0440205Y0017025D01*
X0440250Y0016884D01*
X0440291Y0016742D01*
X0440329Y0016599D01*
X0440362Y0016455D01*
X0440392Y0016310D01*
X0440418Y0016164D01*
X0440439Y0016018D01*
X0440457Y0015871D01*
X0440471Y0015724D01*
X0440481Y0015576D01*
X0440487Y0015428D01*
X0440489Y0015280D01*
X0440487Y0015132D01*
X0440481Y0014984D01*
X0440471Y0014836D01*
X0440457Y0014689D01*
X0440439Y0014542D01*
X0440418Y0014396D01*
X0440392Y0014250D01*
X0440362Y0014105D01*
X0440329Y0013961D01*
X0440291Y0013818D01*
X0440250Y0013676D01*
X0440205Y0013535D01*
X0440157Y0013395D01*
X0440104Y0013256D01*
X0440048Y0013119D01*
X0439988Y0012984D01*
X0439925Y0012850D01*
X0439858Y0012718D01*
X0439787Y0012588D01*
X0439713Y0012460D01*
X0439636Y0012334D01*
X0439555Y0012210D01*
X0439471Y0012088D01*
X0439384Y0011969D01*
X0439293Y0011852D01*
X0439199Y0011737D01*
X0439103Y0011625D01*
X0439003Y0011515D01*
X0438901Y0011409D01*
X0438795Y0011305D01*
X0438687Y0011204D01*
X0438576Y0011106D01*
X0438463Y0011010D01*
X0438347Y0010918D01*
X0438229Y0010829D01*
X0438108Y0010744D01*
X0437985Y0010661D01*
X0437860Y0010582D01*
X0437733Y0010506D01*
X0437604Y0010434D01*
X0437473Y0010365D01*
X0437340Y0010300D01*
X0437205Y0010239D01*
X0437069Y0010181D01*
X0436932Y0010126D01*
X0436793Y0010076D01*
X0436652Y0010029D01*
X0436511Y0009986D01*
X0436368Y0009946D01*
X0436224Y0009911D01*
X0436080Y0009879D01*
X0435934Y0009852D01*
X0435788Y0009828D01*
X0435641Y0009808D01*
X0435494Y0009792D01*
X0435347Y0009780D01*
X0435199Y0009772D01*
X0435051Y0009768D01*
X0434903Y0009768D01*
X0434755Y0009772D01*
X0434607Y0009780D01*
X0434460Y0009792D01*
X0434313Y0009808D01*
X0434166Y0009828D01*
X0434020Y0009852D01*
X0433874Y0009879D01*
X0433730Y0009911D01*
X0433586Y0009946D01*
X0433443Y0009986D01*
X0433302Y0010029D01*
X0433161Y0010076D01*
X0433022Y0010126D01*
X0432885Y0010181D01*
X0432749Y0010239D01*
X0432614Y0010300D01*
X0432481Y0010365D01*
X0432350Y0010434D01*
X0432221Y0010506D01*
X0432094Y0010582D01*
X0431969Y0010661D01*
X0431846Y0010744D01*
X0431725Y0010829D01*
X0431607Y0010918D01*
X0431491Y0011010D01*
X0431378Y0011106D01*
X0431267Y0011204D01*
X0431159Y0011305D01*
X0431053Y0011409D01*
X0430951Y0011515D01*
X0430851Y0011625D01*
X0430755Y0011737D01*
X0430661Y0011852D01*
X0430570Y0011969D01*
X0430483Y0012088D01*
X0430399Y0012210D01*
X0430318Y0012334D01*
X0430241Y0012460D01*
X0430167Y0012588D01*
X0430096Y0012718D01*
X0430029Y0012850D01*
X0429966Y0012984D01*
X0429906Y0013119D01*
X0429850Y0013256D01*
X0429797Y0013395D01*
X0429749Y0013535D01*
X0429704Y0013676D01*
X0429663Y0013818D01*
X0429625Y0013961D01*
X0429592Y0014105D01*
X0429562Y0014250D01*
X0429536Y0014396D01*
X0429515Y0014542D01*
X0429497Y0014689D01*
X0429483Y0014836D01*
X0429473Y0014984D01*
X0429467Y0015132D01*
X0429465Y0015280D01*
X0429465Y0208193D02*
X0429467Y0208341D01*
X0429473Y0208489D01*
X0429483Y0208637D01*
X0429497Y0208784D01*
X0429515Y0208931D01*
X0429536Y0209077D01*
X0429562Y0209223D01*
X0429592Y0209368D01*
X0429625Y0209512D01*
X0429663Y0209655D01*
X0429704Y0209797D01*
X0429749Y0209938D01*
X0429797Y0210078D01*
X0429850Y0210217D01*
X0429906Y0210354D01*
X0429966Y0210489D01*
X0430029Y0210623D01*
X0430096Y0210755D01*
X0430167Y0210885D01*
X0430241Y0211013D01*
X0430318Y0211139D01*
X0430399Y0211263D01*
X0430483Y0211385D01*
X0430570Y0211504D01*
X0430661Y0211621D01*
X0430755Y0211736D01*
X0430851Y0211848D01*
X0430951Y0211958D01*
X0431053Y0212064D01*
X0431159Y0212168D01*
X0431267Y0212269D01*
X0431378Y0212367D01*
X0431491Y0212463D01*
X0431607Y0212555D01*
X0431725Y0212644D01*
X0431846Y0212729D01*
X0431969Y0212812D01*
X0432094Y0212891D01*
X0432221Y0212967D01*
X0432350Y0213039D01*
X0432481Y0213108D01*
X0432614Y0213173D01*
X0432749Y0213234D01*
X0432885Y0213292D01*
X0433022Y0213347D01*
X0433161Y0213397D01*
X0433302Y0213444D01*
X0433443Y0213487D01*
X0433586Y0213527D01*
X0433730Y0213562D01*
X0433874Y0213594D01*
X0434020Y0213621D01*
X0434166Y0213645D01*
X0434313Y0213665D01*
X0434460Y0213681D01*
X0434607Y0213693D01*
X0434755Y0213701D01*
X0434903Y0213705D01*
X0435051Y0213705D01*
X0435199Y0213701D01*
X0435347Y0213693D01*
X0435494Y0213681D01*
X0435641Y0213665D01*
X0435788Y0213645D01*
X0435934Y0213621D01*
X0436080Y0213594D01*
X0436224Y0213562D01*
X0436368Y0213527D01*
X0436511Y0213487D01*
X0436652Y0213444D01*
X0436793Y0213397D01*
X0436932Y0213347D01*
X0437069Y0213292D01*
X0437205Y0213234D01*
X0437340Y0213173D01*
X0437473Y0213108D01*
X0437604Y0213039D01*
X0437733Y0212967D01*
X0437860Y0212891D01*
X0437985Y0212812D01*
X0438108Y0212729D01*
X0438229Y0212644D01*
X0438347Y0212555D01*
X0438463Y0212463D01*
X0438576Y0212367D01*
X0438687Y0212269D01*
X0438795Y0212168D01*
X0438901Y0212064D01*
X0439003Y0211958D01*
X0439103Y0211848D01*
X0439199Y0211736D01*
X0439293Y0211621D01*
X0439384Y0211504D01*
X0439471Y0211385D01*
X0439555Y0211263D01*
X0439636Y0211139D01*
X0439713Y0211013D01*
X0439787Y0210885D01*
X0439858Y0210755D01*
X0439925Y0210623D01*
X0439988Y0210489D01*
X0440048Y0210354D01*
X0440104Y0210217D01*
X0440157Y0210078D01*
X0440205Y0209938D01*
X0440250Y0209797D01*
X0440291Y0209655D01*
X0440329Y0209512D01*
X0440362Y0209368D01*
X0440392Y0209223D01*
X0440418Y0209077D01*
X0440439Y0208931D01*
X0440457Y0208784D01*
X0440471Y0208637D01*
X0440481Y0208489D01*
X0440487Y0208341D01*
X0440489Y0208193D01*
X0440487Y0208045D01*
X0440481Y0207897D01*
X0440471Y0207749D01*
X0440457Y0207602D01*
X0440439Y0207455D01*
X0440418Y0207309D01*
X0440392Y0207163D01*
X0440362Y0207018D01*
X0440329Y0206874D01*
X0440291Y0206731D01*
X0440250Y0206589D01*
X0440205Y0206448D01*
X0440157Y0206308D01*
X0440104Y0206169D01*
X0440048Y0206032D01*
X0439988Y0205897D01*
X0439925Y0205763D01*
X0439858Y0205631D01*
X0439787Y0205501D01*
X0439713Y0205373D01*
X0439636Y0205247D01*
X0439555Y0205123D01*
X0439471Y0205001D01*
X0439384Y0204882D01*
X0439293Y0204765D01*
X0439199Y0204650D01*
X0439103Y0204538D01*
X0439003Y0204428D01*
X0438901Y0204322D01*
X0438795Y0204218D01*
X0438687Y0204117D01*
X0438576Y0204019D01*
X0438463Y0203923D01*
X0438347Y0203831D01*
X0438229Y0203742D01*
X0438108Y0203657D01*
X0437985Y0203574D01*
X0437860Y0203495D01*
X0437733Y0203419D01*
X0437604Y0203347D01*
X0437473Y0203278D01*
X0437340Y0203213D01*
X0437205Y0203152D01*
X0437069Y0203094D01*
X0436932Y0203039D01*
X0436793Y0202989D01*
X0436652Y0202942D01*
X0436511Y0202899D01*
X0436368Y0202859D01*
X0436224Y0202824D01*
X0436080Y0202792D01*
X0435934Y0202765D01*
X0435788Y0202741D01*
X0435641Y0202721D01*
X0435494Y0202705D01*
X0435347Y0202693D01*
X0435199Y0202685D01*
X0435051Y0202681D01*
X0434903Y0202681D01*
X0434755Y0202685D01*
X0434607Y0202693D01*
X0434460Y0202705D01*
X0434313Y0202721D01*
X0434166Y0202741D01*
X0434020Y0202765D01*
X0433874Y0202792D01*
X0433730Y0202824D01*
X0433586Y0202859D01*
X0433443Y0202899D01*
X0433302Y0202942D01*
X0433161Y0202989D01*
X0433022Y0203039D01*
X0432885Y0203094D01*
X0432749Y0203152D01*
X0432614Y0203213D01*
X0432481Y0203278D01*
X0432350Y0203347D01*
X0432221Y0203419D01*
X0432094Y0203495D01*
X0431969Y0203574D01*
X0431846Y0203657D01*
X0431725Y0203742D01*
X0431607Y0203831D01*
X0431491Y0203923D01*
X0431378Y0204019D01*
X0431267Y0204117D01*
X0431159Y0204218D01*
X0431053Y0204322D01*
X0430951Y0204428D01*
X0430851Y0204538D01*
X0430755Y0204650D01*
X0430661Y0204765D01*
X0430570Y0204882D01*
X0430483Y0205001D01*
X0430399Y0205123D01*
X0430318Y0205247D01*
X0430241Y0205373D01*
X0430167Y0205501D01*
X0430096Y0205631D01*
X0430029Y0205763D01*
X0429966Y0205897D01*
X0429906Y0206032D01*
X0429850Y0206169D01*
X0429797Y0206308D01*
X0429749Y0206448D01*
X0429704Y0206589D01*
X0429663Y0206731D01*
X0429625Y0206874D01*
X0429592Y0207018D01*
X0429562Y0207163D01*
X0429536Y0207309D01*
X0429515Y0207455D01*
X0429497Y0207602D01*
X0429483Y0207749D01*
X0429473Y0207897D01*
X0429467Y0208045D01*
X0429465Y0208193D01*
X0201119Y0208193D02*
X0201121Y0208341D01*
X0201127Y0208489D01*
X0201137Y0208637D01*
X0201151Y0208784D01*
X0201169Y0208931D01*
X0201190Y0209077D01*
X0201216Y0209223D01*
X0201246Y0209368D01*
X0201279Y0209512D01*
X0201317Y0209655D01*
X0201358Y0209797D01*
X0201403Y0209938D01*
X0201451Y0210078D01*
X0201504Y0210217D01*
X0201560Y0210354D01*
X0201620Y0210489D01*
X0201683Y0210623D01*
X0201750Y0210755D01*
X0201821Y0210885D01*
X0201895Y0211013D01*
X0201972Y0211139D01*
X0202053Y0211263D01*
X0202137Y0211385D01*
X0202224Y0211504D01*
X0202315Y0211621D01*
X0202409Y0211736D01*
X0202505Y0211848D01*
X0202605Y0211958D01*
X0202707Y0212064D01*
X0202813Y0212168D01*
X0202921Y0212269D01*
X0203032Y0212367D01*
X0203145Y0212463D01*
X0203261Y0212555D01*
X0203379Y0212644D01*
X0203500Y0212729D01*
X0203623Y0212812D01*
X0203748Y0212891D01*
X0203875Y0212967D01*
X0204004Y0213039D01*
X0204135Y0213108D01*
X0204268Y0213173D01*
X0204403Y0213234D01*
X0204539Y0213292D01*
X0204676Y0213347D01*
X0204815Y0213397D01*
X0204956Y0213444D01*
X0205097Y0213487D01*
X0205240Y0213527D01*
X0205384Y0213562D01*
X0205528Y0213594D01*
X0205674Y0213621D01*
X0205820Y0213645D01*
X0205967Y0213665D01*
X0206114Y0213681D01*
X0206261Y0213693D01*
X0206409Y0213701D01*
X0206557Y0213705D01*
X0206705Y0213705D01*
X0206853Y0213701D01*
X0207001Y0213693D01*
X0207148Y0213681D01*
X0207295Y0213665D01*
X0207442Y0213645D01*
X0207588Y0213621D01*
X0207734Y0213594D01*
X0207878Y0213562D01*
X0208022Y0213527D01*
X0208165Y0213487D01*
X0208306Y0213444D01*
X0208447Y0213397D01*
X0208586Y0213347D01*
X0208723Y0213292D01*
X0208859Y0213234D01*
X0208994Y0213173D01*
X0209127Y0213108D01*
X0209258Y0213039D01*
X0209387Y0212967D01*
X0209514Y0212891D01*
X0209639Y0212812D01*
X0209762Y0212729D01*
X0209883Y0212644D01*
X0210001Y0212555D01*
X0210117Y0212463D01*
X0210230Y0212367D01*
X0210341Y0212269D01*
X0210449Y0212168D01*
X0210555Y0212064D01*
X0210657Y0211958D01*
X0210757Y0211848D01*
X0210853Y0211736D01*
X0210947Y0211621D01*
X0211038Y0211504D01*
X0211125Y0211385D01*
X0211209Y0211263D01*
X0211290Y0211139D01*
X0211367Y0211013D01*
X0211441Y0210885D01*
X0211512Y0210755D01*
X0211579Y0210623D01*
X0211642Y0210489D01*
X0211702Y0210354D01*
X0211758Y0210217D01*
X0211811Y0210078D01*
X0211859Y0209938D01*
X0211904Y0209797D01*
X0211945Y0209655D01*
X0211983Y0209512D01*
X0212016Y0209368D01*
X0212046Y0209223D01*
X0212072Y0209077D01*
X0212093Y0208931D01*
X0212111Y0208784D01*
X0212125Y0208637D01*
X0212135Y0208489D01*
X0212141Y0208341D01*
X0212143Y0208193D01*
X0212141Y0208045D01*
X0212135Y0207897D01*
X0212125Y0207749D01*
X0212111Y0207602D01*
X0212093Y0207455D01*
X0212072Y0207309D01*
X0212046Y0207163D01*
X0212016Y0207018D01*
X0211983Y0206874D01*
X0211945Y0206731D01*
X0211904Y0206589D01*
X0211859Y0206448D01*
X0211811Y0206308D01*
X0211758Y0206169D01*
X0211702Y0206032D01*
X0211642Y0205897D01*
X0211579Y0205763D01*
X0211512Y0205631D01*
X0211441Y0205501D01*
X0211367Y0205373D01*
X0211290Y0205247D01*
X0211209Y0205123D01*
X0211125Y0205001D01*
X0211038Y0204882D01*
X0210947Y0204765D01*
X0210853Y0204650D01*
X0210757Y0204538D01*
X0210657Y0204428D01*
X0210555Y0204322D01*
X0210449Y0204218D01*
X0210341Y0204117D01*
X0210230Y0204019D01*
X0210117Y0203923D01*
X0210001Y0203831D01*
X0209883Y0203742D01*
X0209762Y0203657D01*
X0209639Y0203574D01*
X0209514Y0203495D01*
X0209387Y0203419D01*
X0209258Y0203347D01*
X0209127Y0203278D01*
X0208994Y0203213D01*
X0208859Y0203152D01*
X0208723Y0203094D01*
X0208586Y0203039D01*
X0208447Y0202989D01*
X0208306Y0202942D01*
X0208165Y0202899D01*
X0208022Y0202859D01*
X0207878Y0202824D01*
X0207734Y0202792D01*
X0207588Y0202765D01*
X0207442Y0202741D01*
X0207295Y0202721D01*
X0207148Y0202705D01*
X0207001Y0202693D01*
X0206853Y0202685D01*
X0206705Y0202681D01*
X0206557Y0202681D01*
X0206409Y0202685D01*
X0206261Y0202693D01*
X0206114Y0202705D01*
X0205967Y0202721D01*
X0205820Y0202741D01*
X0205674Y0202765D01*
X0205528Y0202792D01*
X0205384Y0202824D01*
X0205240Y0202859D01*
X0205097Y0202899D01*
X0204956Y0202942D01*
X0204815Y0202989D01*
X0204676Y0203039D01*
X0204539Y0203094D01*
X0204403Y0203152D01*
X0204268Y0203213D01*
X0204135Y0203278D01*
X0204004Y0203347D01*
X0203875Y0203419D01*
X0203748Y0203495D01*
X0203623Y0203574D01*
X0203500Y0203657D01*
X0203379Y0203742D01*
X0203261Y0203831D01*
X0203145Y0203923D01*
X0203032Y0204019D01*
X0202921Y0204117D01*
X0202813Y0204218D01*
X0202707Y0204322D01*
X0202605Y0204428D01*
X0202505Y0204538D01*
X0202409Y0204650D01*
X0202315Y0204765D01*
X0202224Y0204882D01*
X0202137Y0205001D01*
X0202053Y0205123D01*
X0201972Y0205247D01*
X0201895Y0205373D01*
X0201821Y0205501D01*
X0201750Y0205631D01*
X0201683Y0205763D01*
X0201620Y0205897D01*
X0201560Y0206032D01*
X0201504Y0206169D01*
X0201451Y0206308D01*
X0201403Y0206448D01*
X0201358Y0206589D01*
X0201317Y0206731D01*
X0201279Y0206874D01*
X0201246Y0207018D01*
X0201216Y0207163D01*
X0201190Y0207309D01*
X0201169Y0207455D01*
X0201151Y0207602D01*
X0201137Y0207749D01*
X0201127Y0207897D01*
X0201121Y0208045D01*
X0201119Y0208193D01*
M02*
