G75*
%MOIN*%
%OFA0B0*%
%FSLAX25Y25*%
%IPPOS*%
%LPD*%
%AMOC8*
5,1,8,0,0,1.08239X$1,22.5*
%
%ADD10C,0.00800*%
%ADD11C,0.00500*%
%ADD12C,0.01000*%
%ADD13C,0.00300*%
%ADD14C,0.02000*%
%ADD15C,0.00600*%
%ADD16C,0.00400*%
%ADD17C,0.00200*%
%ADD18R,0.05512X0.02559*%
%ADD19R,0.00787X0.00787*%
%ADD20C,0.01600*%
%ADD21R,0.02559X0.05512*%
D10*
X0422929Y0053307D02*
X0424464Y0053307D01*
X0427533Y0053307D02*
X0433672Y0053307D01*
X0433672Y0051772D02*
X0433672Y0054842D01*
X0432137Y0059446D02*
X0425998Y0059446D01*
X0427533Y0057911D02*
X0427533Y0060980D01*
X0432137Y0059446D02*
X0433672Y0060980D01*
X0427533Y0053307D02*
X0427533Y0051772D01*
X0429068Y0048703D02*
X0427533Y0047168D01*
X0427533Y0042565D01*
X0424464Y0042565D02*
X0433672Y0042565D01*
X0433672Y0047168D01*
X0432137Y0048703D01*
X0429068Y0048703D01*
X0432137Y0039495D02*
X0425998Y0039495D01*
X0424464Y0037961D01*
X0424464Y0034891D01*
X0425998Y0033357D01*
X0432137Y0033357D01*
X0433672Y0034891D01*
X0433672Y0037961D01*
X0432137Y0039495D01*
X0433672Y0039495D02*
X0430602Y0036426D01*
X0433672Y0073257D02*
X0424464Y0073257D01*
X0424464Y0077861D01*
X0425998Y0079396D01*
X0432137Y0079396D01*
X0433672Y0077861D01*
X0433672Y0073257D01*
X0432137Y0082465D02*
X0429068Y0082465D01*
X0427533Y0084000D01*
X0427533Y0087069D01*
X0429068Y0088604D01*
X0430602Y0088604D01*
X0430602Y0082465D01*
X0432137Y0082465D02*
X0433672Y0084000D01*
X0433672Y0087069D01*
X0427533Y0091673D02*
X0433672Y0094742D01*
X0427533Y0097812D01*
X0427533Y0100881D02*
X0427533Y0102416D01*
X0433672Y0102416D01*
X0433672Y0103950D02*
X0433672Y0100881D01*
X0432137Y0107020D02*
X0433672Y0108554D01*
X0433672Y0113158D01*
X0432137Y0116227D02*
X0429068Y0116227D01*
X0427533Y0117762D01*
X0427533Y0120831D01*
X0429068Y0122366D01*
X0430602Y0122366D01*
X0430602Y0116227D01*
X0432137Y0116227D02*
X0433672Y0117762D01*
X0433672Y0120831D01*
X0433672Y0125435D02*
X0433672Y0130039D01*
X0432137Y0131574D01*
X0430602Y0130039D01*
X0430602Y0126970D01*
X0429068Y0125435D01*
X0427533Y0126970D01*
X0427533Y0131574D01*
X0427533Y0113158D02*
X0427533Y0108554D01*
X0429068Y0107020D01*
X0432137Y0107020D01*
X0424464Y0102416D02*
X0422929Y0102416D01*
D11*
X0284047Y0177094D02*
X0283029Y0176077D01*
X0280994Y0176077D01*
X0279977Y0177094D01*
X0279977Y0179129D02*
X0282012Y0180147D01*
X0283029Y0180147D01*
X0284047Y0179129D01*
X0284047Y0177094D01*
X0279977Y0179129D02*
X0279977Y0182182D01*
X0284047Y0182182D01*
X0275935Y0182182D02*
X0275935Y0176077D01*
X0277970Y0176077D02*
X0273899Y0176077D01*
X0271892Y0177094D02*
X0270875Y0176077D01*
X0268840Y0176077D01*
X0267822Y0177094D01*
X0271892Y0181164D01*
X0271892Y0177094D01*
X0273899Y0180147D02*
X0275935Y0182182D01*
X0271892Y0181164D02*
X0270875Y0182182D01*
X0268840Y0182182D01*
X0267822Y0181164D01*
X0267822Y0177094D01*
X0265815Y0176077D02*
X0261745Y0176077D01*
X0265815Y0180147D01*
X0265815Y0181164D01*
X0264798Y0182182D01*
X0262763Y0182182D01*
X0261745Y0181164D01*
X0260737Y0185977D02*
X0259719Y0186994D01*
X0260737Y0185977D02*
X0262772Y0185977D01*
X0263790Y0186994D01*
X0263790Y0188012D01*
X0262772Y0189029D01*
X0261754Y0189029D01*
X0262772Y0189029D02*
X0263790Y0190047D01*
X0263790Y0191064D01*
X0262772Y0192082D01*
X0260737Y0192082D01*
X0259719Y0191064D01*
X0257712Y0190047D02*
X0255677Y0185977D01*
X0253642Y0190047D01*
X0245558Y0189029D02*
X0245558Y0186994D01*
X0244540Y0185977D01*
X0241488Y0185977D01*
X0241488Y0192082D01*
X0241488Y0190047D02*
X0244540Y0190047D01*
X0245558Y0189029D01*
X0239481Y0190047D02*
X0239481Y0185977D01*
X0236428Y0185977D01*
X0235411Y0186994D01*
X0235411Y0190047D01*
X0233404Y0189029D02*
X0229333Y0189029D01*
X0229333Y0185977D02*
X0229333Y0192082D01*
X0233404Y0192082D02*
X0233404Y0185977D01*
X0239462Y0180147D02*
X0241497Y0182182D01*
X0241497Y0176077D01*
X0239462Y0176077D02*
X0243532Y0176077D01*
X0245539Y0177094D02*
X0246557Y0176077D01*
X0248592Y0176077D01*
X0249609Y0177094D01*
X0249609Y0181164D01*
X0245539Y0177094D01*
X0245539Y0181164D01*
X0246557Y0182182D01*
X0248592Y0182182D01*
X0249609Y0181164D01*
X0252634Y0177094D02*
X0252634Y0176077D01*
X0253652Y0176077D01*
X0253652Y0177094D01*
X0252634Y0177094D01*
X0253652Y0176077D02*
X0251616Y0174042D01*
X0231378Y0175059D02*
X0230360Y0174042D01*
X0229343Y0174042D01*
X0231378Y0175059D02*
X0231378Y0180147D01*
X0227308Y0180147D02*
X0227308Y0177094D01*
X0228325Y0176077D01*
X0231378Y0176077D01*
X0225291Y0176077D02*
X0223256Y0176077D01*
X0224274Y0176077D02*
X0224274Y0182182D01*
X0223256Y0182182D01*
X0221249Y0180147D02*
X0221249Y0176077D01*
X0218197Y0176077D01*
X0217179Y0177094D01*
X0217179Y0180147D01*
X0215172Y0182182D02*
X0213137Y0182182D01*
X0214154Y0182182D02*
X0214154Y0177094D01*
X0213137Y0176077D01*
X0212119Y0176077D01*
X0211102Y0177094D01*
X0211102Y0185977D02*
X0211102Y0192082D01*
X0211102Y0189029D02*
X0215172Y0189029D01*
X0217179Y0189029D02*
X0221249Y0189029D01*
X0221249Y0190047D02*
X0219214Y0192082D01*
X0217179Y0190047D01*
X0217179Y0185977D01*
X0215172Y0185977D02*
X0215172Y0192082D01*
X0221249Y0190047D02*
X0221249Y0185977D01*
X0265797Y0185977D02*
X0266814Y0185977D01*
X0266814Y0186994D01*
X0265797Y0186994D01*
X0265797Y0185977D01*
X0268835Y0186994D02*
X0272905Y0191064D01*
X0272905Y0186994D01*
X0271888Y0185977D01*
X0269853Y0185977D01*
X0268835Y0186994D01*
X0268835Y0191064D01*
X0269853Y0192082D01*
X0271888Y0192082D01*
X0272905Y0191064D01*
X0262969Y0026185D02*
X0232969Y0026185D01*
X0232969Y0016185D01*
X0237969Y0016185D01*
X0257969Y0016185D02*
X0262969Y0016185D01*
X0262969Y0026185D01*
X0313324Y0025516D02*
X0313324Y0008980D01*
X0324347Y0008980D01*
X0324347Y0025516D01*
X0313324Y0025516D01*
X0318048Y0021579D02*
X0319623Y0021579D01*
X0319718Y0021577D01*
X0319813Y0021571D01*
X0319908Y0021562D01*
X0320002Y0021548D01*
X0320095Y0021531D01*
X0320188Y0021510D01*
X0320280Y0021486D01*
X0320371Y0021457D01*
X0320461Y0021426D01*
X0320549Y0021390D01*
X0320636Y0021351D01*
X0320721Y0021308D01*
X0320804Y0021263D01*
X0320885Y0021213D01*
X0320965Y0021161D01*
X0321042Y0021105D01*
X0321117Y0021047D01*
X0321189Y0020985D01*
X0321259Y0020920D01*
X0321326Y0020853D01*
X0321391Y0020783D01*
X0321453Y0020711D01*
X0321511Y0020636D01*
X0321567Y0020559D01*
X0321619Y0020479D01*
X0321669Y0020398D01*
X0321714Y0020315D01*
X0321757Y0020230D01*
X0321796Y0020143D01*
X0321832Y0020055D01*
X0321863Y0019965D01*
X0321892Y0019874D01*
X0321916Y0019782D01*
X0321937Y0019689D01*
X0321954Y0019596D01*
X0321968Y0019502D01*
X0321977Y0019407D01*
X0321983Y0019312D01*
X0321985Y0019217D01*
X0321985Y0015280D01*
X0321983Y0015185D01*
X0321977Y0015090D01*
X0321968Y0014995D01*
X0321954Y0014901D01*
X0321937Y0014808D01*
X0321916Y0014715D01*
X0321892Y0014623D01*
X0321863Y0014532D01*
X0321832Y0014442D01*
X0321796Y0014354D01*
X0321757Y0014267D01*
X0321714Y0014182D01*
X0321669Y0014099D01*
X0321619Y0014018D01*
X0321567Y0013938D01*
X0321511Y0013861D01*
X0321453Y0013786D01*
X0321391Y0013714D01*
X0321326Y0013644D01*
X0321259Y0013577D01*
X0321189Y0013512D01*
X0321117Y0013450D01*
X0321042Y0013392D01*
X0320965Y0013336D01*
X0320885Y0013284D01*
X0320804Y0013234D01*
X0320721Y0013189D01*
X0320636Y0013146D01*
X0320549Y0013107D01*
X0320461Y0013071D01*
X0320371Y0013040D01*
X0320280Y0013011D01*
X0320188Y0012987D01*
X0320095Y0012966D01*
X0320002Y0012949D01*
X0319908Y0012935D01*
X0319813Y0012926D01*
X0319718Y0012920D01*
X0319623Y0012918D01*
X0319623Y0012917D02*
X0318048Y0012917D01*
X0318048Y0012918D02*
X0317953Y0012920D01*
X0317858Y0012926D01*
X0317763Y0012935D01*
X0317669Y0012949D01*
X0317576Y0012966D01*
X0317483Y0012987D01*
X0317391Y0013011D01*
X0317300Y0013040D01*
X0317210Y0013071D01*
X0317122Y0013107D01*
X0317035Y0013146D01*
X0316950Y0013189D01*
X0316867Y0013234D01*
X0316786Y0013284D01*
X0316706Y0013336D01*
X0316629Y0013392D01*
X0316554Y0013450D01*
X0316482Y0013512D01*
X0316412Y0013577D01*
X0316345Y0013644D01*
X0316280Y0013714D01*
X0316218Y0013786D01*
X0316160Y0013861D01*
X0316104Y0013938D01*
X0316052Y0014018D01*
X0316002Y0014099D01*
X0315957Y0014182D01*
X0315914Y0014267D01*
X0315875Y0014354D01*
X0315839Y0014442D01*
X0315808Y0014532D01*
X0315779Y0014623D01*
X0315755Y0014715D01*
X0315734Y0014808D01*
X0315717Y0014901D01*
X0315703Y0014995D01*
X0315694Y0015090D01*
X0315688Y0015185D01*
X0315686Y0015280D01*
X0315686Y0019217D01*
X0315688Y0019312D01*
X0315694Y0019407D01*
X0315703Y0019502D01*
X0315717Y0019596D01*
X0315734Y0019689D01*
X0315755Y0019782D01*
X0315779Y0019874D01*
X0315808Y0019965D01*
X0315839Y0020055D01*
X0315875Y0020143D01*
X0315914Y0020230D01*
X0315957Y0020315D01*
X0316002Y0020398D01*
X0316052Y0020479D01*
X0316104Y0020559D01*
X0316160Y0020636D01*
X0316218Y0020711D01*
X0316280Y0020783D01*
X0316345Y0020853D01*
X0316412Y0020920D01*
X0316482Y0020985D01*
X0316554Y0021047D01*
X0316629Y0021105D01*
X0316706Y0021161D01*
X0316786Y0021213D01*
X0316867Y0021263D01*
X0316950Y0021308D01*
X0317035Y0021351D01*
X0317122Y0021390D01*
X0317210Y0021426D01*
X0317300Y0021457D01*
X0317391Y0021486D01*
X0317483Y0021510D01*
X0317576Y0021531D01*
X0317669Y0021548D01*
X0317763Y0021562D01*
X0317858Y0021571D01*
X0317953Y0021577D01*
X0318048Y0021579D01*
X0344820Y0025516D02*
X0344820Y0008980D01*
X0355843Y0008980D01*
X0355843Y0025516D01*
X0344820Y0025516D01*
X0349544Y0021579D02*
X0351119Y0021579D01*
X0351214Y0021577D01*
X0351309Y0021571D01*
X0351404Y0021562D01*
X0351498Y0021548D01*
X0351591Y0021531D01*
X0351684Y0021510D01*
X0351776Y0021486D01*
X0351867Y0021457D01*
X0351957Y0021426D01*
X0352045Y0021390D01*
X0352132Y0021351D01*
X0352217Y0021308D01*
X0352300Y0021263D01*
X0352381Y0021213D01*
X0352461Y0021161D01*
X0352538Y0021105D01*
X0352613Y0021047D01*
X0352685Y0020985D01*
X0352755Y0020920D01*
X0352822Y0020853D01*
X0352887Y0020783D01*
X0352949Y0020711D01*
X0353007Y0020636D01*
X0353063Y0020559D01*
X0353115Y0020479D01*
X0353165Y0020398D01*
X0353210Y0020315D01*
X0353253Y0020230D01*
X0353292Y0020143D01*
X0353328Y0020055D01*
X0353359Y0019965D01*
X0353388Y0019874D01*
X0353412Y0019782D01*
X0353433Y0019689D01*
X0353450Y0019596D01*
X0353464Y0019502D01*
X0353473Y0019407D01*
X0353479Y0019312D01*
X0353481Y0019217D01*
X0353481Y0015280D01*
X0353479Y0015185D01*
X0353473Y0015090D01*
X0353464Y0014995D01*
X0353450Y0014901D01*
X0353433Y0014808D01*
X0353412Y0014715D01*
X0353388Y0014623D01*
X0353359Y0014532D01*
X0353328Y0014442D01*
X0353292Y0014354D01*
X0353253Y0014267D01*
X0353210Y0014182D01*
X0353165Y0014099D01*
X0353115Y0014018D01*
X0353063Y0013938D01*
X0353007Y0013861D01*
X0352949Y0013786D01*
X0352887Y0013714D01*
X0352822Y0013644D01*
X0352755Y0013577D01*
X0352685Y0013512D01*
X0352613Y0013450D01*
X0352538Y0013392D01*
X0352461Y0013336D01*
X0352381Y0013284D01*
X0352300Y0013234D01*
X0352217Y0013189D01*
X0352132Y0013146D01*
X0352045Y0013107D01*
X0351957Y0013071D01*
X0351867Y0013040D01*
X0351776Y0013011D01*
X0351684Y0012987D01*
X0351591Y0012966D01*
X0351498Y0012949D01*
X0351404Y0012935D01*
X0351309Y0012926D01*
X0351214Y0012920D01*
X0351119Y0012918D01*
X0351119Y0012917D02*
X0349544Y0012917D01*
X0349544Y0012918D02*
X0349449Y0012920D01*
X0349354Y0012926D01*
X0349259Y0012935D01*
X0349165Y0012949D01*
X0349072Y0012966D01*
X0348979Y0012987D01*
X0348887Y0013011D01*
X0348796Y0013040D01*
X0348706Y0013071D01*
X0348618Y0013107D01*
X0348531Y0013146D01*
X0348446Y0013189D01*
X0348363Y0013234D01*
X0348282Y0013284D01*
X0348202Y0013336D01*
X0348125Y0013392D01*
X0348050Y0013450D01*
X0347978Y0013512D01*
X0347908Y0013577D01*
X0347841Y0013644D01*
X0347776Y0013714D01*
X0347714Y0013786D01*
X0347656Y0013861D01*
X0347600Y0013938D01*
X0347548Y0014018D01*
X0347498Y0014099D01*
X0347453Y0014182D01*
X0347410Y0014267D01*
X0347371Y0014354D01*
X0347335Y0014442D01*
X0347304Y0014532D01*
X0347275Y0014623D01*
X0347251Y0014715D01*
X0347230Y0014808D01*
X0347213Y0014901D01*
X0347199Y0014995D01*
X0347190Y0015090D01*
X0347184Y0015185D01*
X0347182Y0015280D01*
X0347182Y0019217D01*
X0347184Y0019312D01*
X0347190Y0019407D01*
X0347199Y0019502D01*
X0347213Y0019596D01*
X0347230Y0019689D01*
X0347251Y0019782D01*
X0347275Y0019874D01*
X0347304Y0019965D01*
X0347335Y0020055D01*
X0347371Y0020143D01*
X0347410Y0020230D01*
X0347453Y0020315D01*
X0347498Y0020398D01*
X0347548Y0020479D01*
X0347600Y0020559D01*
X0347656Y0020636D01*
X0347714Y0020711D01*
X0347776Y0020783D01*
X0347841Y0020853D01*
X0347908Y0020920D01*
X0347978Y0020985D01*
X0348050Y0021047D01*
X0348125Y0021105D01*
X0348202Y0021161D01*
X0348282Y0021213D01*
X0348363Y0021263D01*
X0348446Y0021308D01*
X0348531Y0021351D01*
X0348618Y0021390D01*
X0348706Y0021426D01*
X0348796Y0021457D01*
X0348887Y0021486D01*
X0348979Y0021510D01*
X0349072Y0021531D01*
X0349165Y0021548D01*
X0349259Y0021562D01*
X0349354Y0021571D01*
X0349449Y0021577D01*
X0349544Y0021579D01*
X0390095Y0025516D02*
X0390095Y0008980D01*
X0401119Y0008980D01*
X0401119Y0025516D01*
X0390095Y0025516D01*
X0394820Y0021579D02*
X0396394Y0021579D01*
X0396489Y0021577D01*
X0396584Y0021571D01*
X0396679Y0021562D01*
X0396773Y0021548D01*
X0396866Y0021531D01*
X0396959Y0021510D01*
X0397051Y0021486D01*
X0397142Y0021457D01*
X0397232Y0021426D01*
X0397320Y0021390D01*
X0397407Y0021351D01*
X0397492Y0021308D01*
X0397575Y0021263D01*
X0397656Y0021213D01*
X0397736Y0021161D01*
X0397813Y0021105D01*
X0397888Y0021047D01*
X0397960Y0020985D01*
X0398030Y0020920D01*
X0398097Y0020853D01*
X0398162Y0020783D01*
X0398224Y0020711D01*
X0398282Y0020636D01*
X0398338Y0020559D01*
X0398390Y0020479D01*
X0398440Y0020398D01*
X0398485Y0020315D01*
X0398528Y0020230D01*
X0398567Y0020143D01*
X0398603Y0020055D01*
X0398634Y0019965D01*
X0398663Y0019874D01*
X0398687Y0019782D01*
X0398708Y0019689D01*
X0398725Y0019596D01*
X0398739Y0019502D01*
X0398748Y0019407D01*
X0398754Y0019312D01*
X0398756Y0019217D01*
X0398757Y0019217D02*
X0398757Y0015280D01*
X0398756Y0015280D02*
X0398754Y0015185D01*
X0398748Y0015090D01*
X0398739Y0014995D01*
X0398725Y0014901D01*
X0398708Y0014808D01*
X0398687Y0014715D01*
X0398663Y0014623D01*
X0398634Y0014532D01*
X0398603Y0014442D01*
X0398567Y0014354D01*
X0398528Y0014267D01*
X0398485Y0014182D01*
X0398440Y0014099D01*
X0398390Y0014018D01*
X0398338Y0013938D01*
X0398282Y0013861D01*
X0398224Y0013786D01*
X0398162Y0013714D01*
X0398097Y0013644D01*
X0398030Y0013577D01*
X0397960Y0013512D01*
X0397888Y0013450D01*
X0397813Y0013392D01*
X0397736Y0013336D01*
X0397656Y0013284D01*
X0397575Y0013234D01*
X0397492Y0013189D01*
X0397407Y0013146D01*
X0397320Y0013107D01*
X0397232Y0013071D01*
X0397142Y0013040D01*
X0397051Y0013011D01*
X0396959Y0012987D01*
X0396866Y0012966D01*
X0396773Y0012949D01*
X0396679Y0012935D01*
X0396584Y0012926D01*
X0396489Y0012920D01*
X0396394Y0012918D01*
X0396394Y0012917D02*
X0394820Y0012917D01*
X0394820Y0012918D02*
X0394725Y0012920D01*
X0394630Y0012926D01*
X0394535Y0012935D01*
X0394441Y0012949D01*
X0394348Y0012966D01*
X0394255Y0012987D01*
X0394163Y0013011D01*
X0394072Y0013040D01*
X0393982Y0013071D01*
X0393894Y0013107D01*
X0393807Y0013146D01*
X0393722Y0013189D01*
X0393639Y0013234D01*
X0393558Y0013284D01*
X0393478Y0013336D01*
X0393401Y0013392D01*
X0393326Y0013450D01*
X0393254Y0013512D01*
X0393184Y0013577D01*
X0393117Y0013644D01*
X0393052Y0013714D01*
X0392990Y0013786D01*
X0392932Y0013861D01*
X0392876Y0013938D01*
X0392824Y0014018D01*
X0392774Y0014099D01*
X0392729Y0014182D01*
X0392686Y0014267D01*
X0392647Y0014354D01*
X0392611Y0014442D01*
X0392580Y0014532D01*
X0392551Y0014623D01*
X0392527Y0014715D01*
X0392506Y0014808D01*
X0392489Y0014901D01*
X0392475Y0014995D01*
X0392466Y0015090D01*
X0392460Y0015185D01*
X0392458Y0015280D01*
X0392457Y0015280D02*
X0392457Y0019217D01*
X0392458Y0019217D02*
X0392460Y0019312D01*
X0392466Y0019407D01*
X0392475Y0019502D01*
X0392489Y0019596D01*
X0392506Y0019689D01*
X0392527Y0019782D01*
X0392551Y0019874D01*
X0392580Y0019965D01*
X0392611Y0020055D01*
X0392647Y0020143D01*
X0392686Y0020230D01*
X0392729Y0020315D01*
X0392774Y0020398D01*
X0392824Y0020479D01*
X0392876Y0020559D01*
X0392932Y0020636D01*
X0392990Y0020711D01*
X0393052Y0020783D01*
X0393117Y0020853D01*
X0393184Y0020920D01*
X0393254Y0020985D01*
X0393326Y0021047D01*
X0393401Y0021105D01*
X0393478Y0021161D01*
X0393558Y0021213D01*
X0393639Y0021263D01*
X0393722Y0021308D01*
X0393807Y0021351D01*
X0393894Y0021390D01*
X0393982Y0021426D01*
X0394072Y0021457D01*
X0394163Y0021486D01*
X0394255Y0021510D01*
X0394348Y0021531D01*
X0394441Y0021548D01*
X0394535Y0021562D01*
X0394630Y0021571D01*
X0394725Y0021577D01*
X0394820Y0021579D01*
D12*
X0371985Y0007406D02*
X0372379Y0119217D01*
X0371591Y0119610D02*
X0371591Y0192051D01*
X0297576Y0191657D02*
X0297182Y0168429D01*
X0297576Y0171185D02*
X0226316Y0170791D01*
X0297576Y0171185D02*
X0297182Y0091657D01*
X0297182Y0007406D01*
X0226316Y0007406D02*
X0226316Y0094020D01*
X0297182Y0094020D01*
X0297182Y0091657D01*
X0297969Y0120004D02*
X0443639Y0119610D01*
X0419623Y0119217D02*
X0419229Y0007406D01*
D13*
X0197438Y0033029D02*
X0194970Y0033029D01*
X0196204Y0034264D02*
X0196204Y0031795D01*
X0206964Y0033776D02*
X0209867Y0033776D01*
X0209867Y0035711D01*
X0209867Y0036723D02*
X0206964Y0036723D01*
X0206964Y0038657D01*
X0206964Y0039669D02*
X0206964Y0041120D01*
X0207448Y0041604D01*
X0209383Y0041604D01*
X0209867Y0041120D01*
X0209867Y0039669D01*
X0206964Y0039669D01*
X0208415Y0037690D02*
X0208415Y0036723D01*
X0209867Y0036723D02*
X0209867Y0038657D01*
X0209867Y0042616D02*
X0207932Y0044551D01*
X0207448Y0044551D01*
X0206964Y0044067D01*
X0206964Y0043099D01*
X0207448Y0042616D01*
X0209867Y0042616D02*
X0209867Y0044551D01*
X0208415Y0045562D02*
X0208415Y0047497D01*
X0206964Y0048509D02*
X0206964Y0049476D01*
X0206964Y0048992D02*
X0209867Y0048992D01*
X0209867Y0048509D02*
X0209867Y0049476D01*
X0209867Y0050473D02*
X0206964Y0050473D01*
X0206964Y0051924D01*
X0207448Y0052408D01*
X0208415Y0052408D01*
X0208899Y0051924D01*
X0208899Y0050473D01*
X0208899Y0051440D02*
X0209867Y0052408D01*
X0271072Y0028844D02*
X0271072Y0025941D01*
X0273007Y0025941D01*
X0274019Y0025941D02*
X0275954Y0025941D01*
X0276965Y0025941D02*
X0278416Y0025941D01*
X0278900Y0026425D01*
X0278900Y0028360D01*
X0278416Y0028844D01*
X0276965Y0028844D01*
X0276965Y0025941D01*
X0274986Y0027393D02*
X0274019Y0027393D01*
X0274019Y0028844D02*
X0274019Y0025941D01*
X0274019Y0028844D02*
X0275954Y0028844D01*
X0279912Y0028360D02*
X0279912Y0027876D01*
X0280395Y0027393D01*
X0281363Y0027393D01*
X0281847Y0026909D01*
X0281847Y0026425D01*
X0281363Y0025941D01*
X0280395Y0025941D01*
X0279912Y0026425D01*
X0279912Y0026909D01*
X0280395Y0027393D01*
X0281363Y0027393D02*
X0281847Y0027876D01*
X0281847Y0028360D01*
X0281363Y0028844D01*
X0280395Y0028844D01*
X0279912Y0028360D01*
X0282858Y0027393D02*
X0284793Y0027393D01*
X0285805Y0028844D02*
X0286772Y0028844D01*
X0286288Y0028844D02*
X0286288Y0025941D01*
X0285805Y0025941D02*
X0286772Y0025941D01*
X0287769Y0025941D02*
X0287769Y0028844D01*
X0289220Y0028844D01*
X0289704Y0028360D01*
X0289704Y0027393D01*
X0289220Y0026909D01*
X0287769Y0026909D01*
X0288736Y0026909D02*
X0289704Y0025941D01*
X0290716Y0027393D02*
X0292650Y0027393D01*
X0293662Y0026909D02*
X0295113Y0026909D01*
X0295597Y0027393D01*
X0295597Y0028360D01*
X0295113Y0028844D01*
X0293662Y0028844D01*
X0293662Y0025941D01*
X0294630Y0026909D02*
X0295597Y0025941D01*
X0296609Y0026425D02*
X0297092Y0025941D01*
X0298060Y0025941D01*
X0298544Y0026425D01*
X0299555Y0026909D02*
X0300523Y0025941D01*
X0301490Y0026909D01*
X0301490Y0028844D01*
X0299555Y0028844D02*
X0299555Y0026909D01*
X0298544Y0028360D02*
X0298060Y0028844D01*
X0297092Y0028844D01*
X0296609Y0028360D01*
X0296609Y0026425D01*
X0307909Y0026690D02*
X0308393Y0027174D01*
X0309360Y0027174D01*
X0309844Y0026690D01*
X0309844Y0025239D01*
X0310811Y0025239D02*
X0307909Y0025239D01*
X0307909Y0026690D01*
X0308393Y0028185D02*
X0308876Y0028185D01*
X0309360Y0028669D01*
X0309360Y0029637D01*
X0309844Y0030120D01*
X0310328Y0030120D01*
X0310811Y0029637D01*
X0310811Y0028669D01*
X0310328Y0028185D01*
X0308393Y0028185D02*
X0307909Y0028669D01*
X0307909Y0029637D01*
X0308393Y0030120D01*
X0307909Y0024227D02*
X0310811Y0024227D01*
X0309844Y0023260D01*
X0310811Y0022292D01*
X0307909Y0022292D01*
X0310811Y0018349D02*
X0310811Y0017381D01*
X0310811Y0017865D02*
X0308876Y0017865D01*
X0308876Y0017381D01*
X0307909Y0017865D02*
X0307425Y0017865D01*
X0307909Y0016370D02*
X0307909Y0014435D01*
X0310811Y0014435D01*
X0310811Y0013438D02*
X0310811Y0012471D01*
X0310811Y0012954D02*
X0308876Y0012954D01*
X0308876Y0012471D01*
X0307909Y0012954D02*
X0307425Y0012954D01*
X0307909Y0011459D02*
X0310811Y0011459D01*
X0309844Y0010491D01*
X0310811Y0009524D01*
X0307909Y0009524D01*
X0309360Y0014435D02*
X0309360Y0015402D01*
X0293905Y0015239D02*
X0293905Y0013787D01*
X0293421Y0013304D01*
X0292938Y0013787D01*
X0292454Y0013304D01*
X0291970Y0013787D01*
X0291970Y0015239D01*
X0290959Y0014755D02*
X0290475Y0015239D01*
X0289507Y0015239D01*
X0289024Y0014755D01*
X0289024Y0013787D01*
X0289507Y0013304D01*
X0290475Y0013304D01*
X0290959Y0013787D01*
X0290959Y0014755D01*
X0288027Y0013304D02*
X0287059Y0013304D01*
X0287543Y0013304D02*
X0287543Y0016206D01*
X0287059Y0016206D01*
X0285579Y0016206D02*
X0285579Y0013304D01*
X0286062Y0013304D02*
X0285095Y0013304D01*
X0284083Y0014271D02*
X0282148Y0014271D01*
X0282148Y0013787D02*
X0282148Y0014755D01*
X0282632Y0015239D01*
X0283600Y0015239D01*
X0284083Y0014755D01*
X0284083Y0014271D01*
X0283600Y0013304D02*
X0282632Y0013304D01*
X0282148Y0013787D01*
X0280169Y0013304D02*
X0280169Y0014755D01*
X0281137Y0015722D01*
X0281137Y0016206D01*
X0280169Y0014755D02*
X0279202Y0015722D01*
X0279202Y0016206D01*
X0285095Y0016206D02*
X0285579Y0016206D01*
X0274210Y0021218D02*
X0271741Y0021218D01*
X0272976Y0022452D02*
X0272976Y0019984D01*
X0251758Y0007853D02*
X0251758Y0005918D01*
X0250791Y0004951D01*
X0249823Y0005918D01*
X0249823Y0007853D01*
X0248812Y0007370D02*
X0248328Y0007853D01*
X0247360Y0007853D01*
X0246877Y0007370D01*
X0246877Y0005435D01*
X0247360Y0004951D01*
X0248328Y0004951D01*
X0248812Y0005435D01*
X0245865Y0004951D02*
X0244898Y0005918D01*
X0245381Y0005918D02*
X0243930Y0005918D01*
X0243930Y0004951D02*
X0243930Y0007853D01*
X0245381Y0007853D01*
X0245865Y0007370D01*
X0245865Y0006402D01*
X0245381Y0005918D01*
X0242919Y0006402D02*
X0242919Y0007370D01*
X0242435Y0007853D01*
X0240984Y0007853D01*
X0240984Y0004951D01*
X0240984Y0005918D02*
X0242435Y0005918D01*
X0242919Y0006402D01*
X0241951Y0005918D02*
X0242919Y0004951D01*
X0239987Y0004951D02*
X0239019Y0004951D01*
X0239503Y0004951D02*
X0239503Y0007853D01*
X0239019Y0007853D02*
X0239987Y0007853D01*
X0338618Y0012870D02*
X0338618Y0014805D01*
X0338618Y0015817D02*
X0341036Y0015817D01*
X0341520Y0016301D01*
X0341520Y0017268D01*
X0341036Y0017752D01*
X0338618Y0017752D01*
X0338618Y0018764D02*
X0341520Y0020698D01*
X0338618Y0020698D01*
X0339101Y0021710D02*
X0341036Y0021710D01*
X0341520Y0022194D01*
X0341520Y0023161D01*
X0341036Y0023645D01*
X0339101Y0023645D02*
X0338618Y0023161D01*
X0338618Y0022194D01*
X0339101Y0021710D01*
X0338618Y0018764D02*
X0341520Y0018764D01*
X0340069Y0013838D02*
X0340069Y0012870D01*
X0341520Y0012870D02*
X0338618Y0012870D01*
X0384681Y0012944D02*
X0385164Y0013427D01*
X0386132Y0013427D01*
X0386616Y0012944D01*
X0386616Y0011493D01*
X0386616Y0012460D02*
X0387583Y0013427D01*
X0387583Y0014439D02*
X0387583Y0016374D01*
X0387099Y0017386D02*
X0387583Y0017869D01*
X0387583Y0018837D01*
X0387099Y0019321D01*
X0386616Y0019321D01*
X0386132Y0018837D01*
X0386132Y0017869D01*
X0385648Y0017386D01*
X0385164Y0017386D01*
X0384681Y0017869D01*
X0384681Y0018837D01*
X0385164Y0019321D01*
X0384681Y0020332D02*
X0387583Y0020332D01*
X0387583Y0022267D01*
X0386132Y0021300D02*
X0386132Y0020332D01*
X0384681Y0020332D02*
X0384681Y0022267D01*
X0384681Y0023279D02*
X0384681Y0025214D01*
X0384681Y0024246D02*
X0387583Y0024246D01*
X0384681Y0016374D02*
X0384681Y0014439D01*
X0387583Y0014439D01*
X0386132Y0014439D02*
X0386132Y0015407D01*
X0384681Y0012944D02*
X0384681Y0011493D01*
X0387583Y0011493D01*
X0438998Y0037700D02*
X0438998Y0038935D01*
X0439615Y0039552D01*
X0442084Y0039552D01*
X0442701Y0038935D01*
X0442701Y0037700D01*
X0442084Y0037083D01*
X0439615Y0037083D01*
X0438998Y0037700D01*
X0441467Y0038317D02*
X0442701Y0039552D01*
X0442701Y0040766D02*
X0438998Y0040766D01*
X0440232Y0040766D02*
X0440232Y0042618D01*
X0440850Y0043235D01*
X0442084Y0043235D01*
X0442701Y0042618D01*
X0442701Y0040766D01*
X0442701Y0044449D02*
X0442701Y0045684D01*
X0442701Y0045067D02*
X0440232Y0045067D01*
X0440232Y0044449D01*
X0438998Y0045067D02*
X0438381Y0045067D01*
X0440232Y0046905D02*
X0440232Y0048139D01*
X0439615Y0047522D02*
X0442084Y0047522D01*
X0442701Y0048139D01*
X0442701Y0049360D02*
X0438998Y0049360D01*
X0438998Y0051212D01*
X0439615Y0051829D01*
X0442084Y0051829D01*
X0442701Y0051212D01*
X0442701Y0049360D01*
X0442084Y0053043D02*
X0440850Y0053043D01*
X0440232Y0053661D01*
X0440232Y0054895D01*
X0440850Y0055512D01*
X0441467Y0055512D01*
X0441467Y0053043D01*
X0442084Y0053043D02*
X0442701Y0053661D01*
X0442701Y0054895D01*
X0442701Y0057961D02*
X0440232Y0056727D01*
X0440232Y0059195D02*
X0442701Y0057961D01*
X0442701Y0060410D02*
X0442701Y0061644D01*
X0442701Y0061027D02*
X0440232Y0061027D01*
X0440232Y0060410D01*
X0438998Y0061027D02*
X0438381Y0061027D01*
X0440232Y0063482D02*
X0440850Y0062865D01*
X0442084Y0062865D01*
X0442701Y0063482D01*
X0442701Y0065334D01*
X0442084Y0066548D02*
X0440850Y0066548D01*
X0440232Y0067165D01*
X0440232Y0068400D01*
X0440850Y0069017D01*
X0441467Y0069017D01*
X0441467Y0066548D01*
X0442084Y0066548D02*
X0442701Y0067165D01*
X0442701Y0068400D01*
X0442701Y0070231D02*
X0442701Y0072083D01*
X0442084Y0072700D01*
X0441467Y0072083D01*
X0441467Y0070849D01*
X0440850Y0070231D01*
X0440232Y0070849D01*
X0440232Y0072700D01*
X0442084Y0073915D02*
X0442084Y0074532D01*
X0442701Y0074532D01*
X0442701Y0073915D01*
X0442084Y0073915D01*
X0442084Y0075756D02*
X0442701Y0076373D01*
X0442084Y0076990D01*
X0442701Y0077608D01*
X0442084Y0078225D01*
X0440232Y0078225D01*
X0440850Y0079439D02*
X0442084Y0079439D01*
X0442701Y0080056D01*
X0442701Y0081291D01*
X0442084Y0081908D01*
X0440850Y0081908D01*
X0440232Y0081291D01*
X0440232Y0080056D01*
X0440850Y0079439D01*
X0440232Y0075756D02*
X0442084Y0075756D01*
X0442701Y0083122D02*
X0440232Y0083122D01*
X0440232Y0084357D02*
X0440232Y0084974D01*
X0440232Y0084357D02*
X0441467Y0083122D01*
X0442084Y0086192D02*
X0440850Y0086192D01*
X0440232Y0086809D01*
X0440232Y0088660D01*
X0440232Y0089875D02*
X0440232Y0091726D01*
X0440850Y0092344D01*
X0442084Y0092344D01*
X0442701Y0091726D01*
X0442701Y0089875D01*
X0442701Y0088660D02*
X0438998Y0088660D01*
X0440232Y0089875D02*
X0443936Y0089875D01*
X0442701Y0088660D02*
X0442701Y0086809D01*
X0442084Y0086192D01*
X0442701Y0093558D02*
X0440232Y0093558D01*
X0440232Y0094792D02*
X0440232Y0095410D01*
X0440232Y0094792D02*
X0441467Y0093558D01*
X0441467Y0096627D02*
X0441467Y0099096D01*
X0440850Y0099096D01*
X0440232Y0098479D01*
X0440232Y0097244D01*
X0440850Y0096627D01*
X0442084Y0096627D01*
X0442701Y0097244D01*
X0442701Y0098479D01*
X0442701Y0100310D02*
X0442701Y0102162D01*
X0442084Y0102779D01*
X0441467Y0102162D01*
X0441467Y0100928D01*
X0440850Y0100310D01*
X0440232Y0100928D01*
X0440232Y0102779D01*
X0440850Y0103994D02*
X0440232Y0104611D01*
X0440232Y0106462D01*
X0441467Y0105845D02*
X0441467Y0104611D01*
X0440850Y0103994D01*
X0442701Y0103994D02*
X0442701Y0105845D01*
X0442084Y0106462D01*
X0441467Y0105845D01*
X0442084Y0107677D02*
X0442084Y0108294D01*
X0442701Y0108294D01*
X0442701Y0107677D01*
X0442084Y0107677D01*
X0442084Y0109518D02*
X0440850Y0109518D01*
X0440232Y0110135D01*
X0440232Y0111987D01*
X0440850Y0113201D02*
X0442084Y0113201D01*
X0442701Y0113819D01*
X0442701Y0115053D01*
X0442084Y0115670D01*
X0440850Y0115670D01*
X0440232Y0115053D01*
X0440232Y0113819D01*
X0440850Y0113201D01*
X0442701Y0111987D02*
X0442701Y0110135D01*
X0442084Y0109518D01*
X0442701Y0116885D02*
X0440232Y0116885D01*
X0440232Y0117502D01*
X0440850Y0118119D01*
X0440232Y0118736D01*
X0440850Y0119353D01*
X0442701Y0119353D01*
X0442701Y0118119D02*
X0440850Y0118119D01*
X0440085Y0126138D02*
X0438150Y0126138D01*
X0439118Y0126138D02*
X0439118Y0129041D01*
X0438150Y0128073D01*
X0437139Y0128557D02*
X0436655Y0129041D01*
X0435204Y0129041D01*
X0435204Y0126138D01*
X0436655Y0126138D01*
X0437139Y0126622D01*
X0437139Y0128557D01*
X0434192Y0129041D02*
X0434192Y0126138D01*
X0432257Y0129041D01*
X0432257Y0126138D01*
X0431260Y0126138D02*
X0430293Y0126138D01*
X0430777Y0126138D02*
X0430777Y0129041D01*
X0431260Y0129041D02*
X0430293Y0129041D01*
X0429281Y0127589D02*
X0427346Y0127589D01*
X0426335Y0127589D02*
X0426335Y0126622D01*
X0425851Y0126138D01*
X0424884Y0126138D01*
X0424400Y0126622D01*
X0424400Y0127589D02*
X0425367Y0128073D01*
X0425851Y0128073D01*
X0426335Y0127589D01*
X0426335Y0129041D02*
X0424400Y0129041D01*
X0424400Y0127589D01*
X0423388Y0126622D02*
X0423388Y0128557D01*
X0422905Y0129041D01*
X0421453Y0129041D01*
X0421453Y0126138D01*
X0422905Y0126138D01*
X0423388Y0126622D01*
X0420442Y0126138D02*
X0418507Y0126138D01*
X0418507Y0129041D01*
X0420442Y0129041D01*
X0419474Y0127589D02*
X0418507Y0127589D01*
X0417495Y0126138D02*
X0415560Y0126138D01*
X0415560Y0129041D01*
X0433413Y0132376D02*
X0435881Y0132376D01*
X0434647Y0133610D02*
X0434647Y0131141D01*
X0434810Y0139918D02*
X0436261Y0139918D01*
X0436745Y0140401D01*
X0436745Y0142336D01*
X0436261Y0142820D01*
X0434810Y0142820D01*
X0434810Y0139918D01*
X0433798Y0139918D02*
X0433798Y0142820D01*
X0431863Y0142820D02*
X0431863Y0139918D01*
X0430867Y0139918D02*
X0429899Y0139918D01*
X0430383Y0139918D02*
X0430383Y0142820D01*
X0429899Y0142820D02*
X0430867Y0142820D01*
X0431863Y0142820D02*
X0433798Y0139918D01*
X0437757Y0139918D02*
X0439691Y0141853D01*
X0439691Y0142336D01*
X0439208Y0142820D01*
X0438240Y0142820D01*
X0437757Y0142336D01*
X0437757Y0139918D02*
X0439691Y0139918D01*
X0434647Y0144921D02*
X0434647Y0147390D01*
X0433413Y0146155D02*
X0435881Y0146155D01*
X0428888Y0141369D02*
X0426953Y0141369D01*
X0425941Y0140885D02*
X0425457Y0141369D01*
X0424006Y0141369D01*
X0424006Y0140401D01*
X0424490Y0139918D01*
X0425457Y0139918D01*
X0425941Y0140401D01*
X0425941Y0140885D01*
X0424974Y0142336D02*
X0424006Y0141369D01*
X0424974Y0142336D02*
X0425941Y0142820D01*
X0422995Y0142336D02*
X0422995Y0140401D01*
X0422511Y0139918D01*
X0421060Y0139918D01*
X0421060Y0142820D01*
X0422511Y0142820D01*
X0422995Y0142336D01*
X0420048Y0142820D02*
X0418113Y0142820D01*
X0418113Y0139918D01*
X0420048Y0139918D01*
X0419081Y0141369D02*
X0418113Y0141369D01*
X0417102Y0139918D02*
X0415167Y0139918D01*
X0415167Y0142820D01*
X0415954Y0154091D02*
X0417889Y0154091D01*
X0418900Y0154091D02*
X0420835Y0154091D01*
X0421847Y0154091D02*
X0423298Y0154091D01*
X0423782Y0154575D01*
X0423782Y0156510D01*
X0423298Y0156993D01*
X0421847Y0156993D01*
X0421847Y0154091D01*
X0419868Y0155542D02*
X0418900Y0155542D01*
X0418900Y0156993D02*
X0418900Y0154091D01*
X0415954Y0154091D02*
X0415954Y0156993D01*
X0418900Y0156993D02*
X0420835Y0156993D01*
X0424793Y0156993D02*
X0426728Y0156993D01*
X0426728Y0156510D01*
X0424793Y0154575D01*
X0424793Y0154091D01*
X0427740Y0155542D02*
X0429675Y0155542D01*
X0430687Y0154091D02*
X0431654Y0155058D01*
X0432622Y0154091D01*
X0432622Y0156993D01*
X0433633Y0156993D02*
X0434601Y0156993D01*
X0434117Y0156993D02*
X0434117Y0154091D01*
X0433633Y0154091D02*
X0434601Y0154091D01*
X0435597Y0154091D02*
X0435597Y0156993D01*
X0437532Y0156993D01*
X0438544Y0156993D02*
X0439511Y0156993D01*
X0439028Y0156993D02*
X0439028Y0154091D01*
X0439511Y0154091D02*
X0438544Y0154091D01*
X0436565Y0155542D02*
X0435597Y0155542D01*
X0430687Y0156993D02*
X0430687Y0154091D01*
X0434647Y0158700D02*
X0434647Y0161169D01*
X0433413Y0159935D02*
X0435881Y0159935D01*
X0436186Y0167477D02*
X0436186Y0170379D01*
X0437637Y0170379D01*
X0438121Y0169895D01*
X0438121Y0168928D01*
X0437637Y0168444D01*
X0436186Y0168444D01*
X0437153Y0168444D02*
X0438121Y0167477D01*
X0439132Y0167477D02*
X0439132Y0170379D01*
X0441067Y0167477D01*
X0441067Y0170379D01*
X0435174Y0169412D02*
X0435174Y0167477D01*
X0435174Y0168928D02*
X0433239Y0168928D01*
X0433239Y0169412D02*
X0434207Y0170379D01*
X0435174Y0169412D01*
X0433239Y0169412D02*
X0433239Y0167477D01*
X0432228Y0167477D02*
X0431260Y0168444D01*
X0430293Y0167477D01*
X0430293Y0170379D01*
X0429281Y0168928D02*
X0427346Y0168928D01*
X0426335Y0168928D02*
X0424884Y0168928D01*
X0424400Y0169412D01*
X0424400Y0169895D01*
X0424884Y0170379D01*
X0425851Y0170379D01*
X0426335Y0169895D01*
X0426335Y0167961D01*
X0425851Y0167477D01*
X0424884Y0167477D01*
X0424400Y0167961D01*
X0423388Y0167961D02*
X0423388Y0169895D01*
X0422905Y0170379D01*
X0421453Y0170379D01*
X0421453Y0167477D01*
X0422905Y0167477D01*
X0423388Y0167961D01*
X0420442Y0167477D02*
X0418507Y0167477D01*
X0418507Y0170379D01*
X0420442Y0170379D01*
X0419474Y0168928D02*
X0418507Y0168928D01*
X0417495Y0167477D02*
X0415560Y0167477D01*
X0415560Y0170379D01*
X0432228Y0170379D02*
X0432228Y0167477D01*
X0434647Y0172480D02*
X0434647Y0174949D01*
X0433413Y0173714D02*
X0435881Y0173714D01*
X0436749Y0180863D02*
X0435782Y0181830D01*
X0436265Y0181830D02*
X0434814Y0181830D01*
X0434814Y0180863D02*
X0434814Y0183765D01*
X0436265Y0183765D01*
X0436749Y0183281D01*
X0436749Y0182314D01*
X0436265Y0181830D01*
X0433803Y0180863D02*
X0432835Y0181830D01*
X0431868Y0180863D01*
X0431868Y0183765D01*
X0430856Y0183281D02*
X0430856Y0182314D01*
X0430372Y0181830D01*
X0428921Y0181830D01*
X0428921Y0180863D02*
X0428921Y0183765D01*
X0430372Y0183765D01*
X0430856Y0183281D01*
X0433803Y0183765D02*
X0433803Y0180863D01*
X0427910Y0182314D02*
X0425975Y0182314D01*
X0424963Y0183281D02*
X0424963Y0181346D01*
X0424479Y0180863D01*
X0423028Y0180863D01*
X0423028Y0183765D01*
X0424479Y0183765D01*
X0424963Y0183281D01*
X0422017Y0183765D02*
X0420082Y0183765D01*
X0420082Y0180863D01*
X0422017Y0180863D01*
X0421049Y0182314D02*
X0420082Y0182314D01*
X0419070Y0180863D02*
X0417135Y0180863D01*
X0417135Y0183765D01*
X0433413Y0185525D02*
X0435881Y0185525D01*
X0434647Y0186760D02*
X0434647Y0184291D01*
X0228460Y0122781D02*
X0225558Y0122781D01*
X0225558Y0121814D02*
X0225558Y0123749D01*
X0226042Y0120802D02*
X0225558Y0120318D01*
X0225558Y0119351D01*
X0226042Y0118867D01*
X0227977Y0118867D01*
X0228460Y0119351D01*
X0228460Y0120318D01*
X0227977Y0120802D01*
X0228460Y0117856D02*
X0226525Y0117856D01*
X0225558Y0116888D01*
X0226525Y0115921D01*
X0228460Y0115921D01*
X0227009Y0115921D02*
X0227009Y0117856D01*
X0227009Y0114909D02*
X0227009Y0112974D01*
X0227009Y0111963D02*
X0227493Y0111479D01*
X0227493Y0110028D01*
X0227493Y0110995D02*
X0228460Y0111963D01*
X0227009Y0111963D02*
X0226042Y0111963D01*
X0225558Y0111479D01*
X0225558Y0110028D01*
X0228460Y0110028D01*
X0228460Y0109031D02*
X0228460Y0108063D01*
X0228460Y0108547D02*
X0225558Y0108547D01*
X0225558Y0108063D02*
X0225558Y0109031D01*
X0227009Y0107052D02*
X0227009Y0105117D01*
X0227493Y0104105D02*
X0227977Y0104105D01*
X0228460Y0103621D01*
X0228460Y0102654D01*
X0227977Y0102170D01*
X0227977Y0101159D02*
X0226042Y0101159D01*
X0225558Y0100675D01*
X0225558Y0099224D01*
X0228460Y0099224D01*
X0228460Y0100675D01*
X0227977Y0101159D01*
X0226042Y0102170D02*
X0225558Y0102654D01*
X0225558Y0103621D01*
X0226042Y0104105D01*
X0226525Y0104105D01*
X0227009Y0103621D01*
X0227493Y0104105D01*
X0227009Y0103621D02*
X0227009Y0103138D01*
X0217004Y0104208D02*
X0216520Y0103724D01*
X0215552Y0103724D01*
X0215069Y0104208D01*
X0215069Y0105176D01*
X0215552Y0105659D01*
X0216036Y0105659D01*
X0216036Y0103724D01*
X0217004Y0104208D02*
X0217004Y0105176D01*
X0217004Y0106671D02*
X0217004Y0107638D01*
X0217004Y0107155D02*
X0214101Y0107155D01*
X0214101Y0106671D01*
X0214101Y0108635D02*
X0214101Y0109119D01*
X0217004Y0109119D01*
X0217004Y0108635D02*
X0217004Y0109603D01*
X0216520Y0110599D02*
X0217004Y0111083D01*
X0217004Y0112051D01*
X0216520Y0112534D01*
X0215552Y0112534D01*
X0215069Y0112051D01*
X0215069Y0111083D01*
X0215552Y0110599D01*
X0216520Y0110599D01*
X0216520Y0113546D02*
X0215069Y0113546D01*
X0216520Y0113546D02*
X0217004Y0114030D01*
X0216520Y0114513D01*
X0217004Y0114997D01*
X0216520Y0115481D01*
X0215069Y0115481D01*
X0214585Y0102713D02*
X0214101Y0102713D01*
X0214585Y0102713D02*
X0215552Y0101745D01*
X0217004Y0101745D01*
X0215552Y0101745D02*
X0214585Y0100778D01*
X0214101Y0100778D01*
X0225558Y0098212D02*
X0225558Y0096277D01*
X0228460Y0096277D01*
X0228460Y0098212D01*
X0227009Y0097245D02*
X0227009Y0096277D01*
X0228460Y0095266D02*
X0228460Y0093331D01*
X0225558Y0093331D01*
X0211695Y0153426D02*
X0211695Y0156328D01*
X0209760Y0156328D02*
X0209760Y0153426D01*
X0208749Y0153909D02*
X0208749Y0156328D01*
X0209760Y0156328D02*
X0211695Y0153426D01*
X0208749Y0153909D02*
X0208265Y0153426D01*
X0207298Y0153426D01*
X0206814Y0153909D01*
X0206814Y0156328D01*
X0205802Y0155844D02*
X0205802Y0154877D01*
X0205319Y0154393D01*
X0203867Y0154393D01*
X0203867Y0153426D02*
X0203867Y0156328D01*
X0205319Y0156328D01*
X0205802Y0155844D01*
X0204835Y0154393D02*
X0205802Y0153426D01*
X0206177Y0175115D02*
X0209079Y0175115D01*
X0209079Y0177050D01*
X0209079Y0178061D02*
X0209079Y0179996D01*
X0209079Y0181008D02*
X0209079Y0182459D01*
X0208595Y0182943D01*
X0206660Y0182943D01*
X0206177Y0182459D01*
X0206177Y0181008D01*
X0209079Y0181008D01*
X0207628Y0179029D02*
X0207628Y0178061D01*
X0206177Y0178061D02*
X0209079Y0178061D01*
X0206177Y0178061D02*
X0206177Y0179996D01*
X0207144Y0183954D02*
X0206177Y0184922D01*
X0209079Y0184922D01*
X0209079Y0185889D02*
X0209079Y0183954D01*
X0207628Y0186901D02*
X0207628Y0188836D01*
X0209079Y0189847D02*
X0209079Y0190815D01*
X0209079Y0190331D02*
X0206177Y0190331D01*
X0206177Y0189847D02*
X0206177Y0190815D01*
X0206177Y0191812D02*
X0206177Y0193263D01*
X0206660Y0193746D01*
X0207628Y0193746D01*
X0208112Y0193263D01*
X0208112Y0191812D01*
X0208112Y0192779D02*
X0209079Y0193746D01*
X0209079Y0191812D02*
X0206177Y0191812D01*
X0196204Y0177964D02*
X0196204Y0175496D01*
X0194970Y0176730D02*
X0197438Y0176730D01*
X0440232Y0065334D02*
X0440232Y0063482D01*
D14*
X0356790Y0159879D02*
X0341177Y0148169D01*
X0333402Y0148169D02*
X0317789Y0163783D01*
X0309993Y0171589D02*
X0309993Y0148169D01*
X0317789Y0148169D02*
X0333402Y0163783D01*
X0341177Y0171589D02*
X0356790Y0159879D01*
D15*
X0358304Y0198193D02*
X0353304Y0198193D01*
X0350804Y0200693D01*
X0350804Y0215693D01*
X0353304Y0218193D01*
X0358304Y0218193D01*
X0360804Y0215693D01*
X0360804Y0200693D01*
X0358304Y0198193D01*
X0360804Y0200693D02*
X0363304Y0198193D01*
X0368304Y0198193D01*
X0370804Y0200693D01*
X0370804Y0215693D01*
X0373304Y0218193D01*
X0378304Y0218193D01*
X0380804Y0215693D01*
X0380804Y0200693D01*
X0378304Y0198193D01*
X0373304Y0198193D01*
X0370804Y0200693D01*
X0380804Y0200693D02*
X0383304Y0198193D01*
X0388304Y0198193D01*
X0390804Y0200693D01*
X0390804Y0215693D01*
X0393304Y0218193D01*
X0398304Y0218193D01*
X0400804Y0215693D01*
X0400804Y0200693D01*
X0398304Y0198193D01*
X0393304Y0198193D01*
X0390804Y0200693D01*
X0400804Y0200693D02*
X0403304Y0198193D01*
X0408304Y0198193D01*
X0410804Y0200693D01*
X0413304Y0198193D01*
X0418304Y0198193D01*
X0420804Y0200693D01*
X0420804Y0215693D01*
X0418304Y0218193D01*
X0413304Y0218193D01*
X0410804Y0215693D01*
X0410804Y0200693D01*
X0410804Y0215693D02*
X0408304Y0218193D01*
X0403304Y0218193D01*
X0400804Y0215693D01*
X0390804Y0215693D02*
X0388304Y0218193D01*
X0383304Y0218193D01*
X0380804Y0215693D01*
X0370804Y0215693D02*
X0368304Y0218193D01*
X0363304Y0218193D01*
X0360804Y0215693D01*
X0350804Y0215693D02*
X0348304Y0218193D01*
X0343304Y0218193D01*
X0340804Y0215693D01*
X0340804Y0200693D01*
X0338304Y0198193D01*
X0333304Y0198193D01*
X0330804Y0200693D01*
X0330804Y0215693D01*
X0333304Y0218193D01*
X0338304Y0218193D01*
X0340804Y0215693D01*
X0330804Y0215693D02*
X0328304Y0218193D01*
X0323304Y0218193D01*
X0320804Y0215693D01*
X0320804Y0200693D01*
X0318304Y0198193D01*
X0313304Y0198193D01*
X0310804Y0200693D01*
X0310804Y0215693D01*
X0313304Y0218193D01*
X0318304Y0218193D01*
X0320804Y0215693D01*
X0310804Y0215693D02*
X0308304Y0218193D01*
X0303304Y0218193D01*
X0300804Y0215693D01*
X0300804Y0200693D01*
X0298304Y0198193D01*
X0293304Y0198193D01*
X0290804Y0200693D01*
X0290804Y0215693D01*
X0293304Y0218193D01*
X0298304Y0218193D01*
X0300804Y0215693D01*
X0290804Y0215693D02*
X0288304Y0218193D01*
X0283304Y0218193D01*
X0280804Y0215693D01*
X0280804Y0200693D01*
X0283304Y0198193D01*
X0288304Y0198193D01*
X0290804Y0200693D01*
X0300804Y0200693D02*
X0303304Y0198193D01*
X0308304Y0198193D01*
X0310804Y0200693D01*
X0320804Y0200693D02*
X0323304Y0198193D01*
X0328304Y0198193D01*
X0330804Y0200693D01*
X0340804Y0200693D02*
X0343304Y0198193D01*
X0348304Y0198193D01*
X0350804Y0200693D01*
X0280804Y0200693D02*
X0278304Y0198193D01*
X0273304Y0198193D01*
X0270804Y0200693D01*
X0270804Y0215693D01*
X0273304Y0218193D01*
X0278304Y0218193D01*
X0280804Y0215693D01*
X0270804Y0215693D02*
X0268304Y0218193D01*
X0263304Y0218193D01*
X0260804Y0215693D01*
X0260804Y0200693D01*
X0263304Y0198193D01*
X0268304Y0198193D01*
X0270804Y0200693D01*
X0260804Y0200693D02*
X0258304Y0198193D01*
X0253304Y0198193D01*
X0250804Y0200693D01*
X0250804Y0215693D01*
X0253304Y0218193D01*
X0258304Y0218193D01*
X0260804Y0215693D01*
X0250804Y0215693D02*
X0248304Y0218193D01*
X0243304Y0218193D01*
X0240804Y0215693D01*
X0240804Y0200693D01*
X0243304Y0198193D01*
X0248304Y0198193D01*
X0250804Y0200693D01*
X0240804Y0200693D02*
X0238304Y0198193D01*
X0233304Y0198193D01*
X0230804Y0200693D01*
X0230804Y0215693D01*
X0233304Y0218193D01*
X0238304Y0218193D01*
X0240804Y0215693D01*
X0230804Y0215693D02*
X0228304Y0218193D01*
X0223304Y0218193D01*
X0220804Y0215693D01*
X0220804Y0200693D01*
X0223304Y0198193D01*
X0228304Y0198193D01*
X0230804Y0200693D01*
X0215631Y0168705D02*
X0207631Y0168705D01*
X0206631Y0167705D01*
X0205631Y0168705D01*
X0197631Y0168705D01*
X0196631Y0167705D01*
X0196631Y0159705D01*
X0197631Y0158705D01*
X0205631Y0158705D01*
X0206631Y0159705D01*
X0207631Y0158705D01*
X0215631Y0158705D01*
X0216631Y0159705D01*
X0216631Y0167705D01*
X0215631Y0168705D01*
D16*
X0202103Y0178665D02*
X0202103Y0186146D01*
X0198166Y0186933D02*
X0198166Y0178272D01*
X0244283Y0152637D02*
X0244283Y0151103D01*
X0245051Y0150335D01*
X0245051Y0148801D02*
X0246585Y0148801D01*
X0247353Y0148033D01*
X0247353Y0145731D01*
X0248887Y0145731D02*
X0244283Y0145731D01*
X0244283Y0148033D01*
X0245051Y0148801D01*
X0247353Y0147266D02*
X0248887Y0148801D01*
X0248887Y0150335D02*
X0245818Y0153405D01*
X0245051Y0153405D01*
X0244283Y0152637D01*
X0248887Y0153405D02*
X0248887Y0150335D01*
X0265937Y0148821D02*
X0265937Y0146519D01*
X0270541Y0146519D01*
X0269006Y0146519D02*
X0269006Y0148821D01*
X0268239Y0149588D01*
X0266704Y0149588D01*
X0265937Y0148821D01*
X0266704Y0151123D02*
X0265937Y0151890D01*
X0265937Y0153425D01*
X0266704Y0154192D01*
X0267472Y0154192D01*
X0268239Y0153425D01*
X0269006Y0154192D01*
X0269774Y0154192D01*
X0270541Y0153425D01*
X0270541Y0151890D01*
X0269774Y0151123D01*
X0270541Y0149588D02*
X0269006Y0148054D01*
X0268239Y0152657D02*
X0268239Y0153425D01*
X0288378Y0153445D02*
X0289913Y0151910D01*
X0290680Y0150376D02*
X0291447Y0149608D01*
X0291447Y0147306D01*
X0292982Y0147306D02*
X0288378Y0147306D01*
X0288378Y0149608D01*
X0289145Y0150376D01*
X0290680Y0150376D01*
X0291447Y0148841D02*
X0292982Y0150376D01*
X0292982Y0151910D02*
X0292982Y0154980D01*
X0292982Y0153445D02*
X0288378Y0153445D01*
X0283891Y0111996D02*
X0283891Y0108927D01*
X0280822Y0111996D01*
X0280055Y0111996D01*
X0279287Y0111229D01*
X0279287Y0109694D01*
X0280055Y0108927D01*
X0279287Y0107392D02*
X0279287Y0104323D01*
X0279287Y0105857D02*
X0283891Y0105857D01*
X0262238Y0105857D02*
X0257634Y0105857D01*
X0257634Y0104323D02*
X0257634Y0107392D01*
X0259169Y0108927D02*
X0257634Y0110461D01*
X0262238Y0110461D01*
X0262238Y0108927D02*
X0262238Y0111996D01*
X0310724Y0090674D02*
X0313026Y0090674D01*
X0313793Y0089907D01*
X0313793Y0088372D01*
X0313026Y0087605D01*
X0310724Y0087605D01*
X0312258Y0087605D02*
X0313793Y0086070D01*
X0315328Y0086070D02*
X0318397Y0086070D01*
X0319931Y0086070D02*
X0323001Y0089139D01*
X0323001Y0089907D01*
X0322233Y0090674D01*
X0320699Y0090674D01*
X0319931Y0089907D01*
X0316862Y0090674D02*
X0315328Y0089139D01*
X0316862Y0090674D02*
X0316862Y0086070D01*
X0319931Y0086070D02*
X0323001Y0086070D01*
X0310724Y0086070D02*
X0310724Y0090674D01*
X0339857Y0074139D02*
X0342159Y0074139D01*
X0342927Y0073371D01*
X0342927Y0071837D01*
X0342159Y0071069D01*
X0339857Y0071069D01*
X0339857Y0069535D02*
X0339857Y0074139D01*
X0344461Y0072604D02*
X0345996Y0074139D01*
X0345996Y0069535D01*
X0344461Y0069535D02*
X0347531Y0069535D01*
X0349065Y0070302D02*
X0349833Y0069535D01*
X0351367Y0069535D01*
X0352135Y0070302D01*
X0352135Y0071069D01*
X0351367Y0071837D01*
X0350600Y0071837D01*
X0351367Y0071837D02*
X0352135Y0072604D01*
X0352135Y0073371D01*
X0351367Y0074139D01*
X0349833Y0074139D01*
X0349065Y0073371D01*
X0342927Y0069535D02*
X0341392Y0071069D01*
X0345591Y0059371D02*
X0344824Y0058604D01*
X0344824Y0055534D01*
X0345591Y0054767D01*
X0347126Y0054767D01*
X0347893Y0055534D01*
X0349428Y0054767D02*
X0352497Y0057836D01*
X0352497Y0058604D01*
X0351730Y0059371D01*
X0350195Y0059371D01*
X0349428Y0058604D01*
X0347893Y0058604D02*
X0347126Y0059371D01*
X0345591Y0059371D01*
X0349428Y0054767D02*
X0352497Y0054767D01*
X0386795Y0055420D02*
X0387563Y0054653D01*
X0389097Y0054653D01*
X0389865Y0055420D01*
X0391399Y0055420D02*
X0392167Y0054653D01*
X0393701Y0054653D01*
X0394468Y0055420D01*
X0394468Y0056187D01*
X0393701Y0056955D01*
X0392934Y0056955D01*
X0393701Y0056955D02*
X0394468Y0057722D01*
X0394468Y0058489D01*
X0393701Y0059257D01*
X0392167Y0059257D01*
X0391399Y0058489D01*
X0389865Y0058489D02*
X0389097Y0059257D01*
X0387563Y0059257D01*
X0386795Y0058489D01*
X0386795Y0055420D01*
X0404618Y0072629D02*
X0404618Y0077233D01*
X0406920Y0077233D01*
X0407687Y0076466D01*
X0407687Y0074931D01*
X0406920Y0074164D01*
X0404618Y0074164D01*
X0406153Y0074164D02*
X0407687Y0072629D01*
X0409222Y0072629D02*
X0412291Y0072629D01*
X0410757Y0072629D02*
X0410757Y0077233D01*
X0409222Y0075698D01*
X0413826Y0074931D02*
X0413826Y0077233D01*
X0416895Y0077233D01*
X0416128Y0075698D02*
X0416895Y0074931D01*
X0416895Y0073396D01*
X0416128Y0072629D01*
X0414593Y0072629D01*
X0413826Y0073396D01*
X0413826Y0074931D02*
X0415361Y0075698D01*
X0416128Y0075698D01*
X0397230Y0086346D02*
X0397230Y0090950D01*
X0394928Y0088648D01*
X0397998Y0088648D01*
X0393394Y0086346D02*
X0390324Y0086346D01*
X0388790Y0086346D02*
X0387255Y0087880D01*
X0388022Y0087880D02*
X0385720Y0087880D01*
X0385720Y0086346D02*
X0385720Y0090950D01*
X0388022Y0090950D01*
X0388790Y0090182D01*
X0388790Y0088648D01*
X0388022Y0087880D01*
X0390324Y0089415D02*
X0391859Y0090950D01*
X0391859Y0086346D01*
X0390370Y0130519D02*
X0388836Y0130519D01*
X0388068Y0131286D01*
X0388068Y0132821D02*
X0389603Y0133588D01*
X0390370Y0133588D01*
X0391138Y0132821D01*
X0391138Y0131286D01*
X0390370Y0130519D01*
X0388068Y0132821D02*
X0388068Y0135123D01*
X0391138Y0135123D01*
X0386534Y0134355D02*
X0386534Y0132821D01*
X0385767Y0132054D01*
X0383465Y0132054D01*
X0384999Y0132054D02*
X0386534Y0130519D01*
X0383465Y0130519D02*
X0383465Y0135123D01*
X0385767Y0135123D01*
X0386534Y0134355D01*
X0386140Y0144298D02*
X0384605Y0145833D01*
X0385373Y0145833D02*
X0383071Y0145833D01*
X0383071Y0144298D02*
X0383071Y0148902D01*
X0385373Y0148902D01*
X0386140Y0148135D01*
X0386140Y0146600D01*
X0385373Y0145833D01*
X0387675Y0145066D02*
X0388442Y0144298D01*
X0389977Y0144298D01*
X0390744Y0145066D01*
X0390744Y0145833D01*
X0389977Y0146600D01*
X0387675Y0146600D01*
X0387675Y0145066D01*
X0387675Y0146600D02*
X0389209Y0148135D01*
X0390744Y0148902D01*
X0388068Y0157684D02*
X0388068Y0158452D01*
X0391138Y0161521D01*
X0391138Y0162288D01*
X0388068Y0162288D01*
X0386534Y0161521D02*
X0386534Y0159986D01*
X0385767Y0159219D01*
X0383465Y0159219D01*
X0384999Y0159219D02*
X0386534Y0157684D01*
X0383465Y0157684D02*
X0383465Y0162288D01*
X0385767Y0162288D01*
X0386534Y0161521D01*
X0386140Y0171070D02*
X0384605Y0172605D01*
X0385373Y0172605D02*
X0383071Y0172605D01*
X0383071Y0171070D02*
X0383071Y0175674D01*
X0385373Y0175674D01*
X0386140Y0174907D01*
X0386140Y0173372D01*
X0385373Y0172605D01*
X0387675Y0171837D02*
X0388442Y0171070D01*
X0389977Y0171070D01*
X0390744Y0171837D01*
X0390744Y0174907D01*
X0389977Y0175674D01*
X0388442Y0175674D01*
X0387675Y0174907D01*
X0387675Y0174139D01*
X0388442Y0173372D01*
X0390744Y0173372D01*
X0388269Y0184417D02*
X0388269Y0189020D01*
X0385967Y0186718D01*
X0389036Y0186718D01*
X0384432Y0186718D02*
X0384432Y0188253D01*
X0383665Y0189020D01*
X0381363Y0189020D01*
X0381363Y0184417D01*
X0381363Y0185951D02*
X0383665Y0185951D01*
X0384432Y0186718D01*
X0382898Y0185951D02*
X0384432Y0184417D01*
X0267317Y0083626D02*
X0262713Y0083626D01*
X0265015Y0081324D01*
X0265015Y0084393D01*
X0262713Y0079789D02*
X0262713Y0076720D01*
X0262713Y0078254D02*
X0267317Y0078254D01*
X0245722Y0078569D02*
X0241118Y0078569D01*
X0241118Y0077035D02*
X0241118Y0080104D01*
X0241885Y0081639D02*
X0241118Y0082406D01*
X0241118Y0083941D01*
X0241885Y0084708D01*
X0242653Y0084708D01*
X0243420Y0083941D01*
X0244187Y0084708D01*
X0244955Y0084708D01*
X0245722Y0083941D01*
X0245722Y0082406D01*
X0244955Y0081639D01*
X0243420Y0083173D02*
X0243420Y0083941D01*
X0292887Y0049220D02*
X0292887Y0046151D01*
X0292887Y0044617D02*
X0292887Y0041547D01*
X0292887Y0040013D02*
X0291353Y0038478D01*
X0291353Y0039245D02*
X0291353Y0036943D01*
X0292887Y0036943D02*
X0288283Y0036943D01*
X0288283Y0039245D01*
X0289051Y0040013D01*
X0290585Y0040013D01*
X0291353Y0039245D01*
X0289818Y0041547D02*
X0288283Y0043082D01*
X0292887Y0043082D01*
X0289818Y0046151D02*
X0288283Y0047686D01*
X0292887Y0047686D01*
X0313977Y0040887D02*
X0313977Y0037818D01*
X0314744Y0037050D01*
X0316279Y0037050D01*
X0317046Y0037818D01*
X0318581Y0037050D02*
X0321650Y0037050D01*
X0320116Y0037050D02*
X0320116Y0041654D01*
X0318581Y0040120D01*
X0317046Y0040887D02*
X0316279Y0041654D01*
X0314744Y0041654D01*
X0313977Y0040887D01*
X0271155Y0041449D02*
X0271155Y0044518D01*
X0271155Y0042983D02*
X0266551Y0042983D01*
X0268086Y0041449D01*
X0268853Y0039914D02*
X0269620Y0039147D01*
X0269620Y0036845D01*
X0269620Y0038380D02*
X0271155Y0039914D01*
X0268853Y0039914D02*
X0267319Y0039914D01*
X0266551Y0039147D01*
X0266551Y0036845D01*
X0271155Y0036845D01*
X0270388Y0046053D02*
X0267319Y0046053D01*
X0266551Y0046820D01*
X0266551Y0048355D01*
X0267319Y0049122D01*
X0270388Y0046053D01*
X0271155Y0046820D01*
X0271155Y0048355D01*
X0270388Y0049122D01*
X0267319Y0049122D01*
X0249639Y0045993D02*
X0249639Y0044458D01*
X0248872Y0043691D01*
X0248105Y0043691D01*
X0247337Y0044458D01*
X0247337Y0045993D01*
X0248105Y0046760D01*
X0248872Y0046760D01*
X0249639Y0045993D01*
X0247337Y0045993D02*
X0246570Y0046760D01*
X0245803Y0046760D01*
X0245035Y0045993D01*
X0245035Y0044458D01*
X0245803Y0043691D01*
X0246570Y0043691D01*
X0247337Y0044458D01*
X0247337Y0042156D02*
X0248105Y0041389D01*
X0248105Y0039087D01*
X0248105Y0040621D02*
X0249639Y0042156D01*
X0247337Y0042156D02*
X0245803Y0042156D01*
X0245035Y0041389D01*
X0245035Y0039087D01*
X0249639Y0039087D01*
X0202103Y0036933D02*
X0202103Y0044413D01*
X0198166Y0045201D02*
X0198166Y0036539D01*
D17*
X0198363Y0037327D02*
X0199741Y0038114D01*
X0199741Y0043626D01*
X0198363Y0044413D01*
X0421244Y0136049D02*
X0421244Y0137150D01*
X0421978Y0137884D01*
X0421978Y0138251D01*
X0421244Y0137150D02*
X0420510Y0137884D01*
X0420510Y0138251D01*
X0422720Y0137150D02*
X0423087Y0137517D01*
X0423821Y0137517D01*
X0424188Y0137150D01*
X0424188Y0136783D01*
X0422720Y0136783D01*
X0422720Y0136416D02*
X0422720Y0137150D01*
X0422720Y0136416D02*
X0423087Y0136049D01*
X0423821Y0136049D01*
X0424930Y0136049D02*
X0425664Y0136049D01*
X0425297Y0136049D02*
X0425297Y0138251D01*
X0424930Y0138251D01*
X0426403Y0138251D02*
X0426770Y0138251D01*
X0426770Y0136049D01*
X0426403Y0136049D02*
X0427137Y0136049D01*
X0427877Y0136416D02*
X0428243Y0136049D01*
X0428977Y0136049D01*
X0429344Y0136416D01*
X0429344Y0137150D01*
X0428977Y0137517D01*
X0428243Y0137517D01*
X0427877Y0137150D01*
X0427877Y0136416D01*
X0430086Y0136416D02*
X0430453Y0136049D01*
X0430820Y0136416D01*
X0431187Y0136049D01*
X0431554Y0136416D01*
X0431554Y0137517D01*
X0430086Y0137517D02*
X0430086Y0136416D01*
X0430453Y0151009D02*
X0430820Y0151376D01*
X0431187Y0151009D01*
X0431554Y0151376D01*
X0431554Y0152477D01*
X0430086Y0152477D02*
X0430086Y0151376D01*
X0430453Y0151009D01*
X0429344Y0151376D02*
X0429344Y0152110D01*
X0428977Y0152477D01*
X0428243Y0152477D01*
X0427877Y0152110D01*
X0427877Y0151376D01*
X0428243Y0151009D01*
X0428977Y0151009D01*
X0429344Y0151376D01*
X0427137Y0151009D02*
X0426403Y0151009D01*
X0426770Y0151009D02*
X0426770Y0153211D01*
X0426403Y0153211D01*
X0425297Y0153211D02*
X0425297Y0151009D01*
X0424930Y0151009D02*
X0425664Y0151009D01*
X0424188Y0151743D02*
X0422720Y0151743D01*
X0422720Y0151376D02*
X0422720Y0152110D01*
X0423087Y0152477D01*
X0423821Y0152477D01*
X0424188Y0152110D01*
X0424188Y0151743D01*
X0423821Y0151009D02*
X0423087Y0151009D01*
X0422720Y0151376D01*
X0421244Y0151009D02*
X0421244Y0152110D01*
X0421978Y0152844D01*
X0421978Y0153211D01*
X0421244Y0152110D02*
X0420510Y0152844D01*
X0420510Y0153211D01*
X0424930Y0153211D02*
X0425297Y0153211D01*
X0425269Y0164002D02*
X0424535Y0164002D01*
X0424168Y0164369D01*
X0424168Y0165103D01*
X0424535Y0165469D01*
X0425269Y0165469D01*
X0425636Y0165103D01*
X0425636Y0164736D01*
X0424168Y0164736D01*
X0423427Y0165469D02*
X0423060Y0165469D01*
X0422326Y0164736D01*
X0422326Y0165469D02*
X0422326Y0164002D01*
X0421584Y0164369D02*
X0421584Y0165103D01*
X0420850Y0165103D01*
X0420117Y0165836D02*
X0420117Y0164369D01*
X0420484Y0164002D01*
X0421217Y0164002D01*
X0421584Y0164369D01*
X0421584Y0165836D02*
X0421217Y0166203D01*
X0420484Y0166203D01*
X0420117Y0165836D01*
X0426378Y0165103D02*
X0426745Y0165469D01*
X0427479Y0165469D01*
X0427846Y0165103D01*
X0427846Y0164736D01*
X0426378Y0164736D01*
X0426378Y0164369D02*
X0426378Y0165103D01*
X0426378Y0164369D02*
X0426745Y0164002D01*
X0427479Y0164002D01*
X0428588Y0164002D02*
X0428588Y0165469D01*
X0429689Y0165469D01*
X0430056Y0165103D01*
X0430056Y0164002D01*
X0428760Y0177584D02*
X0427659Y0177584D01*
X0427292Y0177951D01*
X0427292Y0178685D01*
X0427659Y0179052D01*
X0428760Y0179052D01*
X0428760Y0179786D02*
X0428760Y0177584D01*
X0426550Y0178318D02*
X0425082Y0178318D01*
X0425082Y0177951D02*
X0425082Y0178685D01*
X0425449Y0179052D01*
X0426183Y0179052D01*
X0426550Y0178685D01*
X0426550Y0178318D01*
X0426183Y0177584D02*
X0425449Y0177584D01*
X0425082Y0177951D01*
X0424340Y0177584D02*
X0423606Y0178318D01*
X0423973Y0178318D02*
X0422872Y0178318D01*
X0422872Y0177584D02*
X0422872Y0179786D01*
X0423973Y0179786D01*
X0424340Y0179419D01*
X0424340Y0178685D01*
X0423973Y0178318D01*
X0424098Y0190970D02*
X0424098Y0192438D01*
X0424098Y0191704D02*
X0424832Y0192438D01*
X0425199Y0192438D01*
X0425940Y0192071D02*
X0426307Y0192438D01*
X0427041Y0192438D01*
X0427408Y0192071D01*
X0427408Y0191704D01*
X0425940Y0191704D01*
X0425940Y0191337D02*
X0425940Y0192071D01*
X0425940Y0191337D02*
X0426307Y0190970D01*
X0427041Y0190970D01*
X0428150Y0191337D02*
X0428150Y0192071D01*
X0428516Y0192438D01*
X0429250Y0192438D01*
X0429617Y0192071D01*
X0429617Y0191704D01*
X0428150Y0191704D01*
X0428150Y0191337D02*
X0428516Y0190970D01*
X0429250Y0190970D01*
X0430359Y0190970D02*
X0430359Y0192438D01*
X0431460Y0192438D01*
X0431827Y0192071D01*
X0431827Y0190970D01*
X0423356Y0191337D02*
X0423356Y0192071D01*
X0422622Y0192071D01*
X0421888Y0191337D02*
X0422255Y0190970D01*
X0422989Y0190970D01*
X0423356Y0191337D01*
X0421888Y0191337D02*
X0421888Y0192805D01*
X0422255Y0193172D01*
X0422989Y0193172D01*
X0423356Y0192805D01*
X0199741Y0185358D02*
X0199741Y0179846D01*
X0198363Y0179059D01*
X0199741Y0185358D02*
X0198363Y0186146D01*
D18*
X0240089Y0152017D03*
X0240089Y0146217D03*
X0261743Y0146217D03*
X0261743Y0152017D03*
X0283408Y0152058D03*
X0283408Y0146258D03*
X0409393Y0065444D03*
X0409393Y0059644D03*
X0283396Y0047687D03*
X0283396Y0041887D03*
X0261755Y0041928D03*
X0261755Y0047728D03*
X0240101Y0047728D03*
X0240101Y0041928D03*
D19*
X0283796Y0021185D03*
X0220410Y0111343D03*
X0424741Y0132406D03*
X0424741Y0146185D03*
X0424741Y0159965D03*
X0424741Y0173744D03*
X0424741Y0187524D03*
D20*
X0257969Y0016185D02*
X0257804Y0015944D01*
X0257634Y0015708D01*
X0257457Y0015475D01*
X0257276Y0015247D01*
X0257088Y0015024D01*
X0256896Y0014805D01*
X0256698Y0014590D01*
X0256495Y0014381D01*
X0256287Y0014177D01*
X0256074Y0013977D01*
X0255856Y0013783D01*
X0255634Y0013595D01*
X0255407Y0013411D01*
X0255176Y0013234D01*
X0254940Y0013062D01*
X0254701Y0012895D01*
X0254457Y0012735D01*
X0254210Y0012580D01*
X0253959Y0012432D01*
X0253704Y0012290D01*
X0253446Y0012154D01*
X0253185Y0012024D01*
X0252921Y0011901D01*
X0252654Y0011784D01*
X0252384Y0011673D01*
X0252111Y0011569D01*
X0251836Y0011472D01*
X0251559Y0011382D01*
X0251280Y0011298D01*
X0250998Y0011221D01*
X0250715Y0011151D01*
X0250430Y0011088D01*
X0250144Y0011032D01*
X0249857Y0010982D01*
X0249568Y0010940D01*
X0249279Y0010905D01*
X0248989Y0010876D01*
X0248698Y0010855D01*
X0248406Y0010841D01*
X0248115Y0010834D01*
X0247823Y0010834D01*
X0247532Y0010841D01*
X0247240Y0010855D01*
X0246949Y0010876D01*
X0246659Y0010905D01*
X0246370Y0010940D01*
X0246081Y0010982D01*
X0245794Y0011032D01*
X0245508Y0011088D01*
X0245223Y0011151D01*
X0244940Y0011221D01*
X0244658Y0011298D01*
X0244379Y0011382D01*
X0244102Y0011472D01*
X0243827Y0011569D01*
X0243554Y0011673D01*
X0243284Y0011784D01*
X0243017Y0011901D01*
X0242753Y0012024D01*
X0242492Y0012154D01*
X0242234Y0012290D01*
X0241979Y0012432D01*
X0241728Y0012580D01*
X0241481Y0012735D01*
X0241237Y0012895D01*
X0240998Y0013062D01*
X0240762Y0013234D01*
X0240531Y0013411D01*
X0240304Y0013595D01*
X0240082Y0013783D01*
X0239864Y0013977D01*
X0239651Y0014177D01*
X0239443Y0014381D01*
X0239240Y0014590D01*
X0239042Y0014805D01*
X0238850Y0015024D01*
X0238662Y0015247D01*
X0238481Y0015475D01*
X0238304Y0015708D01*
X0238134Y0015944D01*
X0237969Y0016185D01*
X0257969Y0016185D01*
D21*
X0315915Y0080246D03*
X0321715Y0080246D03*
X0347411Y0080246D03*
X0353211Y0080246D03*
X0386822Y0080234D03*
X0392622Y0080234D03*
X0398198Y0132411D03*
X0403998Y0132411D03*
X0403998Y0146191D03*
X0398198Y0146191D03*
X0398198Y0159970D03*
X0403998Y0159970D03*
X0403998Y0173750D03*
X0398198Y0173750D03*
X0397017Y0187530D03*
X0402817Y0187530D03*
M02*
