G75*
%MOIN*%
%OFA0B0*%
%FSLAX25Y25*%
%IPPOS*%
%LPD*%
%AMOC8*
5,1,8,0,0,1.08239X$1,22.5*
%
%ADD10OC8,0.06000*%
%ADD11R,0.07600X0.07600*%
%ADD12C,0.07600*%
%ADD13C,0.05600*%
%ADD14C,0.01000*%
%ADD15C,0.00600*%
%ADD16C,0.02400*%
D10*
X0225804Y0203193D03*
X0235804Y0203193D03*
X0245804Y0203193D03*
X0255804Y0203193D03*
X0265804Y0203193D03*
X0275804Y0203193D03*
X0285804Y0203193D03*
X0295804Y0203193D03*
X0305804Y0203193D03*
X0315804Y0203193D03*
X0325804Y0203193D03*
X0335804Y0203193D03*
X0345804Y0203193D03*
X0355804Y0203193D03*
X0365804Y0203193D03*
X0375804Y0203193D03*
X0385804Y0203193D03*
X0395804Y0203193D03*
X0405804Y0203193D03*
X0415804Y0203193D03*
X0415804Y0213193D03*
X0405804Y0213193D03*
X0395804Y0213193D03*
X0385804Y0213193D03*
X0375804Y0213193D03*
X0365804Y0213193D03*
X0355804Y0213193D03*
X0345804Y0213193D03*
X0335804Y0213193D03*
X0325804Y0213193D03*
X0315804Y0213193D03*
X0305804Y0213193D03*
X0295804Y0213193D03*
X0285804Y0213193D03*
X0275804Y0213193D03*
X0265804Y0213193D03*
X0255804Y0213193D03*
X0245804Y0213193D03*
X0235804Y0213193D03*
X0225804Y0213193D03*
D11*
X0237969Y0021185D03*
D12*
X0247969Y0021185D03*
X0257969Y0021185D03*
D13*
X0211631Y0160905D02*
X0211631Y0166505D01*
X0201631Y0166505D02*
X0201631Y0160905D01*
D14*
X0194351Y0074335D02*
X0194351Y0017691D01*
X0194692Y0019625D01*
X0196898Y0023446D01*
X0200278Y0026282D01*
X0204425Y0027791D01*
X0208837Y0027791D01*
X0212983Y0026282D01*
X0216363Y0023446D01*
X0218569Y0019625D01*
X0219335Y0015280D01*
X0218569Y0010934D01*
X0216363Y0007113D01*
X0212983Y0004277D01*
X0209475Y0003000D01*
X0432133Y0003000D01*
X0428625Y0004277D01*
X0425245Y0007113D01*
X0423039Y0010934D01*
X0422272Y0015280D01*
X0423039Y0019625D01*
X0425245Y0023446D01*
X0428625Y0026282D01*
X0432771Y0027791D01*
X0437183Y0027791D01*
X0441330Y0026282D01*
X0444710Y0023446D01*
X0446916Y0019625D01*
X0447257Y0017691D01*
X0447257Y0205782D01*
X0446916Y0203848D01*
X0444710Y0200026D01*
X0441330Y0197190D01*
X0437183Y0195681D01*
X0432771Y0195681D01*
X0428625Y0197190D01*
X0425245Y0200026D01*
X0423039Y0203848D01*
X0422272Y0208193D01*
X0423039Y0212538D01*
X0425245Y0216359D01*
X0428625Y0219196D01*
X0432133Y0220472D01*
X0209475Y0220472D01*
X0212983Y0219196D01*
X0216363Y0216359D01*
X0218569Y0212538D01*
X0219335Y0208193D01*
X0218569Y0203848D01*
X0216363Y0200026D01*
X0212983Y0197190D01*
X0208837Y0195681D01*
X0204425Y0195681D01*
X0200278Y0197190D01*
X0196898Y0200026D01*
X0194692Y0203848D01*
X0194351Y0205782D01*
X0194351Y0149138D01*
X0194398Y0148662D01*
X0194762Y0147784D01*
X0195434Y0147111D01*
X0196313Y0146748D01*
X0196788Y0146701D01*
X0209681Y0146701D01*
X0211679Y0145873D01*
X0211679Y0145873D01*
X0213208Y0144344D01*
X0213208Y0144344D01*
X0214036Y0142345D01*
X0214036Y0081127D01*
X0213208Y0079129D01*
X0213208Y0079129D01*
X0211679Y0077599D01*
X0211679Y0077599D01*
X0209681Y0076772D01*
X0196788Y0076772D01*
X0196313Y0076725D01*
X0195434Y0076361D01*
X0194762Y0075689D01*
X0194398Y0074810D01*
X0194351Y0074335D01*
X0194357Y0074391D02*
X0447257Y0074391D01*
X0447257Y0073393D02*
X0194351Y0073393D01*
X0194351Y0072394D02*
X0447257Y0072394D01*
X0447257Y0071396D02*
X0194351Y0071396D01*
X0194351Y0070397D02*
X0447257Y0070397D01*
X0447257Y0069399D02*
X0194351Y0069399D01*
X0194351Y0068400D02*
X0447257Y0068400D01*
X0447257Y0067402D02*
X0194351Y0067402D01*
X0194351Y0066403D02*
X0447257Y0066403D01*
X0447257Y0065405D02*
X0194351Y0065405D01*
X0194351Y0064406D02*
X0447257Y0064406D01*
X0447257Y0063408D02*
X0194351Y0063408D01*
X0194351Y0062409D02*
X0447257Y0062409D01*
X0447257Y0061411D02*
X0194351Y0061411D01*
X0194351Y0060412D02*
X0447257Y0060412D01*
X0447257Y0059414D02*
X0194351Y0059414D01*
X0194351Y0058415D02*
X0447257Y0058415D01*
X0447257Y0057417D02*
X0194351Y0057417D01*
X0194351Y0056418D02*
X0447257Y0056418D01*
X0447257Y0055420D02*
X0194351Y0055420D01*
X0194351Y0054421D02*
X0447257Y0054421D01*
X0447257Y0053423D02*
X0194351Y0053423D01*
X0194351Y0052424D02*
X0246523Y0052424D01*
X0247098Y0053000D02*
X0245751Y0051653D01*
X0245751Y0049747D01*
X0246651Y0048847D01*
X0246651Y0034480D01*
X0238256Y0026085D01*
X0233714Y0026085D01*
X0233069Y0025441D01*
X0233069Y0016929D01*
X0233714Y0016285D01*
X0242225Y0016285D01*
X0242869Y0016929D01*
X0242869Y0019730D01*
X0243058Y0019151D01*
X0243436Y0018407D01*
X0243927Y0017732D01*
X0244517Y0017142D01*
X0245191Y0016652D01*
X0245935Y0016273D01*
X0246728Y0016016D01*
X0247469Y0015898D01*
X0247469Y0020685D01*
X0248469Y0020685D01*
X0248469Y0015898D01*
X0249210Y0016016D01*
X0250004Y0016273D01*
X0250747Y0016652D01*
X0251422Y0017142D01*
X0252012Y0017732D01*
X0252502Y0018407D01*
X0252881Y0019151D01*
X0253139Y0019944D01*
X0253150Y0020015D01*
X0253815Y0018409D01*
X0255194Y0017031D01*
X0256995Y0016285D01*
X0258944Y0016285D01*
X0260745Y0017031D01*
X0262123Y0018409D01*
X0262869Y0020210D01*
X0262869Y0022160D01*
X0262123Y0023961D01*
X0260745Y0025339D01*
X0258944Y0026085D01*
X0256995Y0026085D01*
X0255194Y0025339D01*
X0253815Y0023961D01*
X0253150Y0022355D01*
X0253139Y0022426D01*
X0252881Y0023220D01*
X0252502Y0023963D01*
X0252012Y0024638D01*
X0251422Y0025228D01*
X0250747Y0025718D01*
X0250004Y0026097D01*
X0249210Y0026355D01*
X0248469Y0026472D01*
X0248469Y0021685D01*
X0247469Y0021685D01*
X0247469Y0026472D01*
X0246728Y0026355D01*
X0245935Y0026097D01*
X0245191Y0025718D01*
X0244517Y0025228D01*
X0243927Y0024638D01*
X0243436Y0023963D01*
X0243058Y0023220D01*
X0242869Y0022640D01*
X0242869Y0025441D01*
X0242225Y0026085D01*
X0242216Y0026085D01*
X0249451Y0033320D01*
X0249451Y0048847D01*
X0250351Y0049747D01*
X0250351Y0051653D01*
X0249004Y0053000D01*
X0247098Y0053000D01*
X0245751Y0051426D02*
X0194351Y0051426D01*
X0194351Y0050427D02*
X0245751Y0050427D01*
X0246070Y0049429D02*
X0194351Y0049429D01*
X0194351Y0048430D02*
X0246651Y0048430D01*
X0246651Y0047432D02*
X0194351Y0047432D01*
X0194351Y0046433D02*
X0246651Y0046433D01*
X0246651Y0045434D02*
X0194351Y0045434D01*
X0194351Y0044436D02*
X0246651Y0044436D01*
X0246651Y0043437D02*
X0194351Y0043437D01*
X0194351Y0042439D02*
X0246651Y0042439D01*
X0246651Y0041440D02*
X0194351Y0041440D01*
X0194351Y0040442D02*
X0246651Y0040442D01*
X0246651Y0039443D02*
X0194351Y0039443D01*
X0194351Y0038445D02*
X0246651Y0038445D01*
X0246651Y0037446D02*
X0194351Y0037446D01*
X0194351Y0036448D02*
X0246651Y0036448D01*
X0246651Y0035449D02*
X0194351Y0035449D01*
X0194351Y0034451D02*
X0246622Y0034451D01*
X0245624Y0033452D02*
X0194351Y0033452D01*
X0194351Y0032454D02*
X0244625Y0032454D01*
X0243627Y0031455D02*
X0194351Y0031455D01*
X0194351Y0030457D02*
X0242628Y0030457D01*
X0241630Y0029458D02*
X0194351Y0029458D01*
X0194351Y0028460D02*
X0240631Y0028460D01*
X0239633Y0027461D02*
X0209743Y0027461D01*
X0212487Y0026463D02*
X0238634Y0026463D01*
X0242594Y0026463D02*
X0247412Y0026463D01*
X0247469Y0026463D02*
X0248469Y0026463D01*
X0248527Y0026463D02*
X0429121Y0026463D01*
X0427650Y0025464D02*
X0260443Y0025464D01*
X0261618Y0024466D02*
X0426460Y0024466D01*
X0425270Y0023467D02*
X0262328Y0023467D01*
X0262741Y0022469D02*
X0424681Y0022469D01*
X0424104Y0021470D02*
X0262869Y0021470D01*
X0262869Y0020472D02*
X0423528Y0020472D01*
X0423012Y0019473D02*
X0262564Y0019473D01*
X0262150Y0018475D02*
X0422836Y0018475D01*
X0422660Y0017476D02*
X0261190Y0017476D01*
X0259409Y0016478D02*
X0422484Y0016478D01*
X0422308Y0015479D02*
X0219300Y0015479D01*
X0219195Y0014481D02*
X0422413Y0014481D01*
X0422589Y0013482D02*
X0219018Y0013482D01*
X0218842Y0012484D02*
X0422765Y0012484D01*
X0422941Y0011485D02*
X0218666Y0011485D01*
X0218311Y0010487D02*
X0423297Y0010487D01*
X0423874Y0009488D02*
X0217734Y0009488D01*
X0217158Y0008490D02*
X0424450Y0008490D01*
X0425027Y0007491D02*
X0216581Y0007491D01*
X0215624Y0006493D02*
X0425984Y0006493D01*
X0427174Y0005494D02*
X0214434Y0005494D01*
X0213244Y0004496D02*
X0428364Y0004496D01*
X0430768Y0003497D02*
X0210840Y0003497D01*
X0219124Y0016478D02*
X0233521Y0016478D01*
X0233069Y0017476D02*
X0218948Y0017476D01*
X0218772Y0018475D02*
X0233069Y0018475D01*
X0233069Y0019473D02*
X0218596Y0019473D01*
X0218080Y0020472D02*
X0233069Y0020472D01*
X0233069Y0021470D02*
X0217504Y0021470D01*
X0216927Y0022469D02*
X0233069Y0022469D01*
X0233069Y0023467D02*
X0216338Y0023467D01*
X0215148Y0024466D02*
X0233069Y0024466D01*
X0233093Y0025464D02*
X0213958Y0025464D01*
X0203518Y0027461D02*
X0194351Y0027461D01*
X0194351Y0026463D02*
X0200775Y0026463D01*
X0199304Y0025464D02*
X0194351Y0025464D01*
X0194351Y0024466D02*
X0198114Y0024466D01*
X0196924Y0023467D02*
X0194351Y0023467D01*
X0194351Y0022469D02*
X0196334Y0022469D01*
X0195758Y0021470D02*
X0194351Y0021470D01*
X0194351Y0020472D02*
X0195181Y0020472D01*
X0194665Y0019473D02*
X0194351Y0019473D01*
X0194351Y0018475D02*
X0194489Y0018475D01*
X0242418Y0016478D02*
X0245534Y0016478D01*
X0244183Y0017476D02*
X0242869Y0017476D01*
X0242869Y0018475D02*
X0243402Y0018475D01*
X0242953Y0019473D02*
X0242869Y0019473D01*
X0247469Y0019473D02*
X0248469Y0019473D01*
X0248469Y0018475D02*
X0247469Y0018475D01*
X0247469Y0017476D02*
X0248469Y0017476D01*
X0248469Y0016478D02*
X0247469Y0016478D01*
X0250405Y0016478D02*
X0256530Y0016478D01*
X0254748Y0017476D02*
X0251756Y0017476D01*
X0252537Y0018475D02*
X0253788Y0018475D01*
X0253375Y0019473D02*
X0252986Y0019473D01*
X0248469Y0020472D02*
X0247469Y0020472D01*
X0247469Y0022469D02*
X0248469Y0022469D01*
X0248469Y0023467D02*
X0247469Y0023467D01*
X0247469Y0024466D02*
X0248469Y0024466D01*
X0248469Y0025464D02*
X0247469Y0025464D01*
X0244842Y0025464D02*
X0242846Y0025464D01*
X0242869Y0024466D02*
X0243802Y0024466D01*
X0243184Y0023467D02*
X0242869Y0023467D01*
X0243592Y0027461D02*
X0431865Y0027461D01*
X0438090Y0027461D02*
X0447257Y0027461D01*
X0447257Y0026463D02*
X0440833Y0026463D01*
X0442304Y0025464D02*
X0447257Y0025464D01*
X0447257Y0024466D02*
X0443494Y0024466D01*
X0444684Y0023467D02*
X0447257Y0023467D01*
X0447257Y0022469D02*
X0445274Y0022469D01*
X0445850Y0021470D02*
X0447257Y0021470D01*
X0447257Y0020472D02*
X0446427Y0020472D01*
X0446942Y0019473D02*
X0447257Y0019473D01*
X0447257Y0018475D02*
X0447118Y0018475D01*
X0447257Y0028460D02*
X0244591Y0028460D01*
X0245589Y0029458D02*
X0447257Y0029458D01*
X0447257Y0030457D02*
X0246588Y0030457D01*
X0247586Y0031455D02*
X0447257Y0031455D01*
X0447257Y0032454D02*
X0248585Y0032454D01*
X0249451Y0033452D02*
X0447257Y0033452D01*
X0447257Y0034451D02*
X0249451Y0034451D01*
X0249451Y0035449D02*
X0447257Y0035449D01*
X0447257Y0036448D02*
X0249451Y0036448D01*
X0249451Y0037446D02*
X0447257Y0037446D01*
X0447257Y0038445D02*
X0249451Y0038445D01*
X0249451Y0039443D02*
X0447257Y0039443D01*
X0447257Y0040442D02*
X0249451Y0040442D01*
X0249451Y0041440D02*
X0447257Y0041440D01*
X0447257Y0042439D02*
X0249451Y0042439D01*
X0249451Y0043437D02*
X0447257Y0043437D01*
X0447257Y0044436D02*
X0249451Y0044436D01*
X0249451Y0045434D02*
X0447257Y0045434D01*
X0447257Y0046433D02*
X0249451Y0046433D01*
X0249451Y0047432D02*
X0447257Y0047432D01*
X0447257Y0048430D02*
X0249451Y0048430D01*
X0250032Y0049429D02*
X0447257Y0049429D01*
X0447257Y0050427D02*
X0250351Y0050427D01*
X0250351Y0051426D02*
X0447257Y0051426D01*
X0447257Y0052424D02*
X0249580Y0052424D01*
X0211166Y0077387D02*
X0447257Y0077387D01*
X0447257Y0078385D02*
X0212465Y0078385D01*
X0213314Y0079384D02*
X0309115Y0079384D01*
X0309498Y0079000D02*
X0311404Y0079000D01*
X0312751Y0080347D01*
X0312751Y0082253D01*
X0311404Y0083600D01*
X0310131Y0083600D01*
X0290251Y0103480D01*
X0290251Y0104920D01*
X0308751Y0086420D01*
X0308751Y0085147D01*
X0310098Y0083800D01*
X0312004Y0083800D01*
X0313351Y0085147D01*
X0313351Y0087053D01*
X0312004Y0088400D01*
X0310731Y0088400D01*
X0291451Y0107680D01*
X0291451Y0131320D01*
X0339951Y0082820D01*
X0339951Y0081547D01*
X0341298Y0080200D01*
X0343204Y0080200D01*
X0344551Y0081547D01*
X0344551Y0083453D01*
X0343204Y0084800D01*
X0341931Y0084800D01*
X0301367Y0125364D01*
X0302551Y0126547D01*
X0302551Y0127820D01*
X0312451Y0137720D01*
X0312451Y0200680D01*
X0311631Y0201500D01*
X0311251Y0201880D01*
X0311251Y0205480D01*
X0308031Y0208700D01*
X0304431Y0208700D01*
X0303831Y0209300D01*
X0301431Y0209300D01*
X0299570Y0211161D01*
X0299904Y0211495D01*
X0299904Y0214891D01*
X0297502Y0217293D01*
X0294106Y0217293D01*
X0291704Y0214891D01*
X0291704Y0211495D01*
X0294106Y0209093D01*
X0297502Y0209093D01*
X0297590Y0209181D01*
X0299451Y0207320D01*
X0300271Y0206500D01*
X0302671Y0206500D01*
X0302992Y0206179D01*
X0301704Y0204891D01*
X0301704Y0201495D01*
X0301885Y0201314D01*
X0299071Y0198500D01*
X0232431Y0198500D01*
X0229670Y0201261D01*
X0229904Y0201495D01*
X0229904Y0204891D01*
X0227502Y0207293D01*
X0224106Y0207293D01*
X0221704Y0204891D01*
X0221704Y0201495D01*
X0224106Y0199093D01*
X0227502Y0199093D01*
X0227690Y0199281D01*
X0230451Y0196520D01*
X0231271Y0195700D01*
X0288651Y0195700D01*
X0288651Y0183753D01*
X0288604Y0183800D01*
X0286698Y0183800D01*
X0285351Y0182453D01*
X0285351Y0181180D01*
X0282051Y0177880D01*
X0282051Y0167153D01*
X0281151Y0166253D01*
X0281151Y0164347D01*
X0282498Y0163000D01*
X0284404Y0163000D01*
X0285751Y0164347D01*
X0285751Y0166253D01*
X0284851Y0167153D01*
X0284851Y0176720D01*
X0287331Y0179200D01*
X0288604Y0179200D01*
X0288651Y0179247D01*
X0288651Y0113480D01*
X0277051Y0125080D01*
X0277051Y0161647D01*
X0277951Y0162547D01*
X0277951Y0164453D01*
X0276604Y0165800D01*
X0274698Y0165800D01*
X0273351Y0164453D01*
X0273351Y0162547D01*
X0274251Y0161647D01*
X0274251Y0124880D01*
X0233631Y0165500D01*
X0215531Y0165500D01*
X0215531Y0167280D01*
X0214937Y0168714D01*
X0213840Y0169811D01*
X0212406Y0170405D01*
X0210855Y0170405D01*
X0209422Y0169811D01*
X0208324Y0168714D01*
X0207731Y0167280D01*
X0207731Y0160129D01*
X0208324Y0158696D01*
X0209422Y0157598D01*
X0210855Y0157005D01*
X0212406Y0157005D01*
X0213840Y0157598D01*
X0214937Y0158696D01*
X0215531Y0160129D01*
X0215531Y0162700D01*
X0232471Y0162700D01*
X0284151Y0111020D01*
X0284151Y0109747D01*
X0285498Y0108400D01*
X0287404Y0108400D01*
X0287451Y0108447D01*
X0287451Y0102320D01*
X0308151Y0081620D01*
X0308151Y0080347D01*
X0309498Y0079000D01*
X0308151Y0080382D02*
X0213728Y0080382D01*
X0214036Y0081381D02*
X0308151Y0081381D01*
X0307392Y0082379D02*
X0214036Y0082379D01*
X0214036Y0083378D02*
X0306393Y0083378D01*
X0305395Y0084376D02*
X0214036Y0084376D01*
X0214036Y0085375D02*
X0304396Y0085375D01*
X0303398Y0086373D02*
X0214036Y0086373D01*
X0214036Y0087372D02*
X0302399Y0087372D01*
X0301401Y0088370D02*
X0214036Y0088370D01*
X0214036Y0089369D02*
X0300402Y0089369D01*
X0299404Y0090368D02*
X0214036Y0090368D01*
X0214036Y0091366D02*
X0298405Y0091366D01*
X0297407Y0092365D02*
X0214036Y0092365D01*
X0214036Y0093363D02*
X0296408Y0093363D01*
X0295410Y0094362D02*
X0214036Y0094362D01*
X0214036Y0095360D02*
X0294411Y0095360D01*
X0293413Y0096359D02*
X0214036Y0096359D01*
X0214036Y0097357D02*
X0292414Y0097357D01*
X0291416Y0098356D02*
X0214036Y0098356D01*
X0214036Y0099354D02*
X0290417Y0099354D01*
X0289419Y0100353D02*
X0214036Y0100353D01*
X0214036Y0101351D02*
X0288420Y0101351D01*
X0287451Y0102350D02*
X0214036Y0102350D01*
X0214036Y0103348D02*
X0287451Y0103348D01*
X0287451Y0104347D02*
X0214036Y0104347D01*
X0214036Y0105345D02*
X0287451Y0105345D01*
X0287451Y0106344D02*
X0214036Y0106344D01*
X0214036Y0107342D02*
X0287451Y0107342D01*
X0287451Y0108341D02*
X0214036Y0108341D01*
X0214036Y0109339D02*
X0284559Y0109339D01*
X0284151Y0110338D02*
X0214036Y0110338D01*
X0214036Y0111336D02*
X0283835Y0111336D01*
X0282837Y0112335D02*
X0214036Y0112335D01*
X0214036Y0113333D02*
X0281838Y0113333D01*
X0280839Y0114332D02*
X0214036Y0114332D01*
X0214036Y0115330D02*
X0279841Y0115330D01*
X0278842Y0116329D02*
X0214036Y0116329D01*
X0214036Y0117327D02*
X0277844Y0117327D01*
X0276845Y0118326D02*
X0214036Y0118326D01*
X0214036Y0119324D02*
X0275847Y0119324D01*
X0274848Y0120323D02*
X0214036Y0120323D01*
X0214036Y0121321D02*
X0273850Y0121321D01*
X0272851Y0122320D02*
X0214036Y0122320D01*
X0214036Y0123318D02*
X0271853Y0123318D01*
X0270854Y0124317D02*
X0214036Y0124317D01*
X0214036Y0125315D02*
X0269856Y0125315D01*
X0268857Y0126314D02*
X0214036Y0126314D01*
X0214036Y0127312D02*
X0267859Y0127312D01*
X0266860Y0128311D02*
X0214036Y0128311D01*
X0214036Y0129309D02*
X0265862Y0129309D01*
X0264863Y0130308D02*
X0214036Y0130308D01*
X0214036Y0131306D02*
X0263865Y0131306D01*
X0262866Y0132305D02*
X0214036Y0132305D01*
X0214036Y0133303D02*
X0261868Y0133303D01*
X0260869Y0134302D02*
X0214036Y0134302D01*
X0214036Y0135301D02*
X0259871Y0135301D01*
X0258872Y0136299D02*
X0214036Y0136299D01*
X0214036Y0137298D02*
X0257874Y0137298D01*
X0256875Y0138296D02*
X0214036Y0138296D01*
X0214036Y0139295D02*
X0255877Y0139295D01*
X0254878Y0140293D02*
X0214036Y0140293D01*
X0214036Y0141292D02*
X0253880Y0141292D01*
X0252881Y0142290D02*
X0214036Y0142290D01*
X0213645Y0143289D02*
X0251883Y0143289D01*
X0250884Y0144287D02*
X0213232Y0144287D01*
X0212266Y0145286D02*
X0249886Y0145286D01*
X0248887Y0146284D02*
X0210687Y0146284D01*
X0195263Y0147283D02*
X0247889Y0147283D01*
X0246890Y0148281D02*
X0194556Y0148281D01*
X0194351Y0149280D02*
X0245892Y0149280D01*
X0244893Y0150278D02*
X0194351Y0150278D01*
X0194351Y0151277D02*
X0243895Y0151277D01*
X0242896Y0152275D02*
X0194351Y0152275D01*
X0194351Y0153274D02*
X0241898Y0153274D01*
X0240899Y0154272D02*
X0194351Y0154272D01*
X0194351Y0155271D02*
X0239901Y0155271D01*
X0238902Y0156269D02*
X0194351Y0156269D01*
X0194351Y0157268D02*
X0200220Y0157268D01*
X0200855Y0157005D02*
X0202406Y0157005D01*
X0203840Y0157598D01*
X0204937Y0158696D01*
X0205531Y0160129D01*
X0205531Y0167280D01*
X0204937Y0168714D01*
X0203840Y0169811D01*
X0202406Y0170405D01*
X0200855Y0170405D01*
X0199422Y0169811D01*
X0198324Y0168714D01*
X0197731Y0167280D01*
X0197731Y0160129D01*
X0198324Y0158696D01*
X0199422Y0157598D01*
X0200855Y0157005D01*
X0203041Y0157268D02*
X0210220Y0157268D01*
X0208754Y0158266D02*
X0204508Y0158266D01*
X0205173Y0159265D02*
X0208089Y0159265D01*
X0207731Y0160263D02*
X0205531Y0160263D01*
X0205531Y0161262D02*
X0207731Y0161262D01*
X0207731Y0162260D02*
X0205531Y0162260D01*
X0205531Y0163259D02*
X0207731Y0163259D01*
X0207731Y0164257D02*
X0205531Y0164257D01*
X0205531Y0165256D02*
X0207731Y0165256D01*
X0207731Y0166254D02*
X0205531Y0166254D01*
X0205531Y0167253D02*
X0207731Y0167253D01*
X0208133Y0168251D02*
X0205129Y0168251D01*
X0204401Y0169250D02*
X0208860Y0169250D01*
X0210478Y0170248D02*
X0202784Y0170248D01*
X0200478Y0170248D02*
X0194351Y0170248D01*
X0194351Y0169250D02*
X0198860Y0169250D01*
X0198133Y0168251D02*
X0194351Y0168251D01*
X0194351Y0167253D02*
X0197731Y0167253D01*
X0197731Y0166254D02*
X0194351Y0166254D01*
X0194351Y0165256D02*
X0197731Y0165256D01*
X0197731Y0164257D02*
X0194351Y0164257D01*
X0194351Y0163259D02*
X0197731Y0163259D01*
X0197731Y0162260D02*
X0194351Y0162260D01*
X0194351Y0161262D02*
X0197731Y0161262D01*
X0197731Y0160263D02*
X0194351Y0160263D01*
X0194351Y0159265D02*
X0198089Y0159265D01*
X0198754Y0158266D02*
X0194351Y0158266D01*
X0213041Y0157268D02*
X0237904Y0157268D01*
X0236905Y0158266D02*
X0214508Y0158266D01*
X0215173Y0159265D02*
X0235906Y0159265D01*
X0234908Y0160263D02*
X0215531Y0160263D01*
X0215531Y0161262D02*
X0233909Y0161262D01*
X0232911Y0162260D02*
X0215531Y0162260D01*
X0215531Y0166254D02*
X0281153Y0166254D01*
X0281151Y0165256D02*
X0277148Y0165256D01*
X0277951Y0164257D02*
X0281241Y0164257D01*
X0282240Y0163259D02*
X0277951Y0163259D01*
X0277664Y0162260D02*
X0288651Y0162260D01*
X0288651Y0161262D02*
X0277051Y0161262D01*
X0277051Y0160263D02*
X0288651Y0160263D01*
X0288651Y0159265D02*
X0277051Y0159265D01*
X0277051Y0158266D02*
X0288651Y0158266D01*
X0288651Y0157268D02*
X0277051Y0157268D01*
X0277051Y0156269D02*
X0288651Y0156269D01*
X0288651Y0155271D02*
X0277051Y0155271D01*
X0277051Y0154272D02*
X0288651Y0154272D01*
X0288651Y0153274D02*
X0277051Y0153274D01*
X0277051Y0152275D02*
X0288651Y0152275D01*
X0288651Y0151277D02*
X0277051Y0151277D01*
X0277051Y0150278D02*
X0288651Y0150278D01*
X0288651Y0149280D02*
X0277051Y0149280D01*
X0277051Y0148281D02*
X0288651Y0148281D01*
X0288651Y0147283D02*
X0277051Y0147283D01*
X0277051Y0146284D02*
X0288651Y0146284D01*
X0288651Y0145286D02*
X0277051Y0145286D01*
X0277051Y0144287D02*
X0288651Y0144287D01*
X0288651Y0143289D02*
X0277051Y0143289D01*
X0277051Y0142290D02*
X0288651Y0142290D01*
X0288651Y0141292D02*
X0277051Y0141292D01*
X0277051Y0140293D02*
X0288651Y0140293D01*
X0288651Y0139295D02*
X0277051Y0139295D01*
X0277051Y0138296D02*
X0288651Y0138296D01*
X0288651Y0137298D02*
X0277051Y0137298D01*
X0277051Y0136299D02*
X0288651Y0136299D01*
X0288651Y0135301D02*
X0277051Y0135301D01*
X0277051Y0134302D02*
X0288651Y0134302D01*
X0288651Y0133303D02*
X0277051Y0133303D01*
X0277051Y0132305D02*
X0288651Y0132305D01*
X0288651Y0131306D02*
X0277051Y0131306D01*
X0277051Y0130308D02*
X0288651Y0130308D01*
X0288651Y0129309D02*
X0277051Y0129309D01*
X0277051Y0128311D02*
X0288651Y0128311D01*
X0288651Y0127312D02*
X0277051Y0127312D01*
X0277051Y0126314D02*
X0288651Y0126314D01*
X0288651Y0125315D02*
X0277051Y0125315D01*
X0277814Y0124317D02*
X0288651Y0124317D01*
X0288651Y0123318D02*
X0278813Y0123318D01*
X0279811Y0122320D02*
X0288651Y0122320D01*
X0288651Y0121321D02*
X0280810Y0121321D01*
X0281808Y0120323D02*
X0288651Y0120323D01*
X0288651Y0119324D02*
X0282807Y0119324D01*
X0283805Y0118326D02*
X0288651Y0118326D01*
X0288651Y0117327D02*
X0284804Y0117327D01*
X0285802Y0116329D02*
X0288651Y0116329D01*
X0288651Y0115330D02*
X0286801Y0115330D01*
X0287799Y0114332D02*
X0288651Y0114332D01*
X0291451Y0114332D02*
X0308439Y0114332D01*
X0307441Y0115330D02*
X0291451Y0115330D01*
X0291451Y0116329D02*
X0306442Y0116329D01*
X0305444Y0117327D02*
X0291451Y0117327D01*
X0291451Y0118326D02*
X0304445Y0118326D01*
X0303447Y0119324D02*
X0291451Y0119324D01*
X0291451Y0120323D02*
X0302448Y0120323D01*
X0301450Y0121321D02*
X0291451Y0121321D01*
X0291451Y0122320D02*
X0300451Y0122320D01*
X0299453Y0123318D02*
X0291451Y0123318D01*
X0291451Y0124317D02*
X0298454Y0124317D01*
X0297456Y0125315D02*
X0291451Y0125315D01*
X0291451Y0126314D02*
X0296457Y0126314D01*
X0295459Y0127312D02*
X0291451Y0127312D01*
X0291451Y0128311D02*
X0294460Y0128311D01*
X0293462Y0129309D02*
X0291451Y0129309D01*
X0291451Y0130308D02*
X0292463Y0130308D01*
X0291465Y0131306D02*
X0291451Y0131306D01*
X0301416Y0125315D02*
X0447257Y0125315D01*
X0447257Y0124317D02*
X0302414Y0124317D01*
X0303413Y0123318D02*
X0447257Y0123318D01*
X0447257Y0122320D02*
X0304411Y0122320D01*
X0305410Y0121321D02*
X0447257Y0121321D01*
X0447257Y0120323D02*
X0306408Y0120323D01*
X0307407Y0119324D02*
X0447257Y0119324D01*
X0447257Y0118326D02*
X0308405Y0118326D01*
X0309404Y0117327D02*
X0447257Y0117327D01*
X0447257Y0116329D02*
X0310402Y0116329D01*
X0311401Y0115330D02*
X0447257Y0115330D01*
X0447257Y0114332D02*
X0312399Y0114332D01*
X0313398Y0113333D02*
X0447257Y0113333D01*
X0447257Y0112335D02*
X0314396Y0112335D01*
X0315395Y0111336D02*
X0447257Y0111336D01*
X0447257Y0110338D02*
X0316393Y0110338D01*
X0317392Y0109339D02*
X0447257Y0109339D01*
X0447257Y0108341D02*
X0318390Y0108341D01*
X0319389Y0107342D02*
X0447257Y0107342D01*
X0447257Y0106344D02*
X0320387Y0106344D01*
X0321386Y0105345D02*
X0447257Y0105345D01*
X0447257Y0104347D02*
X0322384Y0104347D01*
X0323383Y0103348D02*
X0447257Y0103348D01*
X0447257Y0102350D02*
X0324381Y0102350D01*
X0325380Y0101351D02*
X0447257Y0101351D01*
X0447257Y0100353D02*
X0326378Y0100353D01*
X0327377Y0099354D02*
X0447257Y0099354D01*
X0447257Y0098356D02*
X0328375Y0098356D01*
X0329374Y0097357D02*
X0447257Y0097357D01*
X0447257Y0096359D02*
X0330372Y0096359D01*
X0331371Y0095360D02*
X0447257Y0095360D01*
X0447257Y0094362D02*
X0332370Y0094362D01*
X0333368Y0093363D02*
X0447257Y0093363D01*
X0447257Y0092365D02*
X0334367Y0092365D01*
X0335365Y0091366D02*
X0447257Y0091366D01*
X0447257Y0090368D02*
X0336364Y0090368D01*
X0337362Y0089369D02*
X0447257Y0089369D01*
X0447257Y0088370D02*
X0338361Y0088370D01*
X0339359Y0087372D02*
X0447257Y0087372D01*
X0447257Y0086373D02*
X0340358Y0086373D01*
X0341356Y0085375D02*
X0447257Y0085375D01*
X0447257Y0084376D02*
X0343627Y0084376D01*
X0344551Y0083378D02*
X0447257Y0083378D01*
X0447257Y0082379D02*
X0344551Y0082379D01*
X0344385Y0081381D02*
X0447257Y0081381D01*
X0447257Y0080382D02*
X0343386Y0080382D01*
X0341116Y0080382D02*
X0312751Y0080382D01*
X0312751Y0081381D02*
X0340118Y0081381D01*
X0339951Y0082379D02*
X0312624Y0082379D01*
X0311626Y0083378D02*
X0339393Y0083378D01*
X0338395Y0084376D02*
X0312580Y0084376D01*
X0313351Y0085375D02*
X0337396Y0085375D01*
X0336398Y0086373D02*
X0313351Y0086373D01*
X0313032Y0087372D02*
X0335399Y0087372D01*
X0334401Y0088370D02*
X0312033Y0088370D01*
X0309762Y0089369D02*
X0333402Y0089369D01*
X0332404Y0090368D02*
X0308764Y0090368D01*
X0307765Y0091366D02*
X0331405Y0091366D01*
X0330407Y0092365D02*
X0306767Y0092365D01*
X0305768Y0093363D02*
X0329408Y0093363D01*
X0328410Y0094362D02*
X0304770Y0094362D01*
X0303771Y0095360D02*
X0327411Y0095360D01*
X0326413Y0096359D02*
X0302772Y0096359D01*
X0301774Y0097357D02*
X0325414Y0097357D01*
X0324416Y0098356D02*
X0300775Y0098356D01*
X0299777Y0099354D02*
X0323417Y0099354D01*
X0322419Y0100353D02*
X0298778Y0100353D01*
X0297780Y0101351D02*
X0321420Y0101351D01*
X0320422Y0102350D02*
X0296781Y0102350D01*
X0295783Y0103348D02*
X0319423Y0103348D01*
X0318425Y0104347D02*
X0294784Y0104347D01*
X0293786Y0105345D02*
X0317426Y0105345D01*
X0316428Y0106344D02*
X0292787Y0106344D01*
X0291789Y0107342D02*
X0315429Y0107342D01*
X0314431Y0108341D02*
X0291451Y0108341D01*
X0291451Y0109339D02*
X0313432Y0109339D01*
X0312434Y0110338D02*
X0291451Y0110338D01*
X0291451Y0111336D02*
X0311435Y0111336D01*
X0310437Y0112335D02*
X0291451Y0112335D01*
X0291451Y0113333D02*
X0309438Y0113333D01*
X0291823Y0103348D02*
X0290383Y0103348D01*
X0290251Y0104347D02*
X0290825Y0104347D01*
X0291381Y0102350D02*
X0292822Y0102350D01*
X0292380Y0101351D02*
X0293820Y0101351D01*
X0293378Y0100353D02*
X0294819Y0100353D01*
X0294377Y0099354D02*
X0295817Y0099354D01*
X0295375Y0098356D02*
X0296816Y0098356D01*
X0296374Y0097357D02*
X0297814Y0097357D01*
X0297372Y0096359D02*
X0298813Y0096359D01*
X0298371Y0095360D02*
X0299811Y0095360D01*
X0299370Y0094362D02*
X0300810Y0094362D01*
X0300368Y0093363D02*
X0301808Y0093363D01*
X0301367Y0092365D02*
X0302807Y0092365D01*
X0302365Y0091366D02*
X0303805Y0091366D01*
X0303364Y0090368D02*
X0304804Y0090368D01*
X0304362Y0089369D02*
X0305802Y0089369D01*
X0305361Y0088370D02*
X0306801Y0088370D01*
X0306359Y0087372D02*
X0307799Y0087372D01*
X0307358Y0086373D02*
X0308751Y0086373D01*
X0308751Y0085375D02*
X0308356Y0085375D01*
X0309355Y0084376D02*
X0309522Y0084376D01*
X0311788Y0079384D02*
X0447257Y0079384D01*
X0447257Y0076388D02*
X0195500Y0076388D01*
X0194638Y0075390D02*
X0447257Y0075390D01*
X0447257Y0126314D02*
X0302318Y0126314D01*
X0302551Y0127312D02*
X0447257Y0127312D01*
X0447257Y0128311D02*
X0303042Y0128311D01*
X0304041Y0129309D02*
X0447257Y0129309D01*
X0447257Y0130308D02*
X0305039Y0130308D01*
X0306038Y0131306D02*
X0447257Y0131306D01*
X0447257Y0132305D02*
X0307036Y0132305D01*
X0308035Y0133303D02*
X0447257Y0133303D01*
X0447257Y0134302D02*
X0309033Y0134302D01*
X0310032Y0135301D02*
X0447257Y0135301D01*
X0447257Y0136299D02*
X0311030Y0136299D01*
X0312029Y0137298D02*
X0447257Y0137298D01*
X0447257Y0138296D02*
X0312451Y0138296D01*
X0312451Y0139295D02*
X0426804Y0139295D01*
X0427098Y0139000D02*
X0429004Y0139000D01*
X0430351Y0140347D01*
X0430351Y0142253D01*
X0429004Y0143600D01*
X0427731Y0143600D01*
X0369870Y0201461D01*
X0369904Y0201495D01*
X0369904Y0204891D01*
X0367502Y0207293D01*
X0364106Y0207293D01*
X0361704Y0204891D01*
X0361704Y0201495D01*
X0364106Y0199093D01*
X0367502Y0199093D01*
X0367890Y0199481D01*
X0425751Y0141620D01*
X0425751Y0140347D01*
X0427098Y0139000D01*
X0425805Y0140293D02*
X0312451Y0140293D01*
X0312451Y0141292D02*
X0425751Y0141292D01*
X0425081Y0142290D02*
X0312451Y0142290D01*
X0312451Y0143289D02*
X0424083Y0143289D01*
X0423084Y0144287D02*
X0312451Y0144287D01*
X0312451Y0145286D02*
X0422086Y0145286D01*
X0421087Y0146284D02*
X0312451Y0146284D01*
X0312451Y0147283D02*
X0420089Y0147283D01*
X0419090Y0148281D02*
X0312451Y0148281D01*
X0312451Y0149280D02*
X0418092Y0149280D01*
X0417093Y0150278D02*
X0312451Y0150278D01*
X0312451Y0151277D02*
X0416095Y0151277D01*
X0415096Y0152275D02*
X0312451Y0152275D01*
X0312451Y0153274D02*
X0414098Y0153274D01*
X0413099Y0154272D02*
X0312451Y0154272D01*
X0312451Y0155271D02*
X0412101Y0155271D01*
X0411102Y0156269D02*
X0312451Y0156269D01*
X0312451Y0157268D02*
X0410104Y0157268D01*
X0409105Y0158266D02*
X0312451Y0158266D01*
X0312451Y0159265D02*
X0408106Y0159265D01*
X0407108Y0160263D02*
X0312451Y0160263D01*
X0312451Y0161262D02*
X0406109Y0161262D01*
X0405111Y0162260D02*
X0312451Y0162260D01*
X0312451Y0163259D02*
X0404112Y0163259D01*
X0403114Y0164257D02*
X0312451Y0164257D01*
X0312451Y0165256D02*
X0402115Y0165256D01*
X0401117Y0166254D02*
X0312451Y0166254D01*
X0312451Y0167253D02*
X0400118Y0167253D01*
X0399120Y0168251D02*
X0312451Y0168251D01*
X0312451Y0169250D02*
X0398121Y0169250D01*
X0397123Y0170248D02*
X0312451Y0170248D01*
X0312451Y0171247D02*
X0396124Y0171247D01*
X0395126Y0172245D02*
X0312451Y0172245D01*
X0312451Y0173244D02*
X0394127Y0173244D01*
X0393129Y0174242D02*
X0312451Y0174242D01*
X0312451Y0175241D02*
X0392130Y0175241D01*
X0391132Y0176239D02*
X0312451Y0176239D01*
X0312451Y0177238D02*
X0390133Y0177238D01*
X0389135Y0178237D02*
X0312451Y0178237D01*
X0312451Y0179235D02*
X0388136Y0179235D01*
X0387138Y0180234D02*
X0312451Y0180234D01*
X0312451Y0181232D02*
X0386139Y0181232D01*
X0385141Y0182231D02*
X0312451Y0182231D01*
X0312451Y0183229D02*
X0384142Y0183229D01*
X0383144Y0184228D02*
X0312451Y0184228D01*
X0312451Y0185226D02*
X0382145Y0185226D01*
X0381147Y0186225D02*
X0312451Y0186225D01*
X0312451Y0187223D02*
X0380148Y0187223D01*
X0379150Y0188222D02*
X0312451Y0188222D01*
X0312451Y0189220D02*
X0378151Y0189220D01*
X0377153Y0190219D02*
X0312451Y0190219D01*
X0312451Y0191217D02*
X0376154Y0191217D01*
X0375156Y0192216D02*
X0312451Y0192216D01*
X0312451Y0193214D02*
X0374157Y0193214D01*
X0373159Y0194213D02*
X0312451Y0194213D01*
X0312451Y0195211D02*
X0372160Y0195211D01*
X0371162Y0196210D02*
X0312451Y0196210D01*
X0312451Y0197208D02*
X0370163Y0197208D01*
X0369165Y0198207D02*
X0312451Y0198207D01*
X0312451Y0199205D02*
X0313993Y0199205D01*
X0314106Y0199093D02*
X0317502Y0199093D01*
X0319904Y0201495D01*
X0319904Y0204891D01*
X0317502Y0207293D01*
X0314106Y0207293D01*
X0311704Y0204891D01*
X0311704Y0201495D01*
X0314106Y0199093D01*
X0312995Y0200204D02*
X0312451Y0200204D01*
X0311996Y0201202D02*
X0311929Y0201202D01*
X0311631Y0201500D02*
X0311631Y0201500D01*
X0311704Y0202201D02*
X0311251Y0202201D01*
X0311251Y0203199D02*
X0311704Y0203199D01*
X0311704Y0204198D02*
X0311251Y0204198D01*
X0311251Y0205196D02*
X0312009Y0205196D01*
X0313008Y0206195D02*
X0310536Y0206195D01*
X0309538Y0207193D02*
X0314006Y0207193D01*
X0313940Y0208693D02*
X0315304Y0208693D01*
X0315304Y0212693D01*
X0311304Y0212693D01*
X0311304Y0211329D01*
X0313940Y0208693D01*
X0313443Y0209190D02*
X0307600Y0209190D01*
X0307502Y0209093D02*
X0309904Y0211495D01*
X0309904Y0214891D01*
X0307502Y0217293D01*
X0304106Y0217293D01*
X0301704Y0214891D01*
X0301704Y0211495D01*
X0304106Y0209093D01*
X0307502Y0209093D01*
X0308539Y0208192D02*
X0422273Y0208192D01*
X0422448Y0209190D02*
X0417600Y0209190D01*
X0417502Y0209093D02*
X0419904Y0211495D01*
X0419904Y0214891D01*
X0417502Y0217293D01*
X0414106Y0217293D01*
X0411704Y0214891D01*
X0411704Y0211495D01*
X0414106Y0209093D01*
X0417502Y0209093D01*
X0417668Y0207693D02*
X0416304Y0207693D01*
X0416304Y0203693D01*
X0415304Y0203693D01*
X0415304Y0207693D01*
X0413940Y0207693D01*
X0411304Y0205057D01*
X0411304Y0203693D01*
X0415304Y0203693D01*
X0415304Y0202693D01*
X0411304Y0202693D01*
X0411304Y0201329D01*
X0413940Y0198693D01*
X0415304Y0198693D01*
X0415304Y0202693D01*
X0416304Y0202693D01*
X0416304Y0203693D01*
X0420304Y0203693D01*
X0420304Y0205057D01*
X0417668Y0207693D01*
X0418167Y0207193D02*
X0422449Y0207193D01*
X0422625Y0206195D02*
X0419166Y0206195D01*
X0420164Y0205196D02*
X0422801Y0205196D01*
X0422977Y0204198D02*
X0420304Y0204198D01*
X0420304Y0202693D02*
X0416304Y0202693D01*
X0416304Y0198693D01*
X0417668Y0198693D01*
X0420304Y0201329D01*
X0420304Y0202693D01*
X0420304Y0202201D02*
X0423989Y0202201D01*
X0423413Y0203199D02*
X0416304Y0203199D01*
X0416304Y0202201D02*
X0415304Y0202201D01*
X0415304Y0203199D02*
X0409904Y0203199D01*
X0409904Y0202201D02*
X0411304Y0202201D01*
X0411431Y0201202D02*
X0409612Y0201202D01*
X0409904Y0201495D02*
X0407502Y0199093D01*
X0404106Y0199093D01*
X0401704Y0201495D01*
X0401704Y0204891D01*
X0404106Y0207293D01*
X0407502Y0207293D01*
X0409904Y0204891D01*
X0409904Y0201495D01*
X0408613Y0200204D02*
X0412429Y0200204D01*
X0413428Y0199205D02*
X0407615Y0199205D01*
X0403993Y0199205D02*
X0397615Y0199205D01*
X0397502Y0199093D02*
X0399904Y0201495D01*
X0399904Y0204891D01*
X0397502Y0207293D01*
X0394106Y0207293D01*
X0391704Y0204891D01*
X0391704Y0201495D01*
X0394106Y0199093D01*
X0397502Y0199093D01*
X0398613Y0200204D02*
X0402995Y0200204D01*
X0401996Y0201202D02*
X0399612Y0201202D01*
X0399904Y0202201D02*
X0401704Y0202201D01*
X0401704Y0203199D02*
X0399904Y0203199D01*
X0399904Y0204198D02*
X0401704Y0204198D01*
X0402009Y0205196D02*
X0399599Y0205196D01*
X0398600Y0206195D02*
X0403008Y0206195D01*
X0404006Y0207193D02*
X0397602Y0207193D01*
X0397502Y0209093D02*
X0394106Y0209093D01*
X0391704Y0211495D01*
X0391704Y0214891D01*
X0394106Y0217293D01*
X0397502Y0217293D01*
X0399904Y0214891D01*
X0399904Y0211495D01*
X0397502Y0209093D01*
X0397600Y0209190D02*
X0404008Y0209190D01*
X0404106Y0209093D02*
X0407502Y0209093D01*
X0409904Y0211495D01*
X0409904Y0214891D01*
X0407502Y0217293D01*
X0404106Y0217293D01*
X0401704Y0214891D01*
X0401704Y0211495D01*
X0404106Y0209093D01*
X0403010Y0210189D02*
X0398598Y0210189D01*
X0399597Y0211187D02*
X0402011Y0211187D01*
X0401704Y0212186D02*
X0399904Y0212186D01*
X0399904Y0213184D02*
X0401704Y0213184D01*
X0401704Y0214183D02*
X0399904Y0214183D01*
X0399614Y0215181D02*
X0401994Y0215181D01*
X0402993Y0216180D02*
X0398615Y0216180D01*
X0397617Y0217178D02*
X0403991Y0217178D01*
X0407617Y0217178D02*
X0413991Y0217178D01*
X0412993Y0216180D02*
X0408615Y0216180D01*
X0409614Y0215181D02*
X0411994Y0215181D01*
X0411704Y0214183D02*
X0409904Y0214183D01*
X0409904Y0213184D02*
X0411704Y0213184D01*
X0411704Y0212186D02*
X0409904Y0212186D01*
X0409597Y0211187D02*
X0412011Y0211187D01*
X0413010Y0210189D02*
X0408598Y0210189D01*
X0407600Y0209190D02*
X0414008Y0209190D01*
X0413440Y0207193D02*
X0407602Y0207193D01*
X0408600Y0206195D02*
X0412442Y0206195D01*
X0411443Y0205196D02*
X0409599Y0205196D01*
X0409904Y0204198D02*
X0411304Y0204198D01*
X0415304Y0204198D02*
X0416304Y0204198D01*
X0416304Y0205196D02*
X0415304Y0205196D01*
X0415304Y0206195D02*
X0416304Y0206195D01*
X0416304Y0207193D02*
X0415304Y0207193D01*
X0418598Y0210189D02*
X0422624Y0210189D01*
X0422800Y0211187D02*
X0419597Y0211187D01*
X0419904Y0212186D02*
X0422977Y0212186D01*
X0423412Y0213184D02*
X0419904Y0213184D01*
X0419904Y0214183D02*
X0423988Y0214183D01*
X0424565Y0215181D02*
X0419614Y0215181D01*
X0418615Y0216180D02*
X0425141Y0216180D01*
X0426221Y0217178D02*
X0417617Y0217178D01*
X0427411Y0218177D02*
X0214197Y0218177D01*
X0215387Y0217178D02*
X0223991Y0217178D01*
X0224106Y0217293D02*
X0221704Y0214891D01*
X0221704Y0211495D01*
X0224106Y0209093D01*
X0227502Y0209093D01*
X0229904Y0211495D01*
X0229904Y0214891D01*
X0227502Y0217293D01*
X0224106Y0217293D01*
X0222993Y0216180D02*
X0216467Y0216180D01*
X0217043Y0215181D02*
X0221994Y0215181D01*
X0221704Y0214183D02*
X0217620Y0214183D01*
X0218196Y0213184D02*
X0221704Y0213184D01*
X0221704Y0212186D02*
X0218631Y0212186D01*
X0218807Y0211187D02*
X0222011Y0211187D01*
X0223010Y0210189D02*
X0218983Y0210189D01*
X0219160Y0209190D02*
X0224008Y0209190D01*
X0224006Y0207193D02*
X0219159Y0207193D01*
X0218983Y0206195D02*
X0223008Y0206195D01*
X0222009Y0205196D02*
X0218807Y0205196D01*
X0218631Y0204198D02*
X0221704Y0204198D01*
X0221704Y0203199D02*
X0218195Y0203199D01*
X0217618Y0202201D02*
X0221704Y0202201D01*
X0221996Y0201202D02*
X0217042Y0201202D01*
X0216465Y0200204D02*
X0222995Y0200204D01*
X0223993Y0199205D02*
X0215384Y0199205D01*
X0214194Y0198207D02*
X0228765Y0198207D01*
X0229763Y0197208D02*
X0213004Y0197208D01*
X0210289Y0196210D02*
X0230762Y0196210D01*
X0231726Y0199205D02*
X0233993Y0199205D01*
X0234106Y0199093D02*
X0237502Y0199093D01*
X0239904Y0201495D01*
X0239904Y0204891D01*
X0237502Y0207293D01*
X0234106Y0207293D01*
X0231704Y0204891D01*
X0231704Y0201495D01*
X0234106Y0199093D01*
X0232995Y0200204D02*
X0230727Y0200204D01*
X0229729Y0201202D02*
X0231996Y0201202D01*
X0231704Y0202201D02*
X0229904Y0202201D01*
X0229904Y0203199D02*
X0231704Y0203199D01*
X0231704Y0204198D02*
X0229904Y0204198D01*
X0229599Y0205196D02*
X0232009Y0205196D01*
X0233008Y0206195D02*
X0228600Y0206195D01*
X0227602Y0207193D02*
X0234006Y0207193D01*
X0234106Y0209093D02*
X0237502Y0209093D01*
X0239904Y0211495D01*
X0239904Y0214891D01*
X0237502Y0217293D01*
X0234106Y0217293D01*
X0231704Y0214891D01*
X0231704Y0211495D01*
X0234106Y0209093D01*
X0234008Y0209190D02*
X0227600Y0209190D01*
X0228598Y0210189D02*
X0233010Y0210189D01*
X0232011Y0211187D02*
X0229597Y0211187D01*
X0229904Y0212186D02*
X0231704Y0212186D01*
X0231704Y0213184D02*
X0229904Y0213184D01*
X0229904Y0214183D02*
X0231704Y0214183D01*
X0231994Y0215181D02*
X0229614Y0215181D01*
X0228615Y0216180D02*
X0232993Y0216180D01*
X0233991Y0217178D02*
X0227617Y0217178D01*
X0237617Y0217178D02*
X0243426Y0217178D01*
X0243940Y0217693D02*
X0241304Y0215057D01*
X0241304Y0213693D01*
X0245304Y0213693D01*
X0245304Y0217693D01*
X0243940Y0217693D01*
X0245304Y0217178D02*
X0246304Y0217178D01*
X0246304Y0217693D02*
X0247668Y0217693D01*
X0250304Y0215057D01*
X0250304Y0213693D01*
X0246304Y0213693D01*
X0245304Y0213693D01*
X0245304Y0212693D01*
X0241304Y0212693D01*
X0241304Y0211329D01*
X0243940Y0208693D01*
X0245304Y0208693D01*
X0245304Y0212693D01*
X0246304Y0212693D01*
X0246304Y0213693D01*
X0246304Y0217693D01*
X0246304Y0216180D02*
X0245304Y0216180D01*
X0245304Y0215181D02*
X0246304Y0215181D01*
X0246304Y0214183D02*
X0245304Y0214183D01*
X0245304Y0213184D02*
X0239904Y0213184D01*
X0239904Y0212186D02*
X0241304Y0212186D01*
X0241446Y0211187D02*
X0239597Y0211187D01*
X0238598Y0210189D02*
X0242444Y0210189D01*
X0243443Y0209190D02*
X0237600Y0209190D01*
X0237602Y0207193D02*
X0244006Y0207193D01*
X0244106Y0207293D02*
X0241704Y0204891D01*
X0241704Y0201495D01*
X0244106Y0199093D01*
X0247502Y0199093D01*
X0249904Y0201495D01*
X0249904Y0204891D01*
X0247502Y0207293D01*
X0244106Y0207293D01*
X0243008Y0206195D02*
X0238600Y0206195D01*
X0239599Y0205196D02*
X0242009Y0205196D01*
X0241704Y0204198D02*
X0239904Y0204198D01*
X0239904Y0203199D02*
X0241704Y0203199D01*
X0241704Y0202201D02*
X0239904Y0202201D01*
X0239612Y0201202D02*
X0241996Y0201202D01*
X0242995Y0200204D02*
X0238613Y0200204D01*
X0237615Y0199205D02*
X0243993Y0199205D01*
X0247615Y0199205D02*
X0253993Y0199205D01*
X0254106Y0199093D02*
X0257502Y0199093D01*
X0259904Y0201495D01*
X0259904Y0204891D01*
X0257502Y0207293D01*
X0254106Y0207293D01*
X0251704Y0204891D01*
X0251704Y0201495D01*
X0254106Y0199093D01*
X0252995Y0200204D02*
X0248613Y0200204D01*
X0249612Y0201202D02*
X0251996Y0201202D01*
X0251704Y0202201D02*
X0249904Y0202201D01*
X0249904Y0203199D02*
X0251704Y0203199D01*
X0251704Y0204198D02*
X0249904Y0204198D01*
X0249599Y0205196D02*
X0252009Y0205196D01*
X0253008Y0206195D02*
X0248600Y0206195D01*
X0247602Y0207193D02*
X0254006Y0207193D01*
X0254106Y0209093D02*
X0257502Y0209093D01*
X0259904Y0211495D01*
X0259904Y0214891D01*
X0257502Y0217293D01*
X0254106Y0217293D01*
X0251704Y0214891D01*
X0251704Y0211495D01*
X0254106Y0209093D01*
X0254008Y0209190D02*
X0248165Y0209190D01*
X0247668Y0208693D02*
X0250304Y0211329D01*
X0250304Y0212693D01*
X0246304Y0212693D01*
X0246304Y0208693D01*
X0247668Y0208693D01*
X0246304Y0209190D02*
X0245304Y0209190D01*
X0245304Y0210189D02*
X0246304Y0210189D01*
X0246304Y0211187D02*
X0245304Y0211187D01*
X0245304Y0212186D02*
X0246304Y0212186D01*
X0246304Y0213184D02*
X0251704Y0213184D01*
X0251704Y0212186D02*
X0250304Y0212186D01*
X0250162Y0211187D02*
X0252011Y0211187D01*
X0253010Y0210189D02*
X0249164Y0210189D01*
X0250304Y0214183D02*
X0251704Y0214183D01*
X0251994Y0215181D02*
X0250179Y0215181D01*
X0249181Y0216180D02*
X0252993Y0216180D01*
X0253991Y0217178D02*
X0248182Y0217178D01*
X0242427Y0216180D02*
X0238615Y0216180D01*
X0239614Y0215181D02*
X0241428Y0215181D01*
X0241304Y0214183D02*
X0239904Y0214183D01*
X0257617Y0217178D02*
X0263991Y0217178D01*
X0264106Y0217293D02*
X0261704Y0214891D01*
X0261704Y0211495D01*
X0264106Y0209093D01*
X0267502Y0209093D01*
X0269904Y0211495D01*
X0269904Y0214891D01*
X0267502Y0217293D01*
X0264106Y0217293D01*
X0262993Y0216180D02*
X0258615Y0216180D01*
X0259614Y0215181D02*
X0261994Y0215181D01*
X0261704Y0214183D02*
X0259904Y0214183D01*
X0259904Y0213184D02*
X0261704Y0213184D01*
X0261704Y0212186D02*
X0259904Y0212186D01*
X0259597Y0211187D02*
X0262011Y0211187D01*
X0263010Y0210189D02*
X0258598Y0210189D01*
X0257600Y0209190D02*
X0264008Y0209190D01*
X0263940Y0207693D02*
X0261304Y0205057D01*
X0261304Y0203693D01*
X0265304Y0203693D01*
X0265304Y0207693D01*
X0263940Y0207693D01*
X0263440Y0207193D02*
X0257602Y0207193D01*
X0258600Y0206195D02*
X0262442Y0206195D01*
X0261443Y0205196D02*
X0259599Y0205196D01*
X0259904Y0204198D02*
X0261304Y0204198D01*
X0261304Y0202693D02*
X0261304Y0201329D01*
X0263940Y0198693D01*
X0265304Y0198693D01*
X0265304Y0202693D01*
X0261304Y0202693D01*
X0261304Y0202201D02*
X0259904Y0202201D01*
X0259904Y0203199D02*
X0265304Y0203199D01*
X0265304Y0203693D02*
X0265304Y0202693D01*
X0266304Y0202693D01*
X0266304Y0203693D01*
X0265304Y0203693D01*
X0265304Y0204198D02*
X0266304Y0204198D01*
X0266304Y0203693D02*
X0266304Y0207693D01*
X0267668Y0207693D01*
X0270304Y0205057D01*
X0270304Y0203693D01*
X0266304Y0203693D01*
X0266304Y0203199D02*
X0271704Y0203199D01*
X0271704Y0202201D02*
X0270304Y0202201D01*
X0270304Y0202693D02*
X0266304Y0202693D01*
X0266304Y0198693D01*
X0267668Y0198693D01*
X0270304Y0201329D01*
X0270304Y0202693D01*
X0270177Y0201202D02*
X0271996Y0201202D01*
X0271704Y0201495D02*
X0274106Y0199093D01*
X0277502Y0199093D01*
X0279904Y0201495D01*
X0279904Y0204891D01*
X0277502Y0207293D01*
X0274106Y0207293D01*
X0271704Y0204891D01*
X0271704Y0201495D01*
X0272995Y0200204D02*
X0269179Y0200204D01*
X0268180Y0199205D02*
X0273993Y0199205D01*
X0277615Y0199205D02*
X0283993Y0199205D01*
X0284106Y0199093D02*
X0287502Y0199093D01*
X0289904Y0201495D01*
X0289904Y0204891D01*
X0287502Y0207293D01*
X0284106Y0207293D01*
X0281704Y0204891D01*
X0281704Y0201495D01*
X0284106Y0199093D01*
X0282995Y0200204D02*
X0278613Y0200204D01*
X0279612Y0201202D02*
X0281996Y0201202D01*
X0281704Y0202201D02*
X0279904Y0202201D01*
X0279904Y0203199D02*
X0281704Y0203199D01*
X0281704Y0204198D02*
X0279904Y0204198D01*
X0279599Y0205196D02*
X0282009Y0205196D01*
X0283008Y0206195D02*
X0278600Y0206195D01*
X0277602Y0207193D02*
X0284006Y0207193D01*
X0283940Y0208693D02*
X0285304Y0208693D01*
X0285304Y0212693D01*
X0281304Y0212693D01*
X0281304Y0211329D01*
X0283940Y0208693D01*
X0283443Y0209190D02*
X0277600Y0209190D01*
X0277502Y0209093D02*
X0279904Y0211495D01*
X0279904Y0214891D01*
X0277502Y0217293D01*
X0274106Y0217293D01*
X0271704Y0214891D01*
X0271704Y0211495D01*
X0274106Y0209093D01*
X0277502Y0209093D01*
X0278598Y0210189D02*
X0282444Y0210189D01*
X0281446Y0211187D02*
X0279597Y0211187D01*
X0279904Y0212186D02*
X0281304Y0212186D01*
X0281304Y0213693D02*
X0285304Y0213693D01*
X0285304Y0217693D01*
X0283940Y0217693D01*
X0281304Y0215057D01*
X0281304Y0213693D01*
X0281304Y0214183D02*
X0279904Y0214183D01*
X0279904Y0213184D02*
X0285304Y0213184D01*
X0285304Y0212693D02*
X0285304Y0213693D01*
X0286304Y0213693D01*
X0286304Y0217693D01*
X0287668Y0217693D01*
X0290304Y0215057D01*
X0290304Y0213693D01*
X0286304Y0213693D01*
X0286304Y0212693D01*
X0290304Y0212693D01*
X0290304Y0211329D01*
X0287668Y0208693D01*
X0286304Y0208693D01*
X0286304Y0212693D01*
X0285304Y0212693D01*
X0285304Y0212186D02*
X0286304Y0212186D01*
X0286304Y0213184D02*
X0291704Y0213184D01*
X0291704Y0212186D02*
X0290304Y0212186D01*
X0290162Y0211187D02*
X0292011Y0211187D01*
X0293010Y0210189D02*
X0289164Y0210189D01*
X0288165Y0209190D02*
X0294008Y0209190D01*
X0294106Y0207293D02*
X0291704Y0204891D01*
X0291704Y0201495D01*
X0294106Y0199093D01*
X0297502Y0199093D01*
X0299904Y0201495D01*
X0299904Y0204891D01*
X0297502Y0207293D01*
X0294106Y0207293D01*
X0294006Y0207193D02*
X0287602Y0207193D01*
X0288600Y0206195D02*
X0293008Y0206195D01*
X0292009Y0205196D02*
X0289599Y0205196D01*
X0289904Y0204198D02*
X0291704Y0204198D01*
X0291704Y0203199D02*
X0289904Y0203199D01*
X0289904Y0202201D02*
X0291704Y0202201D01*
X0291996Y0201202D02*
X0289612Y0201202D01*
X0288613Y0200204D02*
X0292995Y0200204D01*
X0293993Y0199205D02*
X0287615Y0199205D01*
X0288651Y0195211D02*
X0194351Y0195211D01*
X0194351Y0194213D02*
X0288651Y0194213D01*
X0288651Y0193214D02*
X0194351Y0193214D01*
X0194351Y0192216D02*
X0288651Y0192216D01*
X0288651Y0191217D02*
X0194351Y0191217D01*
X0194351Y0190219D02*
X0288651Y0190219D01*
X0288651Y0189220D02*
X0194351Y0189220D01*
X0194351Y0188222D02*
X0288651Y0188222D01*
X0288651Y0187223D02*
X0194351Y0187223D01*
X0194351Y0186225D02*
X0288651Y0186225D01*
X0288651Y0185226D02*
X0194351Y0185226D01*
X0194351Y0184228D02*
X0288651Y0184228D01*
X0286128Y0183229D02*
X0194351Y0183229D01*
X0194351Y0182231D02*
X0285351Y0182231D01*
X0285351Y0181232D02*
X0194351Y0181232D01*
X0194351Y0180234D02*
X0284405Y0180234D01*
X0283406Y0179235D02*
X0194351Y0179235D01*
X0194351Y0178237D02*
X0282408Y0178237D01*
X0282051Y0177238D02*
X0194351Y0177238D01*
X0194351Y0176239D02*
X0282051Y0176239D01*
X0282051Y0175241D02*
X0194351Y0175241D01*
X0194351Y0174242D02*
X0282051Y0174242D01*
X0282051Y0173244D02*
X0194351Y0173244D01*
X0194351Y0172245D02*
X0282051Y0172245D01*
X0282051Y0171247D02*
X0194351Y0171247D01*
X0212784Y0170248D02*
X0282051Y0170248D01*
X0282051Y0169250D02*
X0214401Y0169250D01*
X0215129Y0168251D02*
X0282051Y0168251D01*
X0282051Y0167253D02*
X0215531Y0167253D01*
X0233875Y0165256D02*
X0274154Y0165256D01*
X0273351Y0164257D02*
X0234874Y0164257D01*
X0235872Y0163259D02*
X0273351Y0163259D01*
X0273638Y0162260D02*
X0236871Y0162260D01*
X0237869Y0161262D02*
X0274251Y0161262D01*
X0274251Y0160263D02*
X0238868Y0160263D01*
X0239866Y0159265D02*
X0274251Y0159265D01*
X0274251Y0158266D02*
X0240865Y0158266D01*
X0241863Y0157268D02*
X0274251Y0157268D01*
X0274251Y0156269D02*
X0242862Y0156269D01*
X0243860Y0155271D02*
X0274251Y0155271D01*
X0274251Y0154272D02*
X0244859Y0154272D01*
X0245857Y0153274D02*
X0274251Y0153274D01*
X0274251Y0152275D02*
X0246856Y0152275D01*
X0247854Y0151277D02*
X0274251Y0151277D01*
X0274251Y0150278D02*
X0248853Y0150278D01*
X0249851Y0149280D02*
X0274251Y0149280D01*
X0274251Y0148281D02*
X0250850Y0148281D01*
X0251848Y0147283D02*
X0274251Y0147283D01*
X0274251Y0146284D02*
X0252847Y0146284D01*
X0253845Y0145286D02*
X0274251Y0145286D01*
X0274251Y0144287D02*
X0254844Y0144287D01*
X0255842Y0143289D02*
X0274251Y0143289D01*
X0274251Y0142290D02*
X0256841Y0142290D01*
X0257839Y0141292D02*
X0274251Y0141292D01*
X0274251Y0140293D02*
X0258838Y0140293D01*
X0259837Y0139295D02*
X0274251Y0139295D01*
X0274251Y0138296D02*
X0260835Y0138296D01*
X0261834Y0137298D02*
X0274251Y0137298D01*
X0274251Y0136299D02*
X0262832Y0136299D01*
X0263831Y0135301D02*
X0274251Y0135301D01*
X0274251Y0134302D02*
X0264829Y0134302D01*
X0265828Y0133303D02*
X0274251Y0133303D01*
X0274251Y0132305D02*
X0266826Y0132305D01*
X0267825Y0131306D02*
X0274251Y0131306D01*
X0274251Y0130308D02*
X0268823Y0130308D01*
X0269822Y0129309D02*
X0274251Y0129309D01*
X0274251Y0128311D02*
X0270820Y0128311D01*
X0271819Y0127312D02*
X0274251Y0127312D01*
X0274251Y0126314D02*
X0272817Y0126314D01*
X0273816Y0125315D02*
X0274251Y0125315D01*
X0284663Y0163259D02*
X0288651Y0163259D01*
X0288651Y0164257D02*
X0285661Y0164257D01*
X0285751Y0165256D02*
X0288651Y0165256D01*
X0288651Y0166254D02*
X0285749Y0166254D01*
X0284851Y0167253D02*
X0288651Y0167253D01*
X0288651Y0168251D02*
X0284851Y0168251D01*
X0284851Y0169250D02*
X0288651Y0169250D01*
X0288651Y0170248D02*
X0284851Y0170248D01*
X0284851Y0171247D02*
X0288651Y0171247D01*
X0288651Y0172245D02*
X0284851Y0172245D01*
X0284851Y0173244D02*
X0288651Y0173244D01*
X0288651Y0174242D02*
X0284851Y0174242D01*
X0284851Y0175241D02*
X0288651Y0175241D01*
X0288651Y0176239D02*
X0284851Y0176239D01*
X0285369Y0177238D02*
X0288651Y0177238D01*
X0288651Y0178237D02*
X0286368Y0178237D01*
X0288639Y0179235D02*
X0288651Y0179235D01*
X0297615Y0199205D02*
X0299777Y0199205D01*
X0300775Y0200204D02*
X0298613Y0200204D01*
X0299612Y0201202D02*
X0301774Y0201202D01*
X0301704Y0202201D02*
X0299904Y0202201D01*
X0299904Y0203199D02*
X0301704Y0203199D01*
X0301704Y0204198D02*
X0299904Y0204198D01*
X0299599Y0205196D02*
X0302009Y0205196D01*
X0302976Y0206195D02*
X0298600Y0206195D01*
X0299578Y0207193D02*
X0297602Y0207193D01*
X0298579Y0208192D02*
X0219335Y0208192D01*
X0227615Y0199205D02*
X0227766Y0199205D01*
X0202972Y0196210D02*
X0194351Y0196210D01*
X0194351Y0197208D02*
X0200257Y0197208D01*
X0199067Y0198207D02*
X0194351Y0198207D01*
X0194351Y0199205D02*
X0197877Y0199205D01*
X0196796Y0200204D02*
X0194351Y0200204D01*
X0194351Y0201202D02*
X0196219Y0201202D01*
X0195643Y0202201D02*
X0194351Y0202201D01*
X0194351Y0203199D02*
X0195066Y0203199D01*
X0194630Y0204198D02*
X0194351Y0204198D01*
X0194351Y0205196D02*
X0194454Y0205196D01*
X0210295Y0220174D02*
X0431313Y0220174D01*
X0428601Y0219175D02*
X0213007Y0219175D01*
X0257615Y0199205D02*
X0263428Y0199205D01*
X0262429Y0200204D02*
X0258613Y0200204D01*
X0259612Y0201202D02*
X0261431Y0201202D01*
X0265304Y0201202D02*
X0266304Y0201202D01*
X0266304Y0200204D02*
X0265304Y0200204D01*
X0265304Y0199205D02*
X0266304Y0199205D01*
X0266304Y0202201D02*
X0265304Y0202201D01*
X0265304Y0205196D02*
X0266304Y0205196D01*
X0266304Y0206195D02*
X0265304Y0206195D01*
X0265304Y0207193D02*
X0266304Y0207193D01*
X0268167Y0207193D02*
X0274006Y0207193D01*
X0273008Y0206195D02*
X0269166Y0206195D01*
X0270164Y0205196D02*
X0272009Y0205196D01*
X0271704Y0204198D02*
X0270304Y0204198D01*
X0267600Y0209190D02*
X0274008Y0209190D01*
X0273010Y0210189D02*
X0268598Y0210189D01*
X0269597Y0211187D02*
X0272011Y0211187D01*
X0271704Y0212186D02*
X0269904Y0212186D01*
X0269904Y0213184D02*
X0271704Y0213184D01*
X0271704Y0214183D02*
X0269904Y0214183D01*
X0269614Y0215181D02*
X0271994Y0215181D01*
X0272993Y0216180D02*
X0268615Y0216180D01*
X0267617Y0217178D02*
X0273991Y0217178D01*
X0277617Y0217178D02*
X0283426Y0217178D01*
X0282427Y0216180D02*
X0278615Y0216180D01*
X0279614Y0215181D02*
X0281428Y0215181D01*
X0285304Y0215181D02*
X0286304Y0215181D01*
X0286304Y0214183D02*
X0285304Y0214183D01*
X0285304Y0216180D02*
X0286304Y0216180D01*
X0286304Y0217178D02*
X0285304Y0217178D01*
X0288182Y0217178D02*
X0293991Y0217178D01*
X0292993Y0216180D02*
X0289181Y0216180D01*
X0290179Y0215181D02*
X0291994Y0215181D01*
X0291704Y0214183D02*
X0290304Y0214183D01*
X0286304Y0211187D02*
X0285304Y0211187D01*
X0285304Y0210189D02*
X0286304Y0210189D01*
X0286304Y0209190D02*
X0285304Y0209190D01*
X0299597Y0211187D02*
X0302011Y0211187D01*
X0301704Y0212186D02*
X0299904Y0212186D01*
X0299904Y0213184D02*
X0301704Y0213184D01*
X0301704Y0214183D02*
X0299904Y0214183D01*
X0299614Y0215181D02*
X0301994Y0215181D01*
X0302993Y0216180D02*
X0298615Y0216180D01*
X0297617Y0217178D02*
X0303991Y0217178D01*
X0307617Y0217178D02*
X0313426Y0217178D01*
X0313940Y0217693D02*
X0311304Y0215057D01*
X0311304Y0213693D01*
X0315304Y0213693D01*
X0315304Y0217693D01*
X0313940Y0217693D01*
X0315304Y0217178D02*
X0316304Y0217178D01*
X0316304Y0217693D02*
X0317668Y0217693D01*
X0320304Y0215057D01*
X0320304Y0213693D01*
X0316304Y0213693D01*
X0315304Y0213693D01*
X0315304Y0212693D01*
X0316304Y0212693D01*
X0316304Y0213693D01*
X0316304Y0217693D01*
X0316304Y0216180D02*
X0315304Y0216180D01*
X0315304Y0215181D02*
X0316304Y0215181D01*
X0316304Y0214183D02*
X0315304Y0214183D01*
X0315304Y0213184D02*
X0309904Y0213184D01*
X0309904Y0212186D02*
X0311304Y0212186D01*
X0311446Y0211187D02*
X0309597Y0211187D01*
X0308598Y0210189D02*
X0312444Y0210189D01*
X0315304Y0210189D02*
X0316304Y0210189D01*
X0316304Y0211187D02*
X0315304Y0211187D01*
X0315304Y0212186D02*
X0316304Y0212186D01*
X0316304Y0212693D02*
X0316304Y0208693D01*
X0317668Y0208693D01*
X0320304Y0211329D01*
X0320304Y0212693D01*
X0316304Y0212693D01*
X0316304Y0213184D02*
X0321704Y0213184D01*
X0321704Y0212186D02*
X0320304Y0212186D01*
X0320162Y0211187D02*
X0322011Y0211187D01*
X0321704Y0211495D02*
X0324106Y0209093D01*
X0327502Y0209093D01*
X0329904Y0211495D01*
X0329904Y0214891D01*
X0327502Y0217293D01*
X0324106Y0217293D01*
X0321704Y0214891D01*
X0321704Y0211495D01*
X0323010Y0210189D02*
X0319164Y0210189D01*
X0318165Y0209190D02*
X0324008Y0209190D01*
X0324106Y0207293D02*
X0321704Y0204891D01*
X0321704Y0201495D01*
X0324106Y0199093D01*
X0327502Y0199093D01*
X0329904Y0201495D01*
X0329904Y0204891D01*
X0327502Y0207293D01*
X0324106Y0207293D01*
X0324006Y0207193D02*
X0317602Y0207193D01*
X0318600Y0206195D02*
X0323008Y0206195D01*
X0322009Y0205196D02*
X0319599Y0205196D01*
X0319904Y0204198D02*
X0321704Y0204198D01*
X0321704Y0203199D02*
X0319904Y0203199D01*
X0319904Y0202201D02*
X0321704Y0202201D01*
X0321996Y0201202D02*
X0319612Y0201202D01*
X0318613Y0200204D02*
X0322995Y0200204D01*
X0323993Y0199205D02*
X0317615Y0199205D01*
X0327615Y0199205D02*
X0333993Y0199205D01*
X0334106Y0199093D02*
X0337502Y0199093D01*
X0339904Y0201495D01*
X0339904Y0204891D01*
X0337502Y0207293D01*
X0334106Y0207293D01*
X0331704Y0204891D01*
X0331704Y0201495D01*
X0334106Y0199093D01*
X0332995Y0200204D02*
X0328613Y0200204D01*
X0329612Y0201202D02*
X0331996Y0201202D01*
X0331704Y0202201D02*
X0329904Y0202201D01*
X0329904Y0203199D02*
X0331704Y0203199D01*
X0331704Y0204198D02*
X0329904Y0204198D01*
X0329599Y0205196D02*
X0332009Y0205196D01*
X0333008Y0206195D02*
X0328600Y0206195D01*
X0327602Y0207193D02*
X0334006Y0207193D01*
X0334106Y0209093D02*
X0337502Y0209093D01*
X0339904Y0211495D01*
X0339904Y0214891D01*
X0337502Y0217293D01*
X0334106Y0217293D01*
X0331704Y0214891D01*
X0331704Y0211495D01*
X0334106Y0209093D01*
X0334008Y0209190D02*
X0327600Y0209190D01*
X0328598Y0210189D02*
X0333010Y0210189D01*
X0332011Y0211187D02*
X0329597Y0211187D01*
X0329904Y0212186D02*
X0331704Y0212186D01*
X0331704Y0213184D02*
X0329904Y0213184D01*
X0329904Y0214183D02*
X0331704Y0214183D01*
X0331994Y0215181D02*
X0329614Y0215181D01*
X0328615Y0216180D02*
X0332993Y0216180D01*
X0333991Y0217178D02*
X0327617Y0217178D01*
X0323991Y0217178D02*
X0318182Y0217178D01*
X0319181Y0216180D02*
X0322993Y0216180D01*
X0321994Y0215181D02*
X0320179Y0215181D01*
X0320304Y0214183D02*
X0321704Y0214183D01*
X0316304Y0209190D02*
X0315304Y0209190D01*
X0311304Y0214183D02*
X0309904Y0214183D01*
X0309614Y0215181D02*
X0311428Y0215181D01*
X0312427Y0216180D02*
X0308615Y0216180D01*
X0303010Y0210189D02*
X0300542Y0210189D01*
X0303941Y0209190D02*
X0304008Y0209190D01*
X0337600Y0209190D02*
X0344008Y0209190D01*
X0344106Y0209093D02*
X0347502Y0209093D01*
X0349904Y0211495D01*
X0349904Y0214891D01*
X0347502Y0217293D01*
X0344106Y0217293D01*
X0341704Y0214891D01*
X0341704Y0211495D01*
X0344106Y0209093D01*
X0343940Y0207693D02*
X0341304Y0205057D01*
X0341304Y0203693D01*
X0345304Y0203693D01*
X0345304Y0207693D01*
X0343940Y0207693D01*
X0343440Y0207193D02*
X0337602Y0207193D01*
X0338600Y0206195D02*
X0342442Y0206195D01*
X0341443Y0205196D02*
X0339599Y0205196D01*
X0339904Y0204198D02*
X0341304Y0204198D01*
X0341304Y0202693D02*
X0341304Y0201329D01*
X0343940Y0198693D01*
X0345304Y0198693D01*
X0345304Y0202693D01*
X0341304Y0202693D01*
X0341304Y0202201D02*
X0339904Y0202201D01*
X0339904Y0203199D02*
X0345304Y0203199D01*
X0345304Y0203693D02*
X0345304Y0202693D01*
X0346304Y0202693D01*
X0346304Y0203693D01*
X0345304Y0203693D01*
X0345304Y0204198D02*
X0346304Y0204198D01*
X0346304Y0203693D02*
X0346304Y0207693D01*
X0347668Y0207693D01*
X0350304Y0205057D01*
X0350304Y0203693D01*
X0346304Y0203693D01*
X0346304Y0203199D02*
X0351704Y0203199D01*
X0351704Y0202201D02*
X0350304Y0202201D01*
X0350304Y0202693D02*
X0346304Y0202693D01*
X0346304Y0198693D01*
X0347668Y0198693D01*
X0350304Y0201329D01*
X0350304Y0202693D01*
X0350177Y0201202D02*
X0351996Y0201202D01*
X0351704Y0201495D02*
X0354106Y0199093D01*
X0357502Y0199093D01*
X0359904Y0201495D01*
X0359904Y0204891D01*
X0357502Y0207293D01*
X0354106Y0207293D01*
X0351704Y0204891D01*
X0351704Y0201495D01*
X0352995Y0200204D02*
X0349179Y0200204D01*
X0348180Y0199205D02*
X0353993Y0199205D01*
X0357615Y0199205D02*
X0363993Y0199205D01*
X0362995Y0200204D02*
X0358613Y0200204D01*
X0359612Y0201202D02*
X0361996Y0201202D01*
X0361704Y0202201D02*
X0359904Y0202201D01*
X0359904Y0203199D02*
X0361704Y0203199D01*
X0361704Y0204198D02*
X0359904Y0204198D01*
X0359599Y0205196D02*
X0362009Y0205196D01*
X0363008Y0206195D02*
X0358600Y0206195D01*
X0357602Y0207193D02*
X0364006Y0207193D01*
X0363940Y0208693D02*
X0365304Y0208693D01*
X0365304Y0212693D01*
X0361304Y0212693D01*
X0361304Y0211329D01*
X0363940Y0208693D01*
X0363443Y0209190D02*
X0357600Y0209190D01*
X0357502Y0209093D02*
X0359904Y0211495D01*
X0359904Y0214891D01*
X0357502Y0217293D01*
X0354106Y0217293D01*
X0351704Y0214891D01*
X0351704Y0211495D01*
X0354106Y0209093D01*
X0357502Y0209093D01*
X0358598Y0210189D02*
X0362444Y0210189D01*
X0361446Y0211187D02*
X0359597Y0211187D01*
X0359904Y0212186D02*
X0361304Y0212186D01*
X0361304Y0213693D02*
X0365304Y0213693D01*
X0365304Y0217693D01*
X0363940Y0217693D01*
X0361304Y0215057D01*
X0361304Y0213693D01*
X0361304Y0214183D02*
X0359904Y0214183D01*
X0359904Y0213184D02*
X0365304Y0213184D01*
X0365304Y0212693D02*
X0365304Y0213693D01*
X0366304Y0213693D01*
X0366304Y0217693D01*
X0367668Y0217693D01*
X0370304Y0215057D01*
X0370304Y0213693D01*
X0366304Y0213693D01*
X0366304Y0212693D01*
X0370304Y0212693D01*
X0370304Y0211329D01*
X0367668Y0208693D01*
X0366304Y0208693D01*
X0366304Y0212693D01*
X0365304Y0212693D01*
X0365304Y0212186D02*
X0366304Y0212186D01*
X0366304Y0213184D02*
X0371704Y0213184D01*
X0371704Y0212186D02*
X0370304Y0212186D01*
X0370162Y0211187D02*
X0372011Y0211187D01*
X0371704Y0211495D02*
X0374106Y0209093D01*
X0377502Y0209093D01*
X0379904Y0211495D01*
X0379904Y0214891D01*
X0377502Y0217293D01*
X0374106Y0217293D01*
X0371704Y0214891D01*
X0371704Y0211495D01*
X0373010Y0210189D02*
X0369164Y0210189D01*
X0368165Y0209190D02*
X0374008Y0209190D01*
X0374106Y0207293D02*
X0371704Y0204891D01*
X0371704Y0201495D01*
X0374106Y0199093D01*
X0377502Y0199093D01*
X0377690Y0199281D01*
X0421551Y0155420D01*
X0421551Y0154147D01*
X0422898Y0152800D01*
X0424804Y0152800D01*
X0426151Y0154147D01*
X0426151Y0156053D01*
X0424804Y0157400D01*
X0423531Y0157400D01*
X0379670Y0201261D01*
X0379904Y0201495D01*
X0379904Y0204891D01*
X0377502Y0207293D01*
X0374106Y0207293D01*
X0374006Y0207193D02*
X0367602Y0207193D01*
X0368600Y0206195D02*
X0373008Y0206195D01*
X0372009Y0205196D02*
X0369599Y0205196D01*
X0369904Y0204198D02*
X0371704Y0204198D01*
X0371704Y0203199D02*
X0369904Y0203199D01*
X0369904Y0202201D02*
X0371704Y0202201D01*
X0371996Y0201202D02*
X0370129Y0201202D01*
X0371127Y0200204D02*
X0372995Y0200204D01*
X0372126Y0199205D02*
X0373993Y0199205D01*
X0373124Y0198207D02*
X0378765Y0198207D01*
X0379763Y0197208D02*
X0374123Y0197208D01*
X0375121Y0196210D02*
X0380762Y0196210D01*
X0381760Y0195211D02*
X0376120Y0195211D01*
X0377118Y0194213D02*
X0382759Y0194213D01*
X0383757Y0193214D02*
X0378117Y0193214D01*
X0379115Y0192216D02*
X0384756Y0192216D01*
X0385754Y0191217D02*
X0380114Y0191217D01*
X0381112Y0190219D02*
X0386753Y0190219D01*
X0387751Y0189220D02*
X0382111Y0189220D01*
X0383109Y0188222D02*
X0388750Y0188222D01*
X0389748Y0187223D02*
X0384108Y0187223D01*
X0385106Y0186225D02*
X0390747Y0186225D01*
X0391745Y0185226D02*
X0386105Y0185226D01*
X0387103Y0184228D02*
X0392744Y0184228D01*
X0393742Y0183229D02*
X0388102Y0183229D01*
X0389101Y0182231D02*
X0394741Y0182231D01*
X0395739Y0181232D02*
X0390099Y0181232D01*
X0391098Y0180234D02*
X0396738Y0180234D01*
X0397736Y0179235D02*
X0392096Y0179235D01*
X0393095Y0178237D02*
X0398735Y0178237D01*
X0399733Y0177238D02*
X0394093Y0177238D01*
X0395092Y0176239D02*
X0400732Y0176239D01*
X0401730Y0175241D02*
X0396090Y0175241D01*
X0397089Y0174242D02*
X0402729Y0174242D01*
X0403727Y0173244D02*
X0398087Y0173244D01*
X0399086Y0172245D02*
X0404726Y0172245D01*
X0405724Y0171247D02*
X0400084Y0171247D01*
X0401083Y0170248D02*
X0406723Y0170248D01*
X0407721Y0169250D02*
X0402081Y0169250D01*
X0403080Y0168251D02*
X0408720Y0168251D01*
X0409718Y0167253D02*
X0404078Y0167253D01*
X0405077Y0166254D02*
X0410717Y0166254D01*
X0411715Y0165256D02*
X0406075Y0165256D01*
X0407074Y0164257D02*
X0412714Y0164257D01*
X0413712Y0163259D02*
X0408072Y0163259D01*
X0409071Y0162260D02*
X0414711Y0162260D01*
X0415709Y0161262D02*
X0410069Y0161262D01*
X0411068Y0160263D02*
X0416708Y0160263D01*
X0417706Y0159265D02*
X0412066Y0159265D01*
X0413065Y0158266D02*
X0418705Y0158266D01*
X0419704Y0157268D02*
X0414063Y0157268D01*
X0415062Y0156269D02*
X0420702Y0156269D01*
X0421551Y0155271D02*
X0416060Y0155271D01*
X0417059Y0154272D02*
X0421551Y0154272D01*
X0422425Y0153274D02*
X0418057Y0153274D01*
X0419056Y0152275D02*
X0447257Y0152275D01*
X0447257Y0151277D02*
X0420054Y0151277D01*
X0421053Y0150278D02*
X0447257Y0150278D01*
X0447257Y0149280D02*
X0422051Y0149280D01*
X0423050Y0148281D02*
X0447257Y0148281D01*
X0447257Y0147283D02*
X0424048Y0147283D01*
X0425047Y0146284D02*
X0447257Y0146284D01*
X0447257Y0145286D02*
X0426045Y0145286D01*
X0427044Y0144287D02*
X0447257Y0144287D01*
X0447257Y0143289D02*
X0429315Y0143289D01*
X0430314Y0142290D02*
X0447257Y0142290D01*
X0447257Y0141292D02*
X0430351Y0141292D01*
X0430297Y0140293D02*
X0447257Y0140293D01*
X0447257Y0139295D02*
X0429298Y0139295D01*
X0425278Y0153274D02*
X0447257Y0153274D01*
X0447257Y0154272D02*
X0426151Y0154272D01*
X0426151Y0155271D02*
X0447257Y0155271D01*
X0447257Y0156269D02*
X0425935Y0156269D01*
X0424936Y0157268D02*
X0447257Y0157268D01*
X0447257Y0158266D02*
X0422665Y0158266D01*
X0421666Y0159265D02*
X0447257Y0159265D01*
X0447257Y0160263D02*
X0420668Y0160263D01*
X0419669Y0161262D02*
X0447257Y0161262D01*
X0447257Y0162260D02*
X0427064Y0162260D01*
X0426604Y0161800D02*
X0427951Y0163147D01*
X0427951Y0165053D01*
X0426604Y0166400D01*
X0425331Y0166400D01*
X0391651Y0200080D01*
X0390831Y0200900D01*
X0390231Y0200900D01*
X0389770Y0201361D01*
X0389904Y0201495D01*
X0389904Y0204891D01*
X0387502Y0207293D01*
X0384106Y0207293D01*
X0381704Y0204891D01*
X0381704Y0201495D01*
X0384106Y0199093D01*
X0387502Y0199093D01*
X0387790Y0199381D01*
X0389071Y0198100D01*
X0389671Y0198100D01*
X0423351Y0164420D01*
X0423351Y0163147D01*
X0424698Y0161800D01*
X0426604Y0161800D01*
X0427951Y0163259D02*
X0447257Y0163259D01*
X0447257Y0164257D02*
X0427951Y0164257D01*
X0427748Y0165256D02*
X0447257Y0165256D01*
X0447257Y0166254D02*
X0426749Y0166254D01*
X0424478Y0167253D02*
X0447257Y0167253D01*
X0447257Y0168251D02*
X0423480Y0168251D01*
X0422481Y0169250D02*
X0447257Y0169250D01*
X0447257Y0170248D02*
X0421483Y0170248D01*
X0420484Y0171247D02*
X0447257Y0171247D01*
X0447257Y0172245D02*
X0419486Y0172245D01*
X0418487Y0173244D02*
X0447257Y0173244D01*
X0447257Y0174242D02*
X0417489Y0174242D01*
X0416490Y0175241D02*
X0447257Y0175241D01*
X0447257Y0176239D02*
X0415492Y0176239D01*
X0414493Y0177238D02*
X0447257Y0177238D01*
X0447257Y0178237D02*
X0413495Y0178237D01*
X0412496Y0179235D02*
X0447257Y0179235D01*
X0447257Y0180234D02*
X0411498Y0180234D01*
X0410499Y0181232D02*
X0447257Y0181232D01*
X0447257Y0182231D02*
X0409501Y0182231D01*
X0408502Y0183229D02*
X0447257Y0183229D01*
X0447257Y0184228D02*
X0407503Y0184228D01*
X0406505Y0185226D02*
X0447257Y0185226D01*
X0447257Y0186225D02*
X0405506Y0186225D01*
X0404508Y0187223D02*
X0447257Y0187223D01*
X0447257Y0188222D02*
X0403509Y0188222D01*
X0402511Y0189220D02*
X0447257Y0189220D01*
X0447257Y0190219D02*
X0401512Y0190219D01*
X0400514Y0191217D02*
X0447257Y0191217D01*
X0447257Y0192216D02*
X0399515Y0192216D01*
X0398517Y0193214D02*
X0447257Y0193214D01*
X0447257Y0194213D02*
X0397518Y0194213D01*
X0396520Y0195211D02*
X0447257Y0195211D01*
X0447257Y0196210D02*
X0438635Y0196210D01*
X0441351Y0197208D02*
X0447257Y0197208D01*
X0447257Y0198207D02*
X0442541Y0198207D01*
X0443731Y0199205D02*
X0447257Y0199205D01*
X0447257Y0200204D02*
X0444812Y0200204D01*
X0445388Y0201202D02*
X0447257Y0201202D01*
X0447257Y0202201D02*
X0445965Y0202201D01*
X0446541Y0203199D02*
X0447257Y0203199D01*
X0447257Y0204198D02*
X0446977Y0204198D01*
X0447153Y0205196D02*
X0447257Y0205196D01*
X0431319Y0196210D02*
X0395521Y0196210D01*
X0394523Y0197208D02*
X0428603Y0197208D01*
X0427413Y0198207D02*
X0393524Y0198207D01*
X0393993Y0199205D02*
X0392526Y0199205D01*
X0392995Y0200204D02*
X0391527Y0200204D01*
X0391996Y0201202D02*
X0389929Y0201202D01*
X0389904Y0202201D02*
X0391704Y0202201D01*
X0391704Y0203199D02*
X0389904Y0203199D01*
X0389904Y0204198D02*
X0391704Y0204198D01*
X0392009Y0205196D02*
X0389599Y0205196D01*
X0388600Y0206195D02*
X0393008Y0206195D01*
X0394006Y0207193D02*
X0387602Y0207193D01*
X0387668Y0208693D02*
X0386304Y0208693D01*
X0386304Y0212693D01*
X0386304Y0213693D01*
X0385304Y0213693D01*
X0385304Y0217693D01*
X0383940Y0217693D01*
X0381304Y0215057D01*
X0381304Y0213693D01*
X0385304Y0213693D01*
X0385304Y0212693D01*
X0381304Y0212693D01*
X0381304Y0211329D01*
X0383940Y0208693D01*
X0385304Y0208693D01*
X0385304Y0212693D01*
X0386304Y0212693D01*
X0390304Y0212693D01*
X0390304Y0211329D01*
X0387668Y0208693D01*
X0388165Y0209190D02*
X0394008Y0209190D01*
X0393010Y0210189D02*
X0389164Y0210189D01*
X0390162Y0211187D02*
X0392011Y0211187D01*
X0391704Y0212186D02*
X0390304Y0212186D01*
X0390304Y0213693D02*
X0386304Y0213693D01*
X0386304Y0217693D01*
X0387668Y0217693D01*
X0390304Y0215057D01*
X0390304Y0213693D01*
X0390304Y0214183D02*
X0391704Y0214183D01*
X0391704Y0213184D02*
X0386304Y0213184D01*
X0386304Y0212186D02*
X0385304Y0212186D01*
X0385304Y0213184D02*
X0379904Y0213184D01*
X0379904Y0212186D02*
X0381304Y0212186D01*
X0381446Y0211187D02*
X0379597Y0211187D01*
X0378598Y0210189D02*
X0382444Y0210189D01*
X0383443Y0209190D02*
X0377600Y0209190D01*
X0377602Y0207193D02*
X0384006Y0207193D01*
X0383008Y0206195D02*
X0378600Y0206195D01*
X0379599Y0205196D02*
X0382009Y0205196D01*
X0381704Y0204198D02*
X0379904Y0204198D01*
X0379904Y0203199D02*
X0381704Y0203199D01*
X0381704Y0202201D02*
X0379904Y0202201D01*
X0379729Y0201202D02*
X0381996Y0201202D01*
X0382995Y0200204D02*
X0380727Y0200204D01*
X0381726Y0199205D02*
X0383993Y0199205D01*
X0382724Y0198207D02*
X0388965Y0198207D01*
X0387966Y0199205D02*
X0387615Y0199205D01*
X0390563Y0197208D02*
X0383723Y0197208D01*
X0384721Y0196210D02*
X0391562Y0196210D01*
X0392560Y0195211D02*
X0385720Y0195211D01*
X0386718Y0194213D02*
X0393559Y0194213D01*
X0394557Y0193214D02*
X0387717Y0193214D01*
X0388715Y0192216D02*
X0395556Y0192216D01*
X0396554Y0191217D02*
X0389714Y0191217D01*
X0390712Y0190219D02*
X0397553Y0190219D01*
X0398551Y0189220D02*
X0391711Y0189220D01*
X0392709Y0188222D02*
X0399550Y0188222D01*
X0400548Y0187223D02*
X0393708Y0187223D01*
X0394706Y0186225D02*
X0401547Y0186225D01*
X0402545Y0185226D02*
X0395705Y0185226D01*
X0396703Y0184228D02*
X0403544Y0184228D01*
X0404542Y0183229D02*
X0397702Y0183229D01*
X0398701Y0182231D02*
X0405541Y0182231D01*
X0406539Y0181232D02*
X0399699Y0181232D01*
X0400698Y0180234D02*
X0407538Y0180234D01*
X0408536Y0179235D02*
X0401696Y0179235D01*
X0402695Y0178237D02*
X0409535Y0178237D01*
X0410533Y0177238D02*
X0403693Y0177238D01*
X0404692Y0176239D02*
X0411532Y0176239D01*
X0412530Y0175241D02*
X0405690Y0175241D01*
X0406689Y0174242D02*
X0413529Y0174242D01*
X0414527Y0173244D02*
X0407687Y0173244D01*
X0408686Y0172245D02*
X0415526Y0172245D01*
X0416524Y0171247D02*
X0409684Y0171247D01*
X0410683Y0170248D02*
X0417523Y0170248D01*
X0418521Y0169250D02*
X0411681Y0169250D01*
X0412680Y0168251D02*
X0419520Y0168251D01*
X0420518Y0167253D02*
X0413678Y0167253D01*
X0414677Y0166254D02*
X0421517Y0166254D01*
X0422515Y0165256D02*
X0415675Y0165256D01*
X0416674Y0164257D02*
X0423351Y0164257D01*
X0423351Y0163259D02*
X0417672Y0163259D01*
X0418671Y0162260D02*
X0424238Y0162260D01*
X0426223Y0199205D02*
X0418180Y0199205D01*
X0419179Y0200204D02*
X0425142Y0200204D01*
X0424566Y0201202D02*
X0420177Y0201202D01*
X0416304Y0201202D02*
X0415304Y0201202D01*
X0415304Y0200204D02*
X0416304Y0200204D01*
X0416304Y0199205D02*
X0415304Y0199205D01*
X0392993Y0216180D02*
X0389181Y0216180D01*
X0390179Y0215181D02*
X0391994Y0215181D01*
X0393991Y0217178D02*
X0388182Y0217178D01*
X0386304Y0217178D02*
X0385304Y0217178D01*
X0385304Y0216180D02*
X0386304Y0216180D01*
X0386304Y0215181D02*
X0385304Y0215181D01*
X0385304Y0214183D02*
X0386304Y0214183D01*
X0386304Y0211187D02*
X0385304Y0211187D01*
X0385304Y0210189D02*
X0386304Y0210189D01*
X0386304Y0209190D02*
X0385304Y0209190D01*
X0381304Y0214183D02*
X0379904Y0214183D01*
X0379614Y0215181D02*
X0381428Y0215181D01*
X0382427Y0216180D02*
X0378615Y0216180D01*
X0377617Y0217178D02*
X0383426Y0217178D01*
X0373991Y0217178D02*
X0368182Y0217178D01*
X0369181Y0216180D02*
X0372993Y0216180D01*
X0371994Y0215181D02*
X0370179Y0215181D01*
X0370304Y0214183D02*
X0371704Y0214183D01*
X0366304Y0214183D02*
X0365304Y0214183D01*
X0365304Y0215181D02*
X0366304Y0215181D01*
X0366304Y0216180D02*
X0365304Y0216180D01*
X0365304Y0217178D02*
X0366304Y0217178D01*
X0363426Y0217178D02*
X0357617Y0217178D01*
X0358615Y0216180D02*
X0362427Y0216180D01*
X0361428Y0215181D02*
X0359614Y0215181D01*
X0353991Y0217178D02*
X0347617Y0217178D01*
X0348615Y0216180D02*
X0352993Y0216180D01*
X0351994Y0215181D02*
X0349614Y0215181D01*
X0349904Y0214183D02*
X0351704Y0214183D01*
X0351704Y0213184D02*
X0349904Y0213184D01*
X0349904Y0212186D02*
X0351704Y0212186D01*
X0352011Y0211187D02*
X0349597Y0211187D01*
X0348598Y0210189D02*
X0353010Y0210189D01*
X0354008Y0209190D02*
X0347600Y0209190D01*
X0348167Y0207193D02*
X0354006Y0207193D01*
X0353008Y0206195D02*
X0349166Y0206195D01*
X0350164Y0205196D02*
X0352009Y0205196D01*
X0351704Y0204198D02*
X0350304Y0204198D01*
X0346304Y0205196D02*
X0345304Y0205196D01*
X0345304Y0206195D02*
X0346304Y0206195D01*
X0346304Y0207193D02*
X0345304Y0207193D01*
X0343010Y0210189D02*
X0338598Y0210189D01*
X0339597Y0211187D02*
X0342011Y0211187D01*
X0341704Y0212186D02*
X0339904Y0212186D01*
X0339904Y0213184D02*
X0341704Y0213184D01*
X0341704Y0214183D02*
X0339904Y0214183D01*
X0339614Y0215181D02*
X0341994Y0215181D01*
X0342993Y0216180D02*
X0338615Y0216180D01*
X0337617Y0217178D02*
X0343991Y0217178D01*
X0365304Y0211187D02*
X0366304Y0211187D01*
X0366304Y0210189D02*
X0365304Y0210189D01*
X0365304Y0209190D02*
X0366304Y0209190D01*
X0367615Y0199205D02*
X0368166Y0199205D01*
X0377615Y0199205D02*
X0377766Y0199205D01*
X0346304Y0199205D02*
X0345304Y0199205D01*
X0345304Y0200204D02*
X0346304Y0200204D01*
X0346304Y0201202D02*
X0345304Y0201202D01*
X0345304Y0202201D02*
X0346304Y0202201D01*
X0343428Y0199205D02*
X0337615Y0199205D01*
X0338613Y0200204D02*
X0342429Y0200204D01*
X0341431Y0201202D02*
X0339612Y0201202D01*
X0255496Y0025464D02*
X0251096Y0025464D01*
X0252137Y0024466D02*
X0254320Y0024466D01*
X0253611Y0023467D02*
X0252755Y0023467D01*
X0253125Y0022469D02*
X0253197Y0022469D01*
D15*
X0248051Y0033900D02*
X0238451Y0024300D01*
X0238451Y0021300D01*
X0237969Y0021185D01*
X0248051Y0033900D02*
X0248051Y0050700D01*
X0288851Y0102900D02*
X0310451Y0081300D01*
X0311051Y0086100D02*
X0290051Y0107100D01*
X0290051Y0197100D01*
X0231851Y0197100D01*
X0225851Y0203100D01*
X0225804Y0203193D01*
X0283451Y0177300D02*
X0287651Y0181500D01*
X0283451Y0177300D02*
X0283451Y0165300D01*
X0275651Y0163500D02*
X0275651Y0124500D01*
X0288851Y0111300D01*
X0288851Y0102900D01*
X0286451Y0110700D02*
X0233051Y0164100D01*
X0212051Y0164100D01*
X0211631Y0163705D01*
X0292451Y0189300D02*
X0292451Y0132300D01*
X0342251Y0082500D01*
X0300251Y0127500D02*
X0311051Y0138300D01*
X0311051Y0200100D01*
X0309851Y0201300D01*
X0309851Y0204900D01*
X0307451Y0207300D01*
X0303851Y0207300D01*
X0303251Y0207900D01*
X0300851Y0207900D01*
X0296051Y0212700D01*
X0295804Y0213193D01*
X0305651Y0203100D02*
X0305804Y0203193D01*
X0305651Y0203100D02*
X0299651Y0197100D01*
X0290051Y0197100D01*
X0365804Y0203193D02*
X0366251Y0203100D01*
X0428051Y0141300D01*
X0423851Y0155100D02*
X0375851Y0203100D01*
X0375804Y0203193D01*
X0385804Y0203193D02*
X0386051Y0203100D01*
X0389651Y0199500D01*
X0390251Y0199500D01*
X0425651Y0164100D01*
D16*
X0425651Y0164100D03*
X0423851Y0155100D03*
X0428051Y0141300D03*
X0311051Y0086100D03*
X0310451Y0081300D03*
X0342251Y0082500D03*
X0286451Y0110700D03*
X0300251Y0127500D03*
X0283451Y0165300D03*
X0275651Y0163500D03*
X0287651Y0181500D03*
X0292451Y0189300D03*
X0248051Y0050700D03*
M02*
