%
M48
M72
T01C0.0120
T02C0.0400
T03C0.1102
%
T01
X7350Y15630
X8070Y16350
T02
X8445Y20319
X7445Y20319
X6445Y20319
X5445Y20319
X4445Y20319
X3445Y20319
X3445Y21319
X4445Y21319
X5445Y21319
X6445Y21319
X7445Y21319
X8445Y21319
X9445Y21319
X10445Y21319
X11445Y21319
X12445Y21319
X13445Y21319
X14445Y21319
X15445Y21319
X16445Y21319
X17445Y21319
X18445Y21319
X19445Y21319
X20445Y21319
X21445Y21319
X22445Y21319
X22445Y20319
X21445Y20319
X20445Y20319
X19445Y20319
X18445Y20319
X17445Y20319
X16445Y20319
X15445Y20319
X14445Y20319
X13445Y20319
X12445Y20319
X11445Y20319
X10445Y20319
X9445Y20319
X7056Y2369
X6056Y2369
X5056Y2369
T03
X1528Y1528
X1528Y20819
X24363Y20819
X24363Y1528
M30
