G75*
%MOIN*%
%OFA0B0*%
%FSLAX25Y25*%
%IPPOS*%
%LPD*%
%AMOC8*
5,1,8,0,0,1.08239X$1,22.5*
%
%ADD10C,0.01000*%
D10*
X0245163Y0044333D02*
X0245163Y0046085D01*
X0245747Y0046668D01*
X0246331Y0046668D01*
X0246915Y0046085D01*
X0246915Y0044333D01*
X0248666Y0044333D02*
X0248666Y0046085D01*
X0248083Y0046668D01*
X0247499Y0046668D01*
X0246915Y0046085D01*
X0248666Y0044333D02*
X0245163Y0044333D01*
X0245747Y0048477D02*
X0245163Y0049061D01*
X0245163Y0050228D01*
X0245747Y0050812D01*
X0248083Y0050812D01*
X0248666Y0050228D01*
X0248666Y0049061D01*
X0248083Y0048477D01*
X0245747Y0048477D01*
X0248666Y0052620D02*
X0248666Y0054956D01*
X0248666Y0053788D02*
X0245163Y0053788D01*
X0245163Y0057931D02*
X0248666Y0057931D01*
X0248666Y0056764D02*
X0248666Y0059099D01*
X0248083Y0060907D02*
X0245747Y0060907D01*
X0245163Y0061491D01*
X0245163Y0062659D01*
X0245747Y0063243D01*
X0248083Y0063243D01*
X0248666Y0062659D01*
X0248666Y0061491D01*
X0248083Y0060907D01*
X0248666Y0065051D02*
X0245163Y0065051D01*
X0245163Y0067386D02*
X0248666Y0067386D01*
X0247499Y0066219D01*
X0248666Y0065051D01*
M02*
