G75*
%MOIN*%
%OFA0B0*%
%FSLAX25Y25*%
%IPPOS*%
%LPD*%
%AMOC8*
5,1,8,0,0,1.08239X$1,22.5*
%
%ADD10R,0.03937X0.05512*%
%ADD11R,0.02756X0.02362*%
%ADD12R,0.10630X0.07087*%
%ADD13R,0.05512X0.03937*%
%ADD14R,0.07087X0.10630*%
%ADD15R,0.06300X0.05500*%
%ADD16R,0.05500X0.06300*%
D10*
X0064492Y0138902D03*
X0060752Y0147563D03*
X0068232Y0147563D03*
X0088311Y0147563D03*
X0095791Y0147563D03*
X0092051Y0138902D03*
D11*
X0013626Y0044610D03*
X0013626Y0056028D03*
X0013626Y0166500D03*
X0013626Y0177917D03*
D12*
X0032996Y0183390D03*
X0032996Y0166067D03*
X0060555Y0166067D03*
X0060555Y0183390D03*
X0088114Y0183390D03*
X0088114Y0166067D03*
X0127484Y0166067D03*
X0127484Y0183390D03*
X0141500Y0085161D03*
X0141500Y0067839D03*
X0161500Y0067839D03*
X0161500Y0085161D03*
X0181500Y0085161D03*
X0201500Y0085161D03*
X0201500Y0067839D03*
X0181500Y0067839D03*
D13*
X0092130Y0103823D03*
X0083469Y0107563D03*
X0083469Y0100083D03*
X0064886Y0103862D03*
X0056224Y0100122D03*
X0056224Y0107602D03*
D14*
X0051894Y0076303D03*
X0069217Y0076303D03*
X0084453Y0076303D03*
X0101776Y0076303D03*
X0101598Y0045142D03*
X0084276Y0045142D03*
D15*
X0141500Y0037400D03*
X0141500Y0025600D03*
X0161500Y0025600D03*
X0161500Y0037400D03*
X0181500Y0037400D03*
X0181500Y0025600D03*
X0201500Y0025600D03*
X0201500Y0037400D03*
X0126500Y0135600D03*
X0126500Y0147400D03*
X0031500Y0117400D03*
X0031500Y0105600D03*
D16*
X0085600Y0024000D03*
X0097400Y0024000D03*
M02*
