G75*
%MOIN*%
%OFA0B0*%
%FSLAX25Y25*%
%IPPOS*%
%LPD*%
%AMOC8*
5,1,8,0,0,1.08239X$1,22.5*
%
%ADD10C,0.00600*%
%ADD11C,0.00400*%
%ADD12C,0.00200*%
%ADD13R,0.05512X0.02559*%
%ADD14R,0.00787X0.00787*%
%ADD15C,0.00500*%
%ADD16C,0.01600*%
D10*
X0031953Y0198193D02*
X0036953Y0198193D01*
X0039453Y0200693D01*
X0039453Y0215693D01*
X0041953Y0218193D01*
X0046953Y0218193D01*
X0049453Y0215693D01*
X0049453Y0200693D01*
X0051953Y0198193D01*
X0056953Y0198193D01*
X0059453Y0200693D01*
X0059453Y0215693D01*
X0061953Y0218193D01*
X0066953Y0218193D01*
X0069453Y0215693D01*
X0069453Y0200693D01*
X0071953Y0198193D01*
X0076953Y0198193D01*
X0079453Y0200693D01*
X0079453Y0215693D01*
X0081953Y0218193D01*
X0086953Y0218193D01*
X0089453Y0215693D01*
X0089453Y0200693D01*
X0091953Y0198193D01*
X0096953Y0198193D01*
X0099453Y0200693D01*
X0099453Y0215693D01*
X0101953Y0218193D01*
X0106953Y0218193D01*
X0109453Y0215693D01*
X0109453Y0200693D01*
X0106953Y0198193D01*
X0101953Y0198193D01*
X0099453Y0200693D01*
X0109453Y0200693D02*
X0111953Y0198193D01*
X0116953Y0198193D01*
X0119453Y0200693D01*
X0119453Y0215693D01*
X0121953Y0218193D01*
X0126953Y0218193D01*
X0129453Y0215693D01*
X0129453Y0200693D01*
X0126953Y0198193D01*
X0121953Y0198193D01*
X0119453Y0200693D01*
X0129453Y0200693D02*
X0131953Y0198193D01*
X0136953Y0198193D01*
X0139453Y0200693D01*
X0139453Y0215693D01*
X0141953Y0218193D01*
X0146953Y0218193D01*
X0149453Y0215693D01*
X0149453Y0200693D01*
X0146953Y0198193D01*
X0141953Y0198193D01*
X0139453Y0200693D01*
X0149453Y0200693D02*
X0151953Y0198193D01*
X0156953Y0198193D01*
X0159453Y0200693D01*
X0159453Y0215693D01*
X0161953Y0218193D01*
X0166953Y0218193D01*
X0169453Y0215693D01*
X0169453Y0200693D01*
X0166953Y0198193D01*
X0161953Y0198193D01*
X0159453Y0200693D01*
X0169453Y0200693D02*
X0171953Y0198193D01*
X0176953Y0198193D01*
X0179453Y0200693D01*
X0179453Y0215693D01*
X0181953Y0218193D01*
X0186953Y0218193D01*
X0189453Y0215693D01*
X0189453Y0200693D01*
X0186953Y0198193D01*
X0181953Y0198193D01*
X0179453Y0200693D01*
X0189453Y0200693D02*
X0191953Y0198193D01*
X0196953Y0198193D01*
X0199453Y0200693D01*
X0199453Y0215693D01*
X0201953Y0218193D01*
X0206953Y0218193D01*
X0209453Y0215693D01*
X0209453Y0200693D01*
X0206953Y0198193D01*
X0201953Y0198193D01*
X0199453Y0200693D01*
X0209453Y0200693D02*
X0211953Y0198193D01*
X0216953Y0198193D01*
X0219453Y0200693D01*
X0221953Y0198193D01*
X0226953Y0198193D01*
X0229453Y0200693D01*
X0229453Y0215693D01*
X0226953Y0218193D01*
X0221953Y0218193D01*
X0219453Y0215693D01*
X0219453Y0200693D01*
X0219453Y0215693D02*
X0216953Y0218193D01*
X0211953Y0218193D01*
X0209453Y0215693D01*
X0199453Y0215693D02*
X0196953Y0218193D01*
X0191953Y0218193D01*
X0189453Y0215693D01*
X0179453Y0215693D02*
X0176953Y0218193D01*
X0171953Y0218193D01*
X0169453Y0215693D01*
X0159453Y0215693D02*
X0156953Y0218193D01*
X0151953Y0218193D01*
X0149453Y0215693D01*
X0139453Y0215693D02*
X0136953Y0218193D01*
X0131953Y0218193D01*
X0129453Y0215693D01*
X0119453Y0215693D02*
X0116953Y0218193D01*
X0111953Y0218193D01*
X0109453Y0215693D01*
X0099453Y0215693D02*
X0096953Y0218193D01*
X0091953Y0218193D01*
X0089453Y0215693D01*
X0079453Y0215693D02*
X0076953Y0218193D01*
X0071953Y0218193D01*
X0069453Y0215693D01*
X0059453Y0215693D02*
X0056953Y0218193D01*
X0051953Y0218193D01*
X0049453Y0215693D01*
X0039453Y0215693D02*
X0036953Y0218193D01*
X0031953Y0218193D01*
X0029453Y0215693D01*
X0029453Y0200693D01*
X0031953Y0198193D01*
X0039453Y0200693D02*
X0041953Y0198193D01*
X0046953Y0198193D01*
X0049453Y0200693D01*
X0059453Y0200693D02*
X0061953Y0198193D01*
X0066953Y0198193D01*
X0069453Y0200693D01*
X0079453Y0200693D02*
X0081953Y0198193D01*
X0086953Y0198193D01*
X0089453Y0200693D01*
D11*
X0011933Y0175122D02*
X0011933Y0166461D01*
X0007996Y0167248D02*
X0007996Y0174728D01*
X0011933Y0057012D02*
X0011933Y0048350D01*
X0007996Y0049138D02*
X0007996Y0056618D01*
D12*
X0010358Y0055437D02*
X0010358Y0049925D01*
X0011736Y0049138D01*
X0010358Y0055437D02*
X0011736Y0056224D01*
X0011736Y0167248D02*
X0010358Y0168035D01*
X0010358Y0173547D01*
X0011736Y0174335D01*
D13*
X0032990Y0171808D03*
X0032990Y0177608D03*
X0060549Y0177608D03*
X0060549Y0171808D03*
X0088120Y0171849D03*
X0088120Y0177649D03*
D14*
X0127484Y0143626D03*
X0029059Y0111343D03*
X0088508Y0025122D03*
X0143626Y0025122D03*
X0163311Y0025122D03*
X0182996Y0025122D03*
X0202681Y0025122D03*
D15*
X0045555Y0028685D02*
X0045555Y0018685D01*
X0050555Y0018685D01*
X0045555Y0028685D02*
X0075555Y0028685D01*
X0075555Y0018685D01*
X0070555Y0018685D01*
D16*
X0050555Y0018685D01*
X0050720Y0018444D01*
X0050890Y0018208D01*
X0051067Y0017975D01*
X0051248Y0017747D01*
X0051436Y0017524D01*
X0051628Y0017305D01*
X0051826Y0017090D01*
X0052029Y0016881D01*
X0052237Y0016677D01*
X0052450Y0016477D01*
X0052668Y0016283D01*
X0052890Y0016095D01*
X0053117Y0015911D01*
X0053348Y0015734D01*
X0053584Y0015562D01*
X0053823Y0015395D01*
X0054067Y0015235D01*
X0054314Y0015080D01*
X0054565Y0014932D01*
X0054820Y0014790D01*
X0055078Y0014654D01*
X0055339Y0014524D01*
X0055603Y0014401D01*
X0055870Y0014284D01*
X0056140Y0014173D01*
X0056413Y0014069D01*
X0056688Y0013972D01*
X0056965Y0013882D01*
X0057244Y0013798D01*
X0057526Y0013721D01*
X0057809Y0013651D01*
X0058094Y0013588D01*
X0058380Y0013532D01*
X0058667Y0013482D01*
X0058956Y0013440D01*
X0059245Y0013405D01*
X0059535Y0013376D01*
X0059826Y0013355D01*
X0060118Y0013341D01*
X0060409Y0013334D01*
X0060701Y0013334D01*
X0060992Y0013341D01*
X0061284Y0013355D01*
X0061575Y0013376D01*
X0061865Y0013405D01*
X0062154Y0013440D01*
X0062443Y0013482D01*
X0062730Y0013532D01*
X0063016Y0013588D01*
X0063301Y0013651D01*
X0063584Y0013721D01*
X0063866Y0013798D01*
X0064145Y0013882D01*
X0064422Y0013972D01*
X0064697Y0014069D01*
X0064970Y0014173D01*
X0065240Y0014284D01*
X0065507Y0014401D01*
X0065771Y0014524D01*
X0066032Y0014654D01*
X0066290Y0014790D01*
X0066545Y0014932D01*
X0066796Y0015080D01*
X0067043Y0015235D01*
X0067287Y0015395D01*
X0067526Y0015562D01*
X0067762Y0015734D01*
X0067993Y0015911D01*
X0068220Y0016095D01*
X0068442Y0016283D01*
X0068660Y0016477D01*
X0068873Y0016677D01*
X0069081Y0016881D01*
X0069284Y0017090D01*
X0069482Y0017305D01*
X0069674Y0017524D01*
X0069862Y0017747D01*
X0070043Y0017975D01*
X0070220Y0018208D01*
X0070390Y0018444D01*
X0070555Y0018685D01*
M02*
