%
M48
M72
T01C0.01200
T02C0.04000
T03C0.11024
%
T01
X76500Y153900
X89100Y166500
T02
X84453Y203193
X94453Y203193
X104453Y203193
X114453Y203193
X124453Y203193
X134453Y203193
X144453Y203193
X154453Y203193
X164453Y203193
X174453Y203193
X184453Y203193
X194453Y203193
X204453Y203193
X214453Y203193
X224453Y203193
X224453Y213193
X214453Y213193
X204453Y213193
X194453Y213193
X184453Y213193
X174453Y213193
X164453Y213193
X154453Y213193
X144453Y213193
X134453Y213193
X124453Y213193
X114453Y213193
X104453Y213193
X94453Y213193
X84453Y213193
X74453Y213193
X64453Y213193
X54453Y213193
X44453Y213193
X34453Y213193
X34453Y203193
X44453Y203193
X54453Y203193
X64453Y203193
X74453Y203193
X70555Y23685
X60555Y23685
X50555Y23685
T03
X15280Y15280
X15280Y208193
X243626Y208193
X243626Y15280
M30
