G75*
%MOIN*%
%OFA0B0*%
%FSLAX25Y25*%
%IPPOS*%
%LPD*%
%AMOC8*
5,1,8,0,0,1.08239X$1,22.5*
%
%ADD10R,0.03937X0.05512*%
%ADD11R,0.02756X0.02362*%
%ADD12R,0.05512X0.04331*%
%ADD13R,0.04724X0.04724*%
%ADD14R,0.05512X0.03937*%
%ADD15R,0.05118X0.05906*%
%ADD16R,0.05906X0.05118*%
D10*
X0064492Y0138902D03*
X0060752Y0147563D03*
X0068232Y0147563D03*
X0088311Y0147563D03*
X0095791Y0147563D03*
X0092051Y0138902D03*
D11*
X0009374Y0046972D03*
X0009374Y0058390D03*
X0009374Y0165083D03*
X0009374Y0176500D03*
D12*
X0032996Y0178665D03*
X0032996Y0170791D03*
X0060555Y0170791D03*
X0060555Y0178665D03*
X0088114Y0178665D03*
X0088114Y0170791D03*
D13*
X0127484Y0147366D03*
X0127484Y0139098D03*
X0029059Y0115870D03*
X0029059Y0107602D03*
X0083980Y0025122D03*
X0092248Y0025122D03*
X0139098Y0025122D03*
X0147366Y0025122D03*
X0158783Y0025122D03*
X0167051Y0025122D03*
X0178469Y0025122D03*
X0186736Y0025122D03*
X0198154Y0025122D03*
X0206421Y0025122D03*
D14*
X0092130Y0103823D03*
X0083469Y0107563D03*
X0083469Y0100083D03*
X0064886Y0103862D03*
X0056224Y0100122D03*
X0056224Y0107602D03*
D15*
X0056815Y0076303D03*
X0064295Y0076303D03*
X0084374Y0076303D03*
X0091854Y0076303D03*
X0091677Y0045142D03*
X0084197Y0045142D03*
X0139492Y0060555D03*
X0146972Y0060555D03*
X0159177Y0060555D03*
X0166657Y0060555D03*
X0178862Y0060555D03*
X0186343Y0060555D03*
X0198547Y0060555D03*
X0206028Y0060555D03*
D16*
X0127484Y0170988D03*
X0127484Y0178469D03*
M02*
