G75*
%MOIN*%
%OFA0B0*%
%FSLAX25Y25*%
%IPPOS*%
%LPD*%
%AMOC8*
5,1,8,0,0,1.08239X$1,22.5*
%
%ADD10C,0.00000*%
%ADD11OC8,0.06000*%
%ADD12R,0.03937X0.05512*%
%ADD13R,0.06299X0.06299*%
%ADD14R,0.05512X0.04331*%
%ADD15R,0.04724X0.04724*%
%ADD16R,0.07600X0.07600*%
%ADD17C,0.07600*%
%ADD18R,0.05512X0.03937*%
%ADD19R,0.05118X0.05906*%
%ADD20R,0.05906X0.05118*%
%ADD21C,0.01000*%
%ADD22C,0.00600*%
%ADD23C,0.02400*%
D10*
X0001500Y0013311D02*
X0001500Y0074335D01*
X0001502Y0074459D01*
X0001508Y0074582D01*
X0001517Y0074706D01*
X0001531Y0074828D01*
X0001548Y0074951D01*
X0001570Y0075073D01*
X0001595Y0075194D01*
X0001624Y0075314D01*
X0001656Y0075433D01*
X0001693Y0075552D01*
X0001733Y0075669D01*
X0001776Y0075784D01*
X0001824Y0075899D01*
X0001875Y0076011D01*
X0001929Y0076122D01*
X0001987Y0076232D01*
X0002048Y0076339D01*
X0002113Y0076445D01*
X0002181Y0076548D01*
X0002252Y0076649D01*
X0002326Y0076748D01*
X0002403Y0076845D01*
X0002484Y0076939D01*
X0002567Y0077030D01*
X0002653Y0077119D01*
X0002742Y0077205D01*
X0002833Y0077288D01*
X0002927Y0077369D01*
X0003024Y0077446D01*
X0003123Y0077520D01*
X0003224Y0077591D01*
X0003327Y0077659D01*
X0003433Y0077724D01*
X0003540Y0077785D01*
X0003650Y0077843D01*
X0003761Y0077897D01*
X0003873Y0077948D01*
X0003988Y0077996D01*
X0004103Y0078039D01*
X0004220Y0078079D01*
X0004339Y0078116D01*
X0004458Y0078148D01*
X0004578Y0078177D01*
X0004699Y0078202D01*
X0004821Y0078224D01*
X0004944Y0078241D01*
X0005066Y0078255D01*
X0005190Y0078264D01*
X0005313Y0078270D01*
X0005437Y0078272D01*
X0017248Y0078272D01*
X0017372Y0078274D01*
X0017495Y0078280D01*
X0017619Y0078289D01*
X0017741Y0078303D01*
X0017864Y0078320D01*
X0017986Y0078342D01*
X0018107Y0078367D01*
X0018227Y0078396D01*
X0018346Y0078428D01*
X0018465Y0078465D01*
X0018582Y0078505D01*
X0018697Y0078548D01*
X0018812Y0078596D01*
X0018924Y0078647D01*
X0019035Y0078701D01*
X0019145Y0078759D01*
X0019252Y0078820D01*
X0019358Y0078885D01*
X0019461Y0078953D01*
X0019562Y0079024D01*
X0019661Y0079098D01*
X0019758Y0079175D01*
X0019852Y0079256D01*
X0019943Y0079339D01*
X0020032Y0079425D01*
X0020118Y0079514D01*
X0020201Y0079605D01*
X0020282Y0079699D01*
X0020359Y0079796D01*
X0020433Y0079895D01*
X0020504Y0079996D01*
X0020572Y0080099D01*
X0020637Y0080205D01*
X0020698Y0080312D01*
X0020756Y0080422D01*
X0020810Y0080533D01*
X0020861Y0080645D01*
X0020909Y0080760D01*
X0020952Y0080875D01*
X0020992Y0080992D01*
X0021029Y0081111D01*
X0021061Y0081230D01*
X0021090Y0081350D01*
X0021115Y0081471D01*
X0021137Y0081593D01*
X0021154Y0081716D01*
X0021168Y0081838D01*
X0021177Y0081962D01*
X0021183Y0082085D01*
X0021185Y0082209D01*
X0021185Y0141264D01*
X0021183Y0141388D01*
X0021177Y0141511D01*
X0021168Y0141635D01*
X0021154Y0141757D01*
X0021137Y0141880D01*
X0021115Y0142002D01*
X0021090Y0142123D01*
X0021061Y0142243D01*
X0021029Y0142362D01*
X0020992Y0142481D01*
X0020952Y0142598D01*
X0020909Y0142713D01*
X0020861Y0142828D01*
X0020810Y0142940D01*
X0020756Y0143051D01*
X0020698Y0143161D01*
X0020637Y0143268D01*
X0020572Y0143374D01*
X0020504Y0143477D01*
X0020433Y0143578D01*
X0020359Y0143677D01*
X0020282Y0143774D01*
X0020201Y0143868D01*
X0020118Y0143959D01*
X0020032Y0144048D01*
X0019943Y0144134D01*
X0019852Y0144217D01*
X0019758Y0144298D01*
X0019661Y0144375D01*
X0019562Y0144449D01*
X0019461Y0144520D01*
X0019358Y0144588D01*
X0019252Y0144653D01*
X0019145Y0144714D01*
X0019035Y0144772D01*
X0018924Y0144826D01*
X0018812Y0144877D01*
X0018697Y0144925D01*
X0018582Y0144968D01*
X0018465Y0145008D01*
X0018346Y0145045D01*
X0018227Y0145077D01*
X0018107Y0145106D01*
X0017986Y0145131D01*
X0017864Y0145153D01*
X0017741Y0145170D01*
X0017619Y0145184D01*
X0017495Y0145193D01*
X0017372Y0145199D01*
X0017248Y0145201D01*
X0005437Y0145201D01*
X0005313Y0145203D01*
X0005190Y0145209D01*
X0005066Y0145218D01*
X0004944Y0145232D01*
X0004821Y0145249D01*
X0004699Y0145271D01*
X0004578Y0145296D01*
X0004458Y0145325D01*
X0004339Y0145357D01*
X0004220Y0145394D01*
X0004103Y0145434D01*
X0003988Y0145477D01*
X0003873Y0145525D01*
X0003761Y0145576D01*
X0003650Y0145630D01*
X0003540Y0145688D01*
X0003433Y0145749D01*
X0003327Y0145814D01*
X0003224Y0145882D01*
X0003123Y0145953D01*
X0003024Y0146027D01*
X0002927Y0146104D01*
X0002833Y0146185D01*
X0002742Y0146268D01*
X0002653Y0146354D01*
X0002567Y0146443D01*
X0002484Y0146534D01*
X0002403Y0146628D01*
X0002326Y0146725D01*
X0002252Y0146824D01*
X0002181Y0146925D01*
X0002113Y0147028D01*
X0002048Y0147134D01*
X0001987Y0147241D01*
X0001929Y0147351D01*
X0001875Y0147462D01*
X0001824Y0147574D01*
X0001776Y0147689D01*
X0001733Y0147804D01*
X0001693Y0147921D01*
X0001656Y0148040D01*
X0001624Y0148159D01*
X0001595Y0148279D01*
X0001570Y0148400D01*
X0001548Y0148522D01*
X0001531Y0148645D01*
X0001517Y0148767D01*
X0001508Y0148891D01*
X0001502Y0149014D01*
X0001500Y0149138D01*
X0001500Y0210161D01*
X0001503Y0210446D01*
X0001514Y0210732D01*
X0001531Y0211017D01*
X0001555Y0211301D01*
X0001586Y0211585D01*
X0001624Y0211868D01*
X0001669Y0212149D01*
X0001720Y0212430D01*
X0001778Y0212710D01*
X0001843Y0212988D01*
X0001915Y0213264D01*
X0001993Y0213538D01*
X0002078Y0213811D01*
X0002170Y0214081D01*
X0002268Y0214349D01*
X0002372Y0214615D01*
X0002483Y0214878D01*
X0002600Y0215138D01*
X0002723Y0215396D01*
X0002853Y0215650D01*
X0002989Y0215901D01*
X0003130Y0216149D01*
X0003278Y0216393D01*
X0003431Y0216634D01*
X0003591Y0216870D01*
X0003756Y0217103D01*
X0003926Y0217332D01*
X0004102Y0217557D01*
X0004284Y0217777D01*
X0004470Y0217993D01*
X0004662Y0218204D01*
X0004859Y0218411D01*
X0005061Y0218613D01*
X0005268Y0218810D01*
X0005479Y0219002D01*
X0005695Y0219188D01*
X0005915Y0219370D01*
X0006140Y0219546D01*
X0006369Y0219716D01*
X0006602Y0219881D01*
X0006838Y0220041D01*
X0007079Y0220194D01*
X0007323Y0220342D01*
X0007571Y0220483D01*
X0007822Y0220619D01*
X0008076Y0220749D01*
X0008334Y0220872D01*
X0008594Y0220989D01*
X0008857Y0221100D01*
X0009123Y0221204D01*
X0009391Y0221302D01*
X0009661Y0221394D01*
X0009934Y0221479D01*
X0010208Y0221557D01*
X0010484Y0221629D01*
X0010762Y0221694D01*
X0011042Y0221752D01*
X0011323Y0221803D01*
X0011604Y0221848D01*
X0011887Y0221886D01*
X0012171Y0221917D01*
X0012455Y0221941D01*
X0012740Y0221958D01*
X0013026Y0221969D01*
X0013311Y0221972D01*
X0245594Y0221972D01*
X0245879Y0221969D01*
X0246165Y0221958D01*
X0246450Y0221941D01*
X0246734Y0221917D01*
X0247018Y0221886D01*
X0247301Y0221848D01*
X0247582Y0221803D01*
X0247863Y0221752D01*
X0248143Y0221694D01*
X0248421Y0221629D01*
X0248697Y0221557D01*
X0248971Y0221479D01*
X0249244Y0221394D01*
X0249514Y0221302D01*
X0249782Y0221204D01*
X0250048Y0221100D01*
X0250311Y0220989D01*
X0250571Y0220872D01*
X0250829Y0220749D01*
X0251083Y0220619D01*
X0251334Y0220483D01*
X0251582Y0220342D01*
X0251826Y0220194D01*
X0252067Y0220041D01*
X0252303Y0219881D01*
X0252536Y0219716D01*
X0252765Y0219546D01*
X0252990Y0219370D01*
X0253210Y0219188D01*
X0253426Y0219002D01*
X0253637Y0218810D01*
X0253844Y0218613D01*
X0254046Y0218411D01*
X0254243Y0218204D01*
X0254435Y0217993D01*
X0254621Y0217777D01*
X0254803Y0217557D01*
X0254979Y0217332D01*
X0255149Y0217103D01*
X0255314Y0216870D01*
X0255474Y0216634D01*
X0255627Y0216393D01*
X0255775Y0216149D01*
X0255916Y0215901D01*
X0256052Y0215650D01*
X0256182Y0215396D01*
X0256305Y0215138D01*
X0256422Y0214878D01*
X0256533Y0214615D01*
X0256637Y0214349D01*
X0256735Y0214081D01*
X0256827Y0213811D01*
X0256912Y0213538D01*
X0256990Y0213264D01*
X0257062Y0212988D01*
X0257127Y0212710D01*
X0257185Y0212430D01*
X0257236Y0212149D01*
X0257281Y0211868D01*
X0257319Y0211585D01*
X0257350Y0211301D01*
X0257374Y0211017D01*
X0257391Y0210732D01*
X0257402Y0210446D01*
X0257405Y0210161D01*
X0257406Y0210161D02*
X0257406Y0013311D01*
X0257405Y0013311D02*
X0257402Y0013026D01*
X0257391Y0012740D01*
X0257374Y0012455D01*
X0257350Y0012171D01*
X0257319Y0011887D01*
X0257281Y0011604D01*
X0257236Y0011323D01*
X0257185Y0011042D01*
X0257127Y0010762D01*
X0257062Y0010484D01*
X0256990Y0010208D01*
X0256912Y0009934D01*
X0256827Y0009661D01*
X0256735Y0009391D01*
X0256637Y0009123D01*
X0256533Y0008857D01*
X0256422Y0008594D01*
X0256305Y0008334D01*
X0256182Y0008076D01*
X0256052Y0007822D01*
X0255916Y0007571D01*
X0255775Y0007323D01*
X0255627Y0007079D01*
X0255474Y0006838D01*
X0255314Y0006602D01*
X0255149Y0006369D01*
X0254979Y0006140D01*
X0254803Y0005915D01*
X0254621Y0005695D01*
X0254435Y0005479D01*
X0254243Y0005268D01*
X0254046Y0005061D01*
X0253844Y0004859D01*
X0253637Y0004662D01*
X0253426Y0004470D01*
X0253210Y0004284D01*
X0252990Y0004102D01*
X0252765Y0003926D01*
X0252536Y0003756D01*
X0252303Y0003591D01*
X0252067Y0003431D01*
X0251826Y0003278D01*
X0251582Y0003130D01*
X0251334Y0002989D01*
X0251083Y0002853D01*
X0250829Y0002723D01*
X0250571Y0002600D01*
X0250311Y0002483D01*
X0250048Y0002372D01*
X0249782Y0002268D01*
X0249514Y0002170D01*
X0249244Y0002078D01*
X0248971Y0001993D01*
X0248697Y0001915D01*
X0248421Y0001843D01*
X0248143Y0001778D01*
X0247863Y0001720D01*
X0247582Y0001669D01*
X0247301Y0001624D01*
X0247018Y0001586D01*
X0246734Y0001555D01*
X0246450Y0001531D01*
X0246165Y0001514D01*
X0245879Y0001503D01*
X0245594Y0001500D01*
X0013311Y0001500D01*
X0013026Y0001503D01*
X0012740Y0001514D01*
X0012455Y0001531D01*
X0012171Y0001555D01*
X0011887Y0001586D01*
X0011604Y0001624D01*
X0011323Y0001669D01*
X0011042Y0001720D01*
X0010762Y0001778D01*
X0010484Y0001843D01*
X0010208Y0001915D01*
X0009934Y0001993D01*
X0009661Y0002078D01*
X0009391Y0002170D01*
X0009123Y0002268D01*
X0008857Y0002372D01*
X0008594Y0002483D01*
X0008334Y0002600D01*
X0008076Y0002723D01*
X0007822Y0002853D01*
X0007571Y0002989D01*
X0007323Y0003130D01*
X0007079Y0003278D01*
X0006838Y0003431D01*
X0006602Y0003591D01*
X0006369Y0003756D01*
X0006140Y0003926D01*
X0005915Y0004102D01*
X0005695Y0004284D01*
X0005479Y0004470D01*
X0005268Y0004662D01*
X0005061Y0004859D01*
X0004859Y0005061D01*
X0004662Y0005268D01*
X0004470Y0005479D01*
X0004284Y0005695D01*
X0004102Y0005915D01*
X0003926Y0006140D01*
X0003756Y0006369D01*
X0003591Y0006602D01*
X0003431Y0006838D01*
X0003278Y0007079D01*
X0003130Y0007323D01*
X0002989Y0007571D01*
X0002853Y0007822D01*
X0002723Y0008076D01*
X0002600Y0008334D01*
X0002483Y0008594D01*
X0002372Y0008857D01*
X0002268Y0009123D01*
X0002170Y0009391D01*
X0002078Y0009661D01*
X0001993Y0009934D01*
X0001915Y0010208D01*
X0001843Y0010484D01*
X0001778Y0010762D01*
X0001720Y0011042D01*
X0001669Y0011323D01*
X0001624Y0011604D01*
X0001586Y0011887D01*
X0001555Y0012171D01*
X0001531Y0012455D01*
X0001514Y0012740D01*
X0001503Y0013026D01*
X0001500Y0013311D01*
X0009768Y0015280D02*
X0009770Y0015428D01*
X0009776Y0015576D01*
X0009786Y0015724D01*
X0009800Y0015871D01*
X0009818Y0016018D01*
X0009839Y0016164D01*
X0009865Y0016310D01*
X0009895Y0016455D01*
X0009928Y0016599D01*
X0009966Y0016742D01*
X0010007Y0016884D01*
X0010052Y0017025D01*
X0010100Y0017165D01*
X0010153Y0017304D01*
X0010209Y0017441D01*
X0010269Y0017576D01*
X0010332Y0017710D01*
X0010399Y0017842D01*
X0010470Y0017972D01*
X0010544Y0018100D01*
X0010621Y0018226D01*
X0010702Y0018350D01*
X0010786Y0018472D01*
X0010873Y0018591D01*
X0010964Y0018708D01*
X0011058Y0018823D01*
X0011154Y0018935D01*
X0011254Y0019045D01*
X0011356Y0019151D01*
X0011462Y0019255D01*
X0011570Y0019356D01*
X0011681Y0019454D01*
X0011794Y0019550D01*
X0011910Y0019642D01*
X0012028Y0019731D01*
X0012149Y0019816D01*
X0012272Y0019899D01*
X0012397Y0019978D01*
X0012524Y0020054D01*
X0012653Y0020126D01*
X0012784Y0020195D01*
X0012917Y0020260D01*
X0013052Y0020321D01*
X0013188Y0020379D01*
X0013325Y0020434D01*
X0013464Y0020484D01*
X0013605Y0020531D01*
X0013746Y0020574D01*
X0013889Y0020614D01*
X0014033Y0020649D01*
X0014177Y0020681D01*
X0014323Y0020708D01*
X0014469Y0020732D01*
X0014616Y0020752D01*
X0014763Y0020768D01*
X0014910Y0020780D01*
X0015058Y0020788D01*
X0015206Y0020792D01*
X0015354Y0020792D01*
X0015502Y0020788D01*
X0015650Y0020780D01*
X0015797Y0020768D01*
X0015944Y0020752D01*
X0016091Y0020732D01*
X0016237Y0020708D01*
X0016383Y0020681D01*
X0016527Y0020649D01*
X0016671Y0020614D01*
X0016814Y0020574D01*
X0016955Y0020531D01*
X0017096Y0020484D01*
X0017235Y0020434D01*
X0017372Y0020379D01*
X0017508Y0020321D01*
X0017643Y0020260D01*
X0017776Y0020195D01*
X0017907Y0020126D01*
X0018036Y0020054D01*
X0018163Y0019978D01*
X0018288Y0019899D01*
X0018411Y0019816D01*
X0018532Y0019731D01*
X0018650Y0019642D01*
X0018766Y0019550D01*
X0018879Y0019454D01*
X0018990Y0019356D01*
X0019098Y0019255D01*
X0019204Y0019151D01*
X0019306Y0019045D01*
X0019406Y0018935D01*
X0019502Y0018823D01*
X0019596Y0018708D01*
X0019687Y0018591D01*
X0019774Y0018472D01*
X0019858Y0018350D01*
X0019939Y0018226D01*
X0020016Y0018100D01*
X0020090Y0017972D01*
X0020161Y0017842D01*
X0020228Y0017710D01*
X0020291Y0017576D01*
X0020351Y0017441D01*
X0020407Y0017304D01*
X0020460Y0017165D01*
X0020508Y0017025D01*
X0020553Y0016884D01*
X0020594Y0016742D01*
X0020632Y0016599D01*
X0020665Y0016455D01*
X0020695Y0016310D01*
X0020721Y0016164D01*
X0020742Y0016018D01*
X0020760Y0015871D01*
X0020774Y0015724D01*
X0020784Y0015576D01*
X0020790Y0015428D01*
X0020792Y0015280D01*
X0020790Y0015132D01*
X0020784Y0014984D01*
X0020774Y0014836D01*
X0020760Y0014689D01*
X0020742Y0014542D01*
X0020721Y0014396D01*
X0020695Y0014250D01*
X0020665Y0014105D01*
X0020632Y0013961D01*
X0020594Y0013818D01*
X0020553Y0013676D01*
X0020508Y0013535D01*
X0020460Y0013395D01*
X0020407Y0013256D01*
X0020351Y0013119D01*
X0020291Y0012984D01*
X0020228Y0012850D01*
X0020161Y0012718D01*
X0020090Y0012588D01*
X0020016Y0012460D01*
X0019939Y0012334D01*
X0019858Y0012210D01*
X0019774Y0012088D01*
X0019687Y0011969D01*
X0019596Y0011852D01*
X0019502Y0011737D01*
X0019406Y0011625D01*
X0019306Y0011515D01*
X0019204Y0011409D01*
X0019098Y0011305D01*
X0018990Y0011204D01*
X0018879Y0011106D01*
X0018766Y0011010D01*
X0018650Y0010918D01*
X0018532Y0010829D01*
X0018411Y0010744D01*
X0018288Y0010661D01*
X0018163Y0010582D01*
X0018036Y0010506D01*
X0017907Y0010434D01*
X0017776Y0010365D01*
X0017643Y0010300D01*
X0017508Y0010239D01*
X0017372Y0010181D01*
X0017235Y0010126D01*
X0017096Y0010076D01*
X0016955Y0010029D01*
X0016814Y0009986D01*
X0016671Y0009946D01*
X0016527Y0009911D01*
X0016383Y0009879D01*
X0016237Y0009852D01*
X0016091Y0009828D01*
X0015944Y0009808D01*
X0015797Y0009792D01*
X0015650Y0009780D01*
X0015502Y0009772D01*
X0015354Y0009768D01*
X0015206Y0009768D01*
X0015058Y0009772D01*
X0014910Y0009780D01*
X0014763Y0009792D01*
X0014616Y0009808D01*
X0014469Y0009828D01*
X0014323Y0009852D01*
X0014177Y0009879D01*
X0014033Y0009911D01*
X0013889Y0009946D01*
X0013746Y0009986D01*
X0013605Y0010029D01*
X0013464Y0010076D01*
X0013325Y0010126D01*
X0013188Y0010181D01*
X0013052Y0010239D01*
X0012917Y0010300D01*
X0012784Y0010365D01*
X0012653Y0010434D01*
X0012524Y0010506D01*
X0012397Y0010582D01*
X0012272Y0010661D01*
X0012149Y0010744D01*
X0012028Y0010829D01*
X0011910Y0010918D01*
X0011794Y0011010D01*
X0011681Y0011106D01*
X0011570Y0011204D01*
X0011462Y0011305D01*
X0011356Y0011409D01*
X0011254Y0011515D01*
X0011154Y0011625D01*
X0011058Y0011737D01*
X0010964Y0011852D01*
X0010873Y0011969D01*
X0010786Y0012088D01*
X0010702Y0012210D01*
X0010621Y0012334D01*
X0010544Y0012460D01*
X0010470Y0012588D01*
X0010399Y0012718D01*
X0010332Y0012850D01*
X0010269Y0012984D01*
X0010209Y0013119D01*
X0010153Y0013256D01*
X0010100Y0013395D01*
X0010052Y0013535D01*
X0010007Y0013676D01*
X0009966Y0013818D01*
X0009928Y0013961D01*
X0009895Y0014105D01*
X0009865Y0014250D01*
X0009839Y0014396D01*
X0009818Y0014542D01*
X0009800Y0014689D01*
X0009786Y0014836D01*
X0009776Y0014984D01*
X0009770Y0015132D01*
X0009768Y0015280D01*
X0009768Y0208193D02*
X0009770Y0208341D01*
X0009776Y0208489D01*
X0009786Y0208637D01*
X0009800Y0208784D01*
X0009818Y0208931D01*
X0009839Y0209077D01*
X0009865Y0209223D01*
X0009895Y0209368D01*
X0009928Y0209512D01*
X0009966Y0209655D01*
X0010007Y0209797D01*
X0010052Y0209938D01*
X0010100Y0210078D01*
X0010153Y0210217D01*
X0010209Y0210354D01*
X0010269Y0210489D01*
X0010332Y0210623D01*
X0010399Y0210755D01*
X0010470Y0210885D01*
X0010544Y0211013D01*
X0010621Y0211139D01*
X0010702Y0211263D01*
X0010786Y0211385D01*
X0010873Y0211504D01*
X0010964Y0211621D01*
X0011058Y0211736D01*
X0011154Y0211848D01*
X0011254Y0211958D01*
X0011356Y0212064D01*
X0011462Y0212168D01*
X0011570Y0212269D01*
X0011681Y0212367D01*
X0011794Y0212463D01*
X0011910Y0212555D01*
X0012028Y0212644D01*
X0012149Y0212729D01*
X0012272Y0212812D01*
X0012397Y0212891D01*
X0012524Y0212967D01*
X0012653Y0213039D01*
X0012784Y0213108D01*
X0012917Y0213173D01*
X0013052Y0213234D01*
X0013188Y0213292D01*
X0013325Y0213347D01*
X0013464Y0213397D01*
X0013605Y0213444D01*
X0013746Y0213487D01*
X0013889Y0213527D01*
X0014033Y0213562D01*
X0014177Y0213594D01*
X0014323Y0213621D01*
X0014469Y0213645D01*
X0014616Y0213665D01*
X0014763Y0213681D01*
X0014910Y0213693D01*
X0015058Y0213701D01*
X0015206Y0213705D01*
X0015354Y0213705D01*
X0015502Y0213701D01*
X0015650Y0213693D01*
X0015797Y0213681D01*
X0015944Y0213665D01*
X0016091Y0213645D01*
X0016237Y0213621D01*
X0016383Y0213594D01*
X0016527Y0213562D01*
X0016671Y0213527D01*
X0016814Y0213487D01*
X0016955Y0213444D01*
X0017096Y0213397D01*
X0017235Y0213347D01*
X0017372Y0213292D01*
X0017508Y0213234D01*
X0017643Y0213173D01*
X0017776Y0213108D01*
X0017907Y0213039D01*
X0018036Y0212967D01*
X0018163Y0212891D01*
X0018288Y0212812D01*
X0018411Y0212729D01*
X0018532Y0212644D01*
X0018650Y0212555D01*
X0018766Y0212463D01*
X0018879Y0212367D01*
X0018990Y0212269D01*
X0019098Y0212168D01*
X0019204Y0212064D01*
X0019306Y0211958D01*
X0019406Y0211848D01*
X0019502Y0211736D01*
X0019596Y0211621D01*
X0019687Y0211504D01*
X0019774Y0211385D01*
X0019858Y0211263D01*
X0019939Y0211139D01*
X0020016Y0211013D01*
X0020090Y0210885D01*
X0020161Y0210755D01*
X0020228Y0210623D01*
X0020291Y0210489D01*
X0020351Y0210354D01*
X0020407Y0210217D01*
X0020460Y0210078D01*
X0020508Y0209938D01*
X0020553Y0209797D01*
X0020594Y0209655D01*
X0020632Y0209512D01*
X0020665Y0209368D01*
X0020695Y0209223D01*
X0020721Y0209077D01*
X0020742Y0208931D01*
X0020760Y0208784D01*
X0020774Y0208637D01*
X0020784Y0208489D01*
X0020790Y0208341D01*
X0020792Y0208193D01*
X0020790Y0208045D01*
X0020784Y0207897D01*
X0020774Y0207749D01*
X0020760Y0207602D01*
X0020742Y0207455D01*
X0020721Y0207309D01*
X0020695Y0207163D01*
X0020665Y0207018D01*
X0020632Y0206874D01*
X0020594Y0206731D01*
X0020553Y0206589D01*
X0020508Y0206448D01*
X0020460Y0206308D01*
X0020407Y0206169D01*
X0020351Y0206032D01*
X0020291Y0205897D01*
X0020228Y0205763D01*
X0020161Y0205631D01*
X0020090Y0205501D01*
X0020016Y0205373D01*
X0019939Y0205247D01*
X0019858Y0205123D01*
X0019774Y0205001D01*
X0019687Y0204882D01*
X0019596Y0204765D01*
X0019502Y0204650D01*
X0019406Y0204538D01*
X0019306Y0204428D01*
X0019204Y0204322D01*
X0019098Y0204218D01*
X0018990Y0204117D01*
X0018879Y0204019D01*
X0018766Y0203923D01*
X0018650Y0203831D01*
X0018532Y0203742D01*
X0018411Y0203657D01*
X0018288Y0203574D01*
X0018163Y0203495D01*
X0018036Y0203419D01*
X0017907Y0203347D01*
X0017776Y0203278D01*
X0017643Y0203213D01*
X0017508Y0203152D01*
X0017372Y0203094D01*
X0017235Y0203039D01*
X0017096Y0202989D01*
X0016955Y0202942D01*
X0016814Y0202899D01*
X0016671Y0202859D01*
X0016527Y0202824D01*
X0016383Y0202792D01*
X0016237Y0202765D01*
X0016091Y0202741D01*
X0015944Y0202721D01*
X0015797Y0202705D01*
X0015650Y0202693D01*
X0015502Y0202685D01*
X0015354Y0202681D01*
X0015206Y0202681D01*
X0015058Y0202685D01*
X0014910Y0202693D01*
X0014763Y0202705D01*
X0014616Y0202721D01*
X0014469Y0202741D01*
X0014323Y0202765D01*
X0014177Y0202792D01*
X0014033Y0202824D01*
X0013889Y0202859D01*
X0013746Y0202899D01*
X0013605Y0202942D01*
X0013464Y0202989D01*
X0013325Y0203039D01*
X0013188Y0203094D01*
X0013052Y0203152D01*
X0012917Y0203213D01*
X0012784Y0203278D01*
X0012653Y0203347D01*
X0012524Y0203419D01*
X0012397Y0203495D01*
X0012272Y0203574D01*
X0012149Y0203657D01*
X0012028Y0203742D01*
X0011910Y0203831D01*
X0011794Y0203923D01*
X0011681Y0204019D01*
X0011570Y0204117D01*
X0011462Y0204218D01*
X0011356Y0204322D01*
X0011254Y0204428D01*
X0011154Y0204538D01*
X0011058Y0204650D01*
X0010964Y0204765D01*
X0010873Y0204882D01*
X0010786Y0205001D01*
X0010702Y0205123D01*
X0010621Y0205247D01*
X0010544Y0205373D01*
X0010470Y0205501D01*
X0010399Y0205631D01*
X0010332Y0205763D01*
X0010269Y0205897D01*
X0010209Y0206032D01*
X0010153Y0206169D01*
X0010100Y0206308D01*
X0010052Y0206448D01*
X0010007Y0206589D01*
X0009966Y0206731D01*
X0009928Y0206874D01*
X0009895Y0207018D01*
X0009865Y0207163D01*
X0009839Y0207309D01*
X0009818Y0207455D01*
X0009800Y0207602D01*
X0009786Y0207749D01*
X0009776Y0207897D01*
X0009770Y0208045D01*
X0009768Y0208193D01*
X0238114Y0208193D02*
X0238116Y0208341D01*
X0238122Y0208489D01*
X0238132Y0208637D01*
X0238146Y0208784D01*
X0238164Y0208931D01*
X0238185Y0209077D01*
X0238211Y0209223D01*
X0238241Y0209368D01*
X0238274Y0209512D01*
X0238312Y0209655D01*
X0238353Y0209797D01*
X0238398Y0209938D01*
X0238446Y0210078D01*
X0238499Y0210217D01*
X0238555Y0210354D01*
X0238615Y0210489D01*
X0238678Y0210623D01*
X0238745Y0210755D01*
X0238816Y0210885D01*
X0238890Y0211013D01*
X0238967Y0211139D01*
X0239048Y0211263D01*
X0239132Y0211385D01*
X0239219Y0211504D01*
X0239310Y0211621D01*
X0239404Y0211736D01*
X0239500Y0211848D01*
X0239600Y0211958D01*
X0239702Y0212064D01*
X0239808Y0212168D01*
X0239916Y0212269D01*
X0240027Y0212367D01*
X0240140Y0212463D01*
X0240256Y0212555D01*
X0240374Y0212644D01*
X0240495Y0212729D01*
X0240618Y0212812D01*
X0240743Y0212891D01*
X0240870Y0212967D01*
X0240999Y0213039D01*
X0241130Y0213108D01*
X0241263Y0213173D01*
X0241398Y0213234D01*
X0241534Y0213292D01*
X0241671Y0213347D01*
X0241810Y0213397D01*
X0241951Y0213444D01*
X0242092Y0213487D01*
X0242235Y0213527D01*
X0242379Y0213562D01*
X0242523Y0213594D01*
X0242669Y0213621D01*
X0242815Y0213645D01*
X0242962Y0213665D01*
X0243109Y0213681D01*
X0243256Y0213693D01*
X0243404Y0213701D01*
X0243552Y0213705D01*
X0243700Y0213705D01*
X0243848Y0213701D01*
X0243996Y0213693D01*
X0244143Y0213681D01*
X0244290Y0213665D01*
X0244437Y0213645D01*
X0244583Y0213621D01*
X0244729Y0213594D01*
X0244873Y0213562D01*
X0245017Y0213527D01*
X0245160Y0213487D01*
X0245301Y0213444D01*
X0245442Y0213397D01*
X0245581Y0213347D01*
X0245718Y0213292D01*
X0245854Y0213234D01*
X0245989Y0213173D01*
X0246122Y0213108D01*
X0246253Y0213039D01*
X0246382Y0212967D01*
X0246509Y0212891D01*
X0246634Y0212812D01*
X0246757Y0212729D01*
X0246878Y0212644D01*
X0246996Y0212555D01*
X0247112Y0212463D01*
X0247225Y0212367D01*
X0247336Y0212269D01*
X0247444Y0212168D01*
X0247550Y0212064D01*
X0247652Y0211958D01*
X0247752Y0211848D01*
X0247848Y0211736D01*
X0247942Y0211621D01*
X0248033Y0211504D01*
X0248120Y0211385D01*
X0248204Y0211263D01*
X0248285Y0211139D01*
X0248362Y0211013D01*
X0248436Y0210885D01*
X0248507Y0210755D01*
X0248574Y0210623D01*
X0248637Y0210489D01*
X0248697Y0210354D01*
X0248753Y0210217D01*
X0248806Y0210078D01*
X0248854Y0209938D01*
X0248899Y0209797D01*
X0248940Y0209655D01*
X0248978Y0209512D01*
X0249011Y0209368D01*
X0249041Y0209223D01*
X0249067Y0209077D01*
X0249088Y0208931D01*
X0249106Y0208784D01*
X0249120Y0208637D01*
X0249130Y0208489D01*
X0249136Y0208341D01*
X0249138Y0208193D01*
X0249136Y0208045D01*
X0249130Y0207897D01*
X0249120Y0207749D01*
X0249106Y0207602D01*
X0249088Y0207455D01*
X0249067Y0207309D01*
X0249041Y0207163D01*
X0249011Y0207018D01*
X0248978Y0206874D01*
X0248940Y0206731D01*
X0248899Y0206589D01*
X0248854Y0206448D01*
X0248806Y0206308D01*
X0248753Y0206169D01*
X0248697Y0206032D01*
X0248637Y0205897D01*
X0248574Y0205763D01*
X0248507Y0205631D01*
X0248436Y0205501D01*
X0248362Y0205373D01*
X0248285Y0205247D01*
X0248204Y0205123D01*
X0248120Y0205001D01*
X0248033Y0204882D01*
X0247942Y0204765D01*
X0247848Y0204650D01*
X0247752Y0204538D01*
X0247652Y0204428D01*
X0247550Y0204322D01*
X0247444Y0204218D01*
X0247336Y0204117D01*
X0247225Y0204019D01*
X0247112Y0203923D01*
X0246996Y0203831D01*
X0246878Y0203742D01*
X0246757Y0203657D01*
X0246634Y0203574D01*
X0246509Y0203495D01*
X0246382Y0203419D01*
X0246253Y0203347D01*
X0246122Y0203278D01*
X0245989Y0203213D01*
X0245854Y0203152D01*
X0245718Y0203094D01*
X0245581Y0203039D01*
X0245442Y0202989D01*
X0245301Y0202942D01*
X0245160Y0202899D01*
X0245017Y0202859D01*
X0244873Y0202824D01*
X0244729Y0202792D01*
X0244583Y0202765D01*
X0244437Y0202741D01*
X0244290Y0202721D01*
X0244143Y0202705D01*
X0243996Y0202693D01*
X0243848Y0202685D01*
X0243700Y0202681D01*
X0243552Y0202681D01*
X0243404Y0202685D01*
X0243256Y0202693D01*
X0243109Y0202705D01*
X0242962Y0202721D01*
X0242815Y0202741D01*
X0242669Y0202765D01*
X0242523Y0202792D01*
X0242379Y0202824D01*
X0242235Y0202859D01*
X0242092Y0202899D01*
X0241951Y0202942D01*
X0241810Y0202989D01*
X0241671Y0203039D01*
X0241534Y0203094D01*
X0241398Y0203152D01*
X0241263Y0203213D01*
X0241130Y0203278D01*
X0240999Y0203347D01*
X0240870Y0203419D01*
X0240743Y0203495D01*
X0240618Y0203574D01*
X0240495Y0203657D01*
X0240374Y0203742D01*
X0240256Y0203831D01*
X0240140Y0203923D01*
X0240027Y0204019D01*
X0239916Y0204117D01*
X0239808Y0204218D01*
X0239702Y0204322D01*
X0239600Y0204428D01*
X0239500Y0204538D01*
X0239404Y0204650D01*
X0239310Y0204765D01*
X0239219Y0204882D01*
X0239132Y0205001D01*
X0239048Y0205123D01*
X0238967Y0205247D01*
X0238890Y0205373D01*
X0238816Y0205501D01*
X0238745Y0205631D01*
X0238678Y0205763D01*
X0238615Y0205897D01*
X0238555Y0206032D01*
X0238499Y0206169D01*
X0238446Y0206308D01*
X0238398Y0206448D01*
X0238353Y0206589D01*
X0238312Y0206731D01*
X0238274Y0206874D01*
X0238241Y0207018D01*
X0238211Y0207163D01*
X0238185Y0207309D01*
X0238164Y0207455D01*
X0238146Y0207602D01*
X0238132Y0207749D01*
X0238122Y0207897D01*
X0238116Y0208045D01*
X0238114Y0208193D01*
X0238114Y0015280D02*
X0238116Y0015428D01*
X0238122Y0015576D01*
X0238132Y0015724D01*
X0238146Y0015871D01*
X0238164Y0016018D01*
X0238185Y0016164D01*
X0238211Y0016310D01*
X0238241Y0016455D01*
X0238274Y0016599D01*
X0238312Y0016742D01*
X0238353Y0016884D01*
X0238398Y0017025D01*
X0238446Y0017165D01*
X0238499Y0017304D01*
X0238555Y0017441D01*
X0238615Y0017576D01*
X0238678Y0017710D01*
X0238745Y0017842D01*
X0238816Y0017972D01*
X0238890Y0018100D01*
X0238967Y0018226D01*
X0239048Y0018350D01*
X0239132Y0018472D01*
X0239219Y0018591D01*
X0239310Y0018708D01*
X0239404Y0018823D01*
X0239500Y0018935D01*
X0239600Y0019045D01*
X0239702Y0019151D01*
X0239808Y0019255D01*
X0239916Y0019356D01*
X0240027Y0019454D01*
X0240140Y0019550D01*
X0240256Y0019642D01*
X0240374Y0019731D01*
X0240495Y0019816D01*
X0240618Y0019899D01*
X0240743Y0019978D01*
X0240870Y0020054D01*
X0240999Y0020126D01*
X0241130Y0020195D01*
X0241263Y0020260D01*
X0241398Y0020321D01*
X0241534Y0020379D01*
X0241671Y0020434D01*
X0241810Y0020484D01*
X0241951Y0020531D01*
X0242092Y0020574D01*
X0242235Y0020614D01*
X0242379Y0020649D01*
X0242523Y0020681D01*
X0242669Y0020708D01*
X0242815Y0020732D01*
X0242962Y0020752D01*
X0243109Y0020768D01*
X0243256Y0020780D01*
X0243404Y0020788D01*
X0243552Y0020792D01*
X0243700Y0020792D01*
X0243848Y0020788D01*
X0243996Y0020780D01*
X0244143Y0020768D01*
X0244290Y0020752D01*
X0244437Y0020732D01*
X0244583Y0020708D01*
X0244729Y0020681D01*
X0244873Y0020649D01*
X0245017Y0020614D01*
X0245160Y0020574D01*
X0245301Y0020531D01*
X0245442Y0020484D01*
X0245581Y0020434D01*
X0245718Y0020379D01*
X0245854Y0020321D01*
X0245989Y0020260D01*
X0246122Y0020195D01*
X0246253Y0020126D01*
X0246382Y0020054D01*
X0246509Y0019978D01*
X0246634Y0019899D01*
X0246757Y0019816D01*
X0246878Y0019731D01*
X0246996Y0019642D01*
X0247112Y0019550D01*
X0247225Y0019454D01*
X0247336Y0019356D01*
X0247444Y0019255D01*
X0247550Y0019151D01*
X0247652Y0019045D01*
X0247752Y0018935D01*
X0247848Y0018823D01*
X0247942Y0018708D01*
X0248033Y0018591D01*
X0248120Y0018472D01*
X0248204Y0018350D01*
X0248285Y0018226D01*
X0248362Y0018100D01*
X0248436Y0017972D01*
X0248507Y0017842D01*
X0248574Y0017710D01*
X0248637Y0017576D01*
X0248697Y0017441D01*
X0248753Y0017304D01*
X0248806Y0017165D01*
X0248854Y0017025D01*
X0248899Y0016884D01*
X0248940Y0016742D01*
X0248978Y0016599D01*
X0249011Y0016455D01*
X0249041Y0016310D01*
X0249067Y0016164D01*
X0249088Y0016018D01*
X0249106Y0015871D01*
X0249120Y0015724D01*
X0249130Y0015576D01*
X0249136Y0015428D01*
X0249138Y0015280D01*
X0249136Y0015132D01*
X0249130Y0014984D01*
X0249120Y0014836D01*
X0249106Y0014689D01*
X0249088Y0014542D01*
X0249067Y0014396D01*
X0249041Y0014250D01*
X0249011Y0014105D01*
X0248978Y0013961D01*
X0248940Y0013818D01*
X0248899Y0013676D01*
X0248854Y0013535D01*
X0248806Y0013395D01*
X0248753Y0013256D01*
X0248697Y0013119D01*
X0248637Y0012984D01*
X0248574Y0012850D01*
X0248507Y0012718D01*
X0248436Y0012588D01*
X0248362Y0012460D01*
X0248285Y0012334D01*
X0248204Y0012210D01*
X0248120Y0012088D01*
X0248033Y0011969D01*
X0247942Y0011852D01*
X0247848Y0011737D01*
X0247752Y0011625D01*
X0247652Y0011515D01*
X0247550Y0011409D01*
X0247444Y0011305D01*
X0247336Y0011204D01*
X0247225Y0011106D01*
X0247112Y0011010D01*
X0246996Y0010918D01*
X0246878Y0010829D01*
X0246757Y0010744D01*
X0246634Y0010661D01*
X0246509Y0010582D01*
X0246382Y0010506D01*
X0246253Y0010434D01*
X0246122Y0010365D01*
X0245989Y0010300D01*
X0245854Y0010239D01*
X0245718Y0010181D01*
X0245581Y0010126D01*
X0245442Y0010076D01*
X0245301Y0010029D01*
X0245160Y0009986D01*
X0245017Y0009946D01*
X0244873Y0009911D01*
X0244729Y0009879D01*
X0244583Y0009852D01*
X0244437Y0009828D01*
X0244290Y0009808D01*
X0244143Y0009792D01*
X0243996Y0009780D01*
X0243848Y0009772D01*
X0243700Y0009768D01*
X0243552Y0009768D01*
X0243404Y0009772D01*
X0243256Y0009780D01*
X0243109Y0009792D01*
X0242962Y0009808D01*
X0242815Y0009828D01*
X0242669Y0009852D01*
X0242523Y0009879D01*
X0242379Y0009911D01*
X0242235Y0009946D01*
X0242092Y0009986D01*
X0241951Y0010029D01*
X0241810Y0010076D01*
X0241671Y0010126D01*
X0241534Y0010181D01*
X0241398Y0010239D01*
X0241263Y0010300D01*
X0241130Y0010365D01*
X0240999Y0010434D01*
X0240870Y0010506D01*
X0240743Y0010582D01*
X0240618Y0010661D01*
X0240495Y0010744D01*
X0240374Y0010829D01*
X0240256Y0010918D01*
X0240140Y0011010D01*
X0240027Y0011106D01*
X0239916Y0011204D01*
X0239808Y0011305D01*
X0239702Y0011409D01*
X0239600Y0011515D01*
X0239500Y0011625D01*
X0239404Y0011737D01*
X0239310Y0011852D01*
X0239219Y0011969D01*
X0239132Y0012088D01*
X0239048Y0012210D01*
X0238967Y0012334D01*
X0238890Y0012460D01*
X0238816Y0012588D01*
X0238745Y0012718D01*
X0238678Y0012850D01*
X0238615Y0012984D01*
X0238555Y0013119D01*
X0238499Y0013256D01*
X0238446Y0013395D01*
X0238398Y0013535D01*
X0238353Y0013676D01*
X0238312Y0013818D01*
X0238274Y0013961D01*
X0238241Y0014105D01*
X0238211Y0014250D01*
X0238185Y0014396D01*
X0238164Y0014542D01*
X0238146Y0014689D01*
X0238132Y0014836D01*
X0238122Y0014984D01*
X0238116Y0015132D01*
X0238114Y0015280D01*
D11*
X0224453Y0203193D03*
X0214453Y0203193D03*
X0204453Y0203193D03*
X0194453Y0203193D03*
X0184453Y0203193D03*
X0174453Y0203193D03*
X0164453Y0203193D03*
X0154453Y0203193D03*
X0144453Y0203193D03*
X0134453Y0203193D03*
X0124453Y0203193D03*
X0114453Y0203193D03*
X0104453Y0203193D03*
X0094453Y0203193D03*
X0084453Y0203193D03*
X0074453Y0203193D03*
X0064453Y0203193D03*
X0054453Y0203193D03*
X0044453Y0203193D03*
X0034453Y0203193D03*
X0034453Y0213193D03*
X0044453Y0213193D03*
X0054453Y0213193D03*
X0064453Y0213193D03*
X0074453Y0213193D03*
X0084453Y0213193D03*
X0094453Y0213193D03*
X0104453Y0213193D03*
X0114453Y0213193D03*
X0124453Y0213193D03*
X0134453Y0213193D03*
X0144453Y0213193D03*
X0154453Y0213193D03*
X0164453Y0213193D03*
X0174453Y0213193D03*
X0184453Y0213193D03*
X0194453Y0213193D03*
X0204453Y0213193D03*
X0214453Y0213193D03*
X0224453Y0213193D03*
D12*
X0095791Y0147563D03*
X0088311Y0147563D03*
X0092051Y0138902D03*
X0068232Y0147563D03*
X0060752Y0147563D03*
X0064492Y0138902D03*
D13*
X0009374Y0163114D03*
X0009374Y0178469D03*
X0009374Y0060358D03*
X0009374Y0045004D03*
D14*
X0032996Y0170791D03*
X0032996Y0178665D03*
X0060555Y0178665D03*
X0060555Y0170791D03*
X0088114Y0170791D03*
X0088114Y0178665D03*
D15*
X0127484Y0147366D03*
X0127484Y0139098D03*
X0029059Y0115870D03*
X0029059Y0107602D03*
X0083980Y0025122D03*
X0092248Y0025122D03*
X0139098Y0025122D03*
X0147366Y0025122D03*
X0158783Y0025122D03*
X0167051Y0025122D03*
X0178469Y0025122D03*
X0186736Y0025122D03*
X0198154Y0025122D03*
X0206421Y0025122D03*
D16*
X0050555Y0023685D03*
D17*
X0060555Y0023685D03*
X0070555Y0023685D03*
D18*
X0083469Y0100083D03*
X0092130Y0103823D03*
X0083469Y0107563D03*
X0064886Y0103862D03*
X0056224Y0100122D03*
X0056224Y0107602D03*
D19*
X0056815Y0076303D03*
X0064295Y0076303D03*
X0084374Y0076303D03*
X0091854Y0076303D03*
X0091677Y0045142D03*
X0084197Y0045142D03*
X0139492Y0060555D03*
X0146972Y0060555D03*
X0159177Y0060555D03*
X0166657Y0060555D03*
X0178862Y0060555D03*
X0186343Y0060555D03*
X0198547Y0060555D03*
X0206028Y0060555D03*
D20*
X0127484Y0170988D03*
X0127484Y0178469D03*
D21*
X0131537Y0179443D02*
X0131537Y0181483D01*
X0130893Y0182128D01*
X0124076Y0182128D01*
X0123431Y0181483D01*
X0123431Y0175454D01*
X0123945Y0174941D01*
X0123610Y0174748D01*
X0123331Y0174468D01*
X0123134Y0174126D01*
X0123031Y0173745D01*
X0123031Y0171488D01*
X0126984Y0171488D01*
X0126984Y0170488D01*
X0123031Y0170488D01*
X0123031Y0168232D01*
X0123134Y0167850D01*
X0123331Y0167508D01*
X0123610Y0167229D01*
X0123953Y0167031D01*
X0124334Y0166929D01*
X0126984Y0166929D01*
X0126984Y0170488D01*
X0127984Y0170488D01*
X0127984Y0166929D01*
X0130634Y0166929D01*
X0131016Y0167031D01*
X0131358Y0167229D01*
X0131637Y0167508D01*
X0131835Y0167850D01*
X0131937Y0168232D01*
X0131937Y0170488D01*
X0127984Y0170488D01*
X0127984Y0171488D01*
X0131937Y0171488D01*
X0131937Y0173745D01*
X0131835Y0174126D01*
X0131637Y0174468D01*
X0131358Y0174748D01*
X0131024Y0174941D01*
X0131537Y0175454D01*
X0131537Y0175483D01*
X0132100Y0174920D01*
X0132100Y0167680D01*
X0126100Y0161680D01*
X0126100Y0150828D01*
X0124666Y0150828D01*
X0124022Y0150184D01*
X0124022Y0144548D01*
X0124666Y0143904D01*
X0130302Y0143904D01*
X0130946Y0144548D01*
X0130946Y0150184D01*
X0130302Y0150828D01*
X0128900Y0150828D01*
X0128900Y0160520D01*
X0133300Y0164920D01*
X0133300Y0138280D01*
X0101120Y0106100D01*
X0095986Y0106100D01*
X0095986Y0106247D01*
X0095341Y0106891D01*
X0088918Y0106891D01*
X0088274Y0106247D01*
X0088274Y0101399D01*
X0088918Y0100754D01*
X0090700Y0100754D01*
X0090700Y0095680D01*
X0084920Y0089900D01*
X0084100Y0089080D01*
X0084100Y0080356D01*
X0081359Y0080356D01*
X0080715Y0079712D01*
X0080715Y0072895D01*
X0081359Y0072250D01*
X0087389Y0072250D01*
X0088033Y0072895D01*
X0088033Y0079712D01*
X0087389Y0080356D01*
X0086900Y0080356D01*
X0086900Y0087920D01*
X0090700Y0091720D01*
X0090700Y0080356D01*
X0088840Y0080356D01*
X0088195Y0079712D01*
X0088195Y0072895D01*
X0088840Y0072250D01*
X0094869Y0072250D01*
X0095513Y0072895D01*
X0095513Y0079712D01*
X0094869Y0080356D01*
X0093500Y0080356D01*
X0093500Y0092720D01*
X0132100Y0131320D01*
X0132100Y0056120D01*
X0132920Y0055300D01*
X0138100Y0050120D01*
X0138100Y0028584D01*
X0136281Y0028584D01*
X0135636Y0027940D01*
X0135636Y0022304D01*
X0136281Y0021660D01*
X0141916Y0021660D01*
X0142561Y0022304D01*
X0142561Y0027940D01*
X0141916Y0028584D01*
X0140900Y0028584D01*
X0140900Y0051280D01*
X0134900Y0057280D01*
X0134900Y0132320D01*
X0151900Y0149320D01*
X0151900Y0055520D01*
X0152720Y0054700D01*
X0157900Y0049520D01*
X0157900Y0028584D01*
X0155966Y0028584D01*
X0155321Y0027940D01*
X0155321Y0022304D01*
X0155966Y0021660D01*
X0161601Y0021660D01*
X0162246Y0022304D01*
X0162246Y0027940D01*
X0161601Y0028584D01*
X0160700Y0028584D01*
X0160700Y0050680D01*
X0154700Y0056680D01*
X0154700Y0150320D01*
X0171700Y0167320D01*
X0171700Y0055520D01*
X0172520Y0054700D01*
X0177100Y0050120D01*
X0177100Y0028584D01*
X0175651Y0028584D01*
X0175006Y0027940D01*
X0175006Y0022304D01*
X0175651Y0021660D01*
X0181286Y0021660D01*
X0181931Y0022304D01*
X0181931Y0027940D01*
X0181286Y0028584D01*
X0179900Y0028584D01*
X0179900Y0051280D01*
X0174500Y0056680D01*
X0174500Y0168320D01*
X0191500Y0185320D01*
X0191500Y0055520D01*
X0192320Y0054700D01*
X0196900Y0050120D01*
X0196900Y0028584D01*
X0195336Y0028584D01*
X0194691Y0027940D01*
X0194691Y0022304D01*
X0195336Y0021660D01*
X0200971Y0021660D01*
X0201616Y0022304D01*
X0201616Y0027940D01*
X0200971Y0028584D01*
X0199700Y0028584D01*
X0199700Y0051280D01*
X0194300Y0056680D01*
X0194300Y0186320D01*
X0205700Y0197720D01*
X0205700Y0199093D01*
X0206151Y0199093D01*
X0208553Y0201495D01*
X0208553Y0204891D01*
X0206151Y0207293D01*
X0202754Y0207293D01*
X0200353Y0204891D01*
X0200353Y0201495D01*
X0202754Y0199093D01*
X0202900Y0199093D01*
X0202900Y0198880D01*
X0196100Y0192080D01*
X0196100Y0199093D01*
X0196151Y0199093D01*
X0198553Y0201495D01*
X0198553Y0204891D01*
X0196151Y0207293D01*
X0192754Y0207293D01*
X0190353Y0204891D01*
X0190353Y0201495D01*
X0192754Y0199093D01*
X0193300Y0199093D01*
X0193300Y0191080D01*
X0185900Y0183680D01*
X0185900Y0199093D01*
X0186151Y0199093D01*
X0188553Y0201495D01*
X0188553Y0204891D01*
X0186151Y0207293D01*
X0182754Y0207293D01*
X0180353Y0204891D01*
X0180353Y0201495D01*
X0182754Y0199093D01*
X0183100Y0199093D01*
X0183100Y0182680D01*
X0175700Y0175280D01*
X0175700Y0199093D01*
X0176151Y0199093D01*
X0178553Y0201495D01*
X0178553Y0204891D01*
X0176151Y0207293D01*
X0172754Y0207293D01*
X0170353Y0204891D01*
X0170353Y0201495D01*
X0172754Y0199093D01*
X0172900Y0199093D01*
X0172900Y0174280D01*
X0137300Y0138680D01*
X0137300Y0182680D01*
X0118519Y0201461D01*
X0118553Y0201495D01*
X0118553Y0204891D01*
X0116151Y0207293D01*
X0112754Y0207293D01*
X0110353Y0204891D01*
X0110353Y0201495D01*
X0112754Y0199093D01*
X0116151Y0199093D01*
X0116539Y0199481D01*
X0130720Y0185300D01*
X0126280Y0185300D01*
X0110300Y0201280D01*
X0110300Y0204920D01*
X0110900Y0205520D01*
X0110900Y0208480D01*
X0110080Y0209300D01*
X0108219Y0211161D01*
X0108553Y0211495D01*
X0108553Y0214891D01*
X0106151Y0217293D01*
X0102754Y0217293D01*
X0100353Y0214891D01*
X0100353Y0211495D01*
X0102754Y0209093D01*
X0106151Y0209093D01*
X0106239Y0209181D01*
X0108100Y0207320D01*
X0108100Y0206680D01*
X0107500Y0206080D01*
X0107500Y0205944D01*
X0106151Y0207293D01*
X0102754Y0207293D01*
X0100353Y0204891D01*
X0100353Y0201495D01*
X0100434Y0201414D01*
X0086500Y0187480D01*
X0086500Y0181931D01*
X0084903Y0181931D01*
X0084258Y0181286D01*
X0084258Y0176044D01*
X0084903Y0175400D01*
X0091326Y0175400D01*
X0091970Y0176044D01*
X0091970Y0181286D01*
X0091326Y0181931D01*
X0089300Y0181931D01*
X0089300Y0186320D01*
X0102414Y0199434D01*
X0102754Y0199093D01*
X0106151Y0199093D01*
X0107500Y0200442D01*
X0107500Y0200120D01*
X0124300Y0183320D01*
X0125120Y0182500D01*
X0131120Y0182500D01*
X0133300Y0180320D01*
X0133300Y0177680D01*
X0131900Y0179080D01*
X0131537Y0179443D01*
X0131745Y0179235D02*
X0133300Y0179235D01*
X0133300Y0178237D02*
X0132743Y0178237D01*
X0133300Y0180234D02*
X0131537Y0180234D01*
X0131537Y0181232D02*
X0132388Y0181232D01*
X0131390Y0182231D02*
X0089300Y0182231D01*
X0089300Y0183229D02*
X0124391Y0183229D01*
X0123393Y0184228D02*
X0089300Y0184228D01*
X0089300Y0185226D02*
X0122394Y0185226D01*
X0121395Y0186225D02*
X0089300Y0186225D01*
X0090203Y0187223D02*
X0120397Y0187223D01*
X0119398Y0188222D02*
X0091202Y0188222D01*
X0092200Y0189220D02*
X0118400Y0189220D01*
X0117401Y0190219D02*
X0093199Y0190219D01*
X0094197Y0191217D02*
X0116403Y0191217D01*
X0115404Y0192216D02*
X0095196Y0192216D01*
X0096194Y0193214D02*
X0114406Y0193214D01*
X0113407Y0194213D02*
X0097193Y0194213D01*
X0098191Y0195211D02*
X0112409Y0195211D01*
X0111410Y0196210D02*
X0099190Y0196210D01*
X0100188Y0197208D02*
X0110412Y0197208D01*
X0109413Y0198207D02*
X0101187Y0198207D01*
X0102185Y0199205D02*
X0102642Y0199205D01*
X0100222Y0201202D02*
X0098260Y0201202D01*
X0098553Y0201495D02*
X0096151Y0199093D01*
X0092754Y0199093D01*
X0090353Y0201495D01*
X0090353Y0204891D01*
X0092754Y0207293D01*
X0096151Y0207293D01*
X0098553Y0204891D01*
X0098553Y0201495D01*
X0098553Y0202201D02*
X0100353Y0202201D01*
X0100353Y0203199D02*
X0098553Y0203199D01*
X0098553Y0204198D02*
X0100353Y0204198D01*
X0100658Y0205196D02*
X0098248Y0205196D01*
X0097249Y0206195D02*
X0101656Y0206195D01*
X0102655Y0207193D02*
X0096251Y0207193D01*
X0096317Y0208693D02*
X0094953Y0208693D01*
X0094953Y0212693D01*
X0094953Y0213693D01*
X0098953Y0213693D01*
X0098953Y0215057D01*
X0096317Y0217693D01*
X0094953Y0217693D01*
X0094953Y0213693D01*
X0093953Y0213693D01*
X0093953Y0217693D01*
X0092589Y0217693D01*
X0089953Y0215057D01*
X0089953Y0213693D01*
X0093953Y0213693D01*
X0093953Y0212693D01*
X0094953Y0212693D01*
X0098953Y0212693D01*
X0098953Y0211329D01*
X0096317Y0208693D01*
X0096814Y0209190D02*
X0102657Y0209190D01*
X0101659Y0210189D02*
X0097813Y0210189D01*
X0098811Y0211187D02*
X0100660Y0211187D01*
X0100353Y0212186D02*
X0098953Y0212186D01*
X0100353Y0213184D02*
X0094953Y0213184D01*
X0094953Y0212186D02*
X0093953Y0212186D01*
X0093953Y0212693D02*
X0093953Y0208693D01*
X0092589Y0208693D01*
X0089953Y0211329D01*
X0089953Y0212693D01*
X0093953Y0212693D01*
X0093953Y0213184D02*
X0088553Y0213184D01*
X0088553Y0212186D02*
X0089953Y0212186D01*
X0090094Y0211187D02*
X0088245Y0211187D01*
X0088553Y0211495D02*
X0086151Y0209093D01*
X0082754Y0209093D01*
X0080353Y0211495D01*
X0080353Y0214891D01*
X0082754Y0217293D01*
X0086151Y0217293D01*
X0088553Y0214891D01*
X0088553Y0211495D01*
X0087247Y0210189D02*
X0091093Y0210189D01*
X0092091Y0209190D02*
X0086248Y0209190D01*
X0086151Y0207293D02*
X0082754Y0207293D01*
X0080353Y0204891D01*
X0080353Y0201495D01*
X0082754Y0199093D01*
X0086151Y0199093D01*
X0088553Y0201495D01*
X0088553Y0204891D01*
X0086151Y0207293D01*
X0086251Y0207193D02*
X0092655Y0207193D01*
X0091656Y0206195D02*
X0087249Y0206195D01*
X0088248Y0205196D02*
X0090658Y0205196D01*
X0090353Y0204198D02*
X0088553Y0204198D01*
X0088553Y0203199D02*
X0090353Y0203199D01*
X0090353Y0202201D02*
X0088553Y0202201D01*
X0088260Y0201202D02*
X0090645Y0201202D01*
X0091644Y0200204D02*
X0087262Y0200204D01*
X0086263Y0199205D02*
X0092642Y0199205D01*
X0096263Y0199205D02*
X0098225Y0199205D01*
X0097262Y0200204D02*
X0099224Y0200204D01*
X0097227Y0198207D02*
X0029900Y0198207D01*
X0029900Y0199205D02*
X0032642Y0199205D01*
X0032754Y0199093D02*
X0036151Y0199093D01*
X0038553Y0201495D01*
X0038553Y0204891D01*
X0036151Y0207293D01*
X0032754Y0207293D01*
X0030353Y0204891D01*
X0030353Y0201495D01*
X0032754Y0199093D01*
X0031644Y0200204D02*
X0029900Y0200204D01*
X0029900Y0201202D02*
X0030645Y0201202D01*
X0030353Y0202201D02*
X0029900Y0202201D01*
X0029900Y0203199D02*
X0030353Y0203199D01*
X0030353Y0204198D02*
X0029900Y0204198D01*
X0029900Y0204920D02*
X0031100Y0206120D01*
X0031100Y0207920D01*
X0032514Y0209334D01*
X0032754Y0209093D01*
X0036151Y0209093D01*
X0038553Y0211495D01*
X0038553Y0211900D01*
X0040353Y0211900D01*
X0040353Y0211495D01*
X0042754Y0209093D01*
X0046151Y0209093D01*
X0048553Y0211495D01*
X0048553Y0214891D01*
X0046151Y0217293D01*
X0042754Y0217293D01*
X0040353Y0214891D01*
X0040353Y0214700D01*
X0038553Y0214700D01*
X0038553Y0214891D01*
X0036151Y0217293D01*
X0032754Y0217293D01*
X0030353Y0214891D01*
X0030353Y0211495D01*
X0030534Y0211314D01*
X0029120Y0209900D01*
X0028300Y0209080D01*
X0028300Y0207280D01*
X0027920Y0206900D01*
X0027721Y0206701D01*
X0027984Y0208193D01*
X0027218Y0212538D01*
X0025012Y0216359D01*
X0021632Y0219196D01*
X0018124Y0220472D01*
X0240782Y0220472D01*
X0237274Y0219196D01*
X0233894Y0216359D01*
X0231687Y0212538D01*
X0230921Y0208193D01*
X0231687Y0203848D01*
X0233894Y0200026D01*
X0237274Y0197190D01*
X0241420Y0195681D01*
X0245832Y0195681D01*
X0249978Y0197190D01*
X0253358Y0200026D01*
X0255565Y0203848D01*
X0255906Y0205782D01*
X0255906Y0017691D01*
X0255565Y0019625D01*
X0253358Y0023446D01*
X0249978Y0026282D01*
X0245832Y0027791D01*
X0241420Y0027791D01*
X0237274Y0026282D01*
X0233894Y0023446D01*
X0231687Y0019625D01*
X0230921Y0015280D01*
X0231687Y0010934D01*
X0233894Y0007113D01*
X0237274Y0004277D01*
X0240782Y0003000D01*
X0018124Y0003000D01*
X0021632Y0004277D01*
X0025012Y0007113D01*
X0027218Y0010934D01*
X0027984Y0015280D01*
X0027218Y0019625D01*
X0025012Y0023446D01*
X0021632Y0026282D01*
X0017486Y0027791D01*
X0013073Y0027791D01*
X0008927Y0026282D01*
X0005547Y0023446D01*
X0003341Y0019625D01*
X0003000Y0017691D01*
X0003000Y0074335D01*
X0003047Y0074810D01*
X0003411Y0075689D01*
X0004083Y0076361D01*
X0004962Y0076725D01*
X0005437Y0076772D01*
X0018330Y0076772D01*
X0020328Y0077599D01*
X0021857Y0079129D01*
X0022629Y0080991D01*
X0022900Y0080720D01*
X0022900Y0079480D01*
X0008500Y0065080D01*
X0008500Y0064608D01*
X0005769Y0064608D01*
X0005124Y0063964D01*
X0005124Y0056753D01*
X0005769Y0056109D01*
X0012979Y0056109D01*
X0013624Y0056753D01*
X0013624Y0063964D01*
X0012979Y0064608D01*
X0011988Y0064608D01*
X0024880Y0077500D01*
X0025700Y0078320D01*
X0025700Y0081880D01*
X0023900Y0083680D01*
X0023900Y0117320D01*
X0024880Y0118300D01*
X0025700Y0119120D01*
X0025700Y0146080D01*
X0012915Y0158865D01*
X0012979Y0158865D01*
X0013624Y0159509D01*
X0013624Y0166719D01*
X0012979Y0167364D01*
X0005769Y0167364D01*
X0005124Y0166719D01*
X0005124Y0159509D01*
X0005769Y0158865D01*
X0008956Y0158865D01*
X0009320Y0158500D01*
X0022900Y0144920D01*
X0022900Y0120280D01*
X0022685Y0120065D01*
X0022685Y0142345D01*
X0021857Y0144344D01*
X0020328Y0145873D01*
X0020328Y0145873D01*
X0018330Y0146701D01*
X0005437Y0146701D01*
X0004962Y0146748D01*
X0004083Y0147111D01*
X0003411Y0147784D01*
X0003047Y0148662D01*
X0003000Y0149138D01*
X0003000Y0205782D01*
X0003341Y0203848D01*
X0005547Y0200026D01*
X0008927Y0197190D01*
X0013073Y0195681D01*
X0017486Y0195681D01*
X0021632Y0197190D01*
X0025012Y0200026D01*
X0027100Y0203643D01*
X0027100Y0185120D01*
X0030289Y0181931D01*
X0029785Y0181931D01*
X0029140Y0181286D01*
X0029140Y0176044D01*
X0029785Y0175400D01*
X0036208Y0175400D01*
X0036852Y0176044D01*
X0036852Y0177100D01*
X0056699Y0177100D01*
X0056699Y0176044D01*
X0057344Y0175400D01*
X0063767Y0175400D01*
X0064411Y0176044D01*
X0064411Y0176609D01*
X0076520Y0164500D01*
X0085520Y0164500D01*
X0105120Y0144900D01*
X0095120Y0134900D01*
X0087920Y0134900D01*
X0087100Y0134080D01*
X0060080Y0107060D01*
X0060080Y0110027D01*
X0059436Y0110671D01*
X0053013Y0110671D01*
X0052369Y0110027D01*
X0052369Y0108500D01*
X0051320Y0108500D01*
X0049520Y0106700D01*
X0048700Y0105880D01*
X0048700Y0028585D01*
X0046299Y0028585D01*
X0045655Y0027941D01*
X0045655Y0019429D01*
X0046299Y0018785D01*
X0054811Y0018785D01*
X0055455Y0019429D01*
X0055455Y0022230D01*
X0055643Y0021651D01*
X0056022Y0020907D01*
X0056512Y0020232D01*
X0057102Y0019642D01*
X0057777Y0019152D01*
X0058521Y0018773D01*
X0059314Y0018516D01*
X0060055Y0018398D01*
X0060055Y0023185D01*
X0061055Y0023185D01*
X0061055Y0018398D01*
X0061796Y0018516D01*
X0062590Y0018773D01*
X0063333Y0019152D01*
X0064008Y0019642D01*
X0064598Y0020232D01*
X0065088Y0020907D01*
X0065467Y0021651D01*
X0065725Y0022444D01*
X0065736Y0022515D01*
X0066401Y0020909D01*
X0067779Y0019531D01*
X0069580Y0018785D01*
X0071530Y0018785D01*
X0073331Y0019531D01*
X0074709Y0020909D01*
X0075455Y0022710D01*
X0075455Y0024660D01*
X0074709Y0026461D01*
X0073331Y0027839D01*
X0071530Y0028585D01*
X0069580Y0028585D01*
X0069449Y0028531D01*
X0058100Y0039880D01*
X0058100Y0072250D01*
X0059830Y0072250D01*
X0060474Y0072895D01*
X0060474Y0079712D01*
X0059830Y0080356D01*
X0058100Y0080356D01*
X0058100Y0090920D01*
X0062680Y0095500D01*
X0063500Y0096320D01*
X0063500Y0100794D01*
X0063700Y0100794D01*
X0063700Y0080356D01*
X0061281Y0080356D01*
X0060636Y0079712D01*
X0060636Y0072895D01*
X0061281Y0072250D01*
X0063170Y0072250D01*
X0063320Y0072100D01*
X0082900Y0052520D01*
X0082900Y0049194D01*
X0081182Y0049194D01*
X0080538Y0048550D01*
X0080538Y0041733D01*
X0081182Y0041089D01*
X0082900Y0041089D01*
X0082900Y0028584D01*
X0081162Y0028584D01*
X0080518Y0027940D01*
X0080518Y0022304D01*
X0081162Y0021660D01*
X0086798Y0021660D01*
X0087443Y0022304D01*
X0087443Y0027940D01*
X0086798Y0028584D01*
X0085700Y0028584D01*
X0085700Y0041089D01*
X0087212Y0041089D01*
X0087856Y0041733D01*
X0087856Y0048550D01*
X0087212Y0049194D01*
X0085700Y0049194D01*
X0085700Y0052720D01*
X0089226Y0049194D01*
X0088662Y0049194D01*
X0088018Y0048550D01*
X0088018Y0041733D01*
X0088662Y0041089D01*
X0094692Y0041089D01*
X0095336Y0041733D01*
X0095336Y0048550D01*
X0094692Y0049194D01*
X0093185Y0049194D01*
X0092680Y0049700D01*
X0079100Y0063280D01*
X0079100Y0104720D01*
X0079613Y0105233D01*
X0079613Y0105139D01*
X0080257Y0104494D01*
X0086680Y0104494D01*
X0087324Y0105139D01*
X0087324Y0109987D01*
X0086680Y0110631D01*
X0080257Y0110631D01*
X0079613Y0109987D01*
X0079613Y0108500D01*
X0078920Y0108500D01*
X0077120Y0106700D01*
X0076300Y0105880D01*
X0076300Y0063080D01*
X0067129Y0072250D01*
X0067310Y0072250D01*
X0067954Y0072895D01*
X0067954Y0079712D01*
X0067310Y0080356D01*
X0066500Y0080356D01*
X0066500Y0100794D01*
X0068097Y0100794D01*
X0068742Y0101438D01*
X0068742Y0106286D01*
X0068097Y0106931D01*
X0063911Y0106931D01*
X0089080Y0132100D01*
X0096280Y0132100D01*
X0107100Y0142920D01*
X0111920Y0138100D01*
X0124022Y0138100D01*
X0124022Y0136281D01*
X0124666Y0135636D01*
X0130302Y0135636D01*
X0130946Y0136281D01*
X0130946Y0141916D01*
X0130302Y0142561D01*
X0124666Y0142561D01*
X0124022Y0141916D01*
X0124022Y0140900D01*
X0113080Y0140900D01*
X0108500Y0145480D01*
X0107680Y0146300D01*
X0107680Y0146300D01*
X0089780Y0164200D01*
X0090053Y0164200D01*
X0091400Y0165547D01*
X0091400Y0167453D01*
X0091326Y0167526D01*
X0091970Y0168170D01*
X0091970Y0173412D01*
X0091326Y0174057D01*
X0084903Y0174057D01*
X0084258Y0173412D01*
X0084258Y0168170D01*
X0084903Y0167526D01*
X0086873Y0167526D01*
X0086800Y0167453D01*
X0086800Y0167180D01*
X0086680Y0167300D01*
X0077680Y0167300D01*
X0065900Y0179080D01*
X0065080Y0179900D01*
X0064411Y0179900D01*
X0064411Y0181286D01*
X0063767Y0181931D01*
X0057344Y0181931D01*
X0056699Y0181286D01*
X0056699Y0179900D01*
X0036852Y0179900D01*
X0036852Y0181286D01*
X0036208Y0181931D01*
X0034249Y0181931D01*
X0033880Y0182300D01*
X0029900Y0186280D01*
X0029900Y0204920D01*
X0030176Y0205196D02*
X0030658Y0205196D01*
X0031100Y0206195D02*
X0031656Y0206195D01*
X0031100Y0207193D02*
X0032655Y0207193D01*
X0031372Y0208192D02*
X0107228Y0208192D01*
X0108100Y0207193D02*
X0106251Y0207193D01*
X0107249Y0206195D02*
X0107615Y0206195D01*
X0110576Y0205196D02*
X0110658Y0205196D01*
X0110900Y0206195D02*
X0111656Y0206195D01*
X0110900Y0207193D02*
X0112655Y0207193D01*
X0112754Y0209093D02*
X0116151Y0209093D01*
X0118553Y0211495D01*
X0118553Y0214891D01*
X0116151Y0217293D01*
X0112754Y0217293D01*
X0110353Y0214891D01*
X0110353Y0211495D01*
X0112754Y0209093D01*
X0112657Y0209190D02*
X0110190Y0209190D01*
X0110900Y0208192D02*
X0230921Y0208192D01*
X0231097Y0209190D02*
X0226248Y0209190D01*
X0226151Y0209093D02*
X0228553Y0211495D01*
X0228553Y0214891D01*
X0226151Y0217293D01*
X0222754Y0217293D01*
X0220353Y0214891D01*
X0220353Y0211495D01*
X0222754Y0209093D01*
X0226151Y0209093D01*
X0226317Y0207693D02*
X0224953Y0207693D01*
X0224953Y0203693D01*
X0228953Y0203693D01*
X0228953Y0205057D01*
X0226317Y0207693D01*
X0226816Y0207193D02*
X0231098Y0207193D01*
X0231274Y0206195D02*
X0227815Y0206195D01*
X0228813Y0205196D02*
X0231450Y0205196D01*
X0231626Y0204198D02*
X0228953Y0204198D01*
X0228953Y0202693D02*
X0224953Y0202693D01*
X0224953Y0203693D01*
X0223953Y0203693D01*
X0223953Y0207693D01*
X0222589Y0207693D01*
X0219953Y0205057D01*
X0219953Y0203693D01*
X0223953Y0203693D01*
X0223953Y0202693D01*
X0224953Y0202693D01*
X0224953Y0198693D01*
X0226317Y0198693D01*
X0228953Y0201329D01*
X0228953Y0202693D01*
X0228953Y0202201D02*
X0232638Y0202201D01*
X0232062Y0203199D02*
X0224953Y0203199D01*
X0224953Y0202201D02*
X0223953Y0202201D01*
X0223953Y0202693D02*
X0223953Y0198693D01*
X0222589Y0198693D01*
X0219953Y0201329D01*
X0219953Y0202693D01*
X0223953Y0202693D01*
X0223953Y0203199D02*
X0218553Y0203199D01*
X0218553Y0202201D02*
X0219953Y0202201D01*
X0220079Y0201202D02*
X0218260Y0201202D01*
X0218553Y0201495D02*
X0216151Y0199093D01*
X0212754Y0199093D01*
X0210353Y0201495D01*
X0210353Y0204891D01*
X0212754Y0207293D01*
X0216151Y0207293D01*
X0218553Y0204891D01*
X0218553Y0201495D01*
X0217262Y0200204D02*
X0221078Y0200204D01*
X0222076Y0199205D02*
X0216263Y0199205D01*
X0212642Y0199205D02*
X0206263Y0199205D01*
X0205700Y0198207D02*
X0236062Y0198207D01*
X0234872Y0199205D02*
X0226829Y0199205D01*
X0227828Y0200204D02*
X0233791Y0200204D01*
X0233215Y0201202D02*
X0228826Y0201202D01*
X0224953Y0201202D02*
X0223953Y0201202D01*
X0223953Y0200204D02*
X0224953Y0200204D01*
X0224953Y0199205D02*
X0223953Y0199205D01*
X0223953Y0204198D02*
X0224953Y0204198D01*
X0224953Y0205196D02*
X0223953Y0205196D01*
X0223953Y0206195D02*
X0224953Y0206195D01*
X0224953Y0207193D02*
X0223953Y0207193D01*
X0222089Y0207193D02*
X0216251Y0207193D01*
X0217249Y0206195D02*
X0221091Y0206195D01*
X0220092Y0205196D02*
X0218248Y0205196D01*
X0218553Y0204198D02*
X0219953Y0204198D01*
X0222657Y0209190D02*
X0216248Y0209190D01*
X0216151Y0209093D02*
X0218553Y0211495D01*
X0218553Y0214891D01*
X0216151Y0217293D01*
X0212754Y0217293D01*
X0210353Y0214891D01*
X0210353Y0211495D01*
X0212754Y0209093D01*
X0216151Y0209093D01*
X0217247Y0210189D02*
X0221659Y0210189D01*
X0220660Y0211187D02*
X0218245Y0211187D01*
X0218553Y0212186D02*
X0220353Y0212186D01*
X0220353Y0213184D02*
X0218553Y0213184D01*
X0218553Y0214183D02*
X0220353Y0214183D01*
X0220643Y0215181D02*
X0218262Y0215181D01*
X0217264Y0216180D02*
X0221642Y0216180D01*
X0222640Y0217178D02*
X0216265Y0217178D01*
X0212640Y0217178D02*
X0206265Y0217178D01*
X0206151Y0217293D02*
X0202754Y0217293D01*
X0200353Y0214891D01*
X0200353Y0211495D01*
X0202754Y0209093D01*
X0206151Y0209093D01*
X0208553Y0211495D01*
X0208553Y0214891D01*
X0206151Y0217293D01*
X0207264Y0216180D02*
X0211642Y0216180D01*
X0210643Y0215181D02*
X0208262Y0215181D01*
X0208553Y0214183D02*
X0210353Y0214183D01*
X0210353Y0213184D02*
X0208553Y0213184D01*
X0208553Y0212186D02*
X0210353Y0212186D01*
X0210660Y0211187D02*
X0208245Y0211187D01*
X0207247Y0210189D02*
X0211659Y0210189D01*
X0212657Y0209190D02*
X0206248Y0209190D01*
X0206251Y0207193D02*
X0212655Y0207193D01*
X0211656Y0206195D02*
X0207249Y0206195D01*
X0208248Y0205196D02*
X0210658Y0205196D01*
X0210353Y0204198D02*
X0208553Y0204198D01*
X0208553Y0203199D02*
X0210353Y0203199D01*
X0210353Y0202201D02*
X0208553Y0202201D01*
X0208260Y0201202D02*
X0210645Y0201202D01*
X0211644Y0200204D02*
X0207262Y0200204D01*
X0205188Y0197208D02*
X0237252Y0197208D01*
X0239968Y0196210D02*
X0204190Y0196210D01*
X0203191Y0195211D02*
X0255906Y0195211D01*
X0255906Y0194213D02*
X0202193Y0194213D01*
X0201194Y0193214D02*
X0255906Y0193214D01*
X0255906Y0192216D02*
X0200196Y0192216D01*
X0199197Y0191217D02*
X0255906Y0191217D01*
X0255906Y0190219D02*
X0198199Y0190219D01*
X0197200Y0189220D02*
X0255906Y0189220D01*
X0255906Y0188222D02*
X0196202Y0188222D01*
X0195203Y0187223D02*
X0255906Y0187223D01*
X0255906Y0186225D02*
X0194300Y0186225D01*
X0194300Y0185226D02*
X0255906Y0185226D01*
X0255906Y0184228D02*
X0194300Y0184228D01*
X0194300Y0183229D02*
X0255906Y0183229D01*
X0255906Y0182231D02*
X0194300Y0182231D01*
X0194300Y0181232D02*
X0255906Y0181232D01*
X0255906Y0180234D02*
X0194300Y0180234D01*
X0194300Y0179235D02*
X0255906Y0179235D01*
X0255906Y0178237D02*
X0194300Y0178237D01*
X0194300Y0177238D02*
X0255906Y0177238D01*
X0255906Y0176239D02*
X0194300Y0176239D01*
X0194300Y0175241D02*
X0255906Y0175241D01*
X0255906Y0174242D02*
X0194300Y0174242D01*
X0194300Y0173244D02*
X0255906Y0173244D01*
X0255906Y0172245D02*
X0194300Y0172245D01*
X0194300Y0171247D02*
X0255906Y0171247D01*
X0255906Y0170248D02*
X0194300Y0170248D01*
X0194300Y0169250D02*
X0255906Y0169250D01*
X0255906Y0168251D02*
X0194300Y0168251D01*
X0194300Y0167253D02*
X0255906Y0167253D01*
X0255906Y0166254D02*
X0194300Y0166254D01*
X0194300Y0165256D02*
X0255906Y0165256D01*
X0255906Y0164257D02*
X0194300Y0164257D01*
X0194300Y0163259D02*
X0255906Y0163259D01*
X0255906Y0162260D02*
X0194300Y0162260D01*
X0194300Y0161262D02*
X0255906Y0161262D01*
X0255906Y0160263D02*
X0194300Y0160263D01*
X0194300Y0159265D02*
X0255906Y0159265D01*
X0255906Y0158266D02*
X0194300Y0158266D01*
X0194300Y0157268D02*
X0255906Y0157268D01*
X0255906Y0156269D02*
X0194300Y0156269D01*
X0194300Y0155271D02*
X0255906Y0155271D01*
X0255906Y0154272D02*
X0194300Y0154272D01*
X0194300Y0153274D02*
X0255906Y0153274D01*
X0255906Y0152275D02*
X0194300Y0152275D01*
X0194300Y0151277D02*
X0255906Y0151277D01*
X0255906Y0150278D02*
X0194300Y0150278D01*
X0194300Y0149280D02*
X0255906Y0149280D01*
X0255906Y0148281D02*
X0194300Y0148281D01*
X0194300Y0147283D02*
X0255906Y0147283D01*
X0255906Y0146284D02*
X0194300Y0146284D01*
X0194300Y0145286D02*
X0255906Y0145286D01*
X0255906Y0144287D02*
X0194300Y0144287D01*
X0194300Y0143289D02*
X0255906Y0143289D01*
X0255906Y0142290D02*
X0194300Y0142290D01*
X0194300Y0141292D02*
X0255906Y0141292D01*
X0255906Y0140293D02*
X0194300Y0140293D01*
X0194300Y0139295D02*
X0255906Y0139295D01*
X0255906Y0138296D02*
X0194300Y0138296D01*
X0194300Y0137298D02*
X0255906Y0137298D01*
X0255906Y0136299D02*
X0194300Y0136299D01*
X0194300Y0135301D02*
X0255906Y0135301D01*
X0255906Y0134302D02*
X0194300Y0134302D01*
X0194300Y0133303D02*
X0255906Y0133303D01*
X0255906Y0132305D02*
X0194300Y0132305D01*
X0194300Y0131306D02*
X0255906Y0131306D01*
X0255906Y0130308D02*
X0194300Y0130308D01*
X0194300Y0129309D02*
X0255906Y0129309D01*
X0255906Y0128311D02*
X0194300Y0128311D01*
X0194300Y0127312D02*
X0255906Y0127312D01*
X0255906Y0126314D02*
X0194300Y0126314D01*
X0194300Y0125315D02*
X0255906Y0125315D01*
X0255906Y0124317D02*
X0194300Y0124317D01*
X0194300Y0123318D02*
X0255906Y0123318D01*
X0255906Y0122320D02*
X0194300Y0122320D01*
X0194300Y0121321D02*
X0255906Y0121321D01*
X0255906Y0120323D02*
X0194300Y0120323D01*
X0194300Y0119324D02*
X0255906Y0119324D01*
X0255906Y0118326D02*
X0194300Y0118326D01*
X0194300Y0117327D02*
X0255906Y0117327D01*
X0255906Y0116329D02*
X0194300Y0116329D01*
X0194300Y0115330D02*
X0255906Y0115330D01*
X0255906Y0114332D02*
X0194300Y0114332D01*
X0194300Y0113333D02*
X0255906Y0113333D01*
X0255906Y0112335D02*
X0194300Y0112335D01*
X0194300Y0111336D02*
X0255906Y0111336D01*
X0255906Y0110338D02*
X0194300Y0110338D01*
X0194300Y0109339D02*
X0255906Y0109339D01*
X0255906Y0108341D02*
X0194300Y0108341D01*
X0194300Y0107342D02*
X0255906Y0107342D01*
X0255906Y0106344D02*
X0194300Y0106344D01*
X0194300Y0105345D02*
X0255906Y0105345D01*
X0255906Y0104347D02*
X0194300Y0104347D01*
X0194300Y0103348D02*
X0255906Y0103348D01*
X0255906Y0102350D02*
X0194300Y0102350D01*
X0194300Y0101351D02*
X0255906Y0101351D01*
X0255906Y0100353D02*
X0194300Y0100353D01*
X0194300Y0099354D02*
X0255906Y0099354D01*
X0255906Y0098356D02*
X0194300Y0098356D01*
X0194300Y0097357D02*
X0255906Y0097357D01*
X0255906Y0096359D02*
X0194300Y0096359D01*
X0194300Y0095360D02*
X0255906Y0095360D01*
X0255906Y0094362D02*
X0194300Y0094362D01*
X0194300Y0093363D02*
X0255906Y0093363D01*
X0255906Y0092365D02*
X0194300Y0092365D01*
X0194300Y0091366D02*
X0255906Y0091366D01*
X0255906Y0090368D02*
X0194300Y0090368D01*
X0194300Y0089369D02*
X0255906Y0089369D01*
X0255906Y0088370D02*
X0194300Y0088370D01*
X0194300Y0087372D02*
X0255906Y0087372D01*
X0255906Y0086373D02*
X0194300Y0086373D01*
X0194300Y0085375D02*
X0255906Y0085375D01*
X0255906Y0084376D02*
X0194300Y0084376D01*
X0194300Y0083378D02*
X0255906Y0083378D01*
X0255906Y0082379D02*
X0194300Y0082379D01*
X0194300Y0081381D02*
X0255906Y0081381D01*
X0255906Y0080382D02*
X0194300Y0080382D01*
X0194300Y0079384D02*
X0255906Y0079384D01*
X0255906Y0078385D02*
X0194300Y0078385D01*
X0194300Y0077387D02*
X0255906Y0077387D01*
X0255906Y0076388D02*
X0194300Y0076388D01*
X0194300Y0075390D02*
X0255906Y0075390D01*
X0255906Y0074391D02*
X0194300Y0074391D01*
X0194300Y0073393D02*
X0255906Y0073393D01*
X0255906Y0072394D02*
X0194300Y0072394D01*
X0194300Y0071396D02*
X0255906Y0071396D01*
X0255906Y0070397D02*
X0194300Y0070397D01*
X0194300Y0069399D02*
X0255906Y0069399D01*
X0255906Y0068400D02*
X0194300Y0068400D01*
X0194300Y0067402D02*
X0255906Y0067402D01*
X0255906Y0066403D02*
X0194300Y0066403D01*
X0194300Y0065405D02*
X0255906Y0065405D01*
X0255906Y0064406D02*
X0209244Y0064406D01*
X0209042Y0064608D02*
X0203013Y0064608D01*
X0202500Y0064095D01*
X0202307Y0064429D01*
X0202027Y0064708D01*
X0201685Y0064906D01*
X0201304Y0065008D01*
X0199047Y0065008D01*
X0199047Y0061055D01*
X0198047Y0061055D01*
X0198047Y0060055D01*
X0194488Y0060055D01*
X0194488Y0057405D01*
X0194590Y0057023D01*
X0194788Y0056681D01*
X0195067Y0056402D01*
X0195409Y0056205D01*
X0195791Y0056102D01*
X0198047Y0056102D01*
X0198047Y0060055D01*
X0199047Y0060055D01*
X0199047Y0056102D01*
X0201304Y0056102D01*
X0201685Y0056205D01*
X0202027Y0056402D01*
X0202307Y0056681D01*
X0202500Y0057016D01*
X0203013Y0056502D01*
X0205300Y0056502D01*
X0205300Y0028584D01*
X0203603Y0028584D01*
X0202959Y0027940D01*
X0202959Y0022304D01*
X0203603Y0021660D01*
X0209239Y0021660D01*
X0209883Y0022304D01*
X0209883Y0027940D01*
X0209239Y0028584D01*
X0208100Y0028584D01*
X0208100Y0056502D01*
X0209042Y0056502D01*
X0209687Y0057147D01*
X0209687Y0063964D01*
X0209042Y0064608D01*
X0209687Y0063408D02*
X0255906Y0063408D01*
X0255906Y0062409D02*
X0209687Y0062409D01*
X0209687Y0061411D02*
X0255906Y0061411D01*
X0255906Y0060412D02*
X0209687Y0060412D01*
X0209687Y0059414D02*
X0255906Y0059414D01*
X0255906Y0058415D02*
X0209687Y0058415D01*
X0209687Y0057417D02*
X0255906Y0057417D01*
X0255906Y0056418D02*
X0208100Y0056418D01*
X0208100Y0055420D02*
X0255906Y0055420D01*
X0255906Y0054421D02*
X0208100Y0054421D01*
X0208100Y0053423D02*
X0255906Y0053423D01*
X0255906Y0052424D02*
X0208100Y0052424D01*
X0208100Y0051426D02*
X0255906Y0051426D01*
X0255906Y0050427D02*
X0208100Y0050427D01*
X0208100Y0049429D02*
X0255906Y0049429D01*
X0255906Y0048430D02*
X0208100Y0048430D01*
X0208100Y0047432D02*
X0255906Y0047432D01*
X0255906Y0046433D02*
X0208100Y0046433D01*
X0208100Y0045434D02*
X0255906Y0045434D01*
X0255906Y0044436D02*
X0208100Y0044436D01*
X0208100Y0043437D02*
X0255906Y0043437D01*
X0255906Y0042439D02*
X0208100Y0042439D01*
X0208100Y0041440D02*
X0255906Y0041440D01*
X0255906Y0040442D02*
X0208100Y0040442D01*
X0208100Y0039443D02*
X0255906Y0039443D01*
X0255906Y0038445D02*
X0208100Y0038445D01*
X0208100Y0037446D02*
X0255906Y0037446D01*
X0255906Y0036448D02*
X0208100Y0036448D01*
X0208100Y0035449D02*
X0255906Y0035449D01*
X0255906Y0034451D02*
X0208100Y0034451D01*
X0208100Y0033452D02*
X0255906Y0033452D01*
X0255906Y0032454D02*
X0208100Y0032454D01*
X0208100Y0031455D02*
X0255906Y0031455D01*
X0255906Y0030457D02*
X0208100Y0030457D01*
X0208100Y0029458D02*
X0255906Y0029458D01*
X0255906Y0028460D02*
X0209364Y0028460D01*
X0209883Y0027461D02*
X0240513Y0027461D01*
X0237770Y0026463D02*
X0209883Y0026463D01*
X0209883Y0025464D02*
X0236299Y0025464D01*
X0235109Y0024466D02*
X0209883Y0024466D01*
X0209883Y0023467D02*
X0233919Y0023467D01*
X0233329Y0022469D02*
X0209883Y0022469D01*
X0202959Y0022469D02*
X0201616Y0022469D01*
X0201616Y0023467D02*
X0202959Y0023467D01*
X0202959Y0024466D02*
X0201616Y0024466D01*
X0201616Y0025464D02*
X0202959Y0025464D01*
X0202959Y0026463D02*
X0201616Y0026463D01*
X0201616Y0027461D02*
X0202959Y0027461D01*
X0203479Y0028460D02*
X0201096Y0028460D01*
X0199700Y0029458D02*
X0205300Y0029458D01*
X0205300Y0030457D02*
X0199700Y0030457D01*
X0199700Y0031455D02*
X0205300Y0031455D01*
X0205300Y0032454D02*
X0199700Y0032454D01*
X0199700Y0033452D02*
X0205300Y0033452D01*
X0205300Y0034451D02*
X0199700Y0034451D01*
X0199700Y0035449D02*
X0205300Y0035449D01*
X0205300Y0036448D02*
X0199700Y0036448D01*
X0199700Y0037446D02*
X0205300Y0037446D01*
X0205300Y0038445D02*
X0199700Y0038445D01*
X0199700Y0039443D02*
X0205300Y0039443D01*
X0205300Y0040442D02*
X0199700Y0040442D01*
X0199700Y0041440D02*
X0205300Y0041440D01*
X0205300Y0042439D02*
X0199700Y0042439D01*
X0199700Y0043437D02*
X0205300Y0043437D01*
X0205300Y0044436D02*
X0199700Y0044436D01*
X0199700Y0045434D02*
X0205300Y0045434D01*
X0205300Y0046433D02*
X0199700Y0046433D01*
X0199700Y0047432D02*
X0205300Y0047432D01*
X0205300Y0048430D02*
X0199700Y0048430D01*
X0199700Y0049429D02*
X0205300Y0049429D01*
X0205300Y0050427D02*
X0199700Y0050427D01*
X0199554Y0051426D02*
X0205300Y0051426D01*
X0205300Y0052424D02*
X0198556Y0052424D01*
X0197557Y0053423D02*
X0205300Y0053423D01*
X0205300Y0054421D02*
X0196559Y0054421D01*
X0195560Y0055420D02*
X0205300Y0055420D01*
X0205300Y0056418D02*
X0202043Y0056418D01*
X0199047Y0056418D02*
X0198047Y0056418D01*
X0198047Y0057417D02*
X0199047Y0057417D01*
X0199047Y0058415D02*
X0198047Y0058415D01*
X0198047Y0059414D02*
X0199047Y0059414D01*
X0198047Y0060412D02*
X0194300Y0060412D01*
X0194488Y0061055D02*
X0198047Y0061055D01*
X0198047Y0065008D01*
X0195791Y0065008D01*
X0195409Y0064906D01*
X0195067Y0064708D01*
X0194788Y0064429D01*
X0194590Y0064087D01*
X0194488Y0063705D01*
X0194488Y0061055D01*
X0194488Y0061411D02*
X0194300Y0061411D01*
X0194300Y0062409D02*
X0194488Y0062409D01*
X0194488Y0063408D02*
X0194300Y0063408D01*
X0194300Y0064406D02*
X0194775Y0064406D01*
X0198047Y0064406D02*
X0199047Y0064406D01*
X0199047Y0063408D02*
X0198047Y0063408D01*
X0198047Y0062409D02*
X0199047Y0062409D01*
X0199047Y0061411D02*
X0198047Y0061411D01*
X0194488Y0059414D02*
X0194300Y0059414D01*
X0194300Y0058415D02*
X0194488Y0058415D01*
X0194488Y0057417D02*
X0194300Y0057417D01*
X0194562Y0056418D02*
X0195051Y0056418D01*
X0192599Y0054421D02*
X0188300Y0054421D01*
X0188300Y0053423D02*
X0193598Y0053423D01*
X0194596Y0052424D02*
X0188300Y0052424D01*
X0188300Y0051426D02*
X0195595Y0051426D01*
X0196593Y0050427D02*
X0188300Y0050427D01*
X0188300Y0049429D02*
X0196900Y0049429D01*
X0196900Y0048430D02*
X0188300Y0048430D01*
X0188300Y0047432D02*
X0196900Y0047432D01*
X0196900Y0046433D02*
X0188300Y0046433D01*
X0188300Y0045434D02*
X0196900Y0045434D01*
X0196900Y0044436D02*
X0188300Y0044436D01*
X0188300Y0043437D02*
X0196900Y0043437D01*
X0196900Y0042439D02*
X0188300Y0042439D01*
X0188300Y0041440D02*
X0196900Y0041440D01*
X0196900Y0040442D02*
X0188300Y0040442D01*
X0188300Y0039443D02*
X0196900Y0039443D01*
X0196900Y0038445D02*
X0188300Y0038445D01*
X0188300Y0037446D02*
X0196900Y0037446D01*
X0196900Y0036448D02*
X0188300Y0036448D01*
X0188300Y0035449D02*
X0196900Y0035449D01*
X0196900Y0034451D02*
X0188300Y0034451D01*
X0188300Y0033452D02*
X0196900Y0033452D01*
X0196900Y0032454D02*
X0188300Y0032454D01*
X0188300Y0031455D02*
X0196900Y0031455D01*
X0196900Y0030457D02*
X0188300Y0030457D01*
X0188300Y0029458D02*
X0196900Y0029458D01*
X0195211Y0028460D02*
X0189678Y0028460D01*
X0189554Y0028584D02*
X0188300Y0028584D01*
X0188300Y0056502D01*
X0189357Y0056502D01*
X0190002Y0057147D01*
X0190002Y0063964D01*
X0189357Y0064608D01*
X0183328Y0064608D01*
X0182815Y0064095D01*
X0182622Y0064429D01*
X0182342Y0064708D01*
X0182000Y0064906D01*
X0181619Y0065008D01*
X0179362Y0065008D01*
X0179362Y0061055D01*
X0178362Y0061055D01*
X0178362Y0060055D01*
X0174803Y0060055D01*
X0174803Y0057405D01*
X0174905Y0057023D01*
X0175103Y0056681D01*
X0175382Y0056402D01*
X0175724Y0056205D01*
X0176106Y0056102D01*
X0178362Y0056102D01*
X0178362Y0060055D01*
X0179362Y0060055D01*
X0179362Y0056102D01*
X0181619Y0056102D01*
X0182000Y0056205D01*
X0182342Y0056402D01*
X0182622Y0056681D01*
X0182815Y0057016D01*
X0183328Y0056502D01*
X0185500Y0056502D01*
X0185500Y0028584D01*
X0183918Y0028584D01*
X0183274Y0027940D01*
X0183274Y0022304D01*
X0183918Y0021660D01*
X0189554Y0021660D01*
X0190198Y0022304D01*
X0190198Y0027940D01*
X0189554Y0028584D01*
X0190198Y0027461D02*
X0194691Y0027461D01*
X0194691Y0026463D02*
X0190198Y0026463D01*
X0190198Y0025464D02*
X0194691Y0025464D01*
X0194691Y0024466D02*
X0190198Y0024466D01*
X0190198Y0023467D02*
X0194691Y0023467D01*
X0194691Y0022469D02*
X0190198Y0022469D01*
X0183274Y0022469D02*
X0181931Y0022469D01*
X0181931Y0023467D02*
X0183274Y0023467D01*
X0183274Y0024466D02*
X0181931Y0024466D01*
X0181931Y0025464D02*
X0183274Y0025464D01*
X0183274Y0026463D02*
X0181931Y0026463D01*
X0181931Y0027461D02*
X0183274Y0027461D01*
X0183794Y0028460D02*
X0181411Y0028460D01*
X0179900Y0029458D02*
X0185500Y0029458D01*
X0185500Y0030457D02*
X0179900Y0030457D01*
X0179900Y0031455D02*
X0185500Y0031455D01*
X0185500Y0032454D02*
X0179900Y0032454D01*
X0179900Y0033452D02*
X0185500Y0033452D01*
X0185500Y0034451D02*
X0179900Y0034451D01*
X0179900Y0035449D02*
X0185500Y0035449D01*
X0185500Y0036448D02*
X0179900Y0036448D01*
X0179900Y0037446D02*
X0185500Y0037446D01*
X0185500Y0038445D02*
X0179900Y0038445D01*
X0179900Y0039443D02*
X0185500Y0039443D01*
X0185500Y0040442D02*
X0179900Y0040442D01*
X0179900Y0041440D02*
X0185500Y0041440D01*
X0185500Y0042439D02*
X0179900Y0042439D01*
X0179900Y0043437D02*
X0185500Y0043437D01*
X0185500Y0044436D02*
X0179900Y0044436D01*
X0179900Y0045434D02*
X0185500Y0045434D01*
X0185500Y0046433D02*
X0179900Y0046433D01*
X0179900Y0047432D02*
X0185500Y0047432D01*
X0185500Y0048430D02*
X0179900Y0048430D01*
X0179900Y0049429D02*
X0185500Y0049429D01*
X0185500Y0050427D02*
X0179900Y0050427D01*
X0179754Y0051426D02*
X0185500Y0051426D01*
X0185500Y0052424D02*
X0178756Y0052424D01*
X0177757Y0053423D02*
X0185500Y0053423D01*
X0185500Y0054421D02*
X0176759Y0054421D01*
X0175760Y0055420D02*
X0185500Y0055420D01*
X0185500Y0056418D02*
X0182358Y0056418D01*
X0179362Y0056418D02*
X0178362Y0056418D01*
X0178362Y0057417D02*
X0179362Y0057417D01*
X0179362Y0058415D02*
X0178362Y0058415D01*
X0178362Y0059414D02*
X0179362Y0059414D01*
X0178362Y0060412D02*
X0174500Y0060412D01*
X0174803Y0061055D02*
X0178362Y0061055D01*
X0178362Y0065008D01*
X0176106Y0065008D01*
X0175724Y0064906D01*
X0175382Y0064708D01*
X0175103Y0064429D01*
X0174905Y0064087D01*
X0174803Y0063705D01*
X0174803Y0061055D01*
X0174803Y0061411D02*
X0174500Y0061411D01*
X0174500Y0062409D02*
X0174803Y0062409D01*
X0174803Y0063408D02*
X0174500Y0063408D01*
X0174500Y0064406D02*
X0175090Y0064406D01*
X0174500Y0065405D02*
X0191500Y0065405D01*
X0191500Y0066403D02*
X0174500Y0066403D01*
X0174500Y0067402D02*
X0191500Y0067402D01*
X0191500Y0068400D02*
X0174500Y0068400D01*
X0174500Y0069399D02*
X0191500Y0069399D01*
X0191500Y0070397D02*
X0174500Y0070397D01*
X0174500Y0071396D02*
X0191500Y0071396D01*
X0191500Y0072394D02*
X0174500Y0072394D01*
X0174500Y0073393D02*
X0191500Y0073393D01*
X0191500Y0074391D02*
X0174500Y0074391D01*
X0174500Y0075390D02*
X0191500Y0075390D01*
X0191500Y0076388D02*
X0174500Y0076388D01*
X0174500Y0077387D02*
X0191500Y0077387D01*
X0191500Y0078385D02*
X0174500Y0078385D01*
X0174500Y0079384D02*
X0191500Y0079384D01*
X0191500Y0080382D02*
X0174500Y0080382D01*
X0174500Y0081381D02*
X0191500Y0081381D01*
X0191500Y0082379D02*
X0174500Y0082379D01*
X0174500Y0083378D02*
X0191500Y0083378D01*
X0191500Y0084376D02*
X0174500Y0084376D01*
X0174500Y0085375D02*
X0191500Y0085375D01*
X0191500Y0086373D02*
X0174500Y0086373D01*
X0174500Y0087372D02*
X0191500Y0087372D01*
X0191500Y0088370D02*
X0174500Y0088370D01*
X0174500Y0089369D02*
X0191500Y0089369D01*
X0191500Y0090368D02*
X0174500Y0090368D01*
X0174500Y0091366D02*
X0191500Y0091366D01*
X0191500Y0092365D02*
X0174500Y0092365D01*
X0174500Y0093363D02*
X0191500Y0093363D01*
X0191500Y0094362D02*
X0174500Y0094362D01*
X0174500Y0095360D02*
X0191500Y0095360D01*
X0191500Y0096359D02*
X0174500Y0096359D01*
X0174500Y0097357D02*
X0191500Y0097357D01*
X0191500Y0098356D02*
X0174500Y0098356D01*
X0174500Y0099354D02*
X0191500Y0099354D01*
X0191500Y0100353D02*
X0174500Y0100353D01*
X0174500Y0101351D02*
X0191500Y0101351D01*
X0191500Y0102350D02*
X0174500Y0102350D01*
X0174500Y0103348D02*
X0191500Y0103348D01*
X0191500Y0104347D02*
X0174500Y0104347D01*
X0174500Y0105345D02*
X0191500Y0105345D01*
X0191500Y0106344D02*
X0174500Y0106344D01*
X0174500Y0107342D02*
X0191500Y0107342D01*
X0191500Y0108341D02*
X0174500Y0108341D01*
X0174500Y0109339D02*
X0191500Y0109339D01*
X0191500Y0110338D02*
X0174500Y0110338D01*
X0174500Y0111336D02*
X0191500Y0111336D01*
X0191500Y0112335D02*
X0174500Y0112335D01*
X0174500Y0113333D02*
X0191500Y0113333D01*
X0191500Y0114332D02*
X0174500Y0114332D01*
X0174500Y0115330D02*
X0191500Y0115330D01*
X0191500Y0116329D02*
X0174500Y0116329D01*
X0174500Y0117327D02*
X0191500Y0117327D01*
X0191500Y0118326D02*
X0174500Y0118326D01*
X0174500Y0119324D02*
X0191500Y0119324D01*
X0191500Y0120323D02*
X0174500Y0120323D01*
X0174500Y0121321D02*
X0191500Y0121321D01*
X0191500Y0122320D02*
X0174500Y0122320D01*
X0174500Y0123318D02*
X0191500Y0123318D01*
X0191500Y0124317D02*
X0174500Y0124317D01*
X0174500Y0125315D02*
X0191500Y0125315D01*
X0191500Y0126314D02*
X0174500Y0126314D01*
X0174500Y0127312D02*
X0191500Y0127312D01*
X0191500Y0128311D02*
X0174500Y0128311D01*
X0174500Y0129309D02*
X0191500Y0129309D01*
X0191500Y0130308D02*
X0174500Y0130308D01*
X0174500Y0131306D02*
X0191500Y0131306D01*
X0191500Y0132305D02*
X0174500Y0132305D01*
X0174500Y0133303D02*
X0191500Y0133303D01*
X0191500Y0134302D02*
X0174500Y0134302D01*
X0174500Y0135301D02*
X0191500Y0135301D01*
X0191500Y0136299D02*
X0174500Y0136299D01*
X0174500Y0137298D02*
X0191500Y0137298D01*
X0191500Y0138296D02*
X0174500Y0138296D01*
X0174500Y0139295D02*
X0191500Y0139295D01*
X0191500Y0140293D02*
X0174500Y0140293D01*
X0174500Y0141292D02*
X0191500Y0141292D01*
X0191500Y0142290D02*
X0174500Y0142290D01*
X0174500Y0143289D02*
X0191500Y0143289D01*
X0191500Y0144287D02*
X0174500Y0144287D01*
X0174500Y0145286D02*
X0191500Y0145286D01*
X0191500Y0146284D02*
X0174500Y0146284D01*
X0174500Y0147283D02*
X0191500Y0147283D01*
X0191500Y0148281D02*
X0174500Y0148281D01*
X0174500Y0149280D02*
X0191500Y0149280D01*
X0191500Y0150278D02*
X0174500Y0150278D01*
X0174500Y0151277D02*
X0191500Y0151277D01*
X0191500Y0152275D02*
X0174500Y0152275D01*
X0174500Y0153274D02*
X0191500Y0153274D01*
X0191500Y0154272D02*
X0174500Y0154272D01*
X0174500Y0155271D02*
X0191500Y0155271D01*
X0191500Y0156269D02*
X0174500Y0156269D01*
X0174500Y0157268D02*
X0191500Y0157268D01*
X0191500Y0158266D02*
X0174500Y0158266D01*
X0174500Y0159265D02*
X0191500Y0159265D01*
X0191500Y0160263D02*
X0174500Y0160263D01*
X0174500Y0161262D02*
X0191500Y0161262D01*
X0191500Y0162260D02*
X0174500Y0162260D01*
X0174500Y0163259D02*
X0191500Y0163259D01*
X0191500Y0164257D02*
X0174500Y0164257D01*
X0174500Y0165256D02*
X0191500Y0165256D01*
X0191500Y0166254D02*
X0174500Y0166254D01*
X0174500Y0167253D02*
X0191500Y0167253D01*
X0191500Y0168251D02*
X0174500Y0168251D01*
X0175430Y0169250D02*
X0191500Y0169250D01*
X0191500Y0170248D02*
X0176428Y0170248D01*
X0177427Y0171247D02*
X0191500Y0171247D01*
X0191500Y0172245D02*
X0178425Y0172245D01*
X0179424Y0173244D02*
X0191500Y0173244D01*
X0191500Y0174242D02*
X0180422Y0174242D01*
X0181421Y0175241D02*
X0191500Y0175241D01*
X0191500Y0176239D02*
X0182419Y0176239D01*
X0183418Y0177238D02*
X0191500Y0177238D01*
X0191500Y0178237D02*
X0184416Y0178237D01*
X0185415Y0179235D02*
X0191500Y0179235D01*
X0191500Y0180234D02*
X0186413Y0180234D01*
X0187412Y0181232D02*
X0191500Y0181232D01*
X0191500Y0182231D02*
X0188410Y0182231D01*
X0189409Y0183229D02*
X0191500Y0183229D01*
X0191500Y0184228D02*
X0190407Y0184228D01*
X0191406Y0185226D02*
X0191500Y0185226D01*
X0189443Y0187223D02*
X0185900Y0187223D01*
X0185900Y0186225D02*
X0188445Y0186225D01*
X0187446Y0185226D02*
X0185900Y0185226D01*
X0185900Y0184228D02*
X0186448Y0184228D01*
X0183100Y0184228D02*
X0175700Y0184228D01*
X0175700Y0185226D02*
X0183100Y0185226D01*
X0183100Y0186225D02*
X0175700Y0186225D01*
X0175700Y0187223D02*
X0183100Y0187223D01*
X0183100Y0188222D02*
X0175700Y0188222D01*
X0175700Y0189220D02*
X0183100Y0189220D01*
X0183100Y0190219D02*
X0175700Y0190219D01*
X0175700Y0191217D02*
X0183100Y0191217D01*
X0183100Y0192216D02*
X0175700Y0192216D01*
X0175700Y0193214D02*
X0183100Y0193214D01*
X0183100Y0194213D02*
X0175700Y0194213D01*
X0175700Y0195211D02*
X0183100Y0195211D01*
X0183100Y0196210D02*
X0175700Y0196210D01*
X0175700Y0197208D02*
X0183100Y0197208D01*
X0183100Y0198207D02*
X0175700Y0198207D01*
X0176263Y0199205D02*
X0182642Y0199205D01*
X0181644Y0200204D02*
X0177262Y0200204D01*
X0178260Y0201202D02*
X0180645Y0201202D01*
X0180353Y0202201D02*
X0178553Y0202201D01*
X0178553Y0203199D02*
X0180353Y0203199D01*
X0180353Y0204198D02*
X0178553Y0204198D01*
X0178248Y0205196D02*
X0180658Y0205196D01*
X0181656Y0206195D02*
X0177249Y0206195D01*
X0176251Y0207193D02*
X0182655Y0207193D01*
X0182754Y0209093D02*
X0186151Y0209093D01*
X0188553Y0211495D01*
X0188553Y0214891D01*
X0186151Y0217293D01*
X0182754Y0217293D01*
X0180353Y0214891D01*
X0180353Y0211495D01*
X0182754Y0209093D01*
X0182657Y0209190D02*
X0176814Y0209190D01*
X0176317Y0208693D02*
X0178953Y0211329D01*
X0178953Y0212693D01*
X0174953Y0212693D01*
X0174953Y0213693D01*
X0178953Y0213693D01*
X0178953Y0215057D01*
X0176317Y0217693D01*
X0174953Y0217693D01*
X0174953Y0213693D01*
X0173953Y0213693D01*
X0173953Y0217693D01*
X0172589Y0217693D01*
X0169953Y0215057D01*
X0169953Y0213693D01*
X0173953Y0213693D01*
X0173953Y0212693D01*
X0174953Y0212693D01*
X0174953Y0208693D01*
X0176317Y0208693D01*
X0174953Y0209190D02*
X0173953Y0209190D01*
X0173953Y0208693D02*
X0173953Y0212693D01*
X0169953Y0212693D01*
X0169953Y0211329D01*
X0172589Y0208693D01*
X0173953Y0208693D01*
X0173953Y0210189D02*
X0174953Y0210189D01*
X0174953Y0211187D02*
X0173953Y0211187D01*
X0173953Y0212186D02*
X0174953Y0212186D01*
X0174953Y0213184D02*
X0180353Y0213184D01*
X0180353Y0212186D02*
X0178953Y0212186D01*
X0178811Y0211187D02*
X0180660Y0211187D01*
X0181659Y0210189D02*
X0177813Y0210189D01*
X0178953Y0214183D02*
X0180353Y0214183D01*
X0180643Y0215181D02*
X0178828Y0215181D01*
X0177830Y0216180D02*
X0181642Y0216180D01*
X0182640Y0217178D02*
X0176831Y0217178D01*
X0174953Y0217178D02*
X0173953Y0217178D01*
X0173953Y0216180D02*
X0174953Y0216180D01*
X0174953Y0215181D02*
X0173953Y0215181D01*
X0173953Y0214183D02*
X0174953Y0214183D01*
X0173953Y0213184D02*
X0168553Y0213184D01*
X0168553Y0212186D02*
X0169953Y0212186D01*
X0170094Y0211187D02*
X0168245Y0211187D01*
X0168553Y0211495D02*
X0166151Y0209093D01*
X0162754Y0209093D01*
X0160353Y0211495D01*
X0160353Y0214891D01*
X0162754Y0217293D01*
X0166151Y0217293D01*
X0168553Y0214891D01*
X0168553Y0211495D01*
X0167247Y0210189D02*
X0171093Y0210189D01*
X0172091Y0209190D02*
X0166248Y0209190D01*
X0166151Y0207293D02*
X0162754Y0207293D01*
X0160353Y0204891D01*
X0160353Y0201495D01*
X0162754Y0199093D01*
X0166151Y0199093D01*
X0168553Y0201495D01*
X0168553Y0204891D01*
X0166151Y0207293D01*
X0166251Y0207193D02*
X0172655Y0207193D01*
X0171656Y0206195D02*
X0167249Y0206195D01*
X0168248Y0205196D02*
X0170658Y0205196D01*
X0170353Y0204198D02*
X0168553Y0204198D01*
X0168553Y0203199D02*
X0170353Y0203199D01*
X0170353Y0202201D02*
X0168553Y0202201D01*
X0168260Y0201202D02*
X0170645Y0201202D01*
X0171644Y0200204D02*
X0167262Y0200204D01*
X0166263Y0199205D02*
X0172642Y0199205D01*
X0172900Y0198207D02*
X0121773Y0198207D01*
X0122754Y0199093D02*
X0126151Y0199093D01*
X0128553Y0201495D01*
X0128553Y0204891D01*
X0126151Y0207293D01*
X0122754Y0207293D01*
X0120353Y0204891D01*
X0120353Y0201495D01*
X0122754Y0199093D01*
X0122642Y0199205D02*
X0120775Y0199205D01*
X0121644Y0200204D02*
X0119776Y0200204D01*
X0120645Y0201202D02*
X0118778Y0201202D01*
X0118553Y0202201D02*
X0120353Y0202201D01*
X0120353Y0203199D02*
X0118553Y0203199D01*
X0118553Y0204198D02*
X0120353Y0204198D01*
X0120658Y0205196D02*
X0118248Y0205196D01*
X0117249Y0206195D02*
X0121656Y0206195D01*
X0122655Y0207193D02*
X0116251Y0207193D01*
X0116248Y0209190D02*
X0122091Y0209190D01*
X0122589Y0208693D02*
X0123953Y0208693D01*
X0123953Y0212693D01*
X0124953Y0212693D01*
X0124953Y0213693D01*
X0128953Y0213693D01*
X0128953Y0215057D01*
X0126317Y0217693D01*
X0124953Y0217693D01*
X0124953Y0213693D01*
X0123953Y0213693D01*
X0123953Y0217693D01*
X0122589Y0217693D01*
X0119953Y0215057D01*
X0119953Y0213693D01*
X0123953Y0213693D01*
X0123953Y0212693D01*
X0119953Y0212693D01*
X0119953Y0211329D01*
X0122589Y0208693D01*
X0123953Y0209190D02*
X0124953Y0209190D01*
X0124953Y0208693D02*
X0126317Y0208693D01*
X0128953Y0211329D01*
X0128953Y0212693D01*
X0124953Y0212693D01*
X0124953Y0208693D01*
X0124953Y0210189D02*
X0123953Y0210189D01*
X0123953Y0211187D02*
X0124953Y0211187D01*
X0124953Y0212186D02*
X0123953Y0212186D01*
X0123953Y0213184D02*
X0118553Y0213184D01*
X0118553Y0212186D02*
X0119953Y0212186D01*
X0120094Y0211187D02*
X0118245Y0211187D01*
X0117247Y0210189D02*
X0121093Y0210189D01*
X0119953Y0214183D02*
X0118553Y0214183D01*
X0118262Y0215181D02*
X0120077Y0215181D01*
X0121076Y0216180D02*
X0117264Y0216180D01*
X0116265Y0217178D02*
X0122074Y0217178D01*
X0123953Y0217178D02*
X0124953Y0217178D01*
X0124953Y0216180D02*
X0123953Y0216180D01*
X0123953Y0215181D02*
X0124953Y0215181D01*
X0124953Y0214183D02*
X0123953Y0214183D01*
X0124953Y0213184D02*
X0130353Y0213184D01*
X0130353Y0212186D02*
X0128953Y0212186D01*
X0128811Y0211187D02*
X0130660Y0211187D01*
X0130353Y0211495D02*
X0132754Y0209093D01*
X0136151Y0209093D01*
X0138553Y0211495D01*
X0138553Y0214891D01*
X0136151Y0217293D01*
X0132754Y0217293D01*
X0130353Y0214891D01*
X0130353Y0211495D01*
X0131659Y0210189D02*
X0127813Y0210189D01*
X0126814Y0209190D02*
X0132657Y0209190D01*
X0132754Y0207293D02*
X0130353Y0204891D01*
X0130353Y0201495D01*
X0132754Y0199093D01*
X0136151Y0199093D01*
X0138553Y0201495D01*
X0138553Y0204891D01*
X0136151Y0207293D01*
X0132754Y0207293D01*
X0132655Y0207193D02*
X0126251Y0207193D01*
X0127249Y0206195D02*
X0131656Y0206195D01*
X0130658Y0205196D02*
X0128248Y0205196D01*
X0128553Y0204198D02*
X0130353Y0204198D01*
X0130353Y0203199D02*
X0128553Y0203199D01*
X0128553Y0202201D02*
X0130353Y0202201D01*
X0130645Y0201202D02*
X0128260Y0201202D01*
X0127262Y0200204D02*
X0131644Y0200204D01*
X0132642Y0199205D02*
X0126263Y0199205D01*
X0122772Y0197208D02*
X0172900Y0197208D01*
X0172900Y0196210D02*
X0123770Y0196210D01*
X0124769Y0195211D02*
X0172900Y0195211D01*
X0172900Y0194213D02*
X0125767Y0194213D01*
X0126766Y0193214D02*
X0172900Y0193214D01*
X0172900Y0192216D02*
X0127764Y0192216D01*
X0128763Y0191217D02*
X0172900Y0191217D01*
X0172900Y0190219D02*
X0129761Y0190219D01*
X0130760Y0189220D02*
X0172900Y0189220D01*
X0172900Y0188222D02*
X0131758Y0188222D01*
X0132757Y0187223D02*
X0172900Y0187223D01*
X0172900Y0186225D02*
X0133755Y0186225D01*
X0134754Y0185226D02*
X0172900Y0185226D01*
X0172900Y0184228D02*
X0135752Y0184228D01*
X0136751Y0183229D02*
X0172900Y0183229D01*
X0172900Y0182231D02*
X0137300Y0182231D01*
X0137300Y0181232D02*
X0172900Y0181232D01*
X0172900Y0180234D02*
X0137300Y0180234D01*
X0137300Y0179235D02*
X0172900Y0179235D01*
X0172900Y0178237D02*
X0137300Y0178237D01*
X0137300Y0177238D02*
X0172900Y0177238D01*
X0172900Y0176239D02*
X0137300Y0176239D01*
X0137300Y0175241D02*
X0172900Y0175241D01*
X0172863Y0174242D02*
X0137300Y0174242D01*
X0137300Y0173244D02*
X0171864Y0173244D01*
X0170866Y0172245D02*
X0137300Y0172245D01*
X0137300Y0171247D02*
X0169867Y0171247D01*
X0168869Y0170248D02*
X0137300Y0170248D01*
X0137300Y0169250D02*
X0167870Y0169250D01*
X0166872Y0168251D02*
X0137300Y0168251D01*
X0137300Y0167253D02*
X0165873Y0167253D01*
X0164874Y0166254D02*
X0137300Y0166254D01*
X0137300Y0165256D02*
X0163876Y0165256D01*
X0162877Y0164257D02*
X0137300Y0164257D01*
X0137300Y0163259D02*
X0161879Y0163259D01*
X0160880Y0162260D02*
X0137300Y0162260D01*
X0137300Y0161262D02*
X0159882Y0161262D01*
X0158883Y0160263D02*
X0137300Y0160263D01*
X0137300Y0159265D02*
X0157885Y0159265D01*
X0156886Y0158266D02*
X0137300Y0158266D01*
X0137300Y0157268D02*
X0155888Y0157268D01*
X0154889Y0156269D02*
X0137300Y0156269D01*
X0137300Y0155271D02*
X0153891Y0155271D01*
X0152892Y0154272D02*
X0137300Y0154272D01*
X0137300Y0153274D02*
X0151894Y0153274D01*
X0150895Y0152275D02*
X0137300Y0152275D01*
X0137300Y0151277D02*
X0149897Y0151277D01*
X0148898Y0150278D02*
X0137300Y0150278D01*
X0137300Y0149280D02*
X0147900Y0149280D01*
X0146901Y0148281D02*
X0137300Y0148281D01*
X0137300Y0147283D02*
X0145903Y0147283D01*
X0144904Y0146284D02*
X0137300Y0146284D01*
X0137300Y0145286D02*
X0143906Y0145286D01*
X0142907Y0144287D02*
X0137300Y0144287D01*
X0137300Y0143289D02*
X0141909Y0143289D01*
X0140910Y0142290D02*
X0137300Y0142290D01*
X0137300Y0141292D02*
X0139912Y0141292D01*
X0138913Y0140293D02*
X0137300Y0140293D01*
X0137300Y0139295D02*
X0137915Y0139295D01*
X0139877Y0137298D02*
X0151900Y0137298D01*
X0151900Y0138296D02*
X0140876Y0138296D01*
X0141874Y0139295D02*
X0151900Y0139295D01*
X0151900Y0140293D02*
X0142873Y0140293D01*
X0143871Y0141292D02*
X0151900Y0141292D01*
X0151900Y0142290D02*
X0144870Y0142290D01*
X0145868Y0143289D02*
X0151900Y0143289D01*
X0151900Y0144287D02*
X0146867Y0144287D01*
X0147866Y0145286D02*
X0151900Y0145286D01*
X0151900Y0146284D02*
X0148864Y0146284D01*
X0149863Y0147283D02*
X0151900Y0147283D01*
X0151900Y0148281D02*
X0150861Y0148281D01*
X0151860Y0149280D02*
X0151900Y0149280D01*
X0154700Y0149280D02*
X0171700Y0149280D01*
X0171700Y0150278D02*
X0154700Y0150278D01*
X0155657Y0151277D02*
X0171700Y0151277D01*
X0171700Y0152275D02*
X0156655Y0152275D01*
X0157654Y0153274D02*
X0171700Y0153274D01*
X0171700Y0154272D02*
X0158652Y0154272D01*
X0159651Y0155271D02*
X0171700Y0155271D01*
X0171700Y0156269D02*
X0160649Y0156269D01*
X0161648Y0157268D02*
X0171700Y0157268D01*
X0171700Y0158266D02*
X0162646Y0158266D01*
X0163645Y0159265D02*
X0171700Y0159265D01*
X0171700Y0160263D02*
X0164643Y0160263D01*
X0165642Y0161262D02*
X0171700Y0161262D01*
X0171700Y0162260D02*
X0166640Y0162260D01*
X0167639Y0163259D02*
X0171700Y0163259D01*
X0171700Y0164257D02*
X0168637Y0164257D01*
X0169636Y0165256D02*
X0171700Y0165256D01*
X0171700Y0166254D02*
X0170634Y0166254D01*
X0171633Y0167253D02*
X0171700Y0167253D01*
X0175700Y0176239D02*
X0176660Y0176239D01*
X0175700Y0177238D02*
X0177658Y0177238D01*
X0178657Y0178237D02*
X0175700Y0178237D01*
X0175700Y0179235D02*
X0179655Y0179235D01*
X0180654Y0180234D02*
X0175700Y0180234D01*
X0175700Y0181232D02*
X0181652Y0181232D01*
X0182651Y0182231D02*
X0175700Y0182231D01*
X0175700Y0183229D02*
X0183100Y0183229D01*
X0185900Y0188222D02*
X0190442Y0188222D01*
X0191440Y0189220D02*
X0185900Y0189220D01*
X0185900Y0190219D02*
X0192439Y0190219D01*
X0193300Y0191217D02*
X0185900Y0191217D01*
X0185900Y0192216D02*
X0193300Y0192216D01*
X0193300Y0193214D02*
X0185900Y0193214D01*
X0185900Y0194213D02*
X0193300Y0194213D01*
X0193300Y0195211D02*
X0185900Y0195211D01*
X0185900Y0196210D02*
X0193300Y0196210D01*
X0193300Y0197208D02*
X0185900Y0197208D01*
X0185900Y0198207D02*
X0193300Y0198207D01*
X0192642Y0199205D02*
X0186263Y0199205D01*
X0187262Y0200204D02*
X0191644Y0200204D01*
X0190645Y0201202D02*
X0188260Y0201202D01*
X0188553Y0202201D02*
X0190353Y0202201D01*
X0190353Y0203199D02*
X0188553Y0203199D01*
X0188553Y0204198D02*
X0190353Y0204198D01*
X0190658Y0205196D02*
X0188248Y0205196D01*
X0187249Y0206195D02*
X0191656Y0206195D01*
X0192655Y0207193D02*
X0186251Y0207193D01*
X0186248Y0209190D02*
X0192091Y0209190D01*
X0192589Y0208693D02*
X0193953Y0208693D01*
X0193953Y0212693D01*
X0194953Y0212693D01*
X0194953Y0213693D01*
X0198953Y0213693D01*
X0198953Y0215057D01*
X0196317Y0217693D01*
X0194953Y0217693D01*
X0194953Y0213693D01*
X0193953Y0213693D01*
X0193953Y0217693D01*
X0192589Y0217693D01*
X0189953Y0215057D01*
X0189953Y0213693D01*
X0193953Y0213693D01*
X0193953Y0212693D01*
X0189953Y0212693D01*
X0189953Y0211329D01*
X0192589Y0208693D01*
X0193953Y0209190D02*
X0194953Y0209190D01*
X0194953Y0208693D02*
X0196317Y0208693D01*
X0198953Y0211329D01*
X0198953Y0212693D01*
X0194953Y0212693D01*
X0194953Y0208693D01*
X0194953Y0210189D02*
X0193953Y0210189D01*
X0193953Y0211187D02*
X0194953Y0211187D01*
X0194953Y0212186D02*
X0193953Y0212186D01*
X0193953Y0213184D02*
X0188553Y0213184D01*
X0188553Y0212186D02*
X0189953Y0212186D01*
X0190094Y0211187D02*
X0188245Y0211187D01*
X0187247Y0210189D02*
X0191093Y0210189D01*
X0189953Y0214183D02*
X0188553Y0214183D01*
X0188262Y0215181D02*
X0190077Y0215181D01*
X0191076Y0216180D02*
X0187264Y0216180D01*
X0186265Y0217178D02*
X0192074Y0217178D01*
X0193953Y0217178D02*
X0194953Y0217178D01*
X0194953Y0216180D02*
X0193953Y0216180D01*
X0193953Y0215181D02*
X0194953Y0215181D01*
X0194953Y0214183D02*
X0193953Y0214183D01*
X0194953Y0213184D02*
X0200353Y0213184D01*
X0200353Y0212186D02*
X0198953Y0212186D01*
X0198811Y0211187D02*
X0200660Y0211187D01*
X0201659Y0210189D02*
X0197813Y0210189D01*
X0196814Y0209190D02*
X0202657Y0209190D01*
X0202655Y0207193D02*
X0196251Y0207193D01*
X0197249Y0206195D02*
X0201656Y0206195D01*
X0200658Y0205196D02*
X0198248Y0205196D01*
X0198553Y0204198D02*
X0200353Y0204198D01*
X0200353Y0203199D02*
X0198553Y0203199D01*
X0198553Y0202201D02*
X0200353Y0202201D01*
X0200645Y0201202D02*
X0198260Y0201202D01*
X0197262Y0200204D02*
X0201644Y0200204D01*
X0202642Y0199205D02*
X0196263Y0199205D01*
X0196100Y0198207D02*
X0202227Y0198207D01*
X0201228Y0197208D02*
X0196100Y0197208D01*
X0196100Y0196210D02*
X0200230Y0196210D01*
X0199231Y0195211D02*
X0196100Y0195211D01*
X0196100Y0194213D02*
X0198233Y0194213D01*
X0197234Y0193214D02*
X0196100Y0193214D01*
X0196100Y0192216D02*
X0196236Y0192216D01*
X0198953Y0214183D02*
X0200353Y0214183D01*
X0200643Y0215181D02*
X0198828Y0215181D01*
X0197830Y0216180D02*
X0201642Y0216180D01*
X0202640Y0217178D02*
X0196831Y0217178D01*
X0172074Y0217178D02*
X0166265Y0217178D01*
X0167264Y0216180D02*
X0171076Y0216180D01*
X0170077Y0215181D02*
X0168263Y0215181D01*
X0168553Y0214183D02*
X0169953Y0214183D01*
X0162640Y0217178D02*
X0156265Y0217178D01*
X0156151Y0217293D02*
X0152754Y0217293D01*
X0150353Y0214891D01*
X0150353Y0211495D01*
X0152754Y0209093D01*
X0156151Y0209093D01*
X0158553Y0211495D01*
X0158553Y0214891D01*
X0156151Y0217293D01*
X0157264Y0216180D02*
X0161642Y0216180D01*
X0160643Y0215181D02*
X0158263Y0215181D01*
X0158553Y0214183D02*
X0160353Y0214183D01*
X0160353Y0213184D02*
X0158553Y0213184D01*
X0158553Y0212186D02*
X0160353Y0212186D01*
X0160660Y0211187D02*
X0158245Y0211187D01*
X0157247Y0210189D02*
X0161659Y0210189D01*
X0162657Y0209190D02*
X0156248Y0209190D01*
X0156317Y0207693D02*
X0154953Y0207693D01*
X0154953Y0203693D01*
X0158953Y0203693D01*
X0158953Y0205057D01*
X0156317Y0207693D01*
X0156816Y0207193D02*
X0162655Y0207193D01*
X0161656Y0206195D02*
X0157815Y0206195D01*
X0158813Y0205196D02*
X0160658Y0205196D01*
X0160353Y0204198D02*
X0158953Y0204198D01*
X0158953Y0202693D02*
X0154953Y0202693D01*
X0154953Y0203693D01*
X0153953Y0203693D01*
X0153953Y0207693D01*
X0152589Y0207693D01*
X0149953Y0205057D01*
X0149953Y0203693D01*
X0153953Y0203693D01*
X0153953Y0202693D01*
X0154953Y0202693D01*
X0154953Y0198693D01*
X0156317Y0198693D01*
X0158953Y0201329D01*
X0158953Y0202693D01*
X0158953Y0202201D02*
X0160353Y0202201D01*
X0160353Y0203199D02*
X0154953Y0203199D01*
X0154953Y0202201D02*
X0153953Y0202201D01*
X0153953Y0202693D02*
X0153953Y0198693D01*
X0152589Y0198693D01*
X0149953Y0201329D01*
X0149953Y0202693D01*
X0153953Y0202693D01*
X0153953Y0203199D02*
X0148553Y0203199D01*
X0148553Y0202201D02*
X0149953Y0202201D01*
X0150079Y0201202D02*
X0148260Y0201202D01*
X0148553Y0201495D02*
X0146151Y0199093D01*
X0142754Y0199093D01*
X0140353Y0201495D01*
X0140353Y0204891D01*
X0142754Y0207293D01*
X0146151Y0207293D01*
X0148553Y0204891D01*
X0148553Y0201495D01*
X0147262Y0200204D02*
X0151078Y0200204D01*
X0152076Y0199205D02*
X0146263Y0199205D01*
X0142642Y0199205D02*
X0136263Y0199205D01*
X0137262Y0200204D02*
X0141644Y0200204D01*
X0140645Y0201202D02*
X0138260Y0201202D01*
X0138553Y0202201D02*
X0140353Y0202201D01*
X0140353Y0203199D02*
X0138553Y0203199D01*
X0138553Y0204198D02*
X0140353Y0204198D01*
X0140658Y0205196D02*
X0138248Y0205196D01*
X0137249Y0206195D02*
X0141656Y0206195D01*
X0142655Y0207193D02*
X0136251Y0207193D01*
X0136248Y0209190D02*
X0142657Y0209190D01*
X0142754Y0209093D02*
X0146151Y0209093D01*
X0148553Y0211495D01*
X0148553Y0214891D01*
X0146151Y0217293D01*
X0142754Y0217293D01*
X0140353Y0214891D01*
X0140353Y0211495D01*
X0142754Y0209093D01*
X0141659Y0210189D02*
X0137247Y0210189D01*
X0138245Y0211187D02*
X0140660Y0211187D01*
X0140353Y0212186D02*
X0138553Y0212186D01*
X0138553Y0213184D02*
X0140353Y0213184D01*
X0140353Y0214183D02*
X0138553Y0214183D01*
X0138263Y0215181D02*
X0140643Y0215181D01*
X0141642Y0216180D02*
X0137264Y0216180D01*
X0136265Y0217178D02*
X0142640Y0217178D01*
X0146265Y0217178D02*
X0152640Y0217178D01*
X0151642Y0216180D02*
X0147264Y0216180D01*
X0148263Y0215181D02*
X0150643Y0215181D01*
X0150353Y0214183D02*
X0148553Y0214183D01*
X0148553Y0213184D02*
X0150353Y0213184D01*
X0150353Y0212186D02*
X0148553Y0212186D01*
X0148245Y0211187D02*
X0150660Y0211187D01*
X0151659Y0210189D02*
X0147247Y0210189D01*
X0146248Y0209190D02*
X0152657Y0209190D01*
X0152089Y0207193D02*
X0146251Y0207193D01*
X0147249Y0206195D02*
X0151091Y0206195D01*
X0150092Y0205196D02*
X0148248Y0205196D01*
X0148553Y0204198D02*
X0149953Y0204198D01*
X0153953Y0204198D02*
X0154953Y0204198D01*
X0154953Y0205196D02*
X0153953Y0205196D01*
X0153953Y0206195D02*
X0154953Y0206195D01*
X0154953Y0207193D02*
X0153953Y0207193D01*
X0153953Y0201202D02*
X0154953Y0201202D01*
X0154953Y0200204D02*
X0153953Y0200204D01*
X0153953Y0199205D02*
X0154953Y0199205D01*
X0156829Y0199205D02*
X0162642Y0199205D01*
X0161644Y0200204D02*
X0157828Y0200204D01*
X0158826Y0201202D02*
X0160645Y0201202D01*
X0132640Y0217178D02*
X0126831Y0217178D01*
X0127830Y0216180D02*
X0131642Y0216180D01*
X0130643Y0215181D02*
X0128828Y0215181D01*
X0128953Y0214183D02*
X0130353Y0214183D01*
X0116815Y0199205D02*
X0116263Y0199205D01*
X0117813Y0198207D02*
X0113373Y0198207D01*
X0112642Y0199205D02*
X0112375Y0199205D01*
X0111644Y0200204D02*
X0111376Y0200204D01*
X0110645Y0201202D02*
X0110378Y0201202D01*
X0110353Y0202201D02*
X0110300Y0202201D01*
X0110300Y0203199D02*
X0110353Y0203199D01*
X0110353Y0204198D02*
X0110300Y0204198D01*
X0107500Y0200204D02*
X0107262Y0200204D01*
X0106263Y0199205D02*
X0108415Y0199205D01*
X0114372Y0197208D02*
X0118812Y0197208D01*
X0119810Y0196210D02*
X0115370Y0196210D01*
X0116369Y0195211D02*
X0120809Y0195211D01*
X0121807Y0194213D02*
X0117367Y0194213D01*
X0118366Y0193214D02*
X0122806Y0193214D01*
X0123804Y0192216D02*
X0119364Y0192216D01*
X0120363Y0191217D02*
X0124803Y0191217D01*
X0125801Y0190219D02*
X0121361Y0190219D01*
X0122360Y0189220D02*
X0126800Y0189220D01*
X0127798Y0188222D02*
X0123358Y0188222D01*
X0124357Y0187223D02*
X0128797Y0187223D01*
X0129796Y0186225D02*
X0125355Y0186225D01*
X0123431Y0181232D02*
X0091970Y0181232D01*
X0091970Y0180234D02*
X0123431Y0180234D01*
X0123431Y0179235D02*
X0091970Y0179235D01*
X0091970Y0178237D02*
X0123431Y0178237D01*
X0123431Y0177238D02*
X0091970Y0177238D01*
X0091970Y0176239D02*
X0123431Y0176239D01*
X0123644Y0175241D02*
X0069739Y0175241D01*
X0070737Y0174242D02*
X0123201Y0174242D01*
X0123031Y0173244D02*
X0091970Y0173244D01*
X0091970Y0172245D02*
X0123031Y0172245D01*
X0123031Y0170248D02*
X0091970Y0170248D01*
X0091970Y0169250D02*
X0123031Y0169250D01*
X0123031Y0168251D02*
X0091970Y0168251D01*
X0091400Y0167253D02*
X0123586Y0167253D01*
X0126984Y0167253D02*
X0127984Y0167253D01*
X0127984Y0168251D02*
X0126984Y0168251D01*
X0126984Y0169250D02*
X0127984Y0169250D01*
X0127984Y0170248D02*
X0126984Y0170248D01*
X0126984Y0171247D02*
X0091970Y0171247D01*
X0091400Y0166254D02*
X0130674Y0166254D01*
X0131382Y0167253D02*
X0131673Y0167253D01*
X0131937Y0168251D02*
X0132100Y0168251D01*
X0132100Y0169250D02*
X0131937Y0169250D01*
X0131937Y0170248D02*
X0132100Y0170248D01*
X0132100Y0171247D02*
X0127984Y0171247D01*
X0131937Y0172245D02*
X0132100Y0172245D01*
X0132100Y0173244D02*
X0131937Y0173244D01*
X0132100Y0174242D02*
X0131768Y0174242D01*
X0131779Y0175241D02*
X0131324Y0175241D01*
X0129676Y0165256D02*
X0091109Y0165256D01*
X0090110Y0164257D02*
X0128677Y0164257D01*
X0127679Y0163259D02*
X0090721Y0163259D01*
X0091720Y0162260D02*
X0126680Y0162260D01*
X0126100Y0161262D02*
X0092718Y0161262D01*
X0093717Y0160263D02*
X0126100Y0160263D01*
X0126100Y0159265D02*
X0094715Y0159265D01*
X0095714Y0158266D02*
X0126100Y0158266D01*
X0126100Y0157268D02*
X0096712Y0157268D01*
X0097711Y0156269D02*
X0126100Y0156269D01*
X0126100Y0155271D02*
X0098709Y0155271D01*
X0099708Y0154272D02*
X0126100Y0154272D01*
X0126100Y0153274D02*
X0100706Y0153274D01*
X0101705Y0152275D02*
X0126100Y0152275D01*
X0126100Y0151277D02*
X0102703Y0151277D01*
X0103702Y0150278D02*
X0124116Y0150278D01*
X0124022Y0149280D02*
X0104700Y0149280D01*
X0105699Y0148281D02*
X0124022Y0148281D01*
X0124022Y0147283D02*
X0106697Y0147283D01*
X0107696Y0146284D02*
X0124022Y0146284D01*
X0124022Y0145286D02*
X0108694Y0145286D01*
X0108500Y0145480D02*
X0108500Y0145480D01*
X0109693Y0144287D02*
X0124283Y0144287D01*
X0124396Y0142290D02*
X0111690Y0142290D01*
X0112688Y0141292D02*
X0124022Y0141292D01*
X0124022Y0137298D02*
X0101477Y0137298D01*
X0102476Y0138296D02*
X0111724Y0138296D01*
X0110726Y0139295D02*
X0103474Y0139295D01*
X0104473Y0140293D02*
X0109727Y0140293D01*
X0108729Y0141292D02*
X0105471Y0141292D01*
X0106470Y0142290D02*
X0107730Y0142290D01*
X0110691Y0143289D02*
X0133300Y0143289D01*
X0133300Y0144287D02*
X0130685Y0144287D01*
X0130946Y0145286D02*
X0133300Y0145286D01*
X0133300Y0146284D02*
X0130946Y0146284D01*
X0130946Y0147283D02*
X0133300Y0147283D01*
X0133300Y0148281D02*
X0130946Y0148281D01*
X0130946Y0149280D02*
X0133300Y0149280D01*
X0133300Y0150278D02*
X0130852Y0150278D01*
X0128900Y0151277D02*
X0133300Y0151277D01*
X0133300Y0152275D02*
X0128900Y0152275D01*
X0128900Y0153274D02*
X0133300Y0153274D01*
X0133300Y0154272D02*
X0128900Y0154272D01*
X0128900Y0155271D02*
X0133300Y0155271D01*
X0133300Y0156269D02*
X0128900Y0156269D01*
X0128900Y0157268D02*
X0133300Y0157268D01*
X0133300Y0158266D02*
X0128900Y0158266D01*
X0128900Y0159265D02*
X0133300Y0159265D01*
X0133300Y0160263D02*
X0128900Y0160263D01*
X0129642Y0161262D02*
X0133300Y0161262D01*
X0133300Y0162260D02*
X0130640Y0162260D01*
X0131639Y0163259D02*
X0133300Y0163259D01*
X0133300Y0164257D02*
X0132637Y0164257D01*
X0154700Y0148281D02*
X0171700Y0148281D01*
X0171700Y0147283D02*
X0154700Y0147283D01*
X0154700Y0146284D02*
X0171700Y0146284D01*
X0171700Y0145286D02*
X0154700Y0145286D01*
X0154700Y0144287D02*
X0171700Y0144287D01*
X0171700Y0143289D02*
X0154700Y0143289D01*
X0154700Y0142290D02*
X0171700Y0142290D01*
X0171700Y0141292D02*
X0154700Y0141292D01*
X0154700Y0140293D02*
X0171700Y0140293D01*
X0171700Y0139295D02*
X0154700Y0139295D01*
X0154700Y0138296D02*
X0171700Y0138296D01*
X0171700Y0137298D02*
X0154700Y0137298D01*
X0154700Y0136299D02*
X0171700Y0136299D01*
X0171700Y0135301D02*
X0154700Y0135301D01*
X0154700Y0134302D02*
X0171700Y0134302D01*
X0171700Y0133303D02*
X0154700Y0133303D01*
X0154700Y0132305D02*
X0171700Y0132305D01*
X0171700Y0131306D02*
X0154700Y0131306D01*
X0154700Y0130308D02*
X0171700Y0130308D01*
X0171700Y0129309D02*
X0154700Y0129309D01*
X0154700Y0128311D02*
X0171700Y0128311D01*
X0171700Y0127312D02*
X0154700Y0127312D01*
X0154700Y0126314D02*
X0171700Y0126314D01*
X0171700Y0125315D02*
X0154700Y0125315D01*
X0154700Y0124317D02*
X0171700Y0124317D01*
X0171700Y0123318D02*
X0154700Y0123318D01*
X0154700Y0122320D02*
X0171700Y0122320D01*
X0171700Y0121321D02*
X0154700Y0121321D01*
X0154700Y0120323D02*
X0171700Y0120323D01*
X0171700Y0119324D02*
X0154700Y0119324D01*
X0154700Y0118326D02*
X0171700Y0118326D01*
X0171700Y0117327D02*
X0154700Y0117327D01*
X0154700Y0116329D02*
X0171700Y0116329D01*
X0171700Y0115330D02*
X0154700Y0115330D01*
X0154700Y0114332D02*
X0171700Y0114332D01*
X0171700Y0113333D02*
X0154700Y0113333D01*
X0154700Y0112335D02*
X0171700Y0112335D01*
X0171700Y0111336D02*
X0154700Y0111336D01*
X0154700Y0110338D02*
X0171700Y0110338D01*
X0171700Y0109339D02*
X0154700Y0109339D01*
X0154700Y0108341D02*
X0171700Y0108341D01*
X0171700Y0107342D02*
X0154700Y0107342D01*
X0154700Y0106344D02*
X0171700Y0106344D01*
X0171700Y0105345D02*
X0154700Y0105345D01*
X0154700Y0104347D02*
X0171700Y0104347D01*
X0171700Y0103348D02*
X0154700Y0103348D01*
X0154700Y0102350D02*
X0171700Y0102350D01*
X0171700Y0101351D02*
X0154700Y0101351D01*
X0154700Y0100353D02*
X0171700Y0100353D01*
X0171700Y0099354D02*
X0154700Y0099354D01*
X0154700Y0098356D02*
X0171700Y0098356D01*
X0171700Y0097357D02*
X0154700Y0097357D01*
X0154700Y0096359D02*
X0171700Y0096359D01*
X0171700Y0095360D02*
X0154700Y0095360D01*
X0154700Y0094362D02*
X0171700Y0094362D01*
X0171700Y0093363D02*
X0154700Y0093363D01*
X0154700Y0092365D02*
X0171700Y0092365D01*
X0171700Y0091366D02*
X0154700Y0091366D01*
X0154700Y0090368D02*
X0171700Y0090368D01*
X0171700Y0089369D02*
X0154700Y0089369D01*
X0154700Y0088370D02*
X0171700Y0088370D01*
X0171700Y0087372D02*
X0154700Y0087372D01*
X0154700Y0086373D02*
X0171700Y0086373D01*
X0171700Y0085375D02*
X0154700Y0085375D01*
X0154700Y0084376D02*
X0171700Y0084376D01*
X0171700Y0083378D02*
X0154700Y0083378D01*
X0154700Y0082379D02*
X0171700Y0082379D01*
X0171700Y0081381D02*
X0154700Y0081381D01*
X0154700Y0080382D02*
X0171700Y0080382D01*
X0171700Y0079384D02*
X0154700Y0079384D01*
X0154700Y0078385D02*
X0171700Y0078385D01*
X0171700Y0077387D02*
X0154700Y0077387D01*
X0154700Y0076388D02*
X0171700Y0076388D01*
X0171700Y0075390D02*
X0154700Y0075390D01*
X0154700Y0074391D02*
X0171700Y0074391D01*
X0171700Y0073393D02*
X0154700Y0073393D01*
X0154700Y0072394D02*
X0171700Y0072394D01*
X0171700Y0071396D02*
X0154700Y0071396D01*
X0154700Y0070397D02*
X0171700Y0070397D01*
X0171700Y0069399D02*
X0154700Y0069399D01*
X0154700Y0068400D02*
X0171700Y0068400D01*
X0171700Y0067402D02*
X0154700Y0067402D01*
X0154700Y0066403D02*
X0171700Y0066403D01*
X0171700Y0065405D02*
X0154700Y0065405D01*
X0154700Y0064406D02*
X0155405Y0064406D01*
X0155418Y0064429D02*
X0155220Y0064087D01*
X0155118Y0063705D01*
X0155118Y0061055D01*
X0158677Y0061055D01*
X0158677Y0060055D01*
X0155118Y0060055D01*
X0155118Y0057405D01*
X0155220Y0057023D01*
X0155418Y0056681D01*
X0155697Y0056402D01*
X0156039Y0056205D01*
X0156421Y0056102D01*
X0158677Y0056102D01*
X0158677Y0060055D01*
X0159677Y0060055D01*
X0159677Y0056102D01*
X0161934Y0056102D01*
X0162315Y0056205D01*
X0162657Y0056402D01*
X0162937Y0056681D01*
X0163130Y0057016D01*
X0163643Y0056502D01*
X0165700Y0056502D01*
X0165700Y0028584D01*
X0164233Y0028584D01*
X0163589Y0027940D01*
X0163589Y0022304D01*
X0164233Y0021660D01*
X0169869Y0021660D01*
X0170513Y0022304D01*
X0170513Y0027940D01*
X0169869Y0028584D01*
X0168500Y0028584D01*
X0168500Y0056502D01*
X0169672Y0056502D01*
X0170317Y0057147D01*
X0170317Y0063964D01*
X0169672Y0064608D01*
X0163643Y0064608D01*
X0163130Y0064095D01*
X0162937Y0064429D01*
X0162657Y0064708D01*
X0162315Y0064906D01*
X0161934Y0065008D01*
X0159677Y0065008D01*
X0159677Y0061055D01*
X0158677Y0061055D01*
X0158677Y0065008D01*
X0156421Y0065008D01*
X0156039Y0064906D01*
X0155697Y0064708D01*
X0155418Y0064429D01*
X0155118Y0063408D02*
X0154700Y0063408D01*
X0154700Y0062409D02*
X0155118Y0062409D01*
X0155118Y0061411D02*
X0154700Y0061411D01*
X0154700Y0060412D02*
X0158677Y0060412D01*
X0158677Y0059414D02*
X0159677Y0059414D01*
X0159677Y0058415D02*
X0158677Y0058415D01*
X0158677Y0057417D02*
X0159677Y0057417D01*
X0159677Y0056418D02*
X0158677Y0056418D01*
X0156959Y0054421D02*
X0165700Y0054421D01*
X0165700Y0053423D02*
X0157957Y0053423D01*
X0158956Y0052424D02*
X0165700Y0052424D01*
X0165700Y0051426D02*
X0159954Y0051426D01*
X0160700Y0050427D02*
X0165700Y0050427D01*
X0165700Y0049429D02*
X0160700Y0049429D01*
X0160700Y0048430D02*
X0165700Y0048430D01*
X0165700Y0047432D02*
X0160700Y0047432D01*
X0160700Y0046433D02*
X0165700Y0046433D01*
X0165700Y0045434D02*
X0160700Y0045434D01*
X0160700Y0044436D02*
X0165700Y0044436D01*
X0165700Y0043437D02*
X0160700Y0043437D01*
X0160700Y0042439D02*
X0165700Y0042439D01*
X0165700Y0041440D02*
X0160700Y0041440D01*
X0160700Y0040442D02*
X0165700Y0040442D01*
X0165700Y0039443D02*
X0160700Y0039443D01*
X0160700Y0038445D02*
X0165700Y0038445D01*
X0165700Y0037446D02*
X0160700Y0037446D01*
X0160700Y0036448D02*
X0165700Y0036448D01*
X0165700Y0035449D02*
X0160700Y0035449D01*
X0160700Y0034451D02*
X0165700Y0034451D01*
X0165700Y0033452D02*
X0160700Y0033452D01*
X0160700Y0032454D02*
X0165700Y0032454D01*
X0165700Y0031455D02*
X0160700Y0031455D01*
X0160700Y0030457D02*
X0165700Y0030457D01*
X0165700Y0029458D02*
X0160700Y0029458D01*
X0161726Y0028460D02*
X0164109Y0028460D01*
X0163589Y0027461D02*
X0162246Y0027461D01*
X0162246Y0026463D02*
X0163589Y0026463D01*
X0163589Y0025464D02*
X0162246Y0025464D01*
X0162246Y0024466D02*
X0163589Y0024466D01*
X0163589Y0023467D02*
X0162246Y0023467D01*
X0162246Y0022469D02*
X0163589Y0022469D01*
X0170513Y0022469D02*
X0175006Y0022469D01*
X0175006Y0023467D02*
X0170513Y0023467D01*
X0170513Y0024466D02*
X0175006Y0024466D01*
X0175006Y0025464D02*
X0170513Y0025464D01*
X0170513Y0026463D02*
X0175006Y0026463D01*
X0175006Y0027461D02*
X0170513Y0027461D01*
X0169993Y0028460D02*
X0175526Y0028460D01*
X0177100Y0029458D02*
X0168500Y0029458D01*
X0168500Y0030457D02*
X0177100Y0030457D01*
X0177100Y0031455D02*
X0168500Y0031455D01*
X0168500Y0032454D02*
X0177100Y0032454D01*
X0177100Y0033452D02*
X0168500Y0033452D01*
X0168500Y0034451D02*
X0177100Y0034451D01*
X0177100Y0035449D02*
X0168500Y0035449D01*
X0168500Y0036448D02*
X0177100Y0036448D01*
X0177100Y0037446D02*
X0168500Y0037446D01*
X0168500Y0038445D02*
X0177100Y0038445D01*
X0177100Y0039443D02*
X0168500Y0039443D01*
X0168500Y0040442D02*
X0177100Y0040442D01*
X0177100Y0041440D02*
X0168500Y0041440D01*
X0168500Y0042439D02*
X0177100Y0042439D01*
X0177100Y0043437D02*
X0168500Y0043437D01*
X0168500Y0044436D02*
X0177100Y0044436D01*
X0177100Y0045434D02*
X0168500Y0045434D01*
X0168500Y0046433D02*
X0177100Y0046433D01*
X0177100Y0047432D02*
X0168500Y0047432D01*
X0168500Y0048430D02*
X0177100Y0048430D01*
X0177100Y0049429D02*
X0168500Y0049429D01*
X0168500Y0050427D02*
X0176793Y0050427D01*
X0175795Y0051426D02*
X0168500Y0051426D01*
X0168500Y0052424D02*
X0174796Y0052424D01*
X0173798Y0053423D02*
X0168500Y0053423D01*
X0168500Y0054421D02*
X0172799Y0054421D01*
X0171800Y0055420D02*
X0168500Y0055420D01*
X0168500Y0056418D02*
X0171700Y0056418D01*
X0171700Y0057417D02*
X0170317Y0057417D01*
X0170317Y0058415D02*
X0171700Y0058415D01*
X0171700Y0059414D02*
X0170317Y0059414D01*
X0170317Y0060412D02*
X0171700Y0060412D01*
X0171700Y0061411D02*
X0170317Y0061411D01*
X0170317Y0062409D02*
X0171700Y0062409D01*
X0171700Y0063408D02*
X0170317Y0063408D01*
X0169874Y0064406D02*
X0171700Y0064406D01*
X0174500Y0059414D02*
X0174803Y0059414D01*
X0174803Y0058415D02*
X0174500Y0058415D01*
X0174500Y0057417D02*
X0174803Y0057417D01*
X0174762Y0056418D02*
X0175366Y0056418D01*
X0178362Y0061411D02*
X0179362Y0061411D01*
X0179362Y0062409D02*
X0178362Y0062409D01*
X0178362Y0063408D02*
X0179362Y0063408D01*
X0179362Y0064406D02*
X0178362Y0064406D01*
X0182635Y0064406D02*
X0183126Y0064406D01*
X0189559Y0064406D02*
X0191500Y0064406D01*
X0191500Y0063408D02*
X0190002Y0063408D01*
X0190002Y0062409D02*
X0191500Y0062409D01*
X0191500Y0061411D02*
X0190002Y0061411D01*
X0190002Y0060412D02*
X0191500Y0060412D01*
X0191500Y0059414D02*
X0190002Y0059414D01*
X0190002Y0058415D02*
X0191500Y0058415D01*
X0191500Y0057417D02*
X0190002Y0057417D01*
X0191500Y0056418D02*
X0188300Y0056418D01*
X0188300Y0055420D02*
X0191600Y0055420D01*
X0202320Y0064406D02*
X0202811Y0064406D01*
X0165700Y0056418D02*
X0162673Y0056418D01*
X0165700Y0055420D02*
X0155960Y0055420D01*
X0155681Y0056418D02*
X0154962Y0056418D01*
X0155118Y0057417D02*
X0154700Y0057417D01*
X0154700Y0058415D02*
X0155118Y0058415D01*
X0155118Y0059414D02*
X0154700Y0059414D01*
X0151900Y0059414D02*
X0150631Y0059414D01*
X0150631Y0060412D02*
X0151900Y0060412D01*
X0151900Y0061411D02*
X0150631Y0061411D01*
X0150631Y0062409D02*
X0151900Y0062409D01*
X0151900Y0063408D02*
X0150631Y0063408D01*
X0150631Y0063964D02*
X0149987Y0064608D01*
X0143958Y0064608D01*
X0143444Y0064095D01*
X0143251Y0064429D01*
X0142972Y0064708D01*
X0142630Y0064906D01*
X0142249Y0065008D01*
X0139992Y0065008D01*
X0139992Y0061055D01*
X0138992Y0061055D01*
X0138992Y0060055D01*
X0139992Y0060055D01*
X0139992Y0056102D01*
X0142249Y0056102D01*
X0142630Y0056205D01*
X0142972Y0056402D01*
X0143251Y0056681D01*
X0143444Y0057016D01*
X0143958Y0056502D01*
X0146500Y0056502D01*
X0146500Y0028584D01*
X0144548Y0028584D01*
X0143904Y0027940D01*
X0143904Y0022304D01*
X0144548Y0021660D01*
X0150184Y0021660D01*
X0150828Y0022304D01*
X0150828Y0027940D01*
X0150184Y0028584D01*
X0149300Y0028584D01*
X0149300Y0056502D01*
X0149987Y0056502D01*
X0150631Y0057147D01*
X0150631Y0063964D01*
X0150189Y0064406D02*
X0151900Y0064406D01*
X0151900Y0065405D02*
X0134900Y0065405D01*
X0134900Y0066403D02*
X0151900Y0066403D01*
X0151900Y0067402D02*
X0134900Y0067402D01*
X0134900Y0068400D02*
X0151900Y0068400D01*
X0151900Y0069399D02*
X0134900Y0069399D01*
X0134900Y0070397D02*
X0151900Y0070397D01*
X0151900Y0071396D02*
X0134900Y0071396D01*
X0134900Y0072394D02*
X0151900Y0072394D01*
X0151900Y0073393D02*
X0134900Y0073393D01*
X0134900Y0074391D02*
X0151900Y0074391D01*
X0151900Y0075390D02*
X0134900Y0075390D01*
X0134900Y0076388D02*
X0151900Y0076388D01*
X0151900Y0077387D02*
X0134900Y0077387D01*
X0134900Y0078385D02*
X0151900Y0078385D01*
X0151900Y0079384D02*
X0134900Y0079384D01*
X0134900Y0080382D02*
X0151900Y0080382D01*
X0151900Y0081381D02*
X0134900Y0081381D01*
X0134900Y0082379D02*
X0151900Y0082379D01*
X0151900Y0083378D02*
X0134900Y0083378D01*
X0134900Y0084376D02*
X0151900Y0084376D01*
X0151900Y0085375D02*
X0134900Y0085375D01*
X0134900Y0086373D02*
X0151900Y0086373D01*
X0151900Y0087372D02*
X0134900Y0087372D01*
X0134900Y0088370D02*
X0151900Y0088370D01*
X0151900Y0089369D02*
X0134900Y0089369D01*
X0134900Y0090368D02*
X0151900Y0090368D01*
X0151900Y0091366D02*
X0134900Y0091366D01*
X0134900Y0092365D02*
X0151900Y0092365D01*
X0151900Y0093363D02*
X0134900Y0093363D01*
X0134900Y0094362D02*
X0151900Y0094362D01*
X0151900Y0095360D02*
X0134900Y0095360D01*
X0134900Y0096359D02*
X0151900Y0096359D01*
X0151900Y0097357D02*
X0134900Y0097357D01*
X0134900Y0098356D02*
X0151900Y0098356D01*
X0151900Y0099354D02*
X0134900Y0099354D01*
X0134900Y0100353D02*
X0151900Y0100353D01*
X0151900Y0101351D02*
X0134900Y0101351D01*
X0134900Y0102350D02*
X0151900Y0102350D01*
X0151900Y0103348D02*
X0134900Y0103348D01*
X0134900Y0104347D02*
X0151900Y0104347D01*
X0151900Y0105345D02*
X0134900Y0105345D01*
X0134900Y0106344D02*
X0151900Y0106344D01*
X0151900Y0107342D02*
X0134900Y0107342D01*
X0134900Y0108341D02*
X0151900Y0108341D01*
X0151900Y0109339D02*
X0134900Y0109339D01*
X0134900Y0110338D02*
X0151900Y0110338D01*
X0151900Y0111336D02*
X0134900Y0111336D01*
X0134900Y0112335D02*
X0151900Y0112335D01*
X0151900Y0113333D02*
X0134900Y0113333D01*
X0134900Y0114332D02*
X0151900Y0114332D01*
X0151900Y0115330D02*
X0134900Y0115330D01*
X0134900Y0116329D02*
X0151900Y0116329D01*
X0151900Y0117327D02*
X0134900Y0117327D01*
X0134900Y0118326D02*
X0151900Y0118326D01*
X0151900Y0119324D02*
X0134900Y0119324D01*
X0134900Y0120323D02*
X0151900Y0120323D01*
X0151900Y0121321D02*
X0134900Y0121321D01*
X0134900Y0122320D02*
X0151900Y0122320D01*
X0151900Y0123318D02*
X0134900Y0123318D01*
X0134900Y0124317D02*
X0151900Y0124317D01*
X0151900Y0125315D02*
X0134900Y0125315D01*
X0134900Y0126314D02*
X0151900Y0126314D01*
X0151900Y0127312D02*
X0134900Y0127312D01*
X0134900Y0128311D02*
X0151900Y0128311D01*
X0151900Y0129309D02*
X0134900Y0129309D01*
X0134900Y0130308D02*
X0151900Y0130308D01*
X0151900Y0131306D02*
X0134900Y0131306D01*
X0134900Y0132305D02*
X0151900Y0132305D01*
X0151900Y0133303D02*
X0135883Y0133303D01*
X0136882Y0134302D02*
X0151900Y0134302D01*
X0151900Y0135301D02*
X0137880Y0135301D01*
X0138879Y0136299D02*
X0151900Y0136299D01*
X0133300Y0138296D02*
X0130946Y0138296D01*
X0130946Y0137298D02*
X0132318Y0137298D01*
X0131319Y0136299D02*
X0130946Y0136299D01*
X0130321Y0135301D02*
X0099480Y0135301D01*
X0100479Y0136299D02*
X0124022Y0136299D01*
X0127325Y0132305D02*
X0096485Y0132305D01*
X0097483Y0133303D02*
X0128324Y0133303D01*
X0129322Y0134302D02*
X0098482Y0134302D01*
X0096519Y0136299D02*
X0095120Y0136299D01*
X0095120Y0135690D02*
X0095120Y0142113D01*
X0094475Y0142757D01*
X0089627Y0142757D01*
X0088983Y0142113D01*
X0088983Y0140300D01*
X0067561Y0140300D01*
X0067561Y0142113D01*
X0066916Y0142757D01*
X0062068Y0142757D01*
X0061424Y0142113D01*
X0061424Y0139604D01*
X0061300Y0139480D01*
X0058300Y0136480D01*
X0058300Y0135880D01*
X0032521Y0110101D01*
X0032521Y0110420D01*
X0031877Y0111065D01*
X0026241Y0111065D01*
X0025597Y0110420D01*
X0025597Y0104785D01*
X0026241Y0104140D01*
X0026500Y0104140D01*
X0026500Y0069280D01*
X0007900Y0050680D01*
X0007900Y0049254D01*
X0005769Y0049254D01*
X0005124Y0048609D01*
X0005124Y0041399D01*
X0005769Y0040754D01*
X0012979Y0040754D01*
X0013624Y0041399D01*
X0013624Y0048609D01*
X0012979Y0049254D01*
X0010700Y0049254D01*
X0010700Y0049520D01*
X0028480Y0067300D01*
X0029300Y0068120D01*
X0029300Y0104140D01*
X0031877Y0104140D01*
X0032521Y0104785D01*
X0032521Y0106300D01*
X0032680Y0106300D01*
X0060280Y0133900D01*
X0061100Y0134720D01*
X0061100Y0135320D01*
X0061447Y0135667D01*
X0062068Y0135046D01*
X0066916Y0135046D01*
X0067561Y0135690D01*
X0067561Y0137500D01*
X0088983Y0137500D01*
X0088983Y0135690D01*
X0089627Y0135046D01*
X0094475Y0135046D01*
X0095120Y0135690D01*
X0094730Y0135301D02*
X0095521Y0135301D01*
X0095120Y0137298D02*
X0097518Y0137298D01*
X0098516Y0138296D02*
X0095120Y0138296D01*
X0095120Y0139295D02*
X0099515Y0139295D01*
X0100513Y0140293D02*
X0095120Y0140293D01*
X0095120Y0141292D02*
X0101512Y0141292D01*
X0102510Y0142290D02*
X0094943Y0142290D01*
X0093367Y0143707D02*
X0092723Y0144351D01*
X0092723Y0150775D01*
X0093367Y0151419D01*
X0093801Y0151419D01*
X0090320Y0154900D01*
X0078753Y0154900D01*
X0078800Y0154853D01*
X0078800Y0152947D01*
X0077453Y0151600D01*
X0076180Y0151600D01*
X0071301Y0146721D01*
X0071301Y0144351D01*
X0070656Y0143707D01*
X0065808Y0143707D01*
X0065164Y0144351D01*
X0065164Y0150775D01*
X0065808Y0151419D01*
X0070656Y0151419D01*
X0071301Y0150775D01*
X0071301Y0150681D01*
X0074200Y0153580D01*
X0074200Y0154853D01*
X0074247Y0154900D01*
X0066280Y0154900D01*
X0062799Y0151419D01*
X0063176Y0151419D01*
X0063820Y0150775D01*
X0063820Y0144351D01*
X0063176Y0143707D01*
X0058328Y0143707D01*
X0057683Y0144351D01*
X0057683Y0150775D01*
X0058328Y0151419D01*
X0059500Y0151419D01*
X0059500Y0152080D01*
X0064300Y0156880D01*
X0065120Y0157700D01*
X0091480Y0157700D01*
X0096280Y0152900D01*
X0097100Y0152080D01*
X0097100Y0151419D01*
X0098215Y0151419D01*
X0098860Y0150775D01*
X0098860Y0144351D01*
X0098215Y0143707D01*
X0093367Y0143707D01*
X0092787Y0144287D02*
X0091693Y0144287D01*
X0091677Y0144228D02*
X0091780Y0144610D01*
X0091780Y0147079D01*
X0088795Y0147079D01*
X0088795Y0143307D01*
X0090477Y0143307D01*
X0090859Y0143409D01*
X0091201Y0143607D01*
X0091480Y0143886D01*
X0091677Y0144228D01*
X0091780Y0145286D02*
X0092723Y0145286D01*
X0092723Y0146284D02*
X0091780Y0146284D01*
X0092723Y0147283D02*
X0088795Y0147283D01*
X0088795Y0147079D02*
X0088795Y0148047D01*
X0087827Y0148047D01*
X0087827Y0147079D01*
X0084843Y0147079D01*
X0084843Y0144610D01*
X0084945Y0144228D01*
X0085142Y0143886D01*
X0085421Y0143607D01*
X0085764Y0143409D01*
X0086145Y0143307D01*
X0087827Y0143307D01*
X0087827Y0147079D01*
X0088795Y0147079D01*
X0088795Y0146284D02*
X0087827Y0146284D01*
X0087827Y0145286D02*
X0088795Y0145286D01*
X0088795Y0144287D02*
X0087827Y0144287D01*
X0089160Y0142290D02*
X0067384Y0142290D01*
X0067561Y0141292D02*
X0088983Y0141292D01*
X0088983Y0137298D02*
X0067561Y0137298D01*
X0067561Y0136299D02*
X0088983Y0136299D01*
X0089372Y0135301D02*
X0067171Y0135301D01*
X0061813Y0135301D02*
X0061100Y0135301D01*
X0060682Y0134302D02*
X0087322Y0134302D01*
X0086324Y0133303D02*
X0059683Y0133303D01*
X0058685Y0132305D02*
X0085325Y0132305D01*
X0084327Y0131306D02*
X0057686Y0131306D01*
X0056688Y0130308D02*
X0083328Y0130308D01*
X0082330Y0129309D02*
X0055689Y0129309D01*
X0054691Y0128311D02*
X0081331Y0128311D01*
X0080333Y0127312D02*
X0053692Y0127312D01*
X0052694Y0126314D02*
X0079334Y0126314D01*
X0078336Y0125315D02*
X0051695Y0125315D01*
X0050697Y0124317D02*
X0077337Y0124317D01*
X0076338Y0123318D02*
X0049698Y0123318D01*
X0048700Y0122320D02*
X0075340Y0122320D01*
X0074341Y0121321D02*
X0047701Y0121321D01*
X0046703Y0120323D02*
X0073343Y0120323D01*
X0072344Y0119324D02*
X0045704Y0119324D01*
X0044706Y0118326D02*
X0071346Y0118326D01*
X0070347Y0117327D02*
X0043707Y0117327D01*
X0042709Y0116329D02*
X0069349Y0116329D01*
X0068350Y0115330D02*
X0041710Y0115330D01*
X0040712Y0114332D02*
X0067352Y0114332D01*
X0066353Y0113333D02*
X0039713Y0113333D01*
X0038715Y0112335D02*
X0065355Y0112335D01*
X0064356Y0111336D02*
X0037716Y0111336D01*
X0036718Y0110338D02*
X0052680Y0110338D01*
X0052369Y0109339D02*
X0035719Y0109339D01*
X0034721Y0108341D02*
X0051161Y0108341D01*
X0050162Y0107342D02*
X0033722Y0107342D01*
X0032724Y0106344D02*
X0049164Y0106344D01*
X0048700Y0105345D02*
X0032521Y0105345D01*
X0032083Y0104347D02*
X0048700Y0104347D01*
X0048700Y0103348D02*
X0029300Y0103348D01*
X0029300Y0102350D02*
X0048700Y0102350D01*
X0048700Y0101351D02*
X0029300Y0101351D01*
X0029300Y0100353D02*
X0048700Y0100353D01*
X0048700Y0099354D02*
X0029300Y0099354D01*
X0029300Y0098356D02*
X0048700Y0098356D01*
X0048700Y0097357D02*
X0029300Y0097357D01*
X0029300Y0096359D02*
X0048700Y0096359D01*
X0048700Y0095360D02*
X0029300Y0095360D01*
X0029300Y0094362D02*
X0048700Y0094362D01*
X0048700Y0093363D02*
X0029300Y0093363D01*
X0029300Y0092365D02*
X0048700Y0092365D01*
X0048700Y0091366D02*
X0029300Y0091366D01*
X0029300Y0090368D02*
X0048700Y0090368D01*
X0048700Y0089369D02*
X0029300Y0089369D01*
X0029300Y0088370D02*
X0048700Y0088370D01*
X0048700Y0087372D02*
X0029300Y0087372D01*
X0029300Y0086373D02*
X0048700Y0086373D01*
X0048700Y0085375D02*
X0029300Y0085375D01*
X0029300Y0084376D02*
X0048700Y0084376D01*
X0048700Y0083378D02*
X0029300Y0083378D01*
X0029300Y0082379D02*
X0048700Y0082379D01*
X0048700Y0081381D02*
X0029300Y0081381D01*
X0029300Y0080382D02*
X0048700Y0080382D01*
X0048700Y0079384D02*
X0029300Y0079384D01*
X0029300Y0078385D02*
X0048700Y0078385D01*
X0048700Y0077387D02*
X0029300Y0077387D01*
X0029300Y0076388D02*
X0048700Y0076388D01*
X0048700Y0075390D02*
X0029300Y0075390D01*
X0029300Y0074391D02*
X0048700Y0074391D01*
X0048700Y0073393D02*
X0029300Y0073393D01*
X0029300Y0072394D02*
X0048700Y0072394D01*
X0048700Y0071396D02*
X0029300Y0071396D01*
X0029300Y0070397D02*
X0048700Y0070397D01*
X0048700Y0069399D02*
X0029300Y0069399D01*
X0029300Y0068400D02*
X0048700Y0068400D01*
X0048700Y0067402D02*
X0028582Y0067402D01*
X0027583Y0066403D02*
X0048700Y0066403D01*
X0048700Y0065405D02*
X0026585Y0065405D01*
X0025586Y0064406D02*
X0048700Y0064406D01*
X0048700Y0063408D02*
X0024588Y0063408D01*
X0023589Y0062409D02*
X0048700Y0062409D01*
X0048700Y0061411D02*
X0022591Y0061411D01*
X0021592Y0060412D02*
X0048700Y0060412D01*
X0048700Y0059414D02*
X0020594Y0059414D01*
X0019595Y0058415D02*
X0048700Y0058415D01*
X0048700Y0057417D02*
X0018597Y0057417D01*
X0017598Y0056418D02*
X0048700Y0056418D01*
X0048700Y0055420D02*
X0016600Y0055420D01*
X0015601Y0054421D02*
X0048700Y0054421D01*
X0048700Y0053423D02*
X0014602Y0053423D01*
X0013604Y0052424D02*
X0048700Y0052424D01*
X0048700Y0051426D02*
X0012605Y0051426D01*
X0011607Y0050427D02*
X0048700Y0050427D01*
X0048700Y0049429D02*
X0010700Y0049429D01*
X0007900Y0049429D02*
X0003000Y0049429D01*
X0003000Y0050427D02*
X0007900Y0050427D01*
X0008646Y0051426D02*
X0003000Y0051426D01*
X0003000Y0052424D02*
X0009644Y0052424D01*
X0010643Y0053423D02*
X0003000Y0053423D01*
X0003000Y0054421D02*
X0011641Y0054421D01*
X0012640Y0055420D02*
X0003000Y0055420D01*
X0003000Y0056418D02*
X0005459Y0056418D01*
X0005124Y0057417D02*
X0003000Y0057417D01*
X0003000Y0058415D02*
X0005124Y0058415D01*
X0005124Y0059414D02*
X0003000Y0059414D01*
X0003000Y0060412D02*
X0005124Y0060412D01*
X0005124Y0061411D02*
X0003000Y0061411D01*
X0003000Y0062409D02*
X0005124Y0062409D01*
X0005124Y0063408D02*
X0003000Y0063408D01*
X0003000Y0064406D02*
X0005567Y0064406D01*
X0003000Y0065405D02*
X0008825Y0065405D01*
X0009823Y0066403D02*
X0003000Y0066403D01*
X0003000Y0067402D02*
X0010822Y0067402D01*
X0011820Y0068400D02*
X0003000Y0068400D01*
X0003000Y0069399D02*
X0012819Y0069399D01*
X0013817Y0070397D02*
X0003000Y0070397D01*
X0003000Y0071396D02*
X0014816Y0071396D01*
X0015814Y0072394D02*
X0003000Y0072394D01*
X0003000Y0073393D02*
X0016813Y0073393D01*
X0017811Y0074391D02*
X0003006Y0074391D01*
X0003287Y0075390D02*
X0018810Y0075390D01*
X0019808Y0076388D02*
X0004149Y0076388D01*
X0014782Y0067402D02*
X0024622Y0067402D01*
X0025620Y0068400D02*
X0015780Y0068400D01*
X0016779Y0069399D02*
X0026500Y0069399D01*
X0026500Y0070397D02*
X0017777Y0070397D01*
X0018776Y0071396D02*
X0026500Y0071396D01*
X0026500Y0072394D02*
X0019774Y0072394D01*
X0020773Y0073393D02*
X0026500Y0073393D01*
X0026500Y0074391D02*
X0021771Y0074391D01*
X0022770Y0075390D02*
X0026500Y0075390D01*
X0026500Y0076388D02*
X0023768Y0076388D01*
X0024767Y0077387D02*
X0026500Y0077387D01*
X0026500Y0078385D02*
X0025700Y0078385D01*
X0025700Y0079384D02*
X0026500Y0079384D01*
X0026500Y0080382D02*
X0025700Y0080382D01*
X0025700Y0081381D02*
X0026500Y0081381D01*
X0026500Y0082379D02*
X0025200Y0082379D01*
X0024202Y0083378D02*
X0026500Y0083378D01*
X0026500Y0084376D02*
X0023900Y0084376D01*
X0023900Y0085375D02*
X0026500Y0085375D01*
X0026500Y0086373D02*
X0023900Y0086373D01*
X0023900Y0087372D02*
X0026500Y0087372D01*
X0026500Y0088370D02*
X0023900Y0088370D01*
X0023900Y0089369D02*
X0026500Y0089369D01*
X0026500Y0090368D02*
X0023900Y0090368D01*
X0023900Y0091366D02*
X0026500Y0091366D01*
X0026500Y0092365D02*
X0023900Y0092365D01*
X0023900Y0093363D02*
X0026500Y0093363D01*
X0026500Y0094362D02*
X0023900Y0094362D01*
X0023900Y0095360D02*
X0026500Y0095360D01*
X0026500Y0096359D02*
X0023900Y0096359D01*
X0023900Y0097357D02*
X0026500Y0097357D01*
X0026500Y0098356D02*
X0023900Y0098356D01*
X0023900Y0099354D02*
X0026500Y0099354D01*
X0026500Y0100353D02*
X0023900Y0100353D01*
X0023900Y0101351D02*
X0026500Y0101351D01*
X0026500Y0102350D02*
X0023900Y0102350D01*
X0023900Y0103348D02*
X0026500Y0103348D01*
X0026035Y0104347D02*
X0023900Y0104347D01*
X0023900Y0105345D02*
X0025597Y0105345D01*
X0025597Y0106344D02*
X0023900Y0106344D01*
X0023900Y0107342D02*
X0025597Y0107342D01*
X0025597Y0108341D02*
X0023900Y0108341D01*
X0023900Y0109339D02*
X0025597Y0109339D01*
X0025597Y0110338D02*
X0023900Y0110338D01*
X0023900Y0111336D02*
X0033756Y0111336D01*
X0032758Y0110338D02*
X0032521Y0110338D01*
X0031877Y0112408D02*
X0032521Y0113052D01*
X0032521Y0118688D01*
X0031877Y0119332D01*
X0030500Y0119332D01*
X0030500Y0136520D01*
X0059680Y0165700D01*
X0060500Y0166520D01*
X0060500Y0167526D01*
X0063767Y0167526D01*
X0064411Y0168170D01*
X0064411Y0173412D01*
X0063767Y0174057D01*
X0057344Y0174057D01*
X0056699Y0173412D01*
X0056699Y0168170D01*
X0057344Y0167526D01*
X0057546Y0167526D01*
X0027700Y0137680D01*
X0027700Y0119332D01*
X0026241Y0119332D01*
X0025597Y0118688D01*
X0025597Y0113052D01*
X0026241Y0112408D01*
X0031877Y0112408D01*
X0032521Y0113333D02*
X0035753Y0113333D01*
X0034755Y0112335D02*
X0023900Y0112335D01*
X0023900Y0113333D02*
X0025597Y0113333D01*
X0025597Y0114332D02*
X0023900Y0114332D01*
X0023900Y0115330D02*
X0025597Y0115330D01*
X0025597Y0116329D02*
X0023900Y0116329D01*
X0023907Y0117327D02*
X0025597Y0117327D01*
X0025597Y0118326D02*
X0024906Y0118326D01*
X0025700Y0119324D02*
X0026233Y0119324D01*
X0025700Y0120323D02*
X0027700Y0120323D01*
X0027700Y0121321D02*
X0025700Y0121321D01*
X0025700Y0122320D02*
X0027700Y0122320D01*
X0027700Y0123318D02*
X0025700Y0123318D01*
X0025700Y0124317D02*
X0027700Y0124317D01*
X0027700Y0125315D02*
X0025700Y0125315D01*
X0025700Y0126314D02*
X0027700Y0126314D01*
X0027700Y0127312D02*
X0025700Y0127312D01*
X0025700Y0128311D02*
X0027700Y0128311D01*
X0027700Y0129309D02*
X0025700Y0129309D01*
X0025700Y0130308D02*
X0027700Y0130308D01*
X0027700Y0131306D02*
X0025700Y0131306D01*
X0025700Y0132305D02*
X0027700Y0132305D01*
X0027700Y0133303D02*
X0025700Y0133303D01*
X0025700Y0134302D02*
X0027700Y0134302D01*
X0027700Y0135301D02*
X0025700Y0135301D01*
X0025700Y0136299D02*
X0027700Y0136299D01*
X0027700Y0137298D02*
X0025700Y0137298D01*
X0025700Y0138296D02*
X0028316Y0138296D01*
X0029315Y0139295D02*
X0025700Y0139295D01*
X0025700Y0140293D02*
X0030313Y0140293D01*
X0031312Y0141292D02*
X0025700Y0141292D01*
X0025700Y0142290D02*
X0032310Y0142290D01*
X0033309Y0143289D02*
X0025700Y0143289D01*
X0025700Y0144287D02*
X0034307Y0144287D01*
X0035306Y0145286D02*
X0025700Y0145286D01*
X0025496Y0146284D02*
X0036304Y0146284D01*
X0037303Y0147283D02*
X0024497Y0147283D01*
X0023499Y0148281D02*
X0038301Y0148281D01*
X0039300Y0149280D02*
X0022500Y0149280D01*
X0021502Y0150278D02*
X0040298Y0150278D01*
X0041297Y0151277D02*
X0020503Y0151277D01*
X0019505Y0152275D02*
X0042295Y0152275D01*
X0043294Y0153274D02*
X0018506Y0153274D01*
X0017508Y0154272D02*
X0044292Y0154272D01*
X0045291Y0155271D02*
X0016509Y0155271D01*
X0015511Y0156269D02*
X0046289Y0156269D01*
X0047288Y0157268D02*
X0014512Y0157268D01*
X0013514Y0158266D02*
X0048286Y0158266D01*
X0049285Y0159265D02*
X0013379Y0159265D01*
X0013624Y0160263D02*
X0050283Y0160263D01*
X0051282Y0161262D02*
X0013624Y0161262D01*
X0013624Y0162260D02*
X0052280Y0162260D01*
X0053279Y0163259D02*
X0013624Y0163259D01*
X0013624Y0164257D02*
X0054277Y0164257D01*
X0055276Y0165256D02*
X0013624Y0165256D01*
X0013624Y0166254D02*
X0056274Y0166254D01*
X0057273Y0167253D02*
X0013090Y0167253D01*
X0017573Y0171247D02*
X0003000Y0171247D01*
X0003000Y0172245D02*
X0016575Y0172245D01*
X0015576Y0173244D02*
X0003000Y0173244D01*
X0003000Y0174242D02*
X0005745Y0174242D01*
X0005769Y0174219D02*
X0012979Y0174219D01*
X0013624Y0174863D01*
X0013624Y0175196D01*
X0019520Y0169300D01*
X0029140Y0169300D01*
X0029140Y0168170D01*
X0029785Y0167526D01*
X0036208Y0167526D01*
X0036852Y0168170D01*
X0036852Y0173412D01*
X0036208Y0174057D01*
X0029785Y0174057D01*
X0029140Y0173412D01*
X0029140Y0172100D01*
X0020680Y0172100D01*
X0013700Y0179080D01*
X0013624Y0179156D01*
X0013624Y0182074D01*
X0012979Y0182718D01*
X0005769Y0182718D01*
X0005124Y0182074D01*
X0005124Y0174863D01*
X0005769Y0174219D01*
X0005124Y0175241D02*
X0003000Y0175241D01*
X0003000Y0176239D02*
X0005124Y0176239D01*
X0005124Y0177238D02*
X0003000Y0177238D01*
X0003000Y0178237D02*
X0005124Y0178237D01*
X0005124Y0179235D02*
X0003000Y0179235D01*
X0003000Y0180234D02*
X0005124Y0180234D01*
X0005124Y0181232D02*
X0003000Y0181232D01*
X0003000Y0182231D02*
X0005281Y0182231D01*
X0003000Y0183229D02*
X0028991Y0183229D01*
X0029990Y0182231D02*
X0013467Y0182231D01*
X0013624Y0181232D02*
X0029140Y0181232D01*
X0029140Y0180234D02*
X0013624Y0180234D01*
X0013624Y0179235D02*
X0029140Y0179235D01*
X0029140Y0178237D02*
X0014543Y0178237D01*
X0015542Y0177238D02*
X0029140Y0177238D01*
X0029140Y0176239D02*
X0016540Y0176239D01*
X0017539Y0175241D02*
X0065779Y0175241D01*
X0064781Y0176239D02*
X0064411Y0176239D01*
X0064411Y0173244D02*
X0067776Y0173244D01*
X0066778Y0174242D02*
X0018537Y0174242D01*
X0019536Y0173244D02*
X0029140Y0173244D01*
X0029140Y0172245D02*
X0020534Y0172245D01*
X0018572Y0170248D02*
X0003000Y0170248D01*
X0003000Y0169250D02*
X0029140Y0169250D01*
X0029140Y0168251D02*
X0003000Y0168251D01*
X0003000Y0167253D02*
X0005658Y0167253D01*
X0005124Y0166254D02*
X0003000Y0166254D01*
X0003000Y0165256D02*
X0005124Y0165256D01*
X0005124Y0164257D02*
X0003000Y0164257D01*
X0003000Y0163259D02*
X0005124Y0163259D01*
X0005124Y0162260D02*
X0003000Y0162260D01*
X0003000Y0161262D02*
X0005124Y0161262D01*
X0005124Y0160263D02*
X0003000Y0160263D01*
X0003000Y0159265D02*
X0005369Y0159265D01*
X0003000Y0158266D02*
X0009554Y0158266D01*
X0010552Y0157268D02*
X0003000Y0157268D01*
X0003000Y0156269D02*
X0011551Y0156269D01*
X0012549Y0155271D02*
X0003000Y0155271D01*
X0003000Y0154272D02*
X0013548Y0154272D01*
X0014546Y0153274D02*
X0003000Y0153274D01*
X0003000Y0152275D02*
X0015545Y0152275D01*
X0016543Y0151277D02*
X0003000Y0151277D01*
X0003000Y0150278D02*
X0017542Y0150278D01*
X0018540Y0149280D02*
X0003000Y0149280D01*
X0003205Y0148281D02*
X0019539Y0148281D01*
X0020537Y0147283D02*
X0003912Y0147283D01*
X0019335Y0146284D02*
X0021536Y0146284D01*
X0020915Y0145286D02*
X0022534Y0145286D01*
X0022900Y0144287D02*
X0021881Y0144287D01*
X0021857Y0144344D02*
X0021857Y0144344D01*
X0022294Y0143289D02*
X0022900Y0143289D01*
X0022900Y0142290D02*
X0022685Y0142290D01*
X0022685Y0141292D02*
X0022900Y0141292D01*
X0022900Y0140293D02*
X0022685Y0140293D01*
X0022685Y0139295D02*
X0022900Y0139295D01*
X0022900Y0138296D02*
X0022685Y0138296D01*
X0022685Y0137298D02*
X0022900Y0137298D01*
X0022900Y0136299D02*
X0022685Y0136299D01*
X0022685Y0135301D02*
X0022900Y0135301D01*
X0022900Y0134302D02*
X0022685Y0134302D01*
X0022685Y0133303D02*
X0022900Y0133303D01*
X0022900Y0132305D02*
X0022685Y0132305D01*
X0022685Y0131306D02*
X0022900Y0131306D01*
X0022900Y0130308D02*
X0022685Y0130308D01*
X0022685Y0129309D02*
X0022900Y0129309D01*
X0022900Y0128311D02*
X0022685Y0128311D01*
X0022685Y0127312D02*
X0022900Y0127312D01*
X0022900Y0126314D02*
X0022685Y0126314D01*
X0022685Y0125315D02*
X0022900Y0125315D01*
X0022900Y0124317D02*
X0022685Y0124317D01*
X0022685Y0123318D02*
X0022900Y0123318D01*
X0022900Y0122320D02*
X0022685Y0122320D01*
X0022685Y0121321D02*
X0022900Y0121321D01*
X0022900Y0120323D02*
X0022685Y0120323D01*
X0030500Y0120323D02*
X0042743Y0120323D01*
X0043741Y0121321D02*
X0030500Y0121321D01*
X0030500Y0122320D02*
X0044740Y0122320D01*
X0045738Y0123318D02*
X0030500Y0123318D01*
X0030500Y0124317D02*
X0046737Y0124317D01*
X0047736Y0125315D02*
X0030500Y0125315D01*
X0030500Y0126314D02*
X0048734Y0126314D01*
X0049733Y0127312D02*
X0030500Y0127312D01*
X0030500Y0128311D02*
X0050731Y0128311D01*
X0051730Y0129309D02*
X0030500Y0129309D01*
X0030500Y0130308D02*
X0052728Y0130308D01*
X0053727Y0131306D02*
X0030500Y0131306D01*
X0030500Y0132305D02*
X0054725Y0132305D01*
X0055724Y0133303D02*
X0030500Y0133303D01*
X0030500Y0134302D02*
X0056722Y0134302D01*
X0057721Y0135301D02*
X0030500Y0135301D01*
X0030500Y0136299D02*
X0058300Y0136299D01*
X0059118Y0137298D02*
X0031277Y0137298D01*
X0032276Y0138296D02*
X0060116Y0138296D01*
X0061115Y0139295D02*
X0033274Y0139295D01*
X0034273Y0140293D02*
X0061424Y0140293D01*
X0061424Y0141292D02*
X0035271Y0141292D01*
X0036270Y0142290D02*
X0061601Y0142290D01*
X0063756Y0144287D02*
X0065228Y0144287D01*
X0065164Y0145286D02*
X0063820Y0145286D01*
X0063820Y0146284D02*
X0065164Y0146284D01*
X0065164Y0147283D02*
X0063820Y0147283D01*
X0063820Y0148281D02*
X0065164Y0148281D01*
X0065164Y0149280D02*
X0063820Y0149280D01*
X0063820Y0150278D02*
X0065164Y0150278D01*
X0065666Y0151277D02*
X0063318Y0151277D01*
X0063655Y0152275D02*
X0072895Y0152275D01*
X0071897Y0151277D02*
X0070799Y0151277D01*
X0072861Y0148281D02*
X0084843Y0148281D01*
X0084843Y0148047D02*
X0087827Y0148047D01*
X0087827Y0151819D01*
X0086145Y0151819D01*
X0085764Y0151717D01*
X0085421Y0151519D01*
X0085142Y0151240D01*
X0084945Y0150898D01*
X0084843Y0150516D01*
X0084843Y0148047D01*
X0084843Y0149280D02*
X0073860Y0149280D01*
X0074858Y0150278D02*
X0084843Y0150278D01*
X0085179Y0151277D02*
X0075857Y0151277D01*
X0078128Y0152275D02*
X0092945Y0152275D01*
X0093225Y0151277D02*
X0091443Y0151277D01*
X0091480Y0151240D02*
X0091201Y0151519D01*
X0090859Y0151717D01*
X0090477Y0151819D01*
X0088795Y0151819D01*
X0088795Y0148047D01*
X0091780Y0148047D01*
X0091780Y0150516D01*
X0091677Y0150898D01*
X0091480Y0151240D01*
X0091780Y0150278D02*
X0092723Y0150278D01*
X0092723Y0149280D02*
X0091780Y0149280D01*
X0091780Y0148281D02*
X0092723Y0148281D01*
X0088795Y0148281D02*
X0087827Y0148281D01*
X0087827Y0147283D02*
X0071863Y0147283D01*
X0071301Y0146284D02*
X0084843Y0146284D01*
X0084843Y0145286D02*
X0071301Y0145286D01*
X0071236Y0144287D02*
X0084929Y0144287D01*
X0087827Y0149280D02*
X0088795Y0149280D01*
X0088795Y0150278D02*
X0087827Y0150278D01*
X0087827Y0151277D02*
X0088795Y0151277D01*
X0091946Y0153274D02*
X0078800Y0153274D01*
X0078800Y0154272D02*
X0090948Y0154272D01*
X0092911Y0156269D02*
X0093751Y0156269D01*
X0093909Y0155271D02*
X0094749Y0155271D01*
X0094908Y0154272D02*
X0095748Y0154272D01*
X0095906Y0153274D02*
X0096746Y0153274D01*
X0096905Y0152275D02*
X0097745Y0152275D01*
X0098358Y0151277D02*
X0098743Y0151277D01*
X0098860Y0150278D02*
X0099742Y0150278D01*
X0098860Y0149280D02*
X0100740Y0149280D01*
X0101739Y0148281D02*
X0098860Y0148281D01*
X0098860Y0147283D02*
X0102737Y0147283D01*
X0103736Y0146284D02*
X0098860Y0146284D01*
X0098860Y0145286D02*
X0104734Y0145286D01*
X0104507Y0144287D02*
X0098796Y0144287D01*
X0103509Y0143289D02*
X0037269Y0143289D01*
X0038267Y0144287D02*
X0057748Y0144287D01*
X0057683Y0145286D02*
X0039266Y0145286D01*
X0040264Y0146284D02*
X0057683Y0146284D01*
X0057683Y0147283D02*
X0041263Y0147283D01*
X0042261Y0148281D02*
X0057683Y0148281D01*
X0057683Y0149280D02*
X0043260Y0149280D01*
X0044258Y0150278D02*
X0057683Y0150278D01*
X0058186Y0151277D02*
X0045257Y0151277D01*
X0046255Y0152275D02*
X0059695Y0152275D01*
X0060694Y0153274D02*
X0047254Y0153274D01*
X0048252Y0154272D02*
X0061692Y0154272D01*
X0062691Y0155271D02*
X0049251Y0155271D01*
X0050249Y0156269D02*
X0063689Y0156269D01*
X0064688Y0157268D02*
X0051248Y0157268D01*
X0052246Y0158266D02*
X0091754Y0158266D01*
X0091912Y0157268D02*
X0092752Y0157268D01*
X0090755Y0159265D02*
X0053245Y0159265D01*
X0054243Y0160263D02*
X0089757Y0160263D01*
X0088758Y0161262D02*
X0055242Y0161262D01*
X0056240Y0162260D02*
X0087760Y0162260D01*
X0086761Y0163259D02*
X0057239Y0163259D01*
X0058237Y0164257D02*
X0085763Y0164257D01*
X0086727Y0167253D02*
X0086800Y0167253D01*
X0084258Y0168251D02*
X0076728Y0168251D01*
X0075730Y0169250D02*
X0084258Y0169250D01*
X0084258Y0170248D02*
X0074731Y0170248D01*
X0073733Y0171247D02*
X0084258Y0171247D01*
X0084258Y0172245D02*
X0072734Y0172245D01*
X0071736Y0173244D02*
X0084258Y0173244D01*
X0084258Y0176239D02*
X0068740Y0176239D01*
X0067742Y0177238D02*
X0084258Y0177238D01*
X0084258Y0178237D02*
X0066743Y0178237D01*
X0065745Y0179235D02*
X0084258Y0179235D01*
X0084258Y0180234D02*
X0064411Y0180234D01*
X0064411Y0181232D02*
X0084258Y0181232D01*
X0086500Y0182231D02*
X0033949Y0182231D01*
X0032951Y0183229D02*
X0086500Y0183229D01*
X0086500Y0184228D02*
X0031952Y0184228D01*
X0030954Y0185226D02*
X0086500Y0185226D01*
X0086500Y0186225D02*
X0029955Y0186225D01*
X0029900Y0187223D02*
X0086500Y0187223D01*
X0087242Y0188222D02*
X0029900Y0188222D01*
X0029900Y0189220D02*
X0088240Y0189220D01*
X0089239Y0190219D02*
X0029900Y0190219D01*
X0029900Y0191217D02*
X0090237Y0191217D01*
X0091236Y0192216D02*
X0029900Y0192216D01*
X0029900Y0193214D02*
X0092234Y0193214D01*
X0093233Y0194213D02*
X0029900Y0194213D01*
X0029900Y0195211D02*
X0094231Y0195211D01*
X0095230Y0196210D02*
X0029900Y0196210D01*
X0029900Y0197208D02*
X0096228Y0197208D01*
X0094953Y0209190D02*
X0093953Y0209190D01*
X0093953Y0210189D02*
X0094953Y0210189D01*
X0094953Y0211187D02*
X0093953Y0211187D01*
X0093953Y0214183D02*
X0094953Y0214183D01*
X0094953Y0215181D02*
X0093953Y0215181D01*
X0093953Y0216180D02*
X0094953Y0216180D01*
X0094953Y0217178D02*
X0093953Y0217178D01*
X0092074Y0217178D02*
X0086265Y0217178D01*
X0087264Y0216180D02*
X0091076Y0216180D01*
X0090077Y0215181D02*
X0088262Y0215181D01*
X0088553Y0214183D02*
X0089953Y0214183D01*
X0096831Y0217178D02*
X0102640Y0217178D01*
X0101642Y0216180D02*
X0097830Y0216180D01*
X0098828Y0215181D02*
X0100643Y0215181D01*
X0100353Y0214183D02*
X0098953Y0214183D01*
X0106265Y0217178D02*
X0112640Y0217178D01*
X0111642Y0216180D02*
X0107264Y0216180D01*
X0108262Y0215181D02*
X0110643Y0215181D01*
X0110353Y0214183D02*
X0108553Y0214183D01*
X0108553Y0213184D02*
X0110353Y0213184D01*
X0110353Y0212186D02*
X0108553Y0212186D01*
X0108245Y0211187D02*
X0110660Y0211187D01*
X0111659Y0210189D02*
X0109191Y0210189D01*
X0082657Y0209190D02*
X0076248Y0209190D01*
X0076151Y0209093D02*
X0078553Y0211495D01*
X0078553Y0214891D01*
X0076151Y0217293D01*
X0072754Y0217293D01*
X0070353Y0214891D01*
X0070353Y0211495D01*
X0072754Y0209093D01*
X0076151Y0209093D01*
X0076317Y0207693D02*
X0074953Y0207693D01*
X0074953Y0203693D01*
X0078953Y0203693D01*
X0078953Y0205057D01*
X0076317Y0207693D01*
X0076816Y0207193D02*
X0082655Y0207193D01*
X0081656Y0206195D02*
X0077815Y0206195D01*
X0078813Y0205196D02*
X0080658Y0205196D01*
X0080353Y0204198D02*
X0078953Y0204198D01*
X0078953Y0202693D02*
X0074953Y0202693D01*
X0074953Y0203693D01*
X0073953Y0203693D01*
X0073953Y0207693D01*
X0072589Y0207693D01*
X0069953Y0205057D01*
X0069953Y0203693D01*
X0073953Y0203693D01*
X0073953Y0202693D01*
X0074953Y0202693D01*
X0074953Y0198693D01*
X0076317Y0198693D01*
X0078953Y0201329D01*
X0078953Y0202693D01*
X0078953Y0202201D02*
X0080353Y0202201D01*
X0080353Y0203199D02*
X0074953Y0203199D01*
X0074953Y0202201D02*
X0073953Y0202201D01*
X0073953Y0202693D02*
X0073953Y0198693D01*
X0072589Y0198693D01*
X0069953Y0201329D01*
X0069953Y0202693D01*
X0073953Y0202693D01*
X0073953Y0203199D02*
X0068553Y0203199D01*
X0068553Y0202201D02*
X0069953Y0202201D01*
X0070079Y0201202D02*
X0068260Y0201202D01*
X0068553Y0201495D02*
X0066151Y0199093D01*
X0062754Y0199093D01*
X0060353Y0201495D01*
X0060353Y0204891D01*
X0062754Y0207293D01*
X0066151Y0207293D01*
X0068553Y0204891D01*
X0068553Y0201495D01*
X0067262Y0200204D02*
X0071078Y0200204D01*
X0072076Y0199205D02*
X0066263Y0199205D01*
X0062642Y0199205D02*
X0056263Y0199205D01*
X0056151Y0199093D02*
X0058553Y0201495D01*
X0058553Y0204891D01*
X0056151Y0207293D01*
X0052754Y0207293D01*
X0050353Y0204891D01*
X0050353Y0201495D01*
X0052754Y0199093D01*
X0056151Y0199093D01*
X0057262Y0200204D02*
X0061644Y0200204D01*
X0060645Y0201202D02*
X0058260Y0201202D01*
X0058553Y0202201D02*
X0060353Y0202201D01*
X0060353Y0203199D02*
X0058553Y0203199D01*
X0058553Y0204198D02*
X0060353Y0204198D01*
X0060658Y0205196D02*
X0058248Y0205196D01*
X0057249Y0206195D02*
X0061656Y0206195D01*
X0062655Y0207193D02*
X0056251Y0207193D01*
X0056317Y0208693D02*
X0058953Y0211329D01*
X0058953Y0212693D01*
X0054953Y0212693D01*
X0054953Y0213693D01*
X0058953Y0213693D01*
X0058953Y0215057D01*
X0056317Y0217693D01*
X0054953Y0217693D01*
X0054953Y0213693D01*
X0053953Y0213693D01*
X0053953Y0217693D01*
X0052589Y0217693D01*
X0049953Y0215057D01*
X0049953Y0213693D01*
X0053953Y0213693D01*
X0053953Y0212693D01*
X0054953Y0212693D01*
X0054953Y0208693D01*
X0056317Y0208693D01*
X0056814Y0209190D02*
X0062657Y0209190D01*
X0062754Y0209093D02*
X0066151Y0209093D01*
X0068553Y0211495D01*
X0068553Y0214891D01*
X0066151Y0217293D01*
X0062754Y0217293D01*
X0060353Y0214891D01*
X0060353Y0211495D01*
X0062754Y0209093D01*
X0061659Y0210189D02*
X0057813Y0210189D01*
X0058811Y0211187D02*
X0060660Y0211187D01*
X0060353Y0212186D02*
X0058953Y0212186D01*
X0060353Y0213184D02*
X0054953Y0213184D01*
X0054953Y0212186D02*
X0053953Y0212186D01*
X0053953Y0212693D02*
X0053953Y0208693D01*
X0052589Y0208693D01*
X0049953Y0211329D01*
X0049953Y0212693D01*
X0053953Y0212693D01*
X0053953Y0213184D02*
X0048553Y0213184D01*
X0048553Y0212186D02*
X0049953Y0212186D01*
X0050094Y0211187D02*
X0048245Y0211187D01*
X0047247Y0210189D02*
X0051093Y0210189D01*
X0052091Y0209190D02*
X0046248Y0209190D01*
X0046151Y0207293D02*
X0042754Y0207293D01*
X0040353Y0204891D01*
X0040353Y0201495D01*
X0042754Y0199093D01*
X0046151Y0199093D01*
X0048553Y0201495D01*
X0048553Y0204891D01*
X0046151Y0207293D01*
X0046251Y0207193D02*
X0052655Y0207193D01*
X0051656Y0206195D02*
X0047249Y0206195D01*
X0048248Y0205196D02*
X0050658Y0205196D01*
X0050353Y0204198D02*
X0048553Y0204198D01*
X0048553Y0203199D02*
X0050353Y0203199D01*
X0050353Y0202201D02*
X0048553Y0202201D01*
X0048260Y0201202D02*
X0050645Y0201202D01*
X0051644Y0200204D02*
X0047262Y0200204D01*
X0046263Y0199205D02*
X0052642Y0199205D01*
X0042642Y0199205D02*
X0036263Y0199205D01*
X0037262Y0200204D02*
X0041644Y0200204D01*
X0040645Y0201202D02*
X0038260Y0201202D01*
X0038553Y0202201D02*
X0040353Y0202201D01*
X0040353Y0203199D02*
X0038553Y0203199D01*
X0038553Y0204198D02*
X0040353Y0204198D01*
X0040658Y0205196D02*
X0038248Y0205196D01*
X0037249Y0206195D02*
X0041656Y0206195D01*
X0042655Y0207193D02*
X0036251Y0207193D01*
X0036248Y0209190D02*
X0042657Y0209190D01*
X0041659Y0210189D02*
X0037247Y0210189D01*
X0038245Y0211187D02*
X0040660Y0211187D01*
X0040643Y0215181D02*
X0038263Y0215181D01*
X0037264Y0216180D02*
X0041642Y0216180D01*
X0042640Y0217178D02*
X0036265Y0217178D01*
X0032640Y0217178D02*
X0024036Y0217178D01*
X0025115Y0216180D02*
X0031642Y0216180D01*
X0030643Y0215181D02*
X0025692Y0215181D01*
X0026268Y0214183D02*
X0030353Y0214183D01*
X0030353Y0213184D02*
X0026845Y0213184D01*
X0027280Y0212186D02*
X0030353Y0212186D01*
X0030407Y0211187D02*
X0027456Y0211187D01*
X0027632Y0210189D02*
X0029409Y0210189D01*
X0028410Y0209190D02*
X0027808Y0209190D01*
X0027984Y0208192D02*
X0028300Y0208192D01*
X0028213Y0207193D02*
X0027808Y0207193D01*
X0027100Y0203199D02*
X0026844Y0203199D01*
X0027100Y0202201D02*
X0026267Y0202201D01*
X0025691Y0201202D02*
X0027100Y0201202D01*
X0027100Y0200204D02*
X0025114Y0200204D01*
X0024033Y0199205D02*
X0027100Y0199205D01*
X0027100Y0198207D02*
X0022843Y0198207D01*
X0021653Y0197208D02*
X0027100Y0197208D01*
X0027100Y0196210D02*
X0018938Y0196210D01*
X0011621Y0196210D02*
X0003000Y0196210D01*
X0003000Y0197208D02*
X0008906Y0197208D01*
X0007716Y0198207D02*
X0003000Y0198207D01*
X0003000Y0199205D02*
X0006526Y0199205D01*
X0005445Y0200204D02*
X0003000Y0200204D01*
X0003000Y0201202D02*
X0004868Y0201202D01*
X0004292Y0202201D02*
X0003000Y0202201D01*
X0003000Y0203199D02*
X0003715Y0203199D01*
X0003279Y0204198D02*
X0003000Y0204198D01*
X0003000Y0205196D02*
X0003103Y0205196D01*
X0003000Y0195211D02*
X0027100Y0195211D01*
X0027100Y0194213D02*
X0003000Y0194213D01*
X0003000Y0193214D02*
X0027100Y0193214D01*
X0027100Y0192216D02*
X0003000Y0192216D01*
X0003000Y0191217D02*
X0027100Y0191217D01*
X0027100Y0190219D02*
X0003000Y0190219D01*
X0003000Y0189220D02*
X0027100Y0189220D01*
X0027100Y0188222D02*
X0003000Y0188222D01*
X0003000Y0187223D02*
X0027100Y0187223D01*
X0027100Y0186225D02*
X0003000Y0186225D01*
X0003000Y0185226D02*
X0027100Y0185226D01*
X0027993Y0184228D02*
X0003000Y0184228D01*
X0013003Y0174242D02*
X0014578Y0174242D01*
X0036852Y0173244D02*
X0056699Y0173244D01*
X0056699Y0172245D02*
X0036852Y0172245D01*
X0036852Y0171247D02*
X0056699Y0171247D01*
X0056699Y0170248D02*
X0036852Y0170248D01*
X0036852Y0169250D02*
X0056699Y0169250D01*
X0056699Y0168251D02*
X0036852Y0168251D01*
X0036852Y0176239D02*
X0056699Y0176239D01*
X0056699Y0180234D02*
X0036852Y0180234D01*
X0036852Y0181232D02*
X0056699Y0181232D01*
X0064411Y0172245D02*
X0068775Y0172245D01*
X0069773Y0171247D02*
X0064411Y0171247D01*
X0064411Y0170248D02*
X0070772Y0170248D01*
X0071770Y0169250D02*
X0064411Y0169250D01*
X0064411Y0168251D02*
X0072769Y0168251D01*
X0073767Y0167253D02*
X0060500Y0167253D01*
X0060234Y0166254D02*
X0074766Y0166254D01*
X0075764Y0165256D02*
X0059236Y0165256D01*
X0065652Y0154272D02*
X0074200Y0154272D01*
X0073894Y0153274D02*
X0064654Y0153274D01*
X0087288Y0130308D02*
X0125328Y0130308D01*
X0124330Y0129309D02*
X0086289Y0129309D01*
X0085291Y0128311D02*
X0123331Y0128311D01*
X0122333Y0127312D02*
X0084292Y0127312D01*
X0083294Y0126314D02*
X0121334Y0126314D01*
X0120336Y0125315D02*
X0082295Y0125315D01*
X0081297Y0124317D02*
X0119337Y0124317D01*
X0118338Y0123318D02*
X0080298Y0123318D01*
X0079300Y0122320D02*
X0117340Y0122320D01*
X0116341Y0121321D02*
X0078301Y0121321D01*
X0077303Y0120323D02*
X0115343Y0120323D01*
X0114344Y0119324D02*
X0076304Y0119324D01*
X0075306Y0118326D02*
X0113346Y0118326D01*
X0112347Y0117327D02*
X0074307Y0117327D01*
X0073309Y0116329D02*
X0111349Y0116329D01*
X0110350Y0115330D02*
X0072310Y0115330D01*
X0071312Y0114332D02*
X0109352Y0114332D01*
X0108353Y0113333D02*
X0070313Y0113333D01*
X0069315Y0112335D02*
X0107355Y0112335D01*
X0106356Y0111336D02*
X0068316Y0111336D01*
X0067318Y0110338D02*
X0079963Y0110338D01*
X0079613Y0109339D02*
X0066319Y0109339D01*
X0065321Y0108341D02*
X0078761Y0108341D01*
X0077762Y0107342D02*
X0064322Y0107342D01*
X0062359Y0109339D02*
X0060080Y0109339D01*
X0060080Y0108341D02*
X0061361Y0108341D01*
X0060362Y0107342D02*
X0060080Y0107342D01*
X0059769Y0110338D02*
X0063358Y0110338D01*
X0068684Y0106344D02*
X0076764Y0106344D01*
X0076300Y0105345D02*
X0068742Y0105345D01*
X0068742Y0104347D02*
X0076300Y0104347D01*
X0076300Y0103348D02*
X0068742Y0103348D01*
X0068742Y0102350D02*
X0076300Y0102350D01*
X0076300Y0101351D02*
X0068655Y0101351D01*
X0066500Y0100353D02*
X0076300Y0100353D01*
X0076300Y0099354D02*
X0066500Y0099354D01*
X0066500Y0098356D02*
X0076300Y0098356D01*
X0076300Y0097357D02*
X0066500Y0097357D01*
X0066500Y0096359D02*
X0076300Y0096359D01*
X0076300Y0095360D02*
X0066500Y0095360D01*
X0066500Y0094362D02*
X0076300Y0094362D01*
X0076300Y0093363D02*
X0066500Y0093363D01*
X0066500Y0092365D02*
X0076300Y0092365D01*
X0076300Y0091366D02*
X0066500Y0091366D01*
X0066500Y0090368D02*
X0076300Y0090368D01*
X0076300Y0089369D02*
X0066500Y0089369D01*
X0066500Y0088370D02*
X0076300Y0088370D01*
X0076300Y0087372D02*
X0066500Y0087372D01*
X0066500Y0086373D02*
X0076300Y0086373D01*
X0076300Y0085375D02*
X0066500Y0085375D01*
X0066500Y0084376D02*
X0076300Y0084376D01*
X0076300Y0083378D02*
X0066500Y0083378D01*
X0066500Y0082379D02*
X0076300Y0082379D01*
X0076300Y0081381D02*
X0066500Y0081381D01*
X0066500Y0080382D02*
X0076300Y0080382D01*
X0076300Y0079384D02*
X0067954Y0079384D01*
X0067954Y0078385D02*
X0076300Y0078385D01*
X0076300Y0077387D02*
X0067954Y0077387D01*
X0067954Y0076388D02*
X0076300Y0076388D01*
X0076300Y0075390D02*
X0067954Y0075390D01*
X0067954Y0074391D02*
X0076300Y0074391D01*
X0076300Y0073393D02*
X0067954Y0073393D01*
X0067454Y0072394D02*
X0076300Y0072394D01*
X0076300Y0071396D02*
X0067984Y0071396D01*
X0068983Y0070397D02*
X0076300Y0070397D01*
X0076300Y0069399D02*
X0069981Y0069399D01*
X0070980Y0068400D02*
X0076300Y0068400D01*
X0076300Y0067402D02*
X0071978Y0067402D01*
X0072977Y0066403D02*
X0076300Y0066403D01*
X0076300Y0065405D02*
X0073975Y0065405D01*
X0074974Y0064406D02*
X0076300Y0064406D01*
X0076300Y0063408D02*
X0075972Y0063408D01*
X0074009Y0061411D02*
X0058100Y0061411D01*
X0058100Y0062409D02*
X0073011Y0062409D01*
X0072012Y0063408D02*
X0058100Y0063408D01*
X0058100Y0064406D02*
X0071014Y0064406D01*
X0070015Y0065405D02*
X0058100Y0065405D01*
X0058100Y0066403D02*
X0069017Y0066403D01*
X0068018Y0067402D02*
X0058100Y0067402D01*
X0058100Y0068400D02*
X0067020Y0068400D01*
X0066021Y0069399D02*
X0058100Y0069399D01*
X0058100Y0070397D02*
X0065023Y0070397D01*
X0064024Y0071396D02*
X0058100Y0071396D01*
X0059974Y0072394D02*
X0061137Y0072394D01*
X0060636Y0073393D02*
X0060474Y0073393D01*
X0060474Y0074391D02*
X0060636Y0074391D01*
X0060636Y0075390D02*
X0060474Y0075390D01*
X0060474Y0076388D02*
X0060636Y0076388D01*
X0060636Y0077387D02*
X0060474Y0077387D01*
X0060474Y0078385D02*
X0060636Y0078385D01*
X0060636Y0079384D02*
X0060474Y0079384D01*
X0058100Y0080382D02*
X0063700Y0080382D01*
X0063700Y0081381D02*
X0058100Y0081381D01*
X0058100Y0082379D02*
X0063700Y0082379D01*
X0063700Y0083378D02*
X0058100Y0083378D01*
X0058100Y0084376D02*
X0063700Y0084376D01*
X0063700Y0085375D02*
X0058100Y0085375D01*
X0058100Y0086373D02*
X0063700Y0086373D01*
X0063700Y0087372D02*
X0058100Y0087372D01*
X0058100Y0088370D02*
X0063700Y0088370D01*
X0063700Y0089369D02*
X0058100Y0089369D01*
X0058100Y0090368D02*
X0063700Y0090368D01*
X0063700Y0091366D02*
X0058546Y0091366D01*
X0059544Y0092365D02*
X0063700Y0092365D01*
X0063700Y0093363D02*
X0060543Y0093363D01*
X0061541Y0094362D02*
X0063700Y0094362D01*
X0063700Y0095360D02*
X0062540Y0095360D01*
X0063500Y0096359D02*
X0063700Y0096359D01*
X0063700Y0097357D02*
X0063500Y0097357D01*
X0063500Y0098356D02*
X0063700Y0098356D01*
X0063700Y0099354D02*
X0063500Y0099354D01*
X0063500Y0100353D02*
X0063700Y0100353D01*
X0060700Y0099920D02*
X0060700Y0097480D01*
X0055300Y0092080D01*
X0055300Y0080356D01*
X0053800Y0080356D01*
X0053156Y0079712D01*
X0053156Y0072895D01*
X0053800Y0072250D01*
X0055300Y0072250D01*
X0055300Y0038720D01*
X0066980Y0027040D01*
X0066401Y0026461D01*
X0065736Y0024855D01*
X0065725Y0024926D01*
X0065467Y0025720D01*
X0065088Y0026463D01*
X0064598Y0027138D01*
X0064008Y0027728D01*
X0063333Y0028218D01*
X0062590Y0028597D01*
X0061796Y0028855D01*
X0061055Y0028972D01*
X0061055Y0024185D01*
X0060055Y0024185D01*
X0060055Y0028972D01*
X0059314Y0028855D01*
X0058521Y0028597D01*
X0057777Y0028218D01*
X0057102Y0027728D01*
X0056512Y0027138D01*
X0056022Y0026463D01*
X0055643Y0025720D01*
X0055455Y0025140D01*
X0055455Y0027941D01*
X0054811Y0028585D01*
X0051500Y0028585D01*
X0051500Y0104720D01*
X0052369Y0105589D01*
X0052369Y0105178D01*
X0053013Y0104534D01*
X0059436Y0104534D01*
X0059500Y0104598D01*
X0059500Y0103504D01*
X0059178Y0103591D01*
X0056709Y0103591D01*
X0056709Y0100606D01*
X0060014Y0100606D01*
X0060320Y0100300D01*
X0060700Y0099920D01*
X0060480Y0099638D02*
X0056709Y0099638D01*
X0056709Y0100606D01*
X0055740Y0100606D01*
X0055740Y0099638D01*
X0051969Y0099638D01*
X0051969Y0097956D01*
X0052071Y0097575D01*
X0052268Y0097233D01*
X0052547Y0096953D01*
X0052890Y0096756D01*
X0053271Y0096654D01*
X0055740Y0096654D01*
X0055740Y0099638D01*
X0056709Y0099638D01*
X0056709Y0096654D01*
X0059178Y0096654D01*
X0059559Y0096756D01*
X0059901Y0096953D01*
X0060181Y0097233D01*
X0060378Y0097575D01*
X0060480Y0097956D01*
X0060480Y0099638D01*
X0060480Y0099354D02*
X0060700Y0099354D01*
X0060700Y0098356D02*
X0060480Y0098356D01*
X0060577Y0097357D02*
X0060253Y0097357D01*
X0059579Y0096359D02*
X0051500Y0096359D01*
X0051500Y0097357D02*
X0052196Y0097357D01*
X0051969Y0098356D02*
X0051500Y0098356D01*
X0051500Y0099354D02*
X0051969Y0099354D01*
X0051500Y0100353D02*
X0055740Y0100353D01*
X0055740Y0100606D02*
X0051969Y0100606D01*
X0051969Y0102288D01*
X0052071Y0102670D01*
X0052268Y0103012D01*
X0052547Y0103291D01*
X0052890Y0103488D01*
X0053271Y0103591D01*
X0055740Y0103591D01*
X0055740Y0100606D01*
X0055740Y0101351D02*
X0056709Y0101351D01*
X0056709Y0100353D02*
X0060267Y0100353D01*
X0056709Y0099354D02*
X0055740Y0099354D01*
X0055740Y0098356D02*
X0056709Y0098356D01*
X0056709Y0097357D02*
X0055740Y0097357D01*
X0058580Y0095360D02*
X0051500Y0095360D01*
X0051500Y0094362D02*
X0057582Y0094362D01*
X0056583Y0093363D02*
X0051500Y0093363D01*
X0051500Y0092365D02*
X0055585Y0092365D01*
X0055300Y0091366D02*
X0051500Y0091366D01*
X0051500Y0090368D02*
X0055300Y0090368D01*
X0055300Y0089369D02*
X0051500Y0089369D01*
X0051500Y0088370D02*
X0055300Y0088370D01*
X0055300Y0087372D02*
X0051500Y0087372D01*
X0051500Y0086373D02*
X0055300Y0086373D01*
X0055300Y0085375D02*
X0051500Y0085375D01*
X0051500Y0084376D02*
X0055300Y0084376D01*
X0055300Y0083378D02*
X0051500Y0083378D01*
X0051500Y0082379D02*
X0055300Y0082379D01*
X0055300Y0081381D02*
X0051500Y0081381D01*
X0051500Y0080382D02*
X0055300Y0080382D01*
X0053156Y0079384D02*
X0051500Y0079384D01*
X0051500Y0078385D02*
X0053156Y0078385D01*
X0053156Y0077387D02*
X0051500Y0077387D01*
X0051500Y0076388D02*
X0053156Y0076388D01*
X0053156Y0075390D02*
X0051500Y0075390D01*
X0051500Y0074391D02*
X0053156Y0074391D01*
X0053156Y0073393D02*
X0051500Y0073393D01*
X0051500Y0072394D02*
X0053656Y0072394D01*
X0055300Y0071396D02*
X0051500Y0071396D01*
X0051500Y0070397D02*
X0055300Y0070397D01*
X0055300Y0069399D02*
X0051500Y0069399D01*
X0051500Y0068400D02*
X0055300Y0068400D01*
X0055300Y0067402D02*
X0051500Y0067402D01*
X0051500Y0066403D02*
X0055300Y0066403D01*
X0055300Y0065405D02*
X0051500Y0065405D01*
X0051500Y0064406D02*
X0055300Y0064406D01*
X0055300Y0063408D02*
X0051500Y0063408D01*
X0051500Y0062409D02*
X0055300Y0062409D01*
X0055300Y0061411D02*
X0051500Y0061411D01*
X0051500Y0060412D02*
X0055300Y0060412D01*
X0055300Y0059414D02*
X0051500Y0059414D01*
X0051500Y0058415D02*
X0055300Y0058415D01*
X0055300Y0057417D02*
X0051500Y0057417D01*
X0051500Y0056418D02*
X0055300Y0056418D01*
X0055300Y0055420D02*
X0051500Y0055420D01*
X0051500Y0054421D02*
X0055300Y0054421D01*
X0055300Y0053423D02*
X0051500Y0053423D01*
X0051500Y0052424D02*
X0055300Y0052424D01*
X0055300Y0051426D02*
X0051500Y0051426D01*
X0051500Y0050427D02*
X0055300Y0050427D01*
X0055300Y0049429D02*
X0051500Y0049429D01*
X0051500Y0048430D02*
X0055300Y0048430D01*
X0055300Y0047432D02*
X0051500Y0047432D01*
X0051500Y0046433D02*
X0055300Y0046433D01*
X0055300Y0045434D02*
X0051500Y0045434D01*
X0051500Y0044436D02*
X0055300Y0044436D01*
X0055300Y0043437D02*
X0051500Y0043437D01*
X0051500Y0042439D02*
X0055300Y0042439D01*
X0055300Y0041440D02*
X0051500Y0041440D01*
X0051500Y0040442D02*
X0055300Y0040442D01*
X0055300Y0039443D02*
X0051500Y0039443D01*
X0051500Y0038445D02*
X0055575Y0038445D01*
X0056574Y0037446D02*
X0051500Y0037446D01*
X0051500Y0036448D02*
X0057572Y0036448D01*
X0058571Y0035449D02*
X0051500Y0035449D01*
X0051500Y0034451D02*
X0059569Y0034451D01*
X0060568Y0033452D02*
X0051500Y0033452D01*
X0051500Y0032454D02*
X0061566Y0032454D01*
X0062565Y0031455D02*
X0051500Y0031455D01*
X0051500Y0030457D02*
X0063563Y0030457D01*
X0064562Y0029458D02*
X0051500Y0029458D01*
X0048700Y0029458D02*
X0003000Y0029458D01*
X0003000Y0028460D02*
X0046174Y0028460D01*
X0045655Y0027461D02*
X0018392Y0027461D01*
X0021136Y0026463D02*
X0045655Y0026463D01*
X0045655Y0025464D02*
X0022607Y0025464D01*
X0023797Y0024466D02*
X0045655Y0024466D01*
X0045655Y0023467D02*
X0024987Y0023467D01*
X0025576Y0022469D02*
X0045655Y0022469D01*
X0045655Y0021470D02*
X0026153Y0021470D01*
X0026729Y0020472D02*
X0045655Y0020472D01*
X0045655Y0019473D02*
X0027245Y0019473D01*
X0027421Y0018475D02*
X0059572Y0018475D01*
X0060055Y0018475D02*
X0061055Y0018475D01*
X0061538Y0018475D02*
X0231485Y0018475D01*
X0231661Y0019473D02*
X0073191Y0019473D01*
X0074271Y0020472D02*
X0232176Y0020472D01*
X0232753Y0021470D02*
X0095377Y0021470D01*
X0095531Y0021560D02*
X0095811Y0021839D01*
X0096008Y0022181D01*
X0096110Y0022562D01*
X0096110Y0024622D01*
X0092748Y0024622D01*
X0092748Y0021260D01*
X0094808Y0021260D01*
X0095189Y0021362D01*
X0095531Y0021560D01*
X0096085Y0022469D02*
X0135636Y0022469D01*
X0135636Y0023467D02*
X0096110Y0023467D01*
X0096110Y0024466D02*
X0135636Y0024466D01*
X0135636Y0025464D02*
X0092748Y0025464D01*
X0092748Y0025622D02*
X0096110Y0025622D01*
X0096110Y0027682D01*
X0096008Y0028063D01*
X0095811Y0028405D01*
X0095531Y0028685D01*
X0095189Y0028882D01*
X0094808Y0028984D01*
X0092748Y0028984D01*
X0092748Y0025622D01*
X0092748Y0024622D01*
X0091748Y0024622D01*
X0091748Y0021260D01*
X0089688Y0021260D01*
X0089307Y0021362D01*
X0088965Y0021560D01*
X0088686Y0021839D01*
X0088488Y0022181D01*
X0088386Y0022562D01*
X0088386Y0024622D01*
X0091748Y0024622D01*
X0091748Y0025622D01*
X0088386Y0025622D01*
X0088386Y0027682D01*
X0088488Y0028063D01*
X0088686Y0028405D01*
X0088965Y0028685D01*
X0089307Y0028882D01*
X0089688Y0028984D01*
X0091748Y0028984D01*
X0091748Y0025622D01*
X0092748Y0025622D01*
X0092748Y0026463D02*
X0091748Y0026463D01*
X0091748Y0027461D02*
X0092748Y0027461D01*
X0092748Y0028460D02*
X0091748Y0028460D01*
X0091748Y0025464D02*
X0087443Y0025464D01*
X0087443Y0024466D02*
X0088386Y0024466D01*
X0088386Y0023467D02*
X0087443Y0023467D01*
X0087443Y0022469D02*
X0088411Y0022469D01*
X0089120Y0021470D02*
X0074941Y0021470D01*
X0075355Y0022469D02*
X0080518Y0022469D01*
X0080518Y0023467D02*
X0075455Y0023467D01*
X0075455Y0024466D02*
X0080518Y0024466D01*
X0080518Y0025464D02*
X0075122Y0025464D01*
X0074707Y0026463D02*
X0080518Y0026463D01*
X0080518Y0027461D02*
X0073708Y0027461D01*
X0071832Y0028460D02*
X0081038Y0028460D01*
X0082900Y0029458D02*
X0068522Y0029458D01*
X0067523Y0030457D02*
X0082900Y0030457D01*
X0082900Y0031455D02*
X0066525Y0031455D01*
X0065526Y0032454D02*
X0082900Y0032454D01*
X0082900Y0033452D02*
X0064528Y0033452D01*
X0063529Y0034451D02*
X0082900Y0034451D01*
X0082900Y0035449D02*
X0062530Y0035449D01*
X0061532Y0036448D02*
X0082900Y0036448D01*
X0082900Y0037446D02*
X0060533Y0037446D01*
X0059535Y0038445D02*
X0082900Y0038445D01*
X0082900Y0039443D02*
X0058536Y0039443D01*
X0058100Y0040442D02*
X0082900Y0040442D01*
X0080831Y0041440D02*
X0058100Y0041440D01*
X0058100Y0042439D02*
X0080538Y0042439D01*
X0080538Y0043437D02*
X0058100Y0043437D01*
X0058100Y0044436D02*
X0080538Y0044436D01*
X0080538Y0045434D02*
X0058100Y0045434D01*
X0058100Y0046433D02*
X0080538Y0046433D01*
X0080538Y0047432D02*
X0058100Y0047432D01*
X0058100Y0048430D02*
X0080538Y0048430D01*
X0082900Y0049429D02*
X0058100Y0049429D01*
X0058100Y0050427D02*
X0082900Y0050427D01*
X0082900Y0051426D02*
X0058100Y0051426D01*
X0058100Y0052424D02*
X0082900Y0052424D01*
X0081998Y0053423D02*
X0058100Y0053423D01*
X0058100Y0054421D02*
X0080999Y0054421D01*
X0080000Y0055420D02*
X0058100Y0055420D01*
X0058100Y0056418D02*
X0079002Y0056418D01*
X0078003Y0057417D02*
X0058100Y0057417D01*
X0058100Y0058415D02*
X0077005Y0058415D01*
X0076006Y0059414D02*
X0058100Y0059414D01*
X0058100Y0060412D02*
X0075008Y0060412D01*
X0079100Y0063408D02*
X0132100Y0063408D01*
X0132100Y0064406D02*
X0079100Y0064406D01*
X0079100Y0065405D02*
X0132100Y0065405D01*
X0132100Y0066403D02*
X0079100Y0066403D01*
X0079100Y0067402D02*
X0132100Y0067402D01*
X0132100Y0068400D02*
X0079100Y0068400D01*
X0079100Y0069399D02*
X0132100Y0069399D01*
X0132100Y0070397D02*
X0079100Y0070397D01*
X0079100Y0071396D02*
X0132100Y0071396D01*
X0132100Y0072394D02*
X0095013Y0072394D01*
X0095513Y0073393D02*
X0132100Y0073393D01*
X0132100Y0074391D02*
X0095513Y0074391D01*
X0095513Y0075390D02*
X0132100Y0075390D01*
X0132100Y0076388D02*
X0095513Y0076388D01*
X0095513Y0077387D02*
X0132100Y0077387D01*
X0132100Y0078385D02*
X0095513Y0078385D01*
X0095513Y0079384D02*
X0132100Y0079384D01*
X0132100Y0080382D02*
X0093500Y0080382D01*
X0093500Y0081381D02*
X0132100Y0081381D01*
X0132100Y0082379D02*
X0093500Y0082379D01*
X0093500Y0083378D02*
X0132100Y0083378D01*
X0132100Y0084376D02*
X0093500Y0084376D01*
X0093500Y0085375D02*
X0132100Y0085375D01*
X0132100Y0086373D02*
X0093500Y0086373D01*
X0093500Y0087372D02*
X0132100Y0087372D01*
X0132100Y0088370D02*
X0093500Y0088370D01*
X0093500Y0089369D02*
X0132100Y0089369D01*
X0132100Y0090368D02*
X0093500Y0090368D01*
X0093500Y0091366D02*
X0132100Y0091366D01*
X0132100Y0092365D02*
X0093500Y0092365D01*
X0094143Y0093363D02*
X0132100Y0093363D01*
X0132100Y0094362D02*
X0095141Y0094362D01*
X0096140Y0095360D02*
X0132100Y0095360D01*
X0132100Y0096359D02*
X0097138Y0096359D01*
X0098137Y0097357D02*
X0132100Y0097357D01*
X0132100Y0098356D02*
X0099135Y0098356D01*
X0100134Y0099354D02*
X0132100Y0099354D01*
X0132100Y0100353D02*
X0101133Y0100353D01*
X0102131Y0101351D02*
X0132100Y0101351D01*
X0132100Y0102350D02*
X0103130Y0102350D01*
X0104128Y0103348D02*
X0132100Y0103348D01*
X0132100Y0104347D02*
X0105127Y0104347D01*
X0106125Y0105345D02*
X0132100Y0105345D01*
X0132100Y0106344D02*
X0107124Y0106344D01*
X0108122Y0107342D02*
X0132100Y0107342D01*
X0132100Y0108341D02*
X0109121Y0108341D01*
X0110119Y0109339D02*
X0132100Y0109339D01*
X0132100Y0110338D02*
X0111118Y0110338D01*
X0112116Y0111336D02*
X0132100Y0111336D01*
X0132100Y0112335D02*
X0113115Y0112335D01*
X0114113Y0113333D02*
X0132100Y0113333D01*
X0132100Y0114332D02*
X0115112Y0114332D01*
X0116110Y0115330D02*
X0132100Y0115330D01*
X0132100Y0116329D02*
X0117109Y0116329D01*
X0118107Y0117327D02*
X0132100Y0117327D01*
X0132100Y0118326D02*
X0119106Y0118326D01*
X0120104Y0119324D02*
X0132100Y0119324D01*
X0132100Y0120323D02*
X0121103Y0120323D01*
X0122101Y0121321D02*
X0132100Y0121321D01*
X0132100Y0122320D02*
X0123100Y0122320D01*
X0124098Y0123318D02*
X0132100Y0123318D01*
X0132100Y0124317D02*
X0125097Y0124317D01*
X0126095Y0125315D02*
X0132100Y0125315D01*
X0132100Y0126314D02*
X0127094Y0126314D01*
X0128092Y0127312D02*
X0132100Y0127312D01*
X0132100Y0128311D02*
X0129091Y0128311D01*
X0130089Y0129309D02*
X0132100Y0129309D01*
X0132100Y0130308D02*
X0131088Y0130308D01*
X0132086Y0131306D02*
X0132100Y0131306D01*
X0126327Y0131306D02*
X0088286Y0131306D01*
X0086974Y0110338D02*
X0105358Y0110338D01*
X0104359Y0109339D02*
X0087324Y0109339D01*
X0087324Y0108341D02*
X0103361Y0108341D01*
X0102362Y0107342D02*
X0087324Y0107342D01*
X0087324Y0106344D02*
X0088371Y0106344D01*
X0088274Y0105345D02*
X0087324Y0105345D01*
X0088274Y0104347D02*
X0079100Y0104347D01*
X0079100Y0103348D02*
X0079959Y0103348D01*
X0079792Y0103251D02*
X0079512Y0102972D01*
X0079315Y0102630D01*
X0079213Y0102249D01*
X0079213Y0100567D01*
X0082984Y0100567D01*
X0082984Y0099598D01*
X0083953Y0099598D01*
X0083953Y0096614D01*
X0086422Y0096614D01*
X0086803Y0096716D01*
X0087145Y0096914D01*
X0087425Y0097193D01*
X0087622Y0097535D01*
X0087724Y0097917D01*
X0087724Y0099598D01*
X0083953Y0099598D01*
X0083953Y0100567D01*
X0087724Y0100567D01*
X0087724Y0102249D01*
X0087622Y0102630D01*
X0087425Y0102972D01*
X0087145Y0103251D01*
X0086803Y0103449D01*
X0086422Y0103551D01*
X0083953Y0103551D01*
X0083953Y0100567D01*
X0082984Y0100567D01*
X0082984Y0103551D01*
X0080515Y0103551D01*
X0080134Y0103449D01*
X0079792Y0103251D01*
X0079240Y0102350D02*
X0079100Y0102350D01*
X0079100Y0101351D02*
X0079213Y0101351D01*
X0079100Y0100353D02*
X0082984Y0100353D01*
X0082984Y0099598D02*
X0079213Y0099598D01*
X0079213Y0097917D01*
X0079315Y0097535D01*
X0079512Y0097193D01*
X0079792Y0096914D01*
X0080134Y0096716D01*
X0080515Y0096614D01*
X0082984Y0096614D01*
X0082984Y0099598D01*
X0082984Y0099354D02*
X0083953Y0099354D01*
X0083953Y0098356D02*
X0082984Y0098356D01*
X0082984Y0097357D02*
X0083953Y0097357D01*
X0083953Y0100353D02*
X0090700Y0100353D01*
X0090700Y0099354D02*
X0087724Y0099354D01*
X0087724Y0098356D02*
X0090700Y0098356D01*
X0090700Y0097357D02*
X0087519Y0097357D01*
X0090380Y0095360D02*
X0079100Y0095360D01*
X0079100Y0094362D02*
X0089382Y0094362D01*
X0088383Y0093363D02*
X0079100Y0093363D01*
X0079100Y0092365D02*
X0087385Y0092365D01*
X0086386Y0091366D02*
X0079100Y0091366D01*
X0079100Y0090368D02*
X0085388Y0090368D01*
X0084389Y0089369D02*
X0079100Y0089369D01*
X0079100Y0088370D02*
X0084100Y0088370D01*
X0084100Y0087372D02*
X0079100Y0087372D01*
X0079100Y0086373D02*
X0084100Y0086373D01*
X0084100Y0085375D02*
X0079100Y0085375D01*
X0079100Y0084376D02*
X0084100Y0084376D01*
X0084100Y0083378D02*
X0079100Y0083378D01*
X0079100Y0082379D02*
X0084100Y0082379D01*
X0084100Y0081381D02*
X0079100Y0081381D01*
X0079100Y0080382D02*
X0084100Y0080382D01*
X0086900Y0080382D02*
X0090700Y0080382D01*
X0090700Y0081381D02*
X0086900Y0081381D01*
X0086900Y0082379D02*
X0090700Y0082379D01*
X0090700Y0083378D02*
X0086900Y0083378D01*
X0086900Y0084376D02*
X0090700Y0084376D01*
X0090700Y0085375D02*
X0086900Y0085375D01*
X0086900Y0086373D02*
X0090700Y0086373D01*
X0090700Y0087372D02*
X0086900Y0087372D01*
X0087350Y0088370D02*
X0090700Y0088370D01*
X0090700Y0089369D02*
X0088349Y0089369D01*
X0089347Y0090368D02*
X0090700Y0090368D01*
X0090700Y0091366D02*
X0090346Y0091366D01*
X0090700Y0096359D02*
X0079100Y0096359D01*
X0079100Y0097357D02*
X0079418Y0097357D01*
X0079213Y0098356D02*
X0079100Y0098356D01*
X0079100Y0099354D02*
X0079213Y0099354D01*
X0082984Y0101351D02*
X0083953Y0101351D01*
X0083953Y0102350D02*
X0082984Y0102350D01*
X0082984Y0103348D02*
X0083953Y0103348D01*
X0086978Y0103348D02*
X0088274Y0103348D01*
X0088274Y0102350D02*
X0087697Y0102350D01*
X0087724Y0101351D02*
X0088322Y0101351D01*
X0095889Y0106344D02*
X0101364Y0106344D01*
X0088195Y0079384D02*
X0088033Y0079384D01*
X0088033Y0078385D02*
X0088195Y0078385D01*
X0088195Y0077387D02*
X0088033Y0077387D01*
X0088033Y0076388D02*
X0088195Y0076388D01*
X0088195Y0075390D02*
X0088033Y0075390D01*
X0088033Y0074391D02*
X0088195Y0074391D01*
X0088195Y0073393D02*
X0088033Y0073393D01*
X0087533Y0072394D02*
X0088696Y0072394D01*
X0081215Y0072394D02*
X0079100Y0072394D01*
X0079100Y0073393D02*
X0080715Y0073393D01*
X0080715Y0074391D02*
X0079100Y0074391D01*
X0079100Y0075390D02*
X0080715Y0075390D01*
X0080715Y0076388D02*
X0079100Y0076388D01*
X0079100Y0077387D02*
X0080715Y0077387D01*
X0080715Y0078385D02*
X0079100Y0078385D01*
X0079100Y0079384D02*
X0080715Y0079384D01*
X0079971Y0062409D02*
X0132100Y0062409D01*
X0132100Y0061411D02*
X0080969Y0061411D01*
X0081968Y0060412D02*
X0132100Y0060412D01*
X0132100Y0059414D02*
X0082966Y0059414D01*
X0083965Y0058415D02*
X0132100Y0058415D01*
X0132100Y0057417D02*
X0084963Y0057417D01*
X0085962Y0056418D02*
X0132100Y0056418D01*
X0132800Y0055420D02*
X0086960Y0055420D01*
X0087959Y0054421D02*
X0133799Y0054421D01*
X0134798Y0053423D02*
X0088957Y0053423D01*
X0089956Y0052424D02*
X0135796Y0052424D01*
X0136795Y0051426D02*
X0090954Y0051426D01*
X0091953Y0050427D02*
X0137793Y0050427D01*
X0138100Y0049429D02*
X0092951Y0049429D01*
X0095336Y0048430D02*
X0138100Y0048430D01*
X0138100Y0047432D02*
X0095336Y0047432D01*
X0095336Y0046433D02*
X0138100Y0046433D01*
X0138100Y0045434D02*
X0095336Y0045434D01*
X0095336Y0044436D02*
X0138100Y0044436D01*
X0138100Y0043437D02*
X0095336Y0043437D01*
X0095336Y0042439D02*
X0138100Y0042439D01*
X0138100Y0041440D02*
X0095043Y0041440D01*
X0088311Y0041440D02*
X0087563Y0041440D01*
X0087856Y0042439D02*
X0088018Y0042439D01*
X0088018Y0043437D02*
X0087856Y0043437D01*
X0087856Y0044436D02*
X0088018Y0044436D01*
X0088018Y0045434D02*
X0087856Y0045434D01*
X0087856Y0046433D02*
X0088018Y0046433D01*
X0088018Y0047432D02*
X0087856Y0047432D01*
X0087856Y0048430D02*
X0088018Y0048430D01*
X0088992Y0049429D02*
X0085700Y0049429D01*
X0085700Y0050427D02*
X0087993Y0050427D01*
X0086995Y0051426D02*
X0085700Y0051426D01*
X0085700Y0052424D02*
X0085996Y0052424D01*
X0085700Y0040442D02*
X0138100Y0040442D01*
X0138100Y0039443D02*
X0085700Y0039443D01*
X0085700Y0038445D02*
X0138100Y0038445D01*
X0138100Y0037446D02*
X0085700Y0037446D01*
X0085700Y0036448D02*
X0138100Y0036448D01*
X0138100Y0035449D02*
X0085700Y0035449D01*
X0085700Y0034451D02*
X0138100Y0034451D01*
X0138100Y0033452D02*
X0085700Y0033452D01*
X0085700Y0032454D02*
X0138100Y0032454D01*
X0138100Y0031455D02*
X0085700Y0031455D01*
X0085700Y0030457D02*
X0138100Y0030457D01*
X0138100Y0029458D02*
X0085700Y0029458D01*
X0086923Y0028460D02*
X0088740Y0028460D01*
X0088386Y0027461D02*
X0087443Y0027461D01*
X0087443Y0026463D02*
X0088386Y0026463D01*
X0091748Y0024466D02*
X0092748Y0024466D01*
X0092748Y0023467D02*
X0091748Y0023467D01*
X0091748Y0022469D02*
X0092748Y0022469D01*
X0092748Y0021470D02*
X0091748Y0021470D01*
X0096110Y0026463D02*
X0135636Y0026463D01*
X0135636Y0027461D02*
X0096110Y0027461D01*
X0095756Y0028460D02*
X0136156Y0028460D01*
X0140900Y0029458D02*
X0146500Y0029458D01*
X0146500Y0030457D02*
X0140900Y0030457D01*
X0140900Y0031455D02*
X0146500Y0031455D01*
X0146500Y0032454D02*
X0140900Y0032454D01*
X0140900Y0033452D02*
X0146500Y0033452D01*
X0146500Y0034451D02*
X0140900Y0034451D01*
X0140900Y0035449D02*
X0146500Y0035449D01*
X0146500Y0036448D02*
X0140900Y0036448D01*
X0140900Y0037446D02*
X0146500Y0037446D01*
X0146500Y0038445D02*
X0140900Y0038445D01*
X0140900Y0039443D02*
X0146500Y0039443D01*
X0146500Y0040442D02*
X0140900Y0040442D01*
X0140900Y0041440D02*
X0146500Y0041440D01*
X0146500Y0042439D02*
X0140900Y0042439D01*
X0140900Y0043437D02*
X0146500Y0043437D01*
X0146500Y0044436D02*
X0140900Y0044436D01*
X0140900Y0045434D02*
X0146500Y0045434D01*
X0146500Y0046433D02*
X0140900Y0046433D01*
X0140900Y0047432D02*
X0146500Y0047432D01*
X0146500Y0048430D02*
X0140900Y0048430D01*
X0140900Y0049429D02*
X0146500Y0049429D01*
X0146500Y0050427D02*
X0140900Y0050427D01*
X0140754Y0051426D02*
X0146500Y0051426D01*
X0146500Y0052424D02*
X0139756Y0052424D01*
X0138757Y0053423D02*
X0146500Y0053423D01*
X0146500Y0054421D02*
X0137759Y0054421D01*
X0136760Y0055420D02*
X0146500Y0055420D01*
X0146500Y0056418D02*
X0142988Y0056418D01*
X0139992Y0056418D02*
X0138992Y0056418D01*
X0138992Y0056102D02*
X0138992Y0060055D01*
X0135433Y0060055D01*
X0135433Y0057405D01*
X0135535Y0057023D01*
X0135733Y0056681D01*
X0136012Y0056402D01*
X0136354Y0056205D01*
X0136736Y0056102D01*
X0138992Y0056102D01*
X0138992Y0057417D02*
X0139992Y0057417D01*
X0139992Y0058415D02*
X0138992Y0058415D01*
X0138992Y0059414D02*
X0139992Y0059414D01*
X0138992Y0060412D02*
X0134900Y0060412D01*
X0135433Y0061055D02*
X0138992Y0061055D01*
X0138992Y0065008D01*
X0136736Y0065008D01*
X0136354Y0064906D01*
X0136012Y0064708D01*
X0135733Y0064429D01*
X0135535Y0064087D01*
X0135433Y0063705D01*
X0135433Y0061055D01*
X0135433Y0061411D02*
X0134900Y0061411D01*
X0134900Y0062409D02*
X0135433Y0062409D01*
X0135433Y0063408D02*
X0134900Y0063408D01*
X0134900Y0064406D02*
X0135720Y0064406D01*
X0138992Y0064406D02*
X0139992Y0064406D01*
X0139992Y0063408D02*
X0138992Y0063408D01*
X0138992Y0062409D02*
X0139992Y0062409D01*
X0139992Y0061411D02*
X0138992Y0061411D01*
X0135433Y0059414D02*
X0134900Y0059414D01*
X0134900Y0058415D02*
X0135433Y0058415D01*
X0135433Y0057417D02*
X0134900Y0057417D01*
X0135762Y0056418D02*
X0135996Y0056418D01*
X0143265Y0064406D02*
X0143756Y0064406D01*
X0150631Y0058415D02*
X0151900Y0058415D01*
X0151900Y0057417D02*
X0150631Y0057417D01*
X0151900Y0056418D02*
X0149300Y0056418D01*
X0149300Y0055420D02*
X0152000Y0055420D01*
X0152999Y0054421D02*
X0149300Y0054421D01*
X0149300Y0053423D02*
X0153998Y0053423D01*
X0154996Y0052424D02*
X0149300Y0052424D01*
X0149300Y0051426D02*
X0155995Y0051426D01*
X0156993Y0050427D02*
X0149300Y0050427D01*
X0149300Y0049429D02*
X0157900Y0049429D01*
X0157900Y0048430D02*
X0149300Y0048430D01*
X0149300Y0047432D02*
X0157900Y0047432D01*
X0157900Y0046433D02*
X0149300Y0046433D01*
X0149300Y0045434D02*
X0157900Y0045434D01*
X0157900Y0044436D02*
X0149300Y0044436D01*
X0149300Y0043437D02*
X0157900Y0043437D01*
X0157900Y0042439D02*
X0149300Y0042439D01*
X0149300Y0041440D02*
X0157900Y0041440D01*
X0157900Y0040442D02*
X0149300Y0040442D01*
X0149300Y0039443D02*
X0157900Y0039443D01*
X0157900Y0038445D02*
X0149300Y0038445D01*
X0149300Y0037446D02*
X0157900Y0037446D01*
X0157900Y0036448D02*
X0149300Y0036448D01*
X0149300Y0035449D02*
X0157900Y0035449D01*
X0157900Y0034451D02*
X0149300Y0034451D01*
X0149300Y0033452D02*
X0157900Y0033452D01*
X0157900Y0032454D02*
X0149300Y0032454D01*
X0149300Y0031455D02*
X0157900Y0031455D01*
X0157900Y0030457D02*
X0149300Y0030457D01*
X0149300Y0029458D02*
X0157900Y0029458D01*
X0155841Y0028460D02*
X0150308Y0028460D01*
X0150828Y0027461D02*
X0155321Y0027461D01*
X0155321Y0026463D02*
X0150828Y0026463D01*
X0150828Y0025464D02*
X0155321Y0025464D01*
X0155321Y0024466D02*
X0150828Y0024466D01*
X0150828Y0023467D02*
X0155321Y0023467D01*
X0155321Y0022469D02*
X0150828Y0022469D01*
X0143904Y0022469D02*
X0142561Y0022469D01*
X0142561Y0023467D02*
X0143904Y0023467D01*
X0143904Y0024466D02*
X0142561Y0024466D01*
X0142561Y0025464D02*
X0143904Y0025464D01*
X0143904Y0026463D02*
X0142561Y0026463D01*
X0142561Y0027461D02*
X0143904Y0027461D01*
X0144424Y0028460D02*
X0142041Y0028460D01*
X0158677Y0061411D02*
X0159677Y0061411D01*
X0159677Y0062409D02*
X0158677Y0062409D01*
X0158677Y0063408D02*
X0159677Y0063408D01*
X0159677Y0064406D02*
X0158677Y0064406D01*
X0162950Y0064406D02*
X0163441Y0064406D01*
X0231309Y0017476D02*
X0027597Y0017476D01*
X0027773Y0016478D02*
X0231133Y0016478D01*
X0230956Y0015479D02*
X0027949Y0015479D01*
X0027843Y0014481D02*
X0231062Y0014481D01*
X0231238Y0013482D02*
X0027667Y0013482D01*
X0027491Y0012484D02*
X0231414Y0012484D01*
X0231590Y0011485D02*
X0027315Y0011485D01*
X0026960Y0010487D02*
X0231946Y0010487D01*
X0232522Y0009488D02*
X0026383Y0009488D01*
X0025807Y0008490D02*
X0233099Y0008490D01*
X0233675Y0007491D02*
X0025230Y0007491D01*
X0024272Y0006493D02*
X0234633Y0006493D01*
X0235823Y0005494D02*
X0023082Y0005494D01*
X0021892Y0004496D02*
X0237013Y0004496D01*
X0239416Y0003497D02*
X0019489Y0003497D01*
X0003138Y0018475D02*
X0003000Y0018475D01*
X0003000Y0019473D02*
X0003314Y0019473D01*
X0003000Y0020472D02*
X0003830Y0020472D01*
X0004406Y0021470D02*
X0003000Y0021470D01*
X0003000Y0022469D02*
X0004983Y0022469D01*
X0005573Y0023467D02*
X0003000Y0023467D01*
X0003000Y0024466D02*
X0006762Y0024466D01*
X0007952Y0025464D02*
X0003000Y0025464D01*
X0003000Y0026463D02*
X0009423Y0026463D01*
X0012167Y0027461D02*
X0003000Y0027461D01*
X0003000Y0030457D02*
X0048700Y0030457D01*
X0048700Y0031455D02*
X0003000Y0031455D01*
X0003000Y0032454D02*
X0048700Y0032454D01*
X0048700Y0033452D02*
X0003000Y0033452D01*
X0003000Y0034451D02*
X0048700Y0034451D01*
X0048700Y0035449D02*
X0003000Y0035449D01*
X0003000Y0036448D02*
X0048700Y0036448D01*
X0048700Y0037446D02*
X0003000Y0037446D01*
X0003000Y0038445D02*
X0048700Y0038445D01*
X0048700Y0039443D02*
X0003000Y0039443D01*
X0003000Y0040442D02*
X0048700Y0040442D01*
X0048700Y0041440D02*
X0013624Y0041440D01*
X0013624Y0042439D02*
X0048700Y0042439D01*
X0048700Y0043437D02*
X0013624Y0043437D01*
X0013624Y0044436D02*
X0048700Y0044436D01*
X0048700Y0045434D02*
X0013624Y0045434D01*
X0013624Y0046433D02*
X0048700Y0046433D01*
X0048700Y0047432D02*
X0013624Y0047432D01*
X0013624Y0048430D02*
X0048700Y0048430D01*
X0054936Y0028460D02*
X0058252Y0028460D01*
X0056836Y0027461D02*
X0055455Y0027461D01*
X0055455Y0026463D02*
X0056022Y0026463D01*
X0055560Y0025464D02*
X0055455Y0025464D01*
X0055455Y0021470D02*
X0055735Y0021470D01*
X0055455Y0020472D02*
X0056339Y0020472D01*
X0055455Y0019473D02*
X0057335Y0019473D01*
X0060055Y0019473D02*
X0061055Y0019473D01*
X0061055Y0020472D02*
X0060055Y0020472D01*
X0060055Y0021470D02*
X0061055Y0021470D01*
X0061055Y0022469D02*
X0060055Y0022469D01*
X0060055Y0024466D02*
X0061055Y0024466D01*
X0061055Y0025464D02*
X0060055Y0025464D01*
X0060055Y0026463D02*
X0061055Y0026463D01*
X0061055Y0027461D02*
X0060055Y0027461D01*
X0060055Y0028460D02*
X0061055Y0028460D01*
X0062858Y0028460D02*
X0065560Y0028460D01*
X0066559Y0027461D02*
X0064274Y0027461D01*
X0065088Y0026463D02*
X0066403Y0026463D01*
X0065988Y0025464D02*
X0065550Y0025464D01*
X0065729Y0022469D02*
X0065755Y0022469D01*
X0065375Y0021470D02*
X0066169Y0021470D01*
X0066839Y0020472D02*
X0064772Y0020472D01*
X0063775Y0019473D02*
X0067919Y0019473D01*
X0019629Y0062409D02*
X0013624Y0062409D01*
X0013624Y0061411D02*
X0018631Y0061411D01*
X0017632Y0060412D02*
X0013624Y0060412D01*
X0013624Y0059414D02*
X0016634Y0059414D01*
X0015635Y0058415D02*
X0013624Y0058415D01*
X0013624Y0057417D02*
X0014637Y0057417D01*
X0013638Y0056418D02*
X0013289Y0056418D01*
X0013624Y0063408D02*
X0020628Y0063408D01*
X0021626Y0064406D02*
X0013181Y0064406D01*
X0012785Y0065405D02*
X0022625Y0065405D01*
X0023623Y0066403D02*
X0013783Y0066403D01*
X0019815Y0077387D02*
X0020807Y0077387D01*
X0020328Y0077599D02*
X0020328Y0077599D01*
X0021114Y0078385D02*
X0021805Y0078385D01*
X0021857Y0079129D02*
X0021857Y0079129D01*
X0021963Y0079384D02*
X0022804Y0079384D01*
X0022900Y0080382D02*
X0022377Y0080382D01*
X0051500Y0101351D02*
X0051969Y0101351D01*
X0051985Y0102350D02*
X0051500Y0102350D01*
X0051500Y0103348D02*
X0052647Y0103348D01*
X0051500Y0104347D02*
X0059500Y0104347D01*
X0056709Y0103348D02*
X0055740Y0103348D01*
X0055740Y0102350D02*
X0056709Y0102350D01*
X0052369Y0105345D02*
X0052125Y0105345D01*
X0039747Y0117327D02*
X0032521Y0117327D01*
X0032521Y0116329D02*
X0038749Y0116329D01*
X0037750Y0115330D02*
X0032521Y0115330D01*
X0032521Y0114332D02*
X0036752Y0114332D01*
X0040746Y0118326D02*
X0032521Y0118326D01*
X0031885Y0119324D02*
X0041744Y0119324D01*
X0005124Y0048430D02*
X0003000Y0048430D01*
X0003000Y0047432D02*
X0005124Y0047432D01*
X0005124Y0046433D02*
X0003000Y0046433D01*
X0003000Y0045434D02*
X0005124Y0045434D01*
X0005124Y0044436D02*
X0003000Y0044436D01*
X0003000Y0043437D02*
X0005124Y0043437D01*
X0005124Y0042439D02*
X0003000Y0042439D01*
X0003000Y0041440D02*
X0005124Y0041440D01*
X0130946Y0139295D02*
X0133300Y0139295D01*
X0133300Y0140293D02*
X0130946Y0140293D01*
X0130946Y0141292D02*
X0133300Y0141292D01*
X0133300Y0142290D02*
X0130573Y0142290D01*
X0082642Y0199205D02*
X0076829Y0199205D01*
X0077828Y0200204D02*
X0081644Y0200204D01*
X0080645Y0201202D02*
X0078826Y0201202D01*
X0074953Y0201202D02*
X0073953Y0201202D01*
X0073953Y0200204D02*
X0074953Y0200204D01*
X0074953Y0199205D02*
X0073953Y0199205D01*
X0073953Y0204198D02*
X0074953Y0204198D01*
X0074953Y0205196D02*
X0073953Y0205196D01*
X0073953Y0206195D02*
X0074953Y0206195D01*
X0074953Y0207193D02*
X0073953Y0207193D01*
X0072089Y0207193D02*
X0066251Y0207193D01*
X0067249Y0206195D02*
X0071091Y0206195D01*
X0070092Y0205196D02*
X0068248Y0205196D01*
X0068553Y0204198D02*
X0069953Y0204198D01*
X0072657Y0209190D02*
X0066248Y0209190D01*
X0067247Y0210189D02*
X0071659Y0210189D01*
X0070660Y0211187D02*
X0068245Y0211187D01*
X0068553Y0212186D02*
X0070353Y0212186D01*
X0070353Y0213184D02*
X0068553Y0213184D01*
X0068553Y0214183D02*
X0070353Y0214183D01*
X0070643Y0215181D02*
X0068263Y0215181D01*
X0067264Y0216180D02*
X0071642Y0216180D01*
X0072640Y0217178D02*
X0066265Y0217178D01*
X0062640Y0217178D02*
X0056831Y0217178D01*
X0057830Y0216180D02*
X0061642Y0216180D01*
X0060643Y0215181D02*
X0058828Y0215181D01*
X0058953Y0214183D02*
X0060353Y0214183D01*
X0054953Y0214183D02*
X0053953Y0214183D01*
X0053953Y0215181D02*
X0054953Y0215181D01*
X0054953Y0216180D02*
X0053953Y0216180D01*
X0053953Y0217178D02*
X0054953Y0217178D01*
X0052074Y0217178D02*
X0046265Y0217178D01*
X0047264Y0216180D02*
X0051076Y0216180D01*
X0050077Y0215181D02*
X0048262Y0215181D01*
X0048553Y0214183D02*
X0049953Y0214183D01*
X0053953Y0211187D02*
X0054953Y0211187D01*
X0054953Y0210189D02*
X0053953Y0210189D01*
X0053953Y0209190D02*
X0054953Y0209190D01*
X0077247Y0210189D02*
X0081659Y0210189D01*
X0080660Y0211187D02*
X0078245Y0211187D01*
X0078553Y0212186D02*
X0080353Y0212186D01*
X0080353Y0213184D02*
X0078553Y0213184D01*
X0078553Y0214183D02*
X0080353Y0214183D01*
X0080643Y0215181D02*
X0078263Y0215181D01*
X0077264Y0216180D02*
X0081642Y0216180D01*
X0082640Y0217178D02*
X0076265Y0217178D01*
X0032657Y0209190D02*
X0032370Y0209190D01*
X0022846Y0218177D02*
X0236060Y0218177D01*
X0237250Y0219175D02*
X0021656Y0219175D01*
X0018944Y0220174D02*
X0239962Y0220174D01*
X0234870Y0217178D02*
X0226265Y0217178D01*
X0227264Y0216180D02*
X0233790Y0216180D01*
X0233214Y0215181D02*
X0228262Y0215181D01*
X0228553Y0214183D02*
X0232637Y0214183D01*
X0232061Y0213184D02*
X0228553Y0213184D01*
X0228553Y0212186D02*
X0231625Y0212186D01*
X0231449Y0211187D02*
X0228245Y0211187D01*
X0227247Y0210189D02*
X0231273Y0210189D01*
X0247284Y0196210D02*
X0255906Y0196210D01*
X0255906Y0197208D02*
X0250000Y0197208D01*
X0251190Y0198207D02*
X0255906Y0198207D01*
X0255906Y0199205D02*
X0252380Y0199205D01*
X0253461Y0200204D02*
X0255906Y0200204D01*
X0255906Y0201202D02*
X0254037Y0201202D01*
X0254614Y0202201D02*
X0255906Y0202201D01*
X0255906Y0203199D02*
X0255190Y0203199D01*
X0255626Y0204198D02*
X0255906Y0204198D01*
X0255906Y0205196D02*
X0255802Y0205196D01*
X0255906Y0027461D02*
X0246739Y0027461D01*
X0249482Y0026463D02*
X0255906Y0026463D01*
X0255906Y0025464D02*
X0250953Y0025464D01*
X0252143Y0024466D02*
X0255906Y0024466D01*
X0255906Y0023467D02*
X0253333Y0023467D01*
X0253923Y0022469D02*
X0255906Y0022469D01*
X0255906Y0021470D02*
X0254499Y0021470D01*
X0255076Y0020472D02*
X0255906Y0020472D01*
X0255906Y0019473D02*
X0255591Y0019473D01*
X0255767Y0018475D02*
X0255906Y0018475D01*
D22*
X0206700Y0025500D02*
X0206421Y0025122D01*
X0206700Y0025500D02*
X0206700Y0059700D01*
X0206100Y0060300D01*
X0206028Y0060555D01*
X0198300Y0050700D02*
X0192900Y0056100D01*
X0192900Y0186900D01*
X0204300Y0198300D01*
X0204300Y0203100D01*
X0204453Y0203193D01*
X0194700Y0203100D02*
X0194453Y0203193D01*
X0194700Y0203100D02*
X0194700Y0190500D01*
X0173100Y0168900D01*
X0173100Y0056100D01*
X0178500Y0050700D01*
X0178500Y0025500D01*
X0178469Y0025122D01*
X0186736Y0025122D02*
X0186900Y0025500D01*
X0186900Y0060300D01*
X0186343Y0060555D01*
X0198300Y0050700D02*
X0198300Y0025500D01*
X0198154Y0025122D01*
X0167100Y0025500D02*
X0167051Y0025122D01*
X0167100Y0025500D02*
X0167100Y0060300D01*
X0166657Y0060555D01*
X0159300Y0050100D02*
X0153300Y0056100D01*
X0153300Y0150900D01*
X0184500Y0182100D01*
X0184500Y0203100D01*
X0184453Y0203193D01*
X0174453Y0203193D02*
X0174300Y0203100D01*
X0174300Y0173700D01*
X0133500Y0132900D01*
X0133500Y0056700D01*
X0139500Y0050700D01*
X0139500Y0025500D01*
X0139098Y0025122D01*
X0147366Y0025122D02*
X0147900Y0025500D01*
X0147900Y0059700D01*
X0147300Y0060300D01*
X0146972Y0060555D01*
X0159300Y0050100D02*
X0159300Y0025500D01*
X0158783Y0025122D01*
X0092100Y0045300D02*
X0091677Y0045142D01*
X0092100Y0045300D02*
X0092100Y0048300D01*
X0077700Y0062700D01*
X0077700Y0105300D01*
X0079500Y0107100D01*
X0083100Y0107100D01*
X0083469Y0107563D01*
X0092130Y0103823D02*
X0092700Y0104100D01*
X0093300Y0104700D01*
X0101700Y0104700D01*
X0134700Y0137700D01*
X0134700Y0180900D01*
X0131700Y0183900D01*
X0125700Y0183900D01*
X0108900Y0200700D01*
X0108900Y0205500D01*
X0109500Y0206100D01*
X0109500Y0207900D01*
X0104700Y0212700D01*
X0104453Y0213193D01*
X0104453Y0203193D02*
X0104100Y0203100D01*
X0087900Y0186900D01*
X0087900Y0179100D01*
X0088114Y0178665D01*
X0088114Y0170791D02*
X0088500Y0170700D01*
X0089100Y0170100D01*
X0089100Y0166500D01*
X0086100Y0165900D02*
X0077100Y0165900D01*
X0064500Y0178500D01*
X0060900Y0178500D01*
X0060555Y0178665D01*
X0060300Y0178500D01*
X0033300Y0178500D01*
X0032996Y0178665D01*
X0033300Y0179100D01*
X0033300Y0180900D01*
X0028500Y0185700D01*
X0028500Y0205500D01*
X0029700Y0206700D01*
X0029700Y0208500D01*
X0033900Y0212700D01*
X0034453Y0213193D01*
X0034500Y0213300D01*
X0044100Y0213300D01*
X0044453Y0213193D01*
X0012300Y0178500D02*
X0009900Y0178500D01*
X0009374Y0178469D01*
X0012300Y0178500D02*
X0020100Y0170700D01*
X0032700Y0170700D01*
X0032996Y0170791D01*
X0009900Y0162900D02*
X0009900Y0159900D01*
X0024300Y0145500D01*
X0024300Y0119700D01*
X0022500Y0117900D01*
X0022500Y0083100D01*
X0024300Y0081300D01*
X0024300Y0078900D01*
X0009900Y0064500D01*
X0009900Y0060900D01*
X0009374Y0060358D01*
X0009300Y0050100D02*
X0027900Y0068700D01*
X0027900Y0106500D01*
X0028500Y0107100D01*
X0029059Y0107602D01*
X0029100Y0107700D01*
X0032100Y0107700D01*
X0059700Y0135300D01*
X0059700Y0135900D01*
X0062700Y0138900D01*
X0063900Y0138900D01*
X0064492Y0138902D01*
X0064500Y0138900D01*
X0091500Y0138900D01*
X0092051Y0138902D01*
X0088500Y0133500D02*
X0095700Y0133500D01*
X0107100Y0144900D01*
X0112500Y0139500D01*
X0126900Y0139500D01*
X0127484Y0139098D01*
X0127484Y0147366D02*
X0127500Y0147900D01*
X0127500Y0161100D01*
X0133500Y0167100D01*
X0133500Y0175500D01*
X0130500Y0178500D01*
X0127500Y0178500D01*
X0127484Y0178469D01*
X0135900Y0182100D02*
X0114900Y0203100D01*
X0114453Y0203193D01*
X0135900Y0182100D02*
X0135900Y0137100D01*
X0092100Y0093300D01*
X0092100Y0076500D01*
X0091854Y0076303D01*
X0085500Y0077100D02*
X0084900Y0076500D01*
X0084374Y0076303D01*
X0085500Y0077100D02*
X0085500Y0088500D01*
X0092100Y0095100D01*
X0092100Y0103500D01*
X0092130Y0103823D01*
X0065100Y0103500D02*
X0064886Y0103862D01*
X0065100Y0103500D02*
X0065100Y0077100D01*
X0064500Y0076500D01*
X0064295Y0076303D01*
X0063900Y0075900D01*
X0063900Y0073500D01*
X0084300Y0053100D01*
X0084300Y0045300D01*
X0084197Y0045142D01*
X0084300Y0044700D01*
X0084300Y0025500D01*
X0083980Y0025122D01*
X0070500Y0025500D02*
X0070500Y0023700D01*
X0070555Y0023685D01*
X0070500Y0025500D02*
X0056700Y0039300D01*
X0056700Y0075900D01*
X0056815Y0076303D01*
X0056700Y0076500D01*
X0056700Y0091500D01*
X0062100Y0096900D01*
X0062100Y0100500D01*
X0060900Y0101700D01*
X0060900Y0105900D01*
X0088500Y0133500D01*
X0095791Y0147563D02*
X0095700Y0147900D01*
X0095700Y0151500D01*
X0090900Y0156300D01*
X0065700Y0156300D01*
X0060900Y0151500D01*
X0060900Y0147900D01*
X0060752Y0147563D01*
X0068232Y0147563D02*
X0068700Y0147900D01*
X0070500Y0147900D01*
X0076500Y0153900D01*
X0086100Y0165900D02*
X0107100Y0144900D01*
X0060555Y0170791D02*
X0060300Y0170700D01*
X0059100Y0169500D01*
X0059100Y0167100D01*
X0029100Y0137100D01*
X0029100Y0116100D01*
X0029059Y0115870D01*
X0050100Y0105300D02*
X0050100Y0023700D01*
X0050555Y0023685D01*
X0009374Y0045004D02*
X0009300Y0045300D01*
X0009300Y0050100D01*
X0050100Y0105300D02*
X0051900Y0107100D01*
X0056100Y0107100D01*
X0056224Y0107602D01*
X0009900Y0162900D02*
X0009374Y0163114D01*
D23*
X0076500Y0153900D03*
X0089100Y0166500D03*
M02*
