G75*
%MOIN*%
%OFA0B0*%
%FSLAX25Y25*%
%IPPOS*%
%LPD*%
%AMOC8*
5,1,8,0,0,1.08239X$1,22.5*
%
%ADD10C,0.00000*%
D10*
X0001500Y0013311D02*
X0001500Y0074335D01*
X0001502Y0074459D01*
X0001508Y0074582D01*
X0001517Y0074706D01*
X0001531Y0074828D01*
X0001548Y0074951D01*
X0001570Y0075073D01*
X0001595Y0075194D01*
X0001624Y0075314D01*
X0001656Y0075433D01*
X0001693Y0075552D01*
X0001733Y0075669D01*
X0001776Y0075784D01*
X0001824Y0075899D01*
X0001875Y0076011D01*
X0001929Y0076122D01*
X0001987Y0076232D01*
X0002048Y0076339D01*
X0002113Y0076445D01*
X0002181Y0076548D01*
X0002252Y0076649D01*
X0002326Y0076748D01*
X0002403Y0076845D01*
X0002484Y0076939D01*
X0002567Y0077030D01*
X0002653Y0077119D01*
X0002742Y0077205D01*
X0002833Y0077288D01*
X0002927Y0077369D01*
X0003024Y0077446D01*
X0003123Y0077520D01*
X0003224Y0077591D01*
X0003327Y0077659D01*
X0003433Y0077724D01*
X0003540Y0077785D01*
X0003650Y0077843D01*
X0003761Y0077897D01*
X0003873Y0077948D01*
X0003988Y0077996D01*
X0004103Y0078039D01*
X0004220Y0078079D01*
X0004339Y0078116D01*
X0004458Y0078148D01*
X0004578Y0078177D01*
X0004699Y0078202D01*
X0004821Y0078224D01*
X0004944Y0078241D01*
X0005066Y0078255D01*
X0005190Y0078264D01*
X0005313Y0078270D01*
X0005437Y0078272D01*
X0017248Y0078272D01*
X0017372Y0078274D01*
X0017495Y0078280D01*
X0017619Y0078289D01*
X0017741Y0078303D01*
X0017864Y0078320D01*
X0017986Y0078342D01*
X0018107Y0078367D01*
X0018227Y0078396D01*
X0018346Y0078428D01*
X0018465Y0078465D01*
X0018582Y0078505D01*
X0018697Y0078548D01*
X0018812Y0078596D01*
X0018924Y0078647D01*
X0019035Y0078701D01*
X0019145Y0078759D01*
X0019252Y0078820D01*
X0019358Y0078885D01*
X0019461Y0078953D01*
X0019562Y0079024D01*
X0019661Y0079098D01*
X0019758Y0079175D01*
X0019852Y0079256D01*
X0019943Y0079339D01*
X0020032Y0079425D01*
X0020118Y0079514D01*
X0020201Y0079605D01*
X0020282Y0079699D01*
X0020359Y0079796D01*
X0020433Y0079895D01*
X0020504Y0079996D01*
X0020572Y0080099D01*
X0020637Y0080205D01*
X0020698Y0080312D01*
X0020756Y0080422D01*
X0020810Y0080533D01*
X0020861Y0080645D01*
X0020909Y0080760D01*
X0020952Y0080875D01*
X0020992Y0080992D01*
X0021029Y0081111D01*
X0021061Y0081230D01*
X0021090Y0081350D01*
X0021115Y0081471D01*
X0021137Y0081593D01*
X0021154Y0081716D01*
X0021168Y0081838D01*
X0021177Y0081962D01*
X0021183Y0082085D01*
X0021185Y0082209D01*
X0021185Y0141264D01*
X0021183Y0141388D01*
X0021177Y0141511D01*
X0021168Y0141635D01*
X0021154Y0141757D01*
X0021137Y0141880D01*
X0021115Y0142002D01*
X0021090Y0142123D01*
X0021061Y0142243D01*
X0021029Y0142362D01*
X0020992Y0142481D01*
X0020952Y0142598D01*
X0020909Y0142713D01*
X0020861Y0142828D01*
X0020810Y0142940D01*
X0020756Y0143051D01*
X0020698Y0143161D01*
X0020637Y0143268D01*
X0020572Y0143374D01*
X0020504Y0143477D01*
X0020433Y0143578D01*
X0020359Y0143677D01*
X0020282Y0143774D01*
X0020201Y0143868D01*
X0020118Y0143959D01*
X0020032Y0144048D01*
X0019943Y0144134D01*
X0019852Y0144217D01*
X0019758Y0144298D01*
X0019661Y0144375D01*
X0019562Y0144449D01*
X0019461Y0144520D01*
X0019358Y0144588D01*
X0019252Y0144653D01*
X0019145Y0144714D01*
X0019035Y0144772D01*
X0018924Y0144826D01*
X0018812Y0144877D01*
X0018697Y0144925D01*
X0018582Y0144968D01*
X0018465Y0145008D01*
X0018346Y0145045D01*
X0018227Y0145077D01*
X0018107Y0145106D01*
X0017986Y0145131D01*
X0017864Y0145153D01*
X0017741Y0145170D01*
X0017619Y0145184D01*
X0017495Y0145193D01*
X0017372Y0145199D01*
X0017248Y0145201D01*
X0005437Y0145201D01*
X0005313Y0145203D01*
X0005190Y0145209D01*
X0005066Y0145218D01*
X0004944Y0145232D01*
X0004821Y0145249D01*
X0004699Y0145271D01*
X0004578Y0145296D01*
X0004458Y0145325D01*
X0004339Y0145357D01*
X0004220Y0145394D01*
X0004103Y0145434D01*
X0003988Y0145477D01*
X0003873Y0145525D01*
X0003761Y0145576D01*
X0003650Y0145630D01*
X0003540Y0145688D01*
X0003433Y0145749D01*
X0003327Y0145814D01*
X0003224Y0145882D01*
X0003123Y0145953D01*
X0003024Y0146027D01*
X0002927Y0146104D01*
X0002833Y0146185D01*
X0002742Y0146268D01*
X0002653Y0146354D01*
X0002567Y0146443D01*
X0002484Y0146534D01*
X0002403Y0146628D01*
X0002326Y0146725D01*
X0002252Y0146824D01*
X0002181Y0146925D01*
X0002113Y0147028D01*
X0002048Y0147134D01*
X0001987Y0147241D01*
X0001929Y0147351D01*
X0001875Y0147462D01*
X0001824Y0147574D01*
X0001776Y0147689D01*
X0001733Y0147804D01*
X0001693Y0147921D01*
X0001656Y0148040D01*
X0001624Y0148159D01*
X0001595Y0148279D01*
X0001570Y0148400D01*
X0001548Y0148522D01*
X0001531Y0148645D01*
X0001517Y0148767D01*
X0001508Y0148891D01*
X0001502Y0149014D01*
X0001500Y0149138D01*
X0001500Y0210161D01*
X0001503Y0210446D01*
X0001514Y0210732D01*
X0001531Y0211017D01*
X0001555Y0211301D01*
X0001586Y0211585D01*
X0001624Y0211868D01*
X0001669Y0212149D01*
X0001720Y0212430D01*
X0001778Y0212710D01*
X0001843Y0212988D01*
X0001915Y0213264D01*
X0001993Y0213538D01*
X0002078Y0213811D01*
X0002170Y0214081D01*
X0002268Y0214349D01*
X0002372Y0214615D01*
X0002483Y0214878D01*
X0002600Y0215138D01*
X0002723Y0215396D01*
X0002853Y0215650D01*
X0002989Y0215901D01*
X0003130Y0216149D01*
X0003278Y0216393D01*
X0003431Y0216634D01*
X0003591Y0216870D01*
X0003756Y0217103D01*
X0003926Y0217332D01*
X0004102Y0217557D01*
X0004284Y0217777D01*
X0004470Y0217993D01*
X0004662Y0218204D01*
X0004859Y0218411D01*
X0005061Y0218613D01*
X0005268Y0218810D01*
X0005479Y0219002D01*
X0005695Y0219188D01*
X0005915Y0219370D01*
X0006140Y0219546D01*
X0006369Y0219716D01*
X0006602Y0219881D01*
X0006838Y0220041D01*
X0007079Y0220194D01*
X0007323Y0220342D01*
X0007571Y0220483D01*
X0007822Y0220619D01*
X0008076Y0220749D01*
X0008334Y0220872D01*
X0008594Y0220989D01*
X0008857Y0221100D01*
X0009123Y0221204D01*
X0009391Y0221302D01*
X0009661Y0221394D01*
X0009934Y0221479D01*
X0010208Y0221557D01*
X0010484Y0221629D01*
X0010762Y0221694D01*
X0011042Y0221752D01*
X0011323Y0221803D01*
X0011604Y0221848D01*
X0011887Y0221886D01*
X0012171Y0221917D01*
X0012455Y0221941D01*
X0012740Y0221958D01*
X0013026Y0221969D01*
X0013311Y0221972D01*
X0245594Y0221972D01*
X0245879Y0221969D01*
X0246165Y0221958D01*
X0246450Y0221941D01*
X0246734Y0221917D01*
X0247018Y0221886D01*
X0247301Y0221848D01*
X0247582Y0221803D01*
X0247863Y0221752D01*
X0248143Y0221694D01*
X0248421Y0221629D01*
X0248697Y0221557D01*
X0248971Y0221479D01*
X0249244Y0221394D01*
X0249514Y0221302D01*
X0249782Y0221204D01*
X0250048Y0221100D01*
X0250311Y0220989D01*
X0250571Y0220872D01*
X0250829Y0220749D01*
X0251083Y0220619D01*
X0251334Y0220483D01*
X0251582Y0220342D01*
X0251826Y0220194D01*
X0252067Y0220041D01*
X0252303Y0219881D01*
X0252536Y0219716D01*
X0252765Y0219546D01*
X0252990Y0219370D01*
X0253210Y0219188D01*
X0253426Y0219002D01*
X0253637Y0218810D01*
X0253844Y0218613D01*
X0254046Y0218411D01*
X0254243Y0218204D01*
X0254435Y0217993D01*
X0254621Y0217777D01*
X0254803Y0217557D01*
X0254979Y0217332D01*
X0255149Y0217103D01*
X0255314Y0216870D01*
X0255474Y0216634D01*
X0255627Y0216393D01*
X0255775Y0216149D01*
X0255916Y0215901D01*
X0256052Y0215650D01*
X0256182Y0215396D01*
X0256305Y0215138D01*
X0256422Y0214878D01*
X0256533Y0214615D01*
X0256637Y0214349D01*
X0256735Y0214081D01*
X0256827Y0213811D01*
X0256912Y0213538D01*
X0256990Y0213264D01*
X0257062Y0212988D01*
X0257127Y0212710D01*
X0257185Y0212430D01*
X0257236Y0212149D01*
X0257281Y0211868D01*
X0257319Y0211585D01*
X0257350Y0211301D01*
X0257374Y0211017D01*
X0257391Y0210732D01*
X0257402Y0210446D01*
X0257405Y0210161D01*
X0257406Y0210161D02*
X0257406Y0013311D01*
X0257405Y0013311D02*
X0257402Y0013026D01*
X0257391Y0012740D01*
X0257374Y0012455D01*
X0257350Y0012171D01*
X0257319Y0011887D01*
X0257281Y0011604D01*
X0257236Y0011323D01*
X0257185Y0011042D01*
X0257127Y0010762D01*
X0257062Y0010484D01*
X0256990Y0010208D01*
X0256912Y0009934D01*
X0256827Y0009661D01*
X0256735Y0009391D01*
X0256637Y0009123D01*
X0256533Y0008857D01*
X0256422Y0008594D01*
X0256305Y0008334D01*
X0256182Y0008076D01*
X0256052Y0007822D01*
X0255916Y0007571D01*
X0255775Y0007323D01*
X0255627Y0007079D01*
X0255474Y0006838D01*
X0255314Y0006602D01*
X0255149Y0006369D01*
X0254979Y0006140D01*
X0254803Y0005915D01*
X0254621Y0005695D01*
X0254435Y0005479D01*
X0254243Y0005268D01*
X0254046Y0005061D01*
X0253844Y0004859D01*
X0253637Y0004662D01*
X0253426Y0004470D01*
X0253210Y0004284D01*
X0252990Y0004102D01*
X0252765Y0003926D01*
X0252536Y0003756D01*
X0252303Y0003591D01*
X0252067Y0003431D01*
X0251826Y0003278D01*
X0251582Y0003130D01*
X0251334Y0002989D01*
X0251083Y0002853D01*
X0250829Y0002723D01*
X0250571Y0002600D01*
X0250311Y0002483D01*
X0250048Y0002372D01*
X0249782Y0002268D01*
X0249514Y0002170D01*
X0249244Y0002078D01*
X0248971Y0001993D01*
X0248697Y0001915D01*
X0248421Y0001843D01*
X0248143Y0001778D01*
X0247863Y0001720D01*
X0247582Y0001669D01*
X0247301Y0001624D01*
X0247018Y0001586D01*
X0246734Y0001555D01*
X0246450Y0001531D01*
X0246165Y0001514D01*
X0245879Y0001503D01*
X0245594Y0001500D01*
X0013311Y0001500D01*
X0013026Y0001503D01*
X0012740Y0001514D01*
X0012455Y0001531D01*
X0012171Y0001555D01*
X0011887Y0001586D01*
X0011604Y0001624D01*
X0011323Y0001669D01*
X0011042Y0001720D01*
X0010762Y0001778D01*
X0010484Y0001843D01*
X0010208Y0001915D01*
X0009934Y0001993D01*
X0009661Y0002078D01*
X0009391Y0002170D01*
X0009123Y0002268D01*
X0008857Y0002372D01*
X0008594Y0002483D01*
X0008334Y0002600D01*
X0008076Y0002723D01*
X0007822Y0002853D01*
X0007571Y0002989D01*
X0007323Y0003130D01*
X0007079Y0003278D01*
X0006838Y0003431D01*
X0006602Y0003591D01*
X0006369Y0003756D01*
X0006140Y0003926D01*
X0005915Y0004102D01*
X0005695Y0004284D01*
X0005479Y0004470D01*
X0005268Y0004662D01*
X0005061Y0004859D01*
X0004859Y0005061D01*
X0004662Y0005268D01*
X0004470Y0005479D01*
X0004284Y0005695D01*
X0004102Y0005915D01*
X0003926Y0006140D01*
X0003756Y0006369D01*
X0003591Y0006602D01*
X0003431Y0006838D01*
X0003278Y0007079D01*
X0003130Y0007323D01*
X0002989Y0007571D01*
X0002853Y0007822D01*
X0002723Y0008076D01*
X0002600Y0008334D01*
X0002483Y0008594D01*
X0002372Y0008857D01*
X0002268Y0009123D01*
X0002170Y0009391D01*
X0002078Y0009661D01*
X0001993Y0009934D01*
X0001915Y0010208D01*
X0001843Y0010484D01*
X0001778Y0010762D01*
X0001720Y0011042D01*
X0001669Y0011323D01*
X0001624Y0011604D01*
X0001586Y0011887D01*
X0001555Y0012171D01*
X0001531Y0012455D01*
X0001514Y0012740D01*
X0001503Y0013026D01*
X0001500Y0013311D01*
X0009768Y0015280D02*
X0009770Y0015428D01*
X0009776Y0015576D01*
X0009786Y0015724D01*
X0009800Y0015871D01*
X0009818Y0016018D01*
X0009839Y0016164D01*
X0009865Y0016310D01*
X0009895Y0016455D01*
X0009928Y0016599D01*
X0009966Y0016742D01*
X0010007Y0016884D01*
X0010052Y0017025D01*
X0010100Y0017165D01*
X0010153Y0017304D01*
X0010209Y0017441D01*
X0010269Y0017576D01*
X0010332Y0017710D01*
X0010399Y0017842D01*
X0010470Y0017972D01*
X0010544Y0018100D01*
X0010621Y0018226D01*
X0010702Y0018350D01*
X0010786Y0018472D01*
X0010873Y0018591D01*
X0010964Y0018708D01*
X0011058Y0018823D01*
X0011154Y0018935D01*
X0011254Y0019045D01*
X0011356Y0019151D01*
X0011462Y0019255D01*
X0011570Y0019356D01*
X0011681Y0019454D01*
X0011794Y0019550D01*
X0011910Y0019642D01*
X0012028Y0019731D01*
X0012149Y0019816D01*
X0012272Y0019899D01*
X0012397Y0019978D01*
X0012524Y0020054D01*
X0012653Y0020126D01*
X0012784Y0020195D01*
X0012917Y0020260D01*
X0013052Y0020321D01*
X0013188Y0020379D01*
X0013325Y0020434D01*
X0013464Y0020484D01*
X0013605Y0020531D01*
X0013746Y0020574D01*
X0013889Y0020614D01*
X0014033Y0020649D01*
X0014177Y0020681D01*
X0014323Y0020708D01*
X0014469Y0020732D01*
X0014616Y0020752D01*
X0014763Y0020768D01*
X0014910Y0020780D01*
X0015058Y0020788D01*
X0015206Y0020792D01*
X0015354Y0020792D01*
X0015502Y0020788D01*
X0015650Y0020780D01*
X0015797Y0020768D01*
X0015944Y0020752D01*
X0016091Y0020732D01*
X0016237Y0020708D01*
X0016383Y0020681D01*
X0016527Y0020649D01*
X0016671Y0020614D01*
X0016814Y0020574D01*
X0016955Y0020531D01*
X0017096Y0020484D01*
X0017235Y0020434D01*
X0017372Y0020379D01*
X0017508Y0020321D01*
X0017643Y0020260D01*
X0017776Y0020195D01*
X0017907Y0020126D01*
X0018036Y0020054D01*
X0018163Y0019978D01*
X0018288Y0019899D01*
X0018411Y0019816D01*
X0018532Y0019731D01*
X0018650Y0019642D01*
X0018766Y0019550D01*
X0018879Y0019454D01*
X0018990Y0019356D01*
X0019098Y0019255D01*
X0019204Y0019151D01*
X0019306Y0019045D01*
X0019406Y0018935D01*
X0019502Y0018823D01*
X0019596Y0018708D01*
X0019687Y0018591D01*
X0019774Y0018472D01*
X0019858Y0018350D01*
X0019939Y0018226D01*
X0020016Y0018100D01*
X0020090Y0017972D01*
X0020161Y0017842D01*
X0020228Y0017710D01*
X0020291Y0017576D01*
X0020351Y0017441D01*
X0020407Y0017304D01*
X0020460Y0017165D01*
X0020508Y0017025D01*
X0020553Y0016884D01*
X0020594Y0016742D01*
X0020632Y0016599D01*
X0020665Y0016455D01*
X0020695Y0016310D01*
X0020721Y0016164D01*
X0020742Y0016018D01*
X0020760Y0015871D01*
X0020774Y0015724D01*
X0020784Y0015576D01*
X0020790Y0015428D01*
X0020792Y0015280D01*
X0020790Y0015132D01*
X0020784Y0014984D01*
X0020774Y0014836D01*
X0020760Y0014689D01*
X0020742Y0014542D01*
X0020721Y0014396D01*
X0020695Y0014250D01*
X0020665Y0014105D01*
X0020632Y0013961D01*
X0020594Y0013818D01*
X0020553Y0013676D01*
X0020508Y0013535D01*
X0020460Y0013395D01*
X0020407Y0013256D01*
X0020351Y0013119D01*
X0020291Y0012984D01*
X0020228Y0012850D01*
X0020161Y0012718D01*
X0020090Y0012588D01*
X0020016Y0012460D01*
X0019939Y0012334D01*
X0019858Y0012210D01*
X0019774Y0012088D01*
X0019687Y0011969D01*
X0019596Y0011852D01*
X0019502Y0011737D01*
X0019406Y0011625D01*
X0019306Y0011515D01*
X0019204Y0011409D01*
X0019098Y0011305D01*
X0018990Y0011204D01*
X0018879Y0011106D01*
X0018766Y0011010D01*
X0018650Y0010918D01*
X0018532Y0010829D01*
X0018411Y0010744D01*
X0018288Y0010661D01*
X0018163Y0010582D01*
X0018036Y0010506D01*
X0017907Y0010434D01*
X0017776Y0010365D01*
X0017643Y0010300D01*
X0017508Y0010239D01*
X0017372Y0010181D01*
X0017235Y0010126D01*
X0017096Y0010076D01*
X0016955Y0010029D01*
X0016814Y0009986D01*
X0016671Y0009946D01*
X0016527Y0009911D01*
X0016383Y0009879D01*
X0016237Y0009852D01*
X0016091Y0009828D01*
X0015944Y0009808D01*
X0015797Y0009792D01*
X0015650Y0009780D01*
X0015502Y0009772D01*
X0015354Y0009768D01*
X0015206Y0009768D01*
X0015058Y0009772D01*
X0014910Y0009780D01*
X0014763Y0009792D01*
X0014616Y0009808D01*
X0014469Y0009828D01*
X0014323Y0009852D01*
X0014177Y0009879D01*
X0014033Y0009911D01*
X0013889Y0009946D01*
X0013746Y0009986D01*
X0013605Y0010029D01*
X0013464Y0010076D01*
X0013325Y0010126D01*
X0013188Y0010181D01*
X0013052Y0010239D01*
X0012917Y0010300D01*
X0012784Y0010365D01*
X0012653Y0010434D01*
X0012524Y0010506D01*
X0012397Y0010582D01*
X0012272Y0010661D01*
X0012149Y0010744D01*
X0012028Y0010829D01*
X0011910Y0010918D01*
X0011794Y0011010D01*
X0011681Y0011106D01*
X0011570Y0011204D01*
X0011462Y0011305D01*
X0011356Y0011409D01*
X0011254Y0011515D01*
X0011154Y0011625D01*
X0011058Y0011737D01*
X0010964Y0011852D01*
X0010873Y0011969D01*
X0010786Y0012088D01*
X0010702Y0012210D01*
X0010621Y0012334D01*
X0010544Y0012460D01*
X0010470Y0012588D01*
X0010399Y0012718D01*
X0010332Y0012850D01*
X0010269Y0012984D01*
X0010209Y0013119D01*
X0010153Y0013256D01*
X0010100Y0013395D01*
X0010052Y0013535D01*
X0010007Y0013676D01*
X0009966Y0013818D01*
X0009928Y0013961D01*
X0009895Y0014105D01*
X0009865Y0014250D01*
X0009839Y0014396D01*
X0009818Y0014542D01*
X0009800Y0014689D01*
X0009786Y0014836D01*
X0009776Y0014984D01*
X0009770Y0015132D01*
X0009768Y0015280D01*
X0009768Y0208193D02*
X0009770Y0208341D01*
X0009776Y0208489D01*
X0009786Y0208637D01*
X0009800Y0208784D01*
X0009818Y0208931D01*
X0009839Y0209077D01*
X0009865Y0209223D01*
X0009895Y0209368D01*
X0009928Y0209512D01*
X0009966Y0209655D01*
X0010007Y0209797D01*
X0010052Y0209938D01*
X0010100Y0210078D01*
X0010153Y0210217D01*
X0010209Y0210354D01*
X0010269Y0210489D01*
X0010332Y0210623D01*
X0010399Y0210755D01*
X0010470Y0210885D01*
X0010544Y0211013D01*
X0010621Y0211139D01*
X0010702Y0211263D01*
X0010786Y0211385D01*
X0010873Y0211504D01*
X0010964Y0211621D01*
X0011058Y0211736D01*
X0011154Y0211848D01*
X0011254Y0211958D01*
X0011356Y0212064D01*
X0011462Y0212168D01*
X0011570Y0212269D01*
X0011681Y0212367D01*
X0011794Y0212463D01*
X0011910Y0212555D01*
X0012028Y0212644D01*
X0012149Y0212729D01*
X0012272Y0212812D01*
X0012397Y0212891D01*
X0012524Y0212967D01*
X0012653Y0213039D01*
X0012784Y0213108D01*
X0012917Y0213173D01*
X0013052Y0213234D01*
X0013188Y0213292D01*
X0013325Y0213347D01*
X0013464Y0213397D01*
X0013605Y0213444D01*
X0013746Y0213487D01*
X0013889Y0213527D01*
X0014033Y0213562D01*
X0014177Y0213594D01*
X0014323Y0213621D01*
X0014469Y0213645D01*
X0014616Y0213665D01*
X0014763Y0213681D01*
X0014910Y0213693D01*
X0015058Y0213701D01*
X0015206Y0213705D01*
X0015354Y0213705D01*
X0015502Y0213701D01*
X0015650Y0213693D01*
X0015797Y0213681D01*
X0015944Y0213665D01*
X0016091Y0213645D01*
X0016237Y0213621D01*
X0016383Y0213594D01*
X0016527Y0213562D01*
X0016671Y0213527D01*
X0016814Y0213487D01*
X0016955Y0213444D01*
X0017096Y0213397D01*
X0017235Y0213347D01*
X0017372Y0213292D01*
X0017508Y0213234D01*
X0017643Y0213173D01*
X0017776Y0213108D01*
X0017907Y0213039D01*
X0018036Y0212967D01*
X0018163Y0212891D01*
X0018288Y0212812D01*
X0018411Y0212729D01*
X0018532Y0212644D01*
X0018650Y0212555D01*
X0018766Y0212463D01*
X0018879Y0212367D01*
X0018990Y0212269D01*
X0019098Y0212168D01*
X0019204Y0212064D01*
X0019306Y0211958D01*
X0019406Y0211848D01*
X0019502Y0211736D01*
X0019596Y0211621D01*
X0019687Y0211504D01*
X0019774Y0211385D01*
X0019858Y0211263D01*
X0019939Y0211139D01*
X0020016Y0211013D01*
X0020090Y0210885D01*
X0020161Y0210755D01*
X0020228Y0210623D01*
X0020291Y0210489D01*
X0020351Y0210354D01*
X0020407Y0210217D01*
X0020460Y0210078D01*
X0020508Y0209938D01*
X0020553Y0209797D01*
X0020594Y0209655D01*
X0020632Y0209512D01*
X0020665Y0209368D01*
X0020695Y0209223D01*
X0020721Y0209077D01*
X0020742Y0208931D01*
X0020760Y0208784D01*
X0020774Y0208637D01*
X0020784Y0208489D01*
X0020790Y0208341D01*
X0020792Y0208193D01*
X0020790Y0208045D01*
X0020784Y0207897D01*
X0020774Y0207749D01*
X0020760Y0207602D01*
X0020742Y0207455D01*
X0020721Y0207309D01*
X0020695Y0207163D01*
X0020665Y0207018D01*
X0020632Y0206874D01*
X0020594Y0206731D01*
X0020553Y0206589D01*
X0020508Y0206448D01*
X0020460Y0206308D01*
X0020407Y0206169D01*
X0020351Y0206032D01*
X0020291Y0205897D01*
X0020228Y0205763D01*
X0020161Y0205631D01*
X0020090Y0205501D01*
X0020016Y0205373D01*
X0019939Y0205247D01*
X0019858Y0205123D01*
X0019774Y0205001D01*
X0019687Y0204882D01*
X0019596Y0204765D01*
X0019502Y0204650D01*
X0019406Y0204538D01*
X0019306Y0204428D01*
X0019204Y0204322D01*
X0019098Y0204218D01*
X0018990Y0204117D01*
X0018879Y0204019D01*
X0018766Y0203923D01*
X0018650Y0203831D01*
X0018532Y0203742D01*
X0018411Y0203657D01*
X0018288Y0203574D01*
X0018163Y0203495D01*
X0018036Y0203419D01*
X0017907Y0203347D01*
X0017776Y0203278D01*
X0017643Y0203213D01*
X0017508Y0203152D01*
X0017372Y0203094D01*
X0017235Y0203039D01*
X0017096Y0202989D01*
X0016955Y0202942D01*
X0016814Y0202899D01*
X0016671Y0202859D01*
X0016527Y0202824D01*
X0016383Y0202792D01*
X0016237Y0202765D01*
X0016091Y0202741D01*
X0015944Y0202721D01*
X0015797Y0202705D01*
X0015650Y0202693D01*
X0015502Y0202685D01*
X0015354Y0202681D01*
X0015206Y0202681D01*
X0015058Y0202685D01*
X0014910Y0202693D01*
X0014763Y0202705D01*
X0014616Y0202721D01*
X0014469Y0202741D01*
X0014323Y0202765D01*
X0014177Y0202792D01*
X0014033Y0202824D01*
X0013889Y0202859D01*
X0013746Y0202899D01*
X0013605Y0202942D01*
X0013464Y0202989D01*
X0013325Y0203039D01*
X0013188Y0203094D01*
X0013052Y0203152D01*
X0012917Y0203213D01*
X0012784Y0203278D01*
X0012653Y0203347D01*
X0012524Y0203419D01*
X0012397Y0203495D01*
X0012272Y0203574D01*
X0012149Y0203657D01*
X0012028Y0203742D01*
X0011910Y0203831D01*
X0011794Y0203923D01*
X0011681Y0204019D01*
X0011570Y0204117D01*
X0011462Y0204218D01*
X0011356Y0204322D01*
X0011254Y0204428D01*
X0011154Y0204538D01*
X0011058Y0204650D01*
X0010964Y0204765D01*
X0010873Y0204882D01*
X0010786Y0205001D01*
X0010702Y0205123D01*
X0010621Y0205247D01*
X0010544Y0205373D01*
X0010470Y0205501D01*
X0010399Y0205631D01*
X0010332Y0205763D01*
X0010269Y0205897D01*
X0010209Y0206032D01*
X0010153Y0206169D01*
X0010100Y0206308D01*
X0010052Y0206448D01*
X0010007Y0206589D01*
X0009966Y0206731D01*
X0009928Y0206874D01*
X0009895Y0207018D01*
X0009865Y0207163D01*
X0009839Y0207309D01*
X0009818Y0207455D01*
X0009800Y0207602D01*
X0009786Y0207749D01*
X0009776Y0207897D01*
X0009770Y0208045D01*
X0009768Y0208193D01*
X0238114Y0208193D02*
X0238116Y0208341D01*
X0238122Y0208489D01*
X0238132Y0208637D01*
X0238146Y0208784D01*
X0238164Y0208931D01*
X0238185Y0209077D01*
X0238211Y0209223D01*
X0238241Y0209368D01*
X0238274Y0209512D01*
X0238312Y0209655D01*
X0238353Y0209797D01*
X0238398Y0209938D01*
X0238446Y0210078D01*
X0238499Y0210217D01*
X0238555Y0210354D01*
X0238615Y0210489D01*
X0238678Y0210623D01*
X0238745Y0210755D01*
X0238816Y0210885D01*
X0238890Y0211013D01*
X0238967Y0211139D01*
X0239048Y0211263D01*
X0239132Y0211385D01*
X0239219Y0211504D01*
X0239310Y0211621D01*
X0239404Y0211736D01*
X0239500Y0211848D01*
X0239600Y0211958D01*
X0239702Y0212064D01*
X0239808Y0212168D01*
X0239916Y0212269D01*
X0240027Y0212367D01*
X0240140Y0212463D01*
X0240256Y0212555D01*
X0240374Y0212644D01*
X0240495Y0212729D01*
X0240618Y0212812D01*
X0240743Y0212891D01*
X0240870Y0212967D01*
X0240999Y0213039D01*
X0241130Y0213108D01*
X0241263Y0213173D01*
X0241398Y0213234D01*
X0241534Y0213292D01*
X0241671Y0213347D01*
X0241810Y0213397D01*
X0241951Y0213444D01*
X0242092Y0213487D01*
X0242235Y0213527D01*
X0242379Y0213562D01*
X0242523Y0213594D01*
X0242669Y0213621D01*
X0242815Y0213645D01*
X0242962Y0213665D01*
X0243109Y0213681D01*
X0243256Y0213693D01*
X0243404Y0213701D01*
X0243552Y0213705D01*
X0243700Y0213705D01*
X0243848Y0213701D01*
X0243996Y0213693D01*
X0244143Y0213681D01*
X0244290Y0213665D01*
X0244437Y0213645D01*
X0244583Y0213621D01*
X0244729Y0213594D01*
X0244873Y0213562D01*
X0245017Y0213527D01*
X0245160Y0213487D01*
X0245301Y0213444D01*
X0245442Y0213397D01*
X0245581Y0213347D01*
X0245718Y0213292D01*
X0245854Y0213234D01*
X0245989Y0213173D01*
X0246122Y0213108D01*
X0246253Y0213039D01*
X0246382Y0212967D01*
X0246509Y0212891D01*
X0246634Y0212812D01*
X0246757Y0212729D01*
X0246878Y0212644D01*
X0246996Y0212555D01*
X0247112Y0212463D01*
X0247225Y0212367D01*
X0247336Y0212269D01*
X0247444Y0212168D01*
X0247550Y0212064D01*
X0247652Y0211958D01*
X0247752Y0211848D01*
X0247848Y0211736D01*
X0247942Y0211621D01*
X0248033Y0211504D01*
X0248120Y0211385D01*
X0248204Y0211263D01*
X0248285Y0211139D01*
X0248362Y0211013D01*
X0248436Y0210885D01*
X0248507Y0210755D01*
X0248574Y0210623D01*
X0248637Y0210489D01*
X0248697Y0210354D01*
X0248753Y0210217D01*
X0248806Y0210078D01*
X0248854Y0209938D01*
X0248899Y0209797D01*
X0248940Y0209655D01*
X0248978Y0209512D01*
X0249011Y0209368D01*
X0249041Y0209223D01*
X0249067Y0209077D01*
X0249088Y0208931D01*
X0249106Y0208784D01*
X0249120Y0208637D01*
X0249130Y0208489D01*
X0249136Y0208341D01*
X0249138Y0208193D01*
X0249136Y0208045D01*
X0249130Y0207897D01*
X0249120Y0207749D01*
X0249106Y0207602D01*
X0249088Y0207455D01*
X0249067Y0207309D01*
X0249041Y0207163D01*
X0249011Y0207018D01*
X0248978Y0206874D01*
X0248940Y0206731D01*
X0248899Y0206589D01*
X0248854Y0206448D01*
X0248806Y0206308D01*
X0248753Y0206169D01*
X0248697Y0206032D01*
X0248637Y0205897D01*
X0248574Y0205763D01*
X0248507Y0205631D01*
X0248436Y0205501D01*
X0248362Y0205373D01*
X0248285Y0205247D01*
X0248204Y0205123D01*
X0248120Y0205001D01*
X0248033Y0204882D01*
X0247942Y0204765D01*
X0247848Y0204650D01*
X0247752Y0204538D01*
X0247652Y0204428D01*
X0247550Y0204322D01*
X0247444Y0204218D01*
X0247336Y0204117D01*
X0247225Y0204019D01*
X0247112Y0203923D01*
X0246996Y0203831D01*
X0246878Y0203742D01*
X0246757Y0203657D01*
X0246634Y0203574D01*
X0246509Y0203495D01*
X0246382Y0203419D01*
X0246253Y0203347D01*
X0246122Y0203278D01*
X0245989Y0203213D01*
X0245854Y0203152D01*
X0245718Y0203094D01*
X0245581Y0203039D01*
X0245442Y0202989D01*
X0245301Y0202942D01*
X0245160Y0202899D01*
X0245017Y0202859D01*
X0244873Y0202824D01*
X0244729Y0202792D01*
X0244583Y0202765D01*
X0244437Y0202741D01*
X0244290Y0202721D01*
X0244143Y0202705D01*
X0243996Y0202693D01*
X0243848Y0202685D01*
X0243700Y0202681D01*
X0243552Y0202681D01*
X0243404Y0202685D01*
X0243256Y0202693D01*
X0243109Y0202705D01*
X0242962Y0202721D01*
X0242815Y0202741D01*
X0242669Y0202765D01*
X0242523Y0202792D01*
X0242379Y0202824D01*
X0242235Y0202859D01*
X0242092Y0202899D01*
X0241951Y0202942D01*
X0241810Y0202989D01*
X0241671Y0203039D01*
X0241534Y0203094D01*
X0241398Y0203152D01*
X0241263Y0203213D01*
X0241130Y0203278D01*
X0240999Y0203347D01*
X0240870Y0203419D01*
X0240743Y0203495D01*
X0240618Y0203574D01*
X0240495Y0203657D01*
X0240374Y0203742D01*
X0240256Y0203831D01*
X0240140Y0203923D01*
X0240027Y0204019D01*
X0239916Y0204117D01*
X0239808Y0204218D01*
X0239702Y0204322D01*
X0239600Y0204428D01*
X0239500Y0204538D01*
X0239404Y0204650D01*
X0239310Y0204765D01*
X0239219Y0204882D01*
X0239132Y0205001D01*
X0239048Y0205123D01*
X0238967Y0205247D01*
X0238890Y0205373D01*
X0238816Y0205501D01*
X0238745Y0205631D01*
X0238678Y0205763D01*
X0238615Y0205897D01*
X0238555Y0206032D01*
X0238499Y0206169D01*
X0238446Y0206308D01*
X0238398Y0206448D01*
X0238353Y0206589D01*
X0238312Y0206731D01*
X0238274Y0206874D01*
X0238241Y0207018D01*
X0238211Y0207163D01*
X0238185Y0207309D01*
X0238164Y0207455D01*
X0238146Y0207602D01*
X0238132Y0207749D01*
X0238122Y0207897D01*
X0238116Y0208045D01*
X0238114Y0208193D01*
X0238114Y0015280D02*
X0238116Y0015428D01*
X0238122Y0015576D01*
X0238132Y0015724D01*
X0238146Y0015871D01*
X0238164Y0016018D01*
X0238185Y0016164D01*
X0238211Y0016310D01*
X0238241Y0016455D01*
X0238274Y0016599D01*
X0238312Y0016742D01*
X0238353Y0016884D01*
X0238398Y0017025D01*
X0238446Y0017165D01*
X0238499Y0017304D01*
X0238555Y0017441D01*
X0238615Y0017576D01*
X0238678Y0017710D01*
X0238745Y0017842D01*
X0238816Y0017972D01*
X0238890Y0018100D01*
X0238967Y0018226D01*
X0239048Y0018350D01*
X0239132Y0018472D01*
X0239219Y0018591D01*
X0239310Y0018708D01*
X0239404Y0018823D01*
X0239500Y0018935D01*
X0239600Y0019045D01*
X0239702Y0019151D01*
X0239808Y0019255D01*
X0239916Y0019356D01*
X0240027Y0019454D01*
X0240140Y0019550D01*
X0240256Y0019642D01*
X0240374Y0019731D01*
X0240495Y0019816D01*
X0240618Y0019899D01*
X0240743Y0019978D01*
X0240870Y0020054D01*
X0240999Y0020126D01*
X0241130Y0020195D01*
X0241263Y0020260D01*
X0241398Y0020321D01*
X0241534Y0020379D01*
X0241671Y0020434D01*
X0241810Y0020484D01*
X0241951Y0020531D01*
X0242092Y0020574D01*
X0242235Y0020614D01*
X0242379Y0020649D01*
X0242523Y0020681D01*
X0242669Y0020708D01*
X0242815Y0020732D01*
X0242962Y0020752D01*
X0243109Y0020768D01*
X0243256Y0020780D01*
X0243404Y0020788D01*
X0243552Y0020792D01*
X0243700Y0020792D01*
X0243848Y0020788D01*
X0243996Y0020780D01*
X0244143Y0020768D01*
X0244290Y0020752D01*
X0244437Y0020732D01*
X0244583Y0020708D01*
X0244729Y0020681D01*
X0244873Y0020649D01*
X0245017Y0020614D01*
X0245160Y0020574D01*
X0245301Y0020531D01*
X0245442Y0020484D01*
X0245581Y0020434D01*
X0245718Y0020379D01*
X0245854Y0020321D01*
X0245989Y0020260D01*
X0246122Y0020195D01*
X0246253Y0020126D01*
X0246382Y0020054D01*
X0246509Y0019978D01*
X0246634Y0019899D01*
X0246757Y0019816D01*
X0246878Y0019731D01*
X0246996Y0019642D01*
X0247112Y0019550D01*
X0247225Y0019454D01*
X0247336Y0019356D01*
X0247444Y0019255D01*
X0247550Y0019151D01*
X0247652Y0019045D01*
X0247752Y0018935D01*
X0247848Y0018823D01*
X0247942Y0018708D01*
X0248033Y0018591D01*
X0248120Y0018472D01*
X0248204Y0018350D01*
X0248285Y0018226D01*
X0248362Y0018100D01*
X0248436Y0017972D01*
X0248507Y0017842D01*
X0248574Y0017710D01*
X0248637Y0017576D01*
X0248697Y0017441D01*
X0248753Y0017304D01*
X0248806Y0017165D01*
X0248854Y0017025D01*
X0248899Y0016884D01*
X0248940Y0016742D01*
X0248978Y0016599D01*
X0249011Y0016455D01*
X0249041Y0016310D01*
X0249067Y0016164D01*
X0249088Y0016018D01*
X0249106Y0015871D01*
X0249120Y0015724D01*
X0249130Y0015576D01*
X0249136Y0015428D01*
X0249138Y0015280D01*
X0249136Y0015132D01*
X0249130Y0014984D01*
X0249120Y0014836D01*
X0249106Y0014689D01*
X0249088Y0014542D01*
X0249067Y0014396D01*
X0249041Y0014250D01*
X0249011Y0014105D01*
X0248978Y0013961D01*
X0248940Y0013818D01*
X0248899Y0013676D01*
X0248854Y0013535D01*
X0248806Y0013395D01*
X0248753Y0013256D01*
X0248697Y0013119D01*
X0248637Y0012984D01*
X0248574Y0012850D01*
X0248507Y0012718D01*
X0248436Y0012588D01*
X0248362Y0012460D01*
X0248285Y0012334D01*
X0248204Y0012210D01*
X0248120Y0012088D01*
X0248033Y0011969D01*
X0247942Y0011852D01*
X0247848Y0011737D01*
X0247752Y0011625D01*
X0247652Y0011515D01*
X0247550Y0011409D01*
X0247444Y0011305D01*
X0247336Y0011204D01*
X0247225Y0011106D01*
X0247112Y0011010D01*
X0246996Y0010918D01*
X0246878Y0010829D01*
X0246757Y0010744D01*
X0246634Y0010661D01*
X0246509Y0010582D01*
X0246382Y0010506D01*
X0246253Y0010434D01*
X0246122Y0010365D01*
X0245989Y0010300D01*
X0245854Y0010239D01*
X0245718Y0010181D01*
X0245581Y0010126D01*
X0245442Y0010076D01*
X0245301Y0010029D01*
X0245160Y0009986D01*
X0245017Y0009946D01*
X0244873Y0009911D01*
X0244729Y0009879D01*
X0244583Y0009852D01*
X0244437Y0009828D01*
X0244290Y0009808D01*
X0244143Y0009792D01*
X0243996Y0009780D01*
X0243848Y0009772D01*
X0243700Y0009768D01*
X0243552Y0009768D01*
X0243404Y0009772D01*
X0243256Y0009780D01*
X0243109Y0009792D01*
X0242962Y0009808D01*
X0242815Y0009828D01*
X0242669Y0009852D01*
X0242523Y0009879D01*
X0242379Y0009911D01*
X0242235Y0009946D01*
X0242092Y0009986D01*
X0241951Y0010029D01*
X0241810Y0010076D01*
X0241671Y0010126D01*
X0241534Y0010181D01*
X0241398Y0010239D01*
X0241263Y0010300D01*
X0241130Y0010365D01*
X0240999Y0010434D01*
X0240870Y0010506D01*
X0240743Y0010582D01*
X0240618Y0010661D01*
X0240495Y0010744D01*
X0240374Y0010829D01*
X0240256Y0010918D01*
X0240140Y0011010D01*
X0240027Y0011106D01*
X0239916Y0011204D01*
X0239808Y0011305D01*
X0239702Y0011409D01*
X0239600Y0011515D01*
X0239500Y0011625D01*
X0239404Y0011737D01*
X0239310Y0011852D01*
X0239219Y0011969D01*
X0239132Y0012088D01*
X0239048Y0012210D01*
X0238967Y0012334D01*
X0238890Y0012460D01*
X0238816Y0012588D01*
X0238745Y0012718D01*
X0238678Y0012850D01*
X0238615Y0012984D01*
X0238555Y0013119D01*
X0238499Y0013256D01*
X0238446Y0013395D01*
X0238398Y0013535D01*
X0238353Y0013676D01*
X0238312Y0013818D01*
X0238274Y0013961D01*
X0238241Y0014105D01*
X0238211Y0014250D01*
X0238185Y0014396D01*
X0238164Y0014542D01*
X0238146Y0014689D01*
X0238132Y0014836D01*
X0238122Y0014984D01*
X0238116Y0015132D01*
X0238114Y0015280D01*
M02*
