G75*
%MOIN*%
%OFA0B0*%
%FSLAX25Y25*%
%IPPOS*%
%LPD*%
%AMOC8*
5,1,8,0,0,1.08239X$1,22.5*
%
%ADD10C,0.11424*%
%ADD11OC8,0.06400*%
%ADD12R,0.04337X0.05912*%
%ADD13R,0.03150X0.02756*%
%ADD14R,0.11030X0.07487*%
%ADD15R,0.08000X0.08000*%
%ADD16C,0.08000*%
%ADD17R,0.05912X0.04337*%
%ADD18R,0.07487X0.11030*%
%ADD19R,0.06700X0.05900*%
%ADD20R,0.05900X0.06700*%
D10*
X0015280Y0015280D03*
X0015280Y0208193D03*
X0243626Y0208193D03*
X0243626Y0015280D03*
D11*
X0224453Y0203193D03*
X0214453Y0203193D03*
X0204453Y0203193D03*
X0194453Y0203193D03*
X0184453Y0203193D03*
X0174453Y0203193D03*
X0164453Y0203193D03*
X0154453Y0203193D03*
X0144453Y0203193D03*
X0134453Y0203193D03*
X0124453Y0203193D03*
X0114453Y0203193D03*
X0104453Y0203193D03*
X0094453Y0203193D03*
X0084453Y0203193D03*
X0074453Y0203193D03*
X0064453Y0203193D03*
X0054453Y0203193D03*
X0044453Y0203193D03*
X0034453Y0203193D03*
X0034453Y0213193D03*
X0044453Y0213193D03*
X0054453Y0213193D03*
X0064453Y0213193D03*
X0074453Y0213193D03*
X0084453Y0213193D03*
X0094453Y0213193D03*
X0104453Y0213193D03*
X0114453Y0213193D03*
X0124453Y0213193D03*
X0134453Y0213193D03*
X0144453Y0213193D03*
X0154453Y0213193D03*
X0164453Y0213193D03*
X0174453Y0213193D03*
X0184453Y0213193D03*
X0194453Y0213193D03*
X0204453Y0213193D03*
X0214453Y0213193D03*
X0224453Y0213193D03*
D12*
X0095791Y0147563D03*
X0088311Y0147563D03*
X0092051Y0138902D03*
X0068232Y0147563D03*
X0060752Y0147563D03*
X0064492Y0138902D03*
D13*
X0013626Y0166500D03*
X0013626Y0177917D03*
X0013626Y0056028D03*
X0013626Y0044610D03*
D14*
X0141500Y0067839D03*
X0141500Y0085161D03*
X0161500Y0085161D03*
X0161500Y0067839D03*
X0181500Y0067839D03*
X0201500Y0067839D03*
X0201500Y0085161D03*
X0181500Y0085161D03*
X0127484Y0166067D03*
X0127484Y0183390D03*
X0088114Y0183390D03*
X0088114Y0166067D03*
X0060555Y0166067D03*
X0060555Y0183390D03*
X0032996Y0183390D03*
X0032996Y0166067D03*
D15*
X0050555Y0023685D03*
D16*
X0060555Y0023685D03*
X0070555Y0023685D03*
D17*
X0083469Y0100083D03*
X0092130Y0103823D03*
X0083469Y0107563D03*
X0064886Y0103862D03*
X0056224Y0100122D03*
X0056224Y0107602D03*
D18*
X0051894Y0076303D03*
X0069217Y0076303D03*
X0084453Y0076303D03*
X0101776Y0076303D03*
X0101598Y0045142D03*
X0084276Y0045142D03*
D19*
X0141500Y0037400D03*
X0141500Y0025600D03*
X0161500Y0025600D03*
X0161500Y0037400D03*
X0181500Y0037400D03*
X0181500Y0025600D03*
X0201500Y0025600D03*
X0201500Y0037400D03*
X0126500Y0135600D03*
X0126500Y0147400D03*
X0031500Y0117400D03*
X0031500Y0105600D03*
D20*
X0085600Y0024000D03*
X0097400Y0024000D03*
M02*
