G75*
%MOIN*%
%OFA0B0*%
%FSLAX25Y25*%
%IPPOS*%
%LPD*%
%AMOC8*
5,1,8,0,0,1.08239X$1,22.5*
%
%ADD10OC8,0.06000*%
%ADD11R,0.07600X0.07600*%
%ADD12C,0.07600*%
%ADD13C,0.01000*%
%ADD14C,0.00600*%
%ADD15C,0.02400*%
D10*
X0034453Y0203193D03*
X0044453Y0203193D03*
X0054453Y0203193D03*
X0064453Y0203193D03*
X0074453Y0203193D03*
X0084453Y0203193D03*
X0094453Y0203193D03*
X0104453Y0203193D03*
X0114453Y0203193D03*
X0124453Y0203193D03*
X0134453Y0203193D03*
X0144453Y0203193D03*
X0154453Y0203193D03*
X0164453Y0203193D03*
X0174453Y0203193D03*
X0184453Y0203193D03*
X0194453Y0203193D03*
X0204453Y0203193D03*
X0214453Y0203193D03*
X0224453Y0203193D03*
X0224453Y0213193D03*
X0214453Y0213193D03*
X0204453Y0213193D03*
X0194453Y0213193D03*
X0184453Y0213193D03*
X0174453Y0213193D03*
X0164453Y0213193D03*
X0154453Y0213193D03*
X0144453Y0213193D03*
X0134453Y0213193D03*
X0124453Y0213193D03*
X0114453Y0213193D03*
X0104453Y0213193D03*
X0094453Y0213193D03*
X0084453Y0213193D03*
X0074453Y0213193D03*
X0064453Y0213193D03*
X0054453Y0213193D03*
X0044453Y0213193D03*
X0034453Y0213193D03*
D11*
X0050555Y0023685D03*
D12*
X0060555Y0023685D03*
X0070555Y0023685D03*
D13*
X0003000Y0017691D02*
X0003000Y0074335D01*
X0003047Y0074810D01*
X0003411Y0075689D01*
X0004083Y0076361D01*
X0004962Y0076725D01*
X0005437Y0076772D01*
X0018330Y0076772D01*
X0020328Y0077599D01*
X0021857Y0079129D01*
X0022685Y0081127D01*
X0022685Y0142345D01*
X0021857Y0144344D01*
X0020328Y0145873D01*
X0020328Y0145873D01*
X0018330Y0146701D01*
X0005437Y0146701D01*
X0004962Y0146748D01*
X0004083Y0147111D01*
X0003411Y0147784D01*
X0003047Y0148662D01*
X0003000Y0149138D01*
X0003000Y0205782D01*
X0003341Y0203848D01*
X0005547Y0200026D01*
X0008927Y0197190D01*
X0013073Y0195681D01*
X0017486Y0195681D01*
X0021632Y0197190D01*
X0025012Y0200026D01*
X0027218Y0203848D01*
X0027984Y0208193D01*
X0027218Y0212538D01*
X0025012Y0216359D01*
X0021632Y0219196D01*
X0018124Y0220472D01*
X0240782Y0220472D01*
X0237274Y0219196D01*
X0233894Y0216359D01*
X0231687Y0212538D01*
X0230921Y0208193D01*
X0231687Y0203848D01*
X0233894Y0200026D01*
X0237274Y0197190D01*
X0241420Y0195681D01*
X0245832Y0195681D01*
X0249978Y0197190D01*
X0253358Y0200026D01*
X0255565Y0203848D01*
X0255906Y0205782D01*
X0255906Y0017691D01*
X0255565Y0019625D01*
X0253358Y0023446D01*
X0249978Y0026282D01*
X0245832Y0027791D01*
X0241420Y0027791D01*
X0237274Y0026282D01*
X0233894Y0023446D01*
X0231687Y0019625D01*
X0230921Y0015280D01*
X0231687Y0010934D01*
X0233894Y0007113D01*
X0237274Y0004277D01*
X0240782Y0003000D01*
X0018124Y0003000D01*
X0021632Y0004277D01*
X0025012Y0007113D01*
X0027218Y0010934D01*
X0027984Y0015280D01*
X0027218Y0019625D01*
X0025012Y0023446D01*
X0021632Y0026282D01*
X0017486Y0027791D01*
X0013073Y0027791D01*
X0008927Y0026282D01*
X0005547Y0023446D01*
X0003341Y0019625D01*
X0003000Y0017691D01*
X0003000Y0018475D02*
X0003138Y0018475D01*
X0003000Y0019473D02*
X0003314Y0019473D01*
X0003000Y0020472D02*
X0003830Y0020472D01*
X0004406Y0021470D02*
X0003000Y0021470D01*
X0003000Y0022469D02*
X0004983Y0022469D01*
X0005573Y0023467D02*
X0003000Y0023467D01*
X0003000Y0024466D02*
X0006762Y0024466D01*
X0007952Y0025464D02*
X0003000Y0025464D01*
X0003000Y0026463D02*
X0009423Y0026463D01*
X0012167Y0027461D02*
X0003000Y0027461D01*
X0003000Y0028460D02*
X0046174Y0028460D01*
X0046299Y0028585D02*
X0045655Y0027941D01*
X0045655Y0019429D01*
X0046299Y0018785D01*
X0054811Y0018785D01*
X0055455Y0019429D01*
X0055455Y0022230D01*
X0055643Y0021651D01*
X0056022Y0020907D01*
X0056512Y0020232D01*
X0057102Y0019642D01*
X0057777Y0019152D01*
X0058521Y0018773D01*
X0059314Y0018516D01*
X0060055Y0018398D01*
X0060055Y0023185D01*
X0061055Y0023185D01*
X0061055Y0018398D01*
X0061796Y0018516D01*
X0062590Y0018773D01*
X0063333Y0019152D01*
X0064008Y0019642D01*
X0064598Y0020232D01*
X0065088Y0020907D01*
X0065467Y0021651D01*
X0065725Y0022444D01*
X0065736Y0022515D01*
X0066401Y0020909D01*
X0067779Y0019531D01*
X0069580Y0018785D01*
X0071530Y0018785D01*
X0073331Y0019531D01*
X0074709Y0020909D01*
X0075455Y0022710D01*
X0075455Y0024660D01*
X0074709Y0026461D01*
X0073331Y0027839D01*
X0071530Y0028585D01*
X0069580Y0028585D01*
X0067779Y0027839D01*
X0066401Y0026461D01*
X0065736Y0024855D01*
X0065725Y0024926D01*
X0065467Y0025720D01*
X0065088Y0026463D01*
X0064598Y0027138D01*
X0064008Y0027728D01*
X0063333Y0028218D01*
X0062590Y0028597D01*
X0061796Y0028855D01*
X0061055Y0028972D01*
X0061055Y0024185D01*
X0060055Y0024185D01*
X0060055Y0028972D01*
X0059314Y0028855D01*
X0058521Y0028597D01*
X0057777Y0028218D01*
X0057102Y0027728D01*
X0056512Y0027138D01*
X0056022Y0026463D01*
X0055643Y0025720D01*
X0055455Y0025140D01*
X0055455Y0027941D01*
X0054811Y0028585D01*
X0046299Y0028585D01*
X0045655Y0027461D02*
X0018392Y0027461D01*
X0021136Y0026463D02*
X0045655Y0026463D01*
X0045655Y0025464D02*
X0022607Y0025464D01*
X0023797Y0024466D02*
X0045655Y0024466D01*
X0045655Y0023467D02*
X0024987Y0023467D01*
X0025576Y0022469D02*
X0045655Y0022469D01*
X0045655Y0021470D02*
X0026153Y0021470D01*
X0026729Y0020472D02*
X0045655Y0020472D01*
X0045655Y0019473D02*
X0027245Y0019473D01*
X0027421Y0018475D02*
X0059572Y0018475D01*
X0060055Y0018475D02*
X0061055Y0018475D01*
X0061538Y0018475D02*
X0231485Y0018475D01*
X0231661Y0019473D02*
X0073191Y0019473D01*
X0074271Y0020472D02*
X0232176Y0020472D01*
X0232753Y0021470D02*
X0074941Y0021470D01*
X0075355Y0022469D02*
X0233329Y0022469D01*
X0233919Y0023467D02*
X0075455Y0023467D01*
X0075455Y0024466D02*
X0235109Y0024466D01*
X0236299Y0025464D02*
X0075122Y0025464D01*
X0074707Y0026463D02*
X0237770Y0026463D01*
X0240513Y0027461D02*
X0073708Y0027461D01*
X0071832Y0028460D02*
X0255906Y0028460D01*
X0255906Y0029458D02*
X0003000Y0029458D01*
X0003000Y0030457D02*
X0255906Y0030457D01*
X0255906Y0031455D02*
X0003000Y0031455D01*
X0003000Y0032454D02*
X0255906Y0032454D01*
X0255906Y0033452D02*
X0003000Y0033452D01*
X0003000Y0034451D02*
X0255906Y0034451D01*
X0255906Y0035449D02*
X0003000Y0035449D01*
X0003000Y0036448D02*
X0255906Y0036448D01*
X0255906Y0037446D02*
X0003000Y0037446D01*
X0003000Y0038445D02*
X0255906Y0038445D01*
X0255906Y0039443D02*
X0003000Y0039443D01*
X0003000Y0040442D02*
X0255906Y0040442D01*
X0255906Y0041440D02*
X0003000Y0041440D01*
X0003000Y0042439D02*
X0255906Y0042439D01*
X0255906Y0043437D02*
X0003000Y0043437D01*
X0003000Y0044436D02*
X0255906Y0044436D01*
X0255906Y0045434D02*
X0003000Y0045434D01*
X0003000Y0046433D02*
X0255906Y0046433D01*
X0255906Y0047432D02*
X0003000Y0047432D01*
X0003000Y0048430D02*
X0255906Y0048430D01*
X0255906Y0049429D02*
X0003000Y0049429D01*
X0003000Y0050427D02*
X0255906Y0050427D01*
X0255906Y0051426D02*
X0003000Y0051426D01*
X0003000Y0052424D02*
X0255906Y0052424D01*
X0255906Y0053423D02*
X0003000Y0053423D01*
X0003000Y0054421D02*
X0255906Y0054421D01*
X0255906Y0055420D02*
X0003000Y0055420D01*
X0003000Y0056418D02*
X0255906Y0056418D01*
X0255906Y0057417D02*
X0003000Y0057417D01*
X0003000Y0058415D02*
X0255906Y0058415D01*
X0255906Y0059414D02*
X0003000Y0059414D01*
X0003000Y0060412D02*
X0255906Y0060412D01*
X0255906Y0061411D02*
X0003000Y0061411D01*
X0003000Y0062409D02*
X0255906Y0062409D01*
X0255906Y0063408D02*
X0003000Y0063408D01*
X0003000Y0064406D02*
X0255906Y0064406D01*
X0255906Y0065405D02*
X0003000Y0065405D01*
X0003000Y0066403D02*
X0255906Y0066403D01*
X0255906Y0067402D02*
X0003000Y0067402D01*
X0003000Y0068400D02*
X0255906Y0068400D01*
X0255906Y0069399D02*
X0003000Y0069399D01*
X0003000Y0070397D02*
X0255906Y0070397D01*
X0255906Y0071396D02*
X0003000Y0071396D01*
X0003000Y0072394D02*
X0255906Y0072394D01*
X0255906Y0073393D02*
X0003000Y0073393D01*
X0003006Y0074391D02*
X0255906Y0074391D01*
X0255906Y0075390D02*
X0003287Y0075390D01*
X0004149Y0076388D02*
X0255906Y0076388D01*
X0255906Y0077387D02*
X0019815Y0077387D01*
X0020328Y0077599D02*
X0020328Y0077599D01*
X0021114Y0078385D02*
X0255906Y0078385D01*
X0255906Y0079384D02*
X0021963Y0079384D01*
X0021857Y0079129D02*
X0021857Y0079129D01*
X0022377Y0080382D02*
X0255906Y0080382D01*
X0255906Y0081381D02*
X0022685Y0081381D01*
X0022685Y0082379D02*
X0255906Y0082379D01*
X0255906Y0083378D02*
X0022685Y0083378D01*
X0022685Y0084376D02*
X0255906Y0084376D01*
X0255906Y0085375D02*
X0022685Y0085375D01*
X0022685Y0086373D02*
X0255906Y0086373D01*
X0255906Y0087372D02*
X0022685Y0087372D01*
X0022685Y0088370D02*
X0255906Y0088370D01*
X0255906Y0089369D02*
X0022685Y0089369D01*
X0022685Y0090368D02*
X0255906Y0090368D01*
X0255906Y0091366D02*
X0022685Y0091366D01*
X0022685Y0092365D02*
X0255906Y0092365D01*
X0255906Y0093363D02*
X0022685Y0093363D01*
X0022685Y0094362D02*
X0255906Y0094362D01*
X0255906Y0095360D02*
X0022685Y0095360D01*
X0022685Y0096359D02*
X0255906Y0096359D01*
X0255906Y0097357D02*
X0022685Y0097357D01*
X0022685Y0098356D02*
X0255906Y0098356D01*
X0255906Y0099354D02*
X0022685Y0099354D01*
X0022685Y0100353D02*
X0255906Y0100353D01*
X0255906Y0101351D02*
X0022685Y0101351D01*
X0022685Y0102350D02*
X0255906Y0102350D01*
X0255906Y0103348D02*
X0022685Y0103348D01*
X0022685Y0104347D02*
X0255906Y0104347D01*
X0255906Y0105345D02*
X0022685Y0105345D01*
X0022685Y0106344D02*
X0255906Y0106344D01*
X0255906Y0107342D02*
X0022685Y0107342D01*
X0022685Y0108341D02*
X0255906Y0108341D01*
X0255906Y0109339D02*
X0022685Y0109339D01*
X0022685Y0110338D02*
X0255906Y0110338D01*
X0255906Y0111336D02*
X0022685Y0111336D01*
X0022685Y0112335D02*
X0255906Y0112335D01*
X0255906Y0113333D02*
X0022685Y0113333D01*
X0022685Y0114332D02*
X0255906Y0114332D01*
X0255906Y0115330D02*
X0022685Y0115330D01*
X0022685Y0116329D02*
X0255906Y0116329D01*
X0255906Y0117327D02*
X0022685Y0117327D01*
X0022685Y0118326D02*
X0255906Y0118326D01*
X0255906Y0119324D02*
X0022685Y0119324D01*
X0022685Y0120323D02*
X0255906Y0120323D01*
X0255906Y0121321D02*
X0022685Y0121321D01*
X0022685Y0122320D02*
X0255906Y0122320D01*
X0255906Y0123318D02*
X0022685Y0123318D01*
X0022685Y0124317D02*
X0255906Y0124317D01*
X0255906Y0125315D02*
X0022685Y0125315D01*
X0022685Y0126314D02*
X0255906Y0126314D01*
X0255906Y0127312D02*
X0022685Y0127312D01*
X0022685Y0128311D02*
X0255906Y0128311D01*
X0255906Y0129309D02*
X0022685Y0129309D01*
X0022685Y0130308D02*
X0255906Y0130308D01*
X0255906Y0131306D02*
X0022685Y0131306D01*
X0022685Y0132305D02*
X0255906Y0132305D01*
X0255906Y0133303D02*
X0022685Y0133303D01*
X0022685Y0134302D02*
X0255906Y0134302D01*
X0255906Y0135301D02*
X0022685Y0135301D01*
X0022685Y0136299D02*
X0255906Y0136299D01*
X0255906Y0137298D02*
X0022685Y0137298D01*
X0022685Y0138296D02*
X0255906Y0138296D01*
X0255906Y0139295D02*
X0022685Y0139295D01*
X0022685Y0140293D02*
X0255906Y0140293D01*
X0255906Y0141292D02*
X0022685Y0141292D01*
X0022685Y0142290D02*
X0255906Y0142290D01*
X0255906Y0143289D02*
X0022294Y0143289D01*
X0021881Y0144287D02*
X0255906Y0144287D01*
X0255906Y0145286D02*
X0020915Y0145286D01*
X0021857Y0144344D02*
X0021857Y0144344D01*
X0019335Y0146284D02*
X0255906Y0146284D01*
X0255906Y0147283D02*
X0003912Y0147283D01*
X0003205Y0148281D02*
X0255906Y0148281D01*
X0255906Y0149280D02*
X0003000Y0149280D01*
X0003000Y0150278D02*
X0255906Y0150278D01*
X0255906Y0151277D02*
X0003000Y0151277D01*
X0003000Y0152275D02*
X0255906Y0152275D01*
X0255906Y0153274D02*
X0003000Y0153274D01*
X0003000Y0154272D02*
X0072275Y0154272D01*
X0072547Y0154000D02*
X0071200Y0155347D01*
X0071200Y0157253D01*
X0072547Y0158600D01*
X0073820Y0158600D01*
X0078400Y0163180D01*
X0078400Y0164453D01*
X0079747Y0165800D01*
X0081653Y0165800D01*
X0083000Y0164453D01*
X0083000Y0162547D01*
X0081653Y0161200D01*
X0080380Y0161200D01*
X0075800Y0156620D01*
X0075800Y0155347D01*
X0074453Y0154000D01*
X0072547Y0154000D01*
X0071277Y0155271D02*
X0003000Y0155271D01*
X0003000Y0156269D02*
X0071200Y0156269D01*
X0071215Y0157268D02*
X0003000Y0157268D01*
X0003000Y0158266D02*
X0072214Y0158266D01*
X0074485Y0159265D02*
X0003000Y0159265D01*
X0003000Y0160263D02*
X0075483Y0160263D01*
X0076482Y0161262D02*
X0003000Y0161262D01*
X0003000Y0162260D02*
X0077480Y0162260D01*
X0078400Y0163259D02*
X0003000Y0163259D01*
X0003000Y0164257D02*
X0078400Y0164257D01*
X0079203Y0165256D02*
X0003000Y0165256D01*
X0003000Y0166254D02*
X0255906Y0166254D01*
X0255906Y0165256D02*
X0082197Y0165256D01*
X0083000Y0164257D02*
X0255906Y0164257D01*
X0255906Y0163259D02*
X0083000Y0163259D01*
X0082713Y0162260D02*
X0255906Y0162260D01*
X0255906Y0161262D02*
X0081714Y0161262D01*
X0079443Y0160263D02*
X0255906Y0160263D01*
X0255906Y0159265D02*
X0078445Y0159265D01*
X0077446Y0158266D02*
X0255906Y0158266D01*
X0255906Y0157268D02*
X0076448Y0157268D01*
X0075800Y0156269D02*
X0255906Y0156269D01*
X0255906Y0155271D02*
X0075723Y0155271D01*
X0074725Y0154272D02*
X0255906Y0154272D01*
X0255906Y0167253D02*
X0003000Y0167253D01*
X0003000Y0168251D02*
X0255906Y0168251D01*
X0255906Y0169250D02*
X0003000Y0169250D01*
X0003000Y0170248D02*
X0255906Y0170248D01*
X0255906Y0171247D02*
X0003000Y0171247D01*
X0003000Y0172245D02*
X0255906Y0172245D01*
X0255906Y0173244D02*
X0003000Y0173244D01*
X0003000Y0174242D02*
X0255906Y0174242D01*
X0255906Y0175241D02*
X0003000Y0175241D01*
X0003000Y0176239D02*
X0255906Y0176239D01*
X0255906Y0177238D02*
X0003000Y0177238D01*
X0003000Y0178237D02*
X0255906Y0178237D01*
X0255906Y0179235D02*
X0003000Y0179235D01*
X0003000Y0180234D02*
X0255906Y0180234D01*
X0255906Y0181232D02*
X0003000Y0181232D01*
X0003000Y0182231D02*
X0255906Y0182231D01*
X0255906Y0183229D02*
X0003000Y0183229D01*
X0003000Y0184228D02*
X0255906Y0184228D01*
X0255906Y0185226D02*
X0003000Y0185226D01*
X0003000Y0186225D02*
X0255906Y0186225D01*
X0255906Y0187223D02*
X0003000Y0187223D01*
X0003000Y0188222D02*
X0255906Y0188222D01*
X0255906Y0189220D02*
X0003000Y0189220D01*
X0003000Y0190219D02*
X0255906Y0190219D01*
X0255906Y0191217D02*
X0003000Y0191217D01*
X0003000Y0192216D02*
X0255906Y0192216D01*
X0255906Y0193214D02*
X0003000Y0193214D01*
X0003000Y0194213D02*
X0255906Y0194213D01*
X0255906Y0195211D02*
X0003000Y0195211D01*
X0003000Y0196210D02*
X0011621Y0196210D01*
X0008906Y0197208D02*
X0003000Y0197208D01*
X0003000Y0198207D02*
X0007716Y0198207D01*
X0006526Y0199205D02*
X0003000Y0199205D01*
X0003000Y0200204D02*
X0005445Y0200204D01*
X0004868Y0201202D02*
X0003000Y0201202D01*
X0003000Y0202201D02*
X0004292Y0202201D01*
X0003715Y0203199D02*
X0003000Y0203199D01*
X0003000Y0204198D02*
X0003279Y0204198D01*
X0003103Y0205196D02*
X0003000Y0205196D01*
X0018938Y0196210D02*
X0039410Y0196210D01*
X0039100Y0196520D02*
X0039920Y0195700D01*
X0108880Y0195700D01*
X0112514Y0199334D01*
X0112754Y0199093D01*
X0116151Y0199093D01*
X0118553Y0201495D01*
X0118553Y0204891D01*
X0116151Y0207293D01*
X0112754Y0207293D01*
X0110353Y0204891D01*
X0110353Y0201495D01*
X0110534Y0201314D01*
X0107720Y0198500D01*
X0041080Y0198500D01*
X0038319Y0201261D01*
X0038553Y0201495D01*
X0038553Y0204891D01*
X0036151Y0207293D01*
X0032754Y0207293D01*
X0030353Y0204891D01*
X0030353Y0201495D01*
X0032754Y0199093D01*
X0036151Y0199093D01*
X0036339Y0199281D01*
X0039100Y0196520D01*
X0038412Y0197208D02*
X0021653Y0197208D01*
X0022843Y0198207D02*
X0037413Y0198207D01*
X0036415Y0199205D02*
X0036263Y0199205D01*
X0038378Y0201202D02*
X0040645Y0201202D01*
X0040353Y0201495D02*
X0042754Y0199093D01*
X0046151Y0199093D01*
X0048553Y0201495D01*
X0048553Y0204891D01*
X0046151Y0207293D01*
X0042754Y0207293D01*
X0040353Y0204891D01*
X0040353Y0201495D01*
X0040353Y0202201D02*
X0038553Y0202201D01*
X0038553Y0203199D02*
X0040353Y0203199D01*
X0040353Y0204198D02*
X0038553Y0204198D01*
X0038248Y0205196D02*
X0040658Y0205196D01*
X0041656Y0206195D02*
X0037249Y0206195D01*
X0036251Y0207193D02*
X0042655Y0207193D01*
X0042754Y0209093D02*
X0046151Y0209093D01*
X0048553Y0211495D01*
X0048553Y0214891D01*
X0046151Y0217293D01*
X0042754Y0217293D01*
X0040353Y0214891D01*
X0040353Y0211495D01*
X0042754Y0209093D01*
X0042657Y0209190D02*
X0036248Y0209190D01*
X0036151Y0209093D02*
X0038553Y0211495D01*
X0038553Y0214891D01*
X0036151Y0217293D01*
X0032754Y0217293D01*
X0030353Y0214891D01*
X0030353Y0211495D01*
X0032754Y0209093D01*
X0036151Y0209093D01*
X0037247Y0210189D02*
X0041659Y0210189D01*
X0040660Y0211187D02*
X0038245Y0211187D01*
X0038553Y0212186D02*
X0040353Y0212186D01*
X0040353Y0213184D02*
X0038553Y0213184D01*
X0038553Y0214183D02*
X0040353Y0214183D01*
X0040643Y0215181D02*
X0038263Y0215181D01*
X0037264Y0216180D02*
X0041642Y0216180D01*
X0042640Y0217178D02*
X0036265Y0217178D01*
X0032640Y0217178D02*
X0024036Y0217178D01*
X0025115Y0216180D02*
X0031642Y0216180D01*
X0030643Y0215181D02*
X0025692Y0215181D01*
X0026268Y0214183D02*
X0030353Y0214183D01*
X0030353Y0213184D02*
X0026845Y0213184D01*
X0027280Y0212186D02*
X0030353Y0212186D01*
X0030660Y0211187D02*
X0027456Y0211187D01*
X0027632Y0210189D02*
X0031659Y0210189D01*
X0032657Y0209190D02*
X0027808Y0209190D01*
X0027984Y0208192D02*
X0230921Y0208192D01*
X0231097Y0209190D02*
X0226248Y0209190D01*
X0226151Y0209093D02*
X0228553Y0211495D01*
X0228553Y0214891D01*
X0226151Y0217293D01*
X0222754Y0217293D01*
X0220353Y0214891D01*
X0220353Y0211495D01*
X0222754Y0209093D01*
X0226151Y0209093D01*
X0226317Y0207693D02*
X0224953Y0207693D01*
X0224953Y0203693D01*
X0228953Y0203693D01*
X0228953Y0205057D01*
X0226317Y0207693D01*
X0226816Y0207193D02*
X0231098Y0207193D01*
X0231274Y0206195D02*
X0227815Y0206195D01*
X0228813Y0205196D02*
X0231450Y0205196D01*
X0231626Y0204198D02*
X0228953Y0204198D01*
X0228953Y0202693D02*
X0224953Y0202693D01*
X0224953Y0203693D01*
X0223953Y0203693D01*
X0223953Y0207693D01*
X0222589Y0207693D01*
X0219953Y0205057D01*
X0219953Y0203693D01*
X0223953Y0203693D01*
X0223953Y0202693D01*
X0224953Y0202693D01*
X0224953Y0198693D01*
X0226317Y0198693D01*
X0228953Y0201329D01*
X0228953Y0202693D01*
X0228953Y0202201D02*
X0232638Y0202201D01*
X0232062Y0203199D02*
X0224953Y0203199D01*
X0224953Y0202201D02*
X0223953Y0202201D01*
X0223953Y0202693D02*
X0223953Y0198693D01*
X0222589Y0198693D01*
X0219953Y0201329D01*
X0219953Y0202693D01*
X0223953Y0202693D01*
X0223953Y0203199D02*
X0218553Y0203199D01*
X0218553Y0202201D02*
X0219953Y0202201D01*
X0220079Y0201202D02*
X0218260Y0201202D01*
X0218553Y0201495D02*
X0216151Y0199093D01*
X0212754Y0199093D01*
X0210353Y0201495D01*
X0210353Y0204891D01*
X0212754Y0207293D01*
X0216151Y0207293D01*
X0218553Y0204891D01*
X0218553Y0201495D01*
X0217262Y0200204D02*
X0221078Y0200204D01*
X0222076Y0199205D02*
X0216263Y0199205D01*
X0212642Y0199205D02*
X0206263Y0199205D01*
X0206151Y0199093D02*
X0208553Y0201495D01*
X0208553Y0204891D01*
X0206151Y0207293D01*
X0202754Y0207293D01*
X0200353Y0204891D01*
X0200353Y0201495D01*
X0202754Y0199093D01*
X0206151Y0199093D01*
X0207262Y0200204D02*
X0211644Y0200204D01*
X0210645Y0201202D02*
X0208260Y0201202D01*
X0208553Y0202201D02*
X0210353Y0202201D01*
X0210353Y0203199D02*
X0208553Y0203199D01*
X0208553Y0204198D02*
X0210353Y0204198D01*
X0210658Y0205196D02*
X0208248Y0205196D01*
X0207249Y0206195D02*
X0211656Y0206195D01*
X0212655Y0207193D02*
X0206251Y0207193D01*
X0206151Y0209093D02*
X0202754Y0209093D01*
X0200353Y0211495D01*
X0200353Y0214891D01*
X0202754Y0217293D01*
X0206151Y0217293D01*
X0208553Y0214891D01*
X0208553Y0211495D01*
X0206151Y0209093D01*
X0206248Y0209190D02*
X0212657Y0209190D01*
X0212754Y0209093D02*
X0216151Y0209093D01*
X0218553Y0211495D01*
X0218553Y0214891D01*
X0216151Y0217293D01*
X0212754Y0217293D01*
X0210353Y0214891D01*
X0210353Y0211495D01*
X0212754Y0209093D01*
X0211659Y0210189D02*
X0207247Y0210189D01*
X0208245Y0211187D02*
X0210660Y0211187D01*
X0210353Y0212186D02*
X0208553Y0212186D01*
X0208553Y0213184D02*
X0210353Y0213184D01*
X0210353Y0214183D02*
X0208553Y0214183D01*
X0208262Y0215181D02*
X0210643Y0215181D01*
X0211642Y0216180D02*
X0207264Y0216180D01*
X0206265Y0217178D02*
X0212640Y0217178D01*
X0216265Y0217178D02*
X0222640Y0217178D01*
X0221642Y0216180D02*
X0217264Y0216180D01*
X0218262Y0215181D02*
X0220643Y0215181D01*
X0220353Y0214183D02*
X0218553Y0214183D01*
X0218553Y0213184D02*
X0220353Y0213184D01*
X0220353Y0212186D02*
X0218553Y0212186D01*
X0218245Y0211187D02*
X0220660Y0211187D01*
X0221659Y0210189D02*
X0217247Y0210189D01*
X0216248Y0209190D02*
X0222657Y0209190D01*
X0222089Y0207193D02*
X0216251Y0207193D01*
X0217249Y0206195D02*
X0221091Y0206195D01*
X0220092Y0205196D02*
X0218248Y0205196D01*
X0218553Y0204198D02*
X0219953Y0204198D01*
X0223953Y0204198D02*
X0224953Y0204198D01*
X0224953Y0205196D02*
X0223953Y0205196D01*
X0223953Y0206195D02*
X0224953Y0206195D01*
X0224953Y0207193D02*
X0223953Y0207193D01*
X0227247Y0210189D02*
X0231273Y0210189D01*
X0231449Y0211187D02*
X0228245Y0211187D01*
X0228553Y0212186D02*
X0231625Y0212186D01*
X0232061Y0213184D02*
X0228553Y0213184D01*
X0228553Y0214183D02*
X0232637Y0214183D01*
X0233214Y0215181D02*
X0228262Y0215181D01*
X0227264Y0216180D02*
X0233790Y0216180D01*
X0234870Y0217178D02*
X0226265Y0217178D01*
X0236060Y0218177D02*
X0022846Y0218177D01*
X0021656Y0219175D02*
X0237250Y0219175D01*
X0239962Y0220174D02*
X0018944Y0220174D01*
X0027808Y0207193D02*
X0032655Y0207193D01*
X0031656Y0206195D02*
X0027632Y0206195D01*
X0027456Y0205196D02*
X0030658Y0205196D01*
X0030353Y0204198D02*
X0027280Y0204198D01*
X0026844Y0203199D02*
X0030353Y0203199D01*
X0030353Y0202201D02*
X0026267Y0202201D01*
X0025691Y0201202D02*
X0030645Y0201202D01*
X0031644Y0200204D02*
X0025114Y0200204D01*
X0024033Y0199205D02*
X0032642Y0199205D01*
X0039376Y0200204D02*
X0041644Y0200204D01*
X0042642Y0199205D02*
X0040375Y0199205D01*
X0046263Y0199205D02*
X0052642Y0199205D01*
X0052754Y0199093D02*
X0056151Y0199093D01*
X0058553Y0201495D01*
X0058553Y0204891D01*
X0056151Y0207293D01*
X0052754Y0207293D01*
X0050353Y0204891D01*
X0050353Y0201495D01*
X0052754Y0199093D01*
X0051644Y0200204D02*
X0047262Y0200204D01*
X0048260Y0201202D02*
X0050645Y0201202D01*
X0050353Y0202201D02*
X0048553Y0202201D01*
X0048553Y0203199D02*
X0050353Y0203199D01*
X0050353Y0204198D02*
X0048553Y0204198D01*
X0048248Y0205196D02*
X0050658Y0205196D01*
X0051656Y0206195D02*
X0047249Y0206195D01*
X0046251Y0207193D02*
X0052655Y0207193D01*
X0052589Y0208693D02*
X0053953Y0208693D01*
X0053953Y0212693D01*
X0054953Y0212693D01*
X0054953Y0213693D01*
X0058953Y0213693D01*
X0058953Y0215057D01*
X0056317Y0217693D01*
X0054953Y0217693D01*
X0054953Y0213693D01*
X0053953Y0213693D01*
X0053953Y0217693D01*
X0052589Y0217693D01*
X0049953Y0215057D01*
X0049953Y0213693D01*
X0053953Y0213693D01*
X0053953Y0212693D01*
X0049953Y0212693D01*
X0049953Y0211329D01*
X0052589Y0208693D01*
X0052091Y0209190D02*
X0046248Y0209190D01*
X0047247Y0210189D02*
X0051093Y0210189D01*
X0050094Y0211187D02*
X0048245Y0211187D01*
X0048553Y0212186D02*
X0049953Y0212186D01*
X0048553Y0213184D02*
X0053953Y0213184D01*
X0053953Y0212186D02*
X0054953Y0212186D01*
X0054953Y0212693D02*
X0054953Y0208693D01*
X0056317Y0208693D01*
X0058953Y0211329D01*
X0058953Y0212693D01*
X0054953Y0212693D01*
X0054953Y0213184D02*
X0060353Y0213184D01*
X0060353Y0212186D02*
X0058953Y0212186D01*
X0058811Y0211187D02*
X0060660Y0211187D01*
X0060353Y0211495D02*
X0062754Y0209093D01*
X0066151Y0209093D01*
X0068553Y0211495D01*
X0068553Y0214891D01*
X0066151Y0217293D01*
X0062754Y0217293D01*
X0060353Y0214891D01*
X0060353Y0211495D01*
X0061659Y0210189D02*
X0057813Y0210189D01*
X0056814Y0209190D02*
X0062657Y0209190D01*
X0062754Y0207293D02*
X0060353Y0204891D01*
X0060353Y0201495D01*
X0062754Y0199093D01*
X0066151Y0199093D01*
X0068553Y0201495D01*
X0068553Y0204891D01*
X0066151Y0207293D01*
X0062754Y0207293D01*
X0062655Y0207193D02*
X0056251Y0207193D01*
X0057249Y0206195D02*
X0061656Y0206195D01*
X0060658Y0205196D02*
X0058248Y0205196D01*
X0058553Y0204198D02*
X0060353Y0204198D01*
X0060353Y0203199D02*
X0058553Y0203199D01*
X0058553Y0202201D02*
X0060353Y0202201D01*
X0060645Y0201202D02*
X0058260Y0201202D01*
X0057262Y0200204D02*
X0061644Y0200204D01*
X0062642Y0199205D02*
X0056263Y0199205D01*
X0066263Y0199205D02*
X0072076Y0199205D01*
X0072589Y0198693D02*
X0069953Y0201329D01*
X0069953Y0202693D01*
X0073953Y0202693D01*
X0074953Y0202693D01*
X0074953Y0203693D01*
X0078953Y0203693D01*
X0078953Y0205057D01*
X0076317Y0207693D01*
X0074953Y0207693D01*
X0074953Y0203693D01*
X0073953Y0203693D01*
X0073953Y0207693D01*
X0072589Y0207693D01*
X0069953Y0205057D01*
X0069953Y0203693D01*
X0073953Y0203693D01*
X0073953Y0202693D01*
X0073953Y0198693D01*
X0072589Y0198693D01*
X0073953Y0199205D02*
X0074953Y0199205D01*
X0074953Y0198693D02*
X0076317Y0198693D01*
X0078953Y0201329D01*
X0078953Y0202693D01*
X0074953Y0202693D01*
X0074953Y0198693D01*
X0074953Y0200204D02*
X0073953Y0200204D01*
X0073953Y0201202D02*
X0074953Y0201202D01*
X0074953Y0202201D02*
X0073953Y0202201D01*
X0073953Y0203199D02*
X0068553Y0203199D01*
X0068553Y0202201D02*
X0069953Y0202201D01*
X0070079Y0201202D02*
X0068260Y0201202D01*
X0067262Y0200204D02*
X0071078Y0200204D01*
X0074953Y0203199D02*
X0080353Y0203199D01*
X0080353Y0202201D02*
X0078953Y0202201D01*
X0078826Y0201202D02*
X0080645Y0201202D01*
X0080353Y0201495D02*
X0082754Y0199093D01*
X0086151Y0199093D01*
X0088553Y0201495D01*
X0088553Y0204891D01*
X0086151Y0207293D01*
X0082754Y0207293D01*
X0080353Y0204891D01*
X0080353Y0201495D01*
X0081644Y0200204D02*
X0077828Y0200204D01*
X0076829Y0199205D02*
X0082642Y0199205D01*
X0086263Y0199205D02*
X0092642Y0199205D01*
X0092754Y0199093D02*
X0096151Y0199093D01*
X0098553Y0201495D01*
X0098553Y0204891D01*
X0096151Y0207293D01*
X0092754Y0207293D01*
X0090353Y0204891D01*
X0090353Y0201495D01*
X0092754Y0199093D01*
X0091644Y0200204D02*
X0087262Y0200204D01*
X0088260Y0201202D02*
X0090645Y0201202D01*
X0090353Y0202201D02*
X0088553Y0202201D01*
X0088553Y0203199D02*
X0090353Y0203199D01*
X0090353Y0204198D02*
X0088553Y0204198D01*
X0088248Y0205196D02*
X0090658Y0205196D01*
X0091656Y0206195D02*
X0087249Y0206195D01*
X0086251Y0207193D02*
X0092655Y0207193D01*
X0092589Y0208693D02*
X0093953Y0208693D01*
X0093953Y0212693D01*
X0094953Y0212693D01*
X0094953Y0213693D01*
X0098953Y0213693D01*
X0098953Y0215057D01*
X0096317Y0217693D01*
X0094953Y0217693D01*
X0094953Y0213693D01*
X0093953Y0213693D01*
X0093953Y0217693D01*
X0092589Y0217693D01*
X0089953Y0215057D01*
X0089953Y0213693D01*
X0093953Y0213693D01*
X0093953Y0212693D01*
X0089953Y0212693D01*
X0089953Y0211329D01*
X0092589Y0208693D01*
X0092091Y0209190D02*
X0086248Y0209190D01*
X0086151Y0209093D02*
X0088553Y0211495D01*
X0088553Y0214891D01*
X0086151Y0217293D01*
X0082754Y0217293D01*
X0080353Y0214891D01*
X0080353Y0211495D01*
X0082754Y0209093D01*
X0086151Y0209093D01*
X0087247Y0210189D02*
X0091093Y0210189D01*
X0090094Y0211187D02*
X0088245Y0211187D01*
X0088553Y0212186D02*
X0089953Y0212186D01*
X0088553Y0213184D02*
X0093953Y0213184D01*
X0093953Y0212186D02*
X0094953Y0212186D01*
X0094953Y0212693D02*
X0094953Y0208693D01*
X0096317Y0208693D01*
X0098953Y0211329D01*
X0098953Y0212693D01*
X0094953Y0212693D01*
X0094953Y0213184D02*
X0100353Y0213184D01*
X0100353Y0212186D02*
X0098953Y0212186D01*
X0098811Y0211187D02*
X0100660Y0211187D01*
X0100353Y0211495D02*
X0102754Y0209093D01*
X0106151Y0209093D01*
X0108553Y0211495D01*
X0108553Y0214891D01*
X0106151Y0217293D01*
X0102754Y0217293D01*
X0100353Y0214891D01*
X0100353Y0211495D01*
X0101659Y0210189D02*
X0097813Y0210189D01*
X0096814Y0209190D02*
X0102657Y0209190D01*
X0102754Y0207293D02*
X0100353Y0204891D01*
X0100353Y0201495D01*
X0102754Y0199093D01*
X0106151Y0199093D01*
X0108553Y0201495D01*
X0108553Y0204891D01*
X0106151Y0207293D01*
X0102754Y0207293D01*
X0102655Y0207193D02*
X0096251Y0207193D01*
X0097249Y0206195D02*
X0101656Y0206195D01*
X0100658Y0205196D02*
X0098248Y0205196D01*
X0098553Y0204198D02*
X0100353Y0204198D01*
X0100353Y0203199D02*
X0098553Y0203199D01*
X0098553Y0202201D02*
X0100353Y0202201D01*
X0100645Y0201202D02*
X0098260Y0201202D01*
X0097262Y0200204D02*
X0101644Y0200204D01*
X0102642Y0199205D02*
X0096263Y0199205D01*
X0106263Y0199205D02*
X0108425Y0199205D01*
X0109424Y0200204D02*
X0107262Y0200204D01*
X0108260Y0201202D02*
X0110422Y0201202D01*
X0110353Y0202201D02*
X0108553Y0202201D01*
X0108553Y0203199D02*
X0110353Y0203199D01*
X0110353Y0204198D02*
X0108553Y0204198D01*
X0108248Y0205196D02*
X0110658Y0205196D01*
X0111656Y0206195D02*
X0107249Y0206195D01*
X0106251Y0207193D02*
X0112655Y0207193D01*
X0112754Y0209093D02*
X0116151Y0209093D01*
X0118553Y0211495D01*
X0118553Y0214891D01*
X0116151Y0217293D01*
X0112754Y0217293D01*
X0110353Y0214891D01*
X0110353Y0211495D01*
X0112754Y0209093D01*
X0112657Y0209190D02*
X0106248Y0209190D01*
X0107247Y0210189D02*
X0111659Y0210189D01*
X0110660Y0211187D02*
X0108245Y0211187D01*
X0108553Y0212186D02*
X0110353Y0212186D01*
X0110353Y0213184D02*
X0108553Y0213184D01*
X0108553Y0214183D02*
X0110353Y0214183D01*
X0110643Y0215181D02*
X0108262Y0215181D01*
X0107264Y0216180D02*
X0111642Y0216180D01*
X0112640Y0217178D02*
X0106265Y0217178D01*
X0102640Y0217178D02*
X0096831Y0217178D01*
X0097830Y0216180D02*
X0101642Y0216180D01*
X0100643Y0215181D02*
X0098828Y0215181D01*
X0098953Y0214183D02*
X0100353Y0214183D01*
X0094953Y0214183D02*
X0093953Y0214183D01*
X0093953Y0215181D02*
X0094953Y0215181D01*
X0094953Y0216180D02*
X0093953Y0216180D01*
X0093953Y0217178D02*
X0094953Y0217178D01*
X0092074Y0217178D02*
X0086265Y0217178D01*
X0087264Y0216180D02*
X0091076Y0216180D01*
X0090077Y0215181D02*
X0088262Y0215181D01*
X0088553Y0214183D02*
X0089953Y0214183D01*
X0093953Y0211187D02*
X0094953Y0211187D01*
X0094953Y0210189D02*
X0093953Y0210189D01*
X0093953Y0209190D02*
X0094953Y0209190D01*
X0082657Y0209190D02*
X0076248Y0209190D01*
X0076151Y0209093D02*
X0078553Y0211495D01*
X0078553Y0214891D01*
X0076151Y0217293D01*
X0072754Y0217293D01*
X0070353Y0214891D01*
X0070353Y0211495D01*
X0072754Y0209093D01*
X0076151Y0209093D01*
X0077247Y0210189D02*
X0081659Y0210189D01*
X0080660Y0211187D02*
X0078245Y0211187D01*
X0078553Y0212186D02*
X0080353Y0212186D01*
X0080353Y0213184D02*
X0078553Y0213184D01*
X0078553Y0214183D02*
X0080353Y0214183D01*
X0080643Y0215181D02*
X0078263Y0215181D01*
X0077264Y0216180D02*
X0081642Y0216180D01*
X0082640Y0217178D02*
X0076265Y0217178D01*
X0072640Y0217178D02*
X0066265Y0217178D01*
X0067264Y0216180D02*
X0071642Y0216180D01*
X0070643Y0215181D02*
X0068263Y0215181D01*
X0068553Y0214183D02*
X0070353Y0214183D01*
X0070353Y0213184D02*
X0068553Y0213184D01*
X0068553Y0212186D02*
X0070353Y0212186D01*
X0070660Y0211187D02*
X0068245Y0211187D01*
X0067247Y0210189D02*
X0071659Y0210189D01*
X0072657Y0209190D02*
X0066248Y0209190D01*
X0066251Y0207193D02*
X0072089Y0207193D01*
X0071091Y0206195D02*
X0067249Y0206195D01*
X0068248Y0205196D02*
X0070092Y0205196D01*
X0069953Y0204198D02*
X0068553Y0204198D01*
X0073953Y0204198D02*
X0074953Y0204198D01*
X0074953Y0205196D02*
X0073953Y0205196D01*
X0073953Y0206195D02*
X0074953Y0206195D01*
X0074953Y0207193D02*
X0073953Y0207193D01*
X0076816Y0207193D02*
X0082655Y0207193D01*
X0081656Y0206195D02*
X0077815Y0206195D01*
X0078813Y0205196D02*
X0080658Y0205196D01*
X0080353Y0204198D02*
X0078953Y0204198D01*
X0062640Y0217178D02*
X0056831Y0217178D01*
X0057830Y0216180D02*
X0061642Y0216180D01*
X0060643Y0215181D02*
X0058828Y0215181D01*
X0058953Y0214183D02*
X0060353Y0214183D01*
X0054953Y0214183D02*
X0053953Y0214183D01*
X0053953Y0215181D02*
X0054953Y0215181D01*
X0054953Y0216180D02*
X0053953Y0216180D01*
X0053953Y0217178D02*
X0054953Y0217178D01*
X0052074Y0217178D02*
X0046265Y0217178D01*
X0047264Y0216180D02*
X0051076Y0216180D01*
X0050077Y0215181D02*
X0048262Y0215181D01*
X0048553Y0214183D02*
X0049953Y0214183D01*
X0053953Y0211187D02*
X0054953Y0211187D01*
X0054953Y0210189D02*
X0053953Y0210189D01*
X0053953Y0209190D02*
X0054953Y0209190D01*
X0109390Y0196210D02*
X0239968Y0196210D01*
X0237252Y0197208D02*
X0110388Y0197208D01*
X0111387Y0198207D02*
X0236062Y0198207D01*
X0234872Y0199205D02*
X0226829Y0199205D01*
X0227828Y0200204D02*
X0233791Y0200204D01*
X0233215Y0201202D02*
X0228826Y0201202D01*
X0224953Y0201202D02*
X0223953Y0201202D01*
X0223953Y0200204D02*
X0224953Y0200204D01*
X0224953Y0199205D02*
X0223953Y0199205D01*
X0202642Y0199205D02*
X0196263Y0199205D01*
X0196151Y0199093D02*
X0198553Y0201495D01*
X0198553Y0204891D01*
X0196151Y0207293D01*
X0192754Y0207293D01*
X0190353Y0204891D01*
X0190353Y0201495D01*
X0192754Y0199093D01*
X0196151Y0199093D01*
X0197262Y0200204D02*
X0201644Y0200204D01*
X0200645Y0201202D02*
X0198260Y0201202D01*
X0198553Y0202201D02*
X0200353Y0202201D01*
X0200353Y0203199D02*
X0198553Y0203199D01*
X0198553Y0204198D02*
X0200353Y0204198D01*
X0200658Y0205196D02*
X0198248Y0205196D01*
X0197249Y0206195D02*
X0201656Y0206195D01*
X0202655Y0207193D02*
X0196251Y0207193D01*
X0196317Y0208693D02*
X0198953Y0211329D01*
X0198953Y0212693D01*
X0194953Y0212693D01*
X0194953Y0213693D01*
X0198953Y0213693D01*
X0198953Y0215057D01*
X0196317Y0217693D01*
X0194953Y0217693D01*
X0194953Y0213693D01*
X0193953Y0213693D01*
X0193953Y0217693D01*
X0192589Y0217693D01*
X0189953Y0215057D01*
X0189953Y0213693D01*
X0193953Y0213693D01*
X0193953Y0212693D01*
X0194953Y0212693D01*
X0194953Y0208693D01*
X0196317Y0208693D01*
X0196814Y0209190D02*
X0202657Y0209190D01*
X0201659Y0210189D02*
X0197813Y0210189D01*
X0198811Y0211187D02*
X0200660Y0211187D01*
X0200353Y0212186D02*
X0198953Y0212186D01*
X0200353Y0213184D02*
X0194953Y0213184D01*
X0194953Y0212186D02*
X0193953Y0212186D01*
X0193953Y0212693D02*
X0193953Y0208693D01*
X0192589Y0208693D01*
X0189953Y0211329D01*
X0189953Y0212693D01*
X0193953Y0212693D01*
X0193953Y0213184D02*
X0188553Y0213184D01*
X0188553Y0212186D02*
X0189953Y0212186D01*
X0190094Y0211187D02*
X0188245Y0211187D01*
X0188553Y0211495D02*
X0186151Y0209093D01*
X0182754Y0209093D01*
X0180353Y0211495D01*
X0180353Y0214891D01*
X0182754Y0217293D01*
X0186151Y0217293D01*
X0188553Y0214891D01*
X0188553Y0211495D01*
X0187247Y0210189D02*
X0191093Y0210189D01*
X0192091Y0209190D02*
X0186248Y0209190D01*
X0186151Y0207293D02*
X0182754Y0207293D01*
X0180353Y0204891D01*
X0180353Y0201495D01*
X0182754Y0199093D01*
X0186151Y0199093D01*
X0188553Y0201495D01*
X0188553Y0204891D01*
X0186151Y0207293D01*
X0186251Y0207193D02*
X0192655Y0207193D01*
X0191656Y0206195D02*
X0187249Y0206195D01*
X0188248Y0205196D02*
X0190658Y0205196D01*
X0190353Y0204198D02*
X0188553Y0204198D01*
X0188553Y0203199D02*
X0190353Y0203199D01*
X0190353Y0202201D02*
X0188553Y0202201D01*
X0188260Y0201202D02*
X0190645Y0201202D01*
X0191644Y0200204D02*
X0187262Y0200204D01*
X0186263Y0199205D02*
X0192642Y0199205D01*
X0182642Y0199205D02*
X0176263Y0199205D01*
X0176151Y0199093D02*
X0178553Y0201495D01*
X0178553Y0204891D01*
X0176151Y0207293D01*
X0172754Y0207293D01*
X0170353Y0204891D01*
X0170353Y0201495D01*
X0172754Y0199093D01*
X0176151Y0199093D01*
X0177262Y0200204D02*
X0181644Y0200204D01*
X0180645Y0201202D02*
X0178260Y0201202D01*
X0178553Y0202201D02*
X0180353Y0202201D01*
X0180353Y0203199D02*
X0178553Y0203199D01*
X0178553Y0204198D02*
X0180353Y0204198D01*
X0180658Y0205196D02*
X0178248Y0205196D01*
X0177249Y0206195D02*
X0181656Y0206195D01*
X0182655Y0207193D02*
X0176251Y0207193D01*
X0176317Y0208693D02*
X0174953Y0208693D01*
X0174953Y0212693D01*
X0174953Y0213693D01*
X0178953Y0213693D01*
X0178953Y0215057D01*
X0176317Y0217693D01*
X0174953Y0217693D01*
X0174953Y0213693D01*
X0173953Y0213693D01*
X0173953Y0217693D01*
X0172589Y0217693D01*
X0169953Y0215057D01*
X0169953Y0213693D01*
X0173953Y0213693D01*
X0173953Y0212693D01*
X0174953Y0212693D01*
X0178953Y0212693D01*
X0178953Y0211329D01*
X0176317Y0208693D01*
X0176814Y0209190D02*
X0182657Y0209190D01*
X0181659Y0210189D02*
X0177813Y0210189D01*
X0178811Y0211187D02*
X0180660Y0211187D01*
X0180353Y0212186D02*
X0178953Y0212186D01*
X0180353Y0213184D02*
X0174953Y0213184D01*
X0174953Y0212186D02*
X0173953Y0212186D01*
X0173953Y0212693D02*
X0173953Y0208693D01*
X0172589Y0208693D01*
X0169953Y0211329D01*
X0169953Y0212693D01*
X0173953Y0212693D01*
X0173953Y0213184D02*
X0168553Y0213184D01*
X0168553Y0212186D02*
X0169953Y0212186D01*
X0170094Y0211187D02*
X0168245Y0211187D01*
X0168553Y0211495D02*
X0166151Y0209093D01*
X0162754Y0209093D01*
X0160353Y0211495D01*
X0160353Y0214891D01*
X0162754Y0217293D01*
X0166151Y0217293D01*
X0168553Y0214891D01*
X0168553Y0211495D01*
X0167247Y0210189D02*
X0171093Y0210189D01*
X0172091Y0209190D02*
X0166248Y0209190D01*
X0166151Y0207293D02*
X0162754Y0207293D01*
X0160353Y0204891D01*
X0160353Y0201495D01*
X0162754Y0199093D01*
X0166151Y0199093D01*
X0168553Y0201495D01*
X0168553Y0204891D01*
X0166151Y0207293D01*
X0166251Y0207193D02*
X0172655Y0207193D01*
X0171656Y0206195D02*
X0167249Y0206195D01*
X0168248Y0205196D02*
X0170658Y0205196D01*
X0170353Y0204198D02*
X0168553Y0204198D01*
X0168553Y0203199D02*
X0170353Y0203199D01*
X0170353Y0202201D02*
X0168553Y0202201D01*
X0168260Y0201202D02*
X0170645Y0201202D01*
X0171644Y0200204D02*
X0167262Y0200204D01*
X0166263Y0199205D02*
X0172642Y0199205D01*
X0162642Y0199205D02*
X0156829Y0199205D01*
X0156317Y0198693D02*
X0154953Y0198693D01*
X0154953Y0202693D01*
X0154953Y0203693D01*
X0158953Y0203693D01*
X0158953Y0205057D01*
X0156317Y0207693D01*
X0154953Y0207693D01*
X0154953Y0203693D01*
X0153953Y0203693D01*
X0153953Y0207693D01*
X0152589Y0207693D01*
X0149953Y0205057D01*
X0149953Y0203693D01*
X0153953Y0203693D01*
X0153953Y0202693D01*
X0154953Y0202693D01*
X0158953Y0202693D01*
X0158953Y0201329D01*
X0156317Y0198693D01*
X0154953Y0199205D02*
X0153953Y0199205D01*
X0153953Y0198693D02*
X0152589Y0198693D01*
X0149953Y0201329D01*
X0149953Y0202693D01*
X0153953Y0202693D01*
X0153953Y0198693D01*
X0153953Y0200204D02*
X0154953Y0200204D01*
X0154953Y0201202D02*
X0153953Y0201202D01*
X0153953Y0202201D02*
X0154953Y0202201D01*
X0154953Y0203199D02*
X0160353Y0203199D01*
X0160353Y0202201D02*
X0158953Y0202201D01*
X0158826Y0201202D02*
X0160645Y0201202D01*
X0161644Y0200204D02*
X0157828Y0200204D01*
X0153953Y0203199D02*
X0148553Y0203199D01*
X0148553Y0202201D02*
X0149953Y0202201D01*
X0150079Y0201202D02*
X0148260Y0201202D01*
X0148553Y0201495D02*
X0146151Y0199093D01*
X0142754Y0199093D01*
X0140353Y0201495D01*
X0140353Y0204891D01*
X0142754Y0207293D01*
X0146151Y0207293D01*
X0148553Y0204891D01*
X0148553Y0201495D01*
X0147262Y0200204D02*
X0151078Y0200204D01*
X0152076Y0199205D02*
X0146263Y0199205D01*
X0142642Y0199205D02*
X0136263Y0199205D01*
X0136151Y0199093D02*
X0138553Y0201495D01*
X0138553Y0204891D01*
X0136151Y0207293D01*
X0132754Y0207293D01*
X0130353Y0204891D01*
X0130353Y0201495D01*
X0132754Y0199093D01*
X0136151Y0199093D01*
X0137262Y0200204D02*
X0141644Y0200204D01*
X0140645Y0201202D02*
X0138260Y0201202D01*
X0138553Y0202201D02*
X0140353Y0202201D01*
X0140353Y0203199D02*
X0138553Y0203199D01*
X0138553Y0204198D02*
X0140353Y0204198D01*
X0140658Y0205196D02*
X0138248Y0205196D01*
X0137249Y0206195D02*
X0141656Y0206195D01*
X0142655Y0207193D02*
X0136251Y0207193D01*
X0136151Y0209093D02*
X0132754Y0209093D01*
X0130353Y0211495D01*
X0130353Y0214891D01*
X0132754Y0217293D01*
X0136151Y0217293D01*
X0138553Y0214891D01*
X0138553Y0211495D01*
X0136151Y0209093D01*
X0136248Y0209190D02*
X0142657Y0209190D01*
X0142754Y0209093D02*
X0146151Y0209093D01*
X0148553Y0211495D01*
X0148553Y0214891D01*
X0146151Y0217293D01*
X0142754Y0217293D01*
X0140353Y0214891D01*
X0140353Y0211495D01*
X0142754Y0209093D01*
X0141659Y0210189D02*
X0137247Y0210189D01*
X0138245Y0211187D02*
X0140660Y0211187D01*
X0140353Y0212186D02*
X0138553Y0212186D01*
X0138553Y0213184D02*
X0140353Y0213184D01*
X0140353Y0214183D02*
X0138553Y0214183D01*
X0138263Y0215181D02*
X0140643Y0215181D01*
X0141642Y0216180D02*
X0137264Y0216180D01*
X0136265Y0217178D02*
X0142640Y0217178D01*
X0146265Y0217178D02*
X0152640Y0217178D01*
X0152754Y0217293D02*
X0150353Y0214891D01*
X0150353Y0211495D01*
X0152754Y0209093D01*
X0156151Y0209093D01*
X0158553Y0211495D01*
X0158553Y0214891D01*
X0156151Y0217293D01*
X0152754Y0217293D01*
X0151642Y0216180D02*
X0147264Y0216180D01*
X0148263Y0215181D02*
X0150643Y0215181D01*
X0150353Y0214183D02*
X0148553Y0214183D01*
X0148553Y0213184D02*
X0150353Y0213184D01*
X0150353Y0212186D02*
X0148553Y0212186D01*
X0148245Y0211187D02*
X0150660Y0211187D01*
X0151659Y0210189D02*
X0147247Y0210189D01*
X0146248Y0209190D02*
X0152657Y0209190D01*
X0152089Y0207193D02*
X0146251Y0207193D01*
X0147249Y0206195D02*
X0151091Y0206195D01*
X0150092Y0205196D02*
X0148248Y0205196D01*
X0148553Y0204198D02*
X0149953Y0204198D01*
X0153953Y0204198D02*
X0154953Y0204198D01*
X0154953Y0205196D02*
X0153953Y0205196D01*
X0153953Y0206195D02*
X0154953Y0206195D01*
X0154953Y0207193D02*
X0153953Y0207193D01*
X0156816Y0207193D02*
X0162655Y0207193D01*
X0161656Y0206195D02*
X0157815Y0206195D01*
X0158813Y0205196D02*
X0160658Y0205196D01*
X0160353Y0204198D02*
X0158953Y0204198D01*
X0156248Y0209190D02*
X0162657Y0209190D01*
X0161659Y0210189D02*
X0157247Y0210189D01*
X0158245Y0211187D02*
X0160660Y0211187D01*
X0160353Y0212186D02*
X0158553Y0212186D01*
X0158553Y0213184D02*
X0160353Y0213184D01*
X0160353Y0214183D02*
X0158553Y0214183D01*
X0158263Y0215181D02*
X0160643Y0215181D01*
X0161642Y0216180D02*
X0157264Y0216180D01*
X0156265Y0217178D02*
X0162640Y0217178D01*
X0166265Y0217178D02*
X0172074Y0217178D01*
X0171076Y0216180D02*
X0167264Y0216180D01*
X0168263Y0215181D02*
X0170077Y0215181D01*
X0169953Y0214183D02*
X0168553Y0214183D01*
X0173953Y0214183D02*
X0174953Y0214183D01*
X0174953Y0215181D02*
X0173953Y0215181D01*
X0173953Y0216180D02*
X0174953Y0216180D01*
X0174953Y0217178D02*
X0173953Y0217178D01*
X0176831Y0217178D02*
X0182640Y0217178D01*
X0181642Y0216180D02*
X0177830Y0216180D01*
X0178828Y0215181D02*
X0180643Y0215181D01*
X0180353Y0214183D02*
X0178953Y0214183D01*
X0174953Y0211187D02*
X0173953Y0211187D01*
X0173953Y0210189D02*
X0174953Y0210189D01*
X0174953Y0209190D02*
X0173953Y0209190D01*
X0186265Y0217178D02*
X0192074Y0217178D01*
X0191076Y0216180D02*
X0187264Y0216180D01*
X0188262Y0215181D02*
X0190077Y0215181D01*
X0189953Y0214183D02*
X0188553Y0214183D01*
X0193953Y0214183D02*
X0194953Y0214183D01*
X0194953Y0215181D02*
X0193953Y0215181D01*
X0193953Y0216180D02*
X0194953Y0216180D01*
X0194953Y0217178D02*
X0193953Y0217178D01*
X0196831Y0217178D02*
X0202640Y0217178D01*
X0201642Y0216180D02*
X0197830Y0216180D01*
X0198828Y0215181D02*
X0200643Y0215181D01*
X0200353Y0214183D02*
X0198953Y0214183D01*
X0194953Y0211187D02*
X0193953Y0211187D01*
X0193953Y0210189D02*
X0194953Y0210189D01*
X0194953Y0209190D02*
X0193953Y0209190D01*
X0247284Y0196210D02*
X0255906Y0196210D01*
X0255906Y0197208D02*
X0250000Y0197208D01*
X0251190Y0198207D02*
X0255906Y0198207D01*
X0255906Y0199205D02*
X0252380Y0199205D01*
X0253461Y0200204D02*
X0255906Y0200204D01*
X0255906Y0201202D02*
X0254037Y0201202D01*
X0254614Y0202201D02*
X0255906Y0202201D01*
X0255906Y0203199D02*
X0255190Y0203199D01*
X0255626Y0204198D02*
X0255906Y0204198D01*
X0255906Y0205196D02*
X0255802Y0205196D01*
X0132655Y0207193D02*
X0126251Y0207193D01*
X0126151Y0207293D02*
X0122754Y0207293D01*
X0120353Y0204891D01*
X0120353Y0201495D01*
X0122754Y0199093D01*
X0126151Y0199093D01*
X0128553Y0201495D01*
X0128553Y0204891D01*
X0126151Y0207293D01*
X0126317Y0208693D02*
X0128953Y0211329D01*
X0128953Y0212693D01*
X0124953Y0212693D01*
X0124953Y0213693D01*
X0128953Y0213693D01*
X0128953Y0215057D01*
X0126317Y0217693D01*
X0124953Y0217693D01*
X0124953Y0213693D01*
X0123953Y0213693D01*
X0123953Y0217693D01*
X0122589Y0217693D01*
X0119953Y0215057D01*
X0119953Y0213693D01*
X0123953Y0213693D01*
X0123953Y0212693D01*
X0124953Y0212693D01*
X0124953Y0208693D01*
X0126317Y0208693D01*
X0126814Y0209190D02*
X0132657Y0209190D01*
X0131659Y0210189D02*
X0127813Y0210189D01*
X0128811Y0211187D02*
X0130660Y0211187D01*
X0130353Y0212186D02*
X0128953Y0212186D01*
X0130353Y0213184D02*
X0124953Y0213184D01*
X0124953Y0212186D02*
X0123953Y0212186D01*
X0123953Y0212693D02*
X0123953Y0208693D01*
X0122589Y0208693D01*
X0119953Y0211329D01*
X0119953Y0212693D01*
X0123953Y0212693D01*
X0123953Y0213184D02*
X0118553Y0213184D01*
X0118553Y0212186D02*
X0119953Y0212186D01*
X0120094Y0211187D02*
X0118245Y0211187D01*
X0117247Y0210189D02*
X0121093Y0210189D01*
X0122091Y0209190D02*
X0116248Y0209190D01*
X0116251Y0207193D02*
X0122655Y0207193D01*
X0121656Y0206195D02*
X0117249Y0206195D01*
X0118248Y0205196D02*
X0120658Y0205196D01*
X0120353Y0204198D02*
X0118553Y0204198D01*
X0118553Y0203199D02*
X0120353Y0203199D01*
X0120353Y0202201D02*
X0118553Y0202201D01*
X0118260Y0201202D02*
X0120645Y0201202D01*
X0121644Y0200204D02*
X0117262Y0200204D01*
X0116263Y0199205D02*
X0122642Y0199205D01*
X0126263Y0199205D02*
X0132642Y0199205D01*
X0131644Y0200204D02*
X0127262Y0200204D01*
X0128260Y0201202D02*
X0130645Y0201202D01*
X0130353Y0202201D02*
X0128553Y0202201D01*
X0128553Y0203199D02*
X0130353Y0203199D01*
X0130353Y0204198D02*
X0128553Y0204198D01*
X0128248Y0205196D02*
X0130658Y0205196D01*
X0131656Y0206195D02*
X0127249Y0206195D01*
X0124953Y0209190D02*
X0123953Y0209190D01*
X0123953Y0210189D02*
X0124953Y0210189D01*
X0124953Y0211187D02*
X0123953Y0211187D01*
X0123953Y0214183D02*
X0124953Y0214183D01*
X0124953Y0215181D02*
X0123953Y0215181D01*
X0123953Y0216180D02*
X0124953Y0216180D01*
X0124953Y0217178D02*
X0123953Y0217178D01*
X0122074Y0217178D02*
X0116265Y0217178D01*
X0117264Y0216180D02*
X0121076Y0216180D01*
X0120077Y0215181D02*
X0118262Y0215181D01*
X0118553Y0214183D02*
X0119953Y0214183D01*
X0126831Y0217178D02*
X0132640Y0217178D01*
X0131642Y0216180D02*
X0127830Y0216180D01*
X0128828Y0215181D02*
X0130643Y0215181D01*
X0130353Y0214183D02*
X0128953Y0214183D01*
X0112642Y0199205D02*
X0112385Y0199205D01*
X0069278Y0028460D02*
X0062858Y0028460D01*
X0064274Y0027461D02*
X0067402Y0027461D01*
X0066403Y0026463D02*
X0065088Y0026463D01*
X0065550Y0025464D02*
X0065988Y0025464D01*
X0065755Y0022469D02*
X0065729Y0022469D01*
X0065375Y0021470D02*
X0066169Y0021470D01*
X0066839Y0020472D02*
X0064772Y0020472D01*
X0063775Y0019473D02*
X0067919Y0019473D01*
X0061055Y0019473D02*
X0060055Y0019473D01*
X0060055Y0020472D02*
X0061055Y0020472D01*
X0061055Y0021470D02*
X0060055Y0021470D01*
X0060055Y0022469D02*
X0061055Y0022469D01*
X0061055Y0024466D02*
X0060055Y0024466D01*
X0060055Y0025464D02*
X0061055Y0025464D01*
X0061055Y0026463D02*
X0060055Y0026463D01*
X0060055Y0027461D02*
X0061055Y0027461D01*
X0061055Y0028460D02*
X0060055Y0028460D01*
X0058252Y0028460D02*
X0054936Y0028460D01*
X0055455Y0027461D02*
X0056836Y0027461D01*
X0056022Y0026463D02*
X0055455Y0026463D01*
X0055455Y0025464D02*
X0055560Y0025464D01*
X0055455Y0021470D02*
X0055735Y0021470D01*
X0055455Y0020472D02*
X0056339Y0020472D01*
X0055455Y0019473D02*
X0057335Y0019473D01*
X0027949Y0015479D02*
X0230956Y0015479D01*
X0231062Y0014481D02*
X0027843Y0014481D01*
X0027667Y0013482D02*
X0231238Y0013482D01*
X0231414Y0012484D02*
X0027491Y0012484D01*
X0027315Y0011485D02*
X0231590Y0011485D01*
X0231946Y0010487D02*
X0026960Y0010487D01*
X0026383Y0009488D02*
X0232522Y0009488D01*
X0233099Y0008490D02*
X0025807Y0008490D01*
X0025230Y0007491D02*
X0233675Y0007491D01*
X0234633Y0006493D02*
X0024272Y0006493D01*
X0023082Y0005494D02*
X0235823Y0005494D01*
X0237013Y0004496D02*
X0021892Y0004496D01*
X0019489Y0003497D02*
X0239416Y0003497D01*
X0231133Y0016478D02*
X0027773Y0016478D01*
X0027597Y0017476D02*
X0231309Y0017476D01*
X0246739Y0027461D02*
X0255906Y0027461D01*
X0255906Y0026463D02*
X0249482Y0026463D01*
X0250953Y0025464D02*
X0255906Y0025464D01*
X0255906Y0024466D02*
X0252143Y0024466D01*
X0253333Y0023467D02*
X0255906Y0023467D01*
X0255906Y0022469D02*
X0253923Y0022469D01*
X0254499Y0021470D02*
X0255906Y0021470D01*
X0255906Y0020472D02*
X0255076Y0020472D01*
X0255591Y0019473D02*
X0255906Y0019473D01*
X0255906Y0018475D02*
X0255767Y0018475D01*
D14*
X0080700Y0163500D02*
X0073500Y0156300D01*
X0040500Y0197100D02*
X0108300Y0197100D01*
X0114300Y0203100D01*
X0114453Y0203193D01*
X0040500Y0197100D02*
X0034500Y0203100D01*
X0034453Y0203193D01*
D15*
X0080700Y0163500D03*
X0073500Y0156300D03*
M02*
